<svg width="95" height="88" viewBox="0 0 95 88" fill="none" xmlns="http://www.w3.org/2000/svg">
<path fill-rule="evenodd" clip-rule="evenodd" d="M21.3855 20.9338C23.9778 18.7923 27.81 24.766 32.4312 23.1881C37.0523 21.6101 38.1794 9.6627 47.0836 6.39407C55.9878 3.12545 69.5132 6.05594 70.1894 5.83052C70.753 5.49238 69.6259 1.77291 71.3165 1.09664C75.1487 -0.594027 83.6021 16.5381 80.7843 18.4542C79.2063 19.4686 76.7267 16.5381 76.1631 16.8762C75.5996 17.2143 70.8657 30.1761 63.2013 35.9244C55.537 41.6727 44.9421 36.1498 41.1099 39.1931C37.2777 42.2363 40.0955 48.6608 36.9396 49.6752C31.8676 51.2532 17.3278 24.3152 21.3855 20.9338Z" fill="#F0F2FB"/>
<path fill-rule="evenodd" clip-rule="evenodd" d="M20.9343 20.3703C22.5123 19.0177 24.203 20.0321 26.2318 21.0465C28.0351 22.0609 30.0639 23.188 32.2055 22.3991C33.8961 21.8355 35.1359 19.4686 36.6012 16.6508C38.7427 12.4805 41.4478 7.63389 46.8579 5.60509C53.9587 3.01273 63.8773 4.25256 68.1603 4.81611C69.2875 4.92882 69.851 5.04153 69.851 5.04153C70.0764 4.92882 69.6256 4.7034 69.6256 4.25256C69.6256 2.78731 69.5129 0.871221 71.0908 0.194953C72.4434 -0.368603 74.0213 0.645798 75.5993 2.44918C76.7264 3.80171 77.9662 5.60509 78.9806 7.52118C79.995 9.43728 80.8967 11.4661 81.4603 13.2695C82.2493 15.8618 82.362 18.0033 81.2349 18.7923C79.8823 19.694 78.3044 18.6796 77.0645 17.7779C76.7264 17.5525 76.7264 17.1016 76.501 17.2144C76.501 17.2144 76.2756 17.8906 75.8247 18.7923C74.0213 22.8499 69.7383 31.8668 63.6519 36.3753C59.0307 39.8693 53.3952 39.4185 48.774 38.9676C45.6181 38.7422 43.0257 38.5168 41.5605 39.5312C39.8698 40.8837 39.6444 43.2507 39.5317 45.2795C39.3063 47.5337 39.1936 49.5625 37.2775 50.126C35.5868 50.6896 33.2199 48.8862 30.8529 46.0684C28.9368 43.7015 26.908 40.6583 25.2174 37.3897C23.414 34.121 21.9487 30.8524 21.047 27.9219C19.8072 24.4279 19.5818 21.4974 20.9343 20.3703ZM25.6682 22.2864C24.0902 21.4974 22.7377 20.7084 21.9487 21.3847C21.047 22.0609 21.3852 24.4279 22.3996 27.4711C23.3013 30.2889 24.7665 33.5575 26.4572 36.7134C28.1479 39.8693 30.0639 42.9125 31.98 45.1667C34.0088 47.6464 35.8122 49.1116 36.9393 48.7735C37.9537 48.4354 38.0664 46.8574 38.2919 45.1667C38.5173 42.7998 38.63 40.2075 40.8842 38.4041C42.6876 36.9388 45.6181 37.277 48.9994 37.5024C53.3952 37.8405 58.6926 38.2914 62.9756 35.1354C68.7239 30.7397 72.8942 22.0609 74.6976 18.2288C75.1484 17.3271 75.4866 16.6508 75.712 16.3127C75.712 16.1999 75.8247 16.0872 75.9374 16.0872C76.501 15.7491 77.1772 16.1999 77.9662 16.7635C78.7552 17.3271 79.8823 18.116 80.5586 17.7779C81.1221 17.4398 80.8967 15.8618 80.3332 13.833C79.7696 12.1423 78.9806 10.2263 77.9662 8.31016C76.9518 6.50678 75.8247 4.7034 74.6976 3.46358C73.5705 2.11104 72.4434 1.32206 71.7671 1.6602C71.0908 1.88562 71.2036 3.35087 71.2036 4.36527C71.2036 5.37967 71.3163 6.16865 70.64 6.39407C70.3019 6.50678 69.5129 6.39407 68.1603 6.28136C63.99 5.71781 54.2969 4.47798 47.5342 7.07034C42.5749 8.87372 40.0952 13.6076 38.0664 17.5525C36.4885 20.5957 35.136 23.1881 32.8817 23.8643C30.0639 24.766 27.697 23.4135 25.6682 22.2864Z" fill="#6B5DFF"/>
<path fill-rule="evenodd" clip-rule="evenodd" d="M23.0761 20.1448C23.3015 20.483 23.0761 20.9338 22.738 21.0465C22.3998 21.272 21.949 21.0465 21.8363 20.7084C21.8363 20.7084 17.7787 13.2695 22.2871 10.0008C24.8795 8.08474 28.7117 9.6627 31.8676 10.9025C33.8964 11.6915 35.6998 12.4805 36.376 12.0296C37.0523 11.5788 37.3904 10.9025 37.5032 10.2263C37.6159 9.77541 37.6159 9.32456 37.5032 8.98643C37.3904 8.64829 37.2777 8.31017 37.165 7.97203C37.0523 7.85932 36.9396 7.74661 36.9396 7.74661C36.2633 7.6339 36.0379 7.29577 36.1506 6.84492C36.2633 6.50679 36.6015 6.16865 37.165 6.16865C37.5032 6.16865 37.8413 6.05594 38.2921 6.16865C39.6447 6.39407 41.4481 7.29576 40.9972 10.1135C40.6591 12.4805 40.0955 13.9457 39.0811 14.8474C38.0667 15.7491 36.6015 16.0872 34.7981 15.8618C33.5583 15.7491 32.093 15.2983 30.6278 14.7347C28.1481 13.9457 25.6685 13.044 24.6541 14.1712C23.0761 15.9745 25.8939 20.9338 25.8939 20.9338C26.1193 21.272 26.0066 21.7228 25.6685 21.8355C25.3303 22.0609 24.8795 21.9482 24.7668 21.6101C24.7668 21.6101 21.3854 15.8618 23.6397 13.2695C25.2176 11.4661 28.1481 12.4805 31.0786 13.4949C32.4311 13.9457 33.7837 14.3966 34.9108 14.5093C36.376 14.622 37.3904 14.5093 38.1794 13.833C38.9684 13.1567 39.4193 11.9169 39.6447 10.0008C39.8701 8.6483 39.3065 7.97203 38.6303 7.74661C38.743 8.08474 38.8557 8.42287 38.9684 8.87372C39.0811 9.43728 39.0811 10.0008 38.9684 10.6771C38.743 11.6915 38.2921 12.7059 37.2777 13.3822C36.0379 14.1711 33.8964 13.3822 31.5295 12.4805C28.599 11.3534 25.2176 10.0008 23.1888 11.4661C19.6948 13.7203 23.0761 20.1448 23.0761 20.1448Z" fill="#6B5DFF"/>
<path fill-rule="evenodd" clip-rule="evenodd" d="M37.3908 49.2243C37.1654 48.8862 37.2781 48.4354 37.6163 48.3226C37.9544 48.0972 38.4052 48.2099 38.518 48.5481C38.518 48.5481 42.012 54.8599 46.0696 53.2819C48.3238 52.3803 49.1128 48.7735 49.6764 45.7303C50.1272 43.1379 50.5781 40.9964 52.0433 40.3201C53.1704 39.8693 54.1848 39.982 55.1992 40.3201C55.7628 40.5456 56.3263 40.8837 56.6645 41.2218C57.0026 41.4473 57.228 41.7854 57.4534 42.1235C57.5662 41.4473 57.3407 40.6583 56.1009 40.0947C54.2975 39.193 52.945 38.9676 52.0433 39.193C51.1416 39.4185 50.3526 40.2074 49.6764 41.56C49.2255 42.4617 48.7747 43.9269 48.4365 45.2794C47.6476 48.2099 46.8586 51.2531 44.6044 51.5913C41.223 52.1548 38.1798 46.1811 38.1798 46.0684C37.9544 45.7303 38.1798 45.2794 38.518 45.1667C38.8561 44.9413 39.3069 45.1667 39.4196 45.5049C39.4196 45.5049 42.012 50.5769 44.3789 50.2387C45.8442 50.0133 46.4077 47.421 47.084 44.9413C47.4221 43.4761 47.873 42.0108 48.4365 40.8837C49.3382 39.193 50.2399 38.1786 51.7052 37.8405C53.0577 37.5024 54.6357 37.7278 56.7772 38.7422C59.3695 39.982 59.2568 41.8981 58.6933 43.2506C58.4678 43.5888 58.2424 43.9269 58.1297 44.1523C57.7916 44.6032 57.3407 44.7159 57.0026 44.6032C56.5518 44.3778 56.439 44.0396 56.6645 43.4761C56.6645 43.3634 56.6645 43.2506 56.5518 43.1379C56.439 42.9125 56.2136 42.5744 55.9882 42.349C55.6501 42.1235 55.3119 41.7854 54.8611 41.6727C54.1848 41.4473 53.5085 41.3345 52.8323 41.6727C52.156 42.0108 51.7052 43.9269 51.367 46.0684C50.6908 49.4498 49.9018 53.5074 46.8586 54.6345C41.4484 56.6633 37.3908 49.3371 37.3908 49.2243Z" fill="#6B5DFF"/>
<path fill-rule="evenodd" clip-rule="evenodd" d="M21.3848 24.0897C21.2721 24.2024 21.723 25.4423 22.3992 27.5838C23.3009 29.9507 24.7662 33.1066 26.6823 36.6007C28.4857 39.982 30.4017 42.9125 31.867 44.9413C33.2195 46.7447 34.1212 47.7591 34.2339 47.7591C34.3466 47.6464 33.8958 46.4066 33.2195 44.265C32.3178 41.8981 30.8526 38.7422 28.9365 35.2481C27.1331 31.8668 25.217 28.8236 23.6391 26.7948C22.3992 25.1041 21.4976 24.0897 21.3848 24.0897ZM21.0467 28.0346C20.0323 25.2168 19.8069 23.3008 20.5959 22.8499C21.3848 22.3991 22.9628 23.6389 24.7662 26.0058C26.3441 28.1473 28.2602 31.1905 30.1763 34.5719C32.0924 38.0659 33.5577 41.3346 34.4594 43.7015C35.4738 46.5193 35.6992 48.4354 34.9102 48.8862C34.1212 49.3371 32.5433 48.0972 30.7399 45.7303C29.1619 43.5888 27.2458 40.6583 25.4425 37.1642V37.0515C23.5264 33.7829 22.0611 30.5143 21.0467 28.0346Z" fill="#6B5DFF"/>
<path fill-rule="evenodd" clip-rule="evenodd" d="M30.4023 31.7541C29.8387 30.4016 28.937 29.2745 28.2608 27.9219C27.6972 26.7948 27.1336 25.6677 26.3447 24.6533C25.443 23.4135 23.865 21.4974 22.1743 22.0609V22.1736C24.0904 22.7372 25.443 24.3152 26.5701 25.8931C27.9226 27.8092 28.937 29.9507 30.2896 31.8668C30.2896 31.8668 30.4023 31.8668 30.4023 31.7541Z" fill="#6B5DFF"/>
<path fill-rule="evenodd" clip-rule="evenodd" d="M33.1076 37.3897C33.2203 37.3897 33.3331 37.5024 33.4458 37.5024C33.6712 37.6151 33.7839 37.2769 33.6712 37.1642C33.5585 37.0515 33.3331 37.0515 33.2203 37.1642C32.9949 37.1642 32.9949 37.3897 33.1076 37.3897Z" fill="#6B5DFF"/>
<path fill-rule="evenodd" clip-rule="evenodd" d="M33.2202 38.1787C33.3329 38.2914 33.5583 38.4041 33.7837 38.4041C34.0091 38.4041 34.2346 38.066 34.0092 37.8405C33.8964 37.7278 33.7837 37.7278 33.5583 37.6151C33.2202 37.3897 32.882 37.9532 33.2202 38.1787Z" fill="#6B5DFF"/>
<path fill-rule="evenodd" clip-rule="evenodd" d="M34.1218 38.9676C34.2345 39.0803 34.2345 39.0803 34.3472 39.0803C34.4599 39.0803 34.4599 38.9676 34.3472 38.9676V38.8549C34.3472 38.6295 34.0091 38.8549 34.1218 38.9676Z" fill="#6B5DFF"/>
<path fill-rule="evenodd" clip-rule="evenodd" d="M34.4594 39.8693C34.5721 39.8693 34.5721 39.982 34.6848 39.8693C34.7975 39.8693 34.6848 39.7566 34.6848 39.7566C34.5721 39.7566 34.4594 39.7566 34.4594 39.8693C34.3466 39.8693 34.3466 39.7566 34.4594 39.8693Z" fill="#6B5DFF"/>
<path fill-rule="evenodd" clip-rule="evenodd" d="M34.9107 40.8837C35.0235 40.9964 35.1362 41.1091 35.3616 41.1091C35.4743 41.1091 35.4743 40.9964 35.4743 40.9964C35.4743 40.8837 35.3616 40.8837 35.2489 40.771C35.1362 40.5456 34.798 40.6583 34.9107 40.8837Z" fill="#6B5DFF"/>
<path fill-rule="evenodd" clip-rule="evenodd" d="M36.3758 43.9269C36.3758 43.9269 36.3758 44.0396 36.3758 44.1523C36.3758 44.1523 36.4885 44.2651 36.4885 44.1523C36.6012 44.0396 36.6012 44.0396 36.6012 43.9269C36.6012 43.7015 36.3758 43.8142 36.3758 43.9269Z" fill="#6B5DFF"/>
<path fill-rule="evenodd" clip-rule="evenodd" d="M36.4882 44.3778C36.4882 44.6032 36.4882 44.8286 36.6009 45.1667C36.7136 45.5049 36.8264 45.9557 36.9391 46.2939C37.0518 46.7447 37.0518 47.0828 37.0518 47.5337C37.0518 47.8718 36.8264 48.21 36.8264 48.6608C36.8264 48.8862 37.0518 48.9989 37.1645 48.8862C37.8408 48.5481 37.8408 47.6464 37.6153 46.9701C37.5026 46.632 37.3899 46.1811 37.1645 45.843C36.9391 45.3922 36.8264 44.9413 36.4882 44.4905C36.7136 44.1523 36.4882 44.2651 36.4882 44.3778Z" fill="#6B5DFF"/>
<path fill-rule="evenodd" clip-rule="evenodd" d="M46.8579 51.8167C45.7308 52.2675 44.6037 51.8167 43.5893 51.2531C43.1384 51.0277 42.6876 50.6896 42.2367 50.3515C41.8986 50.126 41.6732 49.7879 41.335 49.6752C41.2223 49.6752 41.1096 49.7879 41.1096 49.9006C41.335 50.915 43.0257 51.704 43.8147 52.1548C44.9418 52.493 45.9562 52.6057 46.8579 51.8167Z" fill="#6B5DFF"/>
<path fill-rule="evenodd" clip-rule="evenodd" d="M48.0979 50.0133C48.9996 47.7591 49.6759 45.3922 50.014 43.0252C50.014 42.9125 49.9013 42.9125 49.9013 43.0252C48.9996 45.1667 48.7742 47.6464 48.0979 50.0133Z" fill="#6B5DFF"/>
<path fill-rule="evenodd" clip-rule="evenodd" d="M54.9731 41.2219C54.9731 40.771 54.8604 40.4329 54.7477 40.0947C54.635 39.7566 54.5223 39.4185 54.1841 39.1931C54.0714 39.1931 53.9587 39.193 53.9587 39.3058C53.846 39.6439 54.0714 39.982 54.1841 40.2075C54.2968 40.5456 54.4095 40.9964 54.635 41.3346C54.635 41.56 54.9731 41.56 54.9731 41.2219Z" fill="#6B5DFF"/>
<path fill-rule="evenodd" clip-rule="evenodd" d="M53.5081 40.0947C53.5081 39.982 53.3954 39.8693 53.3954 39.7566C53.3954 39.8693 53.3954 39.982 53.5081 40.0947Z" fill="#6B5DFF"/>
<path fill-rule="evenodd" clip-rule="evenodd" d="M53.3952 40.771C53.2825 40.5456 53.1698 40.2074 52.9444 39.982C52.8317 39.7566 52.719 39.4185 52.3808 39.3058C52.2681 39.3058 52.1554 39.3058 52.1554 39.4185C52.0427 39.6439 52.2681 39.982 52.3808 40.2074C52.6063 40.5456 52.719 40.771 53.0571 40.9964C53.2825 41.1091 53.5079 40.8837 53.3952 40.771Z" fill="#6B5DFF"/>
<path fill-rule="evenodd" clip-rule="evenodd" d="M51.705 40.5456C51.4796 40.3202 51.3669 39.8693 51.1415 39.7566C51.0288 39.7566 50.916 39.7566 50.916 39.8693C50.916 40.2074 51.2542 40.5456 51.3669 40.8837C51.5923 41.1091 51.9304 40.771 51.705 40.5456Z" fill="#6B5DFF"/>
<path fill-rule="evenodd" clip-rule="evenodd" d="M37.8411 37.3897C38.4046 39.6439 38.1792 42.1235 38.9682 44.2651C38.9682 44.3778 39.1936 44.3778 39.1936 44.2651C39.8699 42.0108 39.3063 39.193 37.8411 37.3897Z" fill="#6B5DFF"/>
<path fill-rule="evenodd" clip-rule="evenodd" d="M33.1073 27.8092C32.5437 25.555 30.1768 23.4135 28.148 22.6245C27.9226 22.5118 27.6971 22.8499 27.9226 22.9626C28.8243 23.8643 29.9514 24.4279 30.8531 25.3295C31.642 26.1185 31.9802 27.2456 32.8819 27.9219C32.9946 28.0346 33.1073 27.9219 33.1073 27.8092Z" fill="#6B5DFF"/>
<path fill-rule="evenodd" clip-rule="evenodd" d="M27.021 33.5575C26.3448 32.3176 25.6685 31.3032 25.3304 29.9507C25.1049 29.049 25.1049 28.0346 24.6541 27.1329C24.5414 27.0202 24.4287 27.0202 24.4287 27.2456C24.316 28.3727 24.7668 29.4999 25.1049 30.5143C25.4431 31.7541 26.232 32.5431 27.021 33.5575Z" fill="#6B5DFF"/>
<path fill-rule="evenodd" clip-rule="evenodd" d="M29.2748 38.0659C30.2892 39.982 31.1909 42.2362 33.2197 43.4761C33.3324 43.5888 33.5578 43.3633 33.4451 43.2506C32.0926 41.4473 30.5146 39.8693 29.2748 38.0659C29.2748 37.9532 29.1621 38.0659 29.2748 38.0659Z" fill="#6B5DFF"/>
<path fill-rule="evenodd" clip-rule="evenodd" d="M27.9224 12.1423C26.7953 11.3534 25.1047 11.8042 24.0903 12.5932C23.1886 13.2695 22.3996 15.2983 23.3013 16.1999C23.414 16.3127 23.6394 16.3127 23.6394 16.0872C23.7521 15.6364 23.5267 15.1855 23.5267 14.7347C23.5267 14.0584 23.8648 13.3822 24.4284 12.9313C25.5555 12.0296 26.6826 12.255 27.9224 12.1423Z" fill="#6B5DFF"/>
<path fill-rule="evenodd" clip-rule="evenodd" d="M32.5437 25.2169C32.6564 25.4423 32.7691 25.6677 32.8818 25.8931C32.9945 26.1185 33.1072 26.344 33.2199 26.4567C33.5581 26.9075 34.1216 26.5694 33.8962 26.1185C33.7835 25.8931 33.5581 25.6677 33.4453 25.4423C33.2199 25.2169 32.9945 25.1041 32.7691 24.9914C32.5437 24.766 32.4309 25.1041 32.5437 25.2169Z" fill="#6B5DFF"/>
<path fill-rule="evenodd" clip-rule="evenodd" d="M33.5577 24.4279C33.5577 24.5406 33.5577 24.5406 33.5577 24.6533C33.5577 24.766 33.6704 24.8787 33.6704 24.9914C33.7831 25.2168 33.8958 25.4423 34.2339 25.4423C34.3467 25.4423 34.4594 25.3295 34.4594 25.2168C34.4594 24.9914 34.2339 24.766 34.1212 24.6533C34.0085 24.5406 33.8958 24.5406 33.7831 24.5406C33.7831 24.3151 33.6704 24.4279 33.5577 24.4279Z" fill="#6B5DFF"/>
<path fill-rule="evenodd" clip-rule="evenodd" d="M34.4598 23.8643C34.5725 23.977 34.7979 24.2024 35.0234 24.2024C35.1361 24.2024 35.2488 24.0897 35.1361 23.977C35.0234 23.8643 34.9107 23.7516 34.6852 23.6389C34.5725 23.4135 34.3471 23.7516 34.4598 23.8643Z" fill="#6B5DFF"/>
<path fill-rule="evenodd" clip-rule="evenodd" d="M35.5871 23.6389H35.6998C35.6998 23.6389 35.8125 23.6389 35.8125 23.5262C35.8125 23.4135 35.8125 23.4135 35.6998 23.4135C35.6998 23.4135 35.4744 23.5262 35.5871 23.6389Z" fill="#6B5DFF"/>
<path fill-rule="evenodd" clip-rule="evenodd" d="M32.7689 13.3822C33.896 13.7203 35.0232 13.9457 36.1503 13.6076C36.9393 13.3822 38.0664 12.7059 38.0664 11.8042C38.0664 11.5788 37.8409 11.5788 37.7282 11.6915C37.3901 11.9169 37.2774 12.2551 36.9392 12.4805C36.6011 12.8186 36.0376 13.044 35.5867 13.2695C34.7977 13.4949 33.7833 13.6076 32.7689 13.3822C32.7689 13.2695 32.6562 13.2695 32.7689 13.3822Z" fill="#6B5DFF"/>
<path fill-rule="evenodd" clip-rule="evenodd" d="M76.0497 16.9889C76.6132 16.5381 76.9514 15.9745 76.8386 15.2983C76.6132 13.6076 75.4861 12.2551 74.9226 10.6771C74.1336 8.53559 71.6539 5.26697 69.1743 5.37968C68.8361 5.37968 68.7234 5.83052 69.0616 5.94323C71.6539 6.73221 73.0065 7.97204 74.2463 10.339C75.3734 12.4805 76.0497 14.5093 76.0497 16.9889C75.937 16.9889 75.937 16.9889 76.0497 16.9889Z" fill="#6B5DFF"/>
<path fill-rule="evenodd" clip-rule="evenodd" d="M72.5568 9.88812C72.444 9.21186 71.9932 8.6483 71.5424 8.19745C71.0915 7.74661 70.528 7.29576 69.9644 7.29576C69.739 7.29576 69.739 7.52119 69.8517 7.6339C70.1898 8.08474 70.7534 8.31017 71.2042 8.6483C71.6551 9.09915 71.9932 9.6627 72.4441 10.0008C72.4441 10.0008 72.5568 10.0008 72.5568 9.88812Z" fill="#6B5DFF"/>
<path fill-rule="evenodd" clip-rule="evenodd" d="M69.9637 8.76102C69.6256 8.31017 69.1747 7.63391 68.6112 7.52119C68.4985 7.52119 68.4985 7.6339 68.4985 7.6339C68.7239 7.85933 68.9493 8.08475 69.1747 8.19746C69.4001 8.42288 69.6256 8.6483 69.851 8.87373C69.851 9.09915 70.0764 8.87373 69.9637 8.76102Z" fill="#6B5DFF"/>
<path fill-rule="evenodd" clip-rule="evenodd" d="M75.7124 9.09914C75.3743 8.31016 74.9234 7.52119 74.4726 6.84492C74.1345 6.28136 73.6836 5.60509 73.0073 5.49238C72.7819 5.49238 72.7819 5.7178 72.8946 5.83052C73.3455 6.39407 73.909 6.7322 74.3599 7.29576C74.8107 7.85931 75.2616 8.53559 75.5997 9.21185C75.7124 9.21185 75.8251 9.21186 75.7124 9.09914Z" fill="#6B5DFF"/>
<path fill-rule="evenodd" clip-rule="evenodd" d="M79.2057 17.3271C79.3185 17.5525 79.4312 17.6652 79.6566 17.6652C79.882 17.7779 80.3329 17.5525 80.4456 17.3271C80.4456 17.2143 80.4456 16.9889 80.2202 16.9889C79.882 16.8762 79.6566 17.2143 79.3185 17.2143L79.2057 17.3271Z" fill="#6B5DFF"/>
<path fill-rule="evenodd" clip-rule="evenodd" d="M79.4314 16.8762C79.7695 16.8762 80.2204 16.8762 80.4458 16.5381C80.5585 16.3127 80.3331 16.0872 80.1077 16.1999C79.8823 16.3127 79.7695 16.4254 79.4314 16.4254C79.206 16.4254 79.206 16.8762 79.4314 16.8762Z" fill="#6B5DFF"/>
<path fill-rule="evenodd" clip-rule="evenodd" d="M79.4311 16.0872C79.6566 16.0872 79.7693 15.9745 79.882 15.8618C79.9947 15.7491 79.9947 15.7491 80.1074 15.6364C80.2201 15.5237 80.1074 15.5237 80.2201 15.411C80.2201 15.2983 79.9947 15.0728 79.882 15.1855C79.882 15.1855 79.7693 15.1855 79.7693 15.2983L79.6566 15.411C79.5439 15.5237 79.4311 15.5237 79.3184 15.5237C78.9803 15.6364 79.093 16.0872 79.4311 16.0872Z" fill="#6B5DFF"/>
<path fill-rule="evenodd" clip-rule="evenodd" d="M79.8824 14.622C79.8824 14.622 79.8824 14.5093 79.9951 14.5093C79.9951 14.5093 79.9951 14.3966 79.8824 14.3966C79.7697 14.3966 79.657 14.3966 79.657 14.5093C79.657 14.622 79.7697 14.7347 79.8824 14.622Z" fill="#6B5DFF"/>
<path fill-rule="evenodd" clip-rule="evenodd" d="M79.0937 13.1567C79.2064 13.044 79.4318 12.8186 79.4318 12.5932C79.4318 12.3678 79.2064 12.1423 78.9809 12.3678C78.8682 12.4805 78.8682 12.7059 78.7555 12.8186C78.6428 13.044 78.9809 13.2695 79.0937 13.1567Z" fill="#6B5DFF"/>
<path fill-rule="evenodd" clip-rule="evenodd" d="M78.868 11.8042C78.9808 11.6915 78.9808 11.5788 79.0935 11.4661C79.0935 11.3534 79.0935 11.2407 78.9808 11.2407H78.868C78.7553 11.2407 78.7553 11.2407 78.7553 11.3534C78.7553 11.4661 78.6426 11.5788 78.5299 11.6915C78.4172 11.8042 78.7553 12.0296 78.868 11.8042Z" fill="#6B5DFF"/>
<path fill-rule="evenodd" clip-rule="evenodd" d="M67.597 9.32457C67.597 8.76101 67.3716 8.31017 67.0335 7.85932C66.6953 7.40848 66.3572 6.84492 65.7936 6.73221C65.6809 6.73221 65.4555 6.84492 65.4555 6.95764C65.5682 7.40848 66.0191 7.74661 66.3572 8.08475C66.6953 8.53559 66.9207 9.09915 67.597 9.32457C67.597 9.43728 67.4843 9.43728 67.597 9.32457Z" fill="#6B5DFF"/>
<path fill-rule="evenodd" clip-rule="evenodd" d="M64.7793 8.76099C64.6666 7.8593 64.3284 6.39406 63.314 6.16863C63.2013 6.16863 63.0886 6.28135 63.0886 6.39406C63.2013 6.84491 63.4267 7.07032 63.6521 7.29575C63.9903 7.74659 64.3284 8.19744 64.5538 8.76099C64.5538 8.98642 64.7793 8.87371 64.7793 8.76099Z" fill="#6B5DFF"/>
<path fill-rule="evenodd" clip-rule="evenodd" d="M62.9755 8.87372C62.6374 8.08474 62.4119 6.73221 61.5103 6.28136C61.3975 6.16865 61.1721 6.28136 61.1721 6.50678C61.2848 6.95763 61.5103 7.29576 61.7357 7.63389C62.0738 8.08474 62.2992 8.53558 62.6374 8.98643C62.7501 9.21185 63.0882 9.09914 62.9755 8.87372Z" fill="#6B5DFF"/>
<path fill-rule="evenodd" clip-rule="evenodd" d="M60.7217 8.31015C60.609 7.63388 60.0454 7.07033 59.4818 6.84491C59.3691 6.84491 59.2564 6.95762 59.2564 7.07033C59.4818 7.63388 60.0454 7.8593 60.1581 8.42286C60.2708 8.64828 60.8344 8.53557 60.7217 8.31015Z" fill="#6B5DFF"/>
<path fill-rule="evenodd" clip-rule="evenodd" d="M58.8051 8.87371C58.5797 8.31015 58.3543 7.85931 58.0162 7.29575C57.7907 6.8449 57.5653 6.28135 57.1145 5.94322C57.0018 5.83051 56.7763 6.05593 56.7763 6.16864C56.7763 6.73219 57.1145 7.07033 57.4526 7.52118C57.7907 7.97202 58.1289 8.53557 58.3543 8.98642C58.5797 9.32455 58.9179 9.09913 58.8051 8.87371Z" fill="#6B5DFF"/>
<path fill-rule="evenodd" clip-rule="evenodd" d="M56.7768 8.5356C56.4387 7.97205 56.3259 7.18307 55.6497 6.84494C55.537 6.73222 55.4243 6.84493 55.4243 6.95764C55.537 7.29578 55.6497 7.5212 55.7624 7.74662C55.9878 8.08475 56.1005 8.42289 56.2132 8.76102C56.4387 9.09916 56.8895 8.87374 56.7768 8.5356Z" fill="#6B5DFF"/>
<path fill-rule="evenodd" clip-rule="evenodd" d="M54.9735 8.64828C54.7481 8.08472 54.4099 7.29574 53.8464 7.07032C53.7337 7.07032 53.621 7.18303 53.621 7.29574C53.7337 7.52116 53.8464 7.74659 54.0718 7.97201C54.2972 8.31015 54.4099 8.53556 54.5227 8.8737C54.7481 9.09912 55.1989 8.8737 54.9735 8.64828Z" fill="#6B5DFF"/>
<path fill-rule="evenodd" clip-rule="evenodd" d="M53.733 9.09916C53.6202 8.87374 53.5075 8.64831 53.3948 8.42289C53.2821 8.19746 53.1694 7.97204 52.944 7.85933C52.8313 7.74662 52.7186 7.85934 52.7186 7.97205C52.7186 8.19747 52.8313 8.42289 52.944 8.5356C53.0567 8.76103 53.1694 8.98645 53.3948 9.32458C53.3948 9.66271 53.8457 9.32458 53.733 9.09916Z" fill="#6B5DFF"/>
<path fill-rule="evenodd" clip-rule="evenodd" d="M51.9298 10.1135C51.479 9.21185 51.0281 7.52118 50.0137 7.29576C49.901 7.29576 49.6756 7.40848 49.6756 7.52119C49.6756 7.97203 50.0137 8.31017 50.2392 8.76101C50.5773 9.32457 50.9154 9.88812 51.3663 10.4517C51.5917 10.7898 52.1552 10.5644 51.9298 10.1135Z" fill="#6B5DFF"/>
<path fill-rule="evenodd" clip-rule="evenodd" d="M49.789 9.7754C49.5635 9.32455 49.3381 8.53557 48.7746 8.31015C48.6618 8.31015 48.5491 8.42287 48.5491 8.53558C48.6618 8.761 48.7746 8.98642 48.8873 9.21184C49 9.43727 49.2254 9.7754 49.3381 10.0008C49.4508 10.2262 49.9017 10.0008 49.789 9.7754Z" fill="#6B5DFF"/>
<path fill-rule="evenodd" clip-rule="evenodd" d="M48.5483 11.0152C48.4356 10.6771 48.2102 10.2262 48.0975 9.8881C47.9848 9.54997 47.7594 9.21183 47.4212 8.98641C47.3085 8.8737 47.0831 8.98641 47.0831 9.21184C47.0831 9.54997 47.3085 9.77539 47.4212 10.0008C47.6467 10.3389 47.7594 10.6771 47.9848 11.1279C48.2102 11.4661 48.7738 11.3533 48.5483 11.0152Z" fill="#6B5DFF"/>
<path fill-rule="evenodd" clip-rule="evenodd" d="M44.942 10.0008C45.2801 10.339 45.5055 10.6771 45.7309 11.1279C45.9564 11.4661 46.0691 12.0296 46.4072 12.1423C46.5199 12.1423 46.6326 12.1423 46.6326 12.0296C46.9708 11.5788 46.5199 10.9025 46.2945 10.5644C45.9564 10.1135 45.6182 9.7754 45.0547 9.66269C44.942 9.66269 44.8293 9.88811 44.942 10.0008Z" fill="#6B5DFF"/>
<path fill-rule="evenodd" clip-rule="evenodd" d="M43.4765 11.128C43.9274 11.8042 44.2655 12.8186 44.9418 13.1568C45.1672 13.2695 45.3926 13.1568 45.2799 12.9313C45.1672 12.1424 44.4909 11.3534 43.9274 10.7898C43.8146 10.5644 43.2511 10.9025 43.4765 11.128Z" fill="#6B5DFF"/>
<path fill-rule="evenodd" clip-rule="evenodd" d="M42.4627 13.044C42.9135 13.6076 43.139 14.1711 43.7025 14.622C43.8152 14.7347 44.0407 14.622 43.9279 14.5093C43.8152 13.7203 43.3644 13.1567 42.8008 12.5932C42.6881 12.3678 42.2373 12.8186 42.4627 13.044Z" fill="#6B5DFF"/>
<path fill-rule="evenodd" clip-rule="evenodd" d="M40.9971 14.7347C41.3352 15.0728 41.5607 15.411 41.8988 15.8618C42.1242 16.1999 42.3497 16.5381 42.6878 16.6508C42.8005 16.6508 42.9132 16.6508 42.9132 16.5381C43.1386 16.0872 42.8005 15.7491 42.5751 15.411C42.2369 14.9601 41.7861 14.622 41.3353 14.3966C41.1098 14.0584 40.7717 14.5093 40.9971 14.7347Z" fill="#6B5DFF"/>
<path fill-rule="evenodd" clip-rule="evenodd" d="M40.3208 16.3127C40.5462 16.5381 40.7716 16.8762 40.997 17.1016C41.1097 17.3271 41.3352 17.5525 41.5606 17.6652C41.6733 17.6652 41.786 17.5525 41.8987 17.4398C41.8987 17.1016 41.786 16.8762 41.5606 16.6508C41.3352 16.3127 41.1097 16.0872 40.8843 15.7491C40.5462 15.411 39.9826 15.9745 40.3208 16.3127Z" fill="#6B5DFF"/>
<path fill-rule="evenodd" clip-rule="evenodd" d="M39.532 18.116C39.6447 18.3415 39.8702 18.5669 39.9829 18.7923C40.0956 19.0177 40.321 19.3559 40.5464 19.3559C40.6591 19.3559 40.7719 19.3559 40.7719 19.2432C40.8846 19.0177 40.6591 18.6796 40.5464 18.4542C40.321 18.2288 40.2083 18.0033 39.9829 17.7779C39.8702 17.4398 39.4193 17.7779 39.532 18.116Z" fill="#6B5DFF"/>
<path fill-rule="evenodd" clip-rule="evenodd" d="M38.5173 19.2432C38.7427 19.3559 38.8555 19.5813 39.0809 19.8067C39.3063 20.0321 39.3063 20.2575 39.6444 20.2575C39.7571 20.2575 39.8699 20.1448 39.8699 20.1448C39.9826 19.9194 39.7571 19.694 39.6444 19.4686C39.419 19.2432 39.3063 19.0177 39.0809 18.905C38.63 18.5669 38.1792 19.0177 38.5173 19.2432Z" fill="#6B5DFF"/>
<path fill-rule="evenodd" clip-rule="evenodd" d="M37.2771 20.9338C37.5025 21.1592 37.8406 21.4974 38.066 21.8355C38.2915 22.0609 38.4042 22.3991 38.7423 22.5118C38.855 22.5118 38.9677 22.5118 39.0804 22.3991C39.3059 21.7228 38.2915 20.9338 37.8406 20.5957C37.5025 20.1448 36.9389 20.5957 37.2771 20.9338Z" fill="#6B5DFF"/>
<path fill-rule="evenodd" clip-rule="evenodd" d="M36.2634 22.7372C36.3761 22.9626 36.4888 23.0753 36.6015 23.3008C36.7142 23.5262 36.8269 23.6389 37.0524 23.7516C37.1651 23.7516 37.2778 23.7516 37.3905 23.6389C37.3905 23.4135 37.3905 23.3008 37.2778 23.0753C37.1651 22.8499 37.0524 22.6245 36.9397 22.3991C36.7142 22.0609 36.1507 22.3991 36.2634 22.7372Z" fill="#6B5DFF"/>
<path fill-rule="evenodd" clip-rule="evenodd" d="M39.8699 38.5168C40.5461 38.1786 41.2224 37.6151 41.8987 37.277C42.8004 36.7134 43.702 36.8261 44.6037 36.7134C44.8292 36.7134 44.8292 36.3753 44.7164 36.2625C42.9131 35.3609 40.8843 36.9388 39.7572 38.2913C39.5317 38.4041 39.6444 38.6295 39.8699 38.5168Z" fill="#6B5DFF"/>
<path fill-rule="evenodd" clip-rule="evenodd" d="M39.4189 37.0515C39.757 36.8261 40.0952 36.6007 40.546 36.3753C40.8842 36.2626 41.335 36.1498 41.5604 35.9244C41.6731 35.8117 41.6731 35.5863 41.5604 35.5863C41.2223 35.3609 40.7714 35.5863 40.3206 35.8117C39.8698 36.0371 39.5316 36.3753 39.1935 36.7134C38.9681 36.9388 39.1935 37.277 39.4189 37.0515Z" fill="#6B5DFF"/>
<path fill-rule="evenodd" clip-rule="evenodd" d="M39.0807 35.8117C39.1934 35.699 39.4188 35.5863 39.5315 35.4736C39.757 35.3609 39.8697 35.2482 39.9824 35.0227C40.0951 34.7973 39.9824 34.5719 39.6442 34.5719C39.4188 34.5719 39.3061 34.7973 39.0807 34.91C38.8553 35.0227 38.7426 35.2482 38.5171 35.3609C38.4044 35.4736 38.4044 35.699 38.5171 35.8117C38.7426 35.9244 38.968 35.9244 39.0807 35.8117Z" fill="#6B5DFF"/>
<path fill-rule="evenodd" clip-rule="evenodd" d="M38.2926 34.7973C38.6307 34.5719 39.307 34.2337 39.1943 33.7829C39.1943 33.5575 38.9689 33.5575 38.7434 33.5575C38.518 33.5575 38.4053 33.7829 38.2926 33.8956C38.1799 34.0083 37.9545 34.121 37.8417 34.121C37.3909 34.3465 37.8417 35.1354 38.2926 34.7973Z" fill="#6B5DFF"/>
<path fill-rule="evenodd" clip-rule="evenodd" d="M37.9539 33.4448C38.292 33.3321 38.6302 33.2193 38.8556 32.7685C38.8556 32.6558 38.8556 32.5431 38.7429 32.5431C38.6302 32.5431 38.5174 32.5431 38.292 32.5431C38.1793 32.5431 37.9539 32.6558 37.8412 32.6558C37.6158 32.7685 37.5031 32.8812 37.5031 33.1066C37.6158 33.3321 37.7285 33.5575 37.9539 33.4448Z" fill="#6B5DFF"/>
<path fill-rule="evenodd" clip-rule="evenodd" d="M59.8197 35.8117C62.6375 34.4592 66.0189 32.205 67.2587 29.2745C67.3714 29.049 67.0333 28.9363 66.9205 29.049C65.9061 29.9507 65.0045 31.1906 63.9901 32.205C62.7502 33.4448 61.285 34.5719 59.707 35.5863C59.5943 35.699 59.707 35.8117 59.8197 35.8117Z" fill="#6B5DFF"/>
<path fill-rule="evenodd" clip-rule="evenodd" d="M68.2735 27.3584C68.7243 26.9075 69.0625 26.4567 69.5133 26.0058C69.9641 25.4423 70.415 24.8787 70.6404 24.2024C70.7531 23.977 70.5277 23.8643 70.3023 23.977C69.8514 24.3152 69.626 24.8787 69.2879 25.2168C68.837 25.8931 68.4989 26.4567 68.048 27.1329C67.9353 27.3584 68.0481 27.4711 68.2735 27.3584Z" fill="#6B5DFF"/>
<path fill-rule="evenodd" clip-rule="evenodd" d="M73.6829 18.6796C74.0211 18.2288 74.2465 17.7779 74.5846 17.3271C74.81 16.9889 75.1482 16.5381 75.1482 16.0872C75.1482 15.9745 74.9227 15.7491 74.81 15.8618C74.4719 16.0872 74.2465 16.5381 74.0211 16.9889C73.7956 17.4398 73.4575 17.8906 73.1194 18.3415C72.8939 18.6796 73.4575 19.0177 73.6829 18.6796Z" fill="#6B5DFF"/>
<path fill-rule="evenodd" clip-rule="evenodd" d="M48.8872 35.2482C49.5635 35.2482 50.2397 35.1355 50.916 35.0227C51.0287 35.0227 51.0287 34.7973 50.916 34.7973C50.2397 34.6846 49.5635 34.7973 48.8872 34.7973C48.6618 34.91 48.6618 35.2482 48.8872 35.2482Z" fill="#6B5DFF"/>
<path fill-rule="evenodd" clip-rule="evenodd" d="M56.8896 10.339C58.1294 10.2262 59.3692 10.2262 60.6091 10.339C61.9616 10.339 63.4268 10.6771 64.8921 10.5644C65.1175 10.5644 65.2302 10.2262 65.0048 10.1135C62.5252 9.21184 59.4819 9.54998 56.8896 9.88811C56.6642 10.0008 56.6642 10.339 56.8896 10.339Z" fill="#6B5DFF"/>
<path fill-rule="evenodd" clip-rule="evenodd" d="M26.3446 32.205C12.4811 38.4041 18.9056 50.3515 5.49297 59.1429C0.984519 62.0734 -3.29851 74.8098 6.62008 82.2488C16.5387 89.6877 21.8361 80.22 27.0208 81.1216C32.3183 82.0233 36.6013 90.0258 43.9275 85.9682C51.3665 81.9106 50.2393 75.2607 58.0164 79.3183C65.6808 83.3759 77.7409 90.8148 82.9256 79.9945C88.223 69.287 92.0552 64.7785 93.6332 65.7929C95.3239 66.6946 91.2662 61.6226 87.3213 64.1022C83.3764 66.4692 78.1917 73.9081 73.4579 71.6539C68.724 69.3997 63.5393 61.2845 56.7766 62.8624C50.0139 64.3277 49.6758 67.4836 47.4216 64.5531C45.2801 61.6226 41.1097 56.5506 35.6996 57.1141C30.2894 57.6777 29.5005 53.0565 30.6276 50.126C31.1911 48.7735 32.0928 46.4066 33.1072 44.3778C31.4166 40.3202 27.8098 32.4304 27.8098 32.4304C27.8098 32.4304 27.2462 32.205 26.3446 32.205Z" fill="#F0F2FB"/>
<path fill-rule="evenodd" clip-rule="evenodd" d="M26.4575 32.8812C19.6948 35.9244 18.0041 40.5456 16.2007 45.3921C14.3974 50.2387 12.4813 55.3107 5.83131 59.7065C5.26775 60.1573 4.59148 60.7209 4.02792 61.3971C2.67539 63.2005 1.54828 65.9056 1.32286 68.8361C0.984722 71.7666 1.54828 75.0352 3.46437 77.853C4.36606 79.2055 5.49317 80.4454 7.07113 81.5725C13.1575 86.1936 17.4406 83.9394 21.0473 82.136C23.1888 81.0089 25.1049 79.9945 27.1337 80.3326C29.1625 80.6708 30.9659 81.9106 32.7693 83.2631C35.9252 85.4047 39.1938 87.7716 43.5896 85.2919C46.2947 83.8267 47.7599 82.0233 49.1124 80.5581C51.4794 77.7403 53.0573 75.9369 58.3548 78.7547C58.9183 79.0928 59.4819 79.3182 60.0454 79.6564C61.398 80.3326 62.7505 81.1216 64.2157 81.7979C70.9784 85.0665 78.6428 87.5462 82.3623 79.7691C83.2639 77.9657 84.0529 76.3877 84.8419 75.0352C86.8707 71.3157 88.5614 68.7234 90.0266 67.1454C90.9283 66.131 91.83 65.4548 92.619 65.1166C91.4919 64.3276 89.6885 63.5387 87.8851 64.6658C86.758 65.342 85.5182 66.4691 84.2783 67.5963C80.897 70.6395 77.1775 74.0208 73.3454 72.2174C71.6547 71.4285 70.0767 69.9632 68.2733 68.498C65.0047 65.6802 61.2852 62.5243 57.1149 63.4259C54.2971 63.9895 52.7192 64.8912 51.4794 65.5675C49.4506 66.6946 48.6616 67.0327 47.0836 64.8912C46.0692 63.4259 44.4913 61.5099 42.5752 60.0446C40.6591 58.5794 38.5176 57.565 35.9252 57.7904C34.6854 57.9031 33.5583 57.7904 32.7693 57.4522C31.7549 57.1141 31.0786 56.4378 30.5151 55.7616C30.0642 54.9726 29.7261 54.1836 29.6134 53.2819C29.5007 52.1548 29.7261 50.915 30.0642 49.7879C30.2896 49.1116 30.7405 48.0972 31.1913 46.9701C31.5295 46.0684 31.9803 45.1667 32.4312 44.265C30.9659 40.6583 28.0354 34.3464 27.3592 32.8812C27.1337 32.9939 26.9083 32.8812 26.4575 32.8812ZM14.9609 44.9413C16.877 39.7566 18.6804 34.91 26.1193 31.5287C26.232 31.5287 26.3448 31.4159 26.4575 31.4159C27.2464 31.4159 27.9227 31.6414 28.0354 31.6414C28.2608 31.6414 28.3736 31.8668 28.4863 32.0922C28.4863 32.0922 32.093 39.982 33.7837 44.0396C33.8964 44.265 33.8964 44.4905 33.7837 44.6032C33.3328 45.6176 32.882 46.632 32.4312 47.5337C31.9803 48.5481 31.6422 49.5625 31.3041 50.2387C30.9659 51.1404 30.8532 52.1548 30.9659 53.0565C31.0786 53.7328 31.1913 54.409 31.6422 54.8599C31.9803 55.4234 32.5439 55.7616 33.2201 56.0997C33.8964 56.3251 34.6854 56.4378 35.8125 56.3251C38.743 55.987 41.3354 57.2268 43.4769 58.9175C45.5057 60.4955 47.0836 62.5243 48.2107 64.1022C49.1124 65.342 49.5633 65.1166 50.9158 64.4403C52.1556 63.7641 53.8463 62.8624 56.8895 62.1861C61.7361 61.059 65.681 64.4403 69.2877 67.4836C70.9784 68.9488 72.5564 70.3013 74.0216 70.9776C76.9521 72.3301 80.3334 69.2869 83.3766 66.5819C84.7292 65.342 85.969 64.2149 87.2088 63.4259C89.6885 61.848 92.1681 62.9751 93.6334 63.9895C94.0842 64.3276 94.4224 64.6658 94.6478 65.0039C95.2113 65.7929 95.0986 66.3564 94.3096 66.5819C94.0842 66.5819 93.8588 66.5819 93.5207 66.3564C93.0698 66.131 92.2808 66.6946 91.1537 68.0471C89.8012 69.6251 88.1105 72.1047 86.0817 75.7115C85.2927 77.1767 84.5038 78.642 83.7148 80.3326C79.4318 89.1241 70.9784 86.5317 63.6522 83.0377C62.1869 82.3614 60.7217 81.5725 59.4819 80.8962C58.9183 80.5581 58.3548 80.3326 57.7912 79.9945C53.5082 77.7403 52.2683 79.2055 50.2395 81.4598C48.887 83.0377 47.309 84.9538 44.3786 86.5318C39.1938 89.3495 35.5871 86.7572 32.093 84.3902C30.4024 83.1504 28.7117 82.0233 27.021 81.6852C25.4431 81.4597 23.6397 82.3614 21.7236 83.2631C17.7787 85.2919 13.0448 87.7716 6.28215 82.5869C4.59148 81.347 3.35166 79.9945 2.44997 78.5293C0.421166 75.3733 -0.255104 71.8793 0.0830297 68.6107C0.421163 65.342 1.66099 62.4115 3.12623 60.4955C3.8025 59.5938 4.47877 58.9175 5.26775 58.4667C11.3542 54.5218 13.1575 49.5625 14.9609 44.9413Z" fill="#6B5DFF"/>
<path fill-rule="evenodd" clip-rule="evenodd" d="M28.4859 33.7829C26.0062 34.91 23.6393 36.3753 21.8359 38.8549C19.6944 41.7854 19.1308 45.843 17.3274 49.1116C15.6368 52.2676 13.1571 54.6345 10.7902 57.1141C8.64867 59.2557 6.39444 61.2845 4.81649 64.1022C3.35124 66.6946 3.12582 69.3997 3.9148 72.3302C5.38004 77.9657 9.32494 82.5869 14.6224 82.2487C17.102 82.0233 19.3562 80.8962 21.7232 79.9945C24.6537 78.8674 27.3587 78.5293 30.2892 79.5437C34.7977 81.0089 39.6443 85.292 44.2654 81.9106C46.5197 80.2199 48.4357 77.853 51.0281 76.7259C54.2967 75.3734 58.2416 76.6132 61.3975 77.6276C64.5535 78.642 67.3712 80.3327 70.4144 81.5725C73.0068 82.5869 75.5992 83.2631 78.1915 81.9106C81.3474 80.3327 83.8271 76.8386 85.8559 73.6827C87.9974 70.3014 90.1389 66.6946 93.9711 66.0183C94.1965 66.0183 94.1965 65.4548 93.8584 65.5675C88.3355 66.8073 85.9686 72.8937 82.4745 77.1767C80.2203 79.8818 77.5153 82.136 74.1339 81.7979C71.0907 81.4598 68.1602 79.6564 65.3424 78.4166C60.1577 76.1623 53.5078 73.7954 48.4357 77.5149C45.9561 79.3183 44.1527 82.0233 40.9968 82.4742C38.2917 82.8123 35.5867 81.1216 33.2197 79.9945C30.8528 78.8674 28.3731 77.9657 25.6681 78.1912C23.1884 78.4166 20.7088 79.5437 18.3418 80.4454C15.7495 81.4598 13.0444 82.0233 10.3393 80.7835C7.40885 79.431 5.60546 76.1623 4.59106 72.8937C4.14022 71.3158 3.80208 69.6251 4.02751 68.0471C4.25293 66.131 5.26733 64.4404 6.28173 62.9751C8.19782 60.2701 10.7902 58.1285 13.1571 55.7616C15.2986 53.5074 17.2147 51.0277 18.68 47.9845C19.469 46.4066 19.8071 44.4905 20.4834 42.7998C21.2723 40.771 22.2867 38.9676 23.752 37.5024C25.2172 36.0371 26.9079 35.1354 28.5986 34.2338L28.4859 33.7829Z" fill="#6B5DFF"/>
<path fill-rule="evenodd" clip-rule="evenodd" d="M29.2755 35.699C28.7119 36.0372 28.2611 36.2626 27.6975 36.6007C25.4433 37.9532 23.6399 40.2075 22.2874 42.6871C20.7094 45.7303 19.4696 49.1117 17.8916 52.0422C16.201 55.0854 13.834 57.0014 11.3544 59.0302C9.32557 60.8336 7.40948 62.8624 6.50779 65.6802C5.83152 68.0471 6.05695 70.6395 6.95864 72.781C8.76202 77.1768 13.3832 79.6564 17.5535 78.8674C20.3713 78.3039 22.6255 76.1624 25.3306 75.3734C28.8246 74.4717 31.9805 76.8386 35.0237 78.4166C37.3907 79.6564 39.5322 80.22 42.0118 79.431C44.1534 78.7547 46.0694 77.2895 47.9855 76.0496C50.1271 74.6971 52.2686 73.4573 54.7482 73.1192C57.9041 72.781 61.2855 74.359 64.216 75.4861C69.288 77.4022 75.4871 79.0928 80.3337 75.4861C84.6167 72.2175 87.4345 66.0183 93.07 65.7929C93.5209 65.7929 93.6336 64.8912 93.1828 64.8912C91.0412 65.0039 89.1252 65.6802 87.4345 67.1455C85.7438 68.6107 84.2786 70.5268 82.8133 72.2175C81.1226 74.1336 79.2066 75.8242 76.8396 76.5005C73.4583 77.5149 69.9642 76.7259 66.6956 75.5988C63.6524 74.5844 60.7219 73.3446 57.6787 72.6683C55.3118 72.1047 53.0575 72.5556 50.916 73.57C46.633 75.7115 42.5754 80.3327 37.5034 78.5293C34.3475 77.5149 31.7551 75.148 28.5992 74.359C25.7814 73.6827 23.1891 75.0352 20.8221 76.3878C18.2298 77.7403 15.8628 78.5293 13.045 77.5149C10.6781 76.6132 8.76201 74.6971 7.6349 72.2175C6.39508 69.3997 6.73321 66.0183 8.08575 63.426C9.66371 60.6082 12.3688 58.8048 14.623 56.8887C16.8772 54.8599 18.4552 52.2676 19.8077 49.3371C21.273 46.1812 22.4001 42.9125 24.3162 40.0948C25.7814 38.066 27.4721 36.8261 29.5009 35.699H29.2755Z" fill="#6B5DFF"/>
<path fill-rule="evenodd" clip-rule="evenodd" d="M30.0637 37.3897C28.0349 39.3058 26.3442 41.6727 24.9917 43.8142C23.1883 46.632 21.9485 49.6752 20.3705 52.7184C19.4688 54.4091 18.6798 56.0997 17.44 57.3396C16.4256 58.4667 15.1858 59.4811 13.946 60.3828C11.9172 61.9607 9.55023 63.8768 8.87397 66.6946C8.1977 69.1742 9.32481 71.992 10.9028 73.6827C12.8189 75.7115 15.0731 76.3878 17.5527 75.5988C20.2578 74.6971 22.3993 72.6683 25.2171 71.992C30.6272 70.7522 35.1357 76.5005 40.5458 76.0496C41.8984 75.9369 43.1382 75.3734 44.378 74.8098C45.8433 74.1335 47.1958 73.4573 48.661 72.781C51.4788 71.5412 54.4093 70.5268 57.4525 70.4141C63.9898 70.1886 69.8508 75.0352 76.388 74.4717C81.9109 73.9081 84.7286 67.9344 89.5752 65.6802C90.7023 65.2293 91.8295 65.1166 92.9566 65.3421C93.2947 65.4548 93.4074 64.7785 93.0693 64.6658C88.2227 63.6514 84.6159 68.9488 81.1219 71.7666C75.0355 76.7259 68.0474 71.7666 61.8483 70.3014C58.9178 69.6251 55.9873 69.7378 53.1695 70.5268C50.4644 71.3158 47.8721 72.5556 45.2797 73.6827C43.8145 74.359 42.3492 75.0352 40.884 75.2607C39.4187 75.4861 37.8408 75.0352 36.3755 74.5844C33.8959 73.6827 31.6416 71.992 29.0493 71.4285C26.6823 70.7522 24.4281 71.203 22.1739 72.3302C19.5815 73.57 17.2146 75.7115 14.2841 75.0352C11.4663 74.4717 9.2121 71.0903 9.32481 67.8217C9.43752 64.5531 12.5934 62.2989 14.6222 60.6082C15.6366 59.8192 16.651 58.9175 17.5527 58.0158C18.6798 56.8887 19.3561 55.6489 20.1451 54.1836C21.7231 51.2532 22.9629 48.0972 24.6535 45.1667C26.1188 42.5744 28.0349 39.8693 30.2891 37.7278L30.0637 37.3897Z" fill="#6B5DFF"/>
<path fill-rule="evenodd" clip-rule="evenodd" d="M31.0783 39.6439L30.7402 40.0947C28.5987 42.349 27.0207 44.8286 25.6682 47.8718C24.3156 51.0277 23.3012 54.2964 21.4979 57.1141C19.9199 59.5938 17.8911 61.1717 15.975 63.2006C14.7352 64.5531 13.4954 66.2438 13.2699 68.2726C13.0445 70.4141 14.9606 71.5412 16.4258 71.992C18.7928 72.6683 21.2724 70.7522 23.4139 69.7378C26.7953 68.0471 30.2893 69.1742 33.558 70.7522C35.4741 71.7666 37.2774 72.781 39.4189 73.0064C41.2223 73.2318 43.0257 72.781 44.6037 72.2174C48.5486 70.8649 52.268 67.9344 56.4384 67.5963C61.1722 67.1454 65.3425 70.3014 69.6256 72.3302C72.7815 73.9081 76.9518 74.8098 79.6569 71.7666C79.6569 71.7666 79.6569 71.6539 79.5442 71.6539C78.0789 72.4429 76.6137 73.0064 75.0357 73.1191C73.4578 73.1191 71.8798 72.6683 70.4145 71.992C67.3713 70.7522 64.4409 68.8361 61.2849 67.709C54.9731 65.6802 49.7884 69.8505 44.0401 71.8793C40.8842 73.0064 37.9537 72.5556 35.0232 70.8649C32.0927 69.287 29.0495 67.709 25.6682 68.0471C22.9631 68.2726 20.5962 70.6395 18.0038 71.203C16.764 71.5412 15.0733 71.0903 14.1716 69.9632C13.3826 69.0615 13.7208 67.8217 14.0589 66.8073C15.0733 64.4404 17.1021 62.7497 18.7928 61.1717C20.9343 59.1429 22.5123 56.4379 23.7521 53.6201C25.33 50.0133 26.4572 46.1811 28.5987 43.0252C29.2749 42.0108 30.1766 41.2219 31.0783 40.3202V39.6439Z" fill="#6B5DFF"/>
<path fill-rule="evenodd" clip-rule="evenodd" d="M85.4048 67.4836C86.0811 66.6946 86.7574 65.9056 87.6591 65.342C89.3497 64.2149 91.3785 64.7785 93.1819 65.342C93.2946 65.342 93.2946 65.2293 93.1819 65.2293C91.604 64.4404 89.8006 64.1022 88.1099 64.7785C87.0955 65.342 86.3065 66.3564 85.4048 67.4836Z" fill="#6B5DFF"/>
<path fill-rule="evenodd" clip-rule="evenodd" d="M31.5295 40.771C30.2896 42.349 29.388 44.3778 28.7117 46.2939C27.9227 48.4354 27.3592 50.6896 26.5702 52.9438C25.3304 56.3252 22.8507 59.0302 20.7092 61.7353C19.8075 62.8624 17.5533 65.3421 18.455 67.1455C18.7931 67.8217 19.6948 68.1599 20.3711 68.0471C21.6109 67.9344 22.6253 67.0327 23.6397 66.3565C26.6829 64.215 29.8388 66.3565 32.6566 68.0471C35.3617 69.7378 38.4049 70.9776 41.5608 70.7522C44.4913 70.5268 46.8582 69.1743 49.4506 67.5963C52.3811 65.7929 55.0861 65.1166 58.3548 65.3421C59.82 65.4548 61.398 65.6802 62.7505 66.2438C64.3285 66.8073 65.681 67.9344 67.1462 68.9488C69.2878 70.5268 71.542 71.8793 74.0216 72.4429C74.247 72.5556 74.3598 71.992 74.1343 71.8793C72.8945 71.4285 71.6547 70.9776 70.4149 70.3014C68.9496 69.5124 67.4844 68.3853 66.1318 67.3709C63.4268 65.4548 60.7217 64.8912 57.6785 64.7785C54.6353 64.6658 51.9302 65.5675 49.3379 67.2582C47.9853 68.1599 46.5201 69.0616 45.0548 69.5124C43.2514 70.076 41.4481 70.1887 39.6447 69.9632C36.2633 69.5124 33.3329 67.3709 30.4024 65.7929C28.0354 64.4404 25.5558 64.215 23.1888 65.9056C22.2872 66.5819 20.0329 68.3853 19.1312 66.5819C18.6804 65.5675 20.1456 63.7641 20.5965 63.2006C22.738 60.3828 24.9922 57.7904 26.6829 54.5218C28.599 50.8023 29.2753 44.8286 31.8676 41.2219L31.5295 40.771Z" fill="#6B5DFF"/>
<path fill-rule="evenodd" clip-rule="evenodd" d="M32.4308 42.6871C30.7402 44.9413 29.6131 47.8718 28.8241 50.3515C27.8097 53.2819 27.4715 56.5506 25.33 58.8048C23.8648 60.3828 21.836 61.9607 21.3851 64.3277C21.3851 64.4404 21.4978 64.5531 21.4978 64.6658C22.1741 64.8912 22.7377 64.7785 23.3012 64.3277C24.4283 63.5387 24.9919 62.5243 26.3444 62.1861C28.0351 61.848 29.8385 63.0878 31.191 63.9895C32.4308 64.7785 33.5579 65.6802 34.7978 66.4692C37.1647 67.9344 40.0952 68.8361 42.8003 68.8361C45.618 68.8361 48.3231 66.8073 50.6901 65.342C50.9155 65.2293 50.8028 64.7785 50.4646 64.8912C47.8723 66.2437 45.3926 68.1598 42.3494 68.1598C39.6444 68.1598 36.7139 67.0327 34.3469 65.4548C32.2054 64.1022 30.2893 62.2988 27.9224 61.6226C27.0207 61.3972 26.0063 61.5099 25.2173 61.9607C24.3156 62.4116 23.7521 63.426 22.8504 63.9895C21.9487 64.6658 21.9487 63.8768 22.2868 63.2005C22.625 62.637 22.9631 62.1861 23.4139 61.6226C24.2029 60.7209 25.1046 59.9319 25.8936 59.0302C27.5843 57.2268 28.1478 54.6345 28.8241 52.1548C29.6131 49.2243 30.8529 45.7303 32.5435 43.1379L32.4308 42.6871Z" fill="#6B5DFF"/>
<path fill-rule="evenodd" clip-rule="evenodd" d="M30.5148 50.5769C29.9512 51.8167 29.3877 53.0565 28.9368 54.4091C28.486 55.6489 27.8097 57.0014 27.5843 58.354C27.2462 60.7209 29.6131 61.2845 31.0783 61.6226C32.2055 61.848 33.4453 62.0734 34.4597 62.8624C36.0376 63.9895 37.2775 65.4548 38.9681 66.3565C42.0113 68.1598 45.6181 67.5963 48.5486 65.9056C48.6613 65.7929 48.5486 65.4548 48.4359 65.5675C46.7452 66.3565 45.1672 67.0327 43.3639 67.0327C41.8986 67.0327 40.5461 66.3565 39.1936 65.5675C36.8266 64.2149 35.1359 61.848 32.5436 61.1717C30.9656 60.7209 27.3589 60.7209 28.2606 57.7904C28.9368 55.4235 29.7258 52.9438 30.6275 50.5769C30.6275 50.5769 30.5148 50.4642 30.5148 50.5769Z" fill="#6B5DFF"/>
<path fill-rule="evenodd" clip-rule="evenodd" d="M30.8527 55.6489C30.2892 55.7616 30.0637 56.8887 30.0637 57.4522C29.951 58.3539 30.4019 58.9175 31.0781 59.2556C32.0925 59.8192 33.1069 60.0446 34.1213 60.3827C35.2485 60.8336 36.0374 61.848 36.8264 62.7497C38.5171 64.5531 40.5459 64.8912 42.6874 65.5675C44.0399 66.0183 47.0831 67.3708 48.323 66.0183C48.4357 65.9056 48.323 65.5675 48.2103 65.5675C47.4213 65.6802 46.6323 65.7929 45.8433 65.6802C44.8289 65.5675 43.9272 65.2293 42.9128 64.8912C41.2222 64.3276 39.1933 64.1022 37.7281 62.7497C36.4883 61.6226 35.5866 60.27 34.0086 59.7065C33.2197 59.481 32.4307 59.2556 31.6417 58.9175C31.0781 58.6921 30.6273 58.4667 30.5146 57.7904C30.4019 57.4523 30.6273 56.2124 30.9654 55.8743C30.9654 55.7616 30.9654 55.6489 30.8527 55.6489Z" fill="#6B5DFF"/>
<path fill-rule="evenodd" clip-rule="evenodd" d="M30.853 56.0997C32.2055 56.8887 33.3326 58.2412 34.6851 59.0302C36.2631 60.0446 38.0665 59.8192 39.6444 60.6082C42.1241 61.9607 44.7164 66.6946 47.8724 65.4548C48.0978 65.342 47.9851 65.0039 47.7597 65.0039C46.9707 64.8912 46.2944 64.8912 45.5054 64.5531C44.7165 64.2149 43.9275 63.5387 43.2512 62.8624C42.0114 61.7353 40.997 60.6082 39.5317 59.8192C38.8555 59.4811 38.2919 59.3683 37.6156 59.3683C36.4885 59.2556 35.4741 58.8048 34.5724 58.2412C33.3326 57.4523 32.4309 56.2124 31.0784 55.6489C30.7403 55.6489 30.6275 55.987 30.853 56.0997Z" fill="#6B5DFF"/>
<path fill-rule="evenodd" clip-rule="evenodd" d="M33.1073 57.1141C33.6708 57.7904 34.3471 57.7904 35.1361 57.9031C36.4886 58.0158 37.7284 58.6921 39.081 59.1429C39.1937 59.1429 39.1937 59.0302 39.1937 59.0302C37.6157 57.4523 35.0233 57.6777 33.1073 57.1141Z" fill="#6B5DFF"/>
<path fill-rule="evenodd" clip-rule="evenodd" d="M39.9824 59.4811C41.5603 60.6082 43.3637 61.6226 44.8289 63.0878C45.5052 63.8768 46.5196 65.2293 47.6467 65.1166C47.8722 65.1166 47.8722 64.6658 47.6467 64.6658C46.2942 64.2149 45.2798 63.2005 44.1527 62.2988C42.8001 61.1717 41.4476 60.27 39.9824 59.4811Z" fill="#6B5DFF"/>
<path fill-rule="evenodd" clip-rule="evenodd" d="M70.3024 83.714C68.9499 82.8123 67.4846 82.136 66.0194 81.347C64.3287 80.4453 62.638 79.6564 60.8346 78.9801C58.1296 77.9657 54.8609 76.8386 52.1559 78.642C52.0432 78.7547 52.1559 78.9801 52.2686 78.8674C53.6211 78.0784 55.6499 78.3038 57.0025 78.5293C58.6931 78.7547 60.2711 79.431 61.849 80.1072C63.3143 80.6708 64.7795 81.4598 66.2448 82.136C67.4846 82.8123 68.8371 83.4886 70.1897 83.8267C70.3024 83.8267 70.3024 83.714 70.3024 83.714Z" fill="#6B5DFF"/>
<path fill-rule="evenodd" clip-rule="evenodd" d="M44.8293 83.4886C43.1386 84.3903 41.1098 84.8411 39.3064 84.7284C37.1649 84.6157 35.3616 82.925 33.3328 82.8123C33.1073 82.8123 32.9946 83.1504 33.22 83.2631C34.2344 83.8267 35.3616 84.1648 36.376 84.503C37.5031 84.8411 38.5175 85.1792 39.6446 85.1792C41.448 85.2919 43.3641 84.7284 44.8293 83.714C45.0547 83.6013 44.942 83.3759 44.8293 83.4886Z" fill="#6B5DFF"/>
<path fill-rule="evenodd" clip-rule="evenodd" d="M16.3136 83.1505C14.0594 83.0378 11.467 83.0377 9.32549 82.2488C7.4094 81.5725 6.16958 79.7691 4.47891 78.5293C4.25348 78.4166 4.02806 78.642 4.25348 78.8674C7.29669 83.0377 11.9179 83.9394 16.3136 83.2632C16.4263 83.2632 16.4263 83.1505 16.3136 83.1505Z" fill="#6B5DFF"/>
<path fill-rule="evenodd" clip-rule="evenodd" d="M3.126 76.5005C2.67515 75.4861 2.33701 74.2463 2.11159 73.1192C1.88617 72.1048 1.88617 70.9777 1.54804 69.9632C1.54804 69.8505 1.32262 69.8505 1.32262 69.9632C1.32262 72.2175 1.88617 74.8098 3.126 76.5005Z" fill="#6B5DFF"/>
<path fill-rule="evenodd" clip-rule="evenodd" d="M14.5097 62.4116C13.0445 63.5387 11.9174 65.6802 11.4665 67.709C11.1284 69.2869 11.4665 71.6539 12.8191 72.3301C12.9318 72.4429 13.0445 72.2174 13.0445 71.992C12.5936 71.0903 12.0301 70.5268 11.8047 69.5124C11.5792 68.6107 11.8047 67.5963 12.0301 66.8073C12.4809 65.0039 13.608 63.7641 14.7352 62.5243C14.7352 62.4115 14.6224 62.2988 14.5097 62.4116Z" fill="#6B5DFF"/>
<path fill-rule="evenodd" clip-rule="evenodd" d="M84.2781 68.1598C84.1654 68.2725 84.0527 68.3853 83.8273 68.498C83.7145 68.498 83.6018 68.6107 83.4891 68.7234C83.6018 68.7234 83.8273 68.6107 83.8273 68.498C84.0527 68.498 84.2781 68.3853 84.2781 68.1598Z" fill="#6B5DFF"/>
<path fill-rule="evenodd" clip-rule="evenodd" d="M82.9257 69.2869C82.5876 69.5124 82.2495 69.8505 81.7986 70.0759C81.4605 70.4141 81.0096 70.6395 80.7842 70.9776C80.7842 71.0903 80.7842 71.203 80.8969 71.0903C81.3478 70.8649 81.6859 70.5268 82.024 70.3013C82.3622 69.9632 82.7003 69.7378 82.9257 69.2869Z" fill="#6B5DFF"/>
<path fill-rule="evenodd" clip-rule="evenodd" d="M86.0816 70.8649C85.9689 70.9776 85.8562 71.0903 85.7434 71.203C85.6307 71.3158 85.518 71.4285 85.518 71.6539C85.518 71.6539 85.518 71.7666 85.6307 71.7666C85.7434 71.7666 85.8562 71.5412 85.8562 71.4285C85.9689 71.3158 86.0816 71.203 86.1943 71.0903C86.307 70.9776 86.1943 70.7522 86.0816 70.8649Z" fill="#6B5DFF"/>
<path fill-rule="evenodd" clip-rule="evenodd" d="M85.1797 72.2175C84.7288 72.781 84.1653 73.1192 83.8271 73.7954C83.8271 73.7954 83.8271 73.9081 83.9399 73.9081C84.5034 73.4573 84.9543 72.781 85.1797 72.2175C85.2924 72.2175 85.2924 72.2175 85.1797 72.2175Z" fill="#6B5DFF"/>
<path fill-rule="evenodd" clip-rule="evenodd" d="M83.4891 74.2463C82.9256 75.0352 82.2493 75.8242 81.4603 76.3878C80.7841 76.8386 80.1078 77.1768 79.4315 77.6276C79.3188 77.7403 79.4315 77.853 79.5442 77.853C80.3332 77.6276 81.0095 77.064 81.573 76.5005C82.2493 75.8242 82.9256 75.1479 83.4891 74.2463C83.6018 74.2463 83.4891 74.1335 83.4891 74.2463Z" fill="#6B5DFF"/>
<path fill-rule="evenodd" clip-rule="evenodd" d="M76.5009 78.9801C75.1484 79.0928 73.9086 79.2055 72.556 79.0928C71.3162 79.0928 70.1891 78.642 69.062 78.642C68.8366 78.642 68.8366 78.8674 68.9493 78.9801C71.0908 80.2199 74.2467 79.8818 76.5009 79.2055C76.6136 79.2055 76.6136 78.9801 76.5009 78.9801Z" fill="#6B5DFF"/>
<path fill-rule="evenodd" clip-rule="evenodd" d="M71.88 75.8242C71.3164 75.7115 70.8656 75.5988 70.302 75.4861C69.7385 75.3734 69.0622 75.2607 68.3859 75.3734C68.2732 75.3734 68.1605 75.7115 68.3859 75.7115C68.8368 75.9369 69.4003 75.9369 69.9639 75.9369C70.5275 76.0497 71.2037 76.0497 71.7673 76.0497C71.9927 76.0497 71.9927 75.8242 71.88 75.8242Z" fill="#6B5DFF"/>
<path fill-rule="evenodd" clip-rule="evenodd" d="M31.4165 12.2551C28.486 11.1279 25.1046 9.77541 23.0758 11.2407C20.1453 13.3822 22.1741 18.3415 22.8504 19.8067C23.1885 19.8067 23.5267 19.9194 23.8648 20.0321C23.3013 18.5669 22.625 16.5381 22.8504 14.9601C22.9631 14.0584 23.414 13.1568 24.0902 12.7059C25.1046 11.9169 26.7953 11.4661 27.9224 12.2551V12.3678C27.0207 12.3678 26.119 12.2551 25.3301 12.5932C26.908 12.3678 28.9368 13.044 30.9656 13.7203C32.3182 14.1712 33.6707 14.622 34.7978 14.7347C36.263 14.8474 37.2775 14.7347 38.0664 14.0584C38.8554 13.3822 39.3063 12.1424 39.5317 10.2263C39.7571 8.87373 39.1935 8.19746 38.5173 7.97204C38.63 8.31017 38.7427 8.64831 38.8554 9.09915C38.9681 9.66271 38.9681 10.2263 38.8554 10.9025C38.63 11.9169 38.1791 12.9313 37.1647 13.6076C36.8266 13.833 36.3758 13.9457 35.9249 13.9457C34.9105 14.1712 33.6707 14.0584 32.6563 13.7203C32.5436 13.7203 32.6563 13.6076 32.6563 13.6076C33.3326 13.833 33.8961 13.833 34.5724 13.833C33.6707 13.1568 32.6563 12.7059 31.4165 12.2551Z" fill="#F0F2FB"/>
<path fill-rule="evenodd" clip-rule="evenodd" d="M49.6762 41.6727C49.2253 42.5744 48.7745 44.0396 48.4364 45.3922C47.6474 48.3227 46.9711 51.3659 44.6042 51.704C45.2804 51.9294 46.0694 52.0421 46.8584 51.704C45.9567 52.493 44.9423 52.3803 43.9279 51.9294C43.7025 51.8167 43.3644 51.704 43.0262 51.4786C41.4483 50.915 40.0957 49.2243 39.194 47.8718C39.0813 48.2099 38.9686 48.5481 38.8559 48.7735C39.6449 50.126 42.8008 54.5218 46.1821 53.1692C48.4364 52.2676 49.2253 48.6608 49.7889 45.6176C50.2397 43.4761 50.5779 41.56 51.4796 40.6583C51.2541 40.4329 51.0287 40.0947 51.0287 39.7566C50.4652 40.3202 50.0143 40.9964 49.6762 41.6727ZM49.9016 42.9125C49.9016 42.7998 50.0143 42.9125 50.0143 42.9125C49.6762 45.2795 48.9999 47.6464 48.0982 49.9006C48.7745 47.6464 48.9999 45.1667 49.9016 42.9125Z" fill="#F0F2FB"/>
<path fill-rule="evenodd" clip-rule="evenodd" d="M51.2541 39.7566C51.4795 39.8693 51.5922 40.3202 51.8176 40.5456C51.8176 40.5456 51.8176 40.5456 51.8176 40.6583C51.9303 40.5456 52.043 40.5456 52.043 40.5456C52.1558 40.4329 52.3812 40.4329 52.4939 40.4329C52.4939 40.4329 52.4939 40.4329 52.4939 40.3202C52.3812 40.0947 52.1558 39.7566 52.2685 39.5312C52.1558 39.5312 52.043 39.5312 52.043 39.5312C51.7049 39.4185 51.4795 39.5312 51.2541 39.7566Z" fill="#F0F2FB"/>
<path fill-rule="evenodd" clip-rule="evenodd" d="M52.6069 39.3058C52.8323 39.4185 52.945 39.7566 52.945 39.8693C52.945 39.982 53.0578 39.982 53.0578 40.0947C53.1705 40.0947 53.2832 40.0947 53.3959 40.0947C53.3959 39.982 53.2832 39.8693 53.2832 39.7566C53.3959 39.8693 53.3959 39.982 53.3959 40.0947C53.6213 40.0947 53.8467 40.0947 53.9595 40.0947C53.8467 39.8693 53.734 39.6439 53.8467 39.4185C53.3959 39.3058 53.0578 39.3058 52.6069 39.3058Z" fill="#F0F2FB"/>
<path fill-rule="evenodd" clip-rule="evenodd" d="M54.7477 40.0947C54.7477 40.2075 54.7477 40.2075 54.8605 40.3202C54.9732 40.3202 55.1986 40.4329 55.3113 40.4329C55.8749 40.6583 56.4384 40.9964 56.7765 41.3346C57.1147 41.56 57.3401 41.8981 57.5655 42.2363C57.6782 41.56 57.4528 40.771 56.213 40.2075C55.6494 39.982 55.0859 39.7566 54.635 39.5312C54.635 39.7566 54.635 39.982 54.7477 40.0947Z" fill="#F0F2FB"/>
<path fill-rule="evenodd" clip-rule="evenodd" d="M10.79 3.23815L11.3535 6.39407L14.5094 6.95763L11.3535 7.52118L10.79 10.7898L10.2264 7.52118L7.0705 6.95763L10.2264 6.39407L10.79 3.23815Z" fill="#6B5DFF"/>
<path fill-rule="evenodd" clip-rule="evenodd" d="M12.7061 5.04154L11.3536 6.95764L12.7061 8.98644L10.7901 7.6339L8.87396 8.98644L10.2265 6.95764L8.87396 5.04154L10.7901 6.39408L12.7061 5.04154Z" fill="#6B5DFF"/>
<path fill-rule="evenodd" clip-rule="evenodd" d="M74.4721 43.9269L75.0357 47.0828L78.1916 47.6464L75.0357 48.21L74.4721 51.3659L73.9086 48.21L70.6399 47.6464L73.9086 47.0828L74.4721 43.9269Z" fill="#6B5DFF"/>
<path fill-rule="evenodd" clip-rule="evenodd" d="M76.3881 45.7303L75.0356 47.6464L76.3881 49.5625L74.472 48.2099L72.4432 49.5625L73.7958 47.6464L72.4432 45.7303L74.472 47.0828L76.3881 45.7303Z" fill="#6B5DFF"/>
<path fill-rule="evenodd" clip-rule="evenodd" d="M90.8154 11.5788L91.3789 14.8474L94.6475 15.411L91.3789 15.9746L90.8154 19.1305L90.2518 15.9746L87.0959 15.411L90.2518 14.8474L90.8154 11.5788Z" fill="#6B5DFF"/>
<path fill-rule="evenodd" clip-rule="evenodd" d="M92.8441 13.3822L91.4915 15.411L92.8441 17.3271L90.8153 15.9745L88.8992 17.3271L90.2517 15.411L88.8992 13.3822L90.8153 14.8474L92.8441 13.3822Z" fill="#6B5DFF"/>
</svg>
