<svg width="85" height="75" viewBox="0 0 85 75" fill="none" xmlns="http://www.w3.org/2000/svg">
<path fill-rule="evenodd" clip-rule="evenodd" d="M53.5 40.7301C53.5 40.7301 53.1 33.4301 56.4 32.7301C59.7 32.0301 65.3 29.6301 65.9 28.8301C66.4 28.0301 66.5 37.1301 62.4 39.6301C58.3 42.1301 57.3 40.9301 56.9 41.4301C56.4 41.8301 55.4 39.3301 53.5 40.7301Z" fill="#F0F2FB"/>
<path fill-rule="evenodd" clip-rule="evenodd" d="M53 40.7301C53 40.2301 52.7 32.9301 56.3 32.2301C57.9 31.9301 60 31.2301 61.8 30.4301C63.7 29.6301 65.2 28.8301 65.4 28.5301C65.5 28.3301 65.7 28.2301 65.9 28.2301C66 28.2301 66.1 28.2301 66.2 28.3301L66.3 28.4301C66.4 28.6301 66.5 28.8301 66.6 29.2301C66.6 29.6301 66.6 30.1301 66.6 30.7301C66.5 33.5301 65.5 38.2301 62.6 40.0301C59.6 41.8301 58.1 41.7301 57.4 41.7301C57.3 41.7301 57.3 41.6301 57.2 41.6301C56.7 42.2301 56.3 41.8301 55.7 41.4301C55.3 41.0301 54.6 40.5301 53.8 41.1301C53.6 41.3301 53.2 41.2301 53 41.0301C53 40.9301 53 40.8301 53 40.7301ZM56.5 33.2301C54.3 33.6301 54 37.9301 54 39.8301C55.1 39.5301 55.9 40.1301 56.4 40.6301C56.5 40.7301 56.1 41.2301 56.3 40.9301C56.6 40.6301 56.9 40.6301 57.4 40.6301C58 40.6301 59.3 40.7301 62 39.0301C64.5 37.5301 65.4 33.1301 65.5 30.6301C65.5 30.2301 65.5 29.9301 65.5 29.6301C64.7 30.1301 63.5 30.7301 62.1 31.3301C60.3 32.1301 58.2 32.9301 56.5 33.2301Z" fill="#6B5DFF"/>
<path fill-rule="evenodd" clip-rule="evenodd" d="M41.9 35.1301C41.9 35.1301 48.7 32.5301 51.2 34.0301C53.7 35.5301 52.9 38.9301 55.2 40.4301C57.6 41.9301 58.9 47.8301 57.3 51.4301C55.7 54.9301 51.1 57.7301 51.2 60.2301C51.4 62.7301 50.8 69.2301 48.5 69.8301C47.7 70.0301 47.6 71.1301 46.6 71.8301C44.9 73.2301 44.7 74.4301 42.1 74.0301C41.4 73.8301 42.1 38.3301 41.9 35.1301Z" fill="#F0F2FB"/>
<path fill-rule="evenodd" clip-rule="evenodd" d="M41.8 34.6301C42.3 34.4301 48.9 31.9301 51.6 33.5301C53.1 34.4301 53.5 35.7301 53.9 37.1301C54.3 38.2301 54.6 39.3301 55.6 39.9301C56.9 40.8301 58 42.8301 58.4 45.1301C58.8 47.3301 58.7 49.7301 57.9 51.5301C57.1 53.2301 55.8 54.6301 54.5 56.0301C53.1 57.5301 51.8 58.9301 51.9 60.1301C52 61.6301 51.8 64.6301 51.2 66.9301C50.7 68.6301 50 70.0301 48.8 70.3301C48.6 70.4301 48.4 70.7301 48.2 71.0301C47.9 71.4301 47.7 71.8301 47.2 72.2301C46.8 72.5301 46.5 72.9301 46.2 73.1301C45.2 74.1301 44.5 74.8301 42.3 74.5301H42.2C42 74.4301 41.8 74.2301 41.8 73.9301C41.8 73.8301 41.8 73.8301 41.9 73.7301C41.3 70.3301 41.4 56.1301 41.5 45.8301C41.5 40.4301 41.6 36.0301 41.5 35.0301C41.4 34.9301 41.5 34.7301 41.8 34.6301ZM51 34.5301C49 33.3301 43.9 35.0301 42.5 35.5301C42.5 37.0301 42.5 41.0301 42.5 46.0301C42.4 57.2301 42.3 73.2301 42.4 73.6301C44 73.8301 44.5 73.3301 45.3 72.5301C45.6 72.2301 46 71.8301 46.4 71.5301C46.8 71.2301 47 70.8301 47.2 70.5301C47.5 70.0301 47.8 69.5301 48.5 69.3301C49.2 69.1301 49.7 68.0301 50.1 66.7301C50.7 64.5301 50.9 61.7301 50.8 60.3301C50.7 58.7301 52.1 57.2301 53.7 55.5301C54.9 54.2301 56.2 52.8301 56.9 51.3301C57.6 49.7301 57.7 47.5301 57.3 45.5301C56.9 43.5301 56.1 41.7301 55 41.0301C53.7 40.2301 53.3 38.9301 52.8 37.6301C52.5 36.3301 52.1 35.1301 51 34.5301Z" fill="#6B5DFF"/>
<path fill-rule="evenodd" clip-rule="evenodd" d="M47.2 50.1301C47.2 49.9301 47.5 48.1301 48 47.4301C48.5 46.7301 52 45.3301 52 45.2301C52.3 45.1301 52.6 45.2301 52.7 45.5301C52.7 45.6301 52.8 45.7301 52.7 45.8301C52.7 45.8301 51.6 51.1301 47.6 50.7301C47.4 50.7301 47.2 50.4301 47.2 50.1301ZM48.9 48.0301C48.7 48.3301 48.5 49.1301 48.4 49.7301C50.1 49.5301 51 47.8301 51.4 46.7301C50.4 47.1301 49.1 47.7301 48.9 48.0301Z" fill="#6B5DFF"/>
<path fill-rule="evenodd" clip-rule="evenodd" d="M42.4 64.8301C42.1 64.9301 41.8 64.8301 41.7 64.6301C41.6 64.3301 41.7 64.0301 41.9 63.9301C41.9 63.9301 44 62.8301 44.5 64.6301C44.6 65.0301 44.8 65.3301 45.1 65.4301C45.4 65.6301 45.6 65.6301 45.9 65.6301C46.1 65.6301 46.3 65.7301 46.4 65.8301C46.7 66.0301 46.9 66.2301 47.1 66.5301C47.3 66.8301 47.3 67.2301 47.3 67.6301C47.3 67.9301 47.2 68.2301 47 68.5301C47 68.6301 46.9 68.6302 46.9 68.7302C46.5 69.3302 45.6 69.9302 44.8 70.2302C43.9 70.6302 42.9 70.7301 42.2 70.4301C42.2 70.4301 42.1 70.4301 42.1 70.3301C41.9 70.1301 41.8 69.8301 42 69.6301C42.2 69.4301 42.5 69.3301 42.8 69.5301C43.1 69.7301 43.7 69.6301 44.3 69.3301C45 69.0301 45.6 68.5301 46 68.1301L46.1 68.0301C46.2 67.8301 46.3 67.7301 46.3 67.5301C46.3 67.3301 46.3 67.1301 46.2 67.0301C46.1 66.9301 46 66.8302 46 66.7302C46 66.7302 46 66.7302 45.9 66.7302C45.5 66.7302 45.1 66.6301 44.6 66.3301C44.2 66.0301 43.8 65.6301 43.5 64.9301C43.3 64.3301 42.4 64.8301 42.4 64.8301Z" fill="#6B5DFF"/>
<path fill-rule="evenodd" clip-rule="evenodd" d="M65.7 28.7301C65.1 31.5301 62.1 32.4301 59.9 33.6301C57.5 34.9301 55 36.5301 54.1 39.3301C54 39.6301 54.4 39.7301 54.6 39.5301C55.7 38.0301 56.7 36.6301 58.2 35.4301C59.3 34.6301 60.5 33.8301 61.7 33.1301C63.3 32.1301 66.4 31.3301 66.2 28.8301C66.1 28.6301 65.8 28.5301 65.7 28.7301Z" fill="#6B5DFF"/>
<path fill-rule="evenodd" clip-rule="evenodd" d="M63.4 33.2301C63.6 33.3301 64.1 33.4301 64.3 33.2301V33.1301C64.2 33.0301 64.1 33.0301 63.9 33.0301C63.7 33.0301 63.6 33.0301 63.4 32.9301C63.3 32.8301 63.2 33.1301 63.4 33.2301Z" fill="#6B5DFF"/>
<path fill-rule="evenodd" clip-rule="evenodd" d="M63 34.2301C63.2 34.2301 63.3 34.3301 63.5 34.3301C63.6 34.4301 63.8 34.5301 63.9 34.4301C64 34.4301 64 34.3301 64 34.3301C64 34.1301 63.7 34.1301 63.6 34.0301C63.4 33.9301 63.2 33.9301 63 33.9301C62.8 33.9301 62.8 34.2301 63 34.2301Z" fill="#6B5DFF"/>
<path fill-rule="evenodd" clip-rule="evenodd" d="M62.5 35.5301C62.5 35.7301 62.6 35.8301 62.7 35.9301C62.8 36.0301 63 36.1301 63.2 35.9301C63.3 35.8301 63.2 35.8301 63.2 35.7301C63.1 35.6301 63 35.6301 62.9 35.6301C62.8 35.6301 62.7 35.5301 62.7 35.4301C62.6 35.3301 62.4 35.4301 62.5 35.5301Z" fill="#6B5DFF"/>
<path fill-rule="evenodd" clip-rule="evenodd" d="M62 36.5301C62.1 36.8301 62.3 37.1301 62.5 37.3301C62.7 37.4301 62.9 37.2301 62.8 37.0301C62.7 36.9301 62.7 36.8301 62.6 36.7301C62.5 36.6301 62.4 36.5301 62.4 36.4301C62.2 36.1301 61.9 36.2301 62 36.5301Z" fill="#6B5DFF"/>
<path fill-rule="evenodd" clip-rule="evenodd" d="M61 37.4301C61.1 37.7301 61.3 38.0301 61.6 38.0301C61.8 38.0301 61.9 37.7301 61.8 37.6301C61.7 37.5301 61.7 37.5301 61.6 37.4301C61.5 37.3301 61.5 37.3301 61.5 37.2301C61.4 37.0301 60.9 37.1301 61 37.4301Z" fill="#6B5DFF"/>
<path fill-rule="evenodd" clip-rule="evenodd" d="M59.7 38.2301C59.7 38.4301 59.8 38.7301 60.1 38.8301C60.3 38.8301 60.4 38.7301 60.3 38.5301C60.3 38.4301 60.2 38.3301 60.2 38.2301C60.2 37.9301 59.7 37.9301 59.7 38.2301Z" fill="#6B5DFF"/>
<path fill-rule="evenodd" clip-rule="evenodd" d="M45.2 43.8301C44.2 46.2301 45.1 49.6301 46 51.9301C46.6 53.4301 47.5 54.8301 48.3 56.2301C49.3 57.8301 50.8 59.0301 51.2 60.9301C51.3 61.2301 51.6 61.1301 51.6 60.8301C51.7 59.7301 51.2 58.7301 50.5 57.9301C49.3 56.4301 48.3 54.9301 47.4 53.2301C46.6 51.8301 46 50.5301 45.6 48.9301C45.2 47.2301 45.3 45.6301 45.3 43.8301H45.2Z" fill="#6B5DFF"/>
<path fill-rule="evenodd" clip-rule="evenodd" d="M49.5 54.5301C49.5 55.0301 49.7 55.5301 49.9 56.0301C50.1 56.4301 50.4 57.0301 50.9 57.0301C51 57.0301 51.1 56.9301 51.1 56.8301C51.1 56.4301 50.7 56.1301 50.5 55.8301C50.2 55.4301 50 54.9301 49.9 54.4301C49.8 54.2301 49.5 54.2301 49.5 54.5301Z" fill="#6B5DFF"/>
<path fill-rule="evenodd" clip-rule="evenodd" d="M50.7 55.5301C50.8 55.8301 51 56.0301 51.3 56.1301C51.3 56.1301 51.4 56.1301 51.4 56.0301C51.4 56.0301 51.4 56.0301 51.4 55.9301C51.4 55.8301 51.4 55.8301 51.3 55.8301C51.1 55.7301 51 55.6301 50.9 55.4301C51 55.2301 50.6 55.3301 50.7 55.5301Z" fill="#6B5DFF"/>
<path fill-rule="evenodd" clip-rule="evenodd" d="M51.3 54.4301C51.4 54.6301 51.4 54.7301 51.5 54.8301C51.6 55.0301 51.7 55.0301 51.9 55.1301C52 55.1301 52 55.1301 52 55.0301C51.9 54.9301 51.9 54.7301 51.8 54.6301C51.7 54.5301 51.6 54.3301 51.6 54.2301C51.5 54.0301 51.2 54.2301 51.3 54.4301Z" fill="#6B5DFF"/>
<path fill-rule="evenodd" clip-rule="evenodd" d="M52.7 54.4301C52.8 54.4301 52.8 54.4301 52.7 54.4301C52.8 54.5301 52.9 54.5301 52.8 54.4301C52.9 54.3301 52.8 54.3301 52.7 54.4301C52.8 54.2301 52.7 54.3301 52.7 54.4301Z" fill="#6B5DFF"/>
<path fill-rule="evenodd" clip-rule="evenodd" d="M55.1 42.9301C55.5 43.3301 55.8 43.7301 56.1 44.2301C56.4 44.6301 56.6 45.1301 57 45.4301C57.1 45.5301 57.2 45.4301 57.2 45.3301C57.2 44.8301 56.8 44.3301 56.4 44.0301C56.1 43.4301 55.7 43.1301 55.1 42.9301C55.1 42.7301 55 42.8301 55.1 42.9301Z" fill="#6B5DFF"/>
<path fill-rule="evenodd" clip-rule="evenodd" d="M55.5 46.0301C55.7 46.3301 55.8 46.6301 56 46.8301C56.2 47.0301 56.3 47.3301 56.6 47.4301C56.7 47.4301 56.8 47.4301 56.8 47.3301C56.7 47.0301 56.6 46.8301 56.4 46.6301C56.2 46.3301 56 46.1301 55.8 45.8301C55.7 45.7301 55.4 45.8301 55.5 46.0301Z" fill="#6B5DFF"/>
<path fill-rule="evenodd" clip-rule="evenodd" d="M55.4 47.7301C55.5 48.2301 55.6 48.7301 55.9 49.1301C56.1 49.4301 56.5 49.0301 56.4 48.7301C56.2 48.3301 56.1 48.0301 56 47.6301C55.9 47.3301 55.3 47.4301 55.4 47.7301Z" fill="#6B5DFF"/>
<path fill-rule="evenodd" clip-rule="evenodd" d="M55 49.9301C55 50.2301 55.1 50.6301 55.4 50.8301C55.5 50.9301 55.6 50.8301 55.6 50.7301C55.6 50.5301 55.5 50.2301 55.5 49.9301C55.5 49.6301 55 49.6301 55 49.9301Z" fill="#6B5DFF"/>
<path fill-rule="evenodd" clip-rule="evenodd" d="M54.7 51.2301C54.7 51.4301 54.7 51.6301 54.7 51.8301H54.8C54.8 51.6301 54.8 51.4301 54.8 51.2301H54.7Z" fill="#6B5DFF"/>
<path fill-rule="evenodd" clip-rule="evenodd" d="M46.5 49.6301C46.8 49.1301 46.9 48.5301 47.3 48.0301C47.8 47.5301 48.5 47.2301 49.2 46.9301C49.8 46.7301 50.4 46.5301 50.9 46.3301C51.2 46.2301 51.7 46.2301 52 45.9301C52.1 45.8301 52 45.7301 51.9 45.7301C51.4 45.6301 50.8 45.9301 50.4 46.0301C49.6 46.2301 48.9 46.5301 48.1 46.8301C47.4 47.3301 45.8 48.5301 46.5 49.6301Z" fill="#6B5DFF"/>
<path fill-rule="evenodd" clip-rule="evenodd" d="M48.8 47.6301C48.3 47.8301 48.5 48.6301 48.8 48.9301C49.3 49.4301 49.9 49.3301 50.3 48.8301C50.7 48.4301 50.8 47.8301 50.7 47.3301C50.7 47.1301 50.6 46.9301 50.4 46.7301C50.2 46.5301 50 46.4301 49.8 46.6301C49.7 46.6301 49.7 46.7301 49.8 46.8301C50 47.0301 50.3 47.0301 50.4 47.3301C50.5 47.6301 50.2 48.0301 50.1 48.2301C49.9 48.5301 49.5 48.7301 49.2 48.5301C49 48.4301 49.1 48.0301 48.8 47.6301C48.9 47.6301 48.9 47.6301 48.8 47.6301Z" fill="#6B5DFF"/>
<path fill-rule="evenodd" clip-rule="evenodd" d="M49.7 47.0301C49.6 47.1301 49.6 47.3301 49.6 47.5301C49.6 47.6301 49.7 47.7301 49.8 47.7301C49.9 47.8301 50 47.8301 50.1 47.8301C50.1 47.8301 50.1 47.8301 50.1 47.7301C50 47.6301 49.9 47.5301 49.8 47.4301C49.8 47.3301 49.8 47.3301 49.8 47.2301C49.8 47.1301 49.8 47.1301 49.8 47.0301C49.9 47.0301 49.7 47.0301 49.7 47.0301Z" fill="#6B5DFF"/>
<path fill-rule="evenodd" clip-rule="evenodd" d="M46.5 47.1301C46.6 46.8301 46.6 46.5301 46.6 46.2301C46.7 45.9301 46.8 45.6301 46.8 45.3301C46.8 45.2301 46.7 45.1301 46.6 45.2301C46.1 45.5301 45.9 46.6301 46.2 47.2301C46.2 47.2301 46.4 47.2301 46.5 47.1301Z" fill="#6B5DFF"/>
<path fill-rule="evenodd" clip-rule="evenodd" d="M47.2 46.3301C47.3 46.1301 47.3 45.8301 47.4 45.6301C47.5 45.4301 47.6 45.2301 47.6 44.9301C47.6 44.8301 47.5 44.7301 47.4 44.8301C47 45.1301 46.8 45.9301 47 46.3301C46.9 46.5301 47.1 46.5301 47.2 46.3301Z" fill="#6B5DFF"/>
<path fill-rule="evenodd" clip-rule="evenodd" d="M47.9 46.0301C48 45.8301 48 45.6301 48.1 45.4301C48.2 45.2301 48.3 45.0301 48.3 44.8301C48.3 44.7301 48.2 44.6301 48.1 44.7301C47.9 44.8301 47.8 45.0301 47.7 45.2301C47.6 45.4301 47.5 45.7301 47.4 45.9301C47.4 46.1301 47.8 46.2301 47.9 46.0301Z" fill="#6B5DFF"/>
<path fill-rule="evenodd" clip-rule="evenodd" d="M48.8 45.6301C48.8 45.4301 48.9 45.3301 49 45.1301C49.1 44.9301 49.2 44.8301 49.2 44.6301C49.2 44.5301 49.1 44.5301 49.1 44.5301C48.7 44.6301 48.6 45.1301 48.5 45.5301C48.4 45.7301 48.8 45.8301 48.8 45.6301Z" fill="#6B5DFF"/>
<path fill-rule="evenodd" clip-rule="evenodd" d="M49.6 45.2301C49.6 45.1301 49.7 45.0301 49.8 44.9301C49.9 44.8301 49.9 44.7301 49.9 44.6301C49.9 44.5301 49.8 44.5301 49.8 44.4301C49.5 44.3301 49.2 44.8301 49.1 45.1301C49 45.4301 49.5 45.5301 49.6 45.2301Z" fill="#6B5DFF"/>
<path fill-rule="evenodd" clip-rule="evenodd" d="M50.8 44.7301C50.9 44.6301 50.9 44.5301 51 44.5301C51.1 44.3301 51 44.0301 50.8 44.1301C50.7 44.2301 50.5 44.2301 50.4 44.4301C50.2 44.6301 50.6 44.9301 50.8 44.7301Z" fill="#6B5DFF"/>
<path fill-rule="evenodd" clip-rule="evenodd" d="M51.9 44.4301C52.2 44.4301 52.2 44.1301 52 44.1301H51.9C51.7 44.1301 51.7 44.4301 51.9 44.4301Z" fill="#6B5DFF"/>
<path fill-rule="evenodd" clip-rule="evenodd" d="M48.6 59.3301C48.6 59.7301 48.9 60.2301 49.2 60.5301C49.4 60.8301 49.8 61.3301 50.2 61.0301C50.6 60.7301 50 60.3301 49.8 60.1301C49.5 59.8301 49.3 59.3301 48.9 59.1301C48.8 59.0301 48.6 59.1301 48.6 59.3301Z" fill="#6B5DFF"/>
<path fill-rule="evenodd" clip-rule="evenodd" d="M48.8 61.6301C48.8 61.8301 48.9 62.1301 49.1 62.3301C49.2 62.5301 49.5 62.7301 49.7 62.7301C49.8 62.7301 49.9 62.6301 49.9 62.5301C49.9 62.3301 49.7 62.2301 49.6 62.0301C49.5 61.8301 49.3 61.7301 49.3 61.5301C49.1 61.2301 48.7 61.3301 48.8 61.6301Z" fill="#6B5DFF"/>
<path fill-rule="evenodd" clip-rule="evenodd" d="M49.1 63.2301C49 63.5301 49.1 63.9301 49.4 64.0301C49.5 64.0301 49.5 64.0301 49.5 63.9301C49.5 63.8301 49.5 63.7301 49.4 63.6301C49.4 63.5301 49.3 63.4301 49.4 63.3301C49.5 63.1301 49.1 63.0301 49.1 63.2301Z" fill="#6B5DFF"/>
<path fill-rule="evenodd" clip-rule="evenodd" d="M48.5 65.8301C48.6 66.2301 48.6 66.6301 48.9 66.9301C49 67.0301 49.1 66.9301 49.1 66.8301C49.1 66.4301 49 66.1301 48.9 65.7301C48.8 65.5301 48.5 65.6301 48.5 65.8301Z" fill="#6B5DFF"/>
<path fill-rule="evenodd" clip-rule="evenodd" d="M48.6 67.6301C48.5 67.5301 48.5 67.6301 48.6 67.6301V67.6301Z" fill="#6B5DFF"/>
<path fill-rule="evenodd" clip-rule="evenodd" d="M43.2 62.6301C43.4 62.5301 43.6 62.3301 43.7 62.2301C43.9 62.0301 44.1 61.9301 44.2 61.7301C44.3 61.5301 44.1 61.2301 43.9 61.3301C43.7 61.4301 43.5 61.5301 43.3 61.7301C43.1 61.9301 42.9 62.1301 42.8 62.3301C42.8 62.5301 43 62.7301 43.2 62.6301Z" fill="#6B5DFF"/>
<path fill-rule="evenodd" clip-rule="evenodd" d="M43.8 60.8301C43.9 60.5301 44 60.3301 44.2 60.1301C44.3 60.0301 44.5 59.6301 44.2 59.6301C44 59.5301 43.8 59.8301 43.6 60.0301C43.4 60.2301 43.3 60.5301 43.2 60.7301C43.1 61.0301 43.6 61.1301 43.8 60.8301Z" fill="#6B5DFF"/>
<path fill-rule="evenodd" clip-rule="evenodd" d="M43.8 58.9301C44 58.7301 44.2 58.4301 44.4 58.2301C44.5 58.1301 44.5 57.9301 44.4 57.8301C44.4 57.8301 44.4 57.8301 44.3 57.8301C44.2 57.7301 44 57.8301 43.9 57.8301C43.7 58.0301 43.4 58.3301 43.3 58.6301C43.2 58.7301 43.3 58.9301 43.4 59.0301C43.6 59.1301 43.7 59.0301 43.8 58.9301Z" fill="#6B5DFF"/>
<path fill-rule="evenodd" clip-rule="evenodd" d="M43.9 57.3301C43.9 57.2301 44 57.1301 44 57.0301C44.1 56.9301 44.2 56.8301 44.2 56.6301C44.2 56.5301 44.1 56.4301 44 56.3301C43.6 56.2301 43.4 56.8301 43.3 57.1301C43.1 57.5301 43.8 57.7301 43.9 57.3301Z" fill="#6B5DFF"/>
<path fill-rule="evenodd" clip-rule="evenodd" d="M43.8 55.5301C43.8 55.5301 43.8 55.4301 43.7 55.4301H43.6C43.6 55.4301 43.6 55.5301 43.5 55.5301C43.5 55.7301 43.9 55.7301 43.8 55.5301Z" fill="#6B5DFF"/>
<path fill-rule="evenodd" clip-rule="evenodd" d="M42.9 39.4301C43.4 40.5301 44.1 41.3301 45.3 41.7301C46.2 42.0301 47.9 42.5301 48.8 41.8301C48.9 41.7301 48.9 41.5301 48.8 41.5301C48.4 41.4301 48.1 41.5301 47.7 41.5301C47.1 41.5301 46.6 41.4301 46.1 41.3301C44.9 41.1301 43.8 40.3301 43.2 39.3301C43 39.2301 42.8 39.3301 42.9 39.4301Z" fill="#6B5DFF"/>
<path fill-rule="evenodd" clip-rule="evenodd" d="M44.8 42.5301C45.7 42.8301 47 43.7301 47.9 43.0301C48 42.9301 48 42.7301 47.8 42.7301C47.3 42.7301 46.8 42.8301 46.2 42.7301C45.8 42.5301 45.3 42.4301 44.8 42.5301Z" fill="#6B5DFF"/>
<path fill-rule="evenodd" clip-rule="evenodd" d="M52.7 39.8301C52.3 40.1301 52 40.5301 51.7 40.8301C51.5 41.0301 51.4 41.1301 51.2 41.3301C51 41.5301 50.9 41.6301 50.9 41.8301C50.9 41.9301 51 42.0301 51 42.0301C51.4 42.1301 51.8 41.6301 52.1 41.3301C52.4 40.9301 52.8 40.5301 53.1 40.1301C53.2 40.0301 52.9 39.7301 52.7 39.8301Z" fill="#6B5DFF"/>
<path fill-rule="evenodd" clip-rule="evenodd" d="M52.7 41.4301C52.5 41.5301 52.3 41.7301 52.1 41.8301C51.9 41.9301 51.7 42.1301 51.7 42.4301C51.7 42.5301 51.8 42.6301 51.9 42.5301C52.1 42.5301 52.2 42.3301 52.4 42.2301C52.6 42.1301 52.7 41.9301 52.9 41.8301C53.2 41.7301 53 41.3301 52.7 41.4301Z" fill="#6B5DFF"/>
<path fill-rule="evenodd" clip-rule="evenodd" d="M47.8 51.8301C48 53.7301 48.5 56.6301 50.2 57.8301C50.3 57.9301 50.6 57.7301 50.5 57.6301C50.2 56.8301 49.6 56.0301 49.2 55.3301C48.6 54.2301 48.2 53.0301 47.9 51.8301C47.9 51.7301 47.8 51.7301 47.8 51.8301Z" fill="#6B5DFF"/>
<path fill-rule="evenodd" clip-rule="evenodd" d="M43.5 66.4301C43.4 66.8301 43.7 67.1301 44 67.3301C44.2 67.5301 44.4 67.6301 44.5 67.8301C44.6 68.1301 44.2 68.3301 44.1 68.5301C44.1 68.6301 44.1 68.7302 44.2 68.7302C44.8 68.6302 45.1 68.0301 44.8 67.5301C44.5 67.0301 43.9 66.7301 43.5 66.4301C43.5 66.3301 43.5 66.3301 43.5 66.4301Z" fill="#6B5DFF"/>
<path fill-rule="evenodd" clip-rule="evenodd" d="M42.4 72.5301C44.1 72.9301 47.5 72.4301 47.9 70.4301C47.9 70.3301 47.8 70.1302 47.7 70.2302C47.4 70.4302 47.2 70.7301 46.9 71.0301C46.5 71.4301 45.9 71.7301 45.3 71.9301C44.4 72.2301 43.4 72.3301 42.4 72.3301C42.3 72.3301 42.3 72.5301 42.4 72.5301Z" fill="#6B5DFF"/>
<path fill-rule="evenodd" clip-rule="evenodd" d="M45.7 70.7301C46.6 70.6301 47.1 69.8301 47.6 69.1301C47.6 69.1301 47.6 69.0301 47.5 69.0301C47 69.6301 46.5 70.4301 45.7 70.5301C45.6 70.5301 45.6 70.7301 45.7 70.7301Z" fill="#6B5DFF"/>
<path fill-rule="evenodd" clip-rule="evenodd" d="M45 63.0301C45 63.3301 45 63.5301 45.2 63.7301C45.4 63.9301 45.7 64.1301 45.9 63.9301C45.9 63.9301 46 63.8301 45.9 63.7301C45.8 63.5301 45.6 63.5301 45.5 63.4301C45.4 63.3301 45.3 63.1301 45.2 63.0301C45.2 62.9301 45 62.9301 45 63.0301Z" fill="#6B5DFF"/>
<path fill-rule="evenodd" clip-rule="evenodd" d="M45.6 62.9301C45.7 63.0301 45.9 63.1301 46.1 63.0301C46.1 63.0301 46.2 62.9301 46.1 62.9301C46 62.8301 45.9 62.8301 45.8 62.7301C45.7 62.6301 45.5 62.8301 45.6 62.9301Z" fill="#6B5DFF"/>
<path fill-rule="evenodd" clip-rule="evenodd" d="M46.1 62.1301C46.2 62.2301 46.2 62.3301 46.3 62.3301C46.4 62.3301 46.4 62.3301 46.4 62.2301C46.4 62.1301 46.3 62.0301 46.2 61.9301C46.2 61.9301 46 62.0301 46.1 62.1301Z" fill="#6B5DFF"/>
<path fill-rule="evenodd" clip-rule="evenodd" d="M46.2 60.9301C46.3 61.1301 46.4 61.5301 46.7 61.4301C46.8 61.4301 46.8 61.3301 46.7 61.3301C46.7 61.2301 46.6 61.2301 46.5 61.1301C46.4 61.0301 46.4 60.9301 46.4 60.8301C46.5 60.7301 46.2 60.7301 46.2 60.9301Z" fill="#6B5DFF"/>
<path fill-rule="evenodd" clip-rule="evenodd" d="M46 55.2301C46 55.6301 46.2 55.9301 46.3 56.2301C46.5 56.5301 46.7 56.9301 47.1 57.0301C47.2 57.0301 47.3 56.9301 47.3 56.8301C47.3 56.5301 47 56.2301 46.8 56.0301C46.6 55.7301 46.4 55.4301 46.2 55.2301C46.1 55.0301 46 55.1301 46 55.2301Z" fill="#6B5DFF"/>
<path fill-rule="evenodd" clip-rule="evenodd" d="M46.3 58.0301C46.4 58.2301 46.5 58.3301 46.6 58.4301C46.7 58.4301 46.7 58.4301 46.7 58.3301C46.6 58.2301 46.5 58.0301 46.4 57.9301C46.4 57.8301 46.3 57.9301 46.3 58.0301Z" fill="#6B5DFF"/>
<path fill-rule="evenodd" clip-rule="evenodd" d="M30.5 40.7301C30.5 40.7301 30.9 33.4301 27.6 32.7301C24.3 32.0301 18.7 29.6301 18.1 28.8301C17.6 28.0301 17.5 37.1301 21.6 39.6301C25.7 42.1301 26.7 40.9301 27.1 41.4301C27.6 41.8301 28.6 39.4301 30.5 40.7301Z" fill="#F0F2FB"/>
<path fill-rule="evenodd" clip-rule="evenodd" d="M29.9 39.9301C29.9 38.0301 29.7 33.7301 27.4 33.3301C25.8 33.0301 23.6 32.2301 21.7 31.5301C20.3 30.9301 19.1 30.3301 18.3 29.8301C18.3 30.1301 18.3 30.4301 18.3 30.8301C18.4 33.3301 19.3 37.7301 21.8 39.2301C24.5 40.8301 25.8 40.8301 26.4 40.8301C26.9 40.8301 27.2 40.8301 27.5 41.1301C27.7 41.3301 27.3 40.8301 27.4 40.8301C28.1 40.2301 28.8 39.5301 29.9 39.9301ZM27.7 32.2301C31.4 32.9301 31.1 40.2301 31 40.7301C31 40.8301 31 40.9301 30.9 41.0301C30.7 41.2301 30.4 41.3301 30.1 41.1301C29.3 40.5301 28.6 41.0301 28.2 41.4301C27.6 41.9301 27.2 42.2301 26.7 41.6301C26.7 41.5301 26.7 41.7301 26.5 41.7301C25.7 41.7301 24.3 41.8301 21.3 40.0301C18.4 38.2301 17.4 33.5301 17.3 30.7301C17.3 30.1301 17.3 29.6301 17.3 29.2301C17.3 28.8301 17.4 28.6301 17.6 28.4301L17.7 28.3301C17.8 28.2301 17.9 28.2301 18.1 28.2301C18.3 28.2301 18.5 28.3301 18.6 28.5301C18.8 28.8301 20.3 29.6301 22.2 30.4301C24 31.2301 26.1 31.9301 27.7 32.2301Z" fill="#6B5DFF"/>
<path fill-rule="evenodd" clip-rule="evenodd" d="M42 35.2301C42 35.2301 35.2 32.6301 32.7 34.1301C30.2 35.6301 31 39.0301 28.7 40.5301C26.3 42.0301 25 47.9301 26.6 51.5301C28.2 55.0301 32.8 57.8301 32.7 60.3301C32.5 62.8301 33.1 69.3301 35.4 69.9301C36.2 70.1301 36.3 71.2301 37.3 71.9301C39 73.3301 39.5 74.5301 42.1 74.2301C42.9 73.9301 41.9 38.4301 42 35.2301Z" fill="#F0F2FB"/>
<path fill-rule="evenodd" clip-rule="evenodd" d="M41.5 35.6301C40.1 35.1301 35 33.4301 33 34.6301C31.9 35.3301 31.5 36.4301 31.1 37.6301C30.7 38.9301 30.3 40.2301 28.9 41.0301C27.8 41.7301 27 43.5301 26.6 45.5301C26.2 47.5301 26.3 49.7301 27 51.3301C27.7 52.8301 29 54.2301 30.2 55.5301C31.8 57.2301 33.2 58.7301 33.1 60.3301C33 61.7301 33.2 64.6301 33.8 66.7301C34.2 68.1301 34.7 69.1301 35.4 69.3301C36 69.5301 36.3 69.9301 36.7 70.5301C36.9 70.8301 37.1 71.2301 37.5 71.5301C37.9 71.8301 38.2 72.1301 38.5 72.4301C39.4 73.3301 40.1 73.9301 41.8 73.7301C42 73.3301 41.7 57.9301 41.6 46.7301C41.5 41.4301 41.4 37.1301 41.5 35.6301ZM32.4 33.6301C35.1 32.0301 41.7 34.5301 42.2 34.7301C42.4 34.8301 42.6 35.0301 42.6 35.2301C42.5 36.2301 42.6 40.9301 42.7 46.6301C42.9 56.8301 43.1 70.5301 42.5 73.9301C42.5 74.0301 42.6 74.0301 42.6 74.1301C42.6 74.4301 42.5 74.6301 42.2 74.7301H42.1C39.8 75.0301 39 74.2301 37.8 73.2301C37.5 72.9301 37.2 72.7301 36.9 72.4301C36.4 72.0301 36.1 71.6301 35.9 71.2301C35.7 70.9301 35.5 70.6301 35.3 70.5301C34.2 70.2301 33.4 68.8301 32.9 67.1301C32.3 64.8301 32.1 61.8301 32.2 60.3301C32.3 59.2301 31 57.8301 29.6 56.2301C28.3 54.8301 27 53.4301 26.2 51.7301C25.4 49.9301 25.3 47.5301 25.7 45.3301C26.1 43.0301 27.2 40.9301 28.5 40.1301C29.5 39.5301 29.8 38.4301 30.2 37.3301C30.5 35.9301 30.9 34.5301 32.4 33.6301Z" fill="#6B5DFF"/>
<path fill-rule="evenodd" clip-rule="evenodd" d="M35.6 49.7301C35.5 49.1301 35.3 48.3301 35.1 48.0301C34.9 47.7301 33.6 47.1301 32.6 46.7301C33 47.9301 33.9 49.5301 35.6 49.7301ZM36 47.4301C36.5 48.1301 36.7 49.9301 36.8 50.1301C36.8 50.4301 36.6 50.7301 36.3 50.7301C32.3 51.1301 31.2 45.8301 31.2 45.8301C31.2 45.7301 31.2 45.6301 31.2 45.5301C31.3 45.2301 31.6 45.1301 31.9 45.2301C32 45.3301 35.5 46.7301 36 47.4301Z" fill="#6B5DFF"/>
<path fill-rule="evenodd" clip-rule="evenodd" d="M42.1 63.9301C42.4 64.0301 42.5 64.4301 42.3 64.6301C42.2 64.9301 41.8 65.0301 41.5 64.8301C41.5 64.8301 40.6 64.3301 40.5 64.8301C40.3 65.5301 39.9 65.9301 39.4 66.2301C39 66.5301 38.5 66.6301 38.1 66.6301C38.1 66.6301 38.1 66.6301 38 66.6301C37.9 66.7301 37.8 66.8301 37.8 66.9301C37.7 67.0301 37.7 67.2301 37.7 67.4301C37.7 67.6301 37.8 67.7301 37.9 67.9301C38 68.0301 38.1 68.1301 38.2 68.2301C38.7 68.6301 39.5 69.0301 40.2 69.2301C40.9 69.4301 41.5 69.5301 41.8 69.4301C42 69.2301 42.3 69.1301 42.6 69.3301C42.8 69.5301 42.9 69.8301 42.7 70.0301C42.6 70.1301 42.5 70.2301 42.4 70.2301C41.9 70.5301 40.9 70.4301 39.9 70.2301C39 69.9301 38.1 69.5301 37.5 69.0301C37.3 68.8301 37.1 68.6301 37 68.4301C36.8 68.1301 36.7 67.8301 36.7 67.5301C36.7 67.1301 36.7 66.7301 36.9 66.4301C37.1 66.1301 37.3 65.8301 37.6 65.7301C37.8 65.6301 37.9 65.5301 38.1 65.5301C38.3 65.5301 38.6 65.4301 38.9 65.3301C39.1 65.2301 39.4 64.9301 39.5 64.5301C40 62.8301 42.1 63.9301 42.1 63.9301Z" fill="#6B5DFF"/>
<path fill-rule="evenodd" clip-rule="evenodd" d="M17.8 28.9301C17.6 31.4301 20.7 32.2301 22.3 33.2301C23.5 34.0301 24.6 34.7301 25.8 35.5301C27.4 36.6301 28.3 38.1301 29.4 39.6301C29.6 39.8301 30 39.7301 29.9 39.4301C29 36.7301 26.4 35.0301 24.1 33.7301C21.9 32.6301 18.9 31.5301 18.3 28.8301C18.2 28.6301 17.9 28.7301 17.8 28.9301Z" fill="#6B5DFF"/>
<path fill-rule="evenodd" clip-rule="evenodd" d="M20.5 32.9301C20.3 32.9301 20.2 33.0301 20 33.0301C19.9 33.0301 19.7 33.0301 19.6 33.1301V33.2301C19.8 33.4301 20.3 33.3301 20.5 33.2301C20.7 33.2301 20.7 32.9301 20.5 32.9301Z" fill="#6B5DFF"/>
<path fill-rule="evenodd" clip-rule="evenodd" d="M21 34.0301C20.8 34.0301 20.6 34.1301 20.4 34.1301C20.2 34.2301 20 34.2301 19.9 34.4301C19.9 34.5301 19.9 34.5301 20 34.5301C20.1 34.6301 20.3 34.4301 20.4 34.4301C20.6 34.3301 20.8 34.2301 21 34.2301C21.2 34.2301 21.2 34.0301 21 34.0301Z" fill="#6B5DFF"/>
<path fill-rule="evenodd" clip-rule="evenodd" d="M21.3 35.5301C21.3 35.6301 21.2 35.7301 21.1 35.7301C21 35.7301 20.9 35.8301 20.8 35.8301C20.8 35.9301 20.7 35.9301 20.8 36.0301C20.9 36.1301 21.1 36.1301 21.2 36.0301C21.4 35.9301 21.4 35.7301 21.4 35.6301C21.5 35.5301 21.4 35.4301 21.3 35.5301Z" fill="#6B5DFF"/>
<path fill-rule="evenodd" clip-rule="evenodd" d="M21.7 36.4301C21.7 36.5301 21.6 36.6301 21.5 36.7301C21.4 36.8301 21.3 36.9301 21.2 37.1301C21.1 37.3301 21.3 37.5301 21.5 37.4301C21.8 37.2301 21.9 36.9301 22 36.6301C22.1 36.3301 21.8 36.2301 21.7 36.4301Z" fill="#6B5DFF"/>
<path fill-rule="evenodd" clip-rule="evenodd" d="M22.5 37.4301C22.5 37.5301 22.4 37.5301 22.4 37.6301C22.3 37.7301 22.3 37.7301 22.2 37.8301C22.1 37.9301 22.2 38.2301 22.4 38.2301C22.7 38.2301 22.9 37.9301 23 37.6301C23.1 37.2301 22.6 37.1301 22.5 37.4301Z" fill="#6B5DFF"/>
<path fill-rule="evenodd" clip-rule="evenodd" d="M23.8 38.3301C23.8 38.4301 23.7 38.5301 23.7 38.6301C23.6 38.7301 23.7 38.9301 23.9 38.9301C24.2 38.8301 24.2 38.6301 24.3 38.3301C24.3 38.0301 23.8 38.0301 23.8 38.3301Z" fill="#6B5DFF"/>
<path fill-rule="evenodd" clip-rule="evenodd" d="M38.6 43.9301C38.6 45.5301 38.7 47.0301 38.4 48.6301C38.1 50.3301 37.3 51.8301 36.5 53.3301C35.7 54.8301 34.8 56.3301 33.6 57.7301C32.8 58.6301 32.1 59.7301 32.2 60.9301C32.2 61.1301 32.6 61.2301 32.6 61.0301C33 59.3301 34.2 58.1301 35.2 56.7301C36.2 55.3301 37.1 53.7301 37.8 52.1301C38.8 49.9301 39.7 46.3301 38.7 43.9301C38.7 43.8301 38.6 43.9301 38.6 43.9301Z" fill="#6B5DFF"/>
<path fill-rule="evenodd" clip-rule="evenodd" d="M34.1 54.5301C34 55.0301 33.7 55.4301 33.5 55.9301C33.3 56.2301 32.9 56.5301 32.9 56.9301C32.9 57.0301 33 57.1301 33.1 57.1301C33.6 57.1301 33.8 56.6301 34 56.2301C34.3 55.7301 34.4 55.2301 34.5 54.6301C34.5 54.3301 34.1 54.3301 34.1 54.5301Z" fill="#6B5DFF"/>
<path fill-rule="evenodd" clip-rule="evenodd" d="M32.9 55.5301C32.8 55.7301 32.7 55.8301 32.5 55.9301L32.4 56.0301C32.4 56.0301 32.4 56.0301 32.4 56.1301L32.5 56.2301C32.8 56.2301 33 55.9301 33.1 55.6301C33.3 55.3301 33 55.2301 32.9 55.5301Z" fill="#6B5DFF"/>
<path fill-rule="evenodd" clip-rule="evenodd" d="M32.4 54.3301C32.3 54.4301 32.3 54.6301 32.2 54.7301C32.1 54.8301 32.1 55.0301 32 55.1301C32 55.2301 32 55.2301 32.1 55.2301C32.2 55.1301 32.4 55.0301 32.4 54.9301C32.5 54.7301 32.6 54.6301 32.7 54.4301C32.8 54.3301 32.5 54.1301 32.4 54.3301Z" fill="#6B5DFF"/>
<path fill-rule="evenodd" clip-rule="evenodd" d="M31.2 54.4301C31.1 54.4301 31.1 54.4301 31.2 54.4301C31.1 54.5301 31.2 54.6301 31.2 54.5301C31.2 54.5301 31.2 54.5301 31.2 54.4301C31.3 54.4301 31.2 54.3301 31.2 54.4301Z" fill="#6B5DFF"/>
<path fill-rule="evenodd" clip-rule="evenodd" d="M28.8 42.9301C28.3 43.2301 27.9 43.5301 27.5 44.0301C27.2 44.4301 26.8 44.8301 26.7 45.3301C26.7 45.4301 26.8 45.5301 26.9 45.4301C27.3 45.2301 27.5 44.7301 27.7 44.3301C28.1 43.9301 28.5 43.4301 28.8 42.9301C29 42.9301 28.9 42.8301 28.8 42.9301Z" fill="#6B5DFF"/>
<path fill-rule="evenodd" clip-rule="evenodd" d="M28.2 45.9301C28 46.1301 27.9 46.4301 27.7 46.6301C27.5 46.9301 27.3 47.1301 27.2 47.4301C27.2 47.5301 27.3 47.6301 27.4 47.5301C27.7 47.4301 27.8 47.1301 28 46.9301C28.2 46.6301 28.3 46.4301 28.5 46.1301C28.5 45.9301 28.3 45.8301 28.2 45.9301Z" fill="#6B5DFF"/>
<path fill-rule="evenodd" clip-rule="evenodd" d="M28 47.7301C27.9 48.1301 27.8 48.5301 27.6 48.8301C27.5 49.1301 27.8 49.4301 28.1 49.2301C28.4 48.8301 28.6 48.3301 28.6 47.8301C28.6 47.5301 28.1 47.4301 28 47.7301Z" fill="#6B5DFF"/>
<path fill-rule="evenodd" clip-rule="evenodd" d="M28.5 50.0301C28.5 50.3301 28.4 50.6301 28.4 50.8301C28.4 50.9301 28.5 51.0301 28.6 50.9301C28.9 50.7301 29 50.3301 29 50.0301C29 49.6301 28.5 49.6301 28.5 50.0301Z" fill="#6B5DFF"/>
<path fill-rule="evenodd" clip-rule="evenodd" d="M29.2 51.3301C29.2 51.5301 29.2 51.7301 29.2 51.9301H29.3C29.3 51.7301 29.3 51.5301 29.3 51.3301C29.3 51.2301 29.2 51.2301 29.2 51.3301Z" fill="#6B5DFF"/>
<path fill-rule="evenodd" clip-rule="evenodd" d="M37.6 49.7301C38.2 48.6301 36.6 47.4301 35.8 47.0301C35.2 46.6301 34.4 46.4301 33.7 46.2301C33.2 46.1301 32.5 45.7301 32 45.8301C31.9 45.8301 31.9 46.0301 31.9 46.0301C32.2 46.3301 32.6 46.3301 33 46.4301C33.6 46.6301 34.2 46.8301 34.7 47.0301C35.4 47.3301 36.1 47.6301 36.6 48.1301C37.2 48.5301 37.2 49.1301 37.6 49.7301C37.5 49.7301 37.5 49.7301 37.6 49.7301Z" fill="#6B5DFF"/>
<path fill-rule="evenodd" clip-rule="evenodd" d="M35.1 47.7301C34.9 48.0301 35 48.4301 34.7 48.6301C34.4 48.9301 33.9 48.6301 33.8 48.4301C33.7 48.3301 33.7 48.1301 33.6 48.0301C33.5 47.9301 33.6 47.7301 33.5 47.6301C33.3 47.3301 33.9 47.1301 34.1 47.0301C34.2 46.9301 34.1 46.9301 34.1 46.8301C33.7 46.5301 33.3 47.1301 33.3 47.5301C33.2 48.1301 33.3 48.5301 33.6 49.0301C34 49.5301 34.6 49.6301 35.1 49.2301C35.4 48.9301 35.7 47.9301 35.1 47.7301Z" fill="#6B5DFF"/>
<path fill-rule="evenodd" clip-rule="evenodd" d="M34.1 47.2301C34.1 47.3301 34.2 47.4301 34.1 47.5301C34.1 47.6301 34.1 47.6301 34 47.7301C33.9 47.8301 33.9 47.8301 33.8 47.9301V48.0301C33.9 48.0301 34 48.0301 34.1 47.9301L34.2 47.8301L34.3 47.7301C34.4 47.5301 34.4 47.3301 34.3 47.2301C34.2 47.0301 34.1 47.1301 34.1 47.2301Z" fill="#6B5DFF"/>
<path fill-rule="evenodd" clip-rule="evenodd" d="M37.8 47.2301C38.1 46.7301 37.9 45.6301 37.4 45.2301C37.3 45.1301 37.2 45.2301 37.2 45.3301C37.2 45.6301 37.3 45.9301 37.4 46.2301C37.5 46.5301 37.4 46.8301 37.5 47.1301C37.5 47.3301 37.7 47.3301 37.8 47.2301Z" fill="#6B5DFF"/>
<path fill-rule="evenodd" clip-rule="evenodd" d="M37.1 46.4301C37.2 46.0301 37.1 45.1301 36.7 44.9301C36.6 44.8301 36.5 44.9301 36.5 45.0301C36.5 45.2301 36.6 45.4301 36.7 45.7301C36.8 45.9301 36.8 46.2301 36.9 46.4301C36.8 46.5301 37.1 46.6301 37.1 46.4301Z" fill="#6B5DFF"/>
<path fill-rule="evenodd" clip-rule="evenodd" d="M36.4 45.9301C36.3 45.7301 36.2 45.4301 36.1 45.2301C36 45.0301 35.9 44.8301 35.7 44.7301C35.6 44.7301 35.5 44.8301 35.5 44.8301C35.5 45.0301 35.6 45.1301 35.7 45.3301C35.8 45.5301 35.9 45.7301 36 46.0301C36.2 46.3301 36.5 46.2301 36.4 45.9301Z" fill="#6B5DFF"/>
<path fill-rule="evenodd" clip-rule="evenodd" d="M35.5 45.6301C35.4 45.3301 35.3 44.7301 34.9 44.6301C34.8 44.6301 34.8 44.6301 34.8 44.7301C34.8 44.9301 34.9 45.0301 34.9 45.2301C35 45.4301 35.1 45.6301 35.1 45.7301C35.2 45.9301 35.6 45.8301 35.5 45.6301Z" fill="#6B5DFF"/>
<path fill-rule="evenodd" clip-rule="evenodd" d="M34.9 45.1301C34.8 44.8301 34.6 44.4301 34.2 44.4301C34 44.4301 34 44.7301 34.1 44.8301C34.2 44.9301 34.3 45.0301 34.3 45.2301C34.5 45.6301 35 45.5301 34.9 45.1301Z" fill="#6B5DFF"/>
<path fill-rule="evenodd" clip-rule="evenodd" d="M33.6 44.4301C33.5 44.3301 33.4 44.2301 33.2 44.1301C33 44.0301 32.8 44.3301 33 44.5301C33.1 44.6301 33.1 44.7301 33.2 44.7301C33.4 45.0301 33.8 44.6301 33.6 44.4301Z" fill="#6B5DFF"/>
<path fill-rule="evenodd" clip-rule="evenodd" d="M32.1 44.2301C31.8 44.2301 31.8 44.5301 32 44.5301H32.1C32.3 44.5301 32.3 44.2301 32.1 44.2301Z" fill="#6B5DFF"/>
<path fill-rule="evenodd" clip-rule="evenodd" d="M35 59.2301C34.8 59.3301 34.7 59.5301 34.6 59.6301C34.5 59.8301 34.3 60.0301 34.1 60.2301C33.9 60.4301 33.3 60.8301 33.7 61.1301C34.1 61.4301 34.5 60.8301 34.7 60.6301C34.9 60.3301 35.3 59.8301 35.3 59.4301C35.4 59.2301 35.2 59.1301 35 59.2301Z" fill="#6B5DFF"/>
<path fill-rule="evenodd" clip-rule="evenodd" d="M34.8 61.5301C34.7 61.7301 34.6 61.8301 34.5 62.0301C34.4 62.2301 34.2 62.3301 34.2 62.5301C34.2 62.6301 34.3 62.7301 34.4 62.7301C34.6 62.7301 34.8 62.5301 35 62.3301C35.2 62.1301 35.3 61.8301 35.3 61.6301C35.3 61.4301 34.8 61.2301 34.8 61.5301Z" fill="#6B5DFF"/>
<path fill-rule="evenodd" clip-rule="evenodd" d="M34.5 63.4301C34.5 63.5301 34.5 63.6301 34.5 63.7301C34.5 63.8301 34.4 63.9301 34.4 64.0301C34.4 64.1301 34.5 64.1301 34.5 64.1301C34.8 64.0301 34.9 63.6301 34.8 63.3301C34.8 63.1301 34.5 63.2301 34.5 63.4301Z" fill="#6B5DFF"/>
<path fill-rule="evenodd" clip-rule="evenodd" d="M35.1 65.8301C35 66.2301 34.9 66.5301 34.9 66.9301C34.9 67.0301 35 67.0301 35.1 67.0301C35.4 66.7301 35.4 66.3301 35.5 65.9301C35.5 65.6301 35.2 65.5301 35.1 65.8301Z" fill="#6B5DFF"/>
<path fill-rule="evenodd" clip-rule="evenodd" d="M41.1 62.4301C41 62.2301 40.9 62.0301 40.7 61.9301C40.5 61.7301 40.3 61.5301 40.1 61.5301C39.9 61.4301 39.7 61.7301 39.8 61.9301C39.9 62.1301 40.1 62.2301 40.3 62.4301C40.5 62.5301 40.6 62.7301 40.8 62.8301C41 62.8301 41.2 62.6301 41.1 62.4301Z" fill="#6B5DFF"/>
<path fill-rule="evenodd" clip-rule="evenodd" d="M40.7 60.8301C40.6 60.5301 40.5 60.3301 40.3 60.1301C40.2 59.9301 40 59.6301 39.7 59.7301C39.5 59.8301 39.6 60.1301 39.7 60.2301C39.9 60.4301 40 60.6301 40.1 60.9301C40.3 61.2301 40.8 61.1301 40.7 60.8301Z" fill="#6B5DFF"/>
<path fill-rule="evenodd" clip-rule="evenodd" d="M40.7 58.7301C40.5 58.4301 40.3 58.1301 40.1 57.9301C40 57.8301 39.8 57.8301 39.7 57.9301C39.7 57.9301 39.7 57.9301 39.6 57.9301C39.5 58.0301 39.5 58.2301 39.6 58.3301C39.8 58.5301 40 58.7301 40.2 59.0301C40.3 59.1301 40.5 59.2301 40.6 59.1301C40.7 59.0301 40.8 58.8301 40.7 58.7301Z" fill="#6B5DFF"/>
<path fill-rule="evenodd" clip-rule="evenodd" d="M40.7 57.2301C40.6 56.9301 40.4 56.3301 40 56.4301C39.9 56.4301 39.8 56.5301 39.8 56.7301C39.8 56.8301 39.9 57.0301 39.9 57.1301C40 57.2301 40 57.3301 40 57.4301C40.2 57.7301 40.8 57.6301 40.7 57.2301Z" fill="#6B5DFF"/>
<path fill-rule="evenodd" clip-rule="evenodd" d="M40.4 55.6301C40.4 55.6301 40.4 55.5301 40.3 55.5301H40.2C40.2 55.5301 40.2 55.6301 40.1 55.6301C40.1 55.8301 40.5 55.8301 40.4 55.6301Z" fill="#6B5DFF"/>
<path fill-rule="evenodd" clip-rule="evenodd" d="M41 39.4301C40.3 40.5301 39.3 41.1301 38.1 41.4301C37.2 41.6301 36.2 41.3301 35.3 41.6301C35.2 41.6301 35.2 41.8301 35.3 41.9301C36.1 42.5301 37.7 42.1301 38.5 41.9301C39.7 41.5301 40.6 40.7301 41.1 39.5301C41.2 39.4301 41 39.3301 41 39.4301Z" fill="#6B5DFF"/>
<path fill-rule="evenodd" clip-rule="evenodd" d="M39.1 42.5301C38.7 42.5301 38.3 42.6301 37.8 42.7301C37.2 42.8301 36.7 42.7301 36.1 42.8301C35.9 42.8301 35.9 43.0301 36 43.1301C37 43.7301 38.2 42.8301 39.1 42.5301C39.2 42.5301 39.2 42.5301 39.1 42.5301Z" fill="#6B5DFF"/>
<path fill-rule="evenodd" clip-rule="evenodd" d="M30.9 40.3301C31.2 40.7301 31.5 41.1301 31.8 41.4301C32 41.7301 32.5 42.3301 32.9 42.1301C33 42.1301 33.1 42.0301 33 41.9301C33 41.7301 32.9 41.6301 32.8 41.5301C32.6 41.3301 32.4 41.1301 32.2 40.9301C31.9 40.5301 31.6 40.1301 31.2 39.9301C31 39.8301 30.8 40.0301 30.9 40.3301Z" fill="#6B5DFF"/>
<path fill-rule="evenodd" clip-rule="evenodd" d="M31 41.9301C31.2 42.0301 31.3 42.1301 31.5 42.3301C31.6 42.4301 31.8 42.6301 32 42.7301C32.1 42.7301 32.2 42.7301 32.2 42.6301C32.2 42.4301 32 42.2301 31.8 42.0301C31.6 41.8301 31.4 41.7301 31.2 41.6301C31 41.3301 30.8 41.7301 31 41.9301Z" fill="#6B5DFF"/>
<path fill-rule="evenodd" clip-rule="evenodd" d="M36 51.8301C35.7 52.9301 35.4 54.0301 34.9 55.0301C34.5 55.9301 33.7 56.7301 33.4 57.7301C33.3 57.9301 33.6 58.0301 33.7 57.9301C35.4 56.7301 35.9 53.8301 36.1 51.9301C36.2 51.8301 36.1 51.8301 36 51.8301Z" fill="#6B5DFF"/>
<path fill-rule="evenodd" clip-rule="evenodd" d="M40.4 66.4301C40 66.8301 39.5 67.1301 39.2 67.5301C38.9 68.0301 39.2 68.7301 39.8 68.8301C39.9 68.8301 40 68.7301 39.9 68.6301C39.8 68.4301 39.5 68.2301 39.5 68.0301C39.5 67.8301 39.8 67.6301 39.9 67.4301C40.2 67.1301 40.6 66.8301 40.4 66.4301C40.5 66.4301 40.5 66.4301 40.4 66.4301Z" fill="#6B5DFF"/>
<path fill-rule="evenodd" clip-rule="evenodd" d="M41.5 72.4301C40.5 72.4301 39.6 72.3301 38.6 72.0301C37.6 71.7301 37 70.9301 36.2 70.3301C36.1 70.2301 35.9 70.4301 36 70.5301C36.5 72.5301 39.9 73.1301 41.5 72.6301C41.7 72.5301 41.7 72.4301 41.5 72.4301Z" fill="#6B5DFF"/>
<path fill-rule="evenodd" clip-rule="evenodd" d="M38.3 70.6301C37.5 70.5301 37 69.6301 36.5 69.1301C36.5 69.1301 36.4 69.1301 36.4 69.2301C36.8 69.9301 37.4 70.7301 38.3 70.8301C38.4 70.7301 38.4 70.6301 38.3 70.6301Z" fill="#6B5DFF"/>
<path fill-rule="evenodd" clip-rule="evenodd" d="M38.7 63.1301C38.6 63.3301 38.6 63.4301 38.4 63.5301C38.2 63.6301 38 63.6301 38 63.8301C38 63.9301 38 63.9301 38 64.0301C38.2 64.2301 38.6 64.0301 38.7 63.8301C38.9 63.6301 38.9 63.3301 38.9 63.1301C39 63.0301 38.8 62.9301 38.7 63.1301Z" fill="#6B5DFF"/>
<path fill-rule="evenodd" clip-rule="evenodd" d="M38.2 62.8301C38.1 62.9301 38 62.9301 37.9 63.0301V63.1301C38.1 63.2301 38.3 63.1301 38.4 63.0301C38.5 62.9301 38.3 62.6301 38.2 62.8301Z" fill="#6B5DFF"/>
<path fill-rule="evenodd" clip-rule="evenodd" d="M37.7 62.0301C37.6 62.1301 37.5 62.2301 37.5 62.3301C37.5 62.4301 37.5 62.4301 37.6 62.4301C37.7 62.3301 37.8 62.3301 37.8 62.2301C37.9 62.1301 37.8 61.9301 37.7 62.0301Z" fill="#6B5DFF"/>
<path fill-rule="evenodd" clip-rule="evenodd" d="M37.4 60.9301C37.4 61.0301 37.3 61.1301 37.3 61.2301C37.3 61.3301 37.2 61.3301 37.1 61.4301C37.1 61.5301 37.1 61.5301 37.1 61.5301C37.4 61.6301 37.6 61.2301 37.6 61.0301C37.8 60.8301 37.5 60.7301 37.4 60.9301Z" fill="#6B5DFF"/>
<path fill-rule="evenodd" clip-rule="evenodd" d="M37.8 55.2301C37.6 55.5301 37.4 55.7301 37.2 56.0301C37 56.2301 36.7 56.5301 36.7 56.8301C36.7 56.9301 36.8 57.0301 36.9 57.0301C37.2 57.0301 37.4 56.6301 37.6 56.3301C37.8 56.0301 38 55.6301 38 55.2301C38 55.2301 37.9 55.1301 37.8 55.2301Z" fill="#6B5DFF"/>
<path fill-rule="evenodd" clip-rule="evenodd" d="M37.5 58.0301C37.4 58.1301 37.3 58.3301 37.2 58.4301C37.2 58.5301 37.2 58.5301 37.3 58.5301C37.5 58.4301 37.6 58.3301 37.6 58.1301C37.7 58.0301 37.6 57.9301 37.5 58.0301Z" fill="#6B5DFF"/>
<path fill-rule="evenodd" clip-rule="evenodd" d="M43 54.1301C43 54.0301 43.1 53.8301 43.1 53.7301C43.2 53.4301 43.3 53.1301 43.1 53.0301C43.1 52.7301 42.9 52.4301 42.9 52.1301C42.9 51.8301 42.7 51.6301 42.7 51.3301C43.1 49.6301 43 47.8301 43 46.1301C43 46.0301 43 45.9301 42.9 45.9301C42.9 45.2301 42.9 44.5301 42.7 43.8301C42.7 43.7301 42.6 43.6301 42.5 43.6301C42.6 42.7301 42.6 41.7301 42.5 40.8301C42.6 40.0301 42.5 39.1301 42.5 38.2301C42.5 38.1301 42.5 38.0301 42.4 37.9301C42.5 37.4301 42.5 36.9301 42.5 36.4301C42.5 36.3301 42.5 36.2301 42.4 36.2301C42.5 36.2301 42.5 36.1301 42.6 36.1301C42.9 35.9301 42.8 35.5301 42.4 35.5301C42.1 35.5301 41.8 35.5301 41.5 35.5301C41.2 35.5301 41.1 35.9301 41.3 36.1301C41.3 36.1301 41.3 36.1301 41.4 36.1301C41.4 36.2301 41.4 36.3301 41.3 36.4301C41.2 36.8301 41.1 37.2301 41.1 37.7301C41.1 37.8301 41.1 37.9301 41.2 38.0301C41.1 38.3301 41.1 38.6301 41 38.8301C41 39.0301 41 39.1301 41.1 39.2301C41.1 39.5301 41 39.8301 41 40.1301C40.9 40.6301 40.9 41.0301 40.9 41.5301C40.9 41.6301 40.9 41.7301 40.9 41.8301C40.9 41.9301 40.9 42.0301 41 42.1301C41 42.2301 41 42.3301 41.1 42.3301C41.1 42.4301 41.1 42.5301 41 42.5301C40.9 42.7301 40.9 42.9301 40.8 43.0301C40.8 43.2301 40.8 43.3301 40.9 43.4301C40.6 43.8301 40.5 44.3301 40.4 44.8301C40.4 45.0301 40.4 45.1301 40.5 45.2301C40.5 45.3301 40.7 45.5301 40.8 45.5301C40.7 45.8301 40.5 46.0301 40.4 46.3301C40.2 46.6301 40.5 46.9301 40.8 46.8301C40.7 46.9301 40.6 47.0301 40.6 47.2301C40.4 47.5301 40.8 47.9301 41.1 47.7301C41 47.9301 40.9 48.0301 40.8 48.2301C40.7 48.5301 40.9 48.7301 41.1 48.7301C41.1 48.8301 41 48.8301 41 48.9301C40.8 49.2301 41.1 49.4301 41.3 49.4301C41.2 49.5301 41.3 49.6301 41.4 49.7301C41.3 50.6301 41.4 51.5301 41.4 52.4301V52.5301C41.4 53.0301 41.4 53.6301 41.5 54.1301C41.4 54.1301 41.4 54.2301 41.3 54.3301C41.2 55.3301 41.2 56.2301 41.3 57.2301C41.3 57.3301 41.4 57.4301 41.4 57.5301C41.4 57.6301 41.4 57.6301 41.4 57.7301V57.8301C41.4 58.0301 41.4 58.3301 41.3 58.5301C41.3 58.6301 41.2 58.6301 41.2 58.7301C41.2 59.2301 41.1 59.6301 41.2 60.1301C41.2 60.2301 41.2 60.3301 41.2 60.4301C41.2 60.5301 41.2 60.6301 41.3 60.7301C41.2 61.2301 41.1 61.8301 41 62.3301C40.9 62.6301 41.1 62.7301 41.3 62.7301C41.3 62.9301 41.2 63.2301 41.2 63.4301C41.2 63.5301 41.3 63.6301 41.3 63.7301C41.4 63.8301 41.5 63.9301 41.7 63.9301C42.1 63.8301 42.3 63.6301 42.1 63.2301C42.2 62.8301 42.2 62.4301 42.2 61.9301C42.2 61.8301 42.1 61.8301 42.1 61.7301C42.2 61.4301 42.3 61.0301 42.3 60.7301C42.3 60.6301 42.3 60.5301 42.2 60.5301C42.3 59.9301 42.3 59.3301 42.3 58.7301C42.3 58.6301 42.2 58.5301 42.2 58.5301C42.2 58.4301 42.2 58.4301 42.2 58.3301C42.2 58.3301 42.2 58.3301 42.2 58.2301C42.2 58.2301 42.2 58.1301 42.3 58.1301C42.5 57.4301 42.5 56.8301 42.5 56.1301C42.5 55.9301 42.5 55.8301 42.5 55.6301C42.5 55.5301 42.4 55.4301 42.3 55.3301C42.3 55.2301 42.3 55.2301 42.3 55.1301C42.9 54.8301 42.9 54.4301 43 54.1301Z" fill="#F0F2FB"/>
<path fill-rule="evenodd" clip-rule="evenodd" d="M42.9 68.8301C43 68.5301 43 68.0301 42.9 67.6301C43.2 66.7301 43.2 65.8301 43 64.9301C43 64.7301 42.7 64.6301 42.6 64.6301C42.5 64.6301 42.5 64.6301 42.4 64.6301C42.2 64.7301 42.1 64.7301 41.9 64.8301C41.8 64.8301 41.7 64.8301 41.6 64.9301C41.4 65.0301 41.3 65.2301 41.4 65.4301C41.4 65.5301 41.5 65.6301 41.5 65.7301C41.5 66.0301 41.6 66.2301 41.7 66.5301C41.7 66.5301 41.7 66.6301 41.8 66.6301C41.8 66.8301 41.7 67.0301 41.8 67.3301C41.7 67.8301 41.6 68.2301 41.7 68.7301C41.5 68.8301 41.5 69.2301 41.7 69.4301C42.1 69.6301 42.4 69.7301 42.9 69.6301C43.2 69.4301 43.1 68.9301 42.9 68.8301Z" fill="#F0F2FB"/>
<path fill-rule="evenodd" clip-rule="evenodd" d="M42.9 73.0301C42.9 72.9301 42.9 72.8301 42.8 72.7301C42.7 72.6301 42.6 72.6301 42.4 72.6301C42.4 72.5301 42.3 72.5301 42.2 72.5301C42 72.5301 41.9 72.4301 41.7 72.5301C41.5 72.5301 41.3 72.7301 41.2 72.8301C41.1 72.9301 41.2 73.1301 41.3 73.2301C41.2 73.4301 41.3 73.7301 41.5 73.7301C41.6 73.8301 41.8 73.8301 42 73.8301C42.1 73.8301 42.2 73.8301 42.2 73.7301C42.3 73.7301 42.3 73.7301 42.4 73.7301C42.5 73.7301 42.7 73.7301 42.8 73.7301C43.3 73.7301 43.3 73.1301 42.9 73.0301Z" fill="#F0F2FB"/>
<path fill-rule="evenodd" clip-rule="evenodd" d="M43.7 37.1301C43.7 37.1301 42.5 8.23014 58.3 2.53014C86 -7.56986 83.6 27.1301 83.6 25.4301C81.8 12.8301 76.1 4.23014 65.2 7.13014C54.1 10.0301 50.4 22.8301 50.9 35.2301C51.1 41.0301 43.7 41.6301 43.7 37.1301Z" fill="#F0F2FB"/>
<path fill-rule="evenodd" clip-rule="evenodd" d="M43.1 37.0301C43.1 35.8301 42.2 7.73014 58 1.93014C72.3 -3.26986 78.8 3.13014 81.8 10.5301C83.2 14.0301 83.8 17.7301 84 20.5301C84.1 22.0301 84 23.2301 83.9 24.2301C84 24.5301 84 24.9301 84.1 25.2301C84.1 25.2301 84.1 25.2301 84.1 25.3301C84.1 25.4301 84 25.4301 83.9 25.3301H83.8C83.7 25.7301 83.6 25.9301 83.6 25.9301C83.3 25.9301 83.1 25.7301 83 25.4301C82.7 23.3301 82.3 21.3301 81.8 19.5301C80.6 15.4301 78.9 12.0301 76.5 9.83013C74.1 7.63013 71.2 6.63014 67.4 7.13014C66.7 7.23014 66.1 7.33014 65.3 7.53014C60.4 8.83014 57 12.1301 54.8 16.5301C52.1 21.7301 51.2 28.5301 51.5 35.1301C51.6 37.7301 50.4 39.3301 48.9 40.1301C48.3 40.4301 47.7 40.6301 47.1 40.6301C46.5 40.6301 45.9 40.5301 45.3 40.3301C44 39.9301 43.1 38.8301 43.1 37.0301ZM58.4 3.03014C43.3 8.53014 44.2 35.8301 44.2 37.1301C44.2 37.1301 44.2 37.1301 44.2 37.2301C44.2 38.4301 44.8 39.2301 45.6 39.5301C46 39.7301 46.4 39.7301 46.9 39.7301C47.4 39.7301 47.8 39.5301 48.2 39.3301C49.4 38.7301 50.3 37.4301 50.2 35.3301C49.9 28.5301 50.9 21.6301 53.6 16.2301C55.9 11.6301 59.6 8.13014 64.8 6.73014C65.6 6.53014 66.3 6.43013 67 6.33013C71.1 5.73013 74.4 6.93013 77 9.33013C79.5 11.6301 81.3 15.0301 82.6 19.2301C82.3 16.7301 81.7 13.9301 80.7 11.2301C78 4.03014 71.9 -1.96986 58.4 3.03014Z" fill="#6B5DFF"/>
<path fill-rule="evenodd" clip-rule="evenodd" d="M47.9 13.1301C47.6 14.7301 49 15.9301 50.4 16.5301C51.1 16.8301 54.2 17.5301 54.2 16.1301C54.2 16.0301 54.1 16.0301 54.1 16.0301C53.7 16.0301 53.4 16.3301 53 16.4301C52.3 16.6301 51.5 16.4301 50.9 16.2301C49.5 15.8301 48.2 14.7301 48.1 13.2301C48 13.0301 47.9 13.0301 47.9 13.1301Z" fill="#6B5DFF"/>
<path fill-rule="evenodd" clip-rule="evenodd" d="M50.2 9.33013C49.9 10.5301 51 11.7301 51.9 12.5301C53 13.5301 54.8 13.8301 56.2 13.2301C56.5 13.1301 56.3 12.6301 56 12.7301C54.8 13.2301 53.5 12.9301 52.4 12.2301C51.5 11.6301 50.2 10.5301 50.4 9.33013C50.4 9.23013 50.2 9.13013 50.2 9.33013Z" fill="#6B5DFF"/>
<path fill-rule="evenodd" clip-rule="evenodd" d="M53 5.73014C52.6 7.03014 53.4 8.33014 54.5 9.13014C55.4 9.83014 57.1 10.7301 58.3 10.6301C58.5 10.6301 58.5 10.3301 58.3 10.3301C57.9 10.1301 57.5 10.0301 57 9.93014C56.3 9.73014 55.7 9.43014 55.2 9.13014C53.9 8.33014 53.5 7.23013 53.2 5.83013C53.2 5.63013 53.1 5.73014 53 5.73014Z" fill="#6B5DFF"/>
<path fill-rule="evenodd" clip-rule="evenodd" d="M57.8 2.63014C55 3.53014 58.6 9.53014 61 8.73014C61.2 8.63014 61.2 8.43014 61 8.33014C59.7 8.13014 58.8 7.23014 58.1 6.23014C57.5 5.43014 56.4 3.33014 57.8 2.63014C58 2.73014 57.9 2.63014 57.8 2.63014Z" fill="#6B5DFF"/>
<path fill-rule="evenodd" clip-rule="evenodd" d="M60.1 1.83014C59.7 2.93014 60.8 4.73014 61.3 5.63014C61.8 6.43014 62.8 7.93014 63.9 7.63014C64.1 7.53014 64.1 7.33014 63.9 7.23014C62.7 6.83014 62.1 5.93014 61.5 4.93014C61.2 4.33014 60.9 3.73014 60.7 3.03014C60.6 2.63014 60.5 2.23014 60.3 1.83014C60.3 1.73014 60.1 1.73014 60.1 1.83014Z" fill="#6B5DFF"/>
<path fill-rule="evenodd" clip-rule="evenodd" d="M62.9 1.23014C63.7 2.13014 64.4 2.93014 64.8 4.03014C65.1 5.03014 65.2 6.03014 65.4 7.03014C65.5 7.23014 65.8 7.23014 65.8 6.93014C65.9 5.03014 65 2.13014 62.9 1.23014Z" fill="#6B5DFF"/>
<path fill-rule="evenodd" clip-rule="evenodd" d="M66.7 0.830139C67.5 1.33014 68.2 2.23014 68.6 3.13014C69.1 4.23014 69 5.23014 68.8 6.33014C68.8 6.53014 69.1 6.73014 69.2 6.53014C70.4 4.43014 68.6 1.73014 66.7 0.830139C66.6 0.830139 66.6 0.830139 66.7 0.830139Z" fill="#6B5DFF"/>
<path fill-rule="evenodd" clip-rule="evenodd" d="M70.9 0.830139C72.8 2.13014 73.3 4.63014 72.6 6.73014C72.5 7.03014 72.9 7.13014 73.1 6.93014C74.1 5.23014 73.4 1.03014 71 0.730137C70.9 0.730137 70.9 0.830139 70.9 0.830139Z" fill="#6B5DFF"/>
<path fill-rule="evenodd" clip-rule="evenodd" d="M75.5 3.13014C76.1 3.83014 76.5 4.63014 76.7 5.53014C76.8 6.03014 76.9 6.63014 76.8 7.13014C76.7 7.73014 76.3 7.93014 76.1 8.43014C76 8.53014 76.1 8.63014 76.3 8.63014C77.4 8.33014 77.4 6.73014 77.3 5.93014C77.2 4.93014 76.7 3.63014 75.5 3.13014Z" fill="#6B5DFF"/>
<path fill-rule="evenodd" clip-rule="evenodd" d="M79.6 7.43014C79.7 8.33014 80 10.7301 78.8 11.0301C78.6 11.0301 78.7 11.3301 78.9 11.3301C80.3 10.9301 80.5 8.33014 79.8 7.43014C79.8 7.33014 79.6 7.33014 79.6 7.43014Z" fill="#6B5DFF"/>
<path fill-rule="evenodd" clip-rule="evenodd" d="M81.6 11.8301C81.6 12.3301 81.5 12.8301 81.3 13.2301C81.2 13.5301 81 13.7301 80.9 13.9301C80.7 14.1301 80.5 14.1301 80.4 14.3301C80.4 14.4301 80.4 14.5301 80.5 14.5301C81 14.6301 81.4 13.9301 81.6 13.6301C81.9 13.1301 81.9 12.4301 81.6 11.8301Z" fill="#6B5DFF"/>
<path fill-rule="evenodd" clip-rule="evenodd" d="M82.7 16.0301C82.6 16.2301 82.4 16.3301 82.3 16.5301C82.2 16.7301 82 16.9301 81.9 17.0301C81.8 17.1301 81.1 17.4301 81.5 17.6301C81.8 17.8301 82.3 17.3301 82.5 17.1301C82.6 16.9301 82.8 16.8301 82.8 16.6301C82.8 16.4301 82.8 16.2301 82.7 16.0301C82.8 15.9301 82.7 15.9301 82.7 16.0301Z" fill="#6B5DFF"/>
<path fill-rule="evenodd" clip-rule="evenodd" d="M53.4 15.1301C52.6 15.5301 51.9 15.2301 51 15.1301C50.9 15.1301 50.9 15.2301 50.9 15.3301C51.4 16.0301 52.9 15.8301 53.5 15.4301C53.8 15.3301 53.6 15.0301 53.4 15.1301Z" fill="#6B5DFF"/>
<path fill-rule="evenodd" clip-rule="evenodd" d="M53.6 14.5301C53.4 14.5301 53.3 14.5301 53.1 14.4301C52.9 14.4301 52.8 14.3301 52.6 14.3301C52.5 14.3301 52.4 14.4301 52.5 14.4301C52.7 14.7301 53.2 14.7301 53.6 14.7301C53.8 14.7301 53.8 14.5301 53.6 14.5301Z" fill="#6B5DFF"/>
<path fill-rule="evenodd" clip-rule="evenodd" d="M55.7 12.2301C55.1 12.1301 54.7 11.8301 54.1 11.8301C54 11.8301 54 11.9301 54 12.0301C54.5 12.4301 55 12.6301 55.7 12.6301C55.9 12.5301 55.9 12.2301 55.7 12.2301Z" fill="#6B5DFF"/>
<path fill-rule="evenodd" clip-rule="evenodd" d="M56 11.3301C55.7 11.3301 55.5 11.1301 55.3 11.0301C55.2 11.0301 55.2 11.0301 55.1 11.0301C55.1 11.0301 55.1 11.0301 55 11.1301C55 11.1301 55 11.2301 55 11.3301C55.2 11.6301 55.6 11.7301 55.9 11.7301C56.3 11.7301 56.3 11.4301 56 11.3301Z" fill="#6B5DFF"/>
<path fill-rule="evenodd" clip-rule="evenodd" d="M57.1 7.53014C57.2 7.93014 57.4 8.23014 57.7 8.53014C57.9 8.73014 58.4 9.03014 58.6 8.73014C58.6 8.73014 58.6 8.63014 58.6 8.53014C58.5 8.33014 58.1 8.23014 57.9 8.13014C57.6 7.93014 57.3 7.63014 57.2 7.43014L57.1 7.53014Z" fill="#6B5DFF"/>
<path fill-rule="evenodd" clip-rule="evenodd" d="M57 8.83014C57 9.03014 57.1 9.13014 57.2 9.33014C57.4 9.43014 57.7 9.53014 57.8 9.33014C57.8 9.23014 57.8 9.23014 57.8 9.13014C57.7 9.03014 57.5 9.13014 57.4 9.03014C57.3 9.03014 57.1 8.93014 57.1 8.83014C57.2 8.73014 57 8.73014 57 8.83014Z" fill="#6B5DFF"/>
<path fill-rule="evenodd" clip-rule="evenodd" d="M60.4 6.03014C60.5 6.33014 60.7 6.63014 60.9 6.93014C61.1 7.13014 61.4 7.33014 61.7 7.33014C61.8 7.33014 61.8 7.23014 61.8 7.23014C61.7 7.03014 61.4 6.93014 61.3 6.83014C61 6.63014 60.8 6.33014 60.7 6.03014C60.6 5.73014 60.4 5.83014 60.4 6.03014Z" fill="#6B5DFF"/>
<path fill-rule="evenodd" clip-rule="evenodd" d="M59.8 7.03014C59.9 7.13014 60 7.33014 60.2 7.33014C60.3 7.33014 60.3 7.23014 60.3 7.23014C60.2 7.13014 60.1 6.93014 60 6.83014C59.8 6.73014 59.6 6.93014 59.8 7.03014Z" fill="#6B5DFF"/>
<path fill-rule="evenodd" clip-rule="evenodd" d="M64 4.03014C64.2 4.53014 64.3 5.13014 64.7 5.53014C64.8 5.63014 64.9 5.53014 64.9 5.43014C64.8 4.93014 64.3 4.43014 64 4.03014Z" fill="#6B5DFF"/>
<path fill-rule="evenodd" clip-rule="evenodd" d="M63.2 4.93014C63.3 5.13014 63.3 5.43014 63.5 5.63014C63.6 5.73014 63.7 5.63014 63.7 5.53014C63.7 5.43014 63.6 5.33014 63.6 5.23014C63.6 5.13014 63.5 5.03014 63.5 4.83014C63.4 4.73014 63.1 4.73014 63.2 4.93014Z" fill="#6B5DFF"/>
<path fill-rule="evenodd" clip-rule="evenodd" d="M68.1 3.83014C68.1 4.13014 68.1 4.33014 68.1 4.63014C68.1 4.83014 67.9 5.13014 68 5.33014C68 5.43014 68.1 5.43014 68.2 5.43014C68.6 5.13014 68.3 4.23014 68.3 3.83014C68.2 3.73014 68.1 3.73014 68.1 3.83014Z" fill="#6B5DFF"/>
<path fill-rule="evenodd" clip-rule="evenodd" d="M66.9 4.13014C66.8 4.53014 66.7 4.93014 66.6 5.33014C66.6 5.63014 66.9 5.73014 67 5.43014C67.1 5.03014 67.1 4.63014 67.2 4.23014C67.2 4.03014 66.9 3.93014 66.9 4.13014Z" fill="#6B5DFF"/>
<path fill-rule="evenodd" clip-rule="evenodd" d="M72.3 5.13014C72.3 5.33014 72.2 5.43014 72.1 5.63014C72.1 5.73014 71.9 5.93014 72 6.03014L72.1 6.13014C72.3 6.03014 72.3 5.93014 72.3 5.73014C72.4 5.53014 72.4 5.43014 72.5 5.23014C72.6 5.03014 72.3 4.93014 72.3 5.13014Z" fill="#6B5DFF"/>
<path fill-rule="evenodd" clip-rule="evenodd" d="M71.4 5.13014C71.3 5.23014 71.2 5.33014 71.1 5.43014C71 5.53014 70.9 5.63014 70.8 5.73014C70.8 5.83014 70.8 5.93014 70.9 5.93014C71.3 6.03014 71.5 5.53014 71.6 5.23014C71.7 5.13014 71.5 5.03014 71.4 5.13014Z" fill="#6B5DFF"/>
<path fill-rule="evenodd" clip-rule="evenodd" d="M70.3 4.63014C70.2 4.73014 70.2 4.83014 70.1 4.93014C70 5.03014 70 5.13014 70 5.33014L70.1 5.43014C70.2 5.43014 70.3 5.33014 70.3 5.23014C70.4 5.13014 70.4 5.03014 70.5 4.93014C70.6 4.63014 70.4 4.43014 70.3 4.63014Z" fill="#6B5DFF"/>
<path fill-rule="evenodd" clip-rule="evenodd" d="M74.1 5.73014C74.1 5.93014 74.1 6.03014 74 6.23014C74 6.43014 73.9 6.53014 74 6.73014C74 6.73014 74.1 6.83014 74.1 6.73014C74.4 6.53014 74.2 6.03014 74.1 5.73014Z" fill="#6B5DFF"/>
<path fill-rule="evenodd" clip-rule="evenodd" d="M74.6 5.93014C74.6 6.13014 74.6 6.33014 74.6 6.53014C74.6 6.73014 74.6 6.93014 74.8 7.03014H74.9C75 6.93014 75 6.83014 75 6.63014C75 6.43014 75 6.23014 74.9 5.93014C74.9 5.73014 74.6 5.73014 74.6 5.93014Z" fill="#6B5DFF"/>
<path fill-rule="evenodd" clip-rule="evenodd" d="M75.5 6.43014C75.5 6.53014 75.5 6.63014 75.5 6.73014C75.5 6.83014 75.5 6.93014 75.5 7.03014H75.6C75.7 6.93014 75.7 6.83014 75.6 6.83014C75.6 6.73014 75.6 6.63014 75.6 6.43014C75.7 6.33014 75.5 6.33014 75.5 6.43014Z" fill="#6B5DFF"/>
<path fill-rule="evenodd" clip-rule="evenodd" d="M76 7.13014C75.9 7.33014 75.7 7.73014 75.9 7.93014C76 8.03014 76 7.93014 76.1 7.93014C76.2 7.83014 76.2 7.73014 76.2 7.63014C76.2 7.53014 76.3 7.43014 76.3 7.33014C76.5 7.13014 76.1 6.93014 76 7.13014Z" fill="#6B5DFF"/>
<path fill-rule="evenodd" clip-rule="evenodd" d="M77.5 7.93014C77.5 8.13014 77.5 8.23014 77.5 8.43014C77.4 8.63014 77.3 8.73014 77.3 8.93014C77.3 9.13014 77.5 9.13014 77.6 9.03014C77.9 8.73014 77.8 8.23014 77.7 7.93014C77.7 7.73014 77.5 7.83014 77.5 7.93014Z" fill="#6B5DFF"/>
<path fill-rule="evenodd" clip-rule="evenodd" d="M78 8.63014C78 8.93014 77.8 9.23014 78 9.53014C78 9.53014 78.1 9.63014 78.1 9.53014C78.4 9.33014 78.3 8.93014 78.2 8.63014C78.3 8.43014 78.1 8.43014 78 8.63014Z" fill="#6B5DFF"/>
<path fill-rule="evenodd" clip-rule="evenodd" d="M78.4 9.43014C78.4 9.53014 78.3 9.63014 78.3 9.73014C78.3 9.93014 78.6 9.93014 78.6 9.73014C78.6 9.63014 78.7 9.53014 78.7 9.43014C78.7 9.23014 78.4 9.23014 78.4 9.43014Z" fill="#6B5DFF"/>
<path fill-rule="evenodd" clip-rule="evenodd" d="M79.9 11.4301C79.8 11.5301 79.7 11.7301 79.7 11.8301C79.7 12.0301 79.9 12.1301 80 11.9301C80.1 11.8301 80.1 11.6301 80.1 11.4301C80.1 11.4301 79.9 11.3301 79.9 11.4301Z" fill="#6B5DFF"/>
<path fill-rule="evenodd" clip-rule="evenodd" d="M80.2 12.0301C80.1 12.2301 80 12.4301 80.1 12.6301H80.2C80.3 12.5301 80.3 12.3301 80.4 12.1301C80.5 11.9301 80.2 11.8301 80.2 12.0301Z" fill="#6B5DFF"/>
<path fill-rule="evenodd" clip-rule="evenodd" d="M80.4 12.4301C80.3 12.5301 80.3 12.7301 80.3 12.8301C80.3 13.0301 80.7 13.0301 80.7 12.8301C80.7 12.7301 80.7 12.7301 80.7 12.6301C80.8 12.5301 80.7 12.4301 80.6 12.4301C80.5 12.3301 80.4 12.3301 80.4 12.4301Z" fill="#6B5DFF"/>
<path fill-rule="evenodd" clip-rule="evenodd" d="M81.4 14.8301C81.4 14.9301 81.4 15.0301 81.4 15.1301C81.4 15.2301 81.3 15.3301 81.3 15.4301C81.2 15.6301 81.5 15.7301 81.7 15.5301C81.8 15.3301 81.8 15.0301 81.7 14.7301C81.6 14.6301 81.4 14.6301 81.4 14.8301Z" fill="#6B5DFF"/>
<path fill-rule="evenodd" clip-rule="evenodd" d="M81.6 15.2301C81.5 15.4301 81.4 15.6301 81.5 15.8301C81.6 15.9301 81.7 15.9301 81.8 15.8301C81.9 15.7301 81.8 15.5301 81.8 15.3301C81.9 15.2301 81.7 15.1301 81.6 15.2301Z" fill="#6B5DFF"/>
<path fill-rule="evenodd" clip-rule="evenodd" d="M82 15.8301C81.9 15.9301 81.9 16.1301 81.8 16.2301C81.8 16.4301 82.1 16.4301 82.2 16.2301C82.2 16.1301 82.3 16.0301 82.3 15.9301C82.3 15.7301 82 15.6301 82 15.8301Z" fill="#6B5DFF"/>
<path fill-rule="evenodd" clip-rule="evenodd" d="M40.3 37.1301C40.3 37.1301 41.5 8.23014 25.7 2.53014C-1.99997 -7.56986 0.400039 27.1301 0.400039 25.4301C2.20004 12.8301 7.90003 4.23014 18.8 7.13014C29.9 10.0301 33.6 22.8301 33.1 35.2301C32.8 41.1301 40.3 41.7301 40.3 37.1301Z" fill="#F0F2FB"/>
<path fill-rule="evenodd" clip-rule="evenodd" d="M39.7 37.1301C39.7 35.9301 40.6 8.63014 25.5 3.03014C12 -1.86986 5.90001 4.03014 3.20001 11.0301C2.10001 13.7301 1.60002 16.6301 1.30002 19.0301C2.50002 14.8301 4.40002 11.3301 6.90002 9.13014C9.50002 6.73014 12.8 5.63014 16.9 6.13014C17.6 6.23014 18.3 6.33014 19.1 6.53014C24.3 7.93014 28 11.4301 30.3 16.0301C33 21.4301 34 28.3301 33.7 35.1301C33.6 37.2301 34.6 38.5301 35.7 39.1301C36.1 39.3301 36.6 39.4301 37 39.5301C37.4 39.5301 37.9 39.5301 38.3 39.3301C39.1 39.1301 39.7 38.3301 39.7 37.1301ZM25.9 2.03014C41.7 7.83014 40.9 35.9301 40.8 37.1301C40.8 38.8301 39.9 39.9301 38.7 40.4301C38.2 40.6301 37.6 40.7301 36.9 40.7301C36.3 40.7301 35.7 40.5301 35.1 40.2301C33.6 39.4301 32.4 37.8301 32.5 35.2301C32.8 28.6301 31.8 21.9301 29.2 16.6301C27 12.2301 23.6 8.93014 18.7 7.63014C18 7.43014 17.3 7.33014 16.6 7.23014C12.9 6.73014 9.90001 7.73014 7.60001 9.93014C5.20001 12.1301 3.40002 15.5301 2.30002 19.6301C1.80002 21.4301 1.40001 23.4301 1.10001 25.5301C1.10001 25.9301 0.9 26.0301 0.5 26.0301C0.5 26.0301 0.400018 25.8301 0.300018 25.4301H0.200012C0.100012 25.5301 0 25.5301 0 25.4301C0 25.4301 0 25.4301 0 25.3301C0 25.0301 0.100012 24.6301 0.200012 24.3301C0.100012 23.4301 6.10203e-06 22.1301 0.100006 20.6301C0.300006 17.8301 0.900018 14.1301 2.30002 10.6301C5.10002 3.23014 11.6 -3.16986 25.9 2.03014Z" fill="#6B5DFF"/>
<path fill-rule="evenodd" clip-rule="evenodd" d="M36 13.2301C35.9 14.7301 34.5 15.7301 33.2 16.2301C32.6 16.4301 32 16.5301 31.4 16.5301C30.9 16.5301 30.4 16.0301 29.9 16.1301C29.8 16.1301 29.8 16.1301 29.8 16.2301C29.8 17.6301 32.9 16.9301 33.6 16.7301C35.1 16.2301 36.5 14.9301 36.2 13.3301C36.1 13.1301 36 13.1301 36 13.2301Z" fill="#6B5DFF"/>
<path fill-rule="evenodd" clip-rule="evenodd" d="M33.6 9.43014C33.8 10.6301 32.5 11.6301 31.6 12.3301C30.6 13.0301 29.2 13.2301 28 12.8301C27.7 12.7301 27.5 13.1301 27.8 13.3301C29.1 13.9301 30.8 13.6301 31.9 12.7301C32.8 12.0301 34.1 10.7301 33.8 9.43014C33.8 9.23014 33.6 9.33014 33.6 9.43014Z" fill="#6B5DFF"/>
<path fill-rule="evenodd" clip-rule="evenodd" d="M30.8 5.83014C30.5 7.23014 30.1 8.33014 28.8 9.13014C28.3 9.43014 27.7 9.73014 27.2 9.93014C26.7 10.1301 26.2 10.1301 25.7 10.4301C25.6 10.5301 25.6 10.7301 25.7 10.7301C26.9 10.9301 28.5 9.93014 29.4 9.33014C30.5 8.53014 31.3 7.23014 30.9 5.83014C30.9 5.73014 30.8 5.73014 30.8 5.83014Z" fill="#6B5DFF"/>
<path fill-rule="evenodd" clip-rule="evenodd" d="M26.1 2.83013C27.4 3.43013 26.4 5.33014 25.9 6.23014C25.2 7.33014 24.2 8.33014 22.9 8.53014C22.7 8.53014 22.7 8.83014 22.9 8.93014C25.3 9.63014 29 3.73013 26.1 2.83013C26.1 2.63013 26 2.73013 26.1 2.83013Z" fill="#6B5DFF"/>
<path fill-rule="evenodd" clip-rule="evenodd" d="M23.7 1.83014C23.2 2.63014 23.1 3.73014 22.7 4.63014C22.1 5.83014 21.4 6.73014 20.2 7.23014C20 7.33014 20 7.53014 20.2 7.63014C21.4 7.93014 22.3 6.43014 22.8 5.63014C23.3 4.73014 24.4 2.93014 24 1.83014C23.9 1.73014 23.7 1.73014 23.7 1.83014Z" fill="#6B5DFF"/>
<path fill-rule="evenodd" clip-rule="evenodd" d="M21 1.23014C19 2.13014 18.1 5.03014 18.2 7.03014C18.2 7.23014 18.6 7.33014 18.6 7.13014C18.8 6.13014 18.9 5.13014 19.2 4.13014C19.5 2.93014 20.2 2.23014 21 1.23014Z" fill="#6B5DFF"/>
<path fill-rule="evenodd" clip-rule="evenodd" d="M17.3 0.830139C15.3 1.73014 13.6 4.43014 14.8 6.53014C14.9 6.73014 15.2 6.63014 15.2 6.33014C15 5.13014 14.9 4.23014 15.4 3.13014C15.8 2.33014 16.5 1.43014 17.3 0.830139Z" fill="#6B5DFF"/>
<path fill-rule="evenodd" clip-rule="evenodd" d="M13 0.830139C10.6 1.13014 9.90001 5.43014 10.9 7.03014C11 7.23014 11.5 7.13014 11.4 6.83014C10.6 4.73014 11.1 2.23014 13.1 0.930138C13.1 0.930138 13.1 0.830139 13 0.830139Z" fill="#6B5DFF"/>
<path fill-rule="evenodd" clip-rule="evenodd" d="M8.40002 3.13014C7.30002 3.63014 6.9 4.93014 6.7 6.03014C6.5 6.83014 6.7 8.53014 7.7 8.83014C7.8 8.83014 7.90002 8.73014 7.90002 8.63014C7.70002 8.23014 7.40001 7.93014 7.30001 7.53014C7.10001 7.03014 7.20001 6.43014 7.30001 5.93014C7.30001 4.93014 7.80002 3.93014 8.40002 3.13014Z" fill="#6B5DFF"/>
<path fill-rule="evenodd" clip-rule="evenodd" d="M4.10001 7.43014C3.50001 8.43014 3.60001 11.0301 5.00001 11.3301C5.20001 11.4301 5.30001 11.1301 5.10001 11.0301C3.90001 10.7301 4.20002 8.33014 4.30002 7.43014C4.30002 7.43014 4.20001 7.33014 4.10001 7.43014Z" fill="#6B5DFF"/>
<path fill-rule="evenodd" clip-rule="evenodd" d="M2.30002 11.9301C2.10002 12.5301 2.20003 13.1301 2.40003 13.6301C2.60003 14.0301 3.00001 14.7301 3.50001 14.6301C3.60001 14.6301 3.60001 14.5301 3.60001 14.4301C3.50001 14.2301 3.40002 14.2301 3.30002 14.1301C3.00002 14.0301 2.90002 13.7301 2.80002 13.5301C2.40002 13.1301 2.30002 12.4301 2.30002 11.9301Z" fill="#6B5DFF"/>
<path fill-rule="evenodd" clip-rule="evenodd" d="M1.20001 16.0301C1.20001 16.2301 1.20001 16.4301 1.20001 16.5301C1.20001 16.7301 1.4 16.9301 1.5 17.0301C1.7 17.3301 2.1 17.7301 2.5 17.6301C2.6 17.6301 2.70001 17.5301 2.70001 17.3301C2.70001 17.1301 2.40002 17.1301 2.30002 17.0301C2.10002 16.9301 2.00002 16.7301 1.80002 16.5301C1.60002 16.4301 1.40001 16.2301 1.20001 16.0301Z" fill="#6B5DFF"/>
<path fill-rule="evenodd" clip-rule="evenodd" d="M30.4 15.5301C31.1 15.9301 32.5 16.0301 33 15.4301C33.1 15.3301 33 15.2301 32.9 15.2301C32.1 15.3301 31.3 15.6301 30.5 15.2301C30.4 15.1301 30.2 15.4301 30.4 15.5301Z" fill="#6B5DFF"/>
<path fill-rule="evenodd" clip-rule="evenodd" d="M30.3 14.7301C30.7 14.7301 31.2 14.7301 31.4 14.4301C31.5 14.3301 31.4 14.2301 31.3 14.3301C31.1 14.3301 31 14.4301 30.9 14.4301C30.7 14.5301 30.5 14.5301 30.4 14.5301C30.2 14.5301 30.2 14.7301 30.3 14.7301Z" fill="#6B5DFF"/>
<path fill-rule="evenodd" clip-rule="evenodd" d="M28.3 12.6301C28.9 12.5301 29.5 12.4301 30 12.0301C30.1 11.9301 30 11.8301 29.9 11.8301C29.3 11.8301 28.8 12.1301 28.3 12.2301C28 12.3301 28.1 12.6301 28.3 12.6301Z" fill="#6B5DFF"/>
<path fill-rule="evenodd" clip-rule="evenodd" d="M27.9 11.8301C28.3 11.8301 28.6 11.7301 28.8 11.4301C28.8 11.4301 28.8 11.3301 28.8 11.2301C28.8 11.2301 28.8 11.2301 28.7 11.1301C28.6 11.1301 28.6 11.1301 28.5 11.1301C28.3 11.2301 28.1 11.4301 27.8 11.4301C27.7 11.4301 27.7 11.8301 27.9 11.8301Z" fill="#6B5DFF"/>
<path fill-rule="evenodd" clip-rule="evenodd" d="M26.8 7.63014C26.6 7.93014 26.3 8.23013 26.1 8.33013C25.9 8.43013 25.5 8.53013 25.4 8.73013C25.4 8.73013 25.4 8.83014 25.4 8.93014C25.7 9.13014 26.1 8.93013 26.3 8.73013C26.7 8.43013 26.8 8.13013 26.9 7.73013C26.9 7.53013 26.8 7.53014 26.8 7.63014Z" fill="#6B5DFF"/>
<path fill-rule="evenodd" clip-rule="evenodd" d="M26.8 8.83014C26.8 8.93014 26.7 9.03014 26.5 9.03014C26.4 9.03014 26.2 9.03014 26.1 9.13014C26 9.13014 26 9.23014 26.1 9.33014C26.2 9.53014 26.5 9.43014 26.7 9.33014C26.9 9.23014 27 9.03014 27 8.83014H26.8Z" fill="#6B5DFF"/>
<path fill-rule="evenodd" clip-rule="evenodd" d="M23.3 6.03014C23.2 6.33014 23 6.53014 22.8 6.73014C22.6 6.93014 22.3 7.03014 22.2 7.23014C22.2 7.33014 22.2 7.33013 22.3 7.33013C22.6 7.43013 22.9 7.13014 23.1 6.93014C23.4 6.73014 23.5 6.43014 23.6 6.03014C23.6 5.93014 23.3 5.83014 23.3 6.03014Z" fill="#6B5DFF"/>
<path fill-rule="evenodd" clip-rule="evenodd" d="M24 6.93014C23.9 7.03014 23.8 7.13014 23.7 7.33014C23.7 7.33014 23.7 7.43014 23.8 7.43014C24 7.43014 24.1 7.23014 24.2 7.13014C24.3 7.03014 24.1 6.83014 24 6.93014Z" fill="#6B5DFF"/>
<path fill-rule="evenodd" clip-rule="evenodd" d="M19.9 4.13014C19.7 4.53014 19.1 5.03014 19.1 5.53014C19.1 5.63014 19.2 5.73014 19.3 5.63014C19.7 5.23014 19.8 4.63014 19.9 4.13014C20 4.13014 19.9 4.03014 19.9 4.13014Z" fill="#6B5DFF"/>
<path fill-rule="evenodd" clip-rule="evenodd" d="M20.5 4.93014C20.5 5.03014 20.4 5.13014 20.4 5.23014C20.4 5.33014 20.3 5.43014 20.3 5.53014C20.3 5.63014 20.4 5.73014 20.5 5.63014C20.7 5.43014 20.7 5.13014 20.8 4.93014C20.8 4.83014 20.6 4.73014 20.5 4.93014Z" fill="#6B5DFF"/>
<path fill-rule="evenodd" clip-rule="evenodd" d="M15.8 3.83014C15.7 4.23014 15.4 5.13014 15.9 5.43014C16 5.43014 16 5.43014 16.1 5.33014C16.2 5.13014 16.1 4.93014 16 4.73014C15.9 4.43014 16 4.13014 16 3.83014C15.9 3.83014 15.8 3.83014 15.8 3.83014Z" fill="#6B5DFF"/>
<path fill-rule="evenodd" clip-rule="evenodd" d="M16.8 4.33014C16.9 4.73014 16.8 5.13014 17 5.53014C17.1 5.83014 17.5 5.73014 17.4 5.43014C17.3 5.03014 17.2 4.63014 17.1 4.23014C17.1 4.03014 16.7 4.13014 16.8 4.33014Z" fill="#6B5DFF"/>
<path fill-rule="evenodd" clip-rule="evenodd" d="M11.4 5.23013C11.4 5.43013 11.5 5.63013 11.6 5.73013C11.7 5.83013 11.7 6.03014 11.8 6.13014C11.9 6.13014 11.9 6.13014 11.9 6.03014C12 5.93014 11.8 5.73014 11.8 5.63014C11.7 5.43014 11.7 5.33014 11.6 5.13014C11.7 5.03014 11.4 5.03013 11.4 5.23013Z" fill="#6B5DFF"/>
<path fill-rule="evenodd" clip-rule="evenodd" d="M12.3 5.33014C12.4 5.63014 12.6 6.13014 13 6.03014C13.1 6.03014 13.1 5.93014 13.1 5.83014C13.1 5.73014 13 5.63014 12.9 5.53014C12.8 5.43014 12.7 5.33014 12.6 5.23014C12.5 5.03014 12.3 5.13014 12.3 5.33014Z" fill="#6B5DFF"/>
<path fill-rule="evenodd" clip-rule="evenodd" d="M13.5 4.83014C13.6 4.93014 13.6 5.03014 13.7 5.13014C13.8 5.23014 13.8 5.33014 13.9 5.33014C13.9 5.33014 14 5.33014 14 5.23014C14 5.13014 14 5.03014 13.9 4.93014C13.8 4.83014 13.8 4.73014 13.7 4.63014C13.6 4.53014 13.4 4.73014 13.5 4.83014Z" fill="#6B5DFF"/>
<path fill-rule="evenodd" clip-rule="evenodd" d="M9.80001 5.83014C9.80001 6.13014 9.60002 6.63014 9.90002 6.83014H9.99999C10.1 6.73014 9.99999 6.53014 9.99999 6.33014C9.89999 6.13014 9.90001 6.03014 9.80001 5.83014Z" fill="#6B5DFF"/>
<path fill-rule="evenodd" clip-rule="evenodd" d="M9 6.03014C9 6.23014 9 6.43014 9 6.63014C9 6.83014 8.90001 7.03014 9.10001 7.13014H9.20002C9.40002 7.03014 9.30002 6.93014 9.30002 6.73014C9.30002 6.53014 9.30002 6.33014 9.30002 6.03014C9.40002 5.83014 9 5.83014 9 6.03014Z" fill="#6B5DFF"/>
<path fill-rule="evenodd" clip-rule="evenodd" d="M8.30002 6.53014C8.30002 6.63014 8.30002 6.73014 8.30002 6.83014C8.30002 6.93014 8.30002 7.03014 8.30002 7.13014H8.40002C8.50002 7.03014 8.40002 6.93014 8.40002 6.83014C8.40002 6.73014 8.40002 6.63014 8.40002 6.43014C8.50002 6.43014 8.30002 6.43014 8.30002 6.53014Z" fill="#6B5DFF"/>
<path fill-rule="evenodd" clip-rule="evenodd" d="M7.6 7.43014C7.7 7.53014 7.70001 7.63014 7.70001 7.73014C7.70001 7.83014 7.80001 7.93014 7.80001 8.03014C7.90001 8.03014 7.9 8.03014 8 8.03014C8.2 7.83014 8.00002 7.43014 7.90002 7.23014C7.90002 6.93014 7.5 7.13014 7.6 7.43014Z" fill="#6B5DFF"/>
<path fill-rule="evenodd" clip-rule="evenodd" d="M6.20002 7.93014C6.10002 8.23014 6.10003 8.83014 6.30003 9.03014C6.40003 9.13014 6.70002 9.03014 6.60002 8.93014C6.60002 8.83014 6.50003 8.63014 6.40003 8.53014C6.30003 8.33014 6.30003 8.13014 6.30003 7.93014C6.50003 7.83014 6.20002 7.83014 6.20002 7.93014Z" fill="#6B5DFF"/>
<path fill-rule="evenodd" clip-rule="evenodd" d="M5.70002 8.73014C5.70002 9.03014 5.60002 9.43014 5.80002 9.63014H5.90003C6.10003 9.43014 5.90003 9.03014 5.90003 8.73014C5.90003 8.53014 5.70002 8.53014 5.70002 8.73014Z" fill="#6B5DFF"/>
<path fill-rule="evenodd" clip-rule="evenodd" d="M5.30002 9.53014C5.30002 9.63014 5.30002 9.73013 5.40002 9.83013C5.40002 10.0301 5.70001 9.93013 5.70001 9.83013C5.70001 9.73013 5.60001 9.63014 5.60001 9.53014C5.60001 9.33014 5.30002 9.33014 5.30002 9.53014Z" fill="#6B5DFF"/>
<path fill-rule="evenodd" clip-rule="evenodd" d="M3.90003 11.5301C4.00003 11.6301 4 11.8301 4 12.0301C4.1 12.1301 4.30002 12.0301 4.30002 11.9301C4.30002 11.8301 4.20001 11.6301 4.10001 11.5301C4.00001 11.3301 3.80003 11.4301 3.90003 11.5301Z" fill="#6B5DFF"/>
<path fill-rule="evenodd" clip-rule="evenodd" d="M3.60001 12.1301C3.70001 12.3301 3.70002 12.4301 3.80002 12.6301H3.90003C4.10003 12.4301 3.90002 12.2301 3.80002 12.0301C3.70002 11.9301 3.50001 12.0301 3.60001 12.1301Z" fill="#6B5DFF"/>
<path fill-rule="evenodd" clip-rule="evenodd" d="M3.30003 12.6301C3.30003 12.7301 3.30003 12.7301 3.30003 12.8301C3.30003 13.0301 3.70002 13.0301 3.70002 12.8301C3.70002 12.7301 3.70002 12.5301 3.60002 12.4301C3.50002 12.3301 3.40003 12.3301 3.30003 12.3301C3.30003 12.4301 3.20003 12.5301 3.30003 12.6301Z" fill="#6B5DFF"/>
<path fill-rule="evenodd" clip-rule="evenodd" d="M2.30003 14.8301C2.30003 15.0301 2.20003 15.3301 2.30003 15.6301C2.40003 15.8301 2.70002 15.7301 2.60002 15.5301C2.60002 15.4301 2.50001 15.3301 2.50001 15.2301C2.50001 15.1301 2.50004 15.0301 2.40004 14.8301C2.60004 14.7301 2.40003 14.7301 2.30003 14.8301Z" fill="#6B5DFF"/>
<path fill-rule="evenodd" clip-rule="evenodd" d="M2.10001 15.4301C2.10001 15.6301 2.10001 15.7301 2.10001 15.9301C2.20001 16.0301 2.30002 16.0301 2.40002 15.9301C2.50002 15.7301 2.40002 15.5301 2.30002 15.3301C2.30002 15.1301 2.10001 15.2301 2.10001 15.4301Z" fill="#6B5DFF"/>
<path fill-rule="evenodd" clip-rule="evenodd" d="M1.70001 15.9301C1.70001 16.0301 1.80002 16.1301 1.80002 16.2301C1.80002 16.4301 2.20001 16.3301 2.20001 16.2301C2.20001 16.0301 2.1 15.9301 2 15.8301C1.9 15.7301 1.70001 15.8301 1.70001 15.9301Z" fill="#6B5DFF"/>
<path fill-rule="evenodd" clip-rule="evenodd" d="M50.7 31.6301C49.9 33.0301 49.2 34.2301 47.4 34.3301C46.1 34.4301 44.6 34.1301 44.2 32.7301C44.1 32.5301 43.7 32.5301 43.7 32.8301C44.2 36.2301 50.8 34.9301 50.9 31.7301C50.9 31.5301 50.7 31.5301 50.7 31.6301Z" fill="#6B5DFF"/>
<path fill-rule="evenodd" clip-rule="evenodd" d="M44 28.1301C44.8 29.3301 46.2 30.0301 47.7 29.7301C49.1 29.5301 50.8 28.5301 51.1 27.0301C51.1 26.9301 51 26.8301 50.9 26.9301C50 27.9301 49.5 28.8301 48.1 29.2301C46.7 29.7301 45.1 29.1301 44 28.1301Z" fill="#6B5DFF"/>
<path fill-rule="evenodd" clip-rule="evenodd" d="M44.6 24.0301C45.3 25.4301 47.1 25.7301 48.5 25.5301C49.3 25.3301 50.1 24.9301 50.6 24.4301C50.8 24.2301 51.1 23.8301 51.2 23.5301C51.3 22.9301 51.8 22.5301 52.1 22.0301C52.1 22.0301 52.1 21.9301 52 22.0301C51.5 22.4301 51.4 23.0301 50.9 23.4301C50.3 23.9301 49.9 24.4301 49.1 24.7301C48.3 25.1301 47.4 25.2301 46.6 25.0301C45.8 24.8301 45.3 24.3301 44.7 23.9301C44.6 23.8301 44.6 23.9301 44.6 24.0301Z" fill="#6B5DFF"/>
<path fill-rule="evenodd" clip-rule="evenodd" d="M46.1 18.2301C46.5 19.6301 47.8 20.4301 49.2 20.7301C50.2 21.0301 52.3 20.9301 52.9 19.9301C53 19.8301 52.9 19.7301 52.7 19.7301C52.2 19.8301 51.8 20.1301 51.3 20.2301C50.7 20.4301 50 20.3301 49.3 20.2301C47.9 20.0301 46.9 19.2301 46.2 18.1301C46.2 18.1301 46.1 18.1301 46.1 18.2301Z" fill="#6B5DFF"/>
<path fill-rule="evenodd" clip-rule="evenodd" d="M50 36.4301C49.7 36.8301 49.3 37.2301 48.9 37.6301C48.4 38.0301 47.9 38.2301 47.4 38.5301C47.3 38.6301 47.3 38.7301 47.4 38.7301C48 38.8301 48.6 38.4301 49 38.1301C49.5 37.7301 50 37.2301 50.1 36.5301C50.1 36.4301 50.1 36.3301 50 36.4301Z" fill="#6B5DFF"/>
<path fill-rule="evenodd" clip-rule="evenodd" d="M49.7 35.9301C49.4 36.1301 49 36.3301 48.6 36.5301C48.2 36.7301 47.8 36.7301 47.5 37.0301C47.4 37.1301 47.4 37.2301 47.5 37.3301C48.4 37.7301 49.4 36.7301 49.9 36.1301C50 35.9301 49.9 35.8301 49.7 35.9301Z" fill="#6B5DFF"/>
<path fill-rule="evenodd" clip-rule="evenodd" d="M49.4 35.1301C49.3 35.2301 49.1 35.3301 49 35.4301C48.9 35.5301 48.7 35.5301 48.6 35.6301C48.5 35.7301 48.6 35.7301 48.6 35.8301C48.9 35.9301 49.3 35.6301 49.6 35.4301C49.7 35.2301 49.5 35.0301 49.4 35.1301Z" fill="#6B5DFF"/>
<path fill-rule="evenodd" clip-rule="evenodd" d="M49.6 32.2301C49.2 32.5301 48.8 32.6301 48.3 32.8301C48.2 32.8301 48.2 32.9301 48.3 32.9301C48.9 33.1301 49.4 32.7301 49.8 32.4301C49.9 32.2301 49.7 32.1301 49.6 32.2301Z" fill="#6B5DFF"/>
<path fill-rule="evenodd" clip-rule="evenodd" d="M49.5 31.1301C49.3 31.3301 49.1 31.4301 48.9 31.5301C48.8 31.6301 48.5 31.7301 48.6 31.9301C48.8 32.1301 49 31.9301 49.2 31.8301C49.4 31.7301 49.6 31.5301 49.8 31.3301C49.9 31.2301 49.7 31.0301 49.5 31.1301Z" fill="#6B5DFF"/>
<path fill-rule="evenodd" clip-rule="evenodd" d="M49.2 30.5301C49.1 30.6301 49 30.6301 49 30.8301C49 30.9301 49 30.9301 49.1 30.9301C49.2 30.9301 49.3 30.8301 49.4 30.7301C49.5 30.6301 49.3 30.4301 49.2 30.5301Z" fill="#6B5DFF"/>
<path fill-rule="evenodd" clip-rule="evenodd" d="M50.3 26.9301C50 27.2301 49.5 27.4301 49.1 27.6301C48.9 27.7301 48.7 27.8301 48.4 27.8301C48.2 27.8301 48 27.8301 47.9 27.9301C47.8 28.0301 47.8 28.0301 47.8 28.1301C48 28.6301 48.8 28.3301 49.1 28.1301C49.8 27.9301 50.1 27.5301 50.3 26.9301C50.4 26.9301 50.4 26.9301 50.3 26.9301Z" fill="#6B5DFF"/>
<path fill-rule="evenodd" clip-rule="evenodd" d="M49.8 26.2301C49.6 26.3301 49.5 26.4301 49.3 26.4301C49.2 26.5301 49 26.6301 48.9 26.7301C48.9 26.8301 48.9 26.8301 49 26.9301C49.3 27.0301 49.8 26.7301 50 26.5301C50.2 26.3301 50 26.0301 49.8 26.2301Z" fill="#6B5DFF"/>
<path fill-rule="evenodd" clip-rule="evenodd" d="M50.6 22.8301C50.2 23.0301 49.8 23.2301 49.3 23.3301C48.9 23.4301 48.5 23.4301 48.2 23.6301C48.1 23.7301 48.1 23.8301 48.2 23.8301C49.1 24.1301 50.1 23.5301 50.8 23.0301C50.9 22.9301 50.7 22.7301 50.6 22.8301Z" fill="#6B5DFF"/>
<path fill-rule="evenodd" clip-rule="evenodd" d="M50.6 21.8301C50.4 21.8301 50.2 21.8301 50.1 21.9301C49.9 21.9301 49.8 21.9301 49.6 22.0301C49.5 22.0301 49.5 22.1301 49.6 22.2301C49.9 22.4301 50.4 22.2301 50.7 22.1301C50.9 22.1301 50.8 21.8301 50.6 21.8301Z" fill="#6B5DFF"/>
<path fill-rule="evenodd" clip-rule="evenodd" d="M51.8 19.2301C51.4 19.3301 51 19.3301 50.6 19.3301C50.2 19.3301 49.8 19.2301 49.5 19.3301C49.4 19.3301 49.4 19.5301 49.5 19.5301C50.2 19.9301 51.2 19.7301 51.9 19.4301C52.1 19.4301 52 19.1301 51.8 19.2301Z" fill="#6B5DFF"/>
<path fill-rule="evenodd" clip-rule="evenodd" d="M51.8 18.0301C51.6 18.0301 51.5 18.0301 51.3 18.0301C51.1 18.0301 51 18.0301 50.8 18.1301C50.7 18.1301 50.7 18.2301 50.8 18.3301C51 18.6301 51.5 18.5301 51.8 18.5301C52.1 18.4301 52.1 18.0301 51.8 18.0301Z" fill="#6B5DFF"/>
<path fill-rule="evenodd" clip-rule="evenodd" d="M33.1 31.7301C33.1 34.9301 39.8 36.2301 40.2 32.8301C40.2 32.5301 39.8 32.5301 39.7 32.7301C39.3 34.1301 37.9 34.3301 36.5 34.3301C34.7 34.2301 33.9 32.9301 33.2 31.6301C33.3 31.6301 33.1 31.6301 33.1 31.7301Z" fill="#6B5DFF"/>
<path fill-rule="evenodd" clip-rule="evenodd" d="M39.9 28.1301C38.9 29.1301 37.6 29.6301 36.1 29.3301C34.6 29.0301 34 28.0301 33.1 26.9301C33 26.8301 32.9 26.9301 32.9 27.0301C33.1 28.5301 34.9 29.5301 36.3 29.7301C37.8 30.1301 39.1 29.4301 39.9 28.1301Z" fill="#6B5DFF"/>
<path fill-rule="evenodd" clip-rule="evenodd" d="M39.3 23.9301C38.6 24.3301 38.1 24.7301 37.4 25.0301C36.6 25.3301 35.6 25.0301 34.9 24.7301C34.2 24.4301 33.7 23.9301 33.1 23.4301C32.6 23.0301 32.5 22.3301 32 22.0301H31.9C32.9 23.5301 33.3 24.8301 35.2 25.5301C36.6 26.0301 38.7 25.5301 39.4 24.1301C39.4 24.0301 39.4 23.9301 39.3 23.9301Z" fill="#6B5DFF"/>
<path fill-rule="evenodd" clip-rule="evenodd" d="M37.7 18.2301C37 19.4301 36 20.1301 34.6 20.3301C33.9 20.4301 33.3 20.4301 32.6 20.3301C32.1 20.2301 31.7 19.9301 31.2 19.8301C31.1 19.8301 31 19.9301 31 20.0301C31.6 21.0301 33.7 20.9301 34.7 20.8301C36.1 20.5301 37.4 19.6301 37.8 18.3301C37.9 18.2301 37.8 18.1301 37.7 18.2301Z" fill="#6B5DFF"/>
<path fill-rule="evenodd" clip-rule="evenodd" d="M33.8 36.5301C33.9 37.2301 34.4 37.7301 34.9 38.1301C35.3 38.4301 35.9 38.8301 36.5 38.7301C36.6 38.7301 36.6 38.5301 36.5 38.5301C36 38.2301 35.5 38.1301 35.1 37.7301C34.6 37.3301 34.3 36.9301 33.9 36.4301L33.8 36.5301Z" fill="#6B5DFF"/>
<path fill-rule="evenodd" clip-rule="evenodd" d="M34.1 36.1301C34.6 36.7301 35.6 37.7301 36.5 37.3301C36.6 37.2301 36.6 37.1301 36.5 37.0301C36.2 36.8301 35.8 36.7301 35.5 36.6301C35.1 36.4301 34.6 36.2301 34.3 35.9301C34.1 35.8301 33.9 36.0301 34.1 36.1301Z" fill="#6B5DFF"/>
<path fill-rule="evenodd" clip-rule="evenodd" d="M34.4 35.4301C34.6 35.6301 35 36.0301 35.4 35.8301C35.5 35.8301 35.5 35.7301 35.4 35.6301C35.3 35.5301 35.1 35.4301 35 35.4301C34.8 35.3301 34.7 35.2301 34.6 35.1301C34.4 35.1301 34.3 35.3301 34.4 35.4301Z" fill="#6B5DFF"/>
<path fill-rule="evenodd" clip-rule="evenodd" d="M34.2 32.4301C34.6 32.8301 35.2 33.1301 35.7 32.9301C35.8 32.9301 35.8 32.8301 35.7 32.8301C35.2 32.6301 34.8 32.5301 34.4 32.2301C34.3 32.1301 34.1 32.3301 34.2 32.4301Z" fill="#6B5DFF"/>
<path fill-rule="evenodd" clip-rule="evenodd" d="M34.2 31.4301C34.4 31.6301 34.6 31.7301 34.8 31.9301C35 32.0301 35.2 32.1301 35.4 32.0301C35.6 31.8301 35.2 31.7301 35.1 31.6301C34.9 31.5301 34.7 31.4301 34.5 31.2301C34.3 31.1301 34 31.3301 34.2 31.4301Z" fill="#6B5DFF"/>
<path fill-rule="evenodd" clip-rule="evenodd" d="M34.6 30.8301C34.7 30.9301 34.8 31.0301 34.9 31.0301C35 31.0301 35 31.0301 35 30.9301C35 30.8301 34.8 30.7301 34.8 30.6301C34.7 30.5301 34.5 30.7301 34.6 30.8301Z" fill="#6B5DFF"/>
<path fill-rule="evenodd" clip-rule="evenodd" d="M33.6 27.0301C33.9 27.5301 34.2 27.9301 34.8 28.2301C35.1 28.4301 35.9 28.6301 36.1 28.2301C36.1 28.1301 36.1 28.0301 36 28.0301C35.9 27.9301 35.7 27.9301 35.6 27.9301C35.4 27.9301 35.1 27.8301 34.9 27.7301C34.5 27.5301 34 27.3301 33.6 27.0301C33.6 26.9301 33.5 27.0301 33.6 27.0301Z" fill="#6B5DFF"/>
<path fill-rule="evenodd" clip-rule="evenodd" d="M34 26.5301C34.2 26.7301 34.7 27.0301 35 26.9301C35.1 26.9301 35.1 26.8301 35.1 26.7301C35 26.6301 34.9 26.5301 34.7 26.4301C34.5 26.3301 34.4 26.2301 34.2 26.2301C34 26.1301 33.8 26.4301 34 26.5301Z" fill="#6B5DFF"/>
<path fill-rule="evenodd" clip-rule="evenodd" d="M33.2 23.1301C33.9 23.6301 34.9 24.3301 35.8 23.9301C35.9 23.9301 35.9 23.7301 35.8 23.7301C35.5 23.5301 35 23.5301 34.7 23.4301C34.3 23.3301 33.8 23.1301 33.4 22.9301C33.3 22.8301 33.1 23.0301 33.2 23.1301Z" fill="#6B5DFF"/>
<path fill-rule="evenodd" clip-rule="evenodd" d="M33.3 22.2301C33.6 22.3301 34.1 22.5301 34.4 22.3301C34.5 22.3301 34.5 22.2301 34.4 22.1301C34.3 22.0301 34.1 22.0301 34 22.0301C33.8 22.0301 33.6 22.0301 33.4 21.9301C33.2 21.9301 33.1 22.2301 33.3 22.2301Z" fill="#6B5DFF"/>
<path fill-rule="evenodd" clip-rule="evenodd" d="M32 19.5301C32.7 19.8301 33.7 20.1301 34.4 19.6301C34.5 19.5301 34.5 19.4301 34.4 19.4301C34.1 19.3301 33.7 19.4301 33.4 19.4301C33 19.4301 32.5 19.4301 32.1 19.3301C32 19.2301 31.9 19.4301 32 19.5301Z" fill="#6B5DFF"/>
<path fill-rule="evenodd" clip-rule="evenodd" d="M32.2 18.5301C32.5 18.5301 33 18.6301 33.2 18.3301C33.2 18.2301 33.2 18.2301 33.2 18.1301C33.1 18.0301 32.9 18.0301 32.8 18.0301C32.6 18.0301 32.4 18.0301 32.3 18.0301C31.9 18.1301 31.9 18.5301 32.2 18.5301Z" fill="#6B5DFF"/>
<path fill-rule="evenodd" clip-rule="evenodd" d="M11.5 12.4301L12 15.2301L14.8 15.7301L12 16.2301L11.5 19.1301L11 16.2301L8.10001 15.7301L11 15.2301L11.5 12.4301Z" fill="#6B5DFF"/>
<path fill-rule="evenodd" clip-rule="evenodd" d="M13.2 14.0301L12 15.7301L13.2 17.5301L11.5 16.3301L9.80002 17.5301L11 15.7301L9.80002 14.0301L11.5 15.2301L13.2 14.0301Z" fill="#6B5DFF"/>
<path fill-rule="evenodd" clip-rule="evenodd" d="M70 53.9301L70.5 56.7301L73.3 57.2301L70.5 57.7301L70 60.6301L69.5 57.7301L66.6 57.2301L69.5 56.7301L70 53.9301Z" fill="#6B5DFF"/>
<path fill-rule="evenodd" clip-rule="evenodd" d="M71.7 55.5301L70.5 57.2301L71.7 59.0301L70 57.8301L68.3 59.0301L69.5 57.2301L68.3 55.5301L70 56.7301L71.7 55.5301Z" fill="#6B5DFF"/>
<path fill-rule="evenodd" clip-rule="evenodd" d="M69.5 11.9301L70 14.7301L72.9 15.2301L70 15.7301L69.5 18.5301L69 15.7301L66.2 15.2301L69 14.7301L69.5 11.9301Z" fill="#6B5DFF"/>
<path fill-rule="evenodd" clip-rule="evenodd" d="M71.2 13.5301L70 15.2301L71.2 16.9301L69.5 15.7301L67.8 16.9301L69 15.2301L67.8 13.5301L69.5 14.7301L71.2 13.5301Z" fill="#6B5DFF"/>
</svg>
