<svg width="94" height="127" viewBox="0 0 94 127" fill="none" xmlns="http://www.w3.org/2000/svg">
<path d="M51.5122 107.859C53.7198 108.227 56.0326 106.913 57.9774 105.967C60.2376 104.863 62.7081 104.18 65.1785 103.654C67.1234 103.181 69.1208 102.708 71.0656 102.288C71.5387 102.182 72.0643 102.077 72.5373 101.92C73.1155 101.762 73.7463 101.604 74.3245 101.447C74.9027 101.289 75.8488 101.236 76.427 101.079C81.4731 100.133 86.3614 98.7659 90.9869 95.8749C91.46 95.507 91.9331 95.1391 92.4062 94.7186C92.9843 94.1404 92.669 93.1417 91.828 93.0365C91.7754 93.0365 91.7228 93.0365 91.6703 93.0365C85.4678 92.7212 79.6333 95.9275 73.5886 96.6634C73.0104 96.8211 72.3797 96.9262 71.8015 97.0313C71.2233 97.1364 70.5925 97.2416 70.0143 97.2941C69.4887 97.3993 68.9631 97.5044 68.4374 97.5569C65.8093 97.9774 63.1811 98.0826 60.4479 98.0826C56.6633 98.03 52.8262 97.9249 49.0943 97.2941C47.4123 96.9788 43.5226 95.8224 45.7302 93.5622C47.9379 91.2494 50.9865 89.5674 53.5621 87.7277C54.4031 87.0969 55.2441 86.5187 56.0851 85.888C56.7685 85.3623 57.5043 84.9418 57.7146 84.0483C57.8723 83.4701 57.9248 82.6291 57.5569 82.1035C57.1364 81.5253 56.5582 81.6829 55.9275 81.7355C53.457 82.0509 51.2494 83.2598 49.0417 84.3111C46.6764 85.4149 44.2059 86.1508 41.6829 86.9392C39.6855 87.57 30.6972 89.4097 30.6972 89.4097C21.6038 90.8814 7.14902 107.281 2.2081 110.961C1.57734 111.434 1.41965 112.327 1.84016 113.01C4.36318 116.9 7.35927 120.317 9.93485 124.049C10.1451 124.364 10.4079 124.679 10.6182 124.995C11.2489 125.836 12.5104 125.941 13.2463 125.205C13.6143 124.837 13.9296 124.469 14.2976 124.101C19.1859 119.318 23.4435 111.066 31.0652 111.539C32.0639 111.696 33.0626 111.854 34.0613 112.064C37.0048 112.59 39.9483 113.063 43.1546 113.694C46.7815 114.325 50.4083 114.482 53.6672 112.8C59.8171 110.435 65.8093 104.968 71.9592 102.13" stroke="#F45279" stroke-width="2" stroke-miterlimit="10" stroke-linecap="round" stroke-linejoin="round"/>
<path d="M80.8949 94.9286C81.8411 93.9299 85.0474 92.9838 84.3641 91.1966C84.0487 90.7235 83.3128 90.3031 82.7346 90.2505C79.2129 90.4607 70.5926 95.4542 70.0144 95.6119C69.3311 95.9273 68.6478 96.2427 67.9644 96.558C67.2811 96.8734 66.1247 97.5042 65.4414 97.8721" stroke="#F45279" stroke-width="2" stroke-miterlimit="10" stroke-linecap="round" stroke-linejoin="round"/>
<path d="M79.949 90.7763C80.4746 88.8841 78.5298 88.0956 76.9003 88.5687C75.4286 88.9892 74.0619 89.7776 72.6427 90.4609C72.1697 90.7237 71.6966 90.9866 71.2235 91.1968C70.7505 91.4071 70.2248 91.6173 69.6992 91.775C69.2787 91.9327 68.9108 92.0378 68.4903 92.1955C68.1223 92.3532 67.7018 92.4583 67.3339 92.616C64.916 93.6147 62.6032 94.666 60.2904 95.8224C58.8187 96.6108 57.1892 97.0839 55.77 97.8723" stroke="#F45279" stroke-width="2" stroke-miterlimit="10" stroke-linecap="round" stroke-linejoin="round"/>
<path d="M70.3296 91.5122C70.3296 91.1442 69.9617 90.8288 69.4886 90.566C68.4899 90.0404 65.8618 91.2494 64.7054 91.9852C62.8131 93.1942 53.1415 97.3467 52.6685 97.7672" stroke="#F45279" stroke-width="2" stroke-miterlimit="10" stroke-linecap="round" stroke-linejoin="round"/>
<path d="M43.6281 22.6543C43.6281 22.6543 25.3362 38.1078 32.1168 49.4614C35.6386 55.401 41.841 59.1856 47.6755 62.497C54.2984 66.1764 62.1303 69.3828 64.6533 77.2146C67.1763 85.0465 62.9188 91.8797 58.5035 97.977" stroke="#F45279" stroke-width="2" stroke-miterlimit="10" stroke-linecap="round" stroke-linejoin="round"/>
<path d="M32.1692 30.1183C32.1692 31.8003 30.8026 33.2195 29.068 33.2195C27.3334 33.2195 25.9668 31.8529 25.9668 30.1183C25.9668 28.4363 27.3334 27.0171 29.068 27.0171C30.8026 27.0171 32.1692 28.3837 32.1692 30.1183Z" stroke="#F45279" stroke-width="2" stroke-miterlimit="10" stroke-linecap="round" stroke-linejoin="round"/>
<path d="M40.1585 41.5768C40.1585 43.2588 38.7919 44.678 37.0573 44.678C35.3227 44.678 33.9561 43.3114 33.9561 41.5768C33.9561 39.8948 35.3227 38.4756 37.0573 38.4756C38.7919 38.4756 40.1585 39.8422 40.1585 41.5768Z" stroke="#F45279" stroke-width="2" stroke-miterlimit="10" stroke-linecap="round" stroke-linejoin="round"/>
<path d="M30.5921 54.9284C30.5921 56.6104 29.2254 58.0296 27.4909 58.0296C25.7563 58.0296 24.3896 56.663 24.3896 54.9284C24.3896 53.2464 25.7563 51.8271 27.4909 51.8271C29.2254 51.8271 30.5921 53.2464 30.5921 54.9284Z" stroke="#F45279" stroke-width="2" stroke-miterlimit="10" stroke-linecap="round" stroke-linejoin="round"/>
<path d="M52.721 56.9781C52.721 58.6602 51.3543 60.0794 49.6198 60.0794C47.9378 60.0794 46.5186 58.7127 46.5186 56.9781C46.5186 55.2961 47.8852 53.877 49.6198 53.877C51.3018 53.877 52.721 55.2436 52.721 56.9781Z" stroke="#F45279" stroke-width="2" stroke-miterlimit="10" stroke-linecap="round" stroke-linejoin="round"/>
<path d="M55.7698 73.7985C55.7698 75.4805 54.4032 76.8997 52.6686 76.8997C50.9866 76.8997 49.5674 75.533 49.5674 73.7985C49.5674 72.1164 50.934 70.6973 52.6686 70.6973C54.4032 70.7498 55.7698 72.1164 55.7698 73.7985Z" stroke="#F45279" stroke-width="2" stroke-miterlimit="10" stroke-linecap="round" stroke-linejoin="round"/>
<path d="M74.9554 80.0006C74.9554 81.6827 73.5887 83.1018 71.8541 83.1018C70.1721 83.1018 68.7529 81.7352 68.7529 80.0006C68.7529 78.3186 70.1196 76.8994 71.8541 76.8994C73.5887 76.8994 74.9554 78.2661 74.9554 80.0006Z" stroke="#F45279" stroke-width="2" stroke-miterlimit="10" stroke-linecap="round" stroke-linejoin="round"/>
<path d="M61.3637 36.2856C62.0879 36.0173 62.702 35.5244 63.2144 34.9263C63.9911 34.0197 64.5695 32.8342 64.9961 31.6853C65.2316 31.0513 65.4242 30.4189 65.5799 29.8355C65.7041 30.4127 65.862 31.0371 66.0616 31.6631C66.428 32.8128 66.9454 34.0027 67.6784 34.9143C68.1752 35.5322 68.7856 36.0379 69.523 36.3033C69.0393 36.7289 68.4113 37.3427 67.7829 38.1314C66.9619 39.162 66.1322 40.502 65.6297 42.1179C65.0788 40.4914 64.167 39.1458 63.2684 38.1145C62.5798 37.3243 61.892 36.7102 61.3637 36.2856Z" fill="#222221" stroke="#F45279"/>
<path d="M48.995 7.02484C49.4766 6.8027 49.8891 6.45315 50.2367 6.04557C50.8329 5.34635 51.2748 4.43724 51.5995 3.56468C51.7206 3.23923 51.8269 2.91448 51.9199 2.60151C51.9938 2.90121 52.0796 3.21145 52.1788 3.52258C52.4565 4.39291 52.8504 5.30406 53.412 6.01021C53.7527 6.43859 54.167 6.80465 54.6624 7.03231C54.319 7.34317 53.903 7.76142 53.4868 8.28169C52.9199 8.99039 52.3464 9.89649 51.9594 10.9836C51.5332 9.89946 50.9037 8.99324 50.2854 8.28494C49.8279 7.76084 49.371 7.33852 48.995 7.02484Z" fill="#F45279" stroke="#F45279"/>
<path d="M1.23183 27.1924C1.95604 26.924 2.57015 26.4311 3.08259 25.833C3.85925 24.9265 4.43767 23.7409 4.8643 22.592C5.09972 21.9581 5.29239 21.3257 5.44802 20.7423C5.57228 21.3194 5.73021 21.9438 5.92972 22.5698C6.29615 23.7195 6.81355 24.9095 7.54653 25.821C8.04337 26.4389 8.65372 26.9446 9.3912 27.21C8.90749 27.6356 8.27946 28.2494 7.65107 29.0382C6.83001 30.0688 6.00031 31.4087 5.49783 33.0246C4.94697 31.3982 4.03517 30.0525 3.13652 29.0212C2.44793 28.231 1.76011 27.617 1.23183 27.1924Z" fill="#F45279" stroke="#F45279"/>
<path d="M16.5805 75.1298C17.3047 74.8615 17.9188 74.3686 18.4312 73.7705C19.2079 72.8639 19.7863 71.6784 20.2129 70.5295C20.4484 69.8956 20.641 69.2631 20.7967 68.6798C20.9209 69.2569 21.0788 69.8813 21.2784 70.5073C21.6448 71.657 22.1622 72.8469 22.8952 73.7585C23.392 74.3764 24.0024 74.8821 24.7398 75.1475C24.2561 75.5731 23.6281 76.1869 22.9997 76.9756C22.1786 78.0062 21.3489 79.3462 20.8465 80.9621C20.2956 79.3357 19.3838 77.99 18.4852 76.9587C17.7966 76.1685 17.1087 75.5544 16.5805 75.1298Z" fill="#F45279" stroke="#F45279"/>
<path d="M61.3637 36.2856C62.0879 36.0173 62.702 35.5244 63.2144 34.9263C63.9911 34.0197 64.5695 32.8342 64.9961 31.6853C65.2316 31.0513 65.4242 30.4189 65.5799 29.8355C65.7041 30.4127 65.862 31.0371 66.0616 31.6631C66.428 32.8128 66.9454 34.0027 67.6784 34.9143C68.1752 35.5322 68.7856 36.0379 69.523 36.3033C69.0393 36.7289 68.4113 37.3427 67.7829 38.1314C66.9619 39.162 66.1322 40.502 65.6297 42.1179C65.0788 40.4914 64.167 39.1458 63.2684 38.1145C62.5798 37.3243 61.892 36.7102 61.3637 36.2856Z" fill="#F45279" stroke="#F45279"/>
</svg>
