<svg width="48" height="123" viewBox="0 0 48 123" fill="none" xmlns="http://www.w3.org/2000/svg">
<path d="M20.2163 54.3577C22.0597 47.7485 25.2519 41.1842 31.1418 37.3176C31.3666 37.1377 31.6813 37.0928 31.9511 37.0928C31.9511 37.0928 31.9511 37.0928 31.996 37.0928C32.7604 37.1377 33.3449 37.8122 33.21 38.5765C32.8503 41.2292 31.1868 44.0617 29.2085 48.333" stroke="#F45279" stroke-width="2" stroke-miterlimit="10" stroke-linecap="round" stroke-linejoin="round"/>
<path d="M29.3433 48.7375C31.5014 47.4786 34.9634 42.0384 38.3354 43.4322C39.954 44.1066 38.83 45.905 38.2006 46.8942C35.8176 49.9515 34.1541 50.9406 31.1417 54.8073" stroke="#F45279" stroke-width="2" stroke-miterlimit="10" stroke-linecap="round" stroke-linejoin="round"/>
<path d="M31.5913 56.6958C33.2099 55.0772 35.0083 52.6943 37.2564 52.0199C40.9881 50.8959 37.2564 57.2803 36.6719 58.3144C35.368 60.4725 33.7944 62.5407 33.2099 65.0585" stroke="#F45279" stroke-width="2" stroke-miterlimit="10" stroke-linecap="round" stroke-linejoin="round"/>
<path d="M23.5431 63.6647C21.6997 60.3376 20.6656 55.6167 19.4067 51.5702C18.9121 49.0974 20.1261 46.7145 20.8454 44.0168C21.1602 43.5222 25.6113 32.6867 26.0609 27.5162C26.1059 27.0216 26.1059 26.4821 25.971 26.0325C25.7911 25.403 25.0268 25.0883 24.4423 25.403C23.9028 25.6728 23.3633 26.1674 22.9136 26.8867C17.6532 34.7998 14.6409 43.1625 12.123 51.795C14.0114 67.2616 18.3276 82.2335 20.216 97.745C21.385 105.658 19.1369 113.391 15.9447 121.08H37.1213C36.9414 117.753 37.0313 114.425 37.3461 111.098C37.5709 108.715 38.2003 106.422 39.2794 104.309C43.0111 96.9807 41.7972 86.6846 39.3244 79.356C37.9755 75.4444 35.098 72.2073 33.8391 68.2507C32.5353 64.3391 32.4004 60.1578 31.4562 56.1562C30.8717 53.7284 30.2423 51.3454 29.433 48.9625C29.1632 48.1082 27.9043 42.9377 27.05 42.7129C26.4655 42.5331 25.7911 42.7579 25.4314 43.2974C24.2625 44.916 23.9927 47.1641 23.7229 49.4121C23.678 57.55 23.1384 65.3732 24.3074 73.2863C24.3973 75.8491 24.4873 78.4119 23.8578 80.6149" stroke="#F45279" stroke-width="2" stroke-miterlimit="10" stroke-linecap="round" stroke-linejoin="round"/>
<path d="M25.5215 20.772C29.271 20.772 32.3106 17.7324 32.3106 13.9829C32.3106 10.2334 29.271 7.19385 25.5215 7.19385C21.772 7.19385 18.7324 10.2334 18.7324 13.9829C18.7324 17.7324 21.772 20.772 25.5215 20.772Z" stroke="#F45279" stroke-width="2" stroke-miterlimit="10" stroke-linecap="round" stroke-linejoin="round"/>
<path d="M31.0964 10.0714C36.0421 8.85745 40.2235 8.31792 40.4933 9.17218C40.8979 10.3861 34.5135 13.4884 26.2407 16.1861C17.9679 18.8837 10.999 20.0527 10.5943 18.8837C10.3245 18.0295 13.9214 16.0062 18.7322 14.0279" stroke="#F45279" stroke-width="2" stroke-miterlimit="10" stroke-linecap="round" stroke-linejoin="round"/>
<path d="M40.9821 35.378L40.9921 35.368L41.0015 35.3574L41.5696 34.7211L41.6126 35.4946C41.6175 35.6311 41.6702 35.7466 41.7116 35.8156C41.7376 35.859 41.7792 35.9179 41.8417 35.972C41.8836 36.0084 41.9608 36.0645 42.0689 36.0922L43.3071 36.5325L42.186 37.1491L42.1237 37.1834L42.0734 37.2336C42.0722 37.2348 42.0709 37.2361 42.0694 37.2376C42.0503 37.2566 42.0044 37.3022 41.9651 37.3546C41.9302 37.4012 41.8527 37.5136 41.8391 37.6733L41.6978 38.7333L41.0114 37.5982L40.98 37.5463L40.9371 37.5034C40.8663 37.4326 40.7674 37.3649 40.6517 37.3264C40.571 37.2995 40.3633 37.2525 40.1658 37.3684L39.0636 37.8047L39.7291 36.759C39.8265 36.633 39.8584 36.4882 39.8584 36.3733C39.8584 36.261 39.8279 36.1201 39.7357 35.9963L39.3245 35.3037L40.3274 35.5545L40.3871 35.5694H40.4487C40.4521 35.5694 40.4566 35.5695 40.462 35.5696C40.535 35.5714 40.7825 35.5775 40.9821 35.378Z" fill="#F45279" stroke="#F45279"/>
<path d="M42.6006 18.3379L42.6083 18.3302L42.6156 18.3222L43.6208 17.2256L43.6805 18.6273C43.6829 18.7616 43.7219 18.9057 43.8236 19.0329C43.9145 19.1464 44.0263 19.2082 44.0916 19.2408L44.1176 19.2538L44.145 19.2637L46.1281 19.9818L44.3929 20.9161L44.3283 20.9509L44.2764 21.0028C44.2752 21.004 44.2739 21.0053 44.2724 21.0068C44.2533 21.0258 44.2074 21.0714 44.1681 21.1239C44.1333 21.1703 44.0563 21.282 44.0422 21.4408L43.7923 23.2529L42.6815 21.4233C42.5847 21.2479 42.4256 21.1474 42.2871 21.1012C42.1496 21.0554 41.9636 21.0402 41.7821 21.1206L39.8005 21.8877L40.9436 20.0777C41.0448 19.9464 41.0722 19.7976 41.0722 19.6872C41.0722 19.5567 41.0363 19.4355 40.9857 19.3343L40.9775 19.3179L40.9681 19.3022L40.1991 18.0102L41.7833 18.4063C41.8705 18.4544 41.9717 18.4945 42.0838 18.5086C42.2458 18.5288 42.4456 18.4928 42.6006 18.3379Z" fill="#F45279" stroke="#F45279"/>
<path d="M2.18681 31.2029L2.63403 31.4265L2.63407 31.4264L2.63417 31.4262L2.63437 31.4258L2.63482 31.4249L2.63595 31.4226L2.63898 31.4164L2.64778 31.3978C2.65452 31.3832 2.66382 31.3623 2.67351 31.3381C2.68277 31.315 2.69496 31.2824 2.7055 31.2455C2.7124 31.2214 2.7258 31.1715 2.73028 31.1092L2.87442 29.812L3.6892 30.8014L3.70455 30.8201L3.72161 30.8371C3.8392 30.9547 4.13193 31.1377 4.47151 30.9993L6.24946 30.4821L5.48937 32.0656C5.41123 32.183 5.38483 32.3123 5.38483 32.4169C5.38483 32.5257 5.41344 32.6615 5.49926 32.7825L6.22151 34.1159L4.55111 33.4C4.38082 33.3208 4.18938 33.3173 4.01875 33.3904C3.86447 33.4565 3.7555 33.572 3.68809 33.6932L2.71621 35.2246L2.59661 33.3409C2.59303 33.2085 2.55365 33.067 2.45358 32.9419C2.36274 32.8284 2.25087 32.7666 2.18561 32.734L2.17444 32.7284L2.163 32.7234L0.989707 32.2083L2.36901 31.6686L2.54799 31.5985L2.63398 31.4266L2.18681 31.2029Z" fill="#F45279" stroke="#F45279"/>
<path d="M10.6741 1.57192L11.2862 0.982458L11.2639 1.78454L11.2637 1.78454V1.79843C11.2637 1.94387 11.3196 2.0676 11.3631 2.14C11.3891 2.18335 11.4307 2.24229 11.4932 2.29642C11.5303 2.32855 11.5949 2.37615 11.6842 2.40592L12.9308 2.98577L11.7566 3.51697C11.4608 3.58495 11.3378 3.86288 11.3134 4.06289L11.1091 5.06165L10.5494 3.91679L10.5494 3.91678L10.5474 3.91278C10.359 3.53596 9.96831 3.54534 9.92373 3.54641C9.92216 3.54645 9.92103 3.54647 9.92034 3.54647H9.84552L9.77398 3.56837L8.52914 3.94945L9.32024 2.87763C9.42969 2.74742 9.46491 2.5936 9.46491 2.47284C9.46491 2.36793 9.43833 2.23806 9.35959 2.12041L9.01474 1.40915L9.98703 1.73324L10.064 1.7589H10.1451C10.1486 1.7589 10.153 1.75901 10.1584 1.75914C10.231 1.76092 10.4753 1.76691 10.6741 1.57192Z" fill="#F45279" stroke="#F45279"/>
</svg>
