<svg width="90" height="98" viewBox="0 0 90 98" fill="none" xmlns="http://www.w3.org/2000/svg">
<path d="M7.44914 51.099C6.59201 49.2133 7.19199 46.8562 7.49199 44.9277C7.87769 42.6563 7.87771 40.2992 7.74914 37.985C7.66343 36.1422 7.5777 34.2993 7.49199 32.4565C7.49199 31.9851 7.44914 31.5137 7.44914 31.0851C7.44914 30.528 7.44915 29.928 7.40629 29.3709C7.36344 28.8137 7.23487 27.9995 7.19201 27.4423C6.8063 22.7281 6.72057 18.0568 8.13483 13.2569C8.30626 12.7426 8.52054 12.2283 8.77768 11.7141C9.12053 11.0283 10.1062 11.0712 10.4062 11.7998C10.4062 11.8426 10.4491 11.8855 10.4491 11.9712C12.2919 17.3711 10.8776 23.371 11.7348 28.8994C11.7776 29.4566 11.8205 30.0137 11.8633 30.5708C11.9062 31.128 11.9919 31.6851 12.0776 32.2422C12.1205 32.7137 12.1633 33.2279 12.2491 33.6994C12.549 36.1422 13.0633 38.4993 13.7919 40.8992C14.7776 44.242 15.8061 47.6277 17.3489 50.7562C18.0346 52.1704 20.0489 55.3418 21.506 52.7704C22.9631 50.2419 23.7345 47.1134 24.7202 44.3706C25.0631 43.4706 25.4059 42.5706 25.7488 41.6706C26.0488 40.9421 26.2202 40.1707 26.9488 39.7421C27.4202 39.4421 28.1487 39.185 28.7059 39.3992C29.3059 39.6564 29.3487 40.1707 29.4344 40.7706C29.7773 43.042 29.263 45.2706 28.8773 47.4991C28.4487 49.8562 28.4488 52.2561 28.4059 54.6561C28.363 56.5846 28.963 64.9845 28.963 64.9845C30.0344 74.2414 17.9061 93.5696 16.6633 96.1839C16.5347 96.4839 16.3204 96.6982 16.0204 96.6124C11.6491 95.3268 7.66341 93.3554 3.42063 91.984L1.32069 91.1697C1.02069 91.0411 0.892125 90.6983 1.10641 90.3983C2.99209 87.6555 11.4348 76.1271 9.29196 70.0844C8.90625 69.2273 8.47769 68.413 8.09198 67.5559C6.89201 65.0702 5.73488 62.5845 4.36348 59.9274C2.90636 56.8846 1.87782 53.7133 2.52066 50.4133C3.07779 44.3706 6.4206 37.7278 7.40629 31.5565" stroke="#F45279" stroke-width="2" stroke-miterlimit="10" stroke-linecap="round" stroke-linejoin="round"/>
<path d="M11.5635 21.8281C12.2063 20.7567 12.2492 17.671 13.9634 17.8424C14.4777 18.0139 15.0348 18.5281 15.2063 19.0853C15.892 22.2566 13.6206 31.1279 13.6206 31.685C13.492 32.3707 13.4063 33.0564 13.2777 33.7421C13.1492 34.4278 12.9349 35.6278 12.7635 36.3135" stroke="#F45279" stroke-width="2" stroke-miterlimit="10" stroke-linecap="round" stroke-linejoin="round"/>
<path d="M15.5062 21.6138C17.049 20.671 18.2061 22.171 18.2061 23.7567C18.2061 25.1709 17.8633 26.5852 17.6061 27.9994C17.4776 28.4709 17.3918 28.9851 17.3061 29.4566C17.2204 29.928 17.1776 30.4423 17.1776 30.9137C17.1776 31.2994 17.1347 31.6851 17.1347 32.0708C17.0918 32.4565 17.0919 32.8422 17.049 33.1851C16.749 35.5422 16.4061 37.8993 15.9347 40.2135C15.6347 41.7135 15.5919 43.2563 15.249 44.7563" stroke="#F45279" stroke-width="2" stroke-miterlimit="10" stroke-linecap="round" stroke-linejoin="round"/>
<path d="M17.2635 30.3136C17.6063 30.185 17.9492 30.485 18.292 30.8279C18.9777 31.5564 18.592 34.2135 18.2063 35.4135C17.6063 37.3849 16.3635 46.9847 16.0635 47.499" stroke="#F45279" stroke-width="2" stroke-miterlimit="10" stroke-linecap="round" stroke-linejoin="round"/>
<path d="M49.834 36.3564L53.0053 44.3277" stroke="#F45279" stroke-width="2" stroke-miterlimit="10" stroke-linecap="round"/>
<path d="M40.6628 35.9279L37.5771 44.3277" stroke="#F45279" stroke-width="2" stroke-miterlimit="10" stroke-linecap="round"/>
<path d="M44.8625 9.87126L44.5625 1" stroke="#F45279" stroke-width="2" stroke-miterlimit="10" stroke-linecap="round"/>
<path d="M53.6055 12.9141L59.2196 5.88562" stroke="#F45279" stroke-width="2" stroke-miterlimit="10" stroke-linecap="round"/>
<path d="M58.791 20.7139L67.1909 19.0853" stroke="#F45279" stroke-width="2" stroke-miterlimit="10" stroke-linecap="round"/>
<path d="M57.4199 30.1852L64.7484 34.2994" stroke="#F45279" stroke-width="2" stroke-miterlimit="10" stroke-linecap="round"/>
<path d="M34.2343 29.6281L25.8345 34.3851" stroke="#F45279" stroke-width="2" stroke-miterlimit="10" stroke-linecap="round"/>
<path d="M32.8631 20.971L23.3062 19.171" stroke="#F45279" stroke-width="2" stroke-miterlimit="10" stroke-linecap="round"/>
<path d="M37.3629 13.514L31.2773 5.92847" stroke="#F45279" stroke-width="2" stroke-miterlimit="10" stroke-linecap="round"/>
<path d="M48.1626 12.8712L48.2483 12.4426" stroke="#F45279" stroke-width="2" stroke-miterlimit="10" stroke-linecap="round"/>
<path d="M48.5054 11.5855L49.8768 6.95703" stroke="#F45279" stroke-width="2" stroke-miterlimit="10" stroke-linecap="round" stroke-dasharray="2.05 2.05"/>
<path d="M49.9629 6.52842L50.0915 6.09985" stroke="#F45279" stroke-width="2" stroke-miterlimit="10" stroke-linecap="round"/>
<path d="M54.0342 17.3282L54.4199 17.071" stroke="#F45279" stroke-width="2" stroke-miterlimit="10" stroke-linecap="round"/>
<path d="M55.1484 16.5569L59.2627 13.8569" stroke="#F45279" stroke-width="2" stroke-miterlimit="10" stroke-linecap="round" stroke-dasharray="2.08 2.08"/>
<path d="M59.6055 13.5998L59.9912 13.3855" stroke="#F45279" stroke-width="2" stroke-miterlimit="10" stroke-linecap="round"/>
<path d="M56.0483 24.4852L56.5197 24.5709" stroke="#F45279" stroke-width="2" stroke-miterlimit="10" stroke-linecap="round"/>
<path d="M57.334 24.6566L61.9625 25.2137" stroke="#F45279" stroke-width="2" stroke-miterlimit="10" stroke-linecap="round" stroke-dasharray="1.97 1.97"/>
<path d="M62.3906 25.2567L62.8192 25.3424" stroke="#F45279" stroke-width="2" stroke-miterlimit="10" stroke-linecap="round"/>
<path d="M52.7056 31.3423L53.0056 31.6851" stroke="#F45279" stroke-width="2" stroke-miterlimit="10" stroke-linecap="round"/>
<path d="M53.5625 32.285L56.6482 35.6278" stroke="#F45279" stroke-width="2" stroke-miterlimit="10" stroke-linecap="round" stroke-dasharray="1.92 1.92"/>
<path d="M56.9053 35.9279L57.2481 36.2707" stroke="#F45279" stroke-width="2" stroke-miterlimit="10" stroke-linecap="round"/>
<path d="M45.4199 34.1708L45.4628 34.5993" stroke="#F45279" stroke-width="2" stroke-miterlimit="10" stroke-linecap="round"/>
<path d="M45.5059 35.4564L45.8487 40.0849" stroke="#F45279" stroke-width="2" stroke-miterlimit="10" stroke-linecap="round" stroke-dasharray="1.97 1.97"/>
<path d="M45.8486 40.5135L45.8915 40.985" stroke="#F45279" stroke-width="2" stroke-miterlimit="10" stroke-linecap="round"/>
<path d="M38.6057 31.5994L38.3057 31.9422" stroke="#F45279" stroke-width="2" stroke-miterlimit="10" stroke-linecap="round"/>
<path d="M37.7485 32.6279L34.7485 36.485" stroke="#F45279" stroke-width="2" stroke-miterlimit="10" stroke-linecap="round" stroke-dasharray="2.08 2.08"/>
<path d="M34.4914 36.8707L34.1914 37.2136" stroke="#F45279" stroke-width="2" stroke-miterlimit="10" stroke-linecap="round"/>
<path d="M35.2629 25.2139L34.7915 25.2996" stroke="#F45279" stroke-width="2" stroke-miterlimit="10" stroke-linecap="round"/>
<path d="M33.8486 25.5138L28.6201 26.5852" stroke="#F45279" stroke-width="2" stroke-miterlimit="10" stroke-linecap="round" stroke-dasharray="2.26 2.26"/>
<path d="M28.1488 26.6709L27.7202 26.7566" stroke="#F45279" stroke-width="2" stroke-miterlimit="10" stroke-linecap="round"/>
<path d="M36.3344 18.3567L35.9487 18.1425" stroke="#F45279" stroke-width="2" stroke-miterlimit="10" stroke-linecap="round"/>
<path d="M35.0916 17.6711L30.3774 15.0997" stroke="#F45279" stroke-width="2" stroke-miterlimit="10" stroke-linecap="round" stroke-dasharray="2.28 2.28"/>
<path d="M29.9487 14.8426L29.563 14.6283" stroke="#F45279" stroke-width="2" stroke-miterlimit="10" stroke-linecap="round"/>
<path d="M41.563 13.7712L41.3916 13.3427" stroke="#F45279" stroke-width="2" stroke-miterlimit="10" stroke-linecap="round"/>
<path d="M41.0488 12.4427L39.1631 7.42847" stroke="#F45279" stroke-width="2" stroke-miterlimit="10" stroke-linecap="round" stroke-dasharray="2.27 2.27"/>
<path d="M38.9917 6.99985L38.8203 6.57129" stroke="#F45279" stroke-width="2" stroke-miterlimit="10" stroke-linecap="round"/>
<path d="M83.0476 51.099C83.9047 49.2133 83.3047 46.8562 83.0047 44.9277C82.619 42.6563 82.619 40.2992 82.7475 37.985C82.8332 36.1422 82.919 34.2993 83.0047 32.4565C83.0047 31.9851 83.0476 31.5137 83.0476 31.0851C83.0476 30.528 83.0476 29.928 83.0904 29.3709C83.1333 28.8137 83.2618 27.9995 83.3047 27.4423C83.6904 22.7281 83.7761 18.0568 82.3619 13.2569C82.1904 12.7426 81.9762 12.2283 81.719 11.7141C81.3762 11.0283 80.3905 11.0712 80.0905 11.7998C80.0905 11.8426 80.0476 11.8855 80.0476 11.9712C78.2048 17.3711 79.6191 23.371 78.7619 28.8994C78.7191 29.4566 78.6762 30.0137 78.6333 30.5708C78.5905 31.128 78.5048 31.6851 78.4191 32.2422C78.3762 32.7137 78.3333 33.2279 78.2476 33.6994C77.9476 36.1422 77.4334 38.4993 76.7048 40.8992C75.7191 44.242 74.6906 47.6277 73.1478 50.7562C72.4621 52.1704 70.4478 55.3418 68.9907 52.7704C67.5335 50.2419 66.7621 47.1134 65.7764 44.3706C65.4336 43.4706 65.0908 42.5706 64.7479 41.6706C64.4479 40.9421 64.2765 40.1707 63.5479 39.7421C63.0765 39.4421 62.3479 39.185 61.7908 39.3992C61.1908 39.6564 61.148 40.1707 61.0622 40.7707C60.7194 43.042 61.2337 45.2706 61.6194 47.4991C62.048 49.8562 62.0479 52.2561 62.0908 54.6561C62.1337 56.5846 61.5337 64.9845 61.5337 64.9845C60.548 73.3843 71.4763 90.3126 73.4906 95.5839C73.7477 96.2696 74.5191 96.6125 75.2477 96.3982C79.1476 95.1553 85.1903 92.7982 88.1046 91.5983C88.9617 91.2554 89.2617 90.2269 88.7474 89.4983C86.0903 85.6841 79.2762 75.6129 81.2047 70.1272C81.5904 69.2701 82.019 68.4558 82.4047 67.5987C83.6047 65.1131 84.7618 62.6274 86.1332 59.9703C87.5903 56.9275 88.6189 53.7561 87.976 50.4562C87.4189 44.4134 84.0761 37.7707 83.0904 31.5994" stroke="#F45279" stroke-width="2" stroke-miterlimit="10" stroke-linecap="round" stroke-linejoin="round"/>
<path d="M78.9764 21.8281C78.3335 20.7567 78.2907 17.671 76.5764 17.8424C76.0622 18.0139 75.505 18.5281 75.3336 19.0853C74.6479 22.2566 76.9192 31.1279 76.9192 31.685C77.0478 32.3707 77.1336 33.0564 77.2621 33.7421C77.3907 34.4278 77.605 35.6278 77.7764 36.3135" stroke="#F45279" stroke-width="2" stroke-miterlimit="10" stroke-linecap="round" stroke-linejoin="round"/>
<path d="M75.0334 21.6138C73.4906 20.671 72.3335 22.171 72.3335 23.7567C72.3335 25.1709 72.6764 26.5852 72.9335 27.9994C73.0621 28.4709 73.1478 28.9851 73.2335 29.4566C73.3192 29.928 73.3621 30.4423 73.3621 30.9137C73.3621 31.2994 73.4049 31.6851 73.4049 32.0708C73.4478 32.4565 73.4477 32.8422 73.4906 33.1851C73.7906 35.5422 74.1334 37.8993 74.6049 40.2135C74.9048 41.7135 74.9477 43.2563 75.2906 44.7563" stroke="#F45279" stroke-width="2" stroke-miterlimit="10" stroke-linecap="round" stroke-linejoin="round"/>
<path d="M73.2763 30.3136C72.9334 30.185 72.5906 30.485 72.2477 30.8279C71.562 31.5564 71.9478 34.2135 72.3335 35.4135C72.9335 37.3849 74.1763 46.9847 74.4763 47.499" stroke="#F45279" stroke-width="2" stroke-miterlimit="10" stroke-linecap="round" stroke-linejoin="round"/>
</svg>
