<svg width="80" height="81" viewBox="0 0 80 81" fill="none" xmlns="http://www.w3.org/2000/svg">
<path fill-rule="evenodd" clip-rule="evenodd" d="M53.05 46.7392C53.05 46.7392 58.05 50.8392 62.45 50.0392C66.85 49.2392 73.45 41.7392 73.45 41.7392C73.45 41.7392 71.65 42.4392 69.75 41.9392C67.95 41.4392 62.55 38.7392 59.25 39.0392C56.05 39.5392 51.75 44.5392 53.05 46.7392Z" fill="#F0F2FB"/>
<path fill-rule="evenodd" clip-rule="evenodd" d="M53.55 46.3392C54.15 46.8392 58.55 50.1392 62.45 49.4392C65.55 48.8392 69.75 44.8392 71.85 42.7392C71.25 42.8392 70.45 42.7392 69.75 42.5392C69.25 42.4392 68.55 42.1392 67.65 41.7392C65.25 40.8392 61.75 39.4392 59.45 39.6392C58.85 39.7392 58.15 40.0392 57.45 40.4392C56.35 41.1392 55.35 42.1392 54.55 43.1392C53.85 44.1392 53.45 45.1392 53.45 45.8392C53.45 46.1392 53.45 46.2392 53.55 46.3392ZM62.55 50.6392C57.85 51.5392 52.65 47.2392 52.65 47.2392L52.55 47.1392C52.35 46.8392 52.25 46.5392 52.25 46.2392C52.15 45.2392 52.65 43.9392 53.55 42.7392C54.35 41.5392 55.55 40.4392 56.75 39.7392C57.55 39.2392 58.45 38.8392 59.25 38.8392C61.85 38.5392 65.45 40.0392 67.95 40.9392C68.75 41.2392 69.45 41.5392 69.95 41.6392C71.55 42.1392 73.25 41.4392 73.25 41.4392C73.45 41.3392 73.65 41.4392 73.85 41.5392C74.05 41.7392 74.15 42.1392 73.85 42.3392C73.85 42.2392 67.15 49.7392 62.55 50.6392Z" fill="#6B5DFF"/>
<path fill-rule="evenodd" clip-rule="evenodd" d="M37.05 29.8392C37.05 29.8392 42.05 29.3392 44.05 29.2392C45.95 29.1392 52.55 30.7392 53.95 34.0392C55.35 37.2392 56.35 50.7392 56.35 53.3392C56.35 55.9392 49.95 62.6392 49.65 65.1392C49.35 67.6392 49.05 72.9392 46.85 74.2392C44.55 75.5392 44.15 78.9392 41.85 79.7392C39.55 80.5392 37.05 79.8392 37.05 79.8392V29.8392Z" fill="#F0F2FB"/>
<path fill-rule="evenodd" clip-rule="evenodd" d="M36.95 29.3392C36.95 29.3392 41.95 28.8392 43.95 28.7392C45.15 28.6392 48.15 29.2392 50.55 30.4392C52.25 31.2392 53.75 32.4392 54.35 33.8392C54.95 35.1392 55.45 38.0392 55.75 41.2392C56.35 46.1392 56.75 51.8392 56.75 53.4392C56.75 55.0392 54.95 57.5392 53.15 60.0392C51.65 62.1392 50.15 64.2392 50.05 65.2392C50.05 65.5392 49.95 65.9392 49.95 66.3392C49.65 69.1392 49.15 73.4392 46.95 74.7392C45.95 75.2392 45.35 76.3392 44.75 77.3392C43.95 78.6392 43.25 79.8392 41.85 80.3392C39.45 81.2392 36.65 80.4392 36.65 80.4392C36.35 80.3392 36.25 80.1392 36.25 79.8392L36.35 29.8392C36.45 29.5392 36.65 29.3392 36.95 29.3392ZM44.05 29.8392C42.45 29.9392 38.95 30.2392 37.65 30.3392L37.55 79.4392C38.35 79.5392 40.05 79.8392 41.65 79.2392C42.65 78.8392 43.25 77.8392 43.95 76.7392C44.65 75.6392 45.35 74.4392 46.55 73.7392C48.25 72.7392 48.65 68.8392 48.95 66.2392C48.95 65.8392 49.05 65.4392 49.05 65.0392C49.25 63.7392 50.75 61.5392 52.35 59.3392C54.05 56.9392 55.75 54.5392 55.75 53.3392C55.75 51.7392 55.35 46.1392 54.75 41.3392C54.35 38.2392 53.95 35.4392 53.35 34.2392C52.85 33.0392 51.55 32.1392 50.05 31.4392C47.75 30.3392 45.15 29.8392 44.05 29.8392Z" fill="#6B5DFF"/>
<path fill-rule="evenodd" clip-rule="evenodd" d="M47.45 32.1392C47.45 32.1392 48.65 40.5392 51.25 40.9392C53.85 41.2392 56.65 39.3392 56.65 39.3392C56.75 39.6392 62.05 38.8392 62.35 38.1392C63.95 38.1392 67.95 34.0392 67.95 34.0392C69.15 34.0392 71.75 29.1392 71.15 28.1392C71.85 26.9392 71.25 21.3392 70.35 21.2392C70.05 19.8392 66.35 15.6392 64.75 15.5392C63.75 14.2392 60.65 13.0392 59.15 13.0392C58.25 11.9392 52.65 10.7392 52.15 10.8392C51.95 9.53923 49.95 8.93923 50.25 6.83923C50.45 4.73923 50.65 1.83923 51.35 0.839229C52.05 -0.160771 45.55 3.73923 46.65 10.3392C46.35 12.2392 47.85 14.8392 49.05 15.5392C50.05 17.3392 53.15 18.7392 55.05 18.4392C55.85 19.3392 58.35 20.9392 59.55 20.9392C59.95 22.0392 60.85 23.2392 61.25 23.7392C59.55 25.1392 57.35 27.3392 56.75 28.7392C56.15 28.4392 53.35 28.3392 52.75 29.1392C52.25 29.9392 48.15 30.0392 47.45 32.1392Z" fill="#F0F2FB"/>
<path fill-rule="evenodd" clip-rule="evenodd" d="M48.05 32.2392C48.25 33.3392 49.35 40.1392 51.35 40.3392C53.75 40.6392 56.35 38.8392 56.35 38.8392C56.55 38.7393 56.75 38.7393 56.95 38.8392C57.15 38.8392 57.95 38.7392 58.75 38.6392C59.75 38.4392 60.95 38.2392 61.55 37.9392C61.75 37.8392 61.75 37.9392 61.75 37.8392C61.85 37.6392 62.05 37.4392 62.35 37.5392C63.75 37.5392 67.45 33.6392 67.45 33.6392C67.55 33.5392 67.75 33.4392 67.85 33.4392C67.85 33.4392 67.95 33.4392 67.95 33.3392C68.45 33.0392 69.05 32.1392 69.65 31.1392C70.15 30.1392 70.55 29.1392 70.55 28.5392C70.55 28.4392 70.55 28.4392 70.55 28.3392C70.45 28.1392 70.45 27.9392 70.55 27.7392C70.65 27.6392 70.65 27.4392 70.75 27.1392C70.85 26.2392 70.85 24.9392 70.65 23.7392C70.45 22.7392 70.25 21.9392 70.15 21.7392C69.95 21.6392 69.75 21.5392 69.75 21.3392C69.65 20.6392 68.55 19.2392 67.35 18.0392C66.35 17.0392 65.25 16.1392 64.65 16.1392C64.45 16.1392 64.35 16.0392 64.25 15.9392C63.85 15.4392 62.95 14.9392 62.05 14.4392C60.95 13.9392 59.85 13.6392 59.15 13.6392C58.95 13.6392 58.75 13.5392 58.65 13.4392C58.35 13.1392 57.35 12.7392 56.25 12.3392C54.45 11.8392 52.55 11.3392 52.35 11.4392C52.05 11.5392 51.75 11.3392 51.65 11.0392V10.9392C51.65 10.6392 51.25 10.2392 50.95 9.93922C50.25 9.23922 49.55 8.33925 49.65 6.83925C49.75 6.43925 49.75 6.03924 49.75 5.63924C49.85 4.43924 49.95 3.23924 50.25 2.13924C48.75 3.53924 46.55 6.43924 47.25 10.2392C47.25 10.3392 47.25 10.3392 47.25 10.4392C47.15 11.2392 47.35 12.1392 47.75 12.9392C48.15 13.9392 48.85 14.7392 49.45 15.0392C49.55 15.1392 49.65 15.1392 49.65 15.2392C50.05 16.0392 50.95 16.7392 52.05 17.2392C53.15 17.7392 54.25 18.0392 55.15 17.9392C55.35 17.9392 55.55 18.0392 55.65 18.1392C56.05 18.6392 56.95 19.2392 57.85 19.7392C58.55 20.1392 59.25 20.4392 59.75 20.4392C59.95 20.4392 60.25 20.6392 60.25 20.8392C60.35 21.2392 60.65 21.7392 60.85 22.1392C61.15 22.7392 61.55 23.2392 61.85 23.5392C62.05 23.7392 62.05 24.1392 61.75 24.3392C60.85 25.1392 59.75 26.0392 58.85 27.0392C58.15 27.7392 57.65 28.5392 57.45 29.0392C57.35 29.3392 56.95 29.4392 56.75 29.3392C56.45 29.2392 55.45 29.1392 54.65 29.2392C54.15 29.3392 53.65 29.4392 53.55 29.5392C53.25 30.0392 52.45 30.2392 51.55 30.5392C50.05 30.8392 48.45 31.2392 48.05 32.2392ZM51.25 41.4392C48.25 41.0392 46.95 32.2392 46.95 32.1392C46.95 32.0392 46.95 31.9392 46.95 31.8392C47.45 30.2392 49.45 29.6392 50.95 29.2392C51.65 29.0392 52.25 28.8392 52.35 28.7392C52.65 28.2392 53.45 28.0392 54.25 27.9392C55.05 27.8392 55.85 27.9392 56.45 28.0392C56.75 27.4392 57.25 26.8392 57.85 26.1392C58.65 25.2392 59.55 24.4392 60.35 23.6392C60.15 23.3392 59.85 22.9392 59.65 22.5392C59.45 22.1392 59.25 21.7392 59.05 21.4392C58.45 21.3392 57.75 21.0392 57.05 20.6392C56.15 20.1392 55.35 19.5392 54.75 19.0392C53.75 19.1392 52.45 18.8392 51.35 18.2392C50.15 17.6392 49.15 16.8392 48.55 15.9392C47.85 15.4392 47.05 14.5392 46.55 13.4392C46.05 12.4392 45.85 11.3392 45.95 10.3392C45.25 5.93925 47.75 2.73924 49.55 1.13924C49.95 0.739235 50.35 0.439247 50.65 0.339247C51.35 -0.0607525 51.85 0.0392352 51.95 0.639235C51.95 0.839235 51.95 0.939235 51.75 1.13924C51.25 1.83924 51.05 3.83924 50.85 5.63924C50.85 6.03924 50.75 6.53925 50.75 6.83925C50.65 7.83925 51.25 8.43923 51.75 9.03923C52.15 9.43923 52.45 9.73924 52.65 10.2392C53.55 10.3392 55.15 10.6392 56.65 11.1392C57.85 11.5392 58.85 11.9392 59.45 12.4392C60.35 12.5392 61.55 12.8392 62.65 13.3392C63.65 13.7392 64.65 14.3392 65.15 14.9392C66.05 15.1392 67.25 16.0392 68.35 17.1392C69.55 18.3392 70.65 19.8392 70.95 20.7392C71.45 21.1392 71.75 22.2392 71.95 23.5392C72.15 24.8392 72.25 26.2392 72.05 27.2392C72.05 27.5392 71.95 27.8392 71.85 28.0392C71.85 28.1392 71.95 28.3392 71.95 28.4392C71.95 29.2392 71.45 30.4392 70.85 31.6392C70.25 32.7392 69.45 33.8392 68.75 34.2392C68.65 34.3392 68.45 34.4392 68.35 34.4392C67.65 35.1392 64.45 38.2392 62.75 38.5392C62.55 38.6392 62.35 38.7392 62.15 38.9392C61.45 39.2392 60.15 39.5392 59.15 39.6392C58.25 39.7392 57.45 39.8392 56.95 39.8392C56.05 40.4392 53.55 41.7392 51.25 41.4392Z" fill="#6B5DFF"/>
<path fill-rule="evenodd" clip-rule="evenodd" d="M43.65 51.3392C43.65 51.0392 43.55 48.7392 44.05 47.7392C44.55 46.7392 49.05 43.9392 49.05 43.9392C49.35 43.7392 49.65 43.8392 49.85 44.1392C49.95 44.2392 49.95 44.3392 49.95 44.4392C49.95 44.4392 49.85 51.2392 44.35 51.9392C44.05 51.9392 43.75 51.7392 43.65 51.3392ZM45.05 48.2392C44.85 48.7392 44.75 49.8392 44.75 50.6392C47.55 49.9392 48.35 47.1392 48.65 45.5392C47.45 46.3392 45.35 47.7392 45.05 48.2392Z" fill="#6B5DFF"/>
<path fill-rule="evenodd" clip-rule="evenodd" d="M41.05 47.5392C41.05 48.8392 42.05 49.1392 43.15 48.7392C43.85 48.5392 44.45 48.1392 44.95 47.7392C45.25 47.5392 45.85 47.2392 45.95 46.7392C45.95 46.6392 45.85 46.5392 45.85 46.5392C45.25 46.4392 44.55 47.2392 44.05 47.5392C43.15 48.1392 41.75 48.9392 41.25 47.4392C41.15 47.4392 41.05 47.4392 41.05 47.5392Z" fill="#6B5DFF"/>
<path fill-rule="evenodd" clip-rule="evenodd" d="M48.05 50.9392C48.95 50.3392 49.35 48.8392 49.55 47.8392C49.75 47.1392 50.25 45.3392 49.55 44.8392C49.45 44.8392 49.35 44.8392 49.35 44.9392C49.15 45.2392 49.25 45.5392 49.35 45.8392C49.35 46.4392 49.25 47.1392 49.15 47.7392C48.95 48.8392 48.55 49.9392 48.05 50.9392C47.95 51.0392 47.95 50.9392 48.05 50.9392Z" fill="#6B5DFF"/>
<path fill-rule="evenodd" clip-rule="evenodd" d="M41.05 62.5392C41.55 62.1392 42.15 62.1392 42.75 62.2392C42.95 62.2392 43.25 62.3392 43.45 62.2392C43.55 62.1392 43.55 61.9392 43.45 61.8392C43.05 61.4392 42.35 61.4392 41.85 61.5392C41.35 61.6392 40.75 61.8392 40.75 62.4392C40.75 62.6392 40.95 62.6392 41.05 62.5392Z" fill="#6B5DFF"/>
<path fill-rule="evenodd" clip-rule="evenodd" d="M41.05 60.5392C41.45 60.4392 41.85 60.4392 42.25 60.4392C42.65 60.4392 43.05 60.5392 43.25 60.2392C43.25 60.2392 43.25 60.1392 43.25 60.0392C43.05 59.7392 42.65 59.8392 42.35 59.8392C41.95 59.9392 41.45 60.0392 41.05 60.1392C40.85 60.2392 40.85 60.6392 41.05 60.5392Z" fill="#6B5DFF"/>
<path fill-rule="evenodd" clip-rule="evenodd" d="M41.35 58.7392C41.65 58.7392 41.95 58.7392 42.25 58.7392C42.45 58.7392 42.75 58.7392 42.75 58.4392C42.75 58.1392 42.35 58.1392 42.25 58.2392C41.95 58.3392 41.55 58.3392 41.25 58.4392C41.15 58.4392 41.15 58.7392 41.35 58.7392Z" fill="#6B5DFF"/>
<path fill-rule="evenodd" clip-rule="evenodd" d="M41.85 57.3392C42.15 57.3392 42.65 57.4392 42.75 57.0392C42.75 56.8392 42.55 56.8392 42.45 56.8392C42.25 56.8392 42.15 56.8392 41.95 56.9392C41.55 56.8392 41.55 57.3392 41.85 57.3392Z" fill="#6B5DFF"/>
<path fill-rule="evenodd" clip-rule="evenodd" d="M42.45 56.0392C42.65 55.8392 42.55 55.6392 42.35 55.6392C42.25 55.6392 42.15 55.6392 42.15 55.7392C41.75 55.8392 42.15 56.3392 42.45 56.0392Z" fill="#6B5DFF"/>
<path fill-rule="evenodd" clip-rule="evenodd" d="M53.25 55.1392C53.05 55.6392 52.75 56.2392 52.55 56.7392C52.35 57.2392 51.95 57.8392 51.85 58.4392C51.85 58.5392 51.95 58.5392 52.05 58.5392C52.95 57.8392 53.45 56.4392 53.55 55.3392C53.55 55.0392 53.35 54.9392 53.25 55.1392Z" fill="#6B5DFF"/>
<path fill-rule="evenodd" clip-rule="evenodd" d="M51.55 59.0392C50.15 61.2392 48.45 64.2392 49.15 66.9392C49.25 67.1392 49.45 67.1392 49.55 66.9392C49.95 65.7392 49.85 64.4392 50.05 63.2392C50.35 61.8392 50.95 60.5392 51.55 59.0392Z" fill="#6B5DFF"/>
<path fill-rule="evenodd" clip-rule="evenodd" d="M52.35 47.3392C52.15 48.5392 51.35 49.6392 51.25 50.8392C51.25 51.0392 51.45 51.0392 51.55 50.9392C52.45 50.0392 52.55 48.5392 52.65 47.3392C52.65 47.1392 52.45 47.1392 52.35 47.3392Z" fill="#6B5DFF"/>
<path fill-rule="evenodd" clip-rule="evenodd" d="M53.15 48.2392C52.65 49.4392 52.15 50.7392 52.15 52.0392C52.15 52.2392 52.35 52.2392 52.45 52.1392C53.25 51.1392 53.45 49.6392 53.75 48.4392C53.65 48.0392 53.25 47.9392 53.15 48.2392Z" fill="#6B5DFF"/>
<path fill-rule="evenodd" clip-rule="evenodd" d="M53.45 50.5392C53.25 51.2392 52.35 52.4392 52.95 53.1392C53.05 53.2392 53.25 53.3392 53.35 53.1392C53.55 52.8392 53.65 52.4392 53.75 52.0392C53.85 51.5392 53.95 51.0392 54.15 50.5392C54.05 50.3392 53.55 50.2392 53.45 50.5392Z" fill="#6B5DFF"/>
<path fill-rule="evenodd" clip-rule="evenodd" d="M53.95 52.2392C53.85 52.5392 53.75 52.8392 53.65 53.0392C53.55 53.2392 53.45 53.5392 53.55 53.7392C53.55 53.8392 53.65 53.8392 53.75 53.8392C53.95 53.7392 54.05 53.4392 54.15 53.2392C54.25 52.9392 54.35 52.6392 54.45 52.3392C54.65 52.0392 54.05 51.8392 53.95 52.2392Z" fill="#6B5DFF"/>
<path fill-rule="evenodd" clip-rule="evenodd" d="M72.75 42.0392C71.45 42.4392 70.25 43.2392 68.85 43.5392C66.95 43.9392 65.05 43.2392 63.25 42.8392C60.75 42.3392 57.25 41.9392 55.15 43.8392C54.95 44.0392 55.15 44.4392 55.45 44.3392C57.05 43.7392 58.35 43.2392 60.15 43.2392C61.95 43.2392 63.85 43.7392 65.55 44.0392C67.95 44.4392 71.05 44.2392 72.85 42.4392C73.05 42.2392 72.95 42.0392 72.75 42.0392Z" fill="#6B5DFF"/>
<path fill-rule="evenodd" clip-rule="evenodd" d="M57.05 46.1392C56.95 46.4392 56.95 46.7392 56.95 47.0392C56.95 47.3392 57.05 47.6392 57.25 47.7392C57.35 47.7392 57.45 47.7392 57.45 47.6392C57.55 47.4392 57.45 47.2392 57.45 47.0392C57.35 46.7392 57.35 46.4392 57.45 46.1392C57.55 46.0392 57.15 45.9392 57.05 46.1392Z" fill="#6B5DFF"/>
<path fill-rule="evenodd" clip-rule="evenodd" d="M58.35 46.5392C58.45 46.9392 58.55 47.2392 58.65 47.6392C58.75 47.9392 58.85 48.2392 59.15 48.2392C59.25 48.2392 59.25 48.2392 59.35 48.1392C59.55 47.9392 59.35 47.6392 59.25 47.3392C59.15 47.0392 59.05 46.7392 58.95 46.4392C58.75 46.1392 58.35 46.2392 58.35 46.5392Z" fill="#6B5DFF"/>
<path fill-rule="evenodd" clip-rule="evenodd" d="M60.15 47.2392C60.15 47.4392 60.25 47.6392 60.35 47.8392C60.45 48.0392 60.75 47.8392 60.65 47.6392C60.55 47.5392 60.55 47.3392 60.55 47.2392C60.45 47.0392 60.15 47.0392 60.15 47.2392Z" fill="#6B5DFF"/>
<path fill-rule="evenodd" clip-rule="evenodd" d="M61.55 46.9392C61.65 47.3392 61.85 47.7392 62.15 48.0392C62.25 48.1392 62.45 48.1392 62.55 48.0392C62.75 47.9392 62.75 47.7392 62.65 47.6392C62.55 47.3392 62.25 47.0392 62.25 46.7392C62.15 46.4392 61.55 46.5392 61.55 46.9392Z" fill="#6B5DFF"/>
<path fill-rule="evenodd" clip-rule="evenodd" d="M51.95 43.9392C51.05 43.0392 48.75 44.0392 48.15 44.9392C48.05 45.1392 48.25 45.3392 48.45 45.3392C49.05 45.2392 49.55 44.7392 50.15 44.5392C50.75 44.3392 51.45 44.4392 51.95 44.1392C51.95 44.0392 51.95 43.9392 51.95 43.9392Z" fill="#6B5DFF"/>
<path fill-rule="evenodd" clip-rule="evenodd" d="M46.35 36.4392C46.95 37.7392 47.45 39.0392 48.55 40.0392C49.35 40.8392 50.95 41.4392 52.15 41.0392C52.35 40.9392 52.35 40.7392 52.15 40.6392C51.55 40.4392 50.95 40.4392 50.35 40.2392C49.75 40.0392 49.15 39.6392 48.75 39.1392C47.85 38.3392 47.25 37.3392 46.35 36.4392Z" fill="#6B5DFF"/>
<path fill-rule="evenodd" clip-rule="evenodd" d="M45.65 30.7392C45.05 31.2392 44.55 31.8392 44.35 32.6392C44.25 33.0392 44.85 33.2392 44.95 32.9392C45.25 32.3392 45.35 31.6392 45.85 31.1392C46.05 30.9392 45.85 30.6392 45.65 30.7392Z" fill="#6B5DFF"/>
<path fill-rule="evenodd" clip-rule="evenodd" d="M43.85 31.5392C43.75 31.7392 43.65 32.0392 43.55 32.2392C43.45 32.4392 43.35 32.7392 43.55 32.8392C43.95 33.0392 44.15 32.0392 44.25 31.8392C44.45 31.4392 43.95 31.1392 43.85 31.5392Z" fill="#6B5DFF"/>
<path fill-rule="evenodd" clip-rule="evenodd" d="M42.85 31.4392C42.55 31.8392 42.05 32.4392 42.15 33.0392C42.15 33.1392 42.25 33.1392 42.35 33.1392C42.95 32.9392 42.95 32.1392 43.25 31.7392C43.35 31.5392 42.95 31.2392 42.85 31.4392Z" fill="#6B5DFF"/>
<path fill-rule="evenodd" clip-rule="evenodd" d="M41.45 31.9392C41.45 32.0392 41.35 32.2392 41.35 32.3392C41.25 32.4392 41.25 32.6392 41.25 32.7392C41.25 32.8392 41.35 32.8392 41.35 32.8392C41.55 32.8392 41.55 32.6392 41.65 32.5392C41.75 32.3392 41.75 32.2392 41.85 32.0392C41.85 31.7392 41.55 31.6392 41.45 31.9392Z" fill="#6B5DFF"/>
<path fill-rule="evenodd" clip-rule="evenodd" d="M40.05 31.7392C39.85 32.0392 39.75 32.3392 39.75 32.6392C39.75 32.9392 40.15 33.0392 40.25 32.7392C40.35 32.4392 40.35 32.2392 40.55 31.9392C40.65 31.7392 40.25 31.4392 40.05 31.7392Z" fill="#6B5DFF"/>
<path fill-rule="evenodd" clip-rule="evenodd" d="M39.05 31.7392C38.95 31.9392 38.75 32.1392 38.85 32.4392C38.85 32.5392 39.05 32.6392 39.15 32.5392C39.35 32.4392 39.45 32.2392 39.55 32.0392C39.65 31.6392 39.15 31.4392 39.05 31.7392Z" fill="#6B5DFF"/>
<path fill-rule="evenodd" clip-rule="evenodd" d="M41.15 46.4392C41.35 46.5392 41.55 46.7392 41.85 46.8392C42.05 46.9392 42.35 47.0392 42.55 46.9392C42.65 46.9392 42.65 46.8392 42.55 46.7392C42.35 46.6392 42.15 46.5392 41.95 46.5392C41.65 46.4392 41.45 46.4392 41.25 46.2392C41.15 46.2392 41.05 46.3392 41.15 46.4392Z" fill="#6B5DFF"/>
<path fill-rule="evenodd" clip-rule="evenodd" d="M42.45 45.7392C42.65 46.0392 43.35 46.5392 43.75 46.1392C43.75 46.1392 43.75 46.0392 43.75 45.9392C43.65 45.8392 43.45 45.7392 43.35 45.7392C43.15 45.6392 42.95 45.5392 42.85 45.4392C42.65 45.3392 42.25 45.5392 42.45 45.7392Z" fill="#6B5DFF"/>
<path fill-rule="evenodd" clip-rule="evenodd" d="M43.65 45.4392C43.95 45.5392 44.55 45.6392 44.65 45.3392C44.75 45.1392 44.45 45.0392 44.35 45.0392C44.15 45.0392 44.05 45.0392 43.85 44.9392C43.45 44.7392 43.35 45.3392 43.65 45.4392Z" fill="#6B5DFF"/>
<path fill-rule="evenodd" clip-rule="evenodd" d="M45.15 44.1392C45.25 44.1392 45.45 44.2392 45.55 44.2392C45.75 44.2392 45.85 44.2392 46.05 44.2392C46.25 44.1392 46.25 43.8392 46.05 43.7392C45.85 43.6392 45.55 43.5392 45.35 43.5392C45.15 43.4392 44.95 43.6392 44.95 43.7392C44.85 43.9392 44.95 44.1392 45.15 44.1392Z" fill="#6B5DFF"/>
<path fill-rule="evenodd" clip-rule="evenodd" d="M46.75 43.5392C46.85 43.5392 46.95 43.5392 47.05 43.5392C47.15 43.5392 47.15 43.4392 47.15 43.4392C47.15 43.2392 46.85 43.1392 46.65 43.1392C46.45 43.0392 46.45 43.5392 46.75 43.5392Z" fill="#6B5DFF"/>
<path fill-rule="evenodd" clip-rule="evenodd" d="M46.45 52.3392C45.75 52.8392 44.95 53.1392 44.25 53.6392C44.15 53.7392 44.25 53.8392 44.35 53.8392C45.35 53.8392 45.95 53.1392 46.55 52.5392C46.85 52.4392 46.65 52.2392 46.45 52.3392Z" fill="#6B5DFF"/>
<path fill-rule="evenodd" clip-rule="evenodd" d="M47.45 53.2392C47.15 53.6392 46.75 53.9392 46.35 54.2392C46.05 54.5392 45.55 54.7392 45.35 55.2392C45.25 55.3392 45.35 55.4392 45.45 55.5392C45.95 55.6392 46.45 55.3392 46.85 54.9392C47.35 54.5392 47.55 54.0392 47.85 53.4392C47.85 53.1392 47.55 53.0392 47.45 53.2392Z" fill="#6B5DFF"/>
<path fill-rule="evenodd" clip-rule="evenodd" d="M47.05 55.6392C46.95 55.8392 46.75 55.9392 46.65 56.1392C46.55 56.2392 46.35 56.4392 46.35 56.6392C46.35 56.7392 46.45 56.8392 46.55 56.8392C46.75 56.8392 46.95 56.6392 47.15 56.4392C47.35 56.2392 47.45 56.0392 47.65 55.8392C47.75 55.7392 47.65 55.5392 47.55 55.4392C47.25 55.5392 47.15 55.5392 47.05 55.6392Z" fill="#6B5DFF"/>
<path fill-rule="evenodd" clip-rule="evenodd" d="M47.35 57.0392C47.15 57.1392 47.05 57.3392 46.85 57.5392C46.75 57.7392 46.55 57.8392 46.55 58.1392C46.55 58.2392 46.65 58.3392 46.75 58.2392C46.95 58.2392 47.05 58.0392 47.15 57.8392C47.25 57.6392 47.45 57.5392 47.55 57.4392C47.75 57.1392 47.45 56.8392 47.35 57.0392Z" fill="#6B5DFF"/>
<path fill-rule="evenodd" clip-rule="evenodd" d="M47.35 58.9392C47.25 59.1392 47.15 59.2392 47.15 59.4392C47.15 59.5392 47.25 59.5392 47.25 59.5392C47.45 59.5392 47.55 59.4392 47.65 59.2392C48.05 59.0392 47.55 58.6392 47.35 58.9392Z" fill="#6B5DFF"/>
<path fill-rule="evenodd" clip-rule="evenodd" d="M48.35 61.5392C48.15 62.3392 48.25 63.2392 48.45 64.0392C48.65 64.9392 48.85 66.0392 49.25 66.7392C49.35 66.8392 49.55 66.8392 49.55 66.6392C49.55 65.8392 49.15 64.9392 48.95 64.1392C48.75 63.2392 48.65 62.3392 48.45 61.4392C48.55 61.4392 48.45 61.5392 48.35 61.5392Z" fill="#6B5DFF"/>
<path fill-rule="evenodd" clip-rule="evenodd" d="M39.25 45.3392C40.95 44.6392 42.25 43.3392 43.95 42.6392C45.55 41.9392 47.15 42.5392 48.75 42.2392C48.95 42.2392 48.95 41.8392 48.85 41.7392C47.55 40.9392 45.65 41.2392 44.25 41.6392C42.35 42.2392 40.85 44.0392 39.15 45.1392C38.95 45.2392 39.05 45.4392 39.25 45.3392Z" fill="#6B5DFF"/>
<path fill-rule="evenodd" clip-rule="evenodd" d="M48.55 45.1392C48.45 45.2392 48.45 45.4392 48.45 45.5392C48.45 45.7392 48.45 45.9392 48.45 46.1392C48.45 46.3392 48.65 46.4392 48.85 46.3392C49.05 46.3392 49.05 46.1392 49.05 45.9392C49.05 45.8392 48.95 45.6392 48.95 45.5392C48.95 45.4392 48.95 45.2392 48.85 45.1392C48.75 45.0392 48.65 45.0392 48.55 45.1392Z" fill="#6B5DFF"/>
<path fill-rule="evenodd" clip-rule="evenodd" d="M48.65 45.6392C48.65 45.8392 48.55 46.0392 48.55 46.2392C48.55 46.3392 48.55 46.3392 48.65 46.4392H48.75C48.85 46.4392 48.85 46.3392 48.85 46.2392C48.85 46.0392 48.75 45.8392 48.75 45.6392C48.75 45.5392 48.65 45.5392 48.65 45.6392Z" fill="#6B5DFF"/>
<path fill-rule="evenodd" clip-rule="evenodd" d="M48.65 46.1392C48.65 46.2392 48.65 46.4392 48.65 46.5392C48.65 46.6392 48.55 46.8392 48.75 46.9392C48.85 46.9392 48.85 46.9392 48.95 46.9392C49.05 46.8392 49.05 46.6392 49.05 46.5392C49.05 46.4392 49.05 46.2392 49.05 46.1392C48.85 45.9392 48.65 45.9392 48.65 46.1392Z" fill="#6B5DFF"/>
<path fill-rule="evenodd" clip-rule="evenodd" d="M48.35 45.1392C48.25 46.0392 48.35 47.1392 48.55 48.0392C48.55 48.1392 48.75 48.1392 48.75 48.0392C49.15 47.1392 48.65 46.0392 48.55 45.0392C48.55 44.9392 48.35 45.0392 48.35 45.1392Z" fill="#6B5DFF"/>
<path fill-rule="evenodd" clip-rule="evenodd" d="M48.35 45.2392C48.05 45.8392 48.05 46.3392 47.95 46.9392C47.95 47.3392 47.95 47.7392 47.85 48.1392C47.75 48.5392 47.45 48.8392 47.35 49.3392C47.35 49.4392 47.45 49.5392 47.55 49.5392C48.05 49.1392 48.35 48.3392 48.45 47.7392C48.55 46.9392 48.45 46.1392 48.45 45.3392C48.45 45.2392 48.35 45.1392 48.35 45.2392Z" fill="#6B5DFF"/>
<path fill-rule="evenodd" clip-rule="evenodd" d="M47.95 45.1392C47.75 45.8392 47.85 46.4392 47.85 47.0392C47.85 47.9392 47.65 48.6392 47.25 49.4392C47.15 49.5392 47.35 49.7392 47.45 49.6392C48.45 48.4392 48.65 46.5392 48.25 45.1392C48.25 45.0392 47.95 45.0392 47.95 45.1392Z" fill="#6B5DFF"/>
<path fill-rule="evenodd" clip-rule="evenodd" d="M52.35 41.9392C52.75 42.0392 53.05 42.0392 53.45 41.9392C53.75 41.8392 54.25 41.5392 54.35 41.2392C54.35 41.1392 54.35 41.0392 54.25 41.0392C53.95 41.0392 53.75 41.2392 53.55 41.4392C53.15 41.6392 52.75 41.9392 52.35 41.9392Z" fill="#6B5DFF"/>
<path fill-rule="evenodd" clip-rule="evenodd" d="M53.05 43.1392C53.25 43.1392 53.45 43.0392 53.75 42.9392C53.95 42.8392 54.25 42.7392 54.15 42.4392C54.15 42.3392 54.05 42.2392 53.95 42.2392C53.75 42.2392 53.65 42.4392 53.45 42.5392C53.35 42.6392 53.05 42.7392 52.85 42.7392C52.85 42.9392 52.95 43.1392 53.05 43.1392Z" fill="#6B5DFF"/>
<path fill-rule="evenodd" clip-rule="evenodd" d="M53.65 44.5392C53.85 44.5392 54.05 44.4392 54.15 44.3392C54.35 44.1392 54.15 43.8392 53.85 43.8392C53.75 43.8392 53.65 43.9392 53.55 43.9392C53.25 43.9392 53.25 44.5392 53.65 44.5392Z" fill="#6B5DFF"/>
<path fill-rule="evenodd" clip-rule="evenodd" d="M49.45 30.6392C51.65 28.2392 53.55 33.8392 53.95 35.2392C54.35 36.6392 55.35 39.8392 57.35 39.3392C57.65 39.2392 57.65 38.8392 57.35 38.7392C54.85 37.8392 54.75 34.0392 53.55 31.9392C52.75 30.6392 50.55 28.3392 49.45 30.6392Z" fill="#6B5DFF"/>
<path fill-rule="evenodd" clip-rule="evenodd" d="M56.05 28.5392C56.15 28.5392 56.25 28.5392 56.25 28.6392H56.35C56.35 28.4392 56.15 28.4392 56.05 28.5392C55.95 28.5392 55.95 28.4392 56.05 28.5392Z" fill="#6B5DFF"/>
<path fill-rule="evenodd" clip-rule="evenodd" d="M55.85 28.8392C56.95 28.9392 57.15 30.9392 57.45 31.7392C57.75 32.6392 58.25 33.4392 58.65 34.2392C59.35 35.6392 60.55 38.0392 62.45 38.1392C62.85 38.1392 62.95 37.5392 62.55 37.4392C60.45 37.0392 59.35 33.8392 58.45 32.0392C57.95 30.9392 57.65 28.6392 55.85 28.8392Z" fill="#6B5DFF"/>
<path fill-rule="evenodd" clip-rule="evenodd" d="M63.45 19.3392C61.95 18.4392 60.75 17.2392 59.25 16.3392C57.65 15.3392 55.65 14.8392 53.85 14.5392C53.75 14.5392 53.65 14.6392 53.75 14.7392C55.55 15.7392 57.65 15.8392 59.45 16.8392C60.85 17.6392 61.65 19.2392 63.35 19.7392C63.45 19.6392 63.65 19.3392 63.45 19.3392Z" fill="#6B5DFF"/>
<path fill-rule="evenodd" clip-rule="evenodd" d="M52.75 13.9392C52.55 13.6392 52.25 13.3392 51.95 13.0392C51.65 12.7392 51.35 12.4392 51.05 12.3392C51.05 12.3392 50.95 12.3392 50.95 12.4392C51.15 12.7392 51.35 13.0392 51.65 13.2392C51.95 13.5392 52.25 13.8392 52.45 14.1392C52.55 14.4392 52.95 14.1392 52.75 13.9392Z" fill="#6B5DFF"/>
<path fill-rule="evenodd" clip-rule="evenodd" d="M49.65 10.6392C49.55 10.5392 49.55 10.4392 49.45 10.3392C49.45 10.3392 49.35 10.3392 49.35 10.4392C49.35 10.5392 49.45 10.7392 49.55 10.7392C49.55 10.8392 49.65 10.6392 49.65 10.6392Z" fill="#6B5DFF"/>
<path fill-rule="evenodd" clip-rule="evenodd" d="M49.35 9.63921C49.15 9.03921 48.95 8.5392 48.85 7.9392C48.75 7.1392 48.75 6.43922 48.65 5.73922C48.65 5.63922 48.45 5.53922 48.35 5.73922C47.85 7.13922 48.65 8.53922 49.05 9.73922C49.25 9.83922 49.45 9.73921 49.35 9.63921Z" fill="#6B5DFF"/>
<path fill-rule="evenodd" clip-rule="evenodd" d="M65.35 23.8392C65.35 24.7392 65.35 25.5392 65.35 26.4392C65.35 27.4392 64.95 28.3392 64.55 29.2392C64.45 29.3392 64.65 29.4392 64.75 29.3392C66.25 27.7392 65.95 25.8392 65.65 23.7392C65.65 23.6392 65.35 23.6392 65.35 23.8392Z" fill="#6B5DFF"/>
<path fill-rule="evenodd" clip-rule="evenodd" d="M56.55 29.1392C58.15 28.2392 60.95 31.2392 62.05 32.0392C63.65 33.2392 66.35 34.8392 68.35 34.1392C68.65 34.0392 68.65 33.4392 68.25 33.5392C65.55 33.7392 62.85 32.0392 60.75 30.4392C59.75 29.7392 57.55 27.7392 56.25 28.8392C56.05 28.9392 56.35 29.2392 56.55 29.1392Z" fill="#6B5DFF"/>
<path fill-rule="evenodd" clip-rule="evenodd" d="M60.65 24.4392C62.55 23.4392 64.65 25.7392 66.25 26.7392C67.65 27.5392 69.45 28.4392 71.05 28.1392C71.35 28.0392 71.35 27.6392 71.05 27.5392C69.75 27.2392 68.65 27.0392 67.55 26.5392C66.45 26.0392 65.45 25.3392 64.45 24.6392C63.25 23.8392 61.75 22.9392 60.55 24.2392C60.45 24.3392 60.55 24.5392 60.65 24.4392Z" fill="#6B5DFF"/>
<path fill-rule="evenodd" clip-rule="evenodd" d="M60.95 23.8392C63.75 22.4392 68.55 24.1392 70.55 21.2392C70.65 21.1392 70.45 21.0392 70.35 21.0392C68.45 21.9392 66.85 22.2392 64.85 22.3392C63.35 22.4392 62.05 22.6392 60.85 23.6392C60.75 23.7392 60.85 23.9392 60.95 23.8392Z" fill="#6B5DFF"/>
<path fill-rule="evenodd" clip-rule="evenodd" d="M59.95 21.9392C59.75 20.0392 61.45 19.0392 62.75 18.1392C63.65 17.5392 64.95 16.6392 64.95 15.3392C64.95 15.0392 64.45 14.8392 64.35 15.1392C63.65 16.7392 62.45 17.3392 61.15 18.3392C59.95 19.3392 59.35 20.3392 59.75 21.8392C59.75 22.1392 59.95 22.1392 59.95 21.9392Z" fill="#6B5DFF"/>
<path fill-rule="evenodd" clip-rule="evenodd" d="M60.15 13.1392C58.85 12.5392 57.55 13.8392 56.85 14.7392C56.35 15.4392 55.85 16.1392 55.35 16.8392C55.05 17.3392 54.25 17.9392 54.25 18.5392C54.25 18.6392 54.35 18.7392 54.45 18.7392C55.45 18.8392 56.35 16.7392 56.85 16.0392C57.25 15.4392 57.75 14.7392 58.25 14.2392C58.75 13.7392 59.45 13.4392 60.15 13.1392Z" fill="#6B5DFF"/>
<path fill-rule="evenodd" clip-rule="evenodd" d="M52.85 10.8392C51.85 10.7392 51.15 11.7392 50.55 12.4392C50.25 12.9392 49.95 13.4392 49.55 13.9392C49.15 14.4392 48.65 14.5392 48.25 14.9392C48.15 15.0392 48.15 15.3392 48.35 15.4392C49.25 15.6392 50.15 14.5392 50.55 13.8392C50.85 13.3392 51.15 12.7392 51.55 12.3392C51.95 11.8392 52.45 11.6392 52.95 11.2392C53.05 11.0392 52.95 10.8392 52.85 10.8392Z" fill="#6B5DFF"/>
<path fill-rule="evenodd" clip-rule="evenodd" d="M46.65 11.1392C47.05 10.0392 48.35 9.63923 49.25 9.13923C49.85 8.83923 50.85 8.13924 50.65 7.33924C50.65 7.23924 50.45 7.13924 50.25 7.23924C49.95 7.43924 49.75 7.83923 49.45 8.13923C49.05 8.53923 48.55 8.73922 48.15 9.03922C47.35 9.53922 46.75 10.0392 46.35 11.0392C46.35 11.2392 46.55 11.3392 46.65 11.1392Z" fill="#6B5DFF"/>
<path fill-rule="evenodd" clip-rule="evenodd" d="M49.85 37.2392C49.75 37.8392 49.95 38.4392 50.25 38.9392C50.55 39.3392 50.95 40.0392 51.45 39.9392C51.55 39.9392 51.55 39.8392 51.55 39.8392C51.65 39.4392 51.25 39.0392 50.95 38.7392C50.55 38.3392 50.15 37.8392 50.05 37.2392C50.05 37.1392 49.95 37.1392 49.85 37.2392Z" fill="#6B5DFF"/>
<path fill-rule="evenodd" clip-rule="evenodd" d="M50.85 37.9392C50.95 38.1392 51.15 38.3392 51.25 38.5392C51.45 38.7392 51.65 38.9392 51.85 39.0392C52.05 39.1392 52.25 38.8392 52.15 38.6392C52.05 38.4392 51.85 38.3392 51.65 38.1392C51.45 37.9392 51.25 37.7392 51.15 37.5392C51.05 37.4392 50.75 37.7392 50.85 37.9392Z" fill="#6B5DFF"/>
<path fill-rule="evenodd" clip-rule="evenodd" d="M52.15 37.6392C52.35 37.9392 52.75 38.5392 53.15 38.4392C53.25 38.4392 53.25 38.3392 53.25 38.3392C53.15 38.1392 53.05 38.0392 52.85 37.9392C52.65 37.8392 52.55 37.6392 52.35 37.5392C52.25 37.3392 52.05 37.5392 52.15 37.6392Z" fill="#6B5DFF"/>
<path fill-rule="evenodd" clip-rule="evenodd" d="M53.25 37.3392C53.35 37.4392 53.45 37.5392 53.55 37.5392C53.65 37.5392 53.65 37.5392 53.65 37.4392C53.65 37.3392 53.55 37.2392 53.45 37.1392C53.35 36.9392 53.15 37.1392 53.25 37.3392Z" fill="#6B5DFF"/>
<path fill-rule="evenodd" clip-rule="evenodd" d="M56.15 36.6392C56.25 36.8392 56.45 37.1392 56.55 37.3392C56.75 37.5392 56.95 37.8392 57.15 37.8392C57.35 37.9392 57.55 37.7392 57.45 37.5392C57.35 37.2392 57.15 37.1392 56.95 36.9392C56.75 36.7392 56.45 36.5392 56.25 36.3392C56.25 36.3392 56.05 36.5392 56.15 36.6392Z" fill="#6B5DFF"/>
<path fill-rule="evenodd" clip-rule="evenodd" d="M57.15 36.4392C57.15 36.8392 57.35 37.2392 57.75 37.3392C57.95 37.4392 58.15 37.1392 57.95 36.9392C57.85 36.8392 57.75 36.7392 57.65 36.6392C57.55 36.5392 57.55 36.4392 57.45 36.3392C57.35 36.1392 57.15 36.2392 57.15 36.4392Z" fill="#6B5DFF"/>
<path fill-rule="evenodd" clip-rule="evenodd" d="M58.25 36.5392C58.45 36.7392 58.65 37.0392 58.95 37.0392C59.05 37.0392 59.15 36.9392 59.05 36.9392C59.05 36.6392 58.65 36.4392 58.35 36.2392C58.25 36.0392 58.15 36.3392 58.25 36.5392Z" fill="#6B5DFF"/>
<path fill-rule="evenodd" clip-rule="evenodd" d="M60.85 35.7392C61.25 36.1392 61.65 36.4392 62.05 36.7392C62.45 36.9392 62.75 36.4392 62.35 36.1392C61.95 35.8392 61.55 35.6392 61.05 35.3392C60.85 35.1392 60.65 35.5392 60.85 35.7392Z" fill="#6B5DFF"/>
<path fill-rule="evenodd" clip-rule="evenodd" d="M62.15 35.3392C62.35 35.5392 62.55 35.6392 62.85 35.6392C62.95 35.6392 62.95 35.5392 62.85 35.5392C62.65 35.4392 62.45 35.3392 62.35 35.2392C62.15 35.0392 61.95 35.2392 62.15 35.3392Z" fill="#6B5DFF"/>
<path fill-rule="evenodd" clip-rule="evenodd" d="M63.05 34.7392C63.15 34.8392 63.25 34.8392 63.35 34.9392C63.45 34.9392 63.55 35.0392 63.65 34.9392C63.75 34.9392 63.75 34.8392 63.75 34.8392C63.75 34.6392 63.45 34.5392 63.25 34.5392C63.05 34.4392 62.85 34.6392 63.05 34.7392Z" fill="#6B5DFF"/>
<path fill-rule="evenodd" clip-rule="evenodd" d="M63.55 34.5392C63.65 34.6392 63.75 34.7392 63.95 34.7392C64.15 34.7392 64.25 34.4392 64.05 34.3392C63.95 34.3392 63.95 34.2392 63.85 34.2392C63.65 34.0392 63.35 34.3392 63.55 34.5392Z" fill="#6B5DFF"/>
<path fill-rule="evenodd" clip-rule="evenodd" d="M65.35 32.0392C65.75 32.3392 66.45 32.3392 66.95 32.3392C67.35 32.3392 67.45 31.7392 67.05 31.6392C66.55 31.5392 65.75 31.4392 65.35 31.7392C65.25 31.8392 65.25 31.9392 65.35 32.0392Z" fill="#6B5DFF"/>
<path fill-rule="evenodd" clip-rule="evenodd" d="M66.75 30.9392C67.05 30.9392 67.25 30.9392 67.55 30.8392C67.65 30.7392 67.65 30.5392 67.45 30.5392C67.25 30.5392 66.95 30.6392 66.75 30.6392C66.55 30.6392 66.55 30.9392 66.75 30.9392Z" fill="#6B5DFF"/>
<path fill-rule="evenodd" clip-rule="evenodd" d="M67.05 29.8392C67.25 29.8392 67.85 29.9392 67.95 29.5392C67.95 29.3392 67.65 29.3392 67.55 29.3392C67.35 29.3392 67.25 29.3392 67.05 29.3392C66.75 29.4392 66.75 29.8392 67.05 29.8392Z" fill="#6B5DFF"/>
<path fill-rule="evenodd" clip-rule="evenodd" d="M68.25 26.0392C68.65 25.9392 69.25 25.9392 69.55 25.6392C69.75 25.4392 69.55 25.1392 69.35 25.1392C69.15 25.1392 68.95 25.2392 68.75 25.3392C68.55 25.4392 68.35 25.5392 68.15 25.6392C67.95 25.8392 68.05 26.0392 68.25 26.0392Z" fill="#6B5DFF"/>
<path fill-rule="evenodd" clip-rule="evenodd" d="M68.15 24.6392C68.35 24.5392 68.45 24.4392 68.65 24.4392C68.75 24.4392 68.85 24.3392 68.95 24.2392C69.05 24.1392 69.05 23.9392 69.05 23.8392C68.75 23.4392 68.05 23.9392 67.85 24.1392C67.55 24.4392 67.85 24.7392 68.15 24.6392Z" fill="#6B5DFF"/>
<path fill-rule="evenodd" clip-rule="evenodd" d="M68.15 23.8392C68.25 23.8392 68.35 23.8392 68.45 23.7392C68.65 23.6392 68.65 23.4392 68.45 23.3392C68.35 23.3392 68.25 23.2392 68.15 23.2392C67.85 23.3392 67.85 23.8392 68.15 23.8392Z" fill="#6B5DFF"/>
<path fill-rule="evenodd" clip-rule="evenodd" d="M68.15 20.9392C67.75 21.0392 67.35 21.1392 66.85 21.2392C66.35 21.3392 65.95 21.4392 65.55 21.6392C65.45 21.6392 65.45 21.8392 65.55 21.9392C66.45 22.3392 67.55 21.7392 68.15 21.0392C68.25 21.0392 68.25 20.9392 68.15 20.9392Z" fill="#6B5DFF"/>
<path fill-rule="evenodd" clip-rule="evenodd" d="M66.55 19.9392C66.35 20.0392 66.15 20.0392 65.95 20.0392C65.75 20.0392 65.55 20.0392 65.35 20.2392C65.25 20.3392 65.25 20.4392 65.35 20.5392C65.75 20.9392 66.35 20.4392 66.65 20.2392C66.95 20.1392 66.75 19.8392 66.55 19.9392Z" fill="#6B5DFF"/>
<path fill-rule="evenodd" clip-rule="evenodd" d="M65.65 18.7392C65.55 18.8392 65.35 18.8392 65.25 18.9392C65.15 18.9392 64.95 18.9392 64.85 19.1392C64.85 19.2392 64.75 19.3392 64.85 19.3392C65.05 19.4392 65.15 19.3392 65.25 19.3392C65.45 19.2392 65.55 19.2392 65.65 19.1392C65.95 18.9392 65.85 18.7392 65.65 18.7392Z" fill="#6B5DFF"/>
<path fill-rule="evenodd" clip-rule="evenodd" d="M62.45 16.2392C62.35 16.3392 62.25 16.4392 62.05 16.5392C61.95 16.6392 61.85 16.7392 61.85 16.9392C61.85 17.0392 61.85 17.0392 61.95 17.0392C62.05 17.0392 62.25 16.9392 62.35 16.8392C62.45 16.7392 62.55 16.6392 62.65 16.4392C62.75 16.2392 62.55 16.1392 62.45 16.2392Z" fill="#6B5DFF"/>
<path fill-rule="evenodd" clip-rule="evenodd" d="M61.35 15.6392C61.05 15.8392 60.85 16.0392 60.65 16.2392C60.45 16.4392 60.75 16.8392 61.05 16.6392C61.25 16.4392 61.35 16.2392 61.65 16.0392C61.75 15.8392 61.55 15.5392 61.35 15.6392Z" fill="#6B5DFF"/>
<path fill-rule="evenodd" clip-rule="evenodd" d="M60.35 15.8392C60.25 15.9392 60.15 16.0392 60.25 16.1392H60.35C60.45 16.0392 60.45 16.0392 60.55 15.9392C60.55 15.9392 60.35 15.7392 60.35 15.8392Z" fill="#6B5DFF"/>
<path fill-rule="evenodd" clip-rule="evenodd" d="M59.65 15.6392C59.55 15.6392 59.55 15.7392 59.65 15.6392C59.55 15.7392 59.65 15.8392 59.65 15.8392C59.65 15.8392 59.75 15.8392 59.75 15.7392C59.85 15.6392 59.75 15.5392 59.65 15.6392Z" fill="#6B5DFF"/>
<path fill-rule="evenodd" clip-rule="evenodd" d="M56.75 13.5392C56.55 13.5392 56.35 13.6392 56.15 13.7392C55.95 13.8392 55.65 13.9392 55.55 14.1392C55.45 14.2392 55.55 14.5392 55.75 14.5392C56.25 14.6392 56.85 14.1392 56.95 13.7392C56.95 13.6392 56.85 13.5392 56.75 13.5392Z" fill="#6B5DFF"/>
<path fill-rule="evenodd" clip-rule="evenodd" d="M55.35 13.3392C55.05 13.3392 54.35 13.4392 54.35 13.8392C54.35 13.9392 54.35 13.9392 54.45 13.9392C54.65 14.0392 54.75 13.8392 54.95 13.7392C55.05 13.6392 55.25 13.5392 55.35 13.5392C55.45 13.4392 55.45 13.2392 55.35 13.3392Z" fill="#6B5DFF"/>
<path fill-rule="evenodd" clip-rule="evenodd" d="M53.95 13.2392C53.75 13.2392 53.55 13.2392 53.35 13.3392C53.15 13.4392 53.25 13.8392 53.55 13.7392C53.65 13.6392 53.85 13.6392 53.95 13.5392C54.25 13.5392 54.25 13.2392 53.95 13.2392Z" fill="#6B5DFF"/>
<path fill-rule="evenodd" clip-rule="evenodd" d="M49.05 13.9392C49.15 13.7392 49.25 13.6392 49.45 13.4392C49.55 13.2392 49.75 13.1392 49.85 12.9392C49.95 12.7392 49.85 12.5392 49.65 12.5392C49.15 12.5392 48.65 13.2392 48.55 13.7392C48.55 14.0392 48.85 14.1392 49.05 13.9392Z" fill="#6B5DFF"/>
<path fill-rule="evenodd" clip-rule="evenodd" d="M48.85 12.5392C48.95 12.4392 49.05 12.3392 49.15 12.1392C49.25 12.0392 49.35 11.9392 49.35 11.7392C49.35 11.6392 49.35 11.6392 49.25 11.6392C48.85 11.5392 48.65 12.0392 48.45 12.2392C48.15 12.5392 48.65 12.8392 48.85 12.5392Z" fill="#6B5DFF"/>
<path fill-rule="evenodd" clip-rule="evenodd" d="M48.45 11.4392C48.65 11.3392 48.65 11.1392 48.45 11.0392C48.25 10.9392 48.15 11.0392 48.15 11.2392C48.05 11.3392 48.25 11.4392 48.45 11.4392Z" fill="#6B5DFF"/>
<path fill-rule="evenodd" clip-rule="evenodd" d="M51.45 16.6392C51.85 17.0392 52.45 17.1392 52.95 17.3392C53.35 17.4392 53.65 17.6392 53.95 17.7392C54.25 17.9392 54.45 18.1392 54.75 18.3392C54.85 18.4392 54.95 18.2392 54.95 18.1392C54.75 17.6392 54.05 17.3392 53.55 17.1392C52.95 16.8392 52.15 16.5392 51.45 16.4392C51.45 16.5392 51.45 16.6392 51.45 16.6392Z" fill="#6B5DFF"/>
<path fill-rule="evenodd" clip-rule="evenodd" d="M57.25 18.9392C57.75 19.1392 58.35 19.3392 58.75 19.7392C59.15 20.1392 59.25 20.7392 59.55 21.2392C59.65 21.3392 59.95 21.3392 59.85 21.1392C59.75 19.7392 58.45 18.9392 57.25 18.7392C57.25 18.7392 57.15 18.8392 57.25 18.9392Z" fill="#6B5DFF"/>
<path fill-rule="evenodd" clip-rule="evenodd" d="M60.85 21.4392C60.95 21.8392 61.15 22.3392 61.15 22.8392C61.15 23.2392 61.05 23.6392 61.35 23.9392C61.45 24.0392 61.55 24.0392 61.65 23.9392C61.95 23.6392 61.85 23.1392 61.75 22.7392C61.65 22.1392 61.35 21.8392 61.05 21.3392C60.95 21.3392 60.75 21.3392 60.85 21.4392Z" fill="#6B5DFF"/>
<path fill-rule="evenodd" clip-rule="evenodd" d="M60.65 26.0392C60.05 26.4392 59.45 26.8392 58.95 27.3392C58.65 27.6392 58.25 27.8392 57.85 28.1392C57.55 28.3392 57.25 28.5392 57.05 28.8392C57.05 28.9392 57.05 29.1392 57.15 29.1392C57.85 29.2392 58.35 28.6392 58.75 28.2392C59.45 27.6392 60.05 26.8392 60.65 26.2392C60.85 26.1392 60.75 25.9392 60.65 26.0392Z" fill="#6B5DFF"/>
<path fill-rule="evenodd" clip-rule="evenodd" d="M54.45 29.8392C53.85 29.9392 53.25 29.7392 52.55 29.7392C52.05 29.7392 51.35 29.6392 50.95 30.0392C50.85 30.1392 50.85 30.3392 50.95 30.4392C51.45 30.7392 51.95 30.4392 52.45 30.4392C53.05 30.3392 53.75 30.1392 54.35 30.0392C54.55 30.0392 54.55 29.8392 54.45 29.8392Z" fill="#6B5DFF"/>
<path fill-rule="evenodd" clip-rule="evenodd" d="M49.25 31.5392C49.15 31.5392 48.95 31.6392 48.85 31.6392C48.75 31.6392 48.55 31.7392 48.45 31.8392C48.25 31.9392 47.85 32.2392 47.95 32.6392C48.05 33.0392 48.45 32.6392 48.65 32.5392C48.85 32.3392 49.15 32.0392 49.45 31.9392C49.55 31.7392 49.45 31.5392 49.25 31.5392Z" fill="#6B5DFF"/>
<path fill-rule="evenodd" clip-rule="evenodd" d="M42.05 41.3392C42.25 41.3392 42.45 41.1392 42.55 41.0392C42.85 40.8392 43.25 40.6392 43.65 40.5392C43.95 40.4392 44.25 40.3392 44.65 40.2392C44.85 40.1392 45.25 40.1392 45.35 39.8392C45.35 39.7392 45.35 39.6392 45.35 39.5392C44.85 39.1392 43.65 39.8392 43.15 40.0392C42.85 40.2392 41.65 40.7392 41.95 41.3392C41.95 41.3392 41.95 41.3392 42.05 41.3392Z" fill="#6B5DFF"/>
<path fill-rule="evenodd" clip-rule="evenodd" d="M42.45 39.3392C42.85 39.1392 43.25 39.0392 43.55 39.0392C43.85 38.9392 44.15 38.9392 44.35 38.6392C44.45 38.5392 44.35 38.4392 44.35 38.3392C44.05 38.0392 43.65 38.2392 43.25 38.3392C42.85 38.4392 42.45 38.6392 42.15 38.9392C41.95 39.1392 42.25 39.4392 42.45 39.3392Z" fill="#6B5DFF"/>
<path fill-rule="evenodd" clip-rule="evenodd" d="M43.25 37.6392C43.55 37.5392 43.95 37.4392 44.05 37.1392C44.05 37.0392 44.05 36.9392 43.95 36.9392C43.65 36.9392 43.35 37.0392 43.15 37.1392C42.85 37.3392 42.95 37.7392 43.25 37.6392Z" fill="#6B5DFF"/>
<path fill-rule="evenodd" clip-rule="evenodd" d="M43.55 36.2392C43.65 36.1392 43.85 36.0392 43.95 35.9392C43.95 35.8392 43.95 35.8392 43.95 35.7392C43.75 35.4392 43.45 35.6392 43.25 35.7392C42.95 35.9392 43.25 36.4392 43.55 36.2392Z" fill="#6B5DFF"/>
<path fill-rule="evenodd" clip-rule="evenodd" d="M51.15 32.1392C51.55 32.7392 51.85 33.3392 52.15 33.9392C52.45 34.5392 52.55 35.2392 52.95 35.6392C53.05 35.7392 53.25 35.7392 53.35 35.5392C53.45 34.9392 53.05 34.3392 52.85 33.8392C52.45 33.1392 51.95 32.5392 51.45 31.9392C51.25 31.7392 51.05 31.9392 51.15 32.1392Z" fill="#6B5DFF"/>
<path fill-rule="evenodd" clip-rule="evenodd" d="M56.25 32.2392C56.45 32.6392 56.55 33.1392 56.65 33.5392C56.75 33.9392 56.75 34.4392 57.05 34.7392C57.15 34.8392 57.35 34.7392 57.35 34.6392C57.45 34.2392 57.25 33.7392 57.15 33.4392C56.95 32.9392 56.75 32.5392 56.45 32.1392C56.35 31.9392 56.15 32.1392 56.25 32.2392Z" fill="#6B5DFF"/>
<path fill-rule="evenodd" clip-rule="evenodd" d="M59.45 31.5392C59.45 31.8392 59.55 32.1392 59.75 32.4392C59.85 32.6392 60.15 33.0392 60.45 33.0392C60.55 33.0392 60.65 32.9392 60.65 32.8392C60.75 32.5392 60.45 32.3392 60.35 32.1392C60.15 31.9392 60.05 31.6392 59.85 31.4392C59.65 31.3392 59.45 31.3392 59.45 31.5392Z" fill="#6B5DFF"/>
<path fill-rule="evenodd" clip-rule="evenodd" d="M62.55 26.2392C62.75 26.3392 62.95 26.4392 63.05 26.6392C63.25 26.7392 63.55 26.9392 63.75 26.9392C63.85 26.9392 63.95 26.8392 63.95 26.7392C63.85 26.2392 63.15 25.8392 62.75 25.7392C62.45 25.6392 62.25 26.0392 62.55 26.2392Z" fill="#6B5DFF"/>
<path fill-rule="evenodd" clip-rule="evenodd" d="M57.15 41.5392C57.45 41.6392 57.85 41.9392 58.15 41.7392C58.25 41.7392 58.25 41.6392 58.15 41.5392C58.05 41.4392 57.95 41.4392 57.75 41.4392C57.55 41.4392 57.45 41.3392 57.35 41.2392C57.15 41.1392 56.95 41.4392 57.15 41.5392Z" fill="#6B5DFF"/>
<path fill-rule="evenodd" clip-rule="evenodd" d="M59.55 40.8392C59.65 40.8392 59.75 40.8392 59.75 40.6392C59.75 40.5392 59.65 40.5392 59.55 40.4392C59.25 40.5392 59.25 40.9392 59.55 40.8392Z" fill="#6B5DFF"/>
<path fill-rule="evenodd" clip-rule="evenodd" d="M39.15 49.3392C39.35 49.8392 39.55 50.2392 39.85 50.6392C40.05 51.0392 40.35 51.4392 40.75 51.6392C40.85 51.7392 40.95 51.6392 40.95 51.5392C40.95 51.1392 40.65 50.8392 40.45 50.5392C40.15 50.1392 39.75 49.7392 39.55 49.2392C39.45 48.9392 39.15 49.1392 39.15 49.3392Z" fill="#6B5DFF"/>
<path fill-rule="evenodd" clip-rule="evenodd" d="M39.25 51.7392C39.35 52.0392 39.55 52.2392 39.65 52.5392C39.75 52.7392 39.95 52.9392 40.15 53.0392C40.25 53.0392 40.35 52.9392 40.35 52.8392C40.25 52.6392 40.05 52.4392 39.95 52.3392C39.75 52.1392 39.65 51.8392 39.55 51.6392C39.45 51.4392 39.15 51.5392 39.25 51.7392Z" fill="#6B5DFF"/>
<path fill-rule="evenodd" clip-rule="evenodd" d="M39.45 54.0392C39.55 54.1392 39.65 54.2392 39.75 54.3392C39.85 54.3392 39.85 54.3392 39.85 54.2392C39.75 54.1392 39.75 54.0392 39.65 53.8392C39.55 53.7392 39.35 53.9392 39.45 54.0392Z" fill="#6B5DFF"/>
<path fill-rule="evenodd" clip-rule="evenodd" d="M39.45 55.4392C39.65 55.7392 39.85 56.2392 40.15 56.4392C40.25 56.5392 40.35 56.4392 40.35 56.2392C40.25 55.8392 40.05 55.5392 39.75 55.1392C39.65 55.0392 39.25 55.2392 39.45 55.4392Z" fill="#6B5DFF"/>
<path fill-rule="evenodd" clip-rule="evenodd" d="M20.95 46.7392C20.95 46.7392 15.95 50.8392 11.55 50.0392C7.14999 49.2392 0.549988 41.7392 0.549988 41.7392C0.549988 41.7392 2.34997 42.4392 4.24997 41.9392C6.04997 41.4392 11.45 38.7392 14.75 39.0392C17.95 39.5392 22.25 44.5392 20.95 46.7392Z" fill="#F0F2FB"/>
<path fill-rule="evenodd" clip-rule="evenodd" d="M21.35 47.1392C21.35 47.1392 16.15 51.4392 11.45 50.5392C6.84999 49.7392 0.15 42.1392 0.15 42.1392C-0.05 41.9392 -0.05 41.5392 0.15 41.3392C0.35 41.2392 0.549976 41.1392 0.749976 41.2392C0.749976 41.2392 2.44999 41.9392 4.04999 41.4392C4.44999 41.3392 5.14999 41.0392 6.04999 40.7392C8.54999 39.7392 12.25 38.3392 14.75 38.6392C15.55 38.7392 16.45 39.0392 17.25 39.5392C18.45 40.2392 19.65 41.3392 20.45 42.5392C21.35 43.7392 21.85 45.0392 21.75 46.0392C21.75 46.3392 21.65 46.7392 21.45 46.9392C21.45 47.1392 21.35 47.1392 21.35 47.1392ZM11.65 49.5392C15.45 50.2392 19.85 46.9392 20.55 46.4392C20.65 46.3392 20.65 46.2392 20.65 46.0392C20.75 45.2392 20.35 44.2392 19.55 43.3392C18.85 42.3392 17.75 41.3392 16.65 40.6392C15.95 40.2392 15.25 39.9392 14.65 39.8392C12.35 39.5392 8.84999 40.9392 6.44999 41.9392C5.54999 42.2392 4.84998 42.5392 4.34998 42.7392C3.64998 42.9392 2.84998 42.9392 2.24998 42.9392C4.34998 44.9392 8.55 48.9392 11.65 49.5392Z" fill="#6B5DFF"/>
<path fill-rule="evenodd" clip-rule="evenodd" d="M37.05 29.8392C37.05 29.8392 32.05 29.3392 30.05 29.2392C28.15 29.1392 21.55 30.7392 20.15 34.0392C18.75 37.2392 17.75 50.7392 17.75 53.3392C17.75 55.9392 24.15 62.6392 24.45 65.1392C24.75 67.6392 25.05 72.9392 27.25 74.2392C29.55 75.5392 29.95 78.9392 32.25 79.7392C34.55 80.5392 36.85 79.8392 36.85 79.8392L37.05 29.8392Z" fill="#F0F2FB"/>
<path fill-rule="evenodd" clip-rule="evenodd" d="M36.45 30.3392C35.15 30.2392 31.55 29.8392 30.05 29.8392C28.95 29.8392 26.25 30.3392 23.95 31.4392C22.45 32.1392 21.15 33.1392 20.65 34.2392C20.15 35.4392 19.65 38.2392 19.25 41.3392C18.65 46.2392 18.25 51.8392 18.25 53.3392C18.25 54.5392 19.95 56.9392 21.65 59.3392C23.25 61.5392 24.75 63.7392 24.95 65.0392C24.95 65.4392 25.05 65.8392 25.05 66.2392C25.35 68.8392 25.75 72.7392 27.45 73.7392C28.65 74.4392 29.35 75.6392 30.05 76.7392C30.65 77.8392 31.35 78.8392 32.35 79.2392C33.85 79.8392 35.45 79.6392 36.15 79.4392L36.45 30.3392ZM30.05 28.7392C32.05 28.8392 37.05 29.3392 37.05 29.3392C37.35 29.3392 37.55 29.6392 37.55 29.9392L37.45 79.9392C37.45 80.2392 37.25 80.4392 37.05 80.5392C37.05 80.5392 34.55 81.2392 32.15 80.4392C30.75 79.9392 30.05 78.7392 29.25 77.4392C28.65 76.4392 28.05 75.4392 27.05 74.8392C24.85 73.5392 24.35 69.2392 24.05 66.4392C24.05 66.0392 23.95 65.6392 23.95 65.3392C23.85 64.3392 22.35 62.2392 20.85 60.1392C19.05 57.6392 17.25 55.0392 17.25 53.5392C17.25 51.9392 17.65 46.2392 18.25 41.3392C18.65 38.1392 19.15 35.2392 19.65 33.9392C20.25 32.4392 21.75 31.3392 23.45 30.5392C25.85 29.2392 28.85 28.6392 30.05 28.7392Z" fill="#6B5DFF"/>
<path fill-rule="evenodd" clip-rule="evenodd" d="M26.55 32.1392C26.55 32.1392 25.35 40.5392 22.75 40.9392C20.15 41.2392 17.35 39.3392 17.35 39.3392C17.25 39.6392 11.95 38.8392 11.65 38.1392C10.05 38.1392 6.05 34.0392 6.05 34.0392C4.85 34.0392 2.24999 29.1392 2.84999 28.1392C2.14999 26.9392 2.75 21.3392 3.65 21.2392C3.95 19.8392 7.64998 15.6392 9.24998 15.5392C10.25 14.2392 13.35 13.0392 14.85 13.0392C15.75 11.9392 21.35 10.7392 21.85 10.8392C22.05 9.53923 24.05 8.93923 23.75 6.83923C23.55 4.73923 23.35 1.83923 22.65 0.839229C21.95 -0.160771 28.45 3.73923 27.35 10.3392C27.65 12.2392 26.15 14.8392 24.95 15.5392C23.95 17.3392 20.85 18.7392 18.95 18.4392C18.15 19.3392 15.65 20.9392 14.45 20.9392C14.05 22.0392 13.15 23.2392 12.75 23.7392C14.45 25.1392 16.65 27.3392 17.25 28.7392C17.85 28.4392 20.65 28.3392 21.25 29.1392C21.75 29.9392 25.95 30.0392 26.55 32.1392Z" fill="#F0F2FB"/>
<path fill-rule="evenodd" clip-rule="evenodd" d="M27.15 32.2392C27.15 32.2392 25.85 41.1392 22.85 41.5392C20.45 41.8392 18.05 40.4392 17.25 40.0392C16.75 40.0392 15.95 40.0392 15.05 39.8392C13.95 39.6392 12.75 39.4392 12.05 39.1392C11.75 39.0392 11.55 38.9392 11.45 38.7392C9.74997 38.4392 6.54997 35.3392 5.84997 34.6392C5.74997 34.6392 5.54997 34.5392 5.44997 34.4392C4.74997 34.0392 3.94997 32.9392 3.34997 31.8392C2.74997 30.7392 2.24996 29.4392 2.24996 28.6392C2.24996 28.4392 2.24997 28.3392 2.34997 28.2392C2.24997 28.0392 2.14998 27.7392 2.14998 27.4392C2.04998 26.4392 2.04996 24.9392 2.24996 23.7392C2.44996 22.4392 2.84996 21.3392 3.24996 20.9392C3.54996 20.0392 4.64997 18.5392 5.84997 17.3392C6.94997 16.2392 8.14998 15.3392 9.04998 15.1392C9.64998 14.5392 10.55 13.9392 11.55 13.5392C12.65 13.0392 13.85 12.7392 14.75 12.6392C15.25 12.1392 16.35 11.7392 17.55 11.3392C18.95 10.9392 20.65 10.5392 21.55 10.4392C21.75 9.9392 22.05 9.63922 22.45 9.23922C22.95 8.63922 23.55 8.03921 23.45 7.03921C23.45 6.73921 23.35 6.33923 23.35 5.83923C23.15 4.03923 22.95 1.93923 22.45 1.33923C22.35 1.13923 22.25 1.03923 22.25 0.839227C22.25 0.239227 22.75 0.0392086 23.55 0.539209C23.85 0.739209 24.25 0.939227 24.65 1.33923C26.35 2.83923 28.85 6.13921 28.25 10.5392C28.35 11.5392 28.15 12.6392 27.65 13.6392C27.15 14.7392 26.35 15.6392 25.65 16.1392C25.05 17.0392 24.05 17.8392 22.85 18.4392C21.75 19.0392 20.45 19.3392 19.45 19.2392C18.95 19.7392 18.05 20.3392 17.15 20.8392C16.45 21.2392 15.75 21.5392 15.15 21.6392C14.95 22.0392 14.75 22.4392 14.55 22.7392C14.35 23.1392 14.05 23.5392 13.85 23.8392C14.65 24.5392 15.65 25.4392 16.35 26.3392C16.95 27.0392 17.45 27.6392 17.75 28.2392C18.35 28.1392 19.15 28.0392 19.95 28.1392C20.75 28.2392 21.55 28.4392 21.85 28.9392C21.95 29.0392 22.55 29.2392 23.25 29.4392C24.75 29.9392 26.75 30.4392 27.25 32.0392C27.15 32.0392 27.15 32.1392 27.15 32.2392ZM22.65 40.3392C24.65 40.1392 25.75 33.2392 25.95 32.2392C25.55 31.3392 23.95 30.8392 22.75 30.4392C21.85 30.1392 21.05 29.9392 20.75 29.4392C20.65 29.2392 20.15 29.1392 19.65 29.1392C18.75 29.0392 17.85 29.1392 17.55 29.2392C17.25 29.3392 16.95 29.2392 16.85 28.9392C16.65 28.4392 16.05 27.6392 15.45 26.9392C14.55 25.9392 13.45 24.9392 12.55 24.2392C12.35 24.0392 12.25 23.6392 12.45 23.4392C12.65 23.1392 13.05 22.6392 13.45 22.0392C13.65 21.6392 13.95 21.2392 14.05 20.7392C14.15 20.5392 14.35 20.3392 14.55 20.3392C14.95 20.3392 15.65 20.0392 16.45 19.6392C17.35 19.1392 18.15 18.5392 18.65 18.0392C18.75 17.9392 18.95 17.8392 19.15 17.8392C19.95 17.9392 21.15 17.7392 22.25 17.1392C23.25 16.6392 24.15 15.9392 24.65 15.1392C24.65 15.0392 24.75 14.9392 24.85 14.9392C25.45 14.6392 26.05 13.7392 26.55 12.8392C26.95 12.0392 27.15 11.1392 27.05 10.3392C27.05 10.2392 27.05 10.2392 27.05 10.1392C27.65 6.33921 25.55 3.43921 24.05 2.03921C24.25 3.03921 24.45 4.33921 24.55 5.53921C24.55 5.93921 24.65 6.23922 24.65 6.73922C24.85 8.23922 24.05 9.03923 23.35 9.83923C23.05 10.2392 22.75 10.5392 22.65 10.8392V10.9392C22.55 11.2392 22.25 11.4392 21.95 11.3392C21.75 11.2392 19.85 11.6392 18.05 12.2392C16.95 12.6392 15.95 12.9392 15.65 13.3392C15.55 13.4392 15.35 13.5392 15.15 13.5392C14.45 13.5392 13.25 13.8392 12.25 14.3392C11.35 14.7392 10.45 15.2392 10.05 15.8392C9.94998 15.9392 9.84998 16.0392 9.64998 16.0392C9.04998 16.0392 7.94997 16.9392 6.94997 17.9392C5.74997 19.1392 4.64998 20.5392 4.54998 21.2392C4.54998 21.4392 4.34998 21.6392 4.14998 21.6392C3.94998 21.8392 3.74998 22.6392 3.64998 23.6392C3.44998 24.8392 3.44998 26.1392 3.54998 27.0392C3.54998 27.3392 3.64996 27.5392 3.74996 27.6392C3.84996 27.8392 3.84996 28.0392 3.74996 28.2392C3.74996 28.2392 3.74996 28.3392 3.74996 28.4392C3.74996 29.0392 4.14998 30.0392 4.64998 31.0392C5.14998 32.0392 5.84997 32.9392 6.34997 33.2392C6.44997 33.2392 6.44997 33.3392 6.44997 33.3392C6.54997 33.3392 6.74997 33.4392 6.84997 33.5392C6.84997 33.5392 10.65 37.4392 11.95 37.4392C12.15 37.4392 12.45 37.5392 12.55 37.7392C12.55 37.7392 12.65 37.7392 12.75 37.8392C13.35 38.1392 14.55 38.3392 15.55 38.5392C16.45 38.6392 17.25 38.7392 17.35 38.7392C17.55 38.6392 17.75 38.6392 17.95 38.7392C17.65 38.8392 20.25 40.6392 22.65 40.3392Z" fill="#6B5DFF"/>
<path fill-rule="evenodd" clip-rule="evenodd" d="M29.25 50.6392C29.25 49.9392 29.25 48.7392 28.95 48.2392C28.75 47.7392 26.65 46.3392 25.35 45.5392C25.55 47.1392 26.45 49.9392 29.25 50.6392ZM29.95 47.7392C30.45 48.6392 30.35 51.0392 30.35 51.3392C30.35 51.3392 30.35 51.3392 30.35 51.4392C30.35 51.7392 30.05 51.9392 29.75 51.9392C24.25 51.2392 24.15 44.5392 24.15 44.4392C24.15 44.3392 24.15 44.2392 24.25 44.1392C24.45 43.8392 24.75 43.7392 25.05 43.9392C24.95 43.9392 29.45 46.7392 29.95 47.7392Z" fill="#6B5DFF"/>
<path fill-rule="evenodd" clip-rule="evenodd" d="M33.05 47.5392C33.05 48.8392 32.05 49.1392 30.95 48.7392C30.25 48.5392 29.65 48.1392 29.15 47.7392C28.85 47.5392 28.25 47.2392 28.15 46.7392C28.15 46.6392 28.25 46.5392 28.25 46.5392C28.85 46.4392 29.65 47.2392 30.05 47.5392C30.95 48.1392 32.35 48.9392 32.85 47.4392C32.85 47.4392 33.05 47.4392 33.05 47.5392Z" fill="#6B5DFF"/>
<path fill-rule="evenodd" clip-rule="evenodd" d="M25.95 50.9392C25.05 50.3392 24.65 48.8392 24.45 47.8392C24.25 47.1392 23.75 45.3392 24.45 44.8392C24.55 44.8392 24.65 44.8392 24.65 44.9392C24.85 45.2392 24.75 45.5392 24.75 45.8392C24.75 46.4392 24.85 47.1392 24.95 47.7392C25.05 48.8392 25.55 49.9392 25.95 50.9392C26.05 51.0392 26.05 50.9392 25.95 50.9392Z" fill="#6B5DFF"/>
<path fill-rule="evenodd" clip-rule="evenodd" d="M32.95 62.5392C32.45 62.1392 31.85 62.1392 31.25 62.2392C31.05 62.2392 30.75 62.3392 30.55 62.2392C30.45 62.1392 30.45 61.9392 30.55 61.8392C30.95 61.4392 31.65 61.4392 32.15 61.5392C32.65 61.6392 33.25 61.8392 33.25 62.4392C33.25 62.6392 33.05 62.6392 32.95 62.5392Z" fill="#6B5DFF"/>
<path fill-rule="evenodd" clip-rule="evenodd" d="M32.95 60.5392C32.55 60.4392 32.15 60.4392 31.75 60.4392C31.35 60.4392 30.95 60.5392 30.75 60.2392C30.75 60.2392 30.75 60.1392 30.75 60.0392C30.95 59.7392 31.35 59.8392 31.65 59.8392C32.05 59.9392 32.55 60.0392 32.95 60.1392C33.15 60.2392 33.15 60.6392 32.95 60.5392Z" fill="#6B5DFF"/>
<path fill-rule="evenodd" clip-rule="evenodd" d="M32.65 58.7392C32.35 58.7392 32.05 58.7392 31.75 58.7392C31.55 58.7392 31.25 58.7392 31.25 58.4392C31.25 58.1392 31.65 58.1392 31.75 58.2392C32.05 58.3392 32.45 58.3392 32.75 58.4392C32.95 58.4392 32.85 58.7392 32.65 58.7392Z" fill="#6B5DFF"/>
<path fill-rule="evenodd" clip-rule="evenodd" d="M32.15 57.3392C31.85 57.3392 31.35 57.4392 31.25 57.0392C31.25 56.8392 31.45 56.8392 31.55 56.8392C31.75 56.8392 31.85 56.8392 32.05 56.9392C32.45 56.8392 32.45 57.3392 32.15 57.3392Z" fill="#6B5DFF"/>
<path fill-rule="evenodd" clip-rule="evenodd" d="M31.55 56.0392C31.35 55.8392 31.45 55.6392 31.65 55.6392C31.75 55.6392 31.85 55.6392 31.85 55.7392C32.25 55.8392 31.85 56.3392 31.55 56.0392Z" fill="#6B5DFF"/>
<path fill-rule="evenodd" clip-rule="evenodd" d="M20.75 55.1392C20.95 55.6392 21.25 56.2392 21.45 56.7392C21.65 57.2392 22.05 57.8392 22.15 58.4392C22.15 58.5392 22.05 58.5392 21.95 58.5392C21.05 57.8392 20.55 56.4392 20.45 55.3392C20.45 55.0392 20.75 54.9392 20.75 55.1392Z" fill="#6B5DFF"/>
<path fill-rule="evenodd" clip-rule="evenodd" d="M22.55 59.0392C23.95 61.2392 25.65 64.2392 24.95 66.9392C24.85 67.1392 24.65 67.1392 24.55 66.9392C24.15 65.7392 24.25 64.4392 24.05 63.2392C23.65 61.8392 23.05 60.5392 22.55 59.0392C22.45 59.0392 22.45 59.0392 22.55 59.0392Z" fill="#6B5DFF"/>
<path fill-rule="evenodd" clip-rule="evenodd" d="M21.65 47.3392C21.85 48.5392 22.65 49.6392 22.75 50.8392C22.75 51.0392 22.55 51.0392 22.45 50.9392C21.55 50.0392 21.45 48.5392 21.35 47.3392C21.35 47.1392 21.65 47.1392 21.65 47.3392Z" fill="#6B5DFF"/>
<path fill-rule="evenodd" clip-rule="evenodd" d="M20.95 48.2392C21.45 49.4392 21.95 50.7392 21.95 52.0392C21.95 52.2392 21.75 52.2392 21.65 52.1392C20.85 51.1392 20.65 49.6392 20.35 48.4392C20.35 48.0392 20.75 47.9392 20.95 48.2392Z" fill="#6B5DFF"/>
<path fill-rule="evenodd" clip-rule="evenodd" d="M20.55 50.5392C20.75 51.2392 21.65 52.4392 21.05 53.1392C20.95 53.2392 20.75 53.3392 20.65 53.1392C20.45 52.8392 20.35 52.4392 20.25 52.0392C20.15 51.5392 20.05 51.0392 19.85 50.5392C19.95 50.3392 20.45 50.2392 20.55 50.5392Z" fill="#6B5DFF"/>
<path fill-rule="evenodd" clip-rule="evenodd" d="M20.05 52.2392C20.15 52.5392 20.25 52.8392 20.35 53.0392C20.45 53.2392 20.55 53.5392 20.45 53.7392C20.45 53.8392 20.35 53.8392 20.25 53.8392C20.05 53.7392 19.95 53.4392 19.85 53.2392C19.75 52.9392 19.65 52.6392 19.55 52.3392C19.35 52.0392 19.95 51.8392 20.05 52.2392Z" fill="#6B5DFF"/>
<path fill-rule="evenodd" clip-rule="evenodd" d="M1.24996 42.0392C2.54996 42.4392 3.74998 43.2392 5.14998 43.5392C7.04998 43.9392 8.94995 43.2392 10.75 42.8392C13.25 42.3392 16.75 41.9392 18.85 43.8392C19.05 44.0392 18.85 44.4392 18.55 44.3392C16.95 43.7392 15.65 43.2392 13.85 43.2392C12.05 43.2392 10.15 43.7392 8.44997 44.0392C6.04997 44.4392 2.94998 44.2392 1.14998 42.4392C0.94998 42.2392 1.04996 42.0392 1.24996 42.0392Z" fill="#6B5DFF"/>
<path fill-rule="evenodd" clip-rule="evenodd" d="M16.95 46.1392C17.05 46.4392 17.05 46.7392 17.05 47.0392C17.05 47.3392 16.95 47.6392 16.75 47.7392C16.65 47.7392 16.55 47.7392 16.55 47.6392C16.45 47.4392 16.55 47.2392 16.55 47.0392C16.65 46.7392 16.65 46.4392 16.55 46.1392C16.55 46.0392 16.85 45.9392 16.95 46.1392Z" fill="#6B5DFF"/>
<path fill-rule="evenodd" clip-rule="evenodd" d="M15.65 46.5392C15.55 46.9392 15.45 47.2392 15.35 47.6392C15.25 47.9392 15.15 48.2392 14.85 48.2392C14.75 48.2392 14.75 48.2392 14.65 48.1392C14.45 47.9392 14.65 47.6392 14.75 47.3392C14.85 47.0392 14.95 46.7392 15.05 46.4392C15.25 46.1392 15.75 46.2392 15.65 46.5392Z" fill="#6B5DFF"/>
<path fill-rule="evenodd" clip-rule="evenodd" d="M13.95 47.2392C13.95 47.4392 13.85 47.6392 13.75 47.8392C13.65 48.0392 13.35 47.8392 13.45 47.6392C13.55 47.5392 13.55 47.3392 13.55 47.2392C13.55 47.0392 13.95 47.0392 13.95 47.2392Z" fill="#6B5DFF"/>
<path fill-rule="evenodd" clip-rule="evenodd" d="M12.45 46.9392C12.35 47.3392 12.15 47.7392 11.85 48.0392C11.75 48.1392 11.55 48.1392 11.45 48.0392C11.25 47.9392 11.25 47.7392 11.35 47.6392C11.45 47.3392 11.75 47.0392 11.75 46.7392C11.95 46.4392 12.55 46.5392 12.45 46.9392Z" fill="#6B5DFF"/>
<path fill-rule="evenodd" clip-rule="evenodd" d="M22.15 43.9392C23.05 43.0392 25.35 44.0392 25.95 44.9392C26.05 45.1392 25.85 45.3392 25.65 45.3392C25.05 45.2392 24.55 44.7392 23.95 44.5392C23.35 44.3392 22.65 44.4392 22.15 44.1392C22.05 44.0392 22.05 43.9392 22.15 43.9392Z" fill="#6B5DFF"/>
<path fill-rule="evenodd" clip-rule="evenodd" d="M27.65 36.4392C27.05 37.7392 26.55 39.0392 25.45 40.0392C24.65 40.8392 23.05 41.4392 21.85 41.0392C21.65 40.9392 21.65 40.7392 21.85 40.6392C22.45 40.4392 23.05 40.4392 23.65 40.2392C24.25 40.0392 24.85 39.6392 25.25 39.1392C26.15 38.3392 26.75 37.3392 27.65 36.4392Z" fill="#6B5DFF"/>
<path fill-rule="evenodd" clip-rule="evenodd" d="M28.35 30.7392C28.95 31.2392 29.45 31.8392 29.65 32.6392C29.75 33.0392 29.15 33.2392 29.05 32.9392C28.75 32.3392 28.65 31.6392 28.15 31.1392C27.95 30.9392 28.15 30.6392 28.35 30.7392Z" fill="#6B5DFF"/>
<path fill-rule="evenodd" clip-rule="evenodd" d="M30.25 31.5392C30.35 31.7392 30.45 32.0392 30.55 32.2392C30.65 32.4392 30.75 32.7392 30.55 32.8392C30.15 33.0392 29.95 32.0392 29.85 31.8392C29.55 31.4392 30.05 31.1392 30.25 31.5392Z" fill="#6B5DFF"/>
<path fill-rule="evenodd" clip-rule="evenodd" d="M31.15 31.4392C31.45 31.8392 31.95 32.4392 31.85 33.0392C31.85 33.1392 31.75 33.1392 31.65 33.1392C31.05 32.9392 31.05 32.1392 30.75 31.7392C30.65 31.5392 31.05 31.2392 31.15 31.4392Z" fill="#6B5DFF"/>
<path fill-rule="evenodd" clip-rule="evenodd" d="M32.55 31.9392C32.55 32.0392 32.65 32.2392 32.65 32.3392C32.75 32.4392 32.75 32.6392 32.75 32.7392C32.75 32.8392 32.65 32.8392 32.65 32.8392C32.45 32.8392 32.45 32.6392 32.35 32.5392C32.25 32.3392 32.25 32.2392 32.15 32.0392C32.15 31.7392 32.45 31.6392 32.55 31.9392Z" fill="#6B5DFF"/>
<path fill-rule="evenodd" clip-rule="evenodd" d="M34.05 31.7392C34.25 32.0392 34.35 32.3392 34.35 32.6392C34.35 32.9392 33.95 33.0392 33.85 32.7392C33.75 32.4392 33.75 32.2392 33.55 31.9392C33.35 31.7392 33.85 31.4392 34.05 31.7392Z" fill="#6B5DFF"/>
<path fill-rule="evenodd" clip-rule="evenodd" d="M34.95 31.7392C35.05 31.9392 35.25 32.1392 35.15 32.4392C35.15 32.5392 34.95 32.6392 34.85 32.5392C34.65 32.4392 34.55 32.2392 34.45 32.0392C34.35 31.6392 34.85 31.4392 34.95 31.7392Z" fill="#6B5DFF"/>
<path fill-rule="evenodd" clip-rule="evenodd" d="M32.85 46.4392C32.65 46.5392 32.45 46.7392 32.15 46.8392C31.95 46.9392 31.65 47.0392 31.45 46.9392C31.35 46.9392 31.35 46.8392 31.45 46.7392C31.65 46.6392 31.85 46.5392 32.05 46.5392C32.35 46.4392 32.55 46.4392 32.75 46.2392C32.85 46.2392 32.95 46.3392 32.85 46.4392Z" fill="#6B5DFF"/>
<path fill-rule="evenodd" clip-rule="evenodd" d="M31.55 45.7392C31.35 46.0392 30.65 46.5392 30.25 46.1392C30.25 46.1392 30.25 46.0392 30.25 45.9392C30.35 45.8392 30.55 45.7392 30.65 45.7392C30.85 45.6392 31.05 45.5392 31.15 45.4392C31.45 45.3392 31.75 45.5392 31.55 45.7392Z" fill="#6B5DFF"/>
<path fill-rule="evenodd" clip-rule="evenodd" d="M30.35 45.4392C30.05 45.5392 29.45 45.6392 29.35 45.3392C29.35 45.1392 29.55 45.0392 29.65 45.0392C29.85 45.0392 29.95 45.0392 30.15 44.9392C30.55 44.7392 30.65 45.3392 30.35 45.4392Z" fill="#6B5DFF"/>
<path fill-rule="evenodd" clip-rule="evenodd" d="M28.95 44.1392C28.85 44.1392 28.65 44.2392 28.55 44.2392C28.35 44.2392 28.25 44.2392 28.05 44.2392C27.85 44.1392 27.85 43.8392 28.05 43.7392C28.25 43.6392 28.55 43.5392 28.75 43.5392C28.95 43.4392 29.15 43.6392 29.15 43.7392C29.15 43.9392 29.05 44.1392 28.95 44.1392Z" fill="#6B5DFF"/>
<path fill-rule="evenodd" clip-rule="evenodd" d="M27.25 43.5392C27.15 43.5392 27.05 43.5392 26.95 43.5392C26.85 43.5392 26.85 43.4392 26.85 43.4392C26.85 43.2392 27.15 43.1392 27.35 43.1392C27.55 43.0392 27.55 43.5392 27.25 43.5392Z" fill="#6B5DFF"/>
<path fill-rule="evenodd" clip-rule="evenodd" d="M27.55 52.3392C28.25 52.8392 29.05 53.1392 29.75 53.6392C29.85 53.7392 29.75 53.8392 29.65 53.8392C28.65 53.8392 28.05 53.1392 27.45 52.5392C27.25 52.4392 27.35 52.2392 27.55 52.3392Z" fill="#6B5DFF"/>
<path fill-rule="evenodd" clip-rule="evenodd" d="M26.55 53.2392C26.85 53.6392 27.25 53.9392 27.65 54.2392C27.95 54.5392 28.45 54.7392 28.65 55.2392C28.75 55.3392 28.65 55.4392 28.55 55.5392C28.05 55.6392 27.55 55.3392 27.15 54.9392C26.65 54.5392 26.45 54.0392 26.15 53.4392C26.25 53.1392 26.45 53.0392 26.55 53.2392Z" fill="#6B5DFF"/>
<path fill-rule="evenodd" clip-rule="evenodd" d="M26.95 55.6392C27.05 55.8392 27.25 55.9392 27.35 56.1392C27.45 56.2392 27.65 56.4392 27.65 56.6392C27.65 56.7392 27.55 56.8392 27.45 56.8392C27.25 56.8392 27.05 56.6392 26.85 56.4392C26.65 56.2392 26.55 56.0392 26.35 55.8392C26.25 55.7392 26.35 55.5392 26.45 55.4392C26.75 55.5392 26.85 55.5392 26.95 55.6392Z" fill="#6B5DFF"/>
<path fill-rule="evenodd" clip-rule="evenodd" d="M26.75 57.0392C26.95 57.1392 27.05 57.3392 27.25 57.5392C27.35 57.7392 27.55 57.8392 27.55 58.1392C27.55 58.2392 27.45 58.3392 27.35 58.2392C27.15 58.2392 27.05 58.0392 26.95 57.8392C26.85 57.6392 26.65 57.5392 26.55 57.4392C26.25 57.1392 26.55 56.8392 26.75 57.0392Z" fill="#6B5DFF"/>
<path fill-rule="evenodd" clip-rule="evenodd" d="M26.65 58.9392C26.75 59.1392 26.85 59.2392 26.85 59.4392C26.85 59.5392 26.75 59.5392 26.75 59.5392C26.55 59.5392 26.45 59.4392 26.35 59.2392C26.05 59.0392 26.45 58.6392 26.65 58.9392Z" fill="#6B5DFF"/>
<path fill-rule="evenodd" clip-rule="evenodd" d="M25.65 61.5392C25.85 62.3392 25.75 63.2392 25.55 64.0392C25.35 64.9392 25.15 66.0392 24.75 66.7392C24.65 66.8392 24.45 66.8392 24.45 66.6392C24.45 65.8392 24.85 64.9392 25.05 64.1392C25.25 63.2392 25.35 62.3392 25.55 61.4392C25.45 61.4392 25.65 61.5392 25.65 61.5392Z" fill="#6B5DFF"/>
<path fill-rule="evenodd" clip-rule="evenodd" d="M34.75 45.3392C33.05 44.6392 31.75 43.3392 30.05 42.6392C28.45 41.9392 26.85 42.5392 25.25 42.2392C25.05 42.2392 25.05 41.8392 25.15 41.7392C26.45 40.9392 28.35 41.2392 29.75 41.6392C31.65 42.2392 33.15 44.0392 34.85 45.1392C35.05 45.2392 34.95 45.4392 34.75 45.3392Z" fill="#6B5DFF"/>
<path fill-rule="evenodd" clip-rule="evenodd" d="M25.45 45.1392C25.55 45.2392 25.55 45.4392 25.55 45.5392C25.55 45.7392 25.55 45.9392 25.55 46.1392C25.55 46.3392 25.35 46.4392 25.15 46.3392C24.95 46.3392 24.95 46.1392 24.95 45.9392C24.95 45.8392 25.05 45.6392 25.05 45.5392C25.05 45.4392 25.05 45.2392 25.15 45.1392C25.25 45.0392 25.35 45.0392 25.45 45.1392Z" fill="#6B5DFF"/>
<path fill-rule="evenodd" clip-rule="evenodd" d="M25.35 45.6392C25.35 45.8392 25.45 46.0392 25.45 46.2392C25.45 46.3392 25.45 46.3392 25.35 46.4392H25.25C25.15 46.4392 25.15 46.3392 25.15 46.2392C25.15 46.0392 25.25 45.8392 25.25 45.6392C25.25 45.5392 25.35 45.5392 25.35 45.6392Z" fill="#6B5DFF"/>
<path fill-rule="evenodd" clip-rule="evenodd" d="M25.45 46.1392C25.45 46.2392 25.45 46.4392 25.45 46.5392C25.45 46.6392 25.55 46.8392 25.35 46.9392C25.25 46.9392 25.25 46.9392 25.15 46.9392C25.05 46.8392 25.05 46.6392 25.05 46.5392C25.05 46.4392 25.05 46.2392 25.05 46.1392C25.25 45.9392 25.35 45.9392 25.45 46.1392Z" fill="#6B5DFF"/>
<path fill-rule="evenodd" clip-rule="evenodd" d="M25.65 45.1392C25.75 46.0392 25.65 47.1392 25.45 48.0392C25.45 48.1392 25.25 48.1392 25.25 48.0392C24.85 47.1392 25.35 46.0392 25.45 45.0392C25.45 44.9392 25.65 45.0392 25.65 45.1392Z" fill="#6B5DFF"/>
<path fill-rule="evenodd" clip-rule="evenodd" d="M25.65 45.2392C25.95 45.8392 25.95 46.3392 26.05 46.9392C26.05 47.3392 26.05 47.7392 26.15 48.1392C26.25 48.5392 26.55 48.8392 26.65 49.3392C26.65 49.4392 26.55 49.5392 26.45 49.5392C25.95 49.1392 25.65 48.3392 25.55 47.7392C25.45 46.9392 25.55 46.1392 25.55 45.3392C25.55 45.2392 25.65 45.1392 25.65 45.2392Z" fill="#6B5DFF"/>
<path fill-rule="evenodd" clip-rule="evenodd" d="M26.05 45.1392C26.25 45.8392 26.15 46.4392 26.15 47.0392C26.15 47.9392 26.35 48.6392 26.75 49.4392C26.85 49.5392 26.65 49.7392 26.55 49.6392C25.55 48.4392 25.35 46.5392 25.75 45.1392C25.85 45.0392 26.05 45.0392 26.05 45.1392Z" fill="#6B5DFF"/>
<path fill-rule="evenodd" clip-rule="evenodd" d="M21.65 41.9392C21.25 42.0392 20.95 42.0392 20.55 41.9392C20.25 41.8392 19.75 41.5392 19.65 41.2392C19.65 41.1392 19.65 41.0392 19.75 41.0392C20.05 41.0392 20.25 41.2392 20.45 41.4392C20.85 41.6392 21.25 41.9392 21.65 41.9392Z" fill="#6B5DFF"/>
<path fill-rule="evenodd" clip-rule="evenodd" d="M20.95 43.1392C20.75 43.1392 20.55 43.0392 20.25 42.9392C20.05 42.8392 19.75 42.7392 19.75 42.4392C19.75 42.3392 19.85 42.2392 19.95 42.2392C20.15 42.2392 20.25 42.4392 20.45 42.5392C20.55 42.6392 20.85 42.7392 21.05 42.7392C21.25 42.9392 21.15 43.1392 20.95 43.1392Z" fill="#6B5DFF"/>
<path fill-rule="evenodd" clip-rule="evenodd" d="M20.35 44.5392C20.15 44.5392 19.95 44.4392 19.85 44.3392C19.65 44.1392 19.85 43.8392 20.15 43.8392C20.25 43.8392 20.35 43.9392 20.45 43.9392C20.75 43.9392 20.75 44.5392 20.35 44.5392Z" fill="#6B5DFF"/>
<path fill-rule="evenodd" clip-rule="evenodd" d="M24.55 30.6392C22.35 28.2392 20.45 33.8392 20.05 35.2392C19.65 36.6392 18.65 39.8392 16.65 39.3392C16.35 39.2392 16.35 38.8392 16.65 38.7392C19.15 37.8392 19.25 34.0392 20.45 31.9392C21.25 30.6392 23.45 28.3392 24.55 30.6392Z" fill="#6B5DFF"/>
<path fill-rule="evenodd" clip-rule="evenodd" d="M17.95 28.5392C17.85 28.5392 17.75 28.5392 17.75 28.6392H17.65C17.75 28.4392 17.85 28.4392 17.95 28.5392C18.05 28.5392 18.05 28.4392 17.95 28.5392Z" fill="#6B5DFF"/>
<path fill-rule="evenodd" clip-rule="evenodd" d="M18.15 28.8392C17.05 28.9392 16.85 30.9392 16.55 31.7392C16.25 32.6392 15.75 33.4392 15.35 34.2392C14.65 35.6392 13.45 38.0392 11.55 38.1392C11.15 38.1392 11.05 37.5392 11.45 37.4392C13.55 37.0392 14.65 33.8392 15.55 32.0392C16.15 30.9392 16.35 28.6392 18.15 28.8392Z" fill="#6B5DFF"/>
<path fill-rule="evenodd" clip-rule="evenodd" d="M10.55 19.3392C12.05 18.4392 13.25 17.2392 14.75 16.3392C16.35 15.3392 18.35 14.8392 20.15 14.5392C20.25 14.5392 20.35 14.6392 20.25 14.7392C18.45 15.7392 16.35 15.8392 14.55 16.8392C13.15 17.6392 12.35 19.2392 10.65 19.7392C10.55 19.6392 10.45 19.3392 10.55 19.3392Z" fill="#6B5DFF"/>
<path fill-rule="evenodd" clip-rule="evenodd" d="M21.25 13.9392C21.45 13.6392 21.75 13.3392 22.05 13.0392C22.35 12.7392 22.65 12.4392 22.95 12.3392C22.95 12.3392 23.05 12.3392 23.05 12.4392C22.85 12.7392 22.65 13.0392 22.35 13.2392C22.05 13.5392 21.75 13.8392 21.55 14.1392C21.45 14.4392 21.15 14.1392 21.25 13.9392Z" fill="#6B5DFF"/>
<path fill-rule="evenodd" clip-rule="evenodd" d="M24.45 10.6392C24.55 10.5392 24.55 10.4392 24.65 10.3392C24.65 10.3392 24.75 10.3392 24.75 10.4392C24.75 10.5392 24.65 10.7392 24.65 10.7392C24.45 10.8392 24.35 10.6392 24.45 10.6392Z" fill="#6B5DFF"/>
<path fill-rule="evenodd" clip-rule="evenodd" d="M24.65 9.63921C24.85 9.03921 25.05 8.5392 25.15 7.9392C25.25 7.1392 25.25 6.43922 25.35 5.73922C25.35 5.63922 25.55 5.53922 25.65 5.73922C26.15 7.13922 25.35 8.53922 24.95 9.73922C24.75 9.83922 24.55 9.73921 24.65 9.63921Z" fill="#6B5DFF"/>
<path fill-rule="evenodd" clip-rule="evenodd" d="M8.64998 23.8392C8.64998 24.7392 8.64998 25.5392 8.64998 26.4392C8.64998 27.4392 9.04997 28.3392 9.44997 29.2392C9.54997 29.3392 9.34996 29.4392 9.24996 29.3392C7.74996 27.7392 8.04996 25.8392 8.34996 23.7392C8.44996 23.6392 8.64998 23.6392 8.64998 23.8392Z" fill="#6B5DFF"/>
<path fill-rule="evenodd" clip-rule="evenodd" d="M17.55 29.1392C15.95 28.2392 13.15 31.2392 12.05 32.0392C10.45 33.2392 7.64997 34.8392 5.74997 34.1392C5.44997 34.0392 5.44998 33.4392 5.84998 33.5392C8.54998 33.7392 11.25 32.0392 13.35 30.4392C14.35 29.7392 16.55 27.7392 17.85 28.8392C17.95 28.9392 17.75 29.2392 17.55 29.1392Z" fill="#6B5DFF"/>
<path fill-rule="evenodd" clip-rule="evenodd" d="M13.35 24.4392C11.45 23.4392 9.34996 25.7392 7.74996 26.7392C6.34996 27.5392 4.54998 28.4392 2.94998 28.1392C2.64998 28.0392 2.64998 27.6392 2.94998 27.5392C4.24998 27.2392 5.34998 27.0392 6.54998 26.5392C7.64998 26.0392 8.64999 25.3392 9.64999 24.6392C10.85 23.8392 12.35 22.9392 13.55 24.2392C13.55 24.3392 13.45 24.5392 13.35 24.4392Z" fill="#6B5DFF"/>
<path fill-rule="evenodd" clip-rule="evenodd" d="M13.05 23.8392C10.25 22.4392 5.44998 24.1392 3.44998 21.2392C3.34998 21.1392 3.54999 21.0392 3.64999 21.0392C5.54999 21.9392 7.14999 22.2392 9.14999 22.3392C10.65 22.4392 11.95 22.6392 13.15 23.6392C13.25 23.7392 13.15 23.9392 13.05 23.8392Z" fill="#6B5DFF"/>
<path fill-rule="evenodd" clip-rule="evenodd" d="M14.05 21.9392C14.25 20.0392 12.55 19.0392 11.25 18.1392C10.35 17.5392 9.04999 16.6392 9.04999 15.3392C9.04999 15.0392 9.54999 14.8392 9.64999 15.1392C10.35 16.7392 11.55 17.3392 12.85 18.3392C14.05 19.3392 14.65 20.3392 14.25 21.8392C14.25 22.1392 14.05 22.1392 14.05 21.9392Z" fill="#6B5DFF"/>
<path fill-rule="evenodd" clip-rule="evenodd" d="M13.85 13.1392C15.15 12.5392 16.45 13.8392 17.15 14.7392C17.65 15.4392 18.15 16.1392 18.65 16.8392C18.95 17.3392 19.75 17.9392 19.75 18.5392C19.75 18.6392 19.65 18.7392 19.55 18.7392C18.55 18.8392 17.65 16.7392 17.15 16.0392C16.75 15.4392 16.25 14.7392 15.75 14.2392C15.25 13.7392 14.55 13.4392 13.85 13.1392Z" fill="#6B5DFF"/>
<path fill-rule="evenodd" clip-rule="evenodd" d="M21.15 10.8392C22.15 10.7392 22.85 11.7392 23.45 12.4392C23.75 12.9392 24.05 13.4392 24.45 13.9392C24.85 14.4392 25.35 14.5392 25.75 14.9392C25.85 15.0392 25.85 15.3392 25.65 15.4392C24.75 15.6392 23.85 14.5392 23.45 13.8392C23.15 13.3392 22.85 12.7392 22.45 12.3392C22.05 11.8392 21.55 11.6392 21.05 11.2392C20.95 11.0392 21.05 10.8392 21.15 10.8392Z" fill="#6B5DFF"/>
<path fill-rule="evenodd" clip-rule="evenodd" d="M27.45 11.1392C27.05 10.0392 25.75 9.63923 24.85 9.13923C24.25 8.83923 23.25 8.13924 23.45 7.33924C23.45 7.23924 23.65 7.13924 23.85 7.23924C24.15 7.43924 24.35 7.83923 24.65 8.13923C25.05 8.53923 25.55 8.73922 25.95 9.03922C26.75 9.53922 27.35 10.0392 27.75 11.0392C27.65 11.2392 27.45 11.3392 27.45 11.1392Z" fill="#6B5DFF"/>
<path fill-rule="evenodd" clip-rule="evenodd" d="M24.15 37.2392C24.25 37.8392 24.05 38.4392 23.75 38.9392C23.45 39.3392 23.05 40.0392 22.55 39.9392C22.45 39.9392 22.45 39.8392 22.45 39.8392C22.35 39.4392 22.75 39.0392 23.05 38.7392C23.45 38.3392 23.85 37.8392 23.95 37.2392C23.95 37.1392 24.15 37.1392 24.15 37.2392Z" fill="#6B5DFF"/>
<path fill-rule="evenodd" clip-rule="evenodd" d="M23.15 37.9392C23.05 38.1392 22.85 38.3392 22.65 38.5392C22.45 38.7392 22.25 38.9392 22.05 39.0392C21.85 39.1392 21.65 38.8392 21.75 38.6392C21.85 38.4392 22.05 38.3392 22.25 38.1392C22.45 37.9392 22.65 37.7392 22.75 37.5392C22.95 37.4392 23.25 37.7392 23.15 37.9392Z" fill="#6B5DFF"/>
<path fill-rule="evenodd" clip-rule="evenodd" d="M21.85 37.6392C21.65 37.9392 21.25 38.5392 20.85 38.4392C20.75 38.4392 20.75 38.3392 20.75 38.3392C20.85 38.1392 20.95 38.0392 21.15 37.9392C21.35 37.8392 21.45 37.6392 21.65 37.5392C21.75 37.3392 21.95 37.5392 21.85 37.6392Z" fill="#6B5DFF"/>
<path fill-rule="evenodd" clip-rule="evenodd" d="M20.75 37.3392C20.65 37.4392 20.55 37.5392 20.45 37.5392C20.35 37.5392 20.35 37.5392 20.35 37.4392C20.35 37.3392 20.45 37.2392 20.55 37.1392C20.65 36.9392 20.85 37.1392 20.75 37.3392Z" fill="#6B5DFF"/>
<path fill-rule="evenodd" clip-rule="evenodd" d="M17.95 36.6392C17.85 36.8392 17.65 37.1392 17.55 37.3392C17.35 37.5392 17.15 37.8392 16.95 37.8392C16.75 37.9392 16.55 37.7392 16.65 37.5392C16.75 37.2392 16.95 37.1392 17.15 36.9392C17.35 36.7392 17.65 36.5392 17.85 36.3392C17.75 36.3392 17.95 36.5392 17.95 36.6392Z" fill="#6B5DFF"/>
<path fill-rule="evenodd" clip-rule="evenodd" d="M16.85 36.4392C16.85 36.8392 16.65 37.2392 16.25 37.3392C16.05 37.4392 15.85 37.1392 16.05 36.9392C16.15 36.8392 16.25 36.7392 16.35 36.6392C16.45 36.5392 16.45 36.4392 16.55 36.3392C16.65 36.1392 16.85 36.2392 16.85 36.4392Z" fill="#6B5DFF"/>
<path fill-rule="evenodd" clip-rule="evenodd" d="M15.75 36.5392C15.55 36.7392 15.35 37.0392 15.05 37.0392C14.95 37.0392 14.85 36.9392 14.85 36.9392C14.85 36.6392 15.25 36.4392 15.55 36.2392C15.75 36.0392 15.95 36.3392 15.75 36.5392Z" fill="#6B5DFF"/>
<path fill-rule="evenodd" clip-rule="evenodd" d="M13.15 35.7392C12.75 36.1392 12.35 36.4392 11.95 36.7392C11.55 36.9392 11.25 36.4392 11.65 36.1392C12.05 35.8392 12.45 35.6392 12.95 35.3392C13.15 35.1392 13.35 35.5392 13.15 35.7392Z" fill="#6B5DFF"/>
<path fill-rule="evenodd" clip-rule="evenodd" d="M11.95 35.3392C11.75 35.5392 11.55 35.6392 11.25 35.6392C11.15 35.6392 11.15 35.5392 11.25 35.5392C11.45 35.4392 11.65 35.3392 11.75 35.2392C11.85 35.0392 12.05 35.2392 11.95 35.3392Z" fill="#6B5DFF"/>
<path fill-rule="evenodd" clip-rule="evenodd" d="M10.95 34.7392C10.85 34.8392 10.75 34.8392 10.65 34.9392C10.55 34.9392 10.45 35.0392 10.35 34.9392C10.25 34.9392 10.25 34.8392 10.25 34.8392C10.25 34.6392 10.55 34.5392 10.75 34.5392C10.95 34.4392 11.15 34.6392 10.95 34.7392Z" fill="#6B5DFF"/>
<path fill-rule="evenodd" clip-rule="evenodd" d="M10.55 34.5392C10.45 34.6392 10.35 34.7392 10.15 34.7392C9.95 34.7392 9.84999 34.4392 10.05 34.3392C10.15 34.3392 10.15 34.2392 10.25 34.2392C10.45 34.0392 10.75 34.3392 10.55 34.5392Z" fill="#6B5DFF"/>
<path fill-rule="evenodd" clip-rule="evenodd" d="M8.64999 32.0392C8.24999 32.3392 7.54999 32.3392 7.04999 32.3392C6.64999 32.3392 6.54998 31.7392 6.94998 31.6392C7.44998 31.5392 8.24999 31.4392 8.64999 31.7392C8.84999 31.8392 8.84999 31.9392 8.64999 32.0392Z" fill="#6B5DFF"/>
<path fill-rule="evenodd" clip-rule="evenodd" d="M7.34998 30.9392C7.04998 30.9392 6.85 30.9392 6.55 30.8392C6.45 30.7392 6.45 30.5392 6.65 30.5392C6.85 30.5392 7.14998 30.6392 7.34998 30.6392C7.44998 30.6392 7.44998 30.9392 7.34998 30.9392Z" fill="#6B5DFF"/>
<path fill-rule="evenodd" clip-rule="evenodd" d="M7.04999 29.8392C6.84999 29.8392 6.24999 29.9392 6.14999 29.5392C6.14999 29.3392 6.44999 29.3392 6.54999 29.3392C6.74999 29.3392 6.84999 29.3392 7.04999 29.3392C7.24999 29.4392 7.24999 29.8392 7.04999 29.8392Z" fill="#6B5DFF"/>
<path fill-rule="evenodd" clip-rule="evenodd" d="M5.74995 26.0392C5.34995 25.9392 4.74997 25.9392 4.44997 25.6392C4.24997 25.4392 4.44998 25.1392 4.64998 25.1392C4.84998 25.1392 5.04995 25.2392 5.24995 25.3392C5.44995 25.4392 5.64996 25.5392 5.84996 25.6392C6.04996 25.8392 5.94995 26.0392 5.74995 26.0392Z" fill="#6B5DFF"/>
<path fill-rule="evenodd" clip-rule="evenodd" d="M5.84998 24.6392C5.64998 24.5392 5.54998 24.4392 5.34998 24.4392C5.24998 24.4392 5.14999 24.3392 5.04999 24.2392C4.94999 24.1392 4.94998 23.9392 4.94998 23.8392C5.24998 23.4392 5.94999 23.9392 6.14999 24.1392C6.44999 24.4392 6.14998 24.7392 5.84998 24.6392Z" fill="#6B5DFF"/>
<path fill-rule="evenodd" clip-rule="evenodd" d="M5.84998 23.8392C5.74998 23.8392 5.64999 23.8392 5.54999 23.7392C5.34999 23.6392 5.34999 23.4392 5.54999 23.3392C5.64999 23.3392 5.74998 23.2392 5.84998 23.2392C6.14998 23.3392 6.14998 23.8392 5.84998 23.8392Z" fill="#6B5DFF"/>
<path fill-rule="evenodd" clip-rule="evenodd" d="M5.84999 20.9392C6.24999 21.0392 6.65 21.1392 7.15 21.2392C7.65 21.3392 8.04999 21.4392 8.44999 21.6392C8.54999 21.6392 8.54999 21.8392 8.44999 21.9392C7.54999 22.3392 6.44999 21.7392 5.84999 21.0392C5.74999 21.0392 5.84999 20.9392 5.84999 20.9392Z" fill="#6B5DFF"/>
<path fill-rule="evenodd" clip-rule="evenodd" d="M7.44999 19.9392C7.64999 20.0392 7.84999 20.0392 8.04999 20.0392C8.24999 20.0392 8.45 20.0392 8.65 20.2392C8.75 20.3392 8.75 20.4392 8.65 20.5392C8.25 20.9392 7.64998 20.4392 7.34998 20.2392C7.14998 20.1392 7.24999 19.8392 7.44999 19.9392Z" fill="#6B5DFF"/>
<path fill-rule="evenodd" clip-rule="evenodd" d="M8.34997 18.7392C8.44997 18.8392 8.64997 18.8392 8.74997 18.9392C8.84997 18.9392 9.04999 18.9392 9.14999 19.1392C9.14999 19.2392 9.24999 19.3392 9.14999 19.3392C8.94999 19.4392 8.84997 19.3392 8.74997 19.3392C8.54997 19.2392 8.44997 19.2392 8.34997 19.1392C8.04997 18.9392 8.24997 18.7392 8.34997 18.7392Z" fill="#6B5DFF"/>
<path fill-rule="evenodd" clip-rule="evenodd" d="M11.55 16.2392C11.65 16.3392 11.75 16.4392 11.95 16.5392C12.05 16.6392 12.15 16.7392 12.15 16.9392C12.15 17.0392 12.15 17.0392 12.05 17.0392C11.95 17.0392 11.75 16.9392 11.65 16.8392C11.55 16.7392 11.45 16.6392 11.35 16.4392C11.35 16.2392 11.45 16.1392 11.55 16.2392Z" fill="#6B5DFF"/>
<path fill-rule="evenodd" clip-rule="evenodd" d="M12.65 15.6392C12.95 15.8392 13.15 16.0392 13.35 16.2392C13.55 16.4392 13.25 16.8392 12.95 16.6392C12.75 16.4392 12.65 16.2392 12.35 16.0392C12.25 15.8392 12.45 15.5392 12.65 15.6392Z" fill="#6B5DFF"/>
<path fill-rule="evenodd" clip-rule="evenodd" d="M13.75 15.8392C13.85 15.9392 13.95 16.0392 13.85 16.1392H13.75C13.65 16.0392 13.65 16.0392 13.55 15.9392C13.45 15.9392 13.65 15.7392 13.75 15.8392Z" fill="#6B5DFF"/>
<path fill-rule="evenodd" clip-rule="evenodd" d="M14.45 15.6392C14.55 15.7392 14.45 15.8392 14.45 15.8392C14.45 15.8392 14.35 15.8392 14.35 15.7392C14.15 15.6392 14.35 15.5392 14.45 15.6392Z" fill="#6B5DFF"/>
<path fill-rule="evenodd" clip-rule="evenodd" d="M17.35 13.5392C17.55 13.5392 17.75 13.6392 17.95 13.7392C18.15 13.8392 18.45 13.9392 18.55 14.1392C18.65 14.2392 18.55 14.5392 18.35 14.5392C17.85 14.6392 17.25 14.1392 17.15 13.7392C17.15 13.6392 17.25 13.5392 17.35 13.5392Z" fill="#6B5DFF"/>
<path fill-rule="evenodd" clip-rule="evenodd" d="M18.65 13.3392C18.95 13.3392 19.65 13.4392 19.65 13.8392C19.65 13.9392 19.65 13.9392 19.55 13.9392C19.35 14.0392 19.25 13.8392 19.05 13.7392C18.95 13.6392 18.75 13.5392 18.65 13.5392C18.55 13.4392 18.55 13.2392 18.65 13.3392Z" fill="#6B5DFF"/>
<path fill-rule="evenodd" clip-rule="evenodd" d="M20.05 13.2392C20.25 13.2392 20.45 13.2392 20.65 13.3392C20.85 13.4392 20.75 13.8392 20.45 13.7392C20.35 13.6392 20.15 13.6392 20.05 13.5392C19.85 13.5392 19.75 13.2392 20.05 13.2392Z" fill="#6B5DFF"/>
<path fill-rule="evenodd" clip-rule="evenodd" d="M25.05 13.9392C24.95 13.7392 24.85 13.6392 24.65 13.4392C24.55 13.2392 24.35 13.1392 24.25 12.9392C24.15 12.7392 24.25 12.5392 24.45 12.5392C24.95 12.5392 25.45 13.2392 25.55 13.7392C25.55 14.0392 25.15 14.1392 25.05 13.9392Z" fill="#6B5DFF"/>
<path fill-rule="evenodd" clip-rule="evenodd" d="M25.15 12.5392C25.05 12.4392 24.95 12.3392 24.85 12.1392C24.75 12.0392 24.65 11.9392 24.65 11.7392C24.65 11.6392 24.65 11.6392 24.75 11.6392C25.15 11.5392 25.35 12.0392 25.55 12.2392C25.85 12.5392 25.35 12.8392 25.15 12.5392Z" fill="#6B5DFF"/>
<path fill-rule="evenodd" clip-rule="evenodd" d="M25.55 11.4392C25.35 11.3392 25.35 11.1392 25.55 11.0392C25.75 10.9392 25.85 11.0392 25.85 11.2392C25.95 11.3392 25.75 11.4392 25.55 11.4392Z" fill="#6B5DFF"/>
<path fill-rule="evenodd" clip-rule="evenodd" d="M22.55 16.6392C22.15 17.0392 21.55 17.1392 21.05 17.3392C20.65 17.4392 20.35 17.6392 20.05 17.7392C19.75 17.9392 19.55 18.1392 19.25 18.3392C19.15 18.4392 19.05 18.2392 19.05 18.1392C19.25 17.6392 19.95 17.3392 20.45 17.1392C21.05 16.8392 21.85 16.5392 22.55 16.4392C22.55 16.5392 22.65 16.6392 22.55 16.6392Z" fill="#6B5DFF"/>
<path fill-rule="evenodd" clip-rule="evenodd" d="M16.75 18.9392C16.25 19.1392 15.65 19.3392 15.25 19.7392C14.85 20.1392 14.75 20.7392 14.45 21.2392C14.35 21.3392 14.05 21.3392 14.15 21.1392C14.25 19.7392 15.55 18.9392 16.75 18.7392C16.85 18.7392 16.85 18.8392 16.75 18.9392Z" fill="#6B5DFF"/>
<path fill-rule="evenodd" clip-rule="evenodd" d="M13.15 21.4392C13.05 21.8392 12.85 22.3392 12.85 22.8392C12.85 23.2392 12.95 23.6392 12.65 23.9392C12.55 24.0392 12.45 24.0392 12.35 23.9392C12.05 23.6392 12.15 23.1392 12.25 22.7392C12.35 22.1392 12.65 21.8392 12.95 21.3392C13.05 21.3392 13.25 21.3392 13.15 21.4392Z" fill="#6B5DFF"/>
<path fill-rule="evenodd" clip-rule="evenodd" d="M13.45 26.0392C14.05 26.4392 14.65 26.8392 15.15 27.3392C15.45 27.6392 15.85 27.8392 16.25 28.1392C16.55 28.3392 16.85 28.5392 17.05 28.8392C17.05 28.9392 17.05 29.1392 16.95 29.1392C16.25 29.2392 15.75 28.6392 15.35 28.2392C14.65 27.6392 14.05 26.8392 13.45 26.2392C13.15 26.1392 13.25 25.9392 13.45 26.0392Z" fill="#6B5DFF"/>
<path fill-rule="evenodd" clip-rule="evenodd" d="M19.55 29.8392C20.15 29.9392 20.75 29.7392 21.45 29.7392C21.95 29.7392 22.65 29.6392 23.05 30.0392C23.15 30.1392 23.15 30.3392 23.05 30.4392C22.55 30.7392 22.05 30.4392 21.55 30.4392C20.95 30.3392 20.25 30.1392 19.65 30.0392C19.45 30.0392 19.45 29.8392 19.55 29.8392Z" fill="#6B5DFF"/>
<path fill-rule="evenodd" clip-rule="evenodd" d="M24.75 31.5392C24.85 31.5392 25.05 31.6392 25.15 31.6392C25.25 31.6392 25.45 31.7392 25.55 31.8392C25.75 31.9392 26.15 32.2392 26.05 32.6392C25.95 33.0392 25.45 32.6392 25.35 32.5392C25.15 32.3392 24.85 32.0392 24.55 31.9392C24.45 31.7392 24.55 31.5392 24.75 31.5392Z" fill="#6B5DFF"/>
<path fill-rule="evenodd" clip-rule="evenodd" d="M31.95 41.3392C31.75 41.3392 31.55 41.1392 31.45 41.0392C31.15 40.8392 30.75 40.6392 30.35 40.5392C30.05 40.4392 29.75 40.3392 29.35 40.2392C29.15 40.1392 28.75 40.1392 28.65 39.8392C28.65 39.7392 28.65 39.6392 28.65 39.5392C29.15 39.1392 30.35 39.8392 30.85 40.0392C31.15 40.2392 32.35 40.7392 32.05 41.3392C32.15 41.3392 32.05 41.3392 31.95 41.3392Z" fill="#6B5DFF"/>
<path fill-rule="evenodd" clip-rule="evenodd" d="M31.55 39.3392C31.15 39.1392 30.75 39.0392 30.45 39.0392C30.15 38.9392 29.85 38.9392 29.65 38.6392C29.55 38.5392 29.65 38.4392 29.65 38.3392C29.95 38.0392 30.35 38.2392 30.75 38.3392C31.15 38.4392 31.55 38.6392 31.85 38.9392C32.05 39.1392 31.75 39.4392 31.55 39.3392Z" fill="#6B5DFF"/>
<path fill-rule="evenodd" clip-rule="evenodd" d="M30.85 37.6392C30.55 37.5392 30.15 37.4392 30.05 37.1392C30.05 37.0392 30.05 36.9392 30.15 36.9392C30.45 36.9392 30.75 37.0392 30.95 37.1392C31.25 37.3392 31.05 37.7392 30.85 37.6392Z" fill="#6B5DFF"/>
<path fill-rule="evenodd" clip-rule="evenodd" d="M30.55 36.2392C30.45 36.1392 30.25 36.0392 30.15 35.9392C30.15 35.8392 30.15 35.8392 30.15 35.7392C30.35 35.4392 30.65 35.6392 30.85 35.7392C31.05 35.9392 30.85 36.4392 30.55 36.2392Z" fill="#6B5DFF"/>
<path fill-rule="evenodd" clip-rule="evenodd" d="M22.85 32.1392C22.45 32.7392 22.15 33.3392 21.85 33.9392C21.55 34.5392 21.45 35.2392 21.05 35.6392C20.95 35.7392 20.75 35.7392 20.65 35.5392C20.55 34.9392 20.95 34.3392 21.15 33.8392C21.55 33.1392 22.05 32.5392 22.55 31.9392C22.75 31.7392 22.95 31.9392 22.85 32.1392Z" fill="#6B5DFF"/>
<path fill-rule="evenodd" clip-rule="evenodd" d="M17.75 32.2392C17.55 32.6392 17.45 33.1392 17.35 33.5392C17.25 33.9392 17.25 34.4392 16.95 34.7392C16.85 34.8392 16.65 34.7392 16.65 34.6392C16.55 34.2392 16.75 33.7392 16.85 33.4392C17.05 32.9392 17.25 32.5392 17.55 32.1392C17.65 31.9392 17.85 32.1392 17.75 32.2392Z" fill="#6B5DFF"/>
<path fill-rule="evenodd" clip-rule="evenodd" d="M14.55 31.5392C14.55 31.8392 14.45 32.1392 14.25 32.4392C14.15 32.6392 13.85 33.0392 13.55 33.0392C13.45 33.0392 13.35 32.9392 13.35 32.8392C13.25 32.5392 13.55 32.3392 13.65 32.1392C13.85 31.9392 13.95 31.6392 14.15 31.4392C14.35 31.3392 14.55 31.3392 14.55 31.5392Z" fill="#6B5DFF"/>
<path fill-rule="evenodd" clip-rule="evenodd" d="M11.45 26.2392C11.25 26.3392 11.05 26.4392 10.95 26.6392C10.75 26.7392 10.45 26.9392 10.25 26.9392C10.15 26.9392 10.05 26.8392 10.05 26.7392C10.15 26.2392 10.85 25.8392 11.25 25.7392C11.65 25.6392 11.75 26.0392 11.45 26.2392Z" fill="#6B5DFF"/>
<path fill-rule="evenodd" clip-rule="evenodd" d="M16.85 41.5392C16.55 41.6392 16.15 41.9392 15.85 41.7392C15.75 41.7392 15.75 41.6392 15.85 41.5392C15.95 41.4392 16.05 41.4392 16.25 41.4392C16.45 41.4392 16.55 41.3392 16.65 41.2392C16.85 41.1392 17.05 41.4392 16.85 41.5392Z" fill="#6B5DFF"/>
<path fill-rule="evenodd" clip-rule="evenodd" d="M14.55 40.8392C14.45 40.8392 14.35 40.8392 14.35 40.6392C14.35 40.5392 14.45 40.5392 14.55 40.4392C14.75 40.5392 14.75 40.9392 14.55 40.8392Z" fill="#6B5DFF"/>
<path fill-rule="evenodd" clip-rule="evenodd" d="M34.85 49.3392C34.65 49.8392 34.45 50.2392 34.15 50.6392C33.95 51.0392 33.65 51.4392 33.25 51.6392C33.15 51.7392 33.05 51.6392 33.05 51.5392C33.05 51.1392 33.35 50.8392 33.55 50.5392C33.85 50.1392 34.25 49.7392 34.45 49.2392C34.55 48.9392 34.95 49.1392 34.85 49.3392Z" fill="#6B5DFF"/>
<path fill-rule="evenodd" clip-rule="evenodd" d="M34.75 51.7392C34.65 52.0392 34.45 52.2392 34.35 52.5392C34.25 52.7392 34.05 52.9392 33.85 53.0392C33.75 53.0392 33.65 52.9392 33.65 52.8392C33.75 52.6392 33.95 52.4392 34.05 52.3392C34.25 52.1392 34.35 51.8392 34.45 51.6392C34.55 51.4392 34.85 51.5392 34.75 51.7392Z" fill="#6B5DFF"/>
<path fill-rule="evenodd" clip-rule="evenodd" d="M34.55 54.0392C34.45 54.1392 34.35 54.2392 34.25 54.3392C34.15 54.3392 34.15 54.3392 34.15 54.2392C34.25 54.1392 34.25 54.0392 34.35 53.8392C34.45 53.7392 34.65 53.9392 34.55 54.0392Z" fill="#6B5DFF"/>
<path fill-rule="evenodd" clip-rule="evenodd" d="M34.55 55.4392C34.35 55.7392 34.15 56.2392 33.85 56.4392C33.75 56.5392 33.65 56.4392 33.65 56.2392C33.75 55.8392 33.95 55.5392 34.15 55.1392C34.35 55.0392 34.75 55.2392 34.55 55.4392Z" fill="#6B5DFF"/>
<path fill-rule="evenodd" clip-rule="evenodd" d="M36.45 30.3392C36.25 34.6392 36.45 39.1392 36.25 43.4392C36.05 49.0392 36.25 55.4392 36.15 60.2392C36.05 65.0392 36.05 68.3392 36.15 72.3392C36.15 73.0392 36.15 73.7392 36.15 74.5392C36.05 76.1392 35.95 78.0392 36.35 79.6392C36.65 79.5392 36.85 79.5392 37.25 79.6392C37.25 79.6392 37.95 73.1392 38.05 72.4392C38.05 72.3392 38.05 72.1392 38.05 71.9392C38.35 65.8392 38.25 59.7392 38.25 53.5392C38.25 48.6392 38.25 42.6392 38.15 38.9392C38.05 35.2392 37.75 32.8392 37.55 30.2392C37.55 30.2392 36.75 29.9392 36.45 30.3392Z" fill="#F0F2FB"/>
<path fill-rule="evenodd" clip-rule="evenodd" d="M42.45 66.2392C42.95 66.0392 43.45 66.0392 43.75 66.5392C44.15 67.0392 44.35 67.6392 44.55 68.2392C44.75 68.8392 44.75 69.4392 44.55 69.9392C44.25 70.7392 43.55 70.6392 42.95 70.9392C42.65 71.1392 42.75 71.4392 43.05 71.5392C43.85 71.8392 44.85 71.1392 45.25 70.4392C45.75 69.6392 45.65 68.5392 45.35 67.7392C45.15 66.9392 44.65 66.1392 43.85 65.7392C43.45 65.6392 42.65 65.7392 42.45 66.2392Z" fill="#6B5DFF"/>
<path fill-rule="evenodd" clip-rule="evenodd" d="M43.85 68.6392C43.75 69.1392 43.75 69.6392 43.55 70.1392C43.45 70.7392 42.85 70.9392 42.65 71.3392C42.55 71.5392 42.75 71.6392 42.95 71.7392C43.65 71.8392 43.95 70.9392 44.15 70.4392C44.35 69.8392 44.35 69.1392 43.85 68.6392C43.95 68.5392 43.85 68.5392 43.85 68.6392Z" fill="#6B5DFF"/>
<path fill-rule="evenodd" clip-rule="evenodd" d="M38.75 67.3392C38.95 67.3392 39.15 67.3392 39.45 67.2392C39.65 67.1392 39.95 67.0392 40.05 66.8392C40.05 66.7392 40.05 66.6392 39.95 66.6392C39.75 66.6392 39.55 66.7392 39.35 66.8392C39.15 66.9392 38.95 66.9392 38.75 67.0392C38.55 67.1392 38.65 67.3392 38.75 67.3392Z" fill="#6B5DFF"/>
<path fill-rule="evenodd" clip-rule="evenodd" d="M38.95 68.4392C39.25 68.3392 39.65 68.3392 39.75 67.9392C39.75 67.9392 39.75 67.8392 39.65 67.8392C39.55 67.8392 39.35 67.8392 39.25 67.9392C39.15 68.0392 38.95 68.0392 38.75 68.1392C38.65 68.1392 38.75 68.4392 38.95 68.4392Z" fill="#6B5DFF"/>
<path fill-rule="evenodd" clip-rule="evenodd" d="M38.95 69.4392C39.15 69.4392 39.35 69.4392 39.45 69.3392C39.45 69.3392 39.45 69.2392 39.45 69.1392C39.35 69.0392 39.05 69.0392 38.95 69.0392C38.75 69.1392 38.75 69.4392 38.95 69.4392Z" fill="#6B5DFF"/>
<path fill-rule="evenodd" clip-rule="evenodd" d="M39.25 70.2392C39.35 70.2392 39.55 70.2392 39.65 70.2392C39.85 70.2392 39.85 69.8392 39.65 69.8392C39.55 69.8392 39.45 69.8392 39.25 69.8392C38.95 69.7392 38.95 70.2392 39.25 70.2392Z" fill="#6B5DFF"/>
<path fill-rule="evenodd" clip-rule="evenodd" d="M39.45 71.3392C39.55 71.3392 39.75 71.3392 39.75 71.1392C39.75 71.0392 39.55 70.9392 39.45 70.9392C39.25 71.0392 39.25 71.3392 39.45 71.3392Z" fill="#6B5DFF"/>
<path fill-rule="evenodd" clip-rule="evenodd" d="M45.95 63.6392C46.15 63.9392 46.35 64.2392 46.55 64.4392C46.75 64.6392 46.85 65.0392 47.05 65.1392C47.15 65.1392 47.25 65.1392 47.25 65.0392C47.35 64.7392 47.05 64.4392 46.95 64.2392C46.75 63.9392 46.45 63.6392 46.25 63.3392C46.15 63.3392 45.85 63.4392 45.95 63.6392Z" fill="#6B5DFF"/>
<path fill-rule="evenodd" clip-rule="evenodd" d="M46.35 62.7392C46.45 62.9392 46.65 63.3392 46.95 63.3392C46.95 63.3392 47.05 63.3392 47.05 63.2392C47.05 63.1392 46.95 63.0392 46.95 62.9392C46.85 62.8392 46.75 62.6392 46.65 62.5392C46.55 62.4392 46.25 62.5392 46.35 62.7392Z" fill="#6B5DFF"/>
<path fill-rule="evenodd" clip-rule="evenodd" d="M40.85 78.4392C41.95 77.9392 43.15 77.3392 44.15 76.6392C44.95 76.1392 45.85 75.4392 46.15 74.5392C46.25 74.4392 46.05 74.2392 45.85 74.3392C45.05 74.8392 44.45 75.6392 43.75 76.2392C42.75 77.0392 41.75 77.7392 40.75 78.3392L40.85 78.4392Z" fill="#6B5DFF"/>
<path fill-rule="evenodd" clip-rule="evenodd" d="M37.25 66.4392C37.25 66.4392 33.55 66.4392 32.95 65.1392C32.95 65.1392 32.95 65.0392 32.85 65.0392C32.65 64.8392 32.15 64.7392 31.65 64.6392C31.15 64.5392 30.55 64.6392 29.95 64.8392C29.65 64.9392 29.35 65.1392 29.15 65.4392C28.55 66.2392 27.85 67.2392 27.65 68.3392C27.45 69.3392 27.55 70.2392 28.35 70.9392C30.15 72.4392 35.75 73.7392 36.75 73.9392C36.75 73.9392 43.55 72.5392 45.45 70.9392C46.25 70.2392 46.35 69.2392 46.15 68.3392C45.95 67.2392 45.35 66.2392 44.65 65.4392C44.45 65.1392 44.15 64.9392 43.85 64.8392C43.35 64.6392 42.75 64.5392 42.15 64.6392C41.65 64.7392 41.25 64.8392 40.95 65.0392L40.85 65.1392C40.55 66.4392 37.25 66.4392 37.25 66.4392ZM34.05 64.7392C34.35 65.3392 37.25 65.3392 37.25 65.3392C37.25 65.3392 39.85 65.3392 40.05 64.7392C40.15 64.5392 40.25 64.3392 40.45 64.2392C40.85 63.9392 41.55 63.6392 42.25 63.5392C42.95 63.4392 43.75 63.5392 44.45 63.8392C44.95 64.0392 45.35 64.3392 45.75 64.7392V64.8392C46.55 65.7392 47.25 66.9392 47.45 68.2392C47.75 69.5392 47.55 70.9392 46.35 71.9392C44.25 73.7392 37.45 75.1392 37.15 75.2392C37.05 75.3392 36.95 75.3392 36.75 75.2392C36.75 75.2392 29.85 73.7392 27.65 71.9392L27.55 71.8392C26.35 70.8392 26.15 69.4392 26.45 68.1392C26.75 66.8392 27.45 65.6392 28.15 64.7392C28.15 64.7392 28.15 64.7392 28.15 64.6392C28.55 64.2392 28.95 63.9392 29.45 63.7392C30.15 63.4392 30.95 63.3392 31.65 63.4392C32.35 63.5392 33.05 63.7392 33.45 64.1392C33.75 64.3392 33.95 64.5392 34.05 64.7392Z" fill="#6B5DFF"/>
<path fill-rule="evenodd" clip-rule="evenodd" d="M31.55 66.2392C31.05 66.0392 30.55 66.0392 30.25 66.5392C29.85 67.0392 29.65 67.6392 29.45 68.2392C29.25 68.8392 29.25 69.4392 29.45 69.9392C29.75 70.7392 30.45 70.6392 31.05 70.9392C31.35 71.1392 31.25 71.4392 30.95 71.5392C30.15 71.8392 29.15 71.1392 28.75 70.4392C28.25 69.6392 28.35 68.5392 28.65 67.7392C28.85 66.9392 29.35 66.1392 30.15 65.7392C30.65 65.6392 31.35 65.7392 31.55 66.2392C31.65 66.2392 31.55 66.3392 31.55 66.2392Z" fill="#6B5DFF"/>
<path fill-rule="evenodd" clip-rule="evenodd" d="M30.15 68.6392C30.25 69.1392 30.25 69.6392 30.45 70.1392C30.55 70.7392 31.15 70.9392 31.35 71.3392C31.45 71.5392 31.25 71.6392 31.05 71.7392C30.35 71.8392 30.05 70.9392 29.85 70.4392C29.65 69.8392 29.65 69.1392 30.15 68.6392C30.15 68.5392 30.15 68.5392 30.15 68.6392Z" fill="#6B5DFF"/>
<path fill-rule="evenodd" clip-rule="evenodd" d="M35.25 67.3392C35.05 67.3392 34.85 67.3392 34.55 67.2392C34.35 67.1392 34.05 67.0392 33.95 66.8392C33.95 66.7392 33.95 66.6392 34.05 66.6392C34.25 66.6392 34.45 66.7392 34.65 66.8392C34.85 66.9392 35.05 66.9392 35.25 67.0392C35.45 67.1392 35.45 67.3392 35.25 67.3392Z" fill="#6B5DFF"/>
<path fill-rule="evenodd" clip-rule="evenodd" d="M35.05 68.4392C34.75 68.3392 34.35 68.3392 34.25 67.9392C34.25 67.9392 34.25 67.8392 34.35 67.8392C34.45 67.8392 34.55 67.8392 34.75 67.9392C34.85 68.0392 35.05 68.0392 35.25 68.1392C35.35 68.1392 35.25 68.4392 35.05 68.4392Z" fill="#6B5DFF"/>
<path fill-rule="evenodd" clip-rule="evenodd" d="M35.05 69.4392C34.85 69.4392 34.65 69.4392 34.55 69.3392C34.55 69.3392 34.55 69.2392 34.55 69.1392C34.65 69.0392 34.95 69.0392 35.05 69.0392C35.35 69.1392 35.35 69.4392 35.05 69.4392Z" fill="#6B5DFF"/>
<path fill-rule="evenodd" clip-rule="evenodd" d="M34.75 70.2392C34.65 70.2392 34.45 70.2392 34.35 70.2392C34.15 70.2392 34.15 69.8392 34.35 69.8392C34.45 69.8392 34.65 69.8392 34.75 69.8392C35.05 69.7392 35.05 70.2392 34.75 70.2392Z" fill="#6B5DFF"/>
<path fill-rule="evenodd" clip-rule="evenodd" d="M34.65 71.3392C34.55 71.3392 34.35 71.3392 34.35 71.1392C34.35 71.0392 34.55 70.9392 34.65 70.9392C34.85 71.0392 34.85 71.3392 34.65 71.3392Z" fill="#6B5DFF"/>
<path fill-rule="evenodd" clip-rule="evenodd" d="M28.05 63.6392C27.85 63.9392 27.65 64.2392 27.45 64.4392C27.25 64.6392 27.15 65.0392 26.95 65.1392C26.85 65.1392 26.75 65.1392 26.75 65.0392C26.65 64.7392 26.95 64.4392 27.05 64.2392C27.25 63.9392 27.55 63.6392 27.75 63.3392C27.85 63.3392 28.15 63.4392 28.05 63.6392Z" fill="#6B5DFF"/>
<path fill-rule="evenodd" clip-rule="evenodd" d="M27.65 62.7392C27.55 62.9392 27.35 63.3392 27.05 63.3392C27.05 63.3392 26.95 63.3392 26.95 63.2392C26.95 63.1392 27.05 63.0392 27.05 62.9392C27.15 62.8392 27.25 62.6392 27.35 62.5392C27.45 62.4392 27.75 62.5392 27.65 62.7392Z" fill="#6B5DFF"/>
<path fill-rule="evenodd" clip-rule="evenodd" d="M33.15 78.4392C32.05 77.9392 30.85 77.3392 29.85 76.6392C29.05 76.1392 28.15 75.4392 27.85 74.5392C27.75 74.4392 27.95 74.2392 28.15 74.3392C28.95 74.8392 29.55 75.6392 30.25 76.2392C31.25 77.0392 32.25 77.7392 33.25 78.3392C33.25 78.3392 33.25 78.4392 33.15 78.4392Z" fill="#6B5DFF"/>
<path fill-rule="evenodd" clip-rule="evenodd" d="M44.95 72.4392C43.85 72.9392 43.05 73.8392 42.15 74.6392C39.65 76.8392 34.35 76.8392 31.85 74.6392C30.95 73.8392 30.15 72.9392 29.05 72.4392C28.95 72.3392 28.85 72.5392 28.95 72.6392C33.95 78.4392 40.15 78.5392 45.15 72.6392C45.25 72.4392 45.15 72.3392 44.95 72.4392Z" fill="#6B5DFF"/>
<path fill-rule="evenodd" clip-rule="evenodd" d="M4.74997 4.73923L5.24997 7.53922L8.14999 8.03922L5.24997 8.53922L4.74997 11.4392L4.34998 8.53922L1.44998 8.03922L4.34998 7.53922L4.74997 4.73923Z" fill="#6B5DFF"/>
<path fill-rule="evenodd" clip-rule="evenodd" d="M6.54999 6.33923L5.34998 8.03922L6.54999 9.83923L4.74997 8.63922L3.04999 9.83923L4.24997 8.03922L3.04999 6.33923L4.74997 7.53922L6.54999 6.33923Z" fill="#6B5DFF"/>
<path fill-rule="evenodd" clip-rule="evenodd" d="M65.45 62.5392L65.95 65.4392L68.75 65.9392L65.95 66.4392L65.45 69.2392L64.95 66.4392L62.05 65.9392L64.95 65.4392L65.45 62.5392Z" fill="#6B5DFF"/>
<path fill-rule="evenodd" clip-rule="evenodd" d="M67.15 64.1392L65.95 65.9392L67.15 67.6392L65.45 66.4392L63.65 67.6392L64.85 65.9392L63.65 64.1392L65.45 65.3392L67.15 64.1392Z" fill="#6B5DFF"/>
<path fill-rule="evenodd" clip-rule="evenodd" d="M75.85 12.1392L76.35 15.0392L79.15 15.5392L76.35 16.0392L75.85 18.8392L75.35 16.0392L72.55 15.5392L75.35 15.0392L75.85 12.1392Z" fill="#6B5DFF"/>
<path fill-rule="evenodd" clip-rule="evenodd" d="M77.55 13.7392L76.35 15.5392L77.55 17.2392L75.85 16.0392L74.15 17.2392L75.35 15.5392L74.15 13.7392L75.85 15.0392L77.55 13.7392Z" fill="#6B5DFF"/>
</svg>
