<svg width="45" height="44" viewBox="0 0 45 44" fill="none" xmlns="http://www.w3.org/2000/svg">
<path fill-rule="evenodd" clip-rule="evenodd" d="M22.1983 0.15122C22.0707 0.290172 22.0529 0.590513 22.0529 2.6028C22.0529 5.05387 22.0616 5.10385 22.4924 5.10385C22.9234 5.10385 22.9319 5.05482 22.9319 2.58773C22.9319 0.46161 22.9193 0.268169 22.7711 0.136147C22.5622 -0.0501906 22.3789 -0.0453394 22.1983 0.15122ZM12.0316 2.85151C11.9349 2.94681 11.8558 3.0777 11.8558 3.14241C11.8558 3.20721 12.3644 4.13301 12.986 5.19984C14.2036 7.28966 14.3761 7.47903 14.7541 7.14196C14.8522 7.05446 14.9325 6.90616 14.9325 6.81251C14.9325 6.60356 12.8695 3.0408 12.6264 2.82986C12.3994 2.63295 12.2479 2.63841 12.0316 2.85151ZM32.4127 2.76688C32.2201 2.87768 30.0523 6.59247 30.0523 6.81164C30.0523 6.90581 30.1326 7.05446 30.2307 7.14196C30.6078 7.47834 30.7799 7.28905 31.998 5.19802C32.62 4.13024 33.129 3.20435 33.129 3.14059C33.129 2.99315 32.8121 2.67739 32.6674 2.68086C32.6071 2.68233 32.4923 2.72105 32.4127 2.76688ZM21.088 8.96774C20.4476 9.13736 19.9118 9.45719 19.3746 9.99047C18.9516 10.4104 18.9139 10.4285 18.5169 10.4012C18.1176 10.3737 18.0834 10.3905 17.6332 10.8352C16.4406 12.0132 15.6481 13.6465 15.4641 15.3053C15.352 16.3153 15.4375 17.3489 15.6358 17.3812C15.7194 17.3948 16.1053 16.9038 16.6906 16.0395C17.8139 14.3805 17.8606 14.3572 18.5585 15.1083C19.0975 15.6881 19.9615 16.2678 20.6903 16.5387C21.3426 16.781 22.7354 16.8691 23.4862 16.7155C24.252 16.5589 25.2765 16.0149 25.8564 15.457C26.3032 15.027 26.3602 14.9331 26.3602 14.6266C26.3602 13.8981 26.0187 13.4819 25.2887 13.3202C24.8152 13.2154 24.69 13.11 24.69 12.8166C24.69 12.5465 24.9299 12.294 25.1864 12.294C25.552 12.294 26.2416 12.5597 26.5694 12.8268C27.0127 13.1881 27.3252 13.8487 27.3263 14.4268L27.3272 14.8703L28.3443 15.9658C28.9038 16.5683 29.3982 17.0388 29.4432 17.0114C29.5804 16.9278 29.5381 15.0879 29.3846 14.4653C29.054 13.1242 28.0584 11.6117 26.9151 10.7136C24.9964 9.20631 22.7399 8.53026 21.088 8.96774ZM4.57724 10.1456C4.42173 10.2989 4.44899 10.6889 4.62559 10.8365C4.89722 11.0636 8.48825 13.0737 8.62248 13.0737C8.83565 13.0737 9.0584 12.7621 9.02746 12.5072C9.00232 12.3 8.76603 12.1391 7.04343 11.1568C5.96791 10.5435 4.99681 10.0417 4.88535 10.0417C4.77388 10.0417 4.63526 10.0884 4.57724 10.1456ZM37.9198 11.1639C36.2264 12.1372 35.9824 12.3045 35.9573 12.5089C35.9264 12.7618 36.1497 13.0737 36.3618 13.0737C36.4973 13.0737 40.0942 11.0619 40.3592 10.8379C40.5358 10.6886 40.563 10.2988 40.4075 10.1456C40.1852 9.92654 39.7936 10.0869 37.9198 11.1639ZM17.1093 17.1743C16.3082 18.359 16.2616 18.41 15.9681 18.4182C15.2045 18.4395 14.6525 19.1276 14.8421 19.8218C14.9729 20.3006 15.4501 20.697 15.8955 20.697C16.2106 20.697 16.2416 20.7188 16.2942 20.9785C16.6082 22.5267 17.6013 23.9166 19.0556 24.8429C20.2144 25.5811 21.9662 25.9891 23.226 25.8144C24.7776 25.5992 25.738 25.1271 26.8468 24.0349C27.5186 23.3731 27.7117 23.1151 28.0991 22.3612C28.3509 21.871 28.6015 21.296 28.6558 21.0834C28.749 20.7186 28.7717 20.697 29.0602 20.697C29.4878 20.697 29.8501 20.4587 30.0541 20.0434C30.2673 19.6096 30.2675 19.5348 30.0569 19.0778C29.9406 18.8253 29.7858 18.6625 29.5487 18.5433C29.3478 18.4423 28.746 17.8707 28.0839 17.1521C27.4657 16.4813 26.9427 15.9324 26.9215 15.9324C26.9003 15.9324 26.617 16.1494 26.2919 16.4147C25.6221 16.9613 24.7315 17.4151 23.8961 17.6358C23.0254 17.8657 21.5717 17.8445 20.7343 17.5898C19.8427 17.3185 19.0133 16.8777 18.4294 16.3648L17.9445 15.9389L17.1093 17.1743ZM5.58798 17.2346C4.56924 17.4877 3.56202 18.2572 3.1173 19.122C2.99107 19.3674 2.29706 20.9088 1.575 22.5473C0.0892232 25.9187 -0.0742811 26.4614 0.022415 27.7011C0.164294 29.52 1.11429 30.985 2.91961 32.1686C4.57284 33.2527 6.58518 33.9204 9.07264 34.2103C9.5483 34.2657 9.95029 34.2983 9.96594 34.2827C9.98158 34.267 10.0574 33.8044 10.1345 33.2545C10.3254 31.8915 10.5532 31.1186 11.067 30.091C11.6074 29.01 12.4806 27.9281 13.3702 27.2374C13.7384 26.9515 14.0427 26.6923 14.0465 26.6612C14.0586 26.5631 13.5024 26.4079 12.9545 26.3564C12.0293 26.2694 11.0344 26.6163 10.1288 27.3415L9.76428 27.6334L9.57748 27.3355C9.35631 26.9829 8.80655 26.4777 8.44174 26.2918C7.68373 25.9054 6.77198 25.9462 5.85627 26.4072C5.57822 26.5472 5.35028 26.6353 5.34975 26.6031C5.34914 26.5708 5.78911 25.5059 6.32744 24.2366L7.30618 21.9289L7.70395 22.1022C8.25362 22.3419 8.91617 22.2854 9.34603 21.9623C9.69396 21.7007 10.2015 20.7955 10.3701 20.1358C10.5816 19.3081 10.1272 18.2932 9.37583 17.9155C8.34628 17.3979 6.36453 17.0417 5.58798 17.2346ZM37.9198 17.2045C37.1648 17.3724 36.0012 17.7286 35.6554 17.8975C34.861 18.2856 34.3969 19.2835 34.6146 20.1358C34.7832 20.7955 35.2908 21.7007 35.6387 21.9623C36.0686 22.2854 36.7311 22.3419 37.2808 22.1022L37.6786 21.9289L38.6573 24.2366C39.1957 25.5059 39.6356 26.5708 39.635 26.6031C39.6345 26.6353 39.4066 26.5472 39.1285 26.4072C38.2128 25.9462 37.301 25.9054 36.543 26.2918C36.1782 26.4777 35.6285 26.9829 35.4073 27.3355L35.2205 27.6334L34.8559 27.3415C33.9503 26.6163 32.9554 26.2694 32.0303 26.3564C31.4824 26.4079 30.9262 26.5631 30.9383 26.6612C30.942 26.6923 31.2464 26.9515 31.6146 27.2374C32.5042 27.9281 33.3774 29.01 33.9178 30.091C34.4315 31.1186 34.6594 31.8915 34.8503 33.2545C34.9274 33.8044 35.0044 34.2683 35.0215 34.2853C35.0973 34.361 37.3218 34.0178 38.2457 33.7879C40.0619 33.3359 41.5053 32.6549 42.7799 31.6487C43.9101 30.7566 44.5808 29.7027 44.857 28.3849C45.1848 26.8213 45.0451 26.258 43.408 22.5433C41.8538 19.0164 41.7768 18.8619 41.3232 18.358C40.5241 17.4703 39.0184 16.96 37.9198 17.2045ZM18.1971 26.2914C17.1337 26.5655 15.7418 27.1041 15.0285 27.5174C14.7187 27.6969 14.1559 28.1298 13.7777 28.4791C12.7169 29.4593 12.0529 30.5435 11.6811 31.9017C11.5488 32.3853 10.0098 43.4283 10.0098 43.8945C10.0098 43.9794 10.4045 43.9984 11.7894 43.9802L13.569 43.9567L13.9247 41.4319C14.1339 39.9467 14.3286 38.8499 14.3974 38.7681C14.5724 38.5602 14.9918 38.5916 15.144 38.824C15.2578 38.9979 15.2347 39.2801 14.9293 41.4445C14.741 42.7785 14.5855 43.8993 14.5839 43.935C14.5822 43.9708 18.1824 44 22.5842 44H30.5877L30.5396 43.7185C30.5132 43.5636 30.3534 42.4454 30.1846 41.2335C29.9056 39.2314 29.8897 39.0118 30.0109 38.8296C30.1658 38.5966 30.585 38.5564 30.755 38.7584C30.8149 38.8296 31.0275 40.0283 31.2273 41.4222L31.5906 43.9567L33.2828 43.9803C34.598 43.9985 34.975 43.9794 34.975 43.8946C34.975 43.4132 33.4336 32.3762 33.2961 31.872C32.8176 30.1193 31.522 28.4316 29.9531 27.5174C28.9612 26.9393 26.1168 25.9752 25.7797 26.1027C25.7077 26.1299 25.6652 26.5646 25.6416 27.5127C25.6099 28.7916 25.5911 28.9188 25.3621 29.4126C25.0678 30.047 24.4769 30.643 23.811 30.9773C23.382 31.1926 23.2334 31.2199 22.4924 31.2199C21.7513 31.2199 21.6028 31.1926 21.1738 30.9773C20.5069 30.6426 19.9168 30.0469 19.6236 29.4126C19.3979 28.9247 19.3752 28.7752 19.3314 27.4982C19.2922 26.3562 19.2607 26.1102 19.152 26.0963C19.0795 26.087 18.6498 26.1748 18.1971 26.2914ZM20.3827 27.6192C20.3827 28.8003 20.4749 29.131 20.9365 29.6057C21.3871 30.0688 21.8371 30.2573 22.4924 30.2573C23.1476 30.2573 23.5977 30.0688 24.0482 29.6057C24.5099 29.131 24.6021 28.8003 24.6021 27.6192V26.566L24.3164 26.6253C23.5783 26.7784 23.0168 26.8465 22.4924 26.8465C21.9679 26.8465 21.4065 26.7784 20.6683 26.6253L20.3827 26.566V27.6192Z" fill="#495AB4"/>
</svg>
