<svg width="26" height="36" viewBox="0 0 26 36" fill="none" xmlns="http://www.w3.org/2000/svg">
<path fill-rule="evenodd" clip-rule="evenodd" d="M15.7536 0.100571C15.6399 0.158853 15.4998 0.300638 15.4422 0.415685C15.3599 0.580495 15.3374 3.15185 15.3365 12.5386L15.3352 24.4524H17.1613H18.9873L19.0873 23.8409C19.3007 22.5351 19.9395 20.9406 20.6468 19.948C20.8152 19.7116 21.5379 18.9109 22.2527 18.1687C23.9191 16.4383 24.5459 15.4827 25.099 13.8285C25.472 12.7133 25.6131 11.8094 25.6131 10.5354C25.6131 7.54809 24.4924 4.84947 22.4072 2.81506C20.9486 1.39215 19.2293 0.506525 17.1805 0.122754C16.3409 -0.0344661 16.0269 -0.0393583 15.7536 0.100571ZM9.02878 0.818013C8.79192 0.903708 8.46229 1.07864 8.29627 1.20676C8.00949 1.42817 7.52259 2.07037 7.59294 2.13439C7.6111 2.15101 7.78271 2.24446 7.97423 2.34222C8.4963 2.60866 9.3189 3.33538 9.59251 3.77195C9.90397 4.26909 9.91155 4.64206 9.61493 4.87814C9.26306 5.15834 8.98311 5.10621 8.62765 4.69452C7.98132 3.94613 7.80021 3.78334 7.38583 3.57847C6.71316 3.24598 6.12667 3.16855 5.41617 3.31851C3.95207 3.62747 2.86102 4.84668 2.76959 6.276C2.74884 6.60073 2.77292 7.02009 2.82318 7.20801L2.91444 7.54953L3.47835 7.55838C4.93452 7.58124 6.64799 8.68962 6.45154 9.48171C6.38595 9.74622 6.04183 10.0294 5.78596 10.0294C5.67453 10.0294 5.39533 9.85367 5.12188 9.61152C4.24502 8.83495 3.22215 8.71746 2.11976 9.26671C0.788014 9.93009 0 11.2508 0 12.8192C0 14.2918 0.689252 15.5136 1.91865 16.2203L2.24778 16.4095L2.68658 15.9814C3.48201 15.2053 4.5804 14.584 5.15697 14.584C5.53852 14.584 5.83405 14.8755 5.83405 15.2519C5.83405 15.6472 5.68187 15.7952 5.04887 16.0156C4.40579 16.2395 4.10076 16.4401 3.63153 16.9479C1.87381 18.8495 3.02396 22.0104 5.58535 22.3175L5.96348 22.3628L6.06458 21.8683C6.29853 20.7242 7.14721 19.8134 7.97957 19.8134C8.41329 19.8134 8.74683 20.4359 8.51297 20.8089C8.47513 20.8693 8.26002 21.0401 8.03507 21.1884C7.49401 21.5452 7.3169 21.9001 7.35349 22.5546C7.38616 23.1391 7.63894 23.7297 8.04107 24.1613L8.31236 24.4524H9.85463H11.3968L11.7279 24.089C11.9099 23.8892 12.1303 23.538 12.2177 23.3088C12.3708 22.9072 12.3765 22.5225 12.3765 12.7284V2.5648L12.1996 2.17774C11.6757 1.03141 10.1946 0.396286 9.02878 0.818013ZM18.6038 2.58589C19.9287 3.1607 21.2542 4.22531 22.0904 5.38649C22.9538 6.58546 23.5156 8.07087 23.6835 9.59954C23.7819 10.4952 23.7791 10.544 23.6162 10.7649C23.4151 11.0375 23.1325 11.1266 22.8136 11.0181C22.4919 10.9086 22.427 10.7423 22.3382 9.79961C22.0931 7.20084 20.6093 5.06126 18.2757 3.94199C17.8073 3.7173 17.3853 3.46038 17.3381 3.37098C17.1943 3.09905 17.2411 2.77912 17.4567 2.56101C17.7193 2.29524 17.945 2.30013 18.6038 2.58589ZM6.82642 25.8296C6.0555 26.2416 5.70287 27.3245 6.08158 28.1163L6.2656 28.501H13.677H21.0883L21.2515 28.2296C21.7597 27.3839 21.3805 26.213 20.4616 25.7905C20.1477 25.6462 19.7355 25.6369 13.6606 25.6351L7.1938 25.6332L6.82642 25.8296ZM6.22785 29.8296C5.67195 30.4512 5.91189 31.7583 6.67591 32.27L7.03028 32.5074L13.6002 32.53C20.0162 32.552 20.1776 32.5486 20.4949 32.3848C21.3806 31.9275 21.74 30.7662 21.2489 29.9489L21.0883 29.6818H13.7242C6.81351 29.6818 6.35178 29.6909 6.22785 29.8296ZM9.07987 33.9672C9.24714 34.5574 9.67586 35.077 10.2513 35.3868C10.517 35.5299 10.8043 35.546 13.4874 35.569C16.7596 35.5969 17.0238 35.5652 17.6092 35.0743C17.9177 34.8157 18.3356 34.1169 18.3356 33.8597C18.3356 33.7451 17.807 33.7304 13.6742 33.7304H9.01278L9.07987 33.9672Z" fill="#495AB4"/>
</svg>
