<svg width="44" height="34" viewBox="0 0 44 34" fill="none" xmlns="http://www.w3.org/2000/svg">
<path fill-rule="evenodd" clip-rule="evenodd" d="M14.6353 0.0313474C13.7001 0.146586 12.4056 0.420487 11.7659 0.638302C7.34992 2.14233 4.05885 5.85854 3.00301 10.5331C2.8122 11.3778 2.75165 11.9686 2.70727 13.418L2.65151 15.2406L1.37722 17.2714C0.0512831 19.3843 -0.0951507 19.7365 0.0407621 20.4855C0.166249 21.1777 0.60096 21.6133 1.70663 22.1549C2.26797 22.4299 2.7352 22.6599 2.74477 22.666C2.75433 22.672 2.91922 23.6112 3.11119 24.7528C3.30315 25.8945 3.53824 27.0586 3.6337 27.3397C4.08945 28.6821 5.32558 29.8068 6.70737 30.1362C6.93817 30.1913 7.99285 30.2374 9.05099 30.2388C11.5225 30.2419 11.3565 30.1298 11.7217 32.0425C11.9522 33.2497 12.0299 33.4956 12.254 33.728L12.5163 34H14.7269H16.9374L16.8794 33.5301C16.8356 33.1752 16.9309 32.5281 17.2691 30.8841C17.7863 28.3691 17.8423 27.4599 17.5339 26.5812C17.429 26.282 16.7302 24.9941 15.9813 23.7193C14.3396 20.9251 13.81 19.8534 13.3629 18.4201C12.8174 16.6715 12.6822 15.715 12.6848 13.6231C12.6873 11.6047 12.8431 10.5625 13.401 8.83436C14.4076 5.7158 16.4638 2.92417 19.1422 1.03951C19.5066 0.783017 19.8146 0.538198 19.8264 0.495466C19.8383 0.452733 19.4821 0.338879 19.035 0.242436C18.2461 0.0723974 15.4072 -0.0638107 14.6353 0.0313474ZM26.3041 0.0315451C25.54 0.125219 24.1973 0.391504 24.1581 0.457086C24.1348 0.49596 24.4468 0.757496 24.8513 1.03832C30.3694 4.86977 32.7346 12.1941 30.5499 18.6851C30.0869 20.0609 29.6046 21.0199 28.0182 23.7201C27.2695 24.9945 26.571 26.282 26.4661 26.5812C26.1577 27.4599 26.2137 28.3691 26.7309 30.8841C27.0691 32.5281 27.1644 33.1752 27.1206 33.5301L27.0626 34H29.2731H31.4837L31.746 33.728C31.9701 33.4956 32.0478 33.2497 32.2783 32.0425C32.6436 30.1289 32.477 30.2412 34.9528 30.2412C37.0594 30.2412 37.6782 30.1416 38.4391 29.6806C39.3406 29.1344 40.0492 28.2735 40.3663 27.3397C40.4618 27.0586 40.6967 25.8938 40.8884 24.7513C41.0802 23.6088 41.2786 22.6588 41.3294 22.6401C41.3801 22.6215 41.8488 22.3901 42.371 22.126C43.3993 21.6059 43.8382 21.1526 43.9592 20.4855C44.0951 19.7365 43.9487 19.3843 42.6228 17.2714L41.3485 15.2406L41.2927 13.418C41.2486 11.9761 41.1877 11.3784 41.0011 10.5567C39.7913 5.22894 35.7786 1.23695 30.6081 0.217311C29.8275 0.0632973 27.0298 -0.0573812 26.3041 0.0315451ZM21.2827 1.56377C15.2331 4.82268 12.5669 12.4096 15.1718 18.9529C15.5542 19.9134 15.7252 20.2293 17.4864 23.2312C19.5141 26.6872 19.6014 27.2064 18.8028 31.0632C18.5572 32.2498 18.3824 33.3058 18.4143 33.4099C18.4463 33.514 18.5832 33.6894 18.7188 33.7996C18.9544 33.9913 19.097 34 22 34C24.903 34 25.0456 33.9913 25.2812 33.7996C25.4168 33.6894 25.5527 33.5175 25.5833 33.4176C25.614 33.3177 25.4395 32.2617 25.1956 31.0709C24.8431 29.3495 24.7513 28.7031 24.7475 27.9166C24.7405 26.4345 24.968 25.8487 26.6671 22.9708C28.6866 19.5503 29.1183 18.5767 29.5763 16.4109C29.846 15.135 29.868 12.516 29.6199 11.2224C28.9685 7.82659 27.2097 4.88253 24.5845 2.7934C23.8509 2.2096 22.4466 1.36376 22.1065 1.30085C21.9444 1.27087 21.6547 1.36336 21.2827 1.56377ZM6.55396 14.8757C7.21535 15.2405 7.926 15.2386 8.60728 14.8703C9.17351 14.564 9.56642 14.5866 9.80506 14.9389C10.3952 15.8103 9.20612 16.7406 7.50965 16.7347C6.89178 16.7326 6.6432 16.6831 6.21843 16.478C5.51783 16.1395 5.2745 15.9126 5.20325 15.5312C5.15361 15.2655 5.19139 15.1646 5.43471 14.913C5.7909 14.5446 5.9446 14.5395 6.55396 14.8757ZM35.4035 14.8761C36.0826 15.2433 36.7845 15.2376 37.4804 14.8594C38.0678 14.54 38.3491 14.5797 38.6717 15.0278C38.8294 15.2468 38.8478 15.3539 38.774 15.6213C38.5939 16.274 37.1655 16.8804 36.1103 16.7521C34.9849 16.6153 34.0514 16.0425 34.0514 15.4888C34.0514 15.1053 34.2025 14.8209 34.4641 14.7119C34.7877 14.5771 34.8806 14.5933 35.4035 14.8761Z" fill="#495AB4"/>
</svg>
