<svg width="37" height="37" viewBox="0 0 37 37" fill="none" xmlns="http://www.w3.org/2000/svg">
<path fill-rule="evenodd" clip-rule="evenodd" d="M16.6109 0.155949C16.4662 0.23985 16.2791 0.430486 16.1954 0.579643C16.0464 0.844641 16.043 0.926806 16.043 4.2193V7.58789H16.5734C17.229 7.58789 18.077 7.79833 18.6672 8.10763C19.2534 8.41475 20.1302 9.29148 20.4373 9.8777C20.7389 10.4534 20.957 11.312 20.957 11.9238C20.957 12.5356 20.7389 13.3942 20.4373 13.97C20.1302 14.5562 19.2534 15.4329 18.6672 15.74C18.077 16.0493 17.229 16.2598 16.5734 16.2598H16.043V17.0991C16.043 18.1035 16.1629 18.4053 16.6572 18.6445C16.9512 18.7868 17.1033 18.7891 26.5215 18.7891C36.0325 18.7891 36.0889 18.7882 36.3947 18.6402C36.618 18.5321 36.743 18.4071 36.8511 18.1838C36.9988 17.8786 37 17.811 37 9.39453C37 1.06043 36.9975 0.907656 36.8555 0.614258C36.7633 0.423982 36.609 0.258422 36.4301 0.157828L36.1493 0L26.5117 0.00166211L16.874 0.00332422L16.6109 0.155949ZM4.42201 1.59165C4.13143 1.66775 3.72529 1.82044 3.51934 1.93094C3.03349 2.19167 2.18235 3.04115 1.92964 3.51753C1.67374 3.99983 1.44531 4.8973 1.44531 5.41992C1.44531 5.94255 1.67374 6.84001 1.92964 7.32231C2.18213 7.79826 3.03335 8.6481 3.51825 8.90833C3.9968 9.16509 4.89419 9.39453 5.41992 9.39453C5.94255 9.39453 6.84001 9.1661 7.32231 8.91021C7.79826 8.65771 8.6481 7.80649 8.90833 7.32159C9.16509 6.84305 9.39453 5.94565 9.39453 5.41992C9.39453 4.89629 9.16574 3.99896 8.90956 3.51753C8.65359 3.03675 7.8031 2.18625 7.32231 1.93029C6.82607 1.66616 5.93518 1.44437 5.39029 1.44929C5.14828 1.45146 4.71251 1.51555 4.42201 1.59165ZM24.0861 5.53547C24.2133 5.59907 24.8128 6.14294 25.4184 6.74404L26.5194 7.83699L27.6587 6.70582C28.2852 6.08361 28.8894 5.53981 29.0013 5.49725C29.9088 5.15225 30.8075 6.10478 30.3805 6.95918C30.3169 7.08637 29.7726 7.68632 29.171 8.29248L28.0769 9.39453L29.171 10.4966C29.7726 11.1027 30.3169 11.7027 30.3805 11.8299C30.8214 12.7122 29.8392 13.6945 28.9568 13.2536C28.8296 13.19 28.2296 12.6457 27.6235 12.044L26.5215 10.95L25.4194 12.044C24.8133 12.6457 24.2133 13.19 24.0861 13.2536C23.2304 13.6812 22.2787 12.7833 22.6242 11.8743C22.6668 11.7625 23.2098 11.1591 23.8308 10.5336L24.9601 9.39627L23.7958 8.21841C22.5617 6.96987 22.466 6.81797 22.5739 6.27844C22.7089 5.60333 23.4718 5.22849 24.0861 5.53547ZM9.38138 10.0994C7.26674 11.8658 4.24098 12.0441 2.03435 10.5325C1.74948 10.3374 1.70316 10.3263 1.53962 10.4138C0.975947 10.7155 0.249244 11.8198 0.0798535 12.632C0.0234863 12.9023 0 16.4166 0 24.5821V36.1493L0.157828 36.4301C0.258422 36.609 0.423982 36.7633 0.614258 36.8555C0.887061 36.9875 1.0605 37 2.6244 37H4.33594V32.0065C4.33594 26.4866 4.31867 26.6983 4.79649 26.3574C5.11185 26.1326 5.72799 26.1326 6.04336 26.3574C6.52118 26.6983 6.50391 26.4866 6.50391 32.0065V37H8.21545C9.79597 37 9.95054 36.9886 10.2345 36.8511C10.4578 36.743 10.5829 36.618 10.691 36.3947C10.8393 36.0883 10.8398 36.0464 10.8398 25.0924V14.0975L14.0015 14.0766L17.1631 14.0557L17.5737 13.854C18.3489 13.4733 18.75 12.8152 18.75 11.9238C18.75 11.0324 18.3489 10.3743 17.5737 9.99361L17.1631 9.79199L13.4775 9.77421L9.79199 9.75644L9.38138 10.0994ZM25.4375 27.8945V34.832H24.4175C23.5126 34.832 23.3669 34.8493 23.1253 34.9851C22.8078 35.1635 22.5469 35.5834 22.5469 35.916C22.5469 36.2751 22.8176 36.6892 23.1611 36.8555C23.4453 36.9931 23.6074 37 26.5215 37C29.4654 37 29.5951 36.9943 29.8908 36.8511C30.2156 36.6939 30.4961 36.2606 30.4961 35.916C30.4961 35.6015 30.2221 35.1561 29.9262 34.9899C29.6744 34.8483 29.5401 34.832 28.6254 34.832H27.6055V27.8945V20.957H26.5215H25.4375V27.8945Z" fill="#495AB4"/>
</svg>
