<svg width="16" height="22" viewBox="0 0 16 22" fill="none" xmlns="http://www.w3.org/2000/svg">
<path d="M15.112 18.6289C15.0709 19.2451 14.8081 19.8256 14.372 20.2629C14.1346 20.5021 13.8522 20.6919 13.5412 20.8214C13.2301 20.9509 12.8965 21.0175 12.5595 21.0175C12.2225 21.0175 11.8889 20.9509 11.5778 20.8214C11.2667 20.6919 10.9844 20.5021 10.747 20.2629C10.0444 19.5584 9.99431 18.566 10.2822 17.8241C10.408 17.4969 10.9848 16.7295 11.2481 16.4278C12.0893 15.46 13.6694 14.0264 13.6694 11.8263C13.6694 8.19266 11.2609 6.1685 8.14984 6.1685C6.74562 6.1685 5.2775 6.79638 4.11108 8.19266M4.03543 1V21.1935M7.15933 3.8299H1" stroke="#F45279" stroke-width="1.289" stroke-miterlimit="10" stroke-linecap="round" stroke-linejoin="round"/>
</svg>
