<svg width="510" height="527" viewBox="0 0 510 527" fill="none" xmlns="http://www.w3.org/2000/svg">
<path d="M471.641 255.731C471.641 375.86 374.257 473.243 254.128 473.243C133.999 473.243 36.6154 375.86 36.6154 255.731C36.6154 135.602 133.999 38.2178 254.128 38.2178C374.257 38.2178 471.641 135.602 471.641 255.731ZM83.0778 255.731C83.0778 350.199 159.66 426.781 254.128 426.781C348.597 426.781 425.179 350.199 425.179 255.731C425.179 161.262 348.597 84.6801 254.128 84.6801C159.66 84.6801 83.0778 161.262 83.0778 255.731Z" fill="#E2E0FF"/>
<path d="M376.154 87.5711L353.164 116.994M121.931 418.632L143.88 388.424M62.9717 171.092L96.8145 186.872M441.852 345.516L408.009 329.735M254.967 47.2844V84.6233M254.967 464.768V427.429M45.2839 256.08H82.6249M461.806 256.079H424.465M443.643 171.092L409.271 185.682M60.0238 335.837L94.3972 321.249M134.002 84.6941L154.883 115.65M365.227 432.114L344.89 400.798" stroke="#E1DFED"/>
<path d="M456.2 345.821C406.535 457.367 275.841 507.532 164.289 457.869C52.7364 408.205 2.5677 277.519 52.2342 165.973C101.901 54.4279 232.593 4.26215 344.146 53.9248C455.698 103.589 505.867 234.276 456.2 345.821Z" stroke="#495AB4" stroke-width="26"/>
<path d="M384.671 68.9751L385.096 69.5401C385.362 69.8929 385.541 70.3027 385.621 70.737C385.757 71.4789 385.593 72.2444 385.164 72.8652L385.091 72.9719M381.624 77.9946L385.091 72.9719M385.091 72.9719L387.253 72.3218C387.591 72.2202 387.943 72.1713 388.296 72.177C388.974 72.1879 389.632 72.399 390.19 72.7838L390.546 73.0297C390.929 73.294 391.246 73.6439 391.47 74.0516L391.591 74.2718C391.897 74.8273 391.969 75.4816 391.793 76.0907C391.721 76.3375 391.61 76.5712 391.464 76.7827L388.382 81.2484C388.273 81.4065 388.177 81.5733 388.096 81.7472L387.549 82.9125C387.423 83.1807 387.334 83.4628 387.283 83.7511M387.283 83.7511L388.294 83.3957C388.466 83.3353 388.642 83.2885 388.821 83.2557L389.465 83.1375C390.045 83.0312 390.644 83.1596 391.129 83.4945L391.149 83.5085C391.779 83.9433 392.135 84.6769 392.086 85.4409C392.035 86.2442 391.545 86.9539 390.813 87.2867C390.115 87.6033 389.303 87.5309 388.673 87.0961L388.446 86.9391C387.864 86.5372 387.465 85.9205 387.337 85.2246L387.286 84.9441C387.213 84.5475 387.213 84.1435 387.283 83.7511ZM387.283 83.7511L383.426 85.1065C383.119 85.2144 382.79 85.2469 382.468 85.2014C382.156 85.1573 381.858 85.041 381.599 84.862L380.2 83.8964" stroke="white" stroke-width="2" stroke-linecap="round"/>
<path d="M279.882 33.7207C280.088 33.5149 280.433 33.5636 280.573 33.8182L281.554 35.6001C281.975 36.3637 283.011 36.5099 283.626 35.8923L284.985 34.5287C285.201 34.3118 285.568 34.3795 285.692 34.6593L286.846 37.255C286.944 37.4749 287.202 37.574 287.422 37.4761C287.642 37.3783 287.741 37.1207 287.643 36.9007L286.489 34.305C286.115 33.4657 285.016 33.2627 284.367 33.9133L283.009 35.277C282.803 35.4828 282.458 35.4341 282.318 35.1795L281.337 33.3976C280.916 32.634 279.88 32.4878 279.265 33.1053L277.829 34.5462C277.624 34.7521 277.279 34.7034 277.138 34.4488L276.21 32.7624C275.767 31.9578 274.654 31.8487 274.063 32.552L272.236 34.7271C272.081 34.9114 272.105 35.1863 272.289 35.3412C272.473 35.4961 272.748 35.4722 272.903 35.2879L274.731 33.1128C274.928 32.8784 275.298 32.9147 275.446 33.1829L276.375 34.8693C276.795 35.633 277.831 35.7791 278.447 35.1616L279.882 33.7207Z" fill="white"/>
<path d="M279.213 38.4686C279.418 38.2627 279.763 38.3115 279.903 38.566L280.884 40.3479C281.305 41.1116 282.341 41.2577 282.956 40.6402L284.315 39.2765C284.531 39.0597 284.898 39.1273 285.022 39.4071L286.177 42.0028C286.274 42.2228 286.532 42.3218 286.752 42.224C286.972 42.1262 287.071 41.8686 286.973 41.6486L285.819 39.0529C285.446 38.2136 284.346 38.0105 283.698 38.6612L282.339 40.0248C282.134 40.2307 281.788 40.1819 281.648 39.9274L280.667 38.1455C280.246 37.3818 279.21 37.2357 278.595 37.8532L277.159 39.2941C276.954 39.4999 276.609 39.4512 276.469 39.1967L275.54 37.5103C275.097 36.7056 273.984 36.5966 273.393 37.2999L271.566 39.4749C271.411 39.6592 271.435 39.9342 271.619 40.0891C271.804 40.2439 272.078 40.22 272.233 40.0357L274.061 37.8607C274.258 37.6262 274.629 37.6626 274.776 37.9308L275.705 39.6172C276.125 40.3809 277.161 40.527 277.777 39.9095L279.213 38.4686Z" fill="white"/>
<path d="M279.882 33.7207C280.088 33.5149 280.433 33.5636 280.573 33.8182L281.554 35.6001C281.975 36.3637 283.011 36.5099 283.626 35.8923L284.985 34.5287C285.201 34.3118 285.568 34.3795 285.692 34.6593L286.846 37.255C286.944 37.4749 287.202 37.574 287.422 37.4761C287.642 37.3783 287.741 37.1207 287.643 36.9007L286.489 34.305C286.115 33.4657 285.016 33.2627 284.367 33.9133L283.009 35.277C282.803 35.4828 282.458 35.4341 282.318 35.1795L281.337 33.3976C280.916 32.634 279.88 32.4878 279.265 33.1053L277.829 34.5462C277.624 34.7521 277.279 34.7034 277.138 34.4488L276.21 32.7624C275.767 31.9578 274.654 31.8487 274.063 32.552L272.236 34.7271C272.081 34.9114 272.105 35.1863 272.289 35.3412C272.473 35.4961 272.748 35.4722 272.903 35.2879L274.731 33.1128C274.928 32.8784 275.298 32.9147 275.446 33.1829L276.375 34.8693C276.795 35.633 277.831 35.7791 278.447 35.1616L279.882 33.7207Z" stroke="white" stroke-linecap="round"/>
<path d="M279.213 38.4686C279.418 38.2627 279.763 38.3115 279.903 38.566L280.884 40.3479C281.305 41.1116 282.341 41.2577 282.956 40.6402L284.315 39.2765C284.531 39.0597 284.898 39.1273 285.022 39.4071L286.177 42.0028C286.274 42.2228 286.532 42.3218 286.752 42.224C286.972 42.1262 287.071 41.8686 286.973 41.6486L285.819 39.0529C285.446 38.2136 284.346 38.0105 283.698 38.6612L282.339 40.0248C282.134 40.2307 281.788 40.1819 281.648 39.9274L280.667 38.1455C280.246 37.3818 279.21 37.2357 278.595 37.8532L277.159 39.2941C276.954 39.4999 276.609 39.4512 276.469 39.1967L275.54 37.5103C275.097 36.7056 273.984 36.5966 273.393 37.2999L271.566 39.4749C271.411 39.6592 271.435 39.9342 271.619 40.0891C271.804 40.2439 272.078 40.22 272.233 40.0357L274.061 37.8607C274.258 37.6262 274.629 37.6626 274.776 37.9308L275.705 39.6172C276.125 40.3809 277.161 40.527 277.777 39.9095L279.213 38.4686Z" stroke="white" stroke-linecap="round"/>
<path d="M70.3906 122.006C70.0077 120.541 70.1673 119.465 70.4582 118.726C70.6024 118.359 70.7756 118.084 70.9198 117.892C70.9918 117.796 71.056 117.722 71.1042 117.669C71.1232 117.648 71.1403 117.629 71.1523 117.616L71.1597 117.608L71.1623 117.605C71.4977 117.138 72.0932 116.747 72.7407 116.568C73.4047 116.384 74.1924 116.405 74.8617 116.875C75.4343 117.276 75.8876 117.743 76.1213 118.339C76.3577 118.941 76.3454 119.613 76.1048 120.373C76.032 120.602 75.7871 120.729 75.5576 120.656C75.3281 120.584 75.201 120.339 75.2737 120.109C75.4714 119.485 75.4546 119.027 75.3097 118.657C75.1621 118.281 74.8574 117.936 74.3615 117.588C73.9623 117.309 73.4623 117.273 72.9733 117.408C72.4761 117.546 72.0602 117.843 71.8634 118.124C71.8399 118.157 71.8083 118.191 71.801 118.199L71.7997 118.2L71.7899 118.211C71.7781 118.223 71.7661 118.236 71.7516 118.252C71.716 118.292 71.6695 118.346 71.617 118.416C71.512 118.556 71.3806 118.763 71.2694 119.045C71.0496 119.603 70.8955 120.49 71.234 121.785C71.4687 122.683 71.998 123.59 72.5989 124.364C73.1998 125.137 73.8455 125.743 74.2771 126.046L81.4006 131.037C81.5978 131.175 81.6456 131.447 81.5075 131.644C81.3693 131.841 81.0975 131.889 80.9003 131.751L73.7607 126.748C73.3255 126.443 72.5355 126.035 71.6093 125.72C70.6825 125.404 69.6601 125.195 68.7542 125.252C67.4478 125.336 66.6984 125.745 66.275 126.108C66.0606 126.293 65.9214 126.472 65.8336 126.607C65.7896 126.675 65.7578 126.733 65.735 126.776C65.7257 126.794 65.7184 126.809 65.711 126.823L65.7048 126.836L65.7043 126.837C65.7005 126.844 65.6792 126.887 65.6544 126.923C65.4769 127.176 65.3554 127.636 65.4087 128.13C65.4609 128.613 65.6729 129.065 66.0818 129.351C66.5819 129.702 67.0118 129.878 67.4121 129.899C67.802 129.919 68.2223 129.796 68.7145 129.431C68.9079 129.288 69.1809 129.328 69.3243 129.522C69.4676 129.715 69.4271 129.988 69.2337 130.131C68.6185 130.587 68.0031 130.803 67.3663 130.769C66.7399 130.736 66.1523 130.465 65.5815 130.065C64.9194 129.601 64.6142 128.893 64.5419 128.224C64.4719 127.575 64.6135 126.903 64.9265 126.443L65.7071 125.447C66.2861 124.95 67.2197 124.476 68.6988 124.382C69.7616 124.315 70.9053 124.559 71.8905 124.895C71.8982 124.897 71.9059 124.9 71.9137 124.902C71.9126 124.901 71.9115 124.9 71.9104 124.898C71.2689 124.072 70.6658 123.059 70.3906 122.006Z" fill="white" stroke="white" stroke-linecap="round"/>
<path fill-rule="evenodd" clip-rule="evenodd" d="M26.5859 236.028C26.3473 235.996 26.1796 235.777 26.2113 235.539L26.2553 235.208C26.4259 233.925 27.0278 232.739 27.9621 231.844C28.4511 231.376 29.0198 230.998 29.6413 230.73L30.3158 230.438C30.8704 230.198 31.4496 230.02 32.0431 229.906L32.4461 229.828C32.3762 229.383 32.3684 228.92 32.4309 228.451C32.4933 227.981 32.6218 227.536 32.8057 227.125L32.4369 226.945C31.8938 226.68 31.3814 226.356 30.9087 225.979L30.3339 225.522C29.8043 225.1 29.3541 224.587 29.0045 224.007C28.3366 222.899 28.0656 221.597 28.2361 220.314L28.2802 219.983C28.3119 219.745 28.5311 219.577 28.7697 219.609C29.0084 219.64 29.1761 219.86 29.1444 220.098L29.1003 220.429C28.9559 221.515 29.1854 222.618 29.7511 223.557C30.0472 224.048 30.4285 224.482 30.8771 224.84L31.4519 225.298C31.8748 225.634 32.3333 225.924 32.8192 226.161L33.2335 226.363C34.2244 224.926 35.9671 224.084 37.816 224.33C40.441 224.679 42.286 227.09 41.9369 229.715C41.5878 232.34 39.1767 234.185 36.5517 233.836C34.7028 233.59 33.2409 232.321 32.66 230.675L32.2073 230.762C31.6763 230.864 31.1581 231.023 30.6618 231.238L29.9873 231.53C29.4609 231.757 28.9793 232.077 28.5651 232.474C27.7738 233.232 27.264 234.236 27.1195 235.323L27.0755 235.654C27.0438 235.892 26.8246 236.06 26.5859 236.028ZM41.0727 229.6C41.3584 227.452 39.8488 225.48 37.7011 225.194C35.5533 224.908 33.5807 226.418 33.295 228.566C33.0094 230.713 34.5189 232.686 36.6667 232.972C38.8144 233.257 40.787 231.748 41.0727 229.6Z" fill="white" stroke="white" stroke-linecap="round"/>
<path d="M339.554 38.5561L330.273 62.3587M169.644 474.326L178.924 450.523M36.4222 170.855L60.2262 180.135M472.217 340.755L448.413 331.474M219.251 25.0188L223.116 50.2727M290.002 487.356L286.137 462.103M22.8851 291.15L48.1395 287.286M485.249 220.402L459.993 224.267M436.97 110.427L417.031 126.4M71.9267 402.865L91.8658 386.891M108.297 73.4434L124.272 93.3824M400.752 438.465L384.778 418.528M410.261 325.688C371.862 411.929 270.817 450.715 184.572 412.317C98.3258 373.92 59.5383 272.882 97.9377 186.641C136.337 100.401 237.381 61.6158 323.627 100.013C409.872 138.409 448.659 239.448 410.261 325.688Z" stroke="#BDBBC8"/>
<path d="M5.20809 251.227L4.52023 249.202H1.74913L1.06127 251.227H0.226013L2.6237 244.368H3.67515L6.07283 251.227H5.20809ZM3.15434 245.134H3.1052L1.94567 248.475H4.31387L3.15434 245.134ZM9.1348 251.344C8.57861 251.344 8.10301 251.24 7.70994 251.03C7.31688 250.814 6.98278 250.519 6.70763 250.146L7.31688 249.635C7.5596 249.956 7.82786 250.202 8.12266 250.372C8.41746 250.536 8.76532 250.617 9.16428 250.617C9.65561 250.617 10.029 250.499 10.2845 250.264C10.5469 250.028 10.6776 249.713 10.6776 249.32C10.6776 248.993 10.5793 248.741 10.3828 248.564C10.1862 248.387 9.86197 248.246 9.40994 248.141L8.84983 248.013C8.22093 247.87 7.73942 247.654 7.40532 247.365C7.07809 247.07 6.91399 246.657 6.91399 246.127C6.91399 245.826 6.97 245.557 7.08104 245.321C7.19307 245.085 7.34636 244.889 7.54289 244.732C7.7463 244.574 7.98509 244.456 8.26023 244.378C8.54226 244.293 8.84983 244.25 9.18393 244.25C9.70179 244.25 10.144 244.345 10.5105 244.535C10.8839 244.726 11.1984 245.004 11.4539 245.37L10.8348 245.822C10.6532 245.568 10.4184 245.357 10.1469 245.203C9.87867 245.053 9.54457 244.977 9.14463 244.977C8.70636 244.977 8.3585 245.072 8.10301 245.262C7.8544 245.446 7.7296 245.724 7.7296 246.097C7.7296 246.426 7.83474 246.674 8.04405 246.844C8.26023 247.008 8.58451 247.139 9.01688 247.237L9.577 247.365C10.2521 247.516 10.7405 247.745 11.0412 248.053C11.3428 248.361 11.4932 248.77 11.4932 249.281C11.4932 249.595 11.4382 249.88 11.3261 250.136C11.222 250.391 11.0677 250.607 10.8643 250.784C10.6619 250.961 10.4123 251.099 10.1175 251.197C9.82954 251.295 9.50231 251.344 9.1348 251.344ZM15.3354 251.344C14.4647 251.344 13.7867 251.05 13.3013 250.46C12.8178 249.865 12.5741 248.99 12.5741 247.837C12.5741 246.684 12.8178 245.8 13.3013 245.184C13.7867 244.562 14.4647 244.25 15.3354 244.25C15.9132 244.25 16.3937 244.382 16.7799 244.643C17.173 244.905 17.4776 245.276 17.6938 245.753L17.0256 246.156C16.901 245.82 16.6827 245.527 16.3967 245.311C16.1156 245.095 15.7619 244.987 15.3354 244.987C15.0406 244.987 14.7753 245.043 14.5394 245.154C14.3086 245.267 14.1068 245.432 13.9498 245.636C13.7926 245.839 13.6727 246.085 13.5862 246.372C13.4972 246.682 13.4542 247.003 13.4585 247.326V248.348C13.4585 249.055 13.6236 249.609 13.9498 250.008C14.278 250.408 14.7399 250.607 15.3354 250.607C15.7746 250.607 16.1412 250.496 16.436 250.273C16.7308 250.044 16.9469 249.743 17.0845 249.369L17.7429 249.782C17.5267 250.268 17.2162 250.651 16.8094 250.932C16.4035 251.207 15.9122 251.344 15.3354 251.344ZM491.261 261.072H493.56C493.986 261.072 494.373 261.145 494.72 261.288C495.067 261.433 495.361 261.649 495.604 261.937C495.853 262.219 496.043 262.576 496.174 263.008C496.305 263.434 496.371 263.932 496.371 264.501C496.371 265.071 496.305 265.573 496.174 266.005C496.061 266.398 495.867 266.763 495.604 267.076C495.364 267.356 495.061 267.575 494.72 267.715C494.373 267.859 493.986 267.931 493.56 267.931H491.261V261.072ZM493.56 267.204C493.842 267.204 494.101 267.158 494.336 267.066C494.572 266.968 494.776 266.827 494.946 266.644C495.116 266.461 495.247 266.238 495.339 265.975C495.437 265.707 495.486 265.403 495.486 265.062V263.941C495.486 263.601 495.437 263.3 495.339 263.037C495.257 262.786 495.123 262.555 494.946 262.359C494.777 262.177 494.568 262.036 494.336 261.947C494.101 261.848 493.842 261.799 493.56 261.799H492.086V267.204H493.56ZM499.779 268.049C499.222 268.049 498.748 267.945 498.354 267.734C497.961 267.518 497.627 267.223 497.352 266.85L497.961 266.339C498.204 266.66 498.472 266.906 498.767 267.076C499.062 267.24 499.409 267.322 499.809 267.322C500.3 267.322 500.674 267.204 500.929 266.968C501.191 266.732 501.322 266.418 501.322 266.025C501.322 265.697 501.224 265.445 501.027 265.268C500.831 265.091 500.507 264.951 500.055 264.845L499.494 264.718C498.865 264.574 498.384 264.358 498.05 264.069C497.723 263.774 497.559 263.362 497.559 262.831C497.559 262.53 497.615 262.261 497.726 262.025C497.837 261.79 497.991 261.593 498.187 261.436C498.391 261.279 498.63 261.161 498.905 261.082C499.187 260.998 499.494 260.954 499.828 260.954C500.346 260.954 500.789 261.05 501.155 261.239C501.529 261.43 501.843 261.708 502.098 262.074L501.479 262.526C501.298 262.273 501.063 262.061 500.792 261.907C500.523 261.757 500.189 261.681 499.789 261.681C499.35 261.681 499.003 261.777 498.748 261.966C498.499 262.15 498.374 262.428 498.374 262.802C498.374 263.13 498.479 263.378 498.689 263.548C498.905 263.712 499.229 263.843 499.661 263.941L500.222 264.069C500.897 264.22 501.384 264.449 501.686 264.757C501.987 265.065 502.138 265.474 502.138 265.985C502.138 266.3 502.082 266.585 501.971 266.84C501.866 267.096 501.712 267.312 501.509 267.489C501.305 267.665 501.057 267.803 500.762 267.901C500.474 268 500.146 268.049 499.779 268.049ZM505.981 268.049C505.109 268.049 504.431 267.754 503.947 267.164C503.461 266.569 503.22 265.694 503.22 264.541C503.22 263.388 503.461 262.504 503.947 261.888C504.431 261.266 505.109 260.954 505.981 260.954C506.557 260.954 507.038 261.086 507.425 261.347C507.819 261.61 508.123 261.98 508.339 262.458L507.671 262.861C507.546 262.525 507.328 262.232 507.042 262.016C506.76 261.799 506.406 261.691 505.981 261.691C505.686 261.691 505.421 261.747 505.185 261.858C504.954 261.971 504.752 262.136 504.595 262.34C504.438 262.543 504.316 262.789 504.232 263.077C504.143 263.386 504.1 263.708 504.104 264.03V265.052C504.104 265.759 504.267 266.313 504.595 266.712C504.923 267.112 505.384 267.312 505.981 267.312C506.419 267.312 506.787 267.201 507.082 266.978C507.376 266.749 507.593 266.447 507.73 266.074L508.388 266.486C508.172 266.972 507.861 267.355 507.455 267.636C507.048 267.911 506.557 268.049 505.981 268.049ZM264.699 12.5721H264.65L264.07 13.7217L262.429 16.7088L260.788 13.7217L260.208 12.5721H260.159V18.3498H259.353V11.4912H260.454L262.419 15.1858H262.468L264.443 11.4912H265.505V18.3498H264.699V12.5721ZM269.745 18.4677C268.874 18.4677 268.196 18.1729 267.711 17.5833C267.226 16.9879 266.984 16.1134 266.984 14.9598C266.984 13.8072 267.226 12.9229 267.711 12.3068C268.196 11.6848 268.874 11.3733 269.745 11.3733C270.322 11.3733 270.803 11.505 271.189 11.7663C271.582 12.0287 271.887 12.3991 272.103 12.8767L271.435 13.2795C271.311 12.9434 271.092 12.6501 270.806 12.4345C270.525 12.2183 270.171 12.1102 269.745 12.1102C269.45 12.1102 269.185 12.1663 268.949 12.2773C268.718 12.3903 268.516 12.555 268.359 12.7588C268.202 12.9622 268.081 13.2078 267.996 13.4957C267.911 13.7777 267.868 14.0951 267.868 14.4488V15.4707C267.868 16.1782 268.032 16.7324 268.359 17.1313C268.687 17.5313 269.149 17.7307 269.745 17.7307C270.184 17.7307 270.551 17.6197 270.845 17.3966C271.14 17.1677 271.356 16.866 271.494 16.4926L272.152 16.9053C271.936 17.3907 271.626 17.774 271.219 18.055C270.813 18.3301 270.322 18.4677 269.745 18.4677ZM241.217 501.679V500.991H242.18V495.508H241.217V494.821H243.969V495.508H243.006V500.991H243.969V501.679H241.217ZM247.893 501.797C247.023 501.797 246.345 501.502 245.859 500.913C245.375 500.316 245.132 499.442 245.132 498.289C245.132 497.136 245.375 496.251 245.859 495.636C246.345 495.013 247.023 494.703 247.893 494.703C248.47 494.703 248.952 494.833 249.338 495.096C249.731 495.357 250.036 495.727 250.252 496.206L249.584 496.609C249.459 496.273 249.241 495.979 248.955 495.764C248.674 495.548 248.32 495.44 247.893 495.44C247.599 495.44 247.333 495.495 247.097 495.607C246.866 495.719 246.664 495.884 246.508 496.088C246.351 496.29 246.23 496.536 246.144 496.825C246.06 497.106 246.017 497.424 246.017 497.778V498.8C246.017 499.508 246.181 500.061 246.508 500.461C246.836 500.86 247.298 501.06 247.893 501.06C248.333 501.06 248.699 500.948 248.994 500.726C249.289 500.496 249.505 500.195 249.643 499.822L250.301 500.235C250.085 500.719 249.774 501.102 249.367 501.384C248.962 501.659 248.47 501.797 247.893 501.797Z" fill="black"/>
<path d="M254.671 12.5789V22.4049M254.671 499.95V490.124M10.4388 255.732H20.2654M497.839 255.732H488.012" stroke="#2F2949"/>
<path d="M218.043 90.3127L367.462 383.013M367.462 383.013L88.2074 227.509M367.462 383.013L84.884 239.14M287.077 88.373L406.256 338.115L276.127 86.7085" stroke="#1766FF"/>
<path d="M85.9925 227.509L98.7317 225.293M98.7317 225.293L403.587 174.363M98.7317 225.293L93.5432 204.581M98.7317 225.293L367.026 383.449" stroke="#31C840" stroke-dasharray="3.44 3.44"/>
<path d="M407.15 175.19L94.7008 204.924M288.15 88.8506L273.744 424.859" stroke="#FF3333" stroke-dasharray="3.44 3.44"/>
<path d="M273.744 425.295L105.009 172.933M276.127 87.1997L425.872 269.679L287.307 88.4751" stroke="#FF3333"/>
<path d="M276.503 89.4932C278.105 89.4932 279.403 88.1945 279.403 86.5925C279.403 84.9906 278.105 83.6919 276.503 83.6919C274.9 83.6919 273.602 84.9906 273.602 86.5925C273.602 88.1945 274.9 89.4932 276.503 89.4932Z" fill="#52458A" stroke="#52458A" stroke-width="0.859"/>
<path d="M287.107 90.513C288.709 90.513 290.008 89.2143 290.008 87.6123C290.008 86.0103 288.709 84.7117 287.107 84.7117C285.505 84.7117 284.207 86.0103 284.207 87.6123C284.207 89.2143 285.505 90.513 287.107 90.513Z" fill="#52458A" stroke="#52458A" stroke-width="0.859"/>
<path d="M217.985 92.4929C219.587 92.4929 220.886 91.1943 220.886 89.5923C220.886 87.9903 219.587 86.6917 217.985 86.6917C216.383 86.6917 215.084 87.9903 215.084 89.5923C215.084 91.1943 216.383 92.4929 217.985 92.4929Z" fill="#52458A" stroke="#52458A" stroke-width="0.859"/>
<path d="M170.185 109.666C171.787 109.666 173.086 108.367 173.086 106.765C173.086 105.163 171.787 103.865 170.185 103.865C168.583 103.865 167.284 105.163 167.284 106.765C167.284 108.367 168.583 109.666 170.185 109.666Z" fill="white" stroke="#52458A" stroke-width="0.859"/>
<path d="M333.03 410.968C334.632 410.968 335.931 409.67 335.931 408.068C335.931 406.466 334.632 405.167 333.03 405.167C331.428 405.167 330.129 406.466 330.129 408.068C330.129 409.67 331.428 410.968 333.03 410.968Z" fill="white" stroke="#52458A" stroke-width="0.859"/>
<path d="M105.639 176.221C107.241 176.221 108.54 174.923 108.54 173.321C108.54 171.719 107.241 170.42 105.639 170.42C104.037 170.42 102.738 171.719 102.738 173.321C102.738 174.923 104.037 176.221 105.639 176.221Z" fill="#52458A" stroke="#52458A" stroke-width="0.859"/>
<path d="M93.0853 207.48C94.6874 207.48 95.9861 206.181 95.9861 204.579C95.9861 202.977 94.6874 201.679 93.0853 201.679C91.4832 201.679 90.1845 202.977 90.1845 204.579C90.1845 206.181 91.4832 207.48 93.0853 207.48Z" fill="#52458A" stroke="#52458A" stroke-width="0.859"/>
<path d="M85.9925 230.409C87.5946 230.409 88.8933 229.111 88.8933 227.509C88.8933 225.907 87.5946 224.608 85.9925 224.608C84.3904 224.608 83.0917 225.907 83.0917 227.509C83.0917 229.111 84.3904 230.409 85.9925 230.409Z" fill="#52458A" stroke="#52458A" stroke-width="0.859"/>
<path d="M84.884 241.486C86.4861 241.486 87.7848 240.187 87.7848 238.585C87.7848 236.983 86.4861 235.685 84.884 235.685C83.282 235.685 81.9832 236.983 81.9832 238.585C81.9832 240.187 83.282 241.486 84.884 241.486Z" fill="#52458A" stroke="#52458A" stroke-width="0.859"/>
<path d="M273.157 428.481C274.759 428.481 276.058 427.182 276.058 425.58C276.058 423.978 274.759 422.679 273.157 422.679C271.555 422.679 270.256 423.978 270.256 425.58C270.256 427.182 271.555 428.481 273.157 428.481Z" fill="#52458A" stroke="#52458A" stroke-width="0.859"/>
<path d="M367.311 386.635C368.913 386.635 370.212 385.336 370.212 383.734C370.212 382.132 368.913 380.833 367.311 380.833C365.709 380.833 364.41 382.132 364.41 383.734C364.41 385.336 365.709 386.635 367.311 386.635Z" fill="#52458A" stroke="#52458A" stroke-width="0.859"/>
<path d="M122.549 366.66C124.151 366.66 125.45 365.361 125.45 363.759C125.45 362.157 124.151 360.858 122.549 360.858C120.947 360.858 119.649 362.157 119.649 363.759C119.649 365.361 120.947 366.66 122.549 366.66Z" fill="white" stroke="#52458A" stroke-width="0.859"/>
<path d="M406.144 341.182C407.746 341.182 409.045 339.883 409.045 338.281C409.045 336.679 407.746 335.38 406.144 335.38C404.542 335.38 403.243 336.679 403.243 338.281C403.243 339.883 404.542 341.182 406.144 341.182Z" fill="#52458A" stroke="#52458A" stroke-width="0.859"/>
<path d="M425.116 272.819C426.718 272.819 428.017 271.52 428.017 269.918C428.017 268.316 426.718 267.018 425.116 267.018C423.514 267.018 422.215 268.316 422.215 269.918C422.215 271.52 423.514 272.819 425.116 272.819Z" fill="#52458A" stroke="#52458A" stroke-width="0.859"/>
<path d="M405.013 176.909C406.615 176.909 407.913 175.611 407.913 174.009C407.913 172.407 406.615 171.108 405.013 171.108C403.411 171.108 402.112 172.407 402.112 174.009C402.112 175.611 403.411 176.909 405.013 176.909Z" fill="#52458A" stroke="#52458A" stroke-width="0.859"/>
<path d="M73.5618 211.275V195.218M69.2833 205.139H77.9013M69.246 197.495V208.245M77.9268 197.495V208.245M67.8035 196.237L69.2332 197.457M67.8035 209.439L69.2332 208.22M79.3684 196.237L77.9258 197.457M79.3684 209.439L77.9258 208.22M143.864 401.539C143.864 405.311 140.816 408.367 137.053 408.367C133.29 408.367 130.242 405.311 130.242 401.539M136.965 414.83V395.19M133.855 411.624H140.001M134.456 397.202L136.965 394.686M139.424 397.139L136.991 394.699M127.746 397.202L130.242 394.686M132.7 397.139L130.267 394.699M130.242 401.489V394.788M141.381 397.202L143.877 394.686M146.336 397.139L143.903 394.699M143.877 401.489V394.788M427.811 357.29C427.77 357.906 427.507 358.486 427.071 358.924C426.834 359.163 426.552 359.353 426.241 359.482C425.929 359.612 425.596 359.678 425.259 359.678C424.922 359.678 424.588 359.612 424.277 359.482C423.966 359.353 423.684 359.163 423.446 358.924C422.744 358.219 422.694 357.227 422.982 356.485C423.107 356.158 423.684 355.39 423.948 355.089C424.789 354.121 426.369 352.687 426.369 350.487C426.369 346.853 423.96 344.829 420.849 344.829C419.445 344.829 417.977 345.457 416.81 346.853M416.735 339.661V359.854M419.859 342.491H413.699M410.751 157.612C412.006 156.517 413.614 155.914 415.28 155.914C419.093 155.914 422.192 159.02 422.192 162.842C422.192 166.665 419.093 169.771 415.28 169.771M426.18 155.914V175.982M430.784 169.783H415.292M74.9661 212.683C74.9661 213.468 74.3313 214.104 73.5491 214.104C73.3627 214.104 73.1781 214.067 73.0059 213.995C72.8337 213.924 72.6773 213.819 72.5457 213.687C72.414 213.555 72.3096 213.399 72.2384 213.226C72.1673 213.054 72.1308 212.869 72.1311 212.683C72.1311 211.899 72.7659 211.262 73.5491 211.262C74.3313 211.262 74.9661 211.899 74.9661 212.683Z" stroke="#231B48" stroke-width="1.289" stroke-miterlimit="10" stroke-linecap="round" stroke-linejoin="round"/>
<path d="M219.335 71.8486C219.335 76.0836 215.911 79.5129 211.689 79.5129V80.7805C216.613 80.7805 220.602 76.7803 220.602 71.8486H219.335ZM211.689 79.5129C207.468 79.5129 204.044 76.0836 204.044 71.8486H202.777C202.777 76.7803 206.766 80.7805 211.689 80.7805V79.5129ZM204.044 71.8486C204.044 67.6136 207.468 64.1833 211.689 64.1833V62.9158C206.766 62.9158 202.777 66.9179 202.777 71.8486H204.044ZM211.689 64.1833C215.911 64.1833 219.335 67.6146 219.335 71.8486H220.602C220.602 66.9179 216.613 62.9158 211.689 62.9158V64.1833ZM211.737 71.6609C211.737 71.7235 211.712 71.7835 211.667 71.8277C211.623 71.8719 211.563 71.8968 211.501 71.8968V73.1643C211.899 73.1641 212.281 73.0055 212.563 72.7236C212.845 72.4417 213.003 72.0595 213.003 71.6609H211.737ZM211.501 71.8968C211.47 71.8969 211.439 71.8909 211.41 71.8791C211.381 71.8673 211.355 71.8499 211.333 71.828C211.311 71.8061 211.294 71.7801 211.282 71.7514C211.27 71.7227 211.264 71.692 211.264 71.6609H209.997C209.997 72.4912 210.67 73.1643 211.501 73.1643V71.8968ZM211.264 71.6609C211.264 71.6299 211.27 71.5991 211.282 71.5705C211.294 71.5418 211.311 71.5157 211.333 71.4938C211.355 71.4719 211.381 71.4546 211.41 71.4428C211.439 71.431 211.47 71.425 211.501 71.4251V70.1575C211.303 70.1575 211.108 70.1964 210.925 70.272C210.743 70.3475 210.577 70.4583 210.438 70.5979C210.298 70.7375 210.187 70.9032 210.112 71.0856C210.036 71.268 209.997 71.4635 209.997 71.6609H211.264ZM211.501 71.4251C211.563 71.4251 211.623 71.45 211.667 71.4942C211.712 71.5384 211.737 71.5984 211.737 71.6609H213.003C213.003 71.2624 212.845 70.8801 212.563 70.5982C212.281 70.3163 211.899 70.1578 211.501 70.1575V71.4251Z" fill="#231B48"/>
<path d="M67.7072 236.766V230.128M75.2962 222.093C75.2962 226.343 71.8589 229.788 67.6187 229.788C63.3795 229.788 59.9422 226.343 59.9422 222.093M64.5833 233.56H70.7426M119.232 377.982V394.692M111.04 386.306H127.548M294.584 81.6902V75.0645M298.122 59.6868C298.123 60.646 297.743 61.5662 297.065 62.2452C296.388 62.9242 295.468 63.3064 294.509 63.3077C293.55 63.3064 292.63 62.9242 291.953 62.2452C291.275 61.5661 290.895 60.6459 290.897 59.6868M291.473 78.484H297.62M277.879 77.0533V70.4276M274.755 73.8471H280.902M105.914 381.525V374.899M102.79 378.319H108.937M442.966 264V267.805M442.966 267.805V272.592M442.966 267.805L446.618 264.983M442.966 267.805L446.618 270.387M69.6676 244.567L73.6689 240.569M69.078 240.418H73.6945M73.7073 244.932V240.443M94.5475 165.409C94.5475 170.124 90.7348 173.947 86.0308 173.947C84.829 173.949 83.6403 173.696 82.5433 173.205C86.9083 172.865 90.3329 169.508 90.3329 165.422C90.3329 161.323 86.9083 157.966 82.5433 157.638C83.6403 157.148 84.829 156.895 86.0308 156.897C90.7348 156.885 94.5475 160.694 94.5475 165.409ZM71.8962 222.131C71.8962 224.512 69.9702 226.444 67.5942 226.444C66.4515 226.443 65.3563 225.987 64.5493 225.178C63.7424 224.369 63.2898 223.273 63.2911 222.131C63.2904 221.565 63.4012 221.005 63.6171 220.482C63.833 219.959 64.1498 219.484 64.5494 219.083C64.949 218.683 65.4235 218.365 65.9459 218.148C66.4684 217.931 67.0284 217.819 67.5942 217.818C68.7365 217.82 69.8315 218.275 70.6383 219.084C71.445 219.892 71.8975 220.988 71.8962 222.131ZM127.598 386.331C127.598 390.914 123.892 394.629 119.319 394.629C114.747 394.629 111.04 390.914 111.04 386.331C111.04 381.748 114.747 378.033 119.319 378.033C123.892 378.033 127.598 381.748 127.598 386.331ZM300.292 69.1168C300.292 72.27 297.742 74.8257 294.596 74.8257C291.452 74.8257 288.902 72.269 288.902 69.1168C288.902 65.9646 291.452 63.4079 294.596 63.4079C297.742 63.4079 300.292 65.9646 300.292 69.1168ZM283.587 64.4799C283.587 67.6331 281.037 70.1888 277.891 70.1888C274.747 70.1888 272.197 67.6321 272.197 64.4799C272.197 61.3277 274.747 58.771 277.891 58.771C281.037 58.771 283.587 61.3277 283.587 64.4799ZM105.926 374.66C102.781 374.66 100.231 372.104 100.231 368.952C100.231 365.799 102.781 363.243 105.926 363.243C107.455 363.243 108.842 363.846 109.865 364.829C102.477 364.829 102.79 372.799 110.058 372.881C109.527 373.443 108.886 373.892 108.176 374.198C107.465 374.504 106.699 374.661 105.926 374.66ZM448.673 278.539C448.673 275.387 446.123 272.831 442.978 272.831C439.833 272.831 437.283 275.387 437.283 278.539C437.283 281.692 439.833 284.248 442.978 284.248C446.123 284.248 448.673 281.692 448.673 278.539ZM72.3276 250.238C72.3276 254.211 69.1143 257.431 65.1522 257.431C61.1892 257.431 57.9769 254.211 57.9769 250.238C57.9769 246.266 61.1902 243.046 65.1522 243.046C69.1143 243.046 72.3276 246.266 72.3276 250.238Z" stroke="#231B48" stroke-width="1.289" stroke-miterlimit="10" stroke-linecap="round" stroke-linejoin="round"/>
<path d="M163.121 98.9231L164.104 90.0797C164.104 88.5161 163.483 87.0165 162.377 85.9109C161.271 84.8052 159.772 84.1841 158.208 84.1841C156.644 84.1841 155.145 84.8052 154.039 85.9109C152.933 87.0165 152.312 88.5161 152.312 90.0797L153.295 98.9231M163.121 98.9231C163.115 99.1848 163.162 99.4451 163.258 99.6886C163.354 99.932 163.498 100.154 163.681 100.341C163.864 100.528 164.083 100.677 164.324 100.778C164.565 100.88 164.824 100.932 165.086 100.932C165.348 100.932 165.607 100.88 165.848 100.778C166.09 100.677 166.308 100.528 166.491 100.341C166.674 100.154 166.818 99.932 166.914 99.6886C167.01 99.4451 167.057 99.1848 167.051 98.9231C167.04 98.4097 166.827 97.9211 166.46 97.562C166.093 97.2029 165.6 97.0019 165.086 97.0019C164.573 97.0019 164.079 97.2029 163.712 97.562C163.345 97.9211 163.133 98.4097 163.121 98.9231ZM153.295 98.9231C153.301 99.1848 153.254 99.4451 153.158 99.6886C153.062 99.932 152.918 100.154 152.735 100.341C152.552 100.528 152.333 100.677 152.092 100.778C151.851 100.88 151.592 100.932 151.33 100.932C151.068 100.932 150.809 100.88 150.568 100.778C150.326 100.677 150.108 100.528 149.925 100.341C149.742 100.154 149.598 99.932 149.502 99.6886C149.406 99.4451 149.359 99.1848 149.365 98.9231C149.377 98.4097 149.589 97.9211 149.956 97.562C150.323 97.2029 150.816 97.0019 151.33 97.0019C151.844 97.0019 152.337 97.2029 152.704 97.562C153.071 97.9211 153.283 98.4097 153.295 98.9231ZM343.931 420.234L344.913 429.078C344.913 430.641 344.292 432.141 343.186 433.246C342.081 434.352 340.581 434.973 339.017 434.973C337.454 434.973 335.954 434.352 334.848 433.246C333.743 432.141 333.121 430.641 333.121 429.078L334.104 420.234M343.931 420.234C343.931 419.713 344.138 419.213 344.506 418.844C344.875 418.476 345.375 418.269 345.896 418.269C346.417 418.269 346.917 418.476 347.286 418.844C347.654 419.213 347.861 419.713 347.861 420.234C347.861 420.755 347.654 421.255 347.286 421.624C346.917 421.992 346.417 422.199 345.896 422.199C345.375 422.199 344.875 421.992 344.506 421.624C344.138 421.255 343.931 420.755 343.931 420.234ZM334.104 420.234C334.104 419.713 333.897 419.213 333.528 418.844C333.16 418.476 332.66 418.269 332.139 418.269C331.617 418.269 331.118 418.476 330.749 418.844C330.38 419.213 330.173 419.713 330.173 420.234C330.173 420.755 330.38 421.255 330.749 421.624C331.118 421.992 331.617 422.199 332.139 422.199C332.66 422.199 333.16 421.992 333.528 421.624C333.897 421.255 334.104 420.755 334.104 420.234Z" stroke="#231B48" stroke-width="1.3"/>
<path d="M283.92 49.4421L283.497 52.2494M294.798 51.2668L294.258 54.7069M207.832 52.2504L208.664 55.8782M437.895 157.172L435.55 158.929M461.931 273.103H459M438.481 354.891L435.55 353.135M120.376 415.812L122.72 412.885M102.295 398.45L105.226 396.108M46.1064 243.264H49.6243M47.5803 228.627L51.0983 229.118M54.5376 196.201L57.9926 196.987M72.0623 154.83L74.9936 156.586M88.9306 382.404L91.3873 380.93M344.422 443.325L342.948 440.869M150.838 74.8493L152.312 77.7971" stroke="#F45279"/>
<path fill-rule="evenodd" clip-rule="evenodd" d="M118.45 352.435C117.928 352.435 117.429 352.228 117.06 351.859C116.691 351.49 116.484 350.991 116.484 350.469V349.85C116.484 349.172 116.828 348.574 117.351 348.221V346.546C117.084 346.366 116.865 346.123 116.714 345.839C116.563 345.555 116.484 345.238 116.484 344.916V344.297C116.484 343.775 116.691 343.276 117.06 342.907C117.429 342.538 117.928 342.331 118.45 342.331H120.926C121.111 342.331 121.289 342.357 121.459 342.405C121.628 342.357 121.806 342.331 121.99 342.331H124.467C124.725 342.331 124.98 342.382 125.219 342.481C125.457 342.58 125.674 342.725 125.856 342.907C126.039 343.089 126.183 343.306 126.282 343.545C126.381 343.783 126.432 344.039 126.432 344.297V344.916C126.432 345.595 126.088 346.193 125.565 346.546V348.221C126.088 348.574 126.432 349.172 126.432 349.85V350.469C126.432 350.991 126.225 351.49 125.856 351.859C125.488 352.228 124.988 352.435 124.467 352.435H121.99C121.806 352.435 121.628 352.41 121.459 352.362C121.285 352.411 121.106 352.435 120.926 352.435H118.45ZM118.45 350.469H120.926V349.85H120.059V344.916H120.926V344.297H118.45V344.916H119.316V349.85H118.45V350.469ZM124.467 350.469V349.85H123.6V344.916H124.467V344.297H121.99V344.916H122.857V349.85H121.99V350.469H124.467ZM193.132 411.391C192.611 411.391 192.111 411.184 191.742 410.815C191.374 410.447 191.166 409.947 191.166 409.425V408.806C191.166 408.128 191.51 407.53 192.033 407.177V405.502C191.766 405.322 191.547 405.079 191.396 404.795C191.245 404.511 191.166 404.194 191.166 403.872V403.253C191.166 402.732 191.374 402.232 191.742 401.863C192.111 401.495 192.611 401.288 193.132 401.288H195.608C195.793 401.288 195.971 401.313 196.141 401.361C196.31 401.313 196.489 401.288 196.672 401.288H199.149C199.333 401.288 199.512 401.313 199.681 401.361C199.85 401.313 200.029 401.288 200.214 401.288H202.69C203.211 401.288 203.711 401.495 204.08 401.863C204.448 402.232 204.655 402.732 204.655 403.253V403.872C204.655 404.551 204.312 405.149 203.789 405.502V407.177C204.312 407.53 204.655 408.128 204.655 408.806V409.425C204.655 409.947 204.448 410.447 204.08 410.815C203.711 411.184 203.211 411.391 202.69 411.391H200.214C200.029 411.391 199.85 411.366 199.681 411.318C199.508 411.367 199.329 411.391 199.149 411.391H196.672C196.489 411.391 196.31 411.366 196.141 411.318C195.967 411.367 195.788 411.391 195.608 411.391H193.132ZM193.132 409.425H195.608V408.806H194.741V403.872H195.608V403.253H193.132V403.872H193.999V408.806H193.132V409.425ZM196.672 408.806V409.425H199.149V408.806H198.282V403.872H199.149V403.253H196.672V403.872H197.539V408.806H196.672ZM202.69 409.425V408.806H201.823V403.872H202.69V403.253H200.214V403.872H201.081V408.806H200.214V409.425H202.69ZM296.311 415.321C295.79 415.321 295.29 415.114 294.921 414.746C294.553 414.377 294.346 413.877 294.346 413.356V412.737C294.346 412.059 294.69 411.46 295.212 411.108V409.432C294.945 409.253 294.727 409.01 294.575 408.726C294.424 408.441 294.345 408.124 294.346 407.802V407.183C294.346 406.662 294.553 406.162 294.921 405.794C295.29 405.425 295.79 405.218 296.311 405.218H298.787C298.909 405.218 299.028 405.23 299.143 405.25C299.259 405.23 299.378 405.218 299.498 405.218H300.294C300.65 405.218 300.999 405.315 301.304 405.498C301.61 405.681 301.859 405.944 302.027 406.258C302.195 405.944 302.445 405.681 302.75 405.498C303.055 405.315 303.405 405.218 303.761 405.218H304.53C304.842 405.218 305.149 405.293 305.427 405.435C305.704 405.578 305.944 405.784 306.126 406.037C306.308 406.291 306.427 406.584 306.473 406.892C306.52 407.2 306.492 407.515 306.393 407.811L304.315 413.984C304.183 414.374 303.933 414.712 303.599 414.952C303.264 415.192 302.863 415.321 302.452 415.321H301.55C301.033 415.321 300.536 415.118 300.169 414.754C299.801 415.118 299.305 415.322 298.787 415.321H296.311ZM296.311 407.183V407.802H297.178V412.737H296.311V413.356H298.787V412.737H297.921V407.802H298.787V407.183H296.311ZM301.55 413.356H302.452L304.53 407.183H303.761L302.735 410.296L302.036 412.613H301.992L301.311 410.296L300.294 407.183H299.498L301.55 413.356ZM374.656 368.156C374.244 368.156 373.841 368.026 373.507 367.785C373.172 367.543 372.922 367.203 372.791 366.811L370.74 360.638C370.641 360.343 370.614 360.028 370.661 359.721C370.708 359.413 370.828 359.121 371.01 358.868C371.192 358.616 371.432 358.41 371.709 358.268C371.986 358.127 372.293 358.053 372.605 358.053H373.401C373.757 358.053 374.106 358.15 374.411 358.333C374.716 358.516 374.966 358.779 375.134 359.093C375.302 358.779 375.552 358.516 375.857 358.333C376.162 358.15 376.511 358.053 376.867 358.053H377.637C377.949 358.053 378.256 358.127 378.534 358.27C378.811 358.412 379.051 358.619 379.233 358.872C379.415 359.125 379.534 359.418 379.58 359.727C379.627 360.035 379.599 360.351 379.499 360.646L377.421 366.819C377.289 367.209 377.039 367.547 376.705 367.787C376.371 368.027 375.97 368.156 375.559 368.156H374.656ZM375.842 363.131L375.143 365.448H375.099L374.418 363.131L373.401 360.018H372.605L373.715 363.361L374.656 366.191H375.559L377.637 360.018H376.867L375.842 363.131ZM409.049 296.426C408.637 296.426 408.234 296.296 407.9 296.055C407.565 295.813 407.315 295.473 407.184 295.081L405.133 288.908C405.034 288.613 405.007 288.298 405.054 287.991C405.101 287.683 405.221 287.391 405.403 287.138C405.585 286.886 405.825 286.68 406.102 286.538C406.379 286.397 406.686 286.323 406.998 286.323H407.794C408.15 286.323 408.499 286.42 408.804 286.603C409.11 286.786 409.359 287.049 409.527 287.363C409.695 287.049 409.945 286.786 410.25 286.603C410.555 286.42 410.904 286.323 411.26 286.323H412.03C412.15 286.323 412.269 286.335 412.385 286.356C412.5 286.335 412.618 286.323 412.74 286.323H415.217C415.738 286.323 416.238 286.53 416.606 286.899C416.975 287.267 417.182 287.767 417.182 288.288V288.907C417.182 289.586 416.838 290.185 416.315 290.537V292.213C416.838 292.566 417.182 293.164 417.182 293.842V294.461C417.182 294.982 416.975 295.482 416.606 295.851C416.238 296.219 415.738 296.426 415.217 296.426H412.74C412.481 296.427 412.224 296.375 411.985 296.276C411.746 296.176 411.529 296.03 411.346 295.846C411.163 296.03 410.946 296.176 410.707 296.276C410.467 296.375 410.211 296.426 409.952 296.426H409.049ZM408.108 291.631L408.111 291.637L409.049 294.461H409.952L410.913 291.607L410.917 291.596L412.03 288.288H411.26L410.235 291.401L409.536 293.718H409.492L408.811 291.401L407.794 288.288H406.998L408.108 291.631ZM415.217 294.461V293.842H414.35V288.907H415.217V288.288H412.74V288.907H413.607V293.842H412.74V294.461H415.217ZM408.067 229.609C407.654 229.609 407.252 229.479 406.917 229.238C406.582 228.996 406.332 228.656 406.202 228.264L404.15 222.091C404.052 221.796 404.025 221.481 404.072 221.174C404.119 220.866 404.238 220.574 404.42 220.321C404.603 220.069 404.842 219.863 405.119 219.721C405.397 219.58 405.704 219.506 406.015 219.506H406.811C407.167 219.506 407.516 219.603 407.822 219.786C408.127 219.969 408.377 220.232 408.544 220.546C408.712 220.232 408.962 219.969 409.267 219.786C409.573 219.603 409.922 219.506 410.278 219.506H411.047C411.167 219.506 411.286 219.518 411.402 219.539C411.517 219.518 411.636 219.506 411.758 219.506H414.234C414.419 219.506 414.598 219.532 414.767 219.58C414.936 219.532 415.114 219.506 415.299 219.506H417.776C418.297 219.506 418.797 219.713 419.165 220.082C419.534 220.45 419.741 220.95 419.741 221.471V222.09C419.741 222.769 419.397 223.368 418.874 223.721V225.396C419.397 225.749 419.741 226.347 419.741 227.025V227.644C419.741 228.165 419.534 228.665 419.165 229.034C418.797 229.402 418.297 229.609 417.776 229.609H415.299C415.114 229.609 414.936 229.585 414.767 229.537C414.593 229.585 414.414 229.61 414.234 229.609H411.758C411.498 229.61 411.242 229.559 411.002 229.459C410.763 229.36 410.546 229.214 410.363 229.03C410.181 229.213 409.963 229.359 409.724 229.459C409.485 229.558 409.228 229.609 408.969 229.609H408.067ZM407.125 224.814L407.128 224.82L408.067 227.644H408.969L409.93 224.79L409.934 224.779L411.047 221.471H410.278L409.252 224.584L408.553 226.901H408.509L407.828 224.584L406.811 221.471H406.015L407.125 224.814ZM412.624 227.025H411.758V227.644H414.234V227.025H413.367V222.09H414.234V221.471H411.758V222.09H412.624V227.025ZM417.776 227.644V227.025H416.909V222.09H417.776V221.471H415.299V222.09H416.166V227.025H415.299V227.644H417.776ZM90.9353 293.478C90.414 293.478 89.9142 293.271 89.5456 292.903C89.177 292.534 88.97 292.034 88.97 291.513V290.894C88.97 290.216 89.3139 289.618 89.8367 289.265V287.59C89.5696 287.41 89.3509 287.167 89.1997 286.883C89.0486 286.599 88.9697 286.281 88.97 285.96V285.34C88.97 284.819 89.177 284.319 89.5456 283.951C89.9142 283.582 90.414 283.375 90.9353 283.375H93.4116C93.9328 283.375 94.4327 283.582 94.8013 283.951C95.1698 284.319 95.3769 284.819 95.3769 285.34V285.96C95.3769 286.639 95.033 287.237 94.5102 287.59V289.265C95.033 289.618 95.3769 290.216 95.3769 290.894V291.513C95.3769 292.034 95.1698 292.534 94.8013 292.903C94.4327 293.271 93.9328 293.478 93.4116 293.478H90.9353ZM90.9353 285.34V285.96H91.802V290.894H90.9353V291.513H93.4116V290.894H92.5449V285.96H93.4116V285.34H90.9353ZM364.83 153.949C364.417 153.949 364.015 153.819 363.68 153.578C363.345 153.336 363.095 152.995 362.965 152.604L360.913 146.431C360.815 146.136 360.788 145.821 360.835 145.513C360.882 145.205 361.001 144.913 361.183 144.661C361.366 144.408 361.605 144.203 361.882 144.061C362.16 143.919 362.467 143.846 362.778 143.846H363.574C363.93 143.846 364.279 143.943 364.585 144.126C364.89 144.309 365.14 144.571 365.307 144.885C365.475 144.571 365.725 144.309 366.03 144.126C366.336 143.943 366.685 143.846 367.041 143.846H367.81C367.93 143.846 368.049 143.858 368.165 143.878C368.28 143.858 368.399 143.846 368.521 143.846H370.997C371.182 143.846 371.361 143.871 371.53 143.919C371.699 143.871 371.877 143.846 372.062 143.846H374.539C374.722 143.846 374.901 143.871 375.07 143.919C375.24 143.871 375.418 143.846 375.603 143.846H378.079C378.6 143.846 379.1 144.053 379.469 144.421C379.837 144.79 380.044 145.29 380.044 145.811V146.43C380.044 147.109 379.7 147.707 379.178 148.06V149.735C379.7 150.088 380.044 150.687 380.044 151.365V151.984C380.044 152.505 379.837 153.005 379.469 153.373C379.1 153.742 378.6 153.949 378.079 153.949H375.603C375.418 153.949 375.24 153.924 375.07 153.876C374.897 153.925 374.718 153.949 374.539 153.949H372.062C371.877 153.949 371.699 153.924 371.53 153.876C371.356 153.925 371.177 153.949 370.997 153.949H368.521C368.261 153.949 368.005 153.898 367.765 153.799C367.526 153.699 367.309 153.553 367.126 153.369C366.944 153.553 366.726 153.699 366.487 153.798C366.248 153.898 365.991 153.949 365.732 153.949H364.83ZM363.888 149.154L363.891 149.16L364.83 151.984H365.732L366.693 149.129L366.697 149.118L367.81 145.811H367.041L366.015 148.924L365.316 151.241H365.272L364.591 148.924L363.574 145.811H362.778L363.888 149.154ZM369.387 151.365H368.521V151.984H370.997V151.365H370.13V146.43H370.997V145.811H368.521V146.43H369.387V151.365ZM372.062 151.365V151.984H374.539V151.365H373.672V146.43H374.539V145.811H372.062V146.43H372.929V151.365H372.062ZM378.079 151.984V151.365H377.212V146.43H378.079V145.811H375.603V146.43H376.469V151.365H375.603V151.984H378.079ZM293.445 106.318C292.923 106.318 292.423 106.111 292.055 105.743C291.686 105.374 291.479 104.874 291.479 104.353V103.734C291.479 103.412 291.558 103.095 291.709 102.811C291.86 102.527 292.079 102.284 292.346 102.104V100.428C292.079 100.249 291.86 100.006 291.709 99.7221C291.558 99.438 291.479 99.1211 291.479 98.7993V98.1803C291.479 97.6591 291.686 97.1592 292.055 96.7907C292.423 96.4221 292.923 96.2151 293.445 96.2151H295.921C296.058 96.2151 296.192 96.2288 296.321 96.2554C296.451 96.2288 296.584 96.2151 296.72 96.2151H297.613C298.236 96.2151 298.819 96.5099 299.187 97.0041C299.37 96.7592 299.608 96.5604 299.881 96.4234C300.154 96.2865 300.456 96.2151 300.761 96.2151H301.611C301.965 96.2151 302.313 96.3112 302.618 96.4931C302.923 96.675 303.172 96.936 303.34 97.2483C303.509 97.5606 303.589 97.9126 303.574 98.267C303.558 98.6213 303.447 98.9649 303.252 99.2612L301.974 101.201L303.317 103.291C303.508 103.588 303.615 103.931 303.628 104.283C303.64 104.636 303.558 104.985 303.389 105.295C303.219 105.605 302.97 105.863 302.666 106.043C302.363 106.223 302.016 106.318 301.664 106.318H300.77C300.449 106.318 300.133 106.239 299.849 106.089C299.566 105.938 299.323 105.72 299.143 105.454C298.963 105.72 298.721 105.938 298.437 106.089C298.153 106.239 297.837 106.318 297.516 106.318H296.667C296.541 106.318 296.416 106.306 296.294 106.283C296.173 106.305 296.049 106.318 295.921 106.318H293.445ZM295.054 103.734H295.921V104.353H293.445V103.734H294.311V98.7993H293.445V98.1803H295.921V98.7993H295.054V103.734ZM296.667 104.353H297.516L299.134 101.762H299.152L300.77 104.353H301.664L299.629 101.187L301.611 98.1803H300.761L299.178 100.639H299.161L297.613 98.1803H296.72L298.683 101.214L296.667 104.353ZM134.309 156.861C134.188 156.885 134.063 156.897 133.937 156.897H133.044C132.723 156.897 132.407 156.818 132.123 156.668C131.84 156.517 131.597 156.3 131.417 156.034C131.237 156.3 130.994 156.517 130.711 156.668C130.427 156.818 130.111 156.897 129.79 156.897H128.941C128.588 156.897 128.241 156.803 127.937 156.623C127.633 156.443 127.384 156.185 127.214 155.875C127.045 155.565 126.963 155.215 126.975 154.863C126.988 154.51 127.096 154.167 127.287 153.87L128.618 151.797L127.344 149.827C127.152 149.53 127.043 149.187 127.03 148.834C127.016 148.481 127.098 148.13 127.267 147.82C127.436 147.509 127.685 147.25 127.989 147.069C128.293 146.889 128.64 146.794 128.994 146.794H129.887C130.509 146.794 131.092 147.088 131.461 147.583C131.644 147.338 131.882 147.139 132.155 147.002C132.428 146.865 132.73 146.794 133.035 146.794H133.884C134.02 146.794 134.153 146.808 134.282 146.835C134.412 146.808 134.546 146.794 134.682 146.794H137.159C137.68 146.794 138.18 147.001 138.548 147.369C138.917 147.738 139.124 148.238 139.124 148.759V149.378C139.124 150.057 138.78 150.655 138.257 151.008V152.683C138.78 153.036 139.124 153.634 139.124 154.312V154.931C139.124 155.453 138.917 155.953 138.548 156.321C138.18 156.69 137.68 156.897 137.159 156.897H134.682C134.555 156.897 134.43 156.885 134.309 156.861ZM137.159 154.931V154.312H136.292V149.378H137.159V148.759H134.682V149.378H135.549V154.312H134.682V154.931H137.159ZM133.884 148.759H133.035L131.452 151.217H131.435L129.887 148.759H128.994L130.957 151.792L128.941 154.931H129.79L131.408 152.34H131.426L133.044 154.931H133.937L131.903 151.766L133.884 148.759ZM94.0198 227.609C93.899 227.632 93.7742 227.644 93.6484 227.644H92.7542C92.4333 227.644 92.1173 227.565 91.8338 227.415C91.5503 227.264 91.3079 227.047 91.1279 226.781C90.9478 227.047 90.7052 227.265 90.4216 227.415C90.1379 227.565 89.8217 227.644 89.5006 227.644H88.6516C88.2988 227.644 87.9526 227.549 87.6492 227.369C87.3458 227.189 87.0964 226.931 86.9273 226.621C86.7581 226.312 86.6754 225.962 86.6878 225.61C86.7002 225.257 86.8073 224.915 86.9978 224.618L88.3293 222.544L87.0548 220.574C86.8626 220.277 86.7541 219.934 86.7406 219.581C86.7271 219.228 86.8091 218.878 86.978 218.567C87.1469 218.257 87.3964 217.997 87.7003 217.817C88.0042 217.636 88.3511 217.541 88.7046 217.541H89.5979C89.9036 217.541 90.205 217.612 90.4783 217.749C90.7516 217.886 90.9891 218.085 91.1721 218.33C91.3551 218.085 91.5926 217.886 91.8659 217.749C92.1392 217.612 92.4406 217.541 92.7463 217.541H93.5953C93.7309 217.541 93.8636 217.556 93.9933 217.582C94.123 217.556 94.2567 217.541 94.3933 217.541H96.8696C97.0543 217.541 97.2331 217.566 97.4022 217.615C97.5712 217.566 97.75 217.541 97.9348 217.541H100.411C100.932 217.541 101.432 217.748 101.801 218.117C102.169 218.485 102.376 218.985 102.376 219.506V220.125C102.376 220.804 102.032 221.403 101.51 221.755V223.431C102.032 223.783 102.376 224.382 102.376 225.06V225.679C102.376 226.2 102.169 226.7 101.801 227.068C101.432 227.437 100.932 227.644 100.411 227.644H97.9348C97.75 227.644 97.5712 227.619 97.4022 227.571C97.2289 227.62 97.0496 227.645 96.8696 227.644H94.3933C94.2655 227.644 94.1407 227.632 94.0198 227.609ZM96.8696 225.679V225.06H96.0028V220.125H96.8696V219.506H94.3933V220.125H95.26V225.06H94.3933V225.679H96.8696ZM93.5953 219.506H92.7463L91.1633 221.965H91.1456L89.5979 219.506H88.7037L90.668 222.539L88.6516 225.679H89.5006L91.119 223.088H91.1367L92.7552 225.679H93.6484L91.6143 222.513L93.5953 219.506ZM100.411 225.679V225.06H99.5444V220.125H100.411V219.506H97.9348V220.125H98.8015V225.06H97.9348V225.679H100.411ZM214.275 105.761C214.106 106.071 213.856 106.329 213.553 106.509C213.249 106.689 212.903 106.784 212.55 106.784H211.657C211.336 106.784 211.02 106.705 210.736 106.555C210.452 106.405 210.21 106.187 210.03 105.921C209.849 106.187 209.607 106.405 209.323 106.555C209.04 106.705 208.723 106.784 208.402 106.784H207.553C207.2 106.785 206.854 106.69 206.55 106.51C206.246 106.33 205.996 106.072 205.827 105.762C205.658 105.452 205.575 105.103 205.588 104.75C205.601 104.397 205.708 104.054 205.9 103.758L207.231 101.684L205.956 99.7141C205.764 99.4174 205.656 99.0744 205.642 98.7212C205.629 98.3679 205.711 98.0176 205.88 97.7071C206.049 97.3966 206.298 97.1373 206.602 96.9567C206.906 96.7761 207.253 96.6808 207.606 96.6808H208.5C209.122 96.6808 209.704 96.9756 210.074 97.4699C210.257 97.225 210.494 97.0262 210.768 96.8892C211.041 96.7522 211.342 96.6809 211.648 96.6808H212.497C212.852 96.6811 213.2 96.7774 213.504 96.9594C213.809 97.1414 214.059 97.4024 214.227 97.7148C214.395 98.0271 214.476 98.3791 214.46 98.7335C214.444 99.088 214.333 99.4315 214.138 99.7279L212.861 101.667L214.203 103.757C214.592 104.362 214.62 105.13 214.275 105.761ZM212.497 98.647H211.648L210.065 101.105H210.047L208.5 98.646H207.606L209.57 101.679L207.553 104.819H208.402L210.021 102.228H210.038L211.657 104.819H212.55L210.516 101.653L211.187 100.634L211.189 100.632L212.497 98.647Z" fill="white"/>
<path d="M118.45 350.469V349.85H119.316V344.916H118.45V344.297H120.926V344.916H120.059V349.85H120.926V350.469H118.45ZM121.991 350.469V349.85H122.858V344.916H121.991V344.297H124.468V344.916H123.601V349.85H124.468V350.469H121.991ZM193.132 409.426V408.807H193.998V403.872H193.132V403.253H195.608V403.872H194.741V408.807H195.608V409.426H193.132ZM196.673 409.426V408.807H197.54V403.872H196.673V403.253H199.15V403.872H198.283V408.807H199.15V409.426H196.673ZM200.214 409.426V408.807H201.08V403.872H200.214V403.253H202.69V403.872H201.823V408.807H202.69V409.426H200.214ZM296.311 413.356V412.737H297.178V407.802H296.311V407.183H298.787V407.802H297.921V412.737H298.787V413.356H296.311ZM301.551 413.356L299.499 407.183H300.295L301.312 410.296L301.993 412.613H302.037L302.736 410.296L303.761 407.183H304.531L302.453 413.356H301.551ZM374.656 366.191L372.605 360.018H373.401L374.418 363.131L375.099 365.448H375.143L375.841 363.131L376.867 360.018H377.637L375.558 366.191H374.656ZM409.049 294.461L406.998 288.288H407.794L408.811 291.401L409.492 293.718H409.536L410.235 291.401L411.26 288.288H412.03L409.952 294.461H409.049ZM412.74 294.461V293.842H413.607V288.907H412.74V288.288H415.217V288.907H414.35V293.842H415.217V294.461H412.74ZM408.067 227.644L406.015 221.471H406.811L407.828 224.584L408.509 226.901H408.553L409.252 224.584L410.278 221.471H411.047L408.969 227.644H408.067ZM411.758 227.644V227.025H412.624V222.09H411.758V221.471H414.234V222.09H413.367V227.025H414.234V227.644H411.758ZM415.299 227.644V227.025H416.166V222.09H415.299V221.471H417.775V222.09H416.909V227.025H417.775V227.644H415.299ZM90.9352 291.513V290.894H91.8019V285.96H90.9352V285.341H93.4115V285.96H92.5448V290.894H93.4115V291.513H90.9352ZM364.83 151.984L362.778 145.811H363.574L364.591 148.924L365.272 151.241H365.316L366.015 148.924L367.041 145.811H367.81L365.732 151.984H364.83ZM368.521 151.984V151.365H369.387V146.43H368.521V145.811H370.997V146.43H370.13V151.365H370.997V151.984H368.521ZM372.062 151.984V151.365H372.929V146.43H372.062V145.811H374.538V146.43H373.672V151.365H374.538V151.984H372.062ZM375.603 151.984V151.365H376.469V146.43H375.603V145.811H378.079V146.43H377.212V151.365H378.079V151.984H375.603ZM293.445 104.353V103.734H294.311V98.7995H293.445V98.1804H295.921V98.7995H295.054V103.734H295.921V104.353H293.445ZM301.664 104.353H300.771L299.153 101.762H299.135L297.517 104.353H296.668L298.684 101.214L296.721 98.1804H297.614L299.162 100.639H299.179L300.762 98.1804H301.611L299.63 101.187L301.664 104.353ZM133.937 154.932H133.044L131.426 152.34H131.408L129.79 154.932H128.941L130.957 151.792L128.994 148.759H129.887L131.435 151.217H131.452L133.035 148.759H133.884L131.903 151.766L133.937 154.932ZM134.683 154.932V154.313H135.55V149.378H134.683V148.759H137.16V149.378H136.293V154.313H137.16V154.932H134.683ZM93.6484 225.679H92.7551L91.1367 223.088H91.119L89.5006 225.679H88.6516L90.668 222.54L88.7046 219.506H89.5978L91.1455 221.965H91.1632L92.7463 219.506H93.5953L91.6143 222.513L93.6484 225.679ZM94.3932 225.679V225.06H95.2609V220.125H94.3942V219.506H96.8705V220.125H96.0038V225.06H96.8705V225.679H94.3932ZM97.9347 225.679V225.06H98.8014V220.125H97.9347V219.506H100.411V220.125H99.5443V225.06H100.411V225.679H97.9347ZM212.55 104.819H211.657L210.038 102.228H210.021L208.402 104.819H207.553L209.57 101.679L207.606 98.6462H208.5L210.047 101.105H210.065L211.648 98.6462H212.497L210.516 101.653L212.55 104.819Z" fill="#7D7899"/>
<path d="M161.688 46.6443C161.84 46.4575 162.114 46.429 162.301 46.5808L163.883 47.8656C165.228 48.9583 166.316 50.3008 167.103 51.7985L170.283 50.3597C169.677 48.78 169.387 47.0761 169.454 45.3444L169.533 43.3083C169.543 43.0677 169.745 42.8802 169.986 42.8896C170.226 42.8989 170.414 43.1014 170.405 43.342L170.326 45.3781C170.264 46.973 170.527 48.5424 171.079 49.9996L173.459 48.9227C173.678 48.8235 173.936 48.9208 174.036 49.1401C174.135 49.3595 174.037 49.6177 173.818 49.717L171.417 50.8033C172.086 52.2395 173.046 53.5429 174.258 54.6223L176.369 56.5021C176.548 56.6622 176.564 56.9378 176.404 57.1175C176.244 57.2973 175.969 57.3133 175.789 57.1531L173.678 55.2733C172.374 54.1118 171.342 52.7087 170.623 51.1627L167.482 52.5841C168.169 54.1445 168.541 55.8461 168.553 57.5925L168.572 60.4187C168.574 60.6595 168.38 60.8559 168.139 60.8575C167.898 60.8592 167.702 60.6653 167.7 60.4246L167.681 57.5983C167.67 55.9754 167.325 54.394 166.688 52.9435L164.287 54.0298C164.068 54.129 163.809 54.0317 163.71 53.8124C163.611 53.593 163.708 53.3348 163.928 53.2355L166.307 52.1586C165.577 50.7824 164.572 49.5486 163.333 48.5423L161.751 47.2575C161.565 47.1057 161.536 46.8312 161.688 46.6443Z" fill="white" stroke="white" stroke-linecap="round"/>
<path d="M468.41 174.531C468.448 174.491 468.48 174.443 468.502 174.388L468.495 174.054L465.703 167.663C465.607 167.443 465.35 167.342 465.129 167.438C464.909 167.535 464.808 167.792 464.904 168.012L467.275 173.439L456.608 169.258L458.024 165.646C458.111 165.422 458.001 165.169 457.777 165.081C457.553 164.993 457.3 165.104 457.212 165.328L455.796 168.94L449.889 166.624C449.665 166.537 449.412 166.647 449.324 166.871C449.236 167.095 449.346 167.348 449.571 167.436L455.478 169.752L454.062 173.363C453.975 173.587 454.085 173.84 454.309 173.928C454.533 174.016 454.786 173.906 454.874 173.681L456.29 170.07L466.957 174.251L461.929 176.447C461.709 176.543 461.608 176.8 461.705 177.021C461.801 177.241 462.058 177.342 462.278 177.246L468.27 174.628C468.324 174.605 468.371 174.571 468.41 174.531Z" fill="white" stroke="white" stroke-linecap="round"/>
<path d="M480.972 273.567C481.171 273.432 481.223 273.161 481.087 272.962C480.952 272.763 480.681 272.711 480.482 272.846L478.299 274.328L469.326 273.626L469.258 274.495L478.226 275.197L479.797 276.739C479.991 276.929 479.965 277.248 479.744 277.405L477.954 278.674L468.986 277.971L468.918 278.84L477.886 279.543L479.462 281.079C479.656 281.269 479.631 281.589 479.409 281.747L477.743 282.928C477.66 282.987 477.558 283.015 477.457 283.007L470.82 282.487L470.818 282.487L468.777 282.327C468.322 282.292 467.867 282.392 467.468 282.614C466.794 282.991 466.352 283.681 466.292 284.451L466.234 285.189L465.14 285.103C465.063 285.097 465.017 285.188 465.067 285.247L466.476 286.895C466.507 286.931 466.562 286.936 466.599 286.905L468.247 285.496C468.306 285.445 468.275 285.349 468.197 285.343L467.103 285.257L467.161 284.519C467.199 284.039 467.474 283.61 467.894 283.375C468.142 283.236 468.426 283.174 468.709 283.196L477.389 283.876C477.694 283.9 477.997 283.816 478.247 283.639L479.913 282.458C480.58 281.986 480.655 281.025 480.07 280.455L478.756 279.174L480.248 278.117C480.913 277.645 480.989 276.687 480.407 276.116L479.103 274.836L480.972 273.567Z" fill="white" stroke="white" stroke-linecap="round"/>
<path d="M431.911 384.421C432.111 384.554 432.165 384.825 432.032 385.025L432.047 385.003C432.243 386.438 433.032 387.785 434.332 388.65C436.737 390.251 439.984 389.598 441.585 387.193C443.185 384.788 442.533 381.541 440.127 379.941C438.827 379.075 437.28 378.868 435.88 379.242L435.895 379.219C435.762 379.419 435.492 379.474 435.291 379.34C435.091 379.207 435.036 378.936 435.17 378.736L437.101 375.833C437.235 375.632 437.505 375.578 437.706 375.711C437.906 375.845 437.961 376.115 437.827 376.316L436.553 378.23C437.93 378.076 439.367 378.387 440.61 379.215C443.416 381.082 444.178 384.87 442.31 387.676C440.443 390.482 436.655 391.243 433.849 389.376C432.606 388.549 431.764 387.344 431.374 386.014L430.1 387.929C429.967 388.129 429.696 388.183 429.496 388.05C429.295 387.917 429.241 387.646 429.374 387.446L431.306 384.542C431.439 384.342 431.71 384.288 431.911 384.421Z" fill="white"/>
<path d="M434.924 374.384C435.057 374.184 435.003 373.913 434.803 373.78C434.602 373.646 434.332 373.701 434.198 373.901L426.471 385.514C426.338 385.714 426.392 385.985 426.593 386.118C426.793 386.252 427.064 386.197 427.197 385.997L434.924 374.384Z" fill="white"/>
<path d="M431.911 384.421C432.111 384.554 432.165 384.825 432.032 385.025L432.047 385.003C432.243 386.438 433.032 387.785 434.332 388.65C436.737 390.251 439.984 389.598 441.585 387.193C443.185 384.788 442.533 381.541 440.127 379.941C438.827 379.075 437.28 378.868 435.88 379.242L435.895 379.219C435.762 379.419 435.492 379.474 435.291 379.34C435.091 379.207 435.036 378.936 435.17 378.736L437.101 375.833C437.235 375.632 437.505 375.578 437.706 375.711C437.906 375.845 437.961 376.115 437.827 376.316L436.553 378.23C437.93 378.076 439.367 378.387 440.61 379.215C443.416 381.082 444.178 384.87 442.31 387.676C440.443 390.482 436.655 391.243 433.849 389.376C432.606 388.549 431.764 387.344 431.374 386.014L430.1 387.929C429.967 388.129 429.696 388.183 429.496 388.05C429.295 387.917 429.241 387.646 429.374 387.446L431.306 384.542C431.439 384.342 431.71 384.288 431.911 384.421Z" stroke="white"/>
<path d="M434.924 374.384C435.057 374.184 435.003 373.913 434.803 373.78C434.602 373.646 434.332 373.701 434.198 373.901L426.471 385.514C426.338 385.714 426.392 385.985 426.593 386.118C426.793 386.252 427.064 386.197 427.197 385.997L434.924 374.384Z" stroke="white"/>
<path fill-rule="evenodd" clip-rule="evenodd" d="M360.464 457.715C360.371 457.937 360.116 458.042 359.894 457.949L357.811 457.076L357.45 458.867C357.29 459.666 356.445 460.125 355.687 459.826L353.987 459.153L353.631 460.953C353.473 461.755 352.627 462.216 351.867 461.916L349.968 461.164C349.683 461.052 349.447 460.843 349.301 460.574L348.908 459.854C348.786 460.239 348.671 460.557 348.544 460.82C348.303 461.317 348.007 461.64 347.539 461.895C347.236 462.06 346.815 462.105 346.381 462.035C345.934 461.964 345.434 461.767 344.952 461.398C343.981 460.655 343.115 459.245 342.827 456.833C342.617 455.073 343.011 453.607 343.635 452.456C343.058 452.359 342.355 452.421 341.511 452.767C341.289 452.858 341.034 452.751 340.943 452.528C340.852 452.306 340.958 452.051 341.181 451.96C342.328 451.49 343.312 451.453 344.126 451.671C344.845 450.666 345.705 449.986 346.321 449.65C346.532 449.534 346.797 449.612 346.912 449.824C347.028 450.035 346.95 450.3 346.738 450.415C346.247 450.683 345.561 451.22 344.959 452.01C344.961 452.011 344.962 452.011 344.964 452.012C345.871 452.52 346.432 453.334 346.681 453.952L350.066 460.157C350.115 460.246 350.194 460.316 350.289 460.354L352.188 461.105C352.441 461.205 352.723 461.051 352.776 460.784L353.203 458.626L348.895 450.728C348.78 450.517 348.858 450.252 349.069 450.137C349.281 450.021 349.545 450.099 349.661 450.311L353.968 458.208L356.008 459.015C356.261 459.115 356.542 458.962 356.596 458.696L357.029 456.538L352.722 448.641C352.607 448.429 352.685 448.165 352.896 448.049C353.107 447.934 353.372 448.012 353.487 448.223L357.798 456.125L360.231 457.144C360.453 457.237 360.558 457.493 360.464 457.715ZM345.901 454.341C345.903 454.345 345.905 454.348 345.907 454.352L348.322 458.78C348.086 459.581 347.932 460.083 347.76 460.44C347.592 460.786 347.418 460.968 347.121 461.13C347.041 461.173 346.832 461.225 346.518 461.174C346.217 461.126 345.851 460.989 345.481 460.705C344.748 460.144 343.961 458.98 343.692 456.73C343.499 455.109 343.887 453.771 344.476 452.739C344.497 452.75 344.518 452.762 344.538 452.773C345.089 453.081 345.479 453.542 345.714 453.953L345.695 453.963L345.901 454.341Z" fill="white" stroke="white" stroke-linecap="round"/>
<path fill-rule="evenodd" clip-rule="evenodd" d="M229.268 483.863C230.256 483.931 231.231 483.604 231.978 482.953C232.587 482.423 233.008 481.709 233.177 480.918L233.353 480.095C233.523 479.303 233.537 478.486 233.395 477.689L233.103 476.046C233.442 476.209 233.817 476.312 234.215 476.339C235.897 476.455 237.354 475.186 237.47 473.505C237.586 471.824 236.317 470.367 234.635 470.251C232.954 470.135 231.497 471.404 231.381 473.085C231.324 473.918 231.607 474.696 232.111 475.284C232.113 475.403 232.124 475.522 232.145 475.64L232.537 477.841C232.659 478.528 232.647 479.231 232.501 479.913L232.325 480.736C232.195 481.342 231.872 481.889 231.405 482.296C230.833 482.794 230.086 483.045 229.328 482.993L228.723 482.951C228.355 482.926 227.995 482.83 227.663 482.67L227.546 482.614C226.781 482.245 226.24 481.531 226.091 480.694C225.875 479.478 226.009 478.225 226.48 477.082L227.292 475.11L228.206 472.295C228.358 471.825 228.405 471.328 228.341 470.838L228.313 470.619C228.186 469.638 227.572 468.787 226.681 468.357C226.003 468.03 225.226 467.977 224.511 468.207L224.425 468.235C223.542 468.519 222.829 469.178 222.476 470.036L222.431 470.145C222.339 470.367 222.446 470.622 222.668 470.714C222.891 470.805 223.146 470.699 223.237 470.477L223.282 470.367C223.538 469.747 224.054 469.27 224.692 469.065L224.778 469.037C225.281 468.875 225.826 468.913 226.302 469.142C226.928 469.444 227.359 470.042 227.448 470.731L227.477 470.95C227.523 471.311 227.489 471.679 227.377 472.026L226.473 474.809L225.674 476.75C225.14 478.046 224.987 479.467 225.233 480.847C225.431 481.959 226.15 482.908 227.168 483.399L227.284 483.455C227.716 483.664 228.184 483.788 228.663 483.821L229.268 483.863ZM232.142 473.138C232.229 471.877 233.322 470.925 234.583 471.012C235.844 471.099 236.795 472.192 236.709 473.453C236.622 474.713 235.529 475.665 234.268 475.578C233.007 475.491 232.055 474.398 232.142 473.138Z" fill="white" stroke="white"/>
<path fill-rule="evenodd" clip-rule="evenodd" d="M125.923 425.326C123.195 423.425 119.722 423.394 117.024 424.96C116.286 425.175 115.614 425.634 115.14 426.314C114.039 427.894 114.428 430.067 116.008 431.169C117.588 432.27 119.762 431.881 120.863 430.301C121.964 428.721 121.575 426.547 119.995 425.446C119.719 425.254 119.426 425.107 119.123 425.004C121.197 424.404 123.515 424.711 125.424 426.041C126.86 427.042 127.832 428.458 128.293 430.014C128.325 430.289 128.375 430.617 128.435 430.704C128.486 430.777 128.548 430.841 128.611 430.885C128.808 431.022 129.08 430.974 129.217 430.776C129.298 430.661 129.315 430.52 129.275 430.396L129.289 430.401C128.868 428.415 127.72 426.578 125.923 425.326ZM117.356 425.773C116.769 425.922 116.23 426.275 115.856 426.812C115.03 427.997 115.321 429.627 116.506 430.453C117.691 431.279 119.322 430.988 120.147 429.803C120.973 428.617 120.682 426.987 119.497 426.162C118.851 425.712 118.074 425.593 117.367 425.77L117.36 425.774L117.356 425.773Z" fill="white"/>
<path fill-rule="evenodd" clip-rule="evenodd" d="M116.453 438.917C113.789 437.06 112.551 433.919 112.993 430.911C112.947 430.977 113.013 430.86 112.993 430.911C113.131 430.713 113.32 430.358 113.721 430.638C113.919 430.775 113.83 431.245 113.83 431.245C113.829 431.246 113.828 431.248 113.828 431.25C113.519 433.877 114.63 436.584 116.952 438.201C119.29 439.831 122.24 439.925 124.606 438.698C124.006 438.652 123.409 438.451 122.879 438.081C121.299 436.98 120.911 434.807 122.012 433.227C123.113 431.647 125.286 431.258 126.866 432.359C128.293 433.353 128.748 435.22 128.014 436.737L128.054 436.752C128.031 436.787 128.007 436.822 127.983 436.856C127.933 436.929 127.881 437 127.829 437.07C127.799 437.119 127.767 437.166 127.734 437.214C127.578 437.438 127.4 437.638 127.206 437.813C124.437 440.748 119.863 441.293 116.453 438.917ZM127.108 436.579C127.821 435.408 127.508 433.869 126.368 433.074C125.183 432.249 123.553 432.54 122.727 433.725C121.901 434.91 122.193 436.54 123.378 437.366C124.385 438.068 125.715 437.963 126.598 437.187C126.777 436.996 126.947 436.793 127.108 436.579Z" fill="white"/>
<path d="M112.993 430.911C112.551 433.919 113.789 437.06 116.453 438.917C119.863 441.293 124.437 440.748 127.206 437.813C127.4 437.638 127.578 437.438 127.734 437.214C127.767 437.166 127.799 437.119 127.829 437.07C127.881 437 127.933 436.929 127.983 436.856C128.007 436.822 128.031 436.787 128.054 436.752L128.014 436.737C128.748 435.22 128.293 433.353 126.866 432.359C125.286 431.258 123.113 431.647 122.012 433.227C120.911 434.807 121.299 436.98 122.879 438.081C123.409 438.451 124.006 438.652 124.606 438.698C122.24 439.925 119.29 439.831 116.952 438.201C114.63 436.584 113.519 433.877 113.828 431.25C113.828 431.248 113.829 431.246 113.83 431.245V431.245C113.83 431.245 113.919 430.775 113.721 430.638C113.32 430.358 113.131 430.713 112.993 430.911ZM112.993 430.911C112.947 430.977 113.013 430.86 112.993 430.911ZM115.856 426.812C116.23 426.275 116.769 425.922 117.356 425.773L117.36 425.774L117.367 425.77C118.074 425.593 118.851 425.712 119.497 426.162C120.682 426.987 120.973 428.617 120.147 429.803C119.322 430.988 117.691 431.279 116.506 430.453C115.321 429.627 115.03 427.997 115.856 426.812ZM117.024 424.96C119.722 423.394 123.195 423.425 125.923 425.326C127.72 426.578 128.868 428.415 129.289 430.401L129.275 430.396C129.315 430.52 129.298 430.661 129.217 430.776C129.08 430.974 128.808 431.022 128.611 430.885C128.548 430.841 128.486 430.777 128.435 430.704C128.375 430.617 128.325 430.289 128.293 430.014C127.832 428.458 126.86 427.042 125.424 426.041C123.515 424.711 121.197 424.404 119.123 425.004C119.426 425.107 119.719 425.254 119.995 425.446C121.575 426.547 121.964 428.721 120.863 430.301C119.762 431.881 117.588 432.27 116.008 431.169C114.428 430.067 114.039 427.894 115.14 426.314C115.614 425.634 116.286 425.175 117.024 424.96ZM126.368 433.074C127.508 433.869 127.821 435.408 127.108 436.579C126.947 436.793 126.777 436.996 126.598 437.187C125.715 437.963 124.385 438.068 123.378 437.366C122.193 436.54 121.901 434.91 122.727 433.725C123.553 432.54 125.183 432.249 126.368 433.074Z" stroke="white"/>
<path d="M50.5838 358.109C50.3449 358.081 50.1737 357.865 50.2013 357.626C50.2013 357.625 50.2014 357.625 50.6343 357.676L51.0673 357.726C51.0394 357.965 50.8229 358.137 50.5838 358.109Z" fill="white"/>
<path fill-rule="evenodd" clip-rule="evenodd" d="M59.7269 348.829L50.5931 353.324C50.8176 354.157 50.9464 354.912 51.0179 355.552C51.0915 356.211 51.1046 356.748 51.0989 357.124C51.0961 357.311 51.0885 357.459 51.0815 357.561C51.078 357.612 51.0747 357.652 51.0721 357.679L51.0689 357.712L51.0679 357.721L51.0675 357.724L51.0673 357.726C51.0673 357.726 51.0673 357.726 50.6343 357.676L50.2013 357.626L50.2018 357.621L50.2041 357.598C50.206 357.578 50.2088 357.545 50.2118 357.501C50.2178 357.414 50.2246 357.282 50.2272 357.11C50.2324 356.767 50.2206 356.267 50.1515 355.649C50.0132 354.411 49.6458 352.705 48.7284 350.841C47.811 348.976 46.6831 347.644 45.7872 346.779C45.3394 346.347 44.9501 346.033 44.6752 345.828C44.5379 345.725 44.4292 345.65 44.3562 345.601C44.3197 345.577 44.2922 345.559 44.2744 345.548L44.2553 345.536L44.2516 345.534C44.0453 345.41 43.9782 345.142 44.1019 344.936C44.2257 344.729 44.4934 344.662 44.6999 344.786L44.4758 345.16C44.6999 344.786 44.6998 344.786 44.6999 344.786L44.7015 344.787L44.704 344.789L44.7121 344.794L44.7399 344.811C44.7635 344.826 44.797 344.847 44.8396 344.876C44.9247 344.933 45.0461 345.017 45.1967 345.129C45.4976 345.353 45.9154 345.692 46.3926 346.152C46.8558 346.599 47.3755 347.162 47.8987 347.848L57.0325 343.354C56.808 342.52 56.6793 341.765 56.6078 341.125C56.5341 340.466 56.5211 339.929 56.5268 339.554C56.5296 339.366 56.5371 339.218 56.5441 339.116C56.5476 339.065 56.551 339.026 56.5536 338.998L56.5568 338.965L56.5578 338.956L56.5581 338.953L56.5583 338.952C56.5583 338.952 56.5583 338.951 56.9913 339.002L56.5583 338.952C56.5862 338.713 56.8027 338.541 57.0418 338.569C57.2809 338.596 57.452 338.813 57.4243 339.052L57.4238 339.056L57.4216 339.079C57.4197 339.1 57.4169 339.132 57.4139 339.176C57.4079 339.263 57.401 339.395 57.3984 339.567C57.3933 339.91 57.4051 340.41 57.4742 341.029C57.6125 342.266 57.9799 343.972 58.8973 345.837C59.8147 347.701 60.9425 349.033 61.8384 349.898C62.2863 350.33 62.6755 350.644 62.9504 350.85C63.0878 350.952 63.1965 351.027 63.2695 351.076C63.3059 351.1 63.3335 351.118 63.3512 351.129L63.3703 351.141L63.374 351.143L63.1499 351.517C62.9257 351.891 62.9256 351.891 62.9255 351.891L62.9242 351.89L62.9216 351.888L62.9135 351.883L62.8857 351.866C62.8621 351.851 62.8286 351.83 62.7861 351.801C62.7009 351.745 62.5795 351.661 62.429 351.548C62.1281 351.324 61.7103 350.985 61.2331 350.525C60.7699 350.078 60.2501 349.515 59.7269 348.829ZM59.2112 348.111C58.8314 347.55 58.4591 346.921 58.115 346.222C57.771 345.522 57.4998 344.844 57.2867 344.2L48.4144 348.566C48.7942 349.127 49.1665 349.756 49.5106 350.456C49.8547 351.155 50.1258 351.834 50.339 352.477L59.2112 348.111Z" fill="white"/>
<path d="M63.374 351.143C63.3741 351.143 63.3739 351.143 63.374 351.143V351.143Z" fill="white"/>
<path d="M63.374 351.143C63.5803 351.267 63.6475 351.535 63.5237 351.741C63.4 351.948 63.1319 352.015 62.9255 351.891L63.1499 351.517C63.374 351.143 63.3739 351.143 63.374 351.143Z" fill="white"/>
<path d="M50.2013 357.626C50.1737 357.865 50.3449 358.081 50.5838 358.109C50.8229 358.137 51.0394 357.965 51.0673 357.726M50.2013 357.626C50.2013 357.625 50.2014 357.625 50.6343 357.676M50.2013 357.626L50.6343 357.676M50.2013 357.626L50.2018 357.621L50.2041 357.598C50.206 357.578 50.2088 357.545 50.2118 357.501C50.2178 357.414 50.2246 357.282 50.2272 357.11C50.2324 356.767 50.2206 356.267 50.1515 355.649C50.0132 354.411 49.6458 352.705 48.7284 350.841C47.811 348.976 46.6831 347.644 45.7872 346.779C45.3394 346.347 44.9501 346.033 44.6752 345.828C44.5379 345.725 44.4292 345.65 44.3562 345.601C44.3197 345.577 44.2922 345.559 44.2744 345.548L44.2553 345.536L44.2516 345.534C44.0453 345.41 43.9782 345.142 44.1019 344.936C44.2257 344.729 44.4934 344.662 44.6999 344.786M50.6343 357.676L51.0673 357.726M50.6343 357.676C51.0673 357.726 51.0673 357.726 51.0673 357.726M51.0673 357.726L51.0675 357.724L51.0679 357.721L51.0689 357.712L51.0721 357.679C51.0747 357.652 51.078 357.612 51.0815 357.561C51.0885 357.459 51.0961 357.311 51.0989 357.124C51.1046 356.748 51.0915 356.211 51.0179 355.552C50.9464 354.912 50.8176 354.157 50.5931 353.324L59.7269 348.829C60.2501 349.515 60.7699 350.078 61.2331 350.525C61.7103 350.985 62.1281 351.324 62.429 351.548C62.5795 351.661 62.7009 351.745 62.7861 351.801C62.8286 351.83 62.8621 351.851 62.8857 351.866L62.9135 351.883L62.9216 351.888L62.9242 351.89L62.9255 351.891M44.6999 344.786L44.4758 345.16C44.6999 344.786 44.6998 344.786 44.6999 344.786ZM44.6999 344.786L44.7015 344.787L44.704 344.789L44.7121 344.794L44.7399 344.811C44.7635 344.826 44.797 344.847 44.8396 344.876C44.9247 344.933 45.0461 345.017 45.1967 345.129C45.4976 345.353 45.9154 345.692 46.3926 346.152C46.8558 346.599 47.3755 347.162 47.8987 347.848L57.0325 343.354C56.808 342.52 56.6793 341.765 56.6078 341.125C56.5341 340.466 56.5211 339.929 56.5268 339.554C56.5296 339.366 56.5371 339.218 56.5441 339.116C56.5476 339.065 56.551 339.026 56.5536 338.998L56.5568 338.965L56.5578 338.956L56.5581 338.953L56.5583 338.952M56.5583 338.952C56.5583 338.952 56.5583 338.951 56.9913 339.002L56.5583 338.952ZM56.5583 338.952C56.5862 338.713 56.8027 338.541 57.0418 338.569C57.2809 338.596 57.452 338.813 57.4243 339.052L57.4238 339.056L57.4216 339.079C57.4197 339.1 57.4169 339.132 57.4139 339.176C57.4079 339.263 57.401 339.395 57.3984 339.567C57.3933 339.91 57.4051 340.41 57.4742 341.029C57.6125 342.266 57.9799 343.972 58.8973 345.837C59.8147 347.701 60.9425 349.033 61.8384 349.898C62.2863 350.33 62.6755 350.644 62.9504 350.85C63.0878 350.952 63.1965 351.027 63.2695 351.076C63.3059 351.1 63.3335 351.118 63.3512 351.129L63.3703 351.141L63.374 351.143M63.374 351.143L63.1499 351.517M63.374 351.143C63.3739 351.143 63.3741 351.143 63.374 351.143ZM63.374 351.143C63.5803 351.267 63.6475 351.535 63.5237 351.741C63.4 351.948 63.1319 352.015 62.9255 351.891M63.374 351.143C63.3739 351.143 63.374 351.143 63.1499 351.517M63.1499 351.517C62.9257 351.891 62.9256 351.891 62.9255 351.891M63.1499 351.517L62.9255 351.891M58.115 346.222C58.4591 346.921 58.8314 347.55 59.2112 348.111L50.339 352.477C50.1258 351.834 49.8547 351.155 49.5106 350.456C49.1665 349.756 48.7942 349.127 48.4144 348.566L57.2867 344.2C57.4998 344.844 57.771 345.522 58.115 346.222Z" stroke="white" stroke-linecap="round"/>
</svg>
