<svg width="89" height="68" viewBox="0 0 89 68" fill="none" xmlns="http://www.w3.org/2000/svg">
<g filter="url(#filter0_d_37_286)">
<path fill-rule="evenodd" clip-rule="evenodd" d="M53.8867 47.0449C61.8547 47.0449 68.3141 41.1213 68.3141 33.8142C68.3141 26.5071 61.8547 20.5835 53.8867 20.5835C50.3156 20.5835 47.0476 21.7733 44.5283 23.7442C42.009 21.7733 38.741 20.5836 35.1701 20.5836C27.202 20.5836 20.7427 26.5072 20.7427 33.8143C20.7427 41.1214 27.202 47.045 35.1701 47.045C38.7411 47.045 42.0091 45.8553 44.5284 43.8844C47.0477 45.8552 50.3157 47.0449 53.8867 47.0449Z" fill="#ED0006"/>
<path fill-rule="evenodd" clip-rule="evenodd" d="M44.5284 43.8843C47.6305 41.4576 49.5976 37.8465 49.5976 33.8142C49.5976 29.7819 47.6305 26.1709 44.5284 23.7441C47.0478 21.7733 50.3157 20.5835 53.8867 20.5835C61.8548 20.5835 68.3141 26.5071 68.3141 33.8142C68.3141 41.1213 61.8548 47.0449 53.8867 47.0449C50.3157 47.0449 47.0478 45.8552 44.5284 43.8843Z" fill="#F9A000"/>
<path fill-rule="evenodd" clip-rule="evenodd" d="M44.5286 43.8841C47.6306 41.4573 49.5975 37.8464 49.5975 33.8141C49.5975 29.7819 47.6306 26.1709 44.5286 23.7441C41.4266 26.1709 39.4596 29.7819 39.4596 33.8141C39.4596 37.8464 41.4266 41.4573 44.5286 43.8841Z" fill="#FF5E00"/>
</g>
<defs>
<filter id="filter0_d_37_286" x="-13" y="-9" width="114" height="86" filterUnits="userSpaceOnUse" color-interpolation-filters="sRGB">
<feFlood flood-opacity="0" result="BackgroundImageFix"/>
<feColorMatrix in="SourceAlpha" type="matrix" values="0 0 0 0 0 0 0 0 0 0 0 0 0 0 0 0 0 0 127 0" result="hardAlpha"/>
<feOffset/>
<feGaussianBlur stdDeviation="10"/>
<feComposite in2="hardAlpha" operator="out"/>
<feColorMatrix type="matrix" values="0 0 0 0 0 0 0 0 0 0 0 0 0 0 0 0 0 0 0.07 0"/>
<feBlend mode="normal" in2="BackgroundImageFix" result="effect1_dropShadow_37_286"/>
<feBlend mode="normal" in="SourceGraphic" in2="effect1_dropShadow_37_286" result="shape"/>
</filter>
</defs>
</svg>
