<svg width="109" height="18" viewBox="0 0 109 18" fill="none" xmlns="http://www.w3.org/2000/svg">
<path d="M104.668 18C104.441 18 104.215 17.9314 104.021 17.7947L99.451 14.5662L94.881 17.7947C94.692 17.9289 94.464 18.0007 94.231 17.9999C93.998 17.9991 93.771 17.9257 93.582 17.7903C93.394 17.6556 93.253 17.4657 93.18 17.2478C93.108 17.0298 93.106 16.7948 93.177 16.5761L94.881 11.1573L90.353 8.0135C90.165 7.8771 90.026 7.6859 89.954 7.4672C89.883 7.2484 89.883 7.013 89.955 6.7944C90.027 6.5763 90.168 6.3862 90.356 6.2508C90.544 6.1155 90.77 6.0418 91.003 6.0402L96.612 6.0319L98.398 0.747498C98.472 0.529898 98.613 0.340498 98.802 0.206398C98.991 0.072198 99.218 0 99.451 0C99.684 0 99.911 0.072198 100.1 0.206398C100.289 0.340498 100.43 0.529898 100.504 0.747498L102.259 6.0319L107.897 6.0402C108.13 6.0415 108.357 6.1151 108.546 6.2507C108.734 6.3862 108.874 6.5768 108.946 6.7953C109.018 7.0137 109.018 7.249 108.947 7.4677C108.876 7.6865 108.736 7.8774 108.548 8.0135L104.019 11.1573L105.724 16.5761C105.795 16.7947 105.794 17.0297 105.721 17.2477C105.648 17.4657 105.508 17.6556 105.319 17.7903C105.13 17.9268 104.902 18.0003 104.668 18Z" fill="#FFAC33"/>
<path d="M82.552 18C82.325 18 82.1 17.9314 81.905 17.7947L77.335 14.5662L72.766 17.7947C72.576 17.9289 72.349 18.0007 72.116 17.9999C71.882 17.9991 71.655 17.9257 71.467 17.7903C71.278 17.6556 71.138 17.4657 71.065 17.2478C70.992 17.0298 70.991 16.7948 71.062 16.5761L72.766 11.1573L68.237 8.0135C68.05 7.8771 67.91 7.6859 67.839 7.4672C67.768 7.2484 67.768 7.013 67.84 6.7944C67.912 6.5763 68.052 6.3862 68.24 6.2508C68.428 6.1155 68.655 6.0418 68.888 6.0402L74.497 6.0319L76.283 0.747498C76.356 0.529898 76.498 0.340498 76.687 0.206398C76.876 0.072198 77.103 0 77.336 0C77.569 0 77.796 0.072198 77.985 0.206398C78.174 0.340498 78.315 0.529898 78.389 0.747498L80.144 6.0319L85.782 6.0402C86.015 6.0415 86.242 6.1151 86.43 6.2507C86.619 6.3862 86.759 6.5768 86.831 6.7953C86.903 7.0137 86.903 7.249 86.832 7.4677C86.76 7.6865 86.621 7.8774 86.433 8.0135L81.904 11.1573L83.609 16.5761C83.679 16.7947 83.678 17.0297 83.606 17.2477C83.533 17.4657 83.393 17.6556 83.204 17.7903C83.015 17.9268 82.787 18.0003 82.552 18Z" fill="#FFAC33"/>
<path d="M59.66 18C59.445 18 59.2311 17.9314 59.0461 17.7947L54.717 14.5662L50.3881 17.7947C50.2081 17.9289 49.993 18.0007 49.772 17.9999C49.551 17.9991 49.336 17.9257 49.157 17.7903C48.979 17.6556 48.846 17.4657 48.777 17.2478C48.708 17.0298 48.707 16.7948 48.774 16.5761L50.3881 11.1573L46.0981 8.0135C45.9201 7.8771 45.788 7.6859 45.72 7.4672C45.653 7.2484 45.6531 7.013 45.7211 6.7944C45.7901 6.5763 45.9231 6.3862 46.1011 6.2508C46.2791 6.1155 46.494 6.0418 46.714 6.0402L52.0281 6.0319L53.72 0.747498C53.79 0.529898 53.9241 0.340498 54.1031 0.206398C54.2821 0.072198 54.497 0 54.717 0C54.938 0 55.153 0.072198 55.332 0.206398C55.511 0.340498 55.6451 0.529898 55.7151 0.747498L57.378 6.0319L62.7191 6.0402C62.9401 6.0415 63.1551 6.1151 63.3331 6.2507C63.5121 6.3862 63.6441 6.5768 63.7131 6.7953C63.7811 7.0137 63.781 7.249 63.714 7.4677C63.646 7.6865 63.5141 7.8774 63.3361 8.0135L59.045 11.1573L60.66 16.5761C60.727 16.7947 60.726 17.0297 60.657 17.2477C60.589 17.4657 60.455 17.6556 60.277 17.7903C60.098 17.9268 59.882 18.0003 59.66 18Z" fill="#FFAC33"/>
<path d="M37.5441 18C37.3291 18 37.1151 17.9314 36.9311 17.7947L32.602 14.5662L28.2731 17.7947C28.0931 17.9289 27.878 18.0007 27.657 17.9999C27.436 17.9991 27.2211 17.9257 27.0421 17.7903C26.8641 17.6556 26.7301 17.4657 26.6611 17.2478C26.5931 17.0298 26.5921 16.7948 26.6591 16.5761L28.2731 11.1573L23.983 8.0135C23.805 7.8771 23.673 7.6859 23.605 7.4672C23.538 7.2484 23.5381 7.013 23.6061 6.7944C23.6751 6.5763 23.8071 6.3862 23.9861 6.2508C24.1641 6.1155 24.3781 6.0418 24.5991 6.0402L29.9131 6.0319L31.605 0.747498C31.674 0.529898 31.8081 0.340498 31.9871 0.206398C32.1661 0.072198 32.382 0 32.602 0C32.823 0 33.038 0.072198 33.217 0.206398C33.396 0.340498 33.53 0.529898 33.6 0.747498L35.2631 6.0319L40.6041 6.0402C40.8251 6.0415 41.0401 6.1151 41.2181 6.2507C41.3961 6.3862 41.529 6.5768 41.597 6.7953C41.666 7.0137 41.6661 7.249 41.5981 7.4677C41.5311 7.6865 41.3991 7.8774 41.2211 8.0135L36.9301 11.1573L38.545 16.5761C38.612 16.7947 38.6111 17.0297 38.5421 17.2477C38.4731 17.4657 38.34 17.6556 38.162 17.7903C37.983 17.9268 37.7661 18.0003 37.5441 18Z" fill="#FFAC33"/>
<path d="M14.757 18C14.53 18 14.304 17.9314 14.11 17.7947L9.54304 14.5662L4.977 17.7947C4.787 17.9289 4.56003 18.0007 4.32703 17.9999C4.09403 17.9991 3.86702 17.9257 3.67902 17.7903C3.49002 17.6556 3.34998 17.4657 3.27698 17.2478C3.20398 17.0298 3.20299 16.7948 3.27399 16.5761L4.977 11.1573L0.450995 8.0135C0.263995 7.8771 0.124985 7.6859 0.0529849 7.4672C-0.0180151 7.2484 -0.0179775 7.013 0.0540225 6.7944C0.126022 6.5763 0.265986 6.3862 0.453986 6.2508C0.641986 6.1155 0.868996 6.0418 1.102 6.0402L6.70698 6.0319L8.49103 0.747498C8.56503 0.529898 8.70603 0.340498 8.89503 0.206398C9.08403 0.072198 9.31101 0 9.54401 0C9.77601 0 10.003 0.072198 10.192 0.206398C10.381 0.340498 10.522 0.529898 10.596 0.747498L12.35 6.0319L17.984 6.0402C18.217 6.0415 18.444 6.1151 18.632 6.2507C18.82 6.3862 18.96 6.5768 19.032 6.7953C19.104 7.0137 19.105 7.249 19.033 7.4677C18.962 7.6865 18.822 7.8774 18.635 8.0135L14.109 11.1573L15.812 16.5761C15.883 16.7947 15.882 17.0297 15.809 17.2477C15.737 17.4657 15.596 17.6556 15.408 17.7903C15.219 17.9268 14.991 18.0003 14.757 18Z" fill="#D5D5D5"/>
</svg>
