<svg width="38" height="38" viewBox="0 0 38 38" fill="none" xmlns="http://www.w3.org/2000/svg">
<path fill-rule="evenodd" clip-rule="evenodd" d="M24.474 1.98751V3.97501H27.8541H31.2343L27.8157 7.39353C25.9356 9.27371 24.3317 10.812 24.2517 10.812C24.1716 10.812 23.8772 10.6375 23.5972 10.4241C22.6661 9.71462 20.5462 8.75107 18.9598 8.31652C16.8276 7.73251 13.6723 7.69833 11.5245 8.23591C8.15238 9.0802 5.18653 11.0253 3.11116 13.7535C-1.3817 19.6596 -0.968767 27.8653 4.09283 33.2659C6.02466 35.3269 8.16639 36.6466 10.9021 37.4616C12.6349 37.9778 15.9064 38.1611 17.6925 37.8423C23.4875 36.8075 28.0894 32.6112 29.724 26.8711C30.1525 25.3665 30.316 22.3313 30.0574 20.6801C29.7724 18.8592 28.9651 16.6426 28.0113 15.0618L27.147 13.6294L30.5446 10.2315L33.9422 6.83353L34.0218 10.214L34.1013 13.5945L36.0507 13.6392L38 13.6839V6.84195V0H31.237H24.474V1.98751ZM18.5066 12.3116C21.9254 13.4578 24.4678 15.9686 25.7133 19.4288C26.0906 20.4766 26.1323 20.8167 26.1378 22.8961C26.1437 25.0774 26.1178 25.2754 25.6536 26.5719C24.4988 29.797 21.9193 32.3927 18.7986 33.4701C13.2748 35.377 7.31807 32.7964 4.90105 27.4494C3.82072 25.0593 3.65697 21.9724 4.48079 19.5264C5.44591 16.6607 7.50663 14.2873 10.1733 12.9702C12.1333 12.0022 13.2789 11.7557 15.4832 11.8276C16.852 11.8723 17.5111 11.9778 18.5066 12.3116Z" fill="white"/>
</svg>
