<svg width="225" height="226" viewBox="0 0 225 226" fill="none" xmlns="http://www.w3.org/2000/svg">
<path fill-rule="evenodd" clip-rule="evenodd" d="M7.4696 0.517553C6.26347 0.835016 4.70416 1.86507 3.27833 3.28589C-2.02556 8.57112 -0.719563 16.8116 5.93709 20.0571C16.522 25.2175 26.2972 12.1438 18.3097 3.50918C16.8956 1.9806 15.6266 1.16122 13.8676 0.640364C11.0856 -0.182904 10.1951 -0.199894 7.4696 0.517553ZM159.792 3.1456C158.703 3.58345 159.147 5.41105 160.74 7.04836L162.297 8.64927L160.699 10.2924C157.522 13.5583 160.082 16.1485 163.358 12.984L164.987 11.4113L166.945 13.1743C168.899 14.933 170.045 15.0898 170.591 13.6733C170.939 12.769 170.356 11.6608 168.737 10.1526L167.485 8.98566L169.18 7.11729C171.113 4.98437 171.29 4.05091 169.9 3.30967C168.76 2.70193 167.763 3.12813 166.05 4.9533L164.879 6.20082L163.004 4.51254C161.104 2.80241 160.881 2.70776 159.792 3.1456ZM14.0965 4.58147C18.4184 6.74934 18.9956 12.5753 15.216 15.8825C8.63434 21.6405 -0.350317 12.5651 5.39394 5.96054C7.4813 3.56015 10.9609 3.00872 14.0965 4.58147ZM215.707 8.13181C215.43 8.6483 215.203 9.95892 215.203 11.0443V13.018H212.784C210.966 13.018 210.251 13.2321 209.903 13.8801C209.047 15.4742 210.12 16.4159 212.792 16.4159H215.203V18.3897C215.203 20.7784 215.912 22.241 217.071 22.241C218.496 22.241 219.1 21.2002 219.1 18.746V16.4159H221.476C226.092 16.4159 226.212 13.3835 221.607 13.1141L219.1 12.9671V10.6628C219.1 9.39487 218.837 8.09589 218.515 7.77552C217.638 6.90079 216.276 7.0736 215.707 8.13181ZM102.051 9.64098C78.6181 12.0865 57.4147 22.1905 40.5186 38.9631C0.647816 78.5416 0.647816 142.11 40.5186 181.732C56.0644 197.18 73.8013 206.317 95.7047 210.157C103.194 211.471 118.443 211.719 126.058 210.652C131.716 209.859 141.978 207.285 147.283 205.326C177.809 194.06 201.591 168.247 210.055 137.195C219.968 100.826 209.38 63.0345 181.987 37.0112C167.304 23.0628 149.263 14.0796 128.981 10.6181C121.968 9.42157 108.75 8.94197 102.051 9.64098ZM37.6747 14.2699C36.6049 15.3359 36.6955 15.6878 38.5725 17.7581L40.2316 19.5886L38.5725 21.3929C36.6965 23.4331 36.6015 23.803 37.6781 24.8763C38.7522 25.9462 39.1039 25.8563 41.1825 23.9851L43.0195 22.3317L44.8302 23.9851C46.8761 25.8534 47.2488 25.9491 48.3219 24.8797C48.9854 24.2185 48.9961 23.9521 48.4067 22.8157C48.034 22.0978 47.2716 21.0973 46.7114 20.5925L45.6938 19.675L47.3925 17.8013C49.3108 15.6854 49.4024 15.3388 48.3258 14.266C47.2492 13.1933 46.9014 13.2845 44.778 15.1961L42.8977 16.8887L41.977 15.8747C41.4704 15.3165 40.4664 14.5568 39.746 14.1855C38.6056 13.5981 38.3382 13.6088 37.6747 14.2699ZM81.442 25.586C79.6605 26.6685 77.9195 28.7625 77.5362 30.2834C77.2921 31.2542 77.0943 31.3241 75.7201 30.9261C71.0081 29.5625 66.0282 33.5735 66.0282 38.732C66.0282 41.6984 67.1758 43.728 68.7288 43.5076C69.7196 43.3673 69.783 43.1343 69.6373 40.1815C69.4931 37.2724 69.5906 36.8957 70.7996 35.6914C72.3185 34.1779 75.0002 33.9114 76.7095 35.1045C77.2833 35.505 78.7637 37.6806 79.9991 39.9393C82.4796 44.4731 82.7626 44.7706 84.1689 44.326C85.6425 43.86 85.3619 42.4067 82.9467 37.9918C80.3187 33.1866 80.1652 31.4911 82.1785 29.4848C84.2522 27.4189 86.5725 27.5208 88.9082 29.7814C89.8903 30.7319 90.9839 31.3814 91.36 31.2377C91.7331 31.0955 92.1301 30.9785 92.2422 30.9785C92.3542 30.9785 92.4458 30.3639 92.4458 29.613C92.4458 28.2184 90.8042 26.2889 88.7027 25.2127C87.025 24.354 83.1411 24.5535 81.442 25.586ZM128.99 26.9471C126.707 28.1276 124.936 30.7678 125.6 32.0037C126.34 33.3827 127.514 33.1158 129.313 31.1581C130.773 29.5693 131.113 29.4247 132.758 29.6868C135.325 30.0965 136.452 31.6192 136.152 34.2715C135.867 36.7875 136.768 38.0719 138.259 37.2768C138.77 37.0044 139.408 36.3724 139.676 35.8725C139.945 35.373 140.835 34.7312 141.654 34.4463C144.695 33.39 147.139 35.6166 146.898 39.2233C146.797 40.7475 146.98 41.4213 147.607 41.8261C148.308 42.279 148.752 42.064 150.22 40.5587C152.293 38.4311 154.642 38.1034 156.26 39.716C157.344 40.796 157.394 40.9815 157.443 44.0847C157.474 46.0667 157.595 46.2827 158.748 46.4162C159.77 46.5342 160.139 46.2725 160.637 45.0721C161.38 43.2858 161.045 40.1553 159.931 38.4607C158.428 36.1754 156.34 35.2764 152.973 35.4652C150.42 35.6084 149.887 35.5001 149.662 34.7934C149.217 33.3954 146.162 31.0469 144.348 30.7081C143.411 30.5329 141.994 30.6159 141.199 30.8921C139.854 31.359 139.685 31.2799 138.789 29.7659C138.258 28.8703 137.247 27.7606 136.541 27.2995C134.638 26.0573 131.037 25.8889 128.99 26.9471ZM213.12 43.6644C212.501 44.0095 212.28 44.7658 212.28 46.5361V48.9389H210.299C207.902 48.9389 206.435 49.6457 206.435 50.8005C206.435 52.2169 207.477 52.8223 209.917 52.8223H212.229L212.377 55.3207C212.647 59.9094 215.69 59.7895 215.69 55.1901V52.8223H218.028C220.491 52.8223 221.536 52.2203 221.536 50.8005C221.536 49.6457 220.068 48.9389 217.671 48.9389H215.69V46.5288C215.69 43.8678 214.711 42.777 213.12 43.6644ZM123.462 48.2467C145.61 52.0524 164.212 67.893 172.025 89.6004C176.431 101.842 176.606 116.723 172.498 129.683C166.479 148.669 150.584 164.515 131.598 170.457C124.678 172.622 119.586 173.372 111.931 173.353C94.4927 173.308 79.1744 166.866 66.9576 154.44C55.039 142.317 48.9313 127.376 48.9313 110.344C48.9313 92.9886 55.2168 77.9072 67.51 65.7659C74.3732 58.9876 80.7829 54.7552 88.9277 51.6228C100.211 47.2846 111.461 46.1847 123.462 48.2467ZM85.5251 81.06C72.8543 92.5857 62.326 102.251 62.1292 102.54C61.6045 103.307 61.6708 103.637 62.5218 104.485C63.1151 105.076 64.3768 105.247 68.1238 105.247H72.9605V129.907C72.9605 148.439 73.1057 154.71 73.5451 155.148C73.9889 155.59 82.5439 155.731 109.071 155.731C140.186 155.731 144.096 155.647 144.778 154.968C145.453 154.295 145.543 151.332 145.543 129.726V105.247H149.959C157.577 105.247 158.039 104.035 152.363 98.9369L148.466 95.4361V83.1385V70.8415L150.243 70.6905C152.35 70.5123 153.365 69.3163 152.397 68.1537C151.843 67.4892 150.096 67.3858 139.516 67.3921C132.784 67.3964 126.982 67.5848 126.624 67.811C126.266 68.0377 126.047 68.744 126.137 69.3813C126.277 70.3662 126.612 70.5623 128.372 70.689L130.442 70.8385V74.6937C130.442 76.8145 130.312 78.5494 130.153 78.5494C129.994 78.5494 126.21 75.218 121.746 71.1468C110.9 61.2559 109.572 60.1035 109.028 60.1035C108.772 60.1035 98.1959 69.5337 85.5251 81.06ZM179.689 64.6208C177.586 65.3558 176.78 66.5309 177.658 67.5843C178.156 68.1828 178.853 68.2852 180.841 68.0527C183.927 67.6911 185.321 68.3246 186.234 70.5026C187.562 73.669 186.441 75.2893 180.804 78.3513C176.713 80.5736 175.797 81.5687 176.771 82.7371C177.64 83.7807 178.527 83.5589 182.834 81.2192C187.656 78.6004 189.358 78.4475 191.371 80.4537C193.362 82.4381 193.338 84.8783 191.308 86.9015C190.387 87.8194 189.877 88.7752 189.968 89.413C190.182 90.9062 192.126 91.0232 193.62 89.6325C198.172 85.3952 196.668 77.6747 190.944 75.9029C189.932 75.5898 189.855 75.3553 190.139 73.4671C190.372 71.9196 190.207 70.8279 189.503 69.26C188.361 66.7178 187.15 65.5723 184.668 64.6902C182.407 63.8869 181.814 63.8786 179.689 64.6208ZM129.502 82.9182L149.529 101.121L129.269 101.248C118.125 101.318 99.9525 101.318 88.8839 101.248L68.76 101.121L88.7621 82.8327C99.7635 72.7744 108.925 64.583 109.12 64.6296C109.316 64.6767 118.488 72.9064 129.502 82.9182ZM30.2089 67.4634C29.8772 67.794 29.6039 68.8401 29.601 69.7876C29.5941 72.2487 27.5954 76.1961 24.905 79.062C23.0252 81.0648 22.6866 81.6823 23.1055 82.3449C23.8426 83.5118 25.1413 83.6264 26.2539 82.6235C27.1824 81.7857 27.3991 81.8498 33.0372 84.6278C38.6421 87.3893 38.8613 87.5549 38.8613 89.0315C38.8613 89.8756 39.2087 90.8533 39.6329 91.2042C40.9229 92.2707 41.9444 91.1207 42.6079 87.8558C43.3746 84.0807 44.2665 82.375 46.992 79.4712C48.298 78.08 49.1057 76.7961 49.0054 76.2708C48.7813 75.0986 46.7972 74.8728 45.6685 75.8913C44.8087 76.6665 44.456 76.5485 38.912 73.6413C33.2423 70.6686 33.0576 70.5211 32.9173 68.858C32.8082 67.5688 32.5286 67.1071 31.7921 67.0023C31.2533 66.9251 30.5406 67.1329 30.2089 67.4634ZM145.056 81.2595C145.056 87.3296 144.87 91.6683 144.614 91.5746C144.371 91.4858 141.85 89.3393 139.012 86.8044L133.852 82.1963V76.4893V70.7827H139.454H145.056V81.2595ZM42.1568 79.2596C42.3331 79.4144 39.8049 83.889 39.5409 83.889C39.2954 83.889 30.4325 79.496 30.1431 79.2309C30.0369 79.1334 30.4627 77.9766 31.0901 76.6601L32.2305 74.2666L37.1291 76.7063C39.8234 78.0484 42.0857 79.1974 42.1568 79.2596ZM105.335 79.462C102.208 80.877 99.7581 84.5278 99.7581 87.7723C99.7581 90.9193 102.561 95.1351 105.453 96.3395C107.741 97.2919 110.827 97.1443 113.271 95.9657C118.412 93.4857 119.908 86.3418 116.173 82.1036C113.228 78.761 109.104 77.7557 105.335 79.462ZM112.316 83.2177C115.181 85.0652 115.514 89.4077 112.975 91.8314C109.315 95.3264 103.517 92.8571 103.517 87.8029C103.517 83.2094 108.375 80.6775 112.316 83.2177ZM141.646 128.547V151.847H132.391H123.135V136.071V120.295L125.449 120.288C128.289 120.279 129.115 119.803 128.901 118.299L128.737 117.14L109.438 117.013C92.2656 116.9 90.0676 116.972 89.4938 117.66C88.3305 119.057 89.5337 120.035 92.6182 120.198L95.3686 120.344V136.096V151.847H85.8695H76.3705V128.547V105.247H109.008H141.646V128.547ZM119.238 136.071V151.847H109.008H98.7785V136.071V120.295H109.008H119.238V136.071ZM28.2419 128.665C27.4269 129.056 27.1619 129.543 27.2676 130.453C27.4094 131.666 27.5019 131.698 30.4588 131.544C33.292 131.398 33.6062 131.488 34.9648 132.842C37.9596 135.826 36.5796 138.724 30.5864 142.038C26.2904 144.413 25.3459 145.659 26.9534 146.83C27.6977 147.372 28.4343 147.126 32.3031 145.042C37.1237 142.444 38.1418 142.229 40.3062 143.344C43.1115 144.79 43.2251 149.339 40.5 151.118C39.1473 152.001 39.0888 153.618 40.3802 154.425C42.2605 155.599 46.1318 150.769 46.1576 147.218C46.1761 144.645 44.2271 141.543 41.7841 140.257L39.592 139.103V136.045C39.592 132.626 38.7683 131.07 35.9434 129.154C34.161 127.945 30.2586 127.697 28.2419 128.665ZM182.36 128.636C182.249 128.988 182.027 130.216 181.865 131.365C181.447 134.333 179.925 137.296 177.421 140.012C175.063 142.572 174.866 143.152 176.026 144.112C176.666 144.641 177.065 144.602 178.418 143.875L180.042 143.004L185.566 145.851C190.744 148.519 191.105 148.801 191.333 150.344C191.79 153.427 194.743 153.493 194.743 150.42C194.743 147.452 196.204 144.204 198.885 141.21C200.358 139.565 201.563 138.025 201.563 137.787C201.563 137.549 201.212 137.004 200.782 136.576C200.065 135.861 199.875 135.876 198.48 136.756L196.96 137.716L191.25 134.775C185.664 131.898 185.537 131.796 185.392 130.069C185.265 128.548 185.059 128.283 183.902 128.151C183.104 128.06 182.478 128.256 182.36 128.636ZM193.404 142.597C192.706 143.813 192.087 144.877 192.029 144.96C191.971 145.043 189.708 144.005 187.002 142.651L182.082 140.191L183.408 137.824L184.734 135.458L189.704 137.921L194.674 140.385L193.404 142.597ZM146.903 174.656C144.73 175.309 142.845 176.919 141.957 178.881L141.121 180.73H138.057C135.432 180.73 134.731 180.93 133.153 182.129C131.028 183.744 129.955 185.949 129.955 188.701C129.955 192.016 131.33 193.969 133.169 193.265C133.805 193.022 133.888 192.502 133.625 190.403C133.246 187.38 134.065 185.357 136.03 184.465C139.063 183.088 140.725 184.171 143.806 189.53C146.353 193.96 147.637 194.931 148.917 193.393C149.423 192.787 149.101 191.874 147.048 188.092C145.684 185.578 144.569 182.952 144.569 182.255C144.569 180.756 146.826 178.146 148.222 178.03C150.472 177.842 151.35 178.139 152.745 179.561C154.29 181.134 155.572 181.269 156.409 179.944C157.55 178.138 152.683 174.147 149.44 174.229C148.77 174.246 147.629 174.438 146.903 174.656ZM64.6905 177.666C62.362 178.864 60.5694 181.311 61.0692 182.609C61.5315 183.809 63.5662 183.577 64.4567 182.222C66.9605 178.414 72.5572 180.676 71.8206 185.199C71.279 188.525 73.058 189.188 75.4624 186.555C77.4314 184.399 79.6859 184.232 81.5642 186.104C82.6247 187.161 82.7709 187.638 82.5166 189.221C81.913 192.984 83.6428 193.757 86.325 190.924C88.2496 188.89 89.8723 188.735 91.8096 190.398C92.9894 191.41 93.1765 191.926 93.1765 194.16C93.1765 196.623 93.2413 196.756 94.5161 196.902C95.5844 197.025 95.9536 196.798 96.3428 195.778C97.1067 193.776 96.9225 191.979 95.7218 189.716C94.1956 186.841 92.0059 185.698 88.5487 185.973C85.9947 186.177 85.8242 186.117 84.8953 184.696C83.1016 181.951 79.2932 180.622 76.1064 181.63C75.3631 181.865 74.9977 181.607 74.5072 180.503C73.0443 177.211 68.2612 175.828 64.6905 177.666ZM205.095 196.342C204.012 196.777 204.447 198.604 206.02 200.22L207.553 201.797L205.992 203.568C202.99 206.975 205.418 209.313 208.683 206.16L210.332 204.568L211.981 206.16C213.104 207.245 213.996 207.701 214.782 207.59C216.587 207.336 216.469 205.716 214.507 203.821L212.799 202.171L214.488 200.308C216.291 198.32 216.525 197.533 215.593 196.603C214.66 195.673 213.87 195.907 211.875 197.704L210.005 199.387L208.368 197.704C206.756 196.046 206.301 195.857 205.095 196.342ZM13.8949 200.087C9.27881 201.789 6.71065 205.429 6.71065 210.27C6.71065 219.943 18.6707 224.497 25.0526 217.254C27.0688 214.965 27.8117 212.556 27.5623 209.115C27.3134 205.691 25.5344 202.837 22.5765 201.116C20.0371 199.639 16.3086 199.197 13.8949 200.087ZM21.6617 204.839C23.3038 206.367 24.2474 208.283 24.2474 210.089C24.2474 217.203 15.1872 219.902 11.183 213.981C9.17797 211.017 10.2248 206.17 13.2869 204.236C15.8186 202.637 19.587 202.908 21.6617 204.839ZM160.035 214.505C158.776 215.236 158.995 216.533 160.644 218.107C162.468 219.848 162.466 220.252 160.625 222.009C159.028 223.533 158.893 224.956 160.266 225.813C160.953 226.243 161.463 225.991 163.067 224.43L165.028 222.521L166.99 224.43C168.597 225.993 169.103 226.243 169.791 225.811C171.228 224.909 171.049 223.666 169.212 221.792L167.458 220.002L169.166 218.353C171.088 216.496 171.332 215.23 169.912 214.473C169.112 214.046 168.623 214.255 166.99 215.726L165.028 217.492L163.078 215.736C162.006 214.771 161.074 213.988 161.008 213.995C160.942 214.004 160.504 214.233 160.035 214.505Z" fill="#495AB4"/>
<path fill-rule="evenodd" clip-rule="evenodd" d="M7.4696 0.517553C6.26347 0.835016 4.70416 1.86507 3.27833 3.28589C-2.02556 8.57112 -0.719563 16.8116 5.93709 20.0571C16.522 25.2175 26.2972 12.1438 18.3097 3.50918C16.8956 1.9806 15.6266 1.16122 13.8676 0.640364C11.0856 -0.182904 10.1951 -0.199894 7.4696 0.517553ZM159.792 3.1456C158.703 3.58345 159.147 5.41105 160.74 7.04836L162.297 8.64927L160.699 10.2924C157.522 13.5583 160.082 16.1485 163.358 12.984L164.987 11.4113L166.945 13.1743C168.899 14.933 170.045 15.0898 170.591 13.6733C170.939 12.769 170.356 11.6608 168.737 10.1526L167.485 8.98566L169.18 7.11729C171.113 4.98437 171.29 4.05091 169.9 3.30967C168.76 2.70193 167.763 3.12813 166.05 4.9533L164.879 6.20082L163.004 4.51254C161.104 2.80241 160.881 2.70776 159.792 3.1456ZM14.0965 4.58147C18.4184 6.74934 18.9956 12.5753 15.216 15.8825C8.63434 21.6405 -0.350317 12.5651 5.39394 5.96054C7.4813 3.56015 10.9609 3.00872 14.0965 4.58147ZM215.707 8.13181C215.43 8.6483 215.203 9.95892 215.203 11.0443V13.018H212.784C210.966 13.018 210.251 13.2321 209.903 13.8801C209.047 15.4742 210.12 16.4159 212.792 16.4159H215.203V18.3897C215.203 20.7784 215.912 22.241 217.071 22.241C218.496 22.241 219.1 21.2002 219.1 18.746V16.4159H221.476C226.092 16.4159 226.212 13.3835 221.607 13.1141L219.1 12.9671V10.6628C219.1 9.39487 218.837 8.09589 218.515 7.77552C217.638 6.90079 216.276 7.0736 215.707 8.13181ZM102.051 9.64098C78.6181 12.0865 57.4147 22.1905 40.5186 38.9631C0.647816 78.5416 0.647816 142.11 40.5186 181.732C56.0644 197.18 73.8013 206.317 95.7047 210.157C103.194 211.471 118.443 211.719 126.058 210.652C131.716 209.859 141.978 207.285 147.283 205.326C177.809 194.06 201.591 168.247 210.055 137.195C219.968 100.826 209.38 63.0345 181.987 37.0112C167.304 23.0628 149.263 14.0796 128.981 10.6181C121.968 9.42157 108.75 8.94197 102.051 9.64098ZM110.47 28.0271V43.5221L107.182 43.826C97.4837 44.7226 87.0109 47.8797 79.5368 52.1602C76.1887 54.0771 71.8314 57.1585 67.2962 60.8156L66.1115 61.7709L55.1179 50.8155L44.1238 39.8606L48.9001 35.888C66.3964 21.3357 85.0989 14.134 109.374 12.602L110.47 12.5326V28.0271ZM126.483 13.7874C144.351 16.264 162.324 24.4312 176.156 36.3593L180.221 39.8645L169.229 50.818L158.238 61.7709L156.884 60.6826C148.467 53.9198 142.953 50.6321 135.267 47.7933C130.434 46.0085 122.894 44.3556 117.168 43.826L113.88 43.5221V28.0334V12.5452L117.655 12.8161C119.731 12.9651 123.704 13.402 126.483 13.7874ZM37.6747 14.2699C36.6049 15.3359 36.6955 15.6878 38.5725 17.7581L40.2316 19.5886L38.5725 21.3929C36.6965 23.4331 36.6015 23.803 37.6781 24.8763C38.7522 25.9462 39.1039 25.8564 41.1825 23.9851L43.0195 22.3317L44.8302 23.9851C46.8761 25.8534 47.2488 25.9491 48.3219 24.8797C48.9854 24.2185 48.9961 23.9521 48.4067 22.8157C48.034 22.0978 47.2716 21.0973 46.7114 20.5925L45.6938 19.675L47.3925 17.8013C49.3108 15.6854 49.4024 15.3388 48.3258 14.266C47.2492 13.1933 46.9014 13.2845 44.778 15.1961L42.8977 16.8887L41.977 15.8747C41.4704 15.3165 40.4664 14.5568 39.746 14.1855C38.6056 13.5981 38.3382 13.6088 37.6747 14.2699ZM81.442 25.586C79.6605 26.6685 77.9195 28.7625 77.5362 30.2834C77.2921 31.2542 77.0943 31.3241 75.7201 30.9261C71.0081 29.5625 66.0282 33.5735 66.0282 38.732C66.0282 41.6984 67.1758 43.728 68.7288 43.5076C69.7196 43.3673 69.783 43.1343 69.6373 40.1815C69.4931 37.2724 69.5906 36.8957 70.7996 35.6914C72.3185 34.1779 75.0002 33.9114 76.7095 35.1045C77.2833 35.505 78.7637 37.6806 79.9991 39.9393C82.4796 44.4731 82.7626 44.7706 84.1689 44.326C85.6425 43.86 85.3619 42.4067 82.9467 37.9918C80.3187 33.1866 80.1652 31.4911 82.1785 29.4848C84.2522 27.4189 86.5725 27.5208 88.9082 29.7814C89.8903 30.7319 90.9839 31.3814 91.36 31.2377C91.7331 31.0955 92.1301 30.9785 92.2422 30.9785C92.3542 30.9785 92.4458 30.3639 92.4458 29.613C92.4458 28.2184 90.8042 26.2889 88.7027 25.2127C87.025 24.354 83.1411 24.5535 81.442 25.586ZM128.99 26.9471C126.707 28.1276 124.936 30.7678 125.6 32.0037C126.34 33.3827 127.514 33.1158 129.313 31.1581C130.773 29.5693 131.113 29.4247 132.758 29.6868C135.325 30.0965 136.452 31.6192 136.152 34.2715C135.867 36.7875 136.768 38.0719 138.259 37.2768C138.77 37.0044 139.408 36.3724 139.676 35.8725C139.945 35.373 140.834 34.7312 141.654 34.4463C144.695 33.39 147.139 35.6166 146.898 39.2233C146.797 40.7475 146.98 41.4213 147.607 41.8261C148.308 42.279 148.752 42.064 150.22 40.5587C152.293 38.4311 154.642 38.1034 156.26 39.716C157.344 40.796 157.394 40.9815 157.443 44.0847C157.474 46.0667 157.595 46.2827 158.748 46.4162C159.77 46.5342 160.139 46.2725 160.637 45.0721C161.38 43.2857 161.045 40.1553 159.931 38.4607C158.428 36.1754 156.34 35.2764 152.973 35.4652C150.42 35.6084 149.887 35.5001 149.662 34.7934C149.217 33.3954 146.162 31.0469 144.348 30.7081C143.411 30.5329 141.994 30.6159 141.199 30.8921C139.854 31.359 139.685 31.2799 138.789 29.7659C138.258 28.8703 137.247 27.7606 136.541 27.2995C134.638 26.0573 131.037 25.8889 128.99 26.9471ZM62.4395 65.5596C58.0519 71.1439 55.2085 75.1787 53.5513 78.1703C49.3683 85.7234 46.6744 94.3507 45.6407 103.508L45.0606 108.645H29.5094H13.9587L14.2568 105.126C16.2248 81.8769 23.3744 64.0369 37.4253 47.3137L41.4422 42.5329L52.4041 53.4567L63.3665 64.3801L62.4395 65.5596ZM190.08 51.1233C201.847 66.3261 208.603 84.5113 210.051 104.883L210.319 108.645H194.776H179.233L178.928 105.369C178.028 95.705 174.86 85.269 170.564 77.8213C168.64 74.4855 165.546 70.1395 161.879 65.6252L160.922 64.4466L171.865 53.512L182.809 42.5775L185.129 45.1517C186.405 46.5672 188.633 49.2544 190.08 51.1233ZM213.12 43.6644C212.501 44.0095 212.28 44.7658 212.28 46.5361V48.9389H210.299C207.902 48.9389 206.435 49.6457 206.435 50.8005C206.435 52.2169 207.477 52.8223 209.917 52.8223H212.229L212.377 55.3207C212.647 59.9094 215.69 59.7895 215.69 55.1901V52.8223H218.028C220.491 52.8223 221.536 52.2203 221.536 50.8005C221.536 49.6457 220.068 48.9389 217.671 48.9389H215.69V46.5288C215.69 43.8678 214.711 42.777 213.12 43.6644ZM123.462 48.2467C145.61 52.0524 164.212 67.893 172.025 89.6004C176.431 101.842 176.606 116.723 172.498 129.683C166.479 148.669 150.584 164.515 131.598 170.457C124.678 172.622 119.586 173.372 111.931 173.353C94.4927 173.308 79.1744 166.866 66.9576 154.44C55.039 142.317 48.9313 127.376 48.9313 110.344C48.9313 92.9886 55.2168 77.9072 67.51 65.7659C74.3732 58.9876 80.7829 54.7552 88.9277 51.6228C100.211 47.2846 111.461 46.1847 123.462 48.2467ZM85.5251 81.06C72.8543 92.5857 62.326 102.251 62.1292 102.54C61.6045 103.307 61.6708 103.637 62.5218 104.485C63.1151 105.076 64.3768 105.247 68.1238 105.247H72.9605V129.907C72.9605 148.439 73.1057 154.71 73.5451 155.148C73.9889 155.591 82.5439 155.731 109.071 155.731C140.186 155.731 144.096 155.647 144.778 154.968C145.453 154.295 145.543 151.332 145.543 129.726V105.247H149.959C157.577 105.247 158.039 104.035 152.363 98.9369L148.466 95.4361V83.1385V70.8415L150.243 70.6905C152.35 70.5123 153.365 69.3163 152.397 68.1537C151.843 67.4892 150.096 67.3858 139.516 67.3921C132.784 67.3964 126.982 67.5848 126.624 67.811C126.266 68.0377 126.047 68.744 126.137 69.3813C126.277 70.3662 126.612 70.5623 128.372 70.689L130.442 70.8385V74.6937C130.442 76.8145 130.312 78.5494 130.153 78.5494C129.994 78.5494 126.21 75.218 121.746 71.1468C110.9 61.2559 109.572 60.1035 109.028 60.1035C108.772 60.1035 98.1959 69.5337 85.5251 81.06ZM179.689 64.6208C177.586 65.3557 176.78 66.5309 177.658 67.5843C178.156 68.1828 178.853 68.2852 180.841 68.0527C183.927 67.6911 185.321 68.3246 186.234 70.5026C187.562 73.669 186.441 75.2893 180.804 78.3513C176.713 80.5736 175.797 81.5687 176.771 82.7371C177.64 83.7807 178.527 83.5589 182.834 81.2192C187.656 78.6004 189.358 78.4475 191.371 80.4537C193.362 82.4381 193.338 84.8783 191.308 86.9015C190.387 87.8194 189.877 88.7752 189.968 89.413C190.182 90.9062 192.126 91.0232 193.62 89.6325C198.172 85.3952 196.668 77.6747 190.944 75.9029C189.932 75.5898 189.855 75.3553 190.139 73.4671C190.372 71.9196 190.207 70.8279 189.503 69.26C188.361 66.7178 187.15 65.5723 184.668 64.6902C182.407 63.8869 181.814 63.8786 179.689 64.6208ZM129.502 82.9182L149.529 101.121L129.269 101.248C118.125 101.318 99.9525 101.318 88.8839 101.248L68.76 101.121L88.7621 82.8327C99.7635 72.7744 108.925 64.583 109.12 64.6296C109.316 64.6766 118.488 72.9064 129.502 82.9182ZM30.2089 67.4634C29.8772 67.794 29.6039 68.8401 29.601 69.7876C29.5941 72.2487 27.5954 76.1961 24.905 79.062C23.0252 81.0648 22.6866 81.6823 23.1055 82.3449C23.8426 83.5118 25.1413 83.6264 26.2539 82.6235C27.1824 81.7857 27.3991 81.8498 33.0372 84.6278C38.6421 87.3893 38.8613 87.5549 38.8613 89.0315C38.8613 89.8756 39.2087 90.8533 39.6329 91.2042C40.9229 92.2707 41.9444 91.1207 42.6079 87.8558C43.3746 84.0807 44.2665 82.375 46.992 79.4712C48.298 78.08 49.1057 76.7961 49.0054 76.2708C48.7813 75.0986 46.7972 74.8728 45.6685 75.8913C44.8087 76.6665 44.456 76.5485 38.912 73.6413C33.2423 70.6686 33.0576 70.5211 32.9173 68.858C32.8082 67.5688 32.5286 67.1071 31.7921 67.0023C31.2533 66.9251 30.5406 67.1329 30.2089 67.4634ZM145.056 81.2595C145.056 87.3296 144.87 91.6683 144.614 91.5746C144.371 91.4858 141.85 89.3393 139.012 86.8044L133.852 82.1963V76.4893V70.7827H139.454H145.056V81.2595ZM42.1568 79.2596C42.3331 79.4144 39.8049 83.889 39.5409 83.889C39.2954 83.889 30.4325 79.496 30.1431 79.2309C30.0369 79.1334 30.4627 77.9766 31.0901 76.6601L32.2305 74.2666L37.1291 76.7063C39.8234 78.0484 42.0857 79.1974 42.1568 79.2596ZM105.335 79.462C102.208 80.877 99.7581 84.5278 99.7581 87.7723C99.7581 90.9193 102.561 95.1351 105.453 96.3395C107.741 97.2919 110.827 97.1443 113.271 95.9657C118.412 93.4857 119.908 86.3418 116.173 82.1036C113.228 78.761 109.104 77.7557 105.335 79.462ZM112.316 83.2177C115.181 85.0652 115.514 89.4077 112.975 91.8314C109.315 95.3264 103.517 92.8571 103.517 87.8029C103.517 83.2094 108.375 80.6775 112.316 83.2177ZM141.646 128.547V151.847H132.391H123.135V136.071V120.295L125.449 120.288C128.289 120.279 129.115 119.803 128.901 118.299L128.737 117.14L109.438 117.013C92.2656 116.9 90.0676 116.972 89.4938 117.66C88.3305 119.057 89.5337 120.035 92.6182 120.198L95.3686 120.344V136.096V151.847H85.8695H76.3705V128.547V105.247H109.008H141.646V128.547ZM45.6407 117.181C46.7002 126.566 49.4067 135.108 53.7973 142.922C55.7887 146.466 57.5243 148.927 61.963 154.499L63.3879 156.287L52.3997 167.237L41.4115 178.186L37.4116 173.39C23.3019 156.473 16.2234 138.796 14.2568 115.562L13.9587 112.043H29.5094H45.0606L45.6407 117.181ZM210.051 115.805C208.473 137.996 200.392 157.95 186.436 174.114L182.928 178.176L171.924 167.21L160.919 156.245L162.012 154.896C168.798 146.509 172.098 141.014 174.946 133.355C176.738 128.54 178.396 121.026 178.928 115.32L179.233 112.043H194.776H210.319L210.051 115.805ZM119.238 136.071V151.847H109.008H98.7785V136.071V120.295H109.008H119.238V136.071ZM28.2419 128.665C27.4269 129.056 27.1619 129.543 27.2676 130.453C27.4094 131.666 27.5019 131.698 30.4588 131.544C33.292 131.398 33.6062 131.488 34.9648 132.842C37.9596 135.826 36.5796 138.724 30.5864 142.038C26.2904 144.413 25.3459 145.659 26.9534 146.83C27.6977 147.372 28.4343 147.126 32.3031 145.042C37.1237 142.444 38.1418 142.229 40.3062 143.344C43.1115 144.79 43.2251 149.339 40.5 151.118C39.1473 152.001 39.0888 153.618 40.3802 154.425C42.2605 155.599 46.1318 150.769 46.1576 147.218C46.1761 144.645 44.2271 141.543 41.7841 140.257L39.592 139.103V136.045C39.592 132.626 38.7683 131.07 35.9434 129.154C34.161 127.945 30.2586 127.697 28.2419 128.665ZM182.36 128.636C182.249 128.988 182.027 130.216 181.865 131.365C181.447 134.333 179.925 137.296 177.421 140.012C175.063 142.572 174.866 143.152 176.026 144.112C176.666 144.641 177.065 144.602 178.418 143.875L180.042 143.004L185.566 145.851C190.744 148.519 191.105 148.801 191.333 150.344C191.79 153.427 194.743 153.493 194.743 150.42C194.743 147.452 196.204 144.204 198.885 141.21C200.358 139.565 201.563 138.025 201.563 137.787C201.563 137.549 201.212 137.004 200.782 136.576C200.065 135.861 199.875 135.876 198.48 136.756L196.96 137.716L191.25 134.775C185.664 131.898 185.537 131.796 185.392 130.069C185.265 128.548 185.059 128.283 183.902 128.151C183.104 128.06 182.478 128.256 182.36 128.636ZM193.404 142.597C192.706 143.813 192.087 144.877 192.029 144.96C191.971 145.043 189.708 144.005 187.002 142.651L182.082 140.191L183.408 137.824L184.734 135.458L189.704 137.921L194.674 140.385L193.404 142.597ZM70.2813 162.264C80.3635 170.34 92.1175 175.164 105.314 176.644L110.47 177.222V192.683V208.143L106.694 207.877C84.7019 206.323 65.6141 198.702 48.9016 184.802L44.1267 180.83L55.0078 169.98C60.9927 164.012 66.0004 159.132 66.1368 159.136C66.2727 159.14 68.1379 160.548 70.2813 162.264ZM169.352 169.99L180.243 180.851L176.168 184.345C159.927 198.269 140.039 206.266 117.655 207.872L113.88 208.143V192.666V177.188L117.411 176.857C131.83 175.506 145.23 169.953 155.552 161.05C156.778 159.994 157.934 159.129 158.12 159.129C158.307 159.129 163.361 164.016 169.352 169.99ZM146.903 174.656C144.73 175.309 142.845 176.919 141.957 178.881L141.121 180.73H138.057C135.432 180.73 134.731 180.93 133.153 182.129C131.028 183.744 129.955 185.949 129.955 188.701C129.955 192.016 131.33 193.969 133.169 193.265C133.805 193.022 133.888 192.502 133.625 190.403C133.246 187.38 134.065 185.357 136.03 184.465C139.063 183.088 140.725 184.171 143.806 189.53C146.353 193.96 147.637 194.931 148.917 193.393C149.423 192.787 149.101 191.874 147.048 188.092C145.684 185.578 144.569 182.952 144.569 182.255C144.569 180.756 146.826 178.146 148.222 178.03C150.472 177.842 151.35 178.139 152.745 179.561C154.29 181.134 155.572 181.269 156.409 179.944C157.55 178.138 152.683 174.147 149.44 174.229C148.77 174.246 147.629 174.438 146.903 174.656ZM64.6905 177.666C62.362 178.864 60.5694 181.311 61.0692 182.609C61.5315 183.809 63.5662 183.577 64.4567 182.222C66.9605 178.414 72.5572 180.676 71.8206 185.199C71.279 188.525 73.058 189.188 75.4624 186.555C77.4314 184.399 79.6859 184.232 81.5642 186.104C82.6247 187.161 82.7709 187.638 82.5166 189.221C81.913 192.984 83.6428 193.757 86.325 190.924C88.2496 188.89 89.8723 188.735 91.8096 190.398C92.9894 191.41 93.1765 191.926 93.1765 194.16C93.1765 196.623 93.2413 196.756 94.5161 196.902C95.5844 197.025 95.9536 196.798 96.3428 195.778C97.1067 193.776 96.9225 191.979 95.7218 189.716C94.1956 186.841 92.0059 185.698 88.5487 185.973C85.9947 186.177 85.8242 186.117 84.8953 184.696C83.1016 181.951 79.2932 180.622 76.1064 181.63C75.3631 181.865 74.9977 181.607 74.5072 180.503C73.0443 177.211 68.2612 175.828 64.6905 177.666ZM205.095 196.342C204.012 196.777 204.447 198.604 206.02 200.22L207.553 201.797L205.992 203.568C202.99 206.975 205.418 209.313 208.683 206.16L210.332 204.568L211.981 206.16C213.104 207.245 213.996 207.701 214.782 207.59C216.587 207.336 216.469 205.716 214.507 203.821L212.799 202.171L214.488 200.308C216.291 198.32 216.525 197.533 215.593 196.603C214.66 195.673 213.87 195.907 211.875 197.704L210.005 199.387L208.368 197.704C206.756 196.046 206.301 195.857 205.095 196.342ZM13.8949 200.087C9.27881 201.789 6.71065 205.429 6.71065 210.27C6.71065 219.943 18.6707 224.497 25.0526 217.254C27.0688 214.965 27.8117 212.556 27.5623 209.115C27.3134 205.691 25.5344 202.837 22.5765 201.116C20.0371 199.639 16.3086 199.197 13.8949 200.087ZM21.6617 204.839C23.3038 206.367 24.2474 208.283 24.2474 210.089C24.2474 217.203 15.1872 219.902 11.183 213.981C9.17797 211.017 10.2248 206.17 13.2869 204.236C15.8186 202.637 19.587 202.908 21.6617 204.839ZM160.035 214.505C158.776 215.236 158.995 216.533 160.644 218.107C162.468 219.848 162.466 220.252 160.625 222.009C159.028 223.533 158.893 224.956 160.266 225.813C160.953 226.243 161.463 225.991 163.067 224.43L165.028 222.521L166.99 224.43C168.597 225.993 169.103 226.243 169.791 225.811C171.228 224.909 171.049 223.666 169.212 221.792L167.458 220.002L169.166 218.353C171.088 216.496 171.332 215.23 169.912 214.473C169.112 214.046 168.623 214.255 166.99 215.726L165.028 217.492L163.078 215.736C162.006 214.771 161.074 213.988 161.008 213.995C160.942 214.004 160.504 214.233 160.035 214.505Z" fill="white"/>
<path fill-rule="evenodd" clip-rule="evenodd" d="M7.4696 0.517553C6.26347 0.835016 4.70416 1.86507 3.27833 3.28589C-2.02556 8.57112 -0.719563 16.8116 5.93709 20.0571C16.522 25.2175 26.2972 12.1438 18.3097 3.50918C16.8956 1.9806 15.6266 1.16122 13.8676 0.640364C11.0856 -0.182904 10.1951 -0.199894 7.4696 0.517553ZM159.792 3.1456C158.703 3.58345 159.147 5.41105 160.74 7.04836L162.297 8.64927L160.699 10.2924C157.522 13.5583 160.082 16.1485 163.358 12.984L164.987 11.4113L166.945 13.1743C168.899 14.933 170.045 15.0898 170.591 13.6733C170.939 12.769 170.356 11.6608 168.737 10.1526L167.485 8.98566L169.18 7.11729C171.113 4.98437 171.29 4.05091 169.9 3.30967C168.76 2.70193 167.763 3.12813 166.05 4.9533L164.879 6.20082L163.004 4.51254C161.104 2.80241 160.881 2.70776 159.792 3.1456ZM14.0965 4.58147C18.4184 6.74934 18.9956 12.5753 15.216 15.8825C8.63434 21.6405 -0.350317 12.5651 5.39394 5.96054C7.4813 3.56015 10.9609 3.00872 14.0965 4.58147ZM215.707 8.13181C215.43 8.6483 215.203 9.95892 215.203 11.0443V13.018H212.784C210.966 13.018 210.251 13.2321 209.903 13.8801C209.047 15.4742 210.12 16.4159 212.792 16.4159H215.203V18.3897C215.203 20.7784 215.912 22.241 217.071 22.241C218.496 22.241 219.1 21.2002 219.1 18.746V16.4159H221.476C226.092 16.4159 226.212 13.3835 221.607 13.1141L219.1 12.9671V10.6628C219.1 9.39487 218.837 8.09589 218.515 7.77552C217.638 6.90079 216.276 7.0736 215.707 8.13181ZM37.6747 14.2699C36.6049 15.3359 36.6955 15.6878 38.5725 17.7581L40.2316 19.5886L38.5725 21.3929C36.6965 23.4331 36.6015 23.803 37.6781 24.8763C38.7522 25.9462 39.1039 25.8563 41.1825 23.9851L43.0195 22.3317L44.8302 23.9851C46.8761 25.8534 47.2488 25.9491 48.3219 24.8797C48.9854 24.2185 48.9961 23.9521 48.4067 22.8157C48.034 22.0978 47.2716 21.0973 46.7114 20.5925L45.6938 19.675L47.3925 17.8013C49.3108 15.6854 49.4024 15.3388 48.3258 14.266C47.2492 13.1933 46.9014 13.2845 44.778 15.1961L42.8977 16.8887L41.977 15.8747C41.4704 15.3165 40.4664 14.5568 39.746 14.1855C38.6056 13.5981 38.3382 13.6088 37.6747 14.2699ZM213.12 43.6644C212.501 44.0095 212.28 44.7658 212.28 46.5361V48.9389H210.299C207.902 48.9389 206.435 49.6457 206.435 50.8005C206.435 52.2169 207.477 52.8223 209.917 52.8223H212.229L212.377 55.3207C212.647 59.9094 215.69 59.7895 215.69 55.1901V52.8223H218.028C220.491 52.8223 221.536 52.2203 221.536 50.8005C221.536 49.6457 220.068 48.9389 217.671 48.9389H215.69V46.5288C215.69 43.8678 214.711 42.777 213.12 43.6644ZM85.5251 81.06C72.8543 92.5857 62.326 102.251 62.1292 102.54C61.6045 103.307 61.6708 103.637 62.5218 104.485C63.1151 105.076 64.3768 105.247 68.1238 105.247H72.9605V129.907C72.9605 148.439 73.1057 154.71 73.5451 155.148C73.9889 155.59 82.5439 155.731 109.071 155.731C140.186 155.731 144.096 155.647 144.778 154.968C145.453 154.295 145.543 151.332 145.543 129.726V105.247H149.959C157.577 105.247 158.039 104.035 152.363 98.9369L148.466 95.4361V83.1385V70.8415L150.243 70.6905C152.35 70.5123 153.365 69.3163 152.397 68.1537C151.843 67.4892 150.096 67.3858 139.516 67.3921C132.784 67.3964 126.982 67.5848 126.624 67.811C126.266 68.0377 126.047 68.744 126.137 69.3813C126.277 70.3662 126.612 70.5623 128.372 70.689L130.442 70.8385V74.6937C130.442 76.8145 130.312 78.5494 130.153 78.5494C129.994 78.5494 126.21 75.218 121.746 71.1468C110.9 61.2559 109.572 60.1035 109.028 60.1035C108.772 60.1035 98.1959 69.5337 85.5251 81.06ZM105.335 79.462C102.208 80.877 99.7581 84.5278 99.7581 87.7723C99.7581 90.9193 102.561 95.1351 105.453 96.3395C107.741 97.2919 110.827 97.1443 113.271 95.9657C118.412 93.4857 119.908 86.3418 116.173 82.1036C113.228 78.761 109.104 77.7557 105.335 79.462ZM112.316 83.2177C115.181 85.0652 115.514 89.4077 112.975 91.8314C109.315 95.3264 103.517 92.8571 103.517 87.8029C103.517 83.2094 108.375 80.6775 112.316 83.2177ZM119.238 136.071V151.847H109.008H98.7785V136.071V120.295H109.008H119.238V136.071ZM205.095 196.342C204.012 196.777 204.447 198.604 206.02 200.22L207.553 201.797L205.992 203.568C202.99 206.975 205.418 209.313 208.683 206.16L210.332 204.568L211.981 206.16C213.104 207.245 213.996 207.701 214.782 207.59C216.587 207.336 216.469 205.716 214.507 203.821L212.799 202.171L214.488 200.308C216.291 198.32 216.525 197.533 215.593 196.603C214.66 195.673 213.87 195.907 211.875 197.704L210.005 199.387L208.368 197.704C206.756 196.046 206.301 195.857 205.095 196.342ZM13.8949 200.087C9.27881 201.789 6.71065 205.429 6.71065 210.27C6.71065 219.943 18.6707 224.497 25.0526 217.254C27.0688 214.965 27.8117 212.556 27.5623 209.115C27.3134 205.691 25.5344 202.837 22.5765 201.116C20.0371 199.639 16.3086 199.197 13.8949 200.087ZM21.6617 204.839C23.3038 206.367 24.2474 208.283 24.2474 210.089C24.2474 217.203 15.1872 219.902 11.183 213.981C9.17797 211.017 10.2248 206.17 13.2869 204.236C15.8186 202.637 19.587 202.908 21.6617 204.839ZM160.035 214.505C158.776 215.236 158.995 216.533 160.644 218.107C162.468 219.848 162.466 220.252 160.625 222.009C159.028 223.533 158.893 224.956 160.266 225.813C160.953 226.243 161.463 225.991 163.067 224.43L165.028 222.521L166.99 224.43C168.597 225.993 169.103 226.243 169.791 225.811C171.228 224.909 171.049 223.666 169.212 221.792L167.458 220.002L169.166 218.353C171.088 216.496 171.332 215.23 169.912 214.473C169.112 214.046 168.623 214.255 166.99 215.726L165.028 217.492L163.078 215.736C162.006 214.771 161.074 213.988 161.008 213.995C160.942 214.004 160.504 214.233 160.035 214.505Z" fill="#F45279"/>
</svg>
