<svg width="92" height="56" viewBox="0 0 92 56" fill="none" xmlns="http://www.w3.org/2000/svg">
<g filter="url(#filter0_d_37_287)">
<path fill-rule="evenodd" clip-rule="evenodd" d="M33.1613 35.1618H28.7389L25.4226 23.5356C25.2652 23.0008 24.931 22.528 24.4394 22.3051C23.2125 21.7451 21.8606 21.2995 20.3857 21.0747V20.6271H27.5099C28.4931 20.6271 29.2305 21.2995 29.3534 22.0804L31.0741 30.4668L35.4943 20.6271H39.7938L33.1613 35.1618ZM42.2518 35.1618H38.0752L41.5144 20.6271H45.691L42.2518 35.1618ZM51.0946 24.6543C51.2175 23.8714 51.9549 23.4238 52.8152 23.4238C54.1672 23.3114 55.6399 23.5362 56.8689 24.0943L57.6063 20.9649C56.3773 20.5173 55.0253 20.2925 53.7985 20.2925C49.7448 20.2925 46.7951 22.3058 46.7951 25.0999C46.7951 27.2256 48.8845 28.3417 50.3593 29.0141C51.9549 29.6846 52.5694 30.1322 52.4465 30.8026C52.4465 31.8083 51.2175 32.2559 49.9906 32.2559C48.5157 32.2559 47.0409 31.9207 45.6911 31.3607L44.9537 34.492C46.4285 35.0501 48.0241 35.2749 49.499 35.2749C54.0443 35.3853 56.8689 33.374 56.8689 30.355C56.8689 26.5532 51.0946 26.3304 51.0946 24.6543V24.6543ZM71.4858 35.1618L68.1695 20.6271H64.6075C63.87 20.6271 63.1326 21.0747 62.8868 21.7451L56.7459 35.1618H61.0454L61.9036 33.0381H67.1863L67.6779 35.1618H71.4858ZM65.222 24.5416L66.4489 30.0195H63.0098L65.222 24.5416Z" fill="#172B85"/>
</g>
<defs>
<filter id="filter0_d_37_287" x="-9" y="-16" width="113" height="86" filterUnits="userSpaceOnUse" color-interpolation-filters="sRGB">
<feFlood flood-opacity="0" result="BackgroundImageFix"/>
<feColorMatrix in="SourceAlpha" type="matrix" values="0 0 0 0 0 0 0 0 0 0 0 0 0 0 0 0 0 0 127 0" result="hardAlpha"/>
<feOffset/>
<feGaussianBlur stdDeviation="10"/>
<feComposite in2="hardAlpha" operator="out"/>
<feColorMatrix type="matrix" values="0 0 0 0 0 0 0 0 0 0 0 0 0 0 0 0 0 0 0.07 0"/>
<feBlend mode="normal" in2="BackgroundImageFix" result="effect1_dropShadow_37_287"/>
<feBlend mode="normal" in="SourceGraphic" in2="effect1_dropShadow_37_287" result="shape"/>
</filter>
</defs>
</svg>
