<svg width="489.708405" height="444.372559" viewBox="0 0 489.708 444.373" fill="none" xmlns="http://www.w3.org/2000/svg" xmlns:xlink="http://www.w3.org/1999/xlink">
	<desc>
			Created with Pixso.
	</desc>
	<defs>
		<filter id="filter_25_189_dd" x="0.000000" y="71.732666" width="489.708405" height="310.965820" filterUnits="userSpaceOnUse" color-interpolation-filters="sRGB">
			<feFlood flood-opacity="0" result="BackgroundImageFix"/>
			<feBlend mode="normal" in="SourceGraphic" in2="BackgroundImageFix" result="shape"/>
			<feGaussianBlur stdDeviation="16.8" result="effect_layerBlur_1"/>
		</filter>
		<radialGradient gradientTransform="translate(246.021 226.107) rotate(-92.319) scale(93.7915 178.176)" cx="0.000000" cy="0.000000" r="1.000000" id="paint_radial_25_189_0" gradientUnits="userSpaceOnUse">
			<stop stop-color="#958BFF"/>
			<stop offset="1.000000" stop-color="#958BFF" stop-opacity="0.000000"/>
		</radialGradient>
	</defs>
	<g filter="url(#filter_25_189_dd)">
		<path id="Vector" d="M311.15 210.58C347.44 173.87 466.87 270.65 433.48 229.22C419.68 212.11 404.6 213.62 389.79 197.74C372.14 178.81 373.98 155.5 354.96 138.54C324.1 111.03 295.52 126.74 257.13 125.34C198.95 123.22 166.7 133.97 109.02 142.07C86.28 145.26 55.98 124.52 50.86 150.86C47.57 167.75 62.73 174.83 66.12 191.81C71.86 220.43 53.22 238.59 60.99 266.57C70.39 300.45 87.53 320.99 116.64 330.29C149.77 340.86 166.09 306.68 199.22 297.17C231.17 288 257.46 306.94 282.52 282C302.47 262.15 291.34 230.62 311.15 210.58Z" fill="url(#paint_radial_25_189_0)" fill-opacity="0.700000" fill-rule="nonzero"/>
	</g>
	<circle id="Circle" cx="235.953735" cy="147.500000" r="147.000000" stroke="#FFFFFF" stroke-opacity="1.000000" stroke-width="1.000000"/>
	<path id="Circle" d="M240.58 147.53C241.58 147.5 242.57 147.5 243.56 147.5L243.56 148.72C242.58 148.72 241.59 148.73 240.61 148.75L240.58 147.53ZM228.74 148.23L228.86 149.45C226.9 149.65 224.95 149.88 223.01 150.16L222.84 148.95C224.8 148.67 226.76 148.43 228.74 148.23ZM375.75 295.64C375.75 369.86 321.28 431.32 250.26 441.95L250.26 440.71C320.6 430.1 374.53 369.19 374.53 295.64C374.53 222.09 320.6 161.18 250.26 150.57L250.26 149.33C321.28 159.96 375.75 221.42 375.75 295.64ZM211.16 151.08L211.43 152.27C209.51 152.71 207.6 153.18 205.71 153.68L205.4 152.5C207.3 151.99 209.23 151.52 211.16 151.08ZM194.06 156.04L194.47 157.2C192.62 157.86 190.78 158.56 188.96 159.29L188.51 158.16C190.34 157.42 192.19 156.71 194.06 156.04ZM177.68 163.05L178.23 164.15C176.47 165.03 174.74 165.95 173.02 166.9L172.43 165.83C174.16 164.87 175.91 163.94 177.68 163.05ZM162.28 172L162.95 173.02C161.31 174.11 159.7 175.23 158.1 176.38L157.39 175.39C159 174.23 160.62 173.1 162.28 172ZM148.05 182.74L148.84 183.68C147.35 184.95 145.88 186.26 144.44 187.6L143.61 186.7C145.06 185.35 146.54 184.03 148.05 182.74ZM135.21 195.12L136.11 195.95C134.78 197.4 133.48 198.87 132.2 200.37L131.28 199.58C132.56 198.07 133.87 196.58 135.21 195.12ZM123.95 208.95L124.94 209.67C123.79 211.27 122.67 212.89 121.59 214.53L120.57 213.85C121.66 212.2 122.79 210.56 123.95 208.95ZM114.42 224.05L115.49 224.64C114.54 226.36 113.62 228.1 112.75 229.87L111.66 229.32C112.54 227.54 113.46 225.78 114.42 224.05ZM106.78 240.18L107.91 240.64C107.17 242.46 106.48 244.3 105.82 246.16L104.67 245.75C105.34 243.88 106.04 242.02 106.78 240.18ZM101.14 257.13L102.32 257.45C101.81 259.34 101.34 261.26 100.91 263.18L99.72 262.91C100.16 260.97 100.63 259.04 101.14 257.13ZM97.6 274.64L98.8 274.81C98.53 276.75 98.3 278.71 98.1 280.68L96.89 280.56C97.08 278.57 97.32 276.6 97.6 274.64ZM97.4 292.47C97.38 293.45 97.37 294.44 97.37 295.43C97.37 296.42 97.38 297.41 97.4 298.4L96.18 298.42C96.16 297.43 96.15 296.43 96.15 295.43C96.15 294.43 96.16 293.44 96.18 292.44L97.4 292.47ZM96.89 310.31L98.1 310.18C98.3 312.15 98.53 314.11 98.8 316.06L97.6 316.23C97.32 314.26 97.08 312.29 96.89 310.31ZM99.72 327.95L100.91 327.68C101.34 329.61 101.81 331.52 102.32 333.42L101.14 333.73C100.63 331.82 100.16 329.89 99.72 327.95ZM104.67 345.11L105.82 344.7C106.48 346.56 107.17 348.4 107.91 350.23L106.78 350.68C106.04 348.84 105.34 346.99 104.67 345.11ZM111.66 361.54L112.75 361C113.62 362.76 114.54 364.5 115.49 366.23L114.42 366.82C113.46 365.08 112.54 363.32 111.66 361.54ZM120.57 377.01L121.59 376.33C122.67 377.98 123.79 379.6 124.94 381.19L123.95 381.91C122.79 380.3 121.66 378.67 120.57 377.01ZM131.28 391.28L132.2 390.49C133.48 391.99 134.78 393.47 136.11 394.91L135.21 395.74C133.87 394.28 132.56 392.8 131.28 391.28ZM143.61 404.17L144.44 403.27C145.88 404.6 147.35 405.91 148.84 407.19L148.05 408.12C146.54 406.83 145.06 405.51 143.61 404.17ZM157.39 415.47L158.1 414.48C159.7 415.63 161.31 416.75 162.95 417.84L162.28 418.86C160.62 417.76 159 416.63 157.39 415.47ZM172.43 425.04L173.02 423.97C174.74 424.92 176.47 425.83 178.23 426.72L177.68 427.81C175.91 426.92 174.16 425.99 172.43 425.04ZM188.51 432.71L188.96 431.57C190.78 432.31 192.62 433.01 194.47 433.67L194.06 434.82C192.19 434.15 190.34 433.45 188.51 432.71ZM205.4 438.36L205.71 437.18C207.6 437.69 209.51 438.16 211.43 438.59L211.16 439.78C209.23 439.35 207.3 438.87 205.4 438.36ZM222.84 441.92L223.01 440.71C224.95 440.98 226.9 441.22 228.86 441.41L228.74 442.63C226.76 442.43 224.8 442.19 222.84 441.92ZM240.61 442.12C241.59 442.14 242.58 442.15 243.56 442.15L243.56 443.37C242.57 443.37 241.58 443.36 240.58 443.34L240.61 442.12Z" fill="#FFFFFF" fill-opacity="1.000000" fill-rule="evenodd"/>
	<path id="Circle" d="M239.57 146.55L239.59 147.54L239.63 149.77L240.63 149.75C241.61 149.73 242.58 149.72 243.56 149.72L244.56 149.72L244.56 146.5L243.56 146.5C242.56 146.5 241.56 146.5 240.56 146.53L239.57 146.55ZM229.96 150.35L229.74 148.13L229.64 147.14L228.64 147.24C226.66 147.44 224.68 147.68 222.7 147.96L221.71 148.1L222.16 151.29L223.15 151.15C225.08 150.87 227.02 150.64 228.96 150.45L229.96 150.35ZM241.58 147.51C241.27 147.51 240.95 147.52 240.63 147.52L240.58 147.53L240.59 147.75L240.6 148.52L240.61 148.75L240.65 148.75C241.62 148.73 242.59 148.72 243.56 148.72L243.56 147.5C243.23 147.5 242.9 147.5 242.56 147.5C242.24 147.5 241.91 147.5 241.58 147.51ZM373.58 326.47C375.69 316.41 376.75 306.14 376.75 295.64C376.75 285.14 375.69 274.86 373.58 264.81C372 257.28 369.82 249.88 367.06 242.6C364.12 234.87 360.6 227.49 356.49 220.44C351.87 212.52 346.5 205.04 340.39 197.98C334.29 190.94 327.66 184.57 320.49 178.87C314.18 173.85 307.46 169.34 300.32 165.36C292.36 160.93 284.14 157.28 275.65 154.42C267.48 151.66 259.07 149.64 250.41 148.34L249.26 148.17L249.26 151.43L250.11 151.55C258.57 152.83 266.78 154.82 274.75 157.51C283.05 160.32 291.09 163.9 298.87 168.24C305.83 172.13 312.39 176.53 318.55 181.43C325.56 187.02 332.05 193.26 338.02 200.16C343.98 207.05 349.22 214.37 353.74 222.12C357.76 229.01 361.2 236.23 364.07 243.79C366.76 250.88 368.87 258.09 370.42 265.42C372.49 275.28 373.53 285.35 373.53 295.64C373.53 305.93 372.49 316 370.42 325.85C368.88 333.19 366.76 340.4 364.07 347.49C361.2 355.05 357.76 362.27 353.74 369.16C349.23 376.9 343.98 384.22 338.02 391.12C332.05 398.01 325.57 404.25 318.56 409.83C312.4 414.74 305.84 419.14 298.87 423.04C291.09 427.38 283.06 430.96 274.77 433.76C266.79 436.46 258.57 438.45 250.11 439.73L249.26 439.85L249.26 443.11L250.41 442.94C259.07 441.64 267.49 439.62 275.66 436.86C284.14 434 292.36 430.35 300.32 425.92C307.46 421.93 314.19 417.43 320.5 412.41C327.66 406.71 334.29 400.34 340.39 393.3C346.5 386.25 351.86 378.76 356.48 370.85C360.6 363.8 364.12 356.41 367.06 348.67C369.83 341.4 372 334 373.58 326.47ZM227.75 148.34C226.44 148.48 225.13 148.63 223.83 148.81C223.6 148.84 223.36 148.87 223.13 148.91L222.84 148.95L222.87 149.17L223.01 150.16L223.29 150.12C225.14 149.86 227 149.64 228.86 149.45L228.84 149.23L228.74 148.23C228.41 148.27 228.08 148.3 227.75 148.34ZM250.26 440.71C320.6 430.1 374.53 369.19 374.53 295.64C374.53 222.09 320.6 161.18 250.26 150.57L250.26 149.33C250.6 149.38 250.93 149.43 251.26 149.48C321.79 160.53 375.75 221.76 375.75 295.64C375.75 369.52 321.79 430.74 251.26 441.8C250.93 441.85 250.6 441.9 250.26 441.95L250.26 440.71ZM212.62 153.03L212.14 150.86L211.92 149.89L210.94 150.11C209.51 150.43 208.08 150.77 206.65 151.14C206.15 151.27 205.64 151.4 205.14 151.54L204.17 151.79L205 154.91L205.97 154.65C206.53 154.5 207.09 154.35 207.65 154.21C208.98 153.87 210.31 153.55 211.65 153.25L212.62 153.03ZM210.19 151.3C208.91 151.6 207.63 151.92 206.36 152.25C206.21 152.29 206.05 152.33 205.89 152.37L205.4 152.5L205.4 152.5L205.4 152.5L205.45 152.72L205.71 153.68C205.88 153.64 206.04 153.6 206.21 153.55C207.93 153.09 209.68 152.67 211.43 152.27L211.38 152.06L211.16 151.08C210.84 151.15 210.51 151.23 210.19 151.3ZM195.75 157.8L195 155.71L194.67 154.76L193.72 155.1C193.15 155.31 192.58 155.52 192.01 155.73C190.71 156.21 189.42 156.71 188.13 157.23L187.21 157.61L188.41 160.6L189.34 160.22C190.81 159.63 192.28 159.06 193.77 158.51C194.12 158.39 194.46 158.26 194.81 158.14L195.75 157.8ZM193.12 156.38C191.88 156.84 190.66 157.3 189.44 157.79C189.35 157.82 189.26 157.86 189.18 157.89L188.51 158.16L188.51 158.16L188.59 158.36L188.96 159.29L188.96 159.29L188.96 159.29L189.63 159.03C191.23 158.39 192.84 157.78 194.47 157.2L194.4 156.99L194.06 156.04C193.75 156.16 193.43 156.27 193.12 156.38ZM179.57 164.59L178.58 162.61L178.13 161.71L177.24 162.16C176.82 162.37 176.41 162.58 176 162.79C174.64 163.49 173.29 164.21 171.95 164.95L171.07 165.44L172.63 168.26L173.5 167.77C175.21 166.83 176.94 165.92 178.68 165.04L179.57 164.59ZM176.79 163.51C175.62 164.1 174.46 164.72 173.31 165.35C173.27 165.36 173.24 165.38 173.21 165.4C172.95 165.54 172.69 165.68 172.43 165.83L172.54 166.02L173.02 166.9L173.02 166.9L173.79 166.48C175.25 165.67 176.73 164.9 178.23 164.15L178.13 163.95L177.68 163.05C177.39 163.2 177.09 163.35 176.79 163.51ZM164.33 173.3L163.11 171.45L162.56 170.61L161.72 171.17C161.38 171.4 161.03 171.63 160.69 171.86C159.38 172.74 158.09 173.65 156.81 174.58L156 175.17L157.88 177.78L158.69 177.19C160.12 176.16 161.56 175.15 163.03 174.17C163.19 174.06 163.34 173.96 163.5 173.85L164.33 173.3ZM161.44 172.56C161.72 172.37 162 172.19 162.28 172L162.83 172.84L162.95 173.02C161.59 173.92 160.24 174.85 158.92 175.8L158.91 175.8L158.11 176.38L158.1 176.38L157.52 175.57L157.39 175.39L157.39 175.39L158.2 174.81L158.2 174.81C159.27 174.04 160.35 173.29 161.44 172.56ZM150.25 183.79L148.81 182.1L148.16 181.33L147.4 181.98C147.14 182.21 146.89 182.43 146.63 182.65C145.38 183.73 144.14 184.84 142.93 185.96L142.2 186.64L144.38 189.01L145.11 188.33C146.15 187.37 147.2 186.42 148.27 185.49C148.67 185.14 149.08 184.79 149.49 184.44L150.25 183.79ZM147.29 183.4C147.55 183.18 147.8 182.96 148.05 182.74L148.05 182.74L148.7 183.51L148.84 183.68C147.6 184.74 146.38 185.82 145.17 186.92C144.92 187.14 144.68 187.37 144.44 187.6L143.76 186.86L143.61 186.7C144.82 185.58 146.05 184.48 147.29 183.4ZM137.52 195.89L135.89 194.39L135.16 193.71L134.48 194.44C133.93 195.05 133.38 195.65 132.84 196.26C132.05 197.14 131.28 198.03 130.51 198.93L129.87 199.69L132.32 201.78L132.97 201.02C133.47 200.42 133.98 199.83 134.5 199.24C135.27 198.36 136.05 197.49 136.85 196.63L137.52 195.89ZM134.54 195.86C133.43 197.08 132.34 198.32 131.28 199.58L131.28 199.58L131.28 199.58L131.44 199.72L132.2 200.37C132.42 200.12 132.64 199.86 132.85 199.61C133.92 198.37 135 197.15 136.11 195.95L136.11 195.95L135.95 195.8L135.21 195.12L135.21 195.12C134.99 195.37 134.76 195.61 134.54 195.86ZM126.33 209.44L124.53 208.14L123.72 207.56L123.14 208.37C122.29 209.54 121.47 210.72 120.66 211.92C120.35 212.38 120.04 212.84 119.74 213.3L119.19 214.14L121.87 215.92L122.42 215.08C122.68 214.69 122.93 214.31 123.19 213.92C124.03 212.69 124.88 211.46 125.75 210.25L126.33 209.44ZM123.37 209.77C122.61 210.84 121.86 211.93 121.12 213.02L121.11 213.05L120.57 213.85L120.75 213.98L121.59 214.53C121.76 214.26 121.94 214 122.12 213.73C123.04 212.36 123.97 211.01 124.94 209.67L124.94 209.67L124.76 209.54L123.95 208.95C123.75 209.22 123.56 209.5 123.37 209.77ZM116.84 224.25L114.9 223.17L114.03 222.68L113.54 223.56C112.72 225.05 111.93 226.55 111.17 228.07C111.03 228.34 110.89 228.6 110.76 228.87L110.32 229.77L113.19 231.21L113.64 230.31C113.89 229.82 114.14 229.33 114.39 228.84C115.03 227.59 115.69 226.35 116.36 225.12L116.84 224.25ZM113.94 224.92C113.31 226.08 112.7 227.25 112.1 228.43C112.08 228.47 112.06 228.52 112.03 228.57L111.66 229.32L111.66 229.32L111.66 229.32L111.85 229.42L112.75 229.87C112.87 229.62 112.99 229.37 113.12 229.12C113.88 227.61 114.67 226.12 115.49 224.64L115.49 224.64L115.49 224.64L115.29 224.53L114.42 224.05C114.26 224.34 114.1 224.63 113.94 224.92ZM109.21 240.08L107.15 239.25L106.22 238.88L105.85 239.81C105.4 240.92 104.97 242.05 104.55 243.17C104.27 243.92 103.99 244.67 103.73 245.42L103.39 246.36L106.42 247.44L106.76 246.5C106.99 245.85 107.23 245.19 107.47 244.55C107.91 243.36 108.36 242.18 108.83 241.01L109.21 240.08ZM106.41 241.11C105.92 242.34 105.46 243.57 105.01 244.81C104.97 244.92 104.93 245.03 104.89 245.13L104.67 245.75L104.67 245.75L104.88 245.83L105.81 246.16L105.82 246.16L105.82 246.16L106.04 245.55C106.63 243.9 107.26 242.26 107.91 240.64L107.7 240.56L106.78 240.18C106.65 240.49 106.53 240.8 106.41 241.11ZM103.54 256.74L101.4 256.16L100.43 255.9L100.17 256.87C100.06 257.29 99.96 257.7 99.85 258.12C99.46 259.64 99.09 261.16 98.75 262.7L98.53 263.67L101.67 264.38L101.89 263.4C102.22 261.92 102.57 260.45 102.95 258.98C103.06 258.56 103.17 258.13 103.28 257.7L103.54 256.74ZM100.89 258.1C100.56 259.37 100.24 260.65 99.95 261.94C99.9 262.12 99.86 262.3 99.82 262.48L99.72 262.91L99.72 262.91L99.94 262.96L100.91 263.18L100.91 263.18L100.91 263.18L101.01 262.75C101.41 260.97 101.85 259.2 102.32 257.45L102.31 257.44L102.11 257.39L101.14 257.13C101.05 257.45 100.97 257.77 100.89 258.1ZM99.93 273.96L97.74 273.65L96.75 273.51L96.61 274.5C96.33 276.48 96.09 278.47 95.89 280.46L95.79 281.45L99 281.77L99.09 280.78C99.29 278.83 99.52 276.88 99.79 274.95L99.93 273.96ZM97.46 275.63C97.29 276.93 97.13 278.25 96.99 279.56C96.96 279.82 96.93 280.09 96.91 280.35L96.89 280.56L97.1 280.58L98.1 280.68L98.12 280.47C98.31 278.57 98.54 276.69 98.8 274.81L98.59 274.78L97.6 274.64C97.55 274.97 97.5 275.3 97.46 275.63ZM98.42 291.49L97.42 291.47L95.2 291.42L95.18 292.42C95.16 293.42 95.15 294.43 95.15 295.43C95.15 296.44 95.16 297.44 95.18 298.44L95.2 299.44L98.42 299.38L98.4 298.38C98.38 297.4 98.37 296.41 98.37 295.43C98.37 294.45 98.38 293.47 98.4 292.49L98.42 291.49ZM97.4 292.47L97.18 292.46L96.4 292.45L96.18 292.44C96.17 292.78 96.17 293.11 96.16 293.44C96.16 294.1 96.15 294.77 96.15 295.43C96.15 296.1 96.16 296.76 96.16 297.42C96.17 297.75 96.17 298.09 96.18 298.42L96.4 298.42L97.18 298.4L97.4 298.4C97.38 297.41 97.37 296.42 97.37 295.43C97.37 294.44 97.38 293.45 97.4 292.47ZM99 309.09L96.79 309.31L95.79 309.41L95.89 310.4C96.09 312.4 96.33 314.38 96.61 316.37L96.75 317.36L99.93 316.91L99.79 315.92C99.52 313.98 99.29 312.04 99.09 310.08L99 309.09ZM96.99 311.3C97.13 312.62 97.29 313.93 97.46 315.24C97.5 315.57 97.55 315.9 97.6 316.23L98.59 316.09L98.8 316.06L98.8 316.05C98.54 314.18 98.31 312.29 98.12 310.39L98.1 310.18L97.1 310.28L96.89 310.31L96.91 310.52C96.93 310.78 96.96 311.04 96.99 311.3ZM101.67 326.49L99.5 326.97L98.53 327.19L98.75 328.17C99.11 329.8 99.51 331.43 99.93 333.05C100.01 333.36 100.09 333.68 100.17 333.99L100.43 334.96L103.54 334.13L103.28 333.16C103.25 333.02 103.21 332.88 103.17 332.74C102.71 330.99 102.28 329.23 101.89 327.46L101.67 326.49ZM99.95 328.92C100.24 330.21 100.56 331.49 100.89 332.77C100.97 333.09 101.05 333.41 101.14 333.73L101.14 333.73L101.15 333.73L102.11 333.47L102.32 333.42L102.32 333.42C101.85 331.66 101.41 329.89 101.01 328.11L100.91 327.68L99.94 327.9L99.73 327.95L99.72 327.95L99.82 328.38C99.86 328.56 99.9 328.74 99.95 328.92ZM106.42 343.42L104.33 344.17L103.39 344.5L103.73 345.44C103.95 346.08 104.19 346.72 104.42 347.36C104.88 348.6 105.36 349.83 105.85 351.06L106.22 351.99L109.21 350.78L108.83 349.85C108.39 348.74 107.95 347.61 107.53 346.48C107.27 345.78 107.01 345.07 106.76 344.37L106.42 343.42ZM105.01 346.05C105.46 347.29 105.92 348.53 106.41 349.75C106.53 350.06 106.65 350.37 106.78 350.68L106.78 350.68L106.78 350.68L107.7 350.31L107.91 350.23L107.91 350.22C107.26 348.6 106.63 346.97 106.04 345.32C105.96 345.11 105.89 344.91 105.82 344.7L104.88 345.04L104.68 345.11L104.67 345.11C104.74 345.32 104.82 345.53 104.89 345.73C104.93 345.84 104.97 345.95 105.01 346.05ZM113.19 359.65L111.21 360.65L110.32 361.1L110.76 361.99C110.96 362.39 111.16 362.78 111.36 363.18C112.06 364.56 112.79 365.94 113.54 367.3L114.03 368.18L116.84 366.62L116.36 365.75C115.71 364.55 115.07 363.35 114.45 362.15C114.17 361.62 113.91 361.08 113.64 360.55L113.19 359.65ZM112.1 362.44C112.7 363.61 113.31 364.78 113.94 365.94C114.1 366.23 114.26 366.52 114.42 366.82L114.42 366.82L114.42 366.82L115.29 366.33L115.49 366.23L115.48 366.22C114.67 364.75 113.88 363.25 113.12 361.75C112.99 361.5 112.87 361.25 112.75 361L111.85 361.45L111.66 361.54L111.66 361.54C111.78 361.8 111.91 362.05 112.03 362.3C112.06 362.35 112.08 362.39 112.1 362.44ZM121.87 374.95L120.02 376.18L119.19 376.73L119.74 377.56C120.2 378.26 120.66 378.95 121.14 379.64C121.79 380.6 122.46 381.55 123.14 382.49L123.72 383.31L126.33 381.42L125.75 380.61C124.74 379.21 123.76 377.79 122.8 376.36C122.67 376.16 122.55 375.97 122.42 375.78L121.87 374.95ZM121.11 377.82L121.12 377.84C121.86 378.94 122.61 380.02 123.37 381.1C123.56 381.37 123.75 381.64 123.94 381.91L123.95 381.91L123.95 381.91L124.76 381.32L124.94 381.19C123.98 379.87 123.05 378.53 122.14 377.17L122.12 377.14L121.59 376.33L120.75 376.89L120.57 377.01L120.57 377.01L121.11 377.82ZM132.32 389.08L130.63 390.52L129.87 391.17L130.51 391.93C131.06 392.58 131.62 393.22 132.18 393.86C132.94 394.72 133.7 395.58 134.48 396.42L135.16 397.16L137.52 394.97L136.85 394.24C135.96 393.28 135.09 392.31 134.24 391.32C133.81 390.83 133.39 390.34 132.97 389.84L132.32 389.08ZM131.92 392.04C131.71 391.79 131.49 391.54 131.28 391.28L131.28 391.28L131.44 391.14L132.2 390.49C132.42 390.75 132.64 391 132.85 391.25C133.92 392.49 135 393.71 136.11 394.91L136.11 394.91L135.95 395.06L135.21 395.74C134.99 395.5 134.76 395.25 134.54 395C133.66 394.03 132.78 393.04 131.92 392.04ZM144.38 401.85L142.87 403.49L142.2 404.22L142.93 404.9C144.39 406.26 145.89 407.58 147.4 408.88L148.16 409.53L150.25 407.08L149.49 406.43C148.59 405.66 147.7 404.88 146.82 404.09C146.25 403.57 145.68 403.06 145.11 402.53L144.38 401.85ZM144.35 404.84C144.1 404.62 143.85 404.39 143.61 404.17L143.76 404L144.44 403.27C144.68 403.49 144.92 403.72 145.17 403.95C146.38 405.05 147.6 406.13 148.84 407.19L148.7 407.36L148.05 408.12C147.8 407.9 147.55 407.69 147.29 407.47C146.3 406.61 145.32 405.73 144.35 404.84ZM157.88 413.08L156.58 414.89L156 415.7L156.81 416.28C158.42 417.45 160.06 418.59 161.72 419.7L162.56 420.25L164.33 417.56L163.5 417.01C161.88 415.93 160.27 414.82 158.69 413.67L157.88 413.08ZM158.2 416.06C157.93 415.86 157.66 415.67 157.39 415.47L157.52 415.29L158.1 414.48L158.92 415.06L158.92 415.07C160.24 416.01 161.59 416.94 162.95 417.84L162.83 418.03L162.28 418.86L162.28 418.86L162.27 418.86C161.99 418.67 161.72 418.49 161.44 418.31C160.35 417.57 159.27 416.82 158.2 416.06ZM172.63 422.6L171.55 424.55L171.07 425.43L171.95 425.91C173.59 426.82 175.24 427.7 176.91 428.54C177.02 428.59 177.13 428.65 177.24 428.7L178.13 429.15L179.57 426.27L178.68 425.82C178.37 425.67 178.06 425.51 177.75 425.35C176.32 424.62 174.91 423.87 173.5 423.09L172.63 422.6ZM173.02 423.97L172.54 424.84L172.43 425.04L173.2 425.46L173.31 425.52C174.46 426.15 175.62 426.76 176.79 427.36C177.09 427.51 177.38 427.66 177.68 427.8L177.68 427.81L177.69 427.8L178.13 426.91L178.23 426.72C176.77 425.98 175.33 425.23 173.9 424.45L173.78 424.39L173.02 423.97ZM188.41 430.27L187.58 432.33L187.21 433.26L188.13 433.63C189.98 434.38 191.85 435.09 193.72 435.76L194.67 436.1L195.75 433.06L194.81 432.73C194.34 432.56 193.87 432.39 193.4 432.22C192.04 431.71 190.69 431.19 189.34 430.64L188.41 430.27ZM188.51 432.71L189.19 432.98C189.27 433.01 189.35 433.04 189.44 433.08C190.66 433.56 191.88 434.03 193.12 434.48C193.43 434.59 193.75 434.71 194.06 434.82L194.4 433.88L194.47 433.67C192.85 433.09 191.23 432.48 189.64 431.84L188.96 431.57L188.59 432.5L188.51 432.7L188.51 432.71ZM205 435.95L204.43 438.1L204.17 439.07L205.14 439.33C205.9 439.53 206.67 439.73 207.43 439.92C208.6 440.22 209.77 440.49 210.94 440.76L211.92 440.98L212.62 437.83L211.65 437.61C210.84 437.43 210.03 437.24 209.22 437.05C208.13 436.78 207.05 436.5 205.97 436.21L205 435.95ZM206.36 438.62C206.21 438.58 206.06 438.54 205.91 438.5L205.4 438.36L205.4 438.35L205.46 438.15L205.71 437.18L206.21 437.31C207.94 437.77 209.68 438.2 211.43 438.59L211.38 438.81L211.16 439.78C210.84 439.71 210.51 439.64 210.19 439.56C208.91 439.26 207.63 438.95 206.36 438.62ZM222.16 439.58L221.85 441.78L221.71 442.77L222.7 442.91C224.68 443.19 226.66 443.43 228.64 443.62L229.64 443.72L229.96 440.52L228.96 440.42C227.02 440.22 225.08 439.99 223.15 439.72L222.16 439.58ZM222.84 441.92L223.15 441.96C223.38 441.99 223.61 442.02 223.83 442.05C225.13 442.23 226.44 442.39 227.75 442.53C228.07 442.56 228.39 442.59 228.71 442.63L228.74 442.63L228.75 442.6L228.84 441.63L228.86 441.41C227.01 441.23 225.16 441.01 223.32 440.75L223.01 440.71L222.87 441.7L222.84 441.91L222.84 441.92ZM239.63 441.1L239.61 442.1L239.57 444.32L240.57 444.34L240.63 444.34C241.6 444.36 242.58 444.37 243.56 444.37L244.56 444.37L244.56 441.15L243.56 441.15C242.59 441.15 241.61 441.14 240.63 441.12L239.63 441.1ZM240.73 442.12L240.61 442.12L240.6 442.34L240.59 443.12L240.58 443.34L240.63 443.34C240.95 443.35 241.27 443.35 241.58 443.35C241.91 443.36 242.24 443.36 242.56 443.36C242.9 443.37 243.23 443.37 243.56 443.37L243.56 442.15C242.62 442.15 241.67 442.14 240.73 442.12Z" fill="#FFFFFF" fill-opacity="1.000000" fill-rule="evenodd"/>
	<path id="Star" d="M232.51 193.96C231.95 196.55 231.24 198.27 230.37 199.11C229.45 200 227.55 200.69 224.67 201.18C224.07 201.28 223.6 201.51 223.28 201.87C222.93 202.25 222.73 202.77 222.7 203.44C222.66 204.11 222.79 204.65 223.1 205.07C223.39 205.46 223.83 205.74 224.41 205.91C227.36 206.75 229.33 207.68 230.31 208.71C231.19 209.63 231.96 211.43 232.63 214.09C232.77 214.68 233.04 215.13 233.41 215.43C233.81 215.74 234.34 215.9 235 215.89C235.66 215.88 236.19 215.72 236.58 215.39C236.95 215.08 237.2 214.63 237.33 214.04C237.93 211.36 238.64 209.57 239.46 208.66C240.39 207.63 242.24 206.74 245.02 205.99C245.6 205.84 246.04 205.57 246.33 205.19C246.66 204.76 246.81 204.18 246.77 203.47C246.73 202.76 246.53 202.21 246.15 201.81C245.82 201.47 245.36 201.25 244.76 201.15C242.06 200.72 240.27 200.05 239.4 199.16C238.59 198.32 237.93 196.6 237.43 194.01C237.32 193.42 237.08 192.97 236.72 192.64C236.31 192.27 235.73 192.08 234.99 192.07C234.25 192.07 233.67 192.25 233.25 192.61C232.88 192.92 232.64 193.37 232.51 193.96ZM234.58 194.4C234.64 194.12 235.29 194.12 235.35 194.41C235.45 194.95 235.58 195.55 235.75 196.16C235.84 196.5 235.94 196.84 236.05 197.18C236.48 198.51 237.08 199.8 237.89 200.63C238.78 201.56 240.2 202.19 241.63 202.61C241.98 202.72 242.32 202.81 242.66 202.89C243.28 203.04 243.89 203.16 244.43 203.24C244.71 203.29 244.74 203.87 244.47 203.95C243.94 204.09 243.35 204.26 242.74 204.48C242.41 204.59 242.07 204.71 241.73 204.85C240.27 205.43 238.8 206.22 237.89 207.24C237.11 208.1 236.51 209.42 236.06 210.73C235.94 211.09 235.83 211.44 235.73 211.78C235.54 212.44 235.38 213.06 235.27 213.57C235.21 213.84 234.75 213.85 234.68 213.58C234.56 213.07 234.39 212.45 234.18 211.8C234.07 211.46 233.95 211.11 233.82 210.76C233.32 209.45 232.67 208.11 231.84 207.24C230.88 206.25 229.34 205.44 227.84 204.83C227.47 204.69 227.11 204.55 226.75 204.43C226.11 204.2 225.5 204.02 224.99 203.87C224.73 203.79 224.76 203.32 225.03 203.27C225.55 203.18 226.17 203.06 226.83 202.9C227.2 202.81 227.57 202.71 227.94 202.6C229.41 202.16 230.91 201.53 231.84 200.63C232.7 199.8 233.35 198.5 233.82 197.15C233.94 196.81 234.05 196.47 234.15 196.14C234.32 195.53 234.47 194.94 234.58 194.4Z" fill="#FFFFFF" fill-opacity="1.000000" fill-rule="evenodd"/>
	<path id="Star" d="M215.46 230.07C214.89 232.95 214.16 234.86 213.26 235.8C212.33 236.78 210.4 237.53 207.48 238.06C206.88 238.17 206.42 238.4 206.1 238.76C205.76 239.13 205.56 239.65 205.52 240.31C205.48 240.96 205.61 241.5 205.91 241.92C206.19 242.31 206.62 242.59 207.2 242.77C210.2 243.68 212.2 244.71 213.2 245.85C214.11 246.88 214.9 248.87 215.58 251.81C215.71 252.41 215.97 252.87 216.35 253.18C216.75 253.5 217.29 253.66 217.96 253.65C218.63 253.65 219.16 253.48 219.55 253.14C219.93 252.83 220.18 252.37 220.3 251.76C220.91 248.81 221.63 246.82 222.48 245.8C223.43 244.65 225.33 243.67 228.18 242.85C228.76 242.69 229.19 242.41 229.48 242.03C229.8 241.6 229.94 241.04 229.9 240.34C229.86 239.64 229.66 239.09 229.29 238.7C228.96 238.36 228.5 238.13 227.91 238.04C225.15 237.57 223.32 236.84 222.42 235.85C221.58 234.9 220.9 233 220.39 230.12C220.29 229.52 220.05 229.06 219.7 228.73C219.28 228.35 218.7 228.16 217.95 228.15C217.19 228.15 216.61 228.33 216.19 228.7C215.82 229.01 215.58 229.47 215.46 230.07ZM217.54 230.48C217.6 230.19 218.26 230.2 218.31 230.49C218.4 231.04 218.52 231.64 218.67 232.25C218.77 232.65 218.88 233.06 219 233.47C219.43 234.93 220.03 236.35 220.85 237.26C221.8 238.32 223.33 239.03 224.84 239.49C225.16 239.59 225.48 239.68 225.79 239.76C226.42 239.92 227.03 240.04 227.56 240.12C227.84 240.17 227.87 240.74 227.6 240.82C227.09 240.96 226.5 241.15 225.88 241.37C225.57 241.48 225.26 241.6 224.95 241.73C223.41 242.38 221.82 243.27 220.85 244.45C220.07 245.39 219.46 246.84 219.01 248.28C218.88 248.7 218.76 249.12 218.65 249.53C218.47 250.19 218.33 250.81 218.23 251.33C218.17 251.6 217.7 251.61 217.64 251.34C217.52 250.82 217.37 250.2 217.18 249.55C217.06 249.14 216.93 248.72 216.78 248.3C216.29 246.86 215.63 245.4 214.79 244.45C213.78 243.3 212.12 242.39 210.54 241.72C210.21 241.58 209.88 241.45 209.57 241.33C208.92 241.09 208.32 240.89 207.82 240.74C207.56 240.66 207.58 240.2 207.85 240.15C208.37 240.05 208.99 239.93 209.65 239.76C209.98 239.67 210.31 239.58 210.65 239.47C212.2 239 213.81 238.29 214.79 237.26C215.66 236.35 216.31 234.92 216.79 233.44C216.92 233.04 217.03 232.64 217.14 232.24C217.3 231.62 217.43 231.03 217.54 230.48Z" fill="#FFFFFF" fill-opacity="1.000000" fill-rule="evenodd"/>
	<path id="Star" d="M250.46 230.07C249.89 232.95 249.16 234.86 248.26 235.8C247.33 236.78 245.4 237.53 242.48 238.06C241.88 238.17 241.42 238.4 241.1 238.76C240.76 239.13 240.56 239.65 240.52 240.31C240.48 240.96 240.61 241.5 240.91 241.92C241.19 242.31 241.62 242.59 242.2 242.77C245.2 243.68 247.2 244.71 248.2 245.85C249.11 246.88 249.9 248.87 250.58 251.81C250.71 252.41 250.97 252.87 251.35 253.18C251.75 253.5 252.29 253.66 252.96 253.65C253.63 253.65 254.16 253.48 254.55 253.14C254.93 252.83 255.18 252.37 255.3 251.76C255.91 248.81 256.63 246.82 257.48 245.8C258.43 244.65 260.33 243.67 263.18 242.85C263.76 242.69 264.19 242.41 264.48 242.03C264.8 241.6 264.94 241.04 264.9 240.34C264.86 239.64 264.66 239.09 264.29 238.7C263.96 238.36 263.5 238.13 262.91 238.04C260.15 237.57 258.32 236.84 257.42 235.85C256.58 234.9 255.9 233 255.39 230.12C255.29 229.52 255.05 229.06 254.7 228.73C254.28 228.35 253.7 228.16 252.95 228.15C252.19 228.15 251.61 228.33 251.19 228.7C250.82 229.01 250.58 229.47 250.46 230.07ZM252.54 230.48C252.6 230.19 253.26 230.2 253.31 230.49C253.4 231.04 253.52 231.64 253.67 232.25C253.77 232.65 253.88 233.06 254 233.47C254.43 234.93 255.03 236.35 255.85 237.26C256.8 238.32 258.33 239.03 259.84 239.49C260.16 239.59 260.48 239.68 260.79 239.76C261.42 239.92 262.03 240.04 262.56 240.12C262.84 240.17 262.87 240.74 262.6 240.82C262.09 240.96 261.5 241.15 260.88 241.37C260.57 241.48 260.26 241.6 259.95 241.73C258.41 242.38 256.82 243.27 255.85 244.45C255.07 245.39 254.46 246.84 254.01 248.28C253.88 248.7 253.76 249.12 253.65 249.53C253.47 250.19 253.33 250.81 253.23 251.33C253.17 251.6 252.7 251.61 252.64 251.34C252.52 250.82 252.37 250.2 252.18 249.55C252.06 249.14 251.93 248.72 251.78 248.3C251.29 246.86 250.63 245.4 249.79 244.45C248.78 243.3 247.12 242.39 245.54 241.72C245.21 241.58 244.88 241.45 244.57 241.33C243.92 241.09 243.32 240.89 242.82 240.74C242.56 240.66 242.58 240.2 242.85 240.15C243.37 240.05 243.99 239.93 244.65 239.76C244.98 239.67 245.31 239.58 245.65 239.47C247.2 239 248.81 238.29 249.79 237.26C250.66 236.35 251.31 234.92 251.79 233.44C251.92 233.04 252.03 232.64 252.14 232.24C252.3 231.62 252.43 231.03 252.54 230.48Z" fill="#FFFFFF" fill-opacity="1.000000" fill-rule="evenodd"/>
</svg>
