<svg width="85" height="76" viewBox="0 0 85 76" fill="none" xmlns="http://www.w3.org/2000/svg">
<path fill-rule="evenodd" clip-rule="evenodd" d="M25.7 70.1392C25.7 70.1392 25.7 70.0392 25.8 70.0392L25.9 69.9392C26.7 68.9392 28.3 68.2392 29.4 67.9392C29.9 67.1392 30.6 66.3392 31.6 66.3392C32.4 66.2392 33.2 66.2392 34 66.2392C34.6 66.2392 35.2 66.1392 35.9 66.1392C36.3 66.1392 36.7 66.1392 37 66.0392C38.4 65.8392 39.2 48.0392 39.4 46.9392C39.7 45.1392 39.9 43.3392 40.1 41.5392C40.4 37.6392 40.6 33.7392 40.6 29.8392C40.6 29.6392 40.6 29.2392 40.4 29.0392C40.3 28.8392 39.9 28.7392 39.7 28.6392C39.3 28.4392 39 28.2392 39.2 27.7392C39.3 27.5392 39.4 27.4392 39.5 27.2392C39.9 26.6392 40.2 26.1392 40 25.4392C39.8 24.6392 39.2 23.7392 38.8 23.0392C38.5 22.6392 37.9 21.6392 38.1 21.1392C38.2 21.0392 38.2 20.9392 38.4 20.8392C38.9 20.5392 39.2 20.7392 39.6 21.1392C39.8 21.3392 39.9 21.4392 40.1 21.3392C40.6 21.0392 40.4 20.5392 40.3 20.0392C40.2 19.8392 40.2 19.6392 40.2 19.4392C40.1 19.0392 39.6 18.8392 39.2 18.8392C38.7 18.7392 38.1 18.7392 37.5 18.7392C36.6 18.7392 35.7 18.7392 34.8 18.8392C32.3 18.9392 29.9 19.3392 27.4 19.7392C23.7 20.3392 19.2 21.1392 15.2 20.5392C17.3 23.6392 19.4 26.7392 21.5 29.9392C22.9 32.0392 24.2 34.0392 25.5 36.2392C26 36.9392 26.4 37.7392 26.8 38.5392C27 38.8392 27.3 39.4392 27.4 39.8392C27.4 39.9392 27.4 39.9392 27.4 40.0392C28 40.3392 28.4 40.7392 28.4 41.2392C28.4 41.8392 27.7 42.3392 26.8 42.7392C26.4 43.9392 25.7 45.2392 25 46.2392C23 49.1392 20.2 51.1392 16.7 51.6392C15.8 51.7392 15 51.8392 14.1 51.8392C13.2 51.8392 12.4 51.8392 11.5 51.6392C8 51.0392 5.19998 49.1392 3.19998 46.2392C2.49998 45.1392 1.79999 43.9392 1.39999 42.7392C1.39999 42.6392 1.39999 42.6392 1.29999 42.5392C0.599988 42.2392 0 41.7392 0 41.2392C0 40.8392 0.299982 40.4392 0.699982 40.2392C0.699982 40.1392 0.699982 40.0392 0.699982 39.8392C0.799982 39.5392 1.09999 38.8392 1.29999 38.5392C1.69999 37.7392 2.19998 37.0392 2.59998 36.2392C3.89998 34.1392 5.19998 32.0392 6.59998 29.9392C8.69998 26.7392 10.8 23.5392 13 20.4392C13 20.4392 13 20.4392 13.1 20.3392L13.2 20.2392C12.3 20.0392 11.4 19.6392 10.6 19.2392C9.39998 18.6392 8.3 17.7392 7.5 16.5392C7 15.7392 6.79999 14.7392 6.89999 13.8392C6.99999 12.9392 7.29999 12.1392 7.89999 11.5392C8.39999 10.9392 9.09999 10.4392 9.89999 10.2392C10.4 10.1392 10.9 10.0392 11.4 10.0392C12.1 10.0392 12.8 10.3392 13.3 10.8392C13.8 11.2392 14.1 11.8392 14.3 12.4392C14.4 12.9392 14.5 13.4392 14.5 13.9392C14.5 14.7392 14.1 15.3392 13.3 15.5392C13 15.6392 12.6 15.6392 12.3 15.6392C12 15.5392 11.7 15.4392 11.4 15.2392C11 14.9392 10.9 14.4392 11.1 14.0392C11.2 13.7392 11.4 13.4392 11.5 13.2392C11.5 13.1392 11.6 13.0392 11.6 13.0392C11.5 12.9392 11.1 12.9392 11 12.9392C10.8 12.9392 10.6 12.9392 10.4 13.0392C10.2 13.1392 9.99999 13.2392 9.89999 13.4392C9.69999 13.7392 9.59998 14.2392 9.59998 14.6392C9.59998 14.7392 9.59998 14.8392 9.59998 14.9392C9.79998 15.7392 10.8 16.2392 11.5 16.5392C12.7 17.0392 14.1 17.1392 15.4 17.1392C16.2 17.1392 17 17.0392 17.8 16.8392C21.7 15.8392 25.5 12.5392 28.5 9.93919C29.8 8.83919 31.1 7.63919 32.6 6.63919C33.6 5.93919 34.8 5.23918 36 5.23918C37.1 5.23918 37.2 7.03919 37.2 7.83919C37.2 8.63919 37.1 9.43918 37.1 10.2392C37.1 10.9392 37 11.5392 37 12.2392C37 13.4392 37.8 13.8392 38.8 13.7392C38.5 13.1392 38.3 12.4392 38.3 11.7392C38.3 11.1392 38.4 10.5392 38.7 10.0392C39 9.53918 39.5 9.13919 40.1 8.93919C40.7 8.73919 41.4 8.83919 42.1 8.93919H42.2H42.3C42.9 8.73919 43.6 8.73919 44.3 8.93919C44.9 9.13919 45.4 9.43918 45.7 10.0392C46 10.5392 46.1 11.1392 46.1 11.7392C46.1 12.4392 45.9 13.1392 45.6 13.7392C46.6 13.8392 47.5 13.5392 47.4 12.2392C47.4 11.5392 47.3 10.9392 47.3 10.2392C47.3 9.43918 47.2 8.63919 47.2 7.83919C47.2 7.03919 47.2 5.23918 48.4 5.23918C49.6 5.23918 50.9 6.03919 51.8 6.63919C53.2 7.63919 54.6 8.83919 55.9 9.93919C58.9 12.5392 62.7 15.8392 66.6 16.8392C67.4 17.0392 68.2 17.1392 69 17.1392C70.3 17.1392 71.7 17.0392 72.9 16.5392C73.6 16.2392 74.6 15.7392 74.8 14.9392C74.8 14.8392 74.8 14.7392 74.8 14.6392C74.8 14.2392 74.8 13.8392 74.5 13.4392C74.4 13.2392 74.2 13.1392 74 13.0392C73.8 12.9392 73.6 12.9392 73.4 12.9392C73.2 12.9392 72.9 12.9392 72.8 13.0392C72.9 13.1392 72.9 13.1392 72.9 13.2392C73.1 13.5392 73.2 13.8392 73.3 14.0392C73.5 14.5392 73.4 14.9392 73 15.2392C72.8 15.4392 72.5 15.5392 72.1 15.6392C71.8 15.7392 71.4 15.6392 71.1 15.5392C70.3 15.3392 69.9 14.7392 69.9 13.9392C69.9 13.4392 69.9 12.9392 70.1 12.4392C70.3 11.8392 70.6 11.2392 71.1 10.8392C71.6 10.3392 72.3 10.1392 73 10.0392C73.5 10.0392 74 10.1392 74.5 10.2392C75.3 10.4392 76 10.9392 76.5 11.5392C77 12.2392 77.4 13.0392 77.5 13.8392C77.6 14.8392 77.4 15.7392 76.9 16.5392C76.2 17.7392 75 18.5392 73.8 19.2392C73 19.6392 72.1 19.9392 71.2 20.2392L71.3 20.3392C70.4 20.4392 69.4 20.5392 68.6 20.6392C64.8 21.0392 60.7 20.2392 57.2 19.7392C54.8 19.3392 52.3 18.9392 49.8 18.8392C48.9 18.7392 48 18.7392 47.1 18.7392C46.5 18.7392 46 18.7392 45.4 18.8392C45 18.9392 44.5 19.0392 44.4 19.4392C44.4 19.6392 44.3 19.8392 44.3 20.0392C44.2 20.5392 44 21.0392 44.5 21.3392C44.8 21.4392 44.9 21.3392 45 21.1392C45.3 20.7392 45.6 20.4392 46.1 20.8392C46.2 20.9392 46.3 21.0392 46.4 21.1392C46.6 21.6392 45.9 22.6392 45.7 23.0392C45.2 23.7392 44.7 24.6392 44.5 25.4392C44.3 26.1392 44.6 26.6392 45 27.2392C45.1 27.4392 45.2 27.5392 45.3 27.7392C45.5 28.2392 45.3 28.4392 44.8 28.6392C44.6 28.7392 44.2 28.8392 44.1 29.0392C43.9 29.2392 43.9 29.6392 43.9 29.8392C43.9 33.7392 44.1 37.6392 44.4 41.5392C44.6 43.3392 44.8 45.1392 45.1 46.9392C45.3 48.0392 46.1 65.8392 47.5 66.0392C47.9 66.1392 48.3 66.1392 48.7 66.1392C49.3 66.1392 49.9 66.2392 50.6 66.2392C51.4 66.2392 52.2 66.3392 53 66.3392C53.9 66.4392 54.7 67.2392 55.2 67.9392C56.3 68.2392 57.9 68.9392 58.7 69.9392L58.8 70.0392L58.9 70.1392C58.9 70.2392 59 70.2392 59 70.3392V70.4392C59.1 70.6392 59.1 70.8392 59.2 71.0392C59.3 71.6392 59 72.2392 58.6 72.6392C58.1 73.2392 57.5 73.6392 56.8 73.9392H56.7C55.5 74.5392 54 74.8392 52.6 74.9392C49.2 75.2392 45.7 75.3392 42.3 75.4392C42.3 75.4392 42.3 75.4392 42.2 75.4392C42.2 75.4392 42.2 75.4392 42.1 75.4392C38.7 75.3392 35.2 75.2392 31.8 74.9392C30.4 74.8392 29 74.5392 27.7 73.9392H27.6C27 73.6392 26.3 73.2392 25.9 72.6392C25.5 72.1392 25.2 71.6392 25.3 71.0392C25.3 70.8392 25.4 70.6392 25.5 70.4392V70.3392C25.7 70.2392 25.7 70.2392 25.7 70.1392ZM26.2 39.5392C25.8 38.6392 24.8 37.0392 24.5 36.5392C23.2 34.4392 21.9 32.4392 20.5 30.3392C18.4 27.2392 16.3 24.0392 14.2 20.9392L14.1 20.8392C14 20.8392 14 20.8392 13.9 20.8392L13.8 20.9392C11.7 24.0392 9.6 27.1392 7.5 30.3392C6.2 32.3392 4.8 34.4392 3.5 36.5392C3.2 37.0392 2.09998 38.8392 1.69998 39.6392C2.69998 39.1392 4.39999 38.8392 4.89999 38.7392C7.89999 38.2392 11 38.1392 14 38.1392C17 38.1392 20.2 38.2392 23.1 38.7392C23.7 38.8392 25.1 39.1392 26.2 39.5392Z" fill="#6B5DFF"/>
<path fill-rule="evenodd" clip-rule="evenodd" d="M67.3 20.8392C68.1 20.8392 68.9 20.7392 69.7 20.6392C67.6 23.7392 65.5 26.8392 63.4 30.0392C62 32.1392 60.7 34.1392 59.4 36.3392C58.9 37.0392 58.5 37.8392 58.1 38.6392C57.9 38.9392 57.6 39.5392 57.5 39.9392C57.5 40.0392 57.5 40.0392 57.5 40.1392C56.9 40.4392 56.5 40.8392 56.5 41.3392C56.5 41.9392 57.2 42.4392 58.1 42.8392C58.5 44.0392 59.2 45.3392 59.9 46.3392C61.9 49.2392 64.7 51.2392 68.2 51.7392C69.1 51.8392 69.9 51.9392 70.8 51.9392C71.7 51.9392 72.5 51.9392 73.4 51.7392C76.9 51.1392 79.7 49.2392 81.7 46.3392C82.4 45.2392 83.1 44.0392 83.5 42.8392C83.5 42.7392 83.5 42.7392 83.6 42.6392C84.3 42.3392 84.9 41.8392 84.9 41.3392C84.9 40.9392 84.6 40.5392 84.2 40.3392C84.2 40.2392 84.2 40.1392 84.2 39.9392C84.1 39.6392 83.8 38.9392 83.6 38.6392C83.2 37.8392 82.7 37.1392 82.3 36.3392C81 34.2392 79.7 32.1392 78.3 30.0392C76.2 26.8392 74.1 23.6392 71.9 20.5392C71.9 20.5392 71.9 20.5392 71.8 20.4392L71.7 20.3392H71.8C69.9 20.4392 67.3 20.8392 67.3 20.8392ZM58.5 39.5392C58.9 38.6392 59.9 37.0392 60.2 36.5392C61.5 34.4392 62.8 32.4392 64.2 30.3392C66.3 27.2392 68.4 24.0392 70.5 20.9392L70.6 20.8392C70.7 20.8392 70.7 20.8392 70.8 20.8392L70.9 20.9392C73 24.0392 75.1 27.1392 77.2 30.3392C78.5 32.3392 79.9 34.4392 81.2 36.5392C81.5 37.0392 82.6 38.8392 83 39.6392C82 39.1392 80.3 38.8392 79.8 38.7392C76.8 38.2392 73.7 38.1392 70.7 38.1392C67.7 38.1392 64.5 38.2392 61.6 38.7392C61 38.8392 59.6 39.1392 58.5 39.5392Z" fill="#6B5DFF"/>
<path fill-rule="evenodd" clip-rule="evenodd" d="M1.3 40.2392C1.3 40.4392 1.2 40.4392 1.3 40.9392C1.9 43.9392 5.30001 51.7392 14 51.4392C23.1 51.7392 26.4 43.2392 26.8 40.5392C26.8 40.2392 26.8 40.4392 26.8 40.3392C26.5 38.6392 1.5 38.6392 1.3 40.2392Z" fill="#F0F2FB"/>
<path fill-rule="evenodd" clip-rule="evenodd" d="M13.7 20.9392C13.2 21.6392 1.79998 38.4392 1.59998 39.9392C1.59998 40.0392 1.59998 40.0392 1.59998 40.1392C1.59998 41.1392 2.29999 43.5392 3.89999 45.8392C5.49999 48.1392 7.99998 50.3392 11.6 50.9392C12.4 51.0392 13.2 51.1392 14 51.0392C14.9 51.0392 15.7 51.0392 16.4 50.9392C20.1 50.3392 22.6 48.1392 24.1 45.8392C25.7 43.5392 26.3 41.1392 26.4 40.1392C26.4 40.0392 26.4 39.9392 26.4 39.9392C26.2 38.4392 14.7 21.6392 14.3 20.9392C14.2 20.8392 14.2 20.7392 14.1 20.7392C14 20.7392 14 20.7392 13.9 20.7392C13.8 20.7392 13.8 20.8392 13.7 20.9392ZM0.899994 39.8392C1.19999 38.2392 12.7 21.2392 13.2 20.5392C13.2 20.5392 13.2 20.5392 13.2 20.4392C13.4 20.2392 13.5 20.1392 13.7 20.0392C13.8 19.9392 14 19.9392 14.1 20.0392C14.2 20.0392 14.3 20.0392 14.5 20.0392C14.6 20.1392 14.8 20.2392 15 20.4392C15 20.5392 27 38.1392 27.3 39.7392C27.3 39.8392 27.3 39.9392 27.3 40.1392C27.3 41.2392 26.6 43.7392 24.9 46.1392C23.2 48.5392 20.6 50.8392 16.7 51.5392C15.9 51.6392 15 51.7392 14.1 51.7392C13.2 51.7392 12.3 51.7392 11.5 51.5392C7.6 50.9392 4.99999 48.6392 3.29999 46.1392C1.59999 43.7392 0.999994 41.1392 0.899994 40.1392C0.899994 40.0392 0.899994 39.9392 0.899994 39.8392Z" fill="#6B5DFF"/>
<path fill-rule="evenodd" clip-rule="evenodd" d="M83.4 39.8392C83.7 41.4392 80.6 51.7392 70.6 51.3392C60.6 51.6392 57.5 41.8392 57.8 40.2392C58 38.9392 63.8 38.7392 70 38.6392C75.2 38.6392 80.6 39.0392 82.7 39.6392C83.1 39.9392 83.4 39.6392 83.4 39.8392Z" fill="#F0F2FB"/>
<path fill-rule="evenodd" clip-rule="evenodd" d="M71.5 20.5392C71.9 21.1392 83.5 38.2392 83.8 39.8392C83.8 39.9392 83.8 40.0392 83.8 40.2392C83.8 41.3392 83.1 43.8392 81.4 46.2392C79.7 48.6392 77.1 50.9392 73.2 51.6392C72.4 51.7392 71.5 51.8392 70.6 51.8392C69.7 51.8392 68.8 51.8392 68 51.6392C64.1 51.0392 61.5 48.7392 59.8 46.2392C58.1 43.8392 57.5 41.2392 57.4 40.2392C57.4 40.1392 57.4 39.9392 57.4 39.8392C57.7 38.1392 69.6 20.5392 69.7 20.5392C69.9 20.3392 70 20.2392 70.2 20.1392C70.3 20.1392 70.4 20.1392 70.5 20.1392C70.6 20.1392 70.7 20.1392 70.8 20.1392C71.1 20.1392 71.3 20.2392 71.5 20.5392ZM83.1 39.9392C82.9 38.4392 71.4 21.5392 71 20.9392C70.9 20.8392 70.9 20.8392 70.8 20.7392C70.7 20.7392 70.6 20.7392 70.5 20.7392C70.5 20.7392 70.4 20.8392 70.3 20.9392C69.9 21.5392 58.4 38.4392 58.2 39.9392C58.2 40.0392 58.2 40.0392 58.2 40.1392C58.2 41.1392 58.9 43.5392 60.5 45.8392C62.1 48.1392 64.6 50.3392 68.2 50.9392C69 51.0392 69.8 51.1392 70.7 51.0392C71.6 51.0392 72.4 51.0392 73.2 50.9392C76.9 50.3392 79.4 48.1392 80.9 45.8392C82.5 43.5392 83.1 41.1392 83.2 40.1392C83.1 40.0392 83.1 39.9392 83.1 39.9392Z" fill="#6B5DFF"/>
<path fill-rule="evenodd" clip-rule="evenodd" d="M20.7 40.0392C21.4 40.1392 22 40.2392 22.7 40.3392C23.4 40.4392 24 40.9392 24.7 41.0392C24.8 41.0392 24.8 40.9392 24.8 40.8392C24.4 40.3392 23.6 40.3392 23.1 40.1392C22.3 40.0392 21.4 39.9392 20.7 40.0392Z" fill="#6B5DFF"/>
<path fill-rule="evenodd" clip-rule="evenodd" d="M21 41.0392C21.2 41.1392 21.5 41.2392 21.8 41.2392C22.1 41.3392 22.4 41.4392 22.7 41.4392C22.8 41.4392 22.9 41.3392 22.8 41.2392C22.6 41.0392 22.4 40.9392 22.1 40.9392C21.8 40.8392 21.4 40.8392 21.1 40.8392C21 40.8392 21 40.9392 21 41.0392Z" fill="#6B5DFF"/>
<path fill-rule="evenodd" clip-rule="evenodd" d="M20.5 41.3392C20.6 41.4392 20.7 41.4392 20.8 41.5392C20.9 41.6392 21 41.6392 21.1 41.6392C21.2 41.6392 21.2 41.5392 21.2 41.5392C21.2 41.4392 21.1 41.3392 21 41.3392C20.9 41.2392 20.8 41.2392 20.7 41.1392C20.5 40.9392 20.3 41.2392 20.5 41.3392Z" fill="#6B5DFF"/>
<path fill-rule="evenodd" clip-rule="evenodd" d="M24.7 43.5392C23.9 43.7392 23.1 44.0392 22.3 44.2392C21.4 44.3392 20.6 44.4392 19.7 44.5392C19.6 44.5392 19.6 44.7392 19.7 44.8392C21.3 45.0392 23.8 45.2392 24.9 43.7392C24.9 43.5392 24.8 43.4392 24.7 43.5392Z" fill="#6B5DFF"/>
<path fill-rule="evenodd" clip-rule="evenodd" d="M23.7 45.0392C23.2 45.2392 22.7 45.3392 22.2 45.4392C21.7 45.5392 21.1 45.6392 20.6 45.8392C20.5 45.9392 20.5 46.1392 20.6 46.2392C21.7 46.4392 22.9 45.9392 23.7 45.2392C23.9 45.1392 23.9 44.9392 23.7 45.0392Z" fill="#6B5DFF"/>
<path fill-rule="evenodd" clip-rule="evenodd" d="M21.7 47.3392C21.4 47.4392 21 47.5392 20.6 47.6392V47.7392C21 47.8392 21.4 47.7392 21.7 47.6392C22 47.6392 21.9 47.2392 21.7 47.3392Z" fill="#6B5DFF"/>
<path fill-rule="evenodd" clip-rule="evenodd" d="M20.1 48.5392C19.7 48.6392 19.4 48.7392 19.1 48.9392C19 48.9392 19.1 49.1392 19.1 49.1392C19.5 49.1392 19.8 49.0392 20.2 48.9392C20.5 48.8392 20.4 48.4392 20.1 48.5392Z" fill="#6B5DFF"/>
<path fill-rule="evenodd" clip-rule="evenodd" d="M15.1 44.9392C15.1 45.3392 15.1 45.6392 15.1 46.0392C15.1 46.3392 15.1 46.7392 15.3 46.9392C15.4 47.0392 15.5 47.0392 15.5 46.9392C15.6 46.6392 15.5 46.4392 15.5 46.1392C15.4 45.7392 15.4 45.3392 15.3 44.9392C15.3 44.7392 15.1 44.7392 15.1 44.9392Z" fill="#6B5DFF"/>
<path fill-rule="evenodd" clip-rule="evenodd" d="M15.8 45.3392C15.8 45.7392 15.8 46.4392 16.2 46.5392C16.3 46.5392 16.3 46.5392 16.4 46.4392C16.5 46.2392 16.4 46.1392 16.3 45.9392C16.2 45.7392 16.2 45.5392 16.2 45.3392C16.1 45.0392 15.8 45.0392 15.8 45.3392Z" fill="#6B5DFF"/>
<path fill-rule="evenodd" clip-rule="evenodd" d="M16.8 45.4392C16.7 45.6392 16.8 46.0392 17 46.0392C17 46.0392 17.1 46.0392 17.1 45.9392C17.1 45.7392 17 45.6392 17 45.4392C17.1 45.3392 16.9 45.2392 16.8 45.4392Z" fill="#6B5DFF"/>
<path fill-rule="evenodd" clip-rule="evenodd" d="M17.8 45.2392C17.8 45.4392 17.8 45.6392 17.9 45.7392H18C18.1 45.6392 18.1 45.4392 18.1 45.2392C18.2 44.9392 17.8 44.9392 17.8 45.2392Z" fill="#6B5DFF"/>
<path fill-rule="evenodd" clip-rule="evenodd" d="M64 40.0392C63.3 40.1392 62.7 40.2392 62 40.3392C61.3 40.4392 60.7 40.9392 60 41.0392C59.9 41.0392 59.9 40.9392 59.9 40.8392C60.3 40.3392 61 40.3392 61.6 40.1392C62.4 40.0392 63.2 39.9392 64 40.0392Z" fill="#6B5DFF"/>
<path fill-rule="evenodd" clip-rule="evenodd" d="M63.6 41.0392C63.4 41.1392 63.1 41.2392 62.8 41.2392C62.5 41.3392 62.2 41.4392 61.9 41.4392C61.8 41.4392 61.7 41.3392 61.8 41.2392C62 41.0392 62.2 40.9392 62.5 40.9392C62.8 40.8392 63.2 40.8392 63.5 40.8392C63.6 40.8392 63.7 40.9392 63.6 41.0392Z" fill="#6B5DFF"/>
<path fill-rule="evenodd" clip-rule="evenodd" d="M64.1 41.3392C64 41.4392 63.9 41.4392 63.8 41.5392C63.7 41.6392 63.6 41.6392 63.5 41.6392C63.4 41.6392 63.4 41.5392 63.4 41.5392C63.4 41.4392 63.5 41.3392 63.6 41.3392C63.7 41.2392 63.8 41.2392 63.9 41.1392C64.2 40.9392 64.3 41.2392 64.1 41.3392Z" fill="#6B5DFF"/>
<path fill-rule="evenodd" clip-rule="evenodd" d="M59.9 43.5392C60.7 43.7392 61.5 44.0392 62.3 44.2392C63.2 44.3392 64 44.4392 64.9 44.5392C65 44.5392 65 44.7392 64.9 44.8392C63.3 45.0392 60.8 45.2392 59.7 43.7392C59.7 43.5392 59.8 43.4392 59.9 43.5392Z" fill="#6B5DFF"/>
<path fill-rule="evenodd" clip-rule="evenodd" d="M60.9 45.0392C61.4 45.2392 61.9 45.3392 62.4 45.4392C62.9 45.5392 63.5 45.6392 63.9 45.8392C64 45.9392 64 46.1392 63.9 46.2392C62.8 46.4392 61.6 45.9392 60.8 45.2392C60.7 45.1392 60.8 44.9392 60.9 45.0392Z" fill="#6B5DFF"/>
<path fill-rule="evenodd" clip-rule="evenodd" d="M62.9 47.3392C63.2 47.4392 63.6 47.5392 64 47.6392V47.7392C63.6 47.8392 63.2 47.7392 62.9 47.6392C62.6 47.6392 62.7 47.2392 62.9 47.3392Z" fill="#6B5DFF"/>
<path fill-rule="evenodd" clip-rule="evenodd" d="M64.5 48.5392C64.9 48.6392 65.2 48.7392 65.5 48.9392C65.6 48.9392 65.5 49.1392 65.5 49.1392C65.1 49.1392 64.8 49.0392 64.4 48.9392C64.2 48.8392 64.3 48.4392 64.5 48.5392Z" fill="#6B5DFF"/>
<path fill-rule="evenodd" clip-rule="evenodd" d="M69.6 44.9392C69.6 45.3392 69.6 45.6392 69.6 46.0392C69.6 46.3392 69.6 46.7392 69.4 46.9392C69.3 47.0392 69.2 47.0392 69.2 46.9392C69.1 46.6392 69.2 46.4392 69.2 46.1392C69.3 45.7392 69.3 45.3392 69.4 44.9392C69.3 44.7392 69.6 44.7392 69.6 44.9392Z" fill="#6B5DFF"/>
<path fill-rule="evenodd" clip-rule="evenodd" d="M68.8 45.3392C68.8 45.7392 68.8 46.4392 68.4 46.5392C68.3 46.5392 68.3 46.5392 68.2 46.4392C68.1 46.2392 68.2 46.1392 68.3 45.9392C68.4 45.7392 68.4 45.5392 68.4 45.3392C68.5 45.0392 68.8 45.0392 68.8 45.3392Z" fill="#6B5DFF"/>
<path fill-rule="evenodd" clip-rule="evenodd" d="M67.8 45.4392C67.9 45.6392 67.8 46.0392 67.6 46.0392C67.6 46.0392 67.5 46.0392 67.5 45.9392C67.5 45.7392 67.6 45.6392 67.6 45.4392C67.5 45.3392 67.8 45.2392 67.8 45.4392Z" fill="#6B5DFF"/>
<path fill-rule="evenodd" clip-rule="evenodd" d="M66.8 45.2392C66.8 45.4392 66.8 45.6392 66.7 45.7392H66.6C66.5 45.6392 66.5 45.4392 66.5 45.2392C66.4 44.9392 66.8 44.9392 66.8 45.2392Z" fill="#6B5DFF"/>
<path fill-rule="evenodd" clip-rule="evenodd" d="M42.5 9.23918C45.8 8.33918 46.4 11.5392 45 13.8392C45 13.8392 48 14.7392 48 12.0392C47.9 9.33918 47.4 5.43919 48.5 5.43919C52.5 5.43919 59.1 15.1392 66.6 17.0392C70.2 17.9392 75.4 16.8392 75.5 14.4392C75.6 12.0392 73.3 12.1392 72.8 12.5392C72.3 12.9392 72.7 13.1392 73.2 14.2392C73.7 15.3392 70.8 15.9392 70.7 13.9392C70.6 11.9392 71.8 9.83919 74.6 10.6392C77.4 11.4392 79.1 16.0392 73.8 18.8392C67.3 22.2392 58 18.8392 50 18.3392C45.6 18.0392 44.4 18.3392 44.2 19.3392C44 20.3392 43.5 21.2392 44.5 21.7392C45.5 22.2392 45.6 20.8392 46.1 21.1392C46.6 21.4392 44.7 23.3392 44.2 25.2392C43.7 27.0392 45.7 27.7392 44.8 28.0392C43.9 28.3392 43.6 28.5392 43.6 29.6392C43.6 32.6392 43.8 65.7392 47.5 66.2392C48.1 66.3392 51.8 66.4392 53 66.5392C54.2 66.6392 54.9 68.1392 54.9 68.1392C54.9 68.1392 57.8 68.9392 58.5 70.3392C59.2 71.7392 57 73.9392 52.6 74.3392C48.2 74.7392 42.3 74.8392 42.3 74.8392L42.5 9.23918Z" fill="#F0F2FB"/>
<path fill-rule="evenodd" clip-rule="evenodd" d="M42.5 8.93919C43.3 8.73919 43.9 8.73919 44.4 8.93919C45 9.13919 45.4 9.43919 45.7 9.93919C46 10.4392 46.1 10.9392 46.1 11.5392C46.1 12.2392 45.9 12.9392 45.6 13.6392C46.3 13.7392 47.7 13.7392 47.7 12.0392C47.7 11.4392 47.6 10.7392 47.6 10.0392C47.5 9.13918 47.5 8.33919 47.5 7.63919C47.5 6.23919 47.7 5.13919 48.6 5.13919C50.6 5.13919 53.1 7.33919 56 9.83919C59.2 12.6392 62.9 15.7392 66.8 16.8392C67.5 17.0392 68.4 17.1392 69.2 17.1392C70.6 17.1392 72 16.9392 73.2 16.5392C74.3 16.1392 75 15.5392 75.2 14.8392C75.2 14.7392 75.2 14.6392 75.2 14.5392C75.2 13.9392 75.1 13.5392 74.9 13.3392C74.8 13.1392 74.6 13.0392 74.4 12.9392C74.2 12.8392 74 12.8392 73.8 12.8392C73.5 12.8392 73.2 12.9392 73.1 12.9392C73 13.0392 73.1 13.1392 73.2 13.4392C73.3 13.6392 73.5 13.9392 73.6 14.2392C73.8 14.6392 73.6 15.0392 73.3 15.3392C73.1 15.5392 72.8 15.6392 72.5 15.7392C72.2 15.8392 71.9 15.7392 71.6 15.6392C71 15.4392 70.5 14.9392 70.5 14.1392C70.5 13.6392 70.5 13.1392 70.7 12.6392C70.9 12.0392 71.2 11.4392 71.6 11.0392C72.1 10.6392 72.7 10.3392 73.4 10.3392C73.8 10.3392 74.3 10.3392 74.8 10.5392C75.5 10.7392 76.2 11.2392 76.7 11.8392C77.2 12.4392 77.6 13.2392 77.7 14.1392C77.8 15.0392 77.6 15.9392 77.1 16.8392C76.5 17.7392 75.6 18.7392 74.1 19.4392C69.5 21.8392 63.5 20.8392 57.6 19.9392C55.1 19.5392 52.6 19.1392 50.2 19.0392C48 18.9392 46.7 18.9392 45.8 19.0392C45.1 19.1392 44.8 19.4392 44.7 19.7392C44.7 19.9392 44.6 20.1392 44.6 20.3392C44.4 20.9392 44.3 21.4392 44.9 21.7392C45.2 21.9392 45.4 21.6392 45.6 21.5392C45.9 21.2392 46.1 20.9392 46.6 21.2392C47.2 21.6392 46.7 22.3392 46.1 23.2392C45.7 23.9392 45.1 24.8392 44.9 25.6392C44.7 26.5392 45.1 27.1392 45.4 27.5392C45.5 27.7392 45.6 27.8392 45.7 28.0392C45.8 28.3392 45.7 28.6392 45.3 28.8392C44.9 28.9392 44.6 29.0392 44.5 29.2392C44.4 29.4392 44.3 29.6392 44.3 30.0392C44.3 31.9392 46.8 66.1392 47.9 66.3392C48.3 66.4392 49.6 66.4392 50.9 66.5392C51.9 66.5392 52.8 66.6392 53.3 66.6392C54.4 66.7392 55.2 67.8392 55.4 68.2392C56 68.4392 58.4 69.2392 59.1 70.6392C59.2 70.8392 59.2 71.0392 59.3 71.2392C59.3 71.7392 59.1 72.2392 58.7 72.8392C58.3 73.3392 57.7 73.7392 56.9 74.1392C55.9 74.6392 54.5 75.0392 52.9 75.1392C48.5 75.5392 42.6 75.6392 42.6 75.6392C42.4 75.6392 42.2 75.5392 42.2 75.3392L42.4 9.53918C42.2 9.13918 42.3 8.93919 42.5 8.93919ZM44.2 9.53918C43.8 9.43918 43.4 9.43918 42.9 9.53918L42.7 74.6392C44 74.6392 48.8 74.4392 52.6 74.1392C54.2 74.0392 55.4 73.6392 56.4 73.1392C57.1 72.8392 57.6 72.4392 57.9 72.0392C58.2 71.6392 58.3 71.3392 58.3 70.9392C58.3 70.8392 58.3 70.7392 58.2 70.6392C57.6 69.3392 54.8 68.5392 54.8 68.5392C54.7 68.5392 54.6 68.4392 54.6 68.3392C54.6 68.3392 53.9 67.0392 53 66.9392C52.5 66.9392 51.6 66.8392 50.6 66.8392C49.3 66.7392 47.9 66.7392 47.5 66.6392C46 66.4392 45 50.5392 44.4 46.9392C43.3 40.6392 43.3 31.6392 43.3 29.6392C43.3 29.0392 43.4 28.6392 43.7 28.3392C43.9 28.0392 44.3 27.9392 44.7 27.7392C44.7 27.6392 44.6 27.6392 44.6 27.5392C44.2 27.0392 43.7 26.2392 44 25.0392C44.3 24.1392 44.8 23.1392 45.3 22.4392C45.5 22.0392 45.7 21.7392 45.9 21.5392C45.6 21.9392 45.2 22.3392 44.4 21.9392C43.3 21.4392 43.5 20.6392 43.8 19.7392C43.8 19.5392 43.9 19.3392 43.9 19.1392C44 18.4392 44.5 18.0392 45.5 17.8392C46.4 17.6392 47.8 17.6392 50.1 17.8392C52.5 17.9392 55 18.3392 57.6 18.7392C63.4 19.6392 69.3 20.6392 73.7 18.3392C75.1 17.6392 75.9 16.8392 76.4 15.9392C76.9 15.1392 77 14.4392 76.9 13.7392C76.8 13.0392 76.5 12.3392 76.1 11.8392C75.7 11.3392 75.1 10.9392 74.5 10.8392C74.1 10.7392 73.7 10.6392 73.3 10.6392C72.7 10.6392 72.3 10.8392 71.9 11.2392C71.5 11.5392 71.3 12.0392 71.2 12.5392C71.1 12.9392 71 13.3392 71.1 13.8392C71.1 14.3392 71.4 14.6392 71.7 14.7392C71.9 14.8392 72.1 14.8392 72.3 14.7392C72.5 14.7392 72.7 14.6392 72.8 14.5392C72.9 14.4392 72.9 14.3392 72.9 14.2392C72.8 13.9392 72.6 13.6392 72.5 13.4392C72.1 12.8392 72 12.5392 72.6 12.0392C72.8 11.8392 73.2 11.7392 73.7 11.7392C74 11.7392 74.3 11.8392 74.6 11.9392C74.9 12.0392 75.2 12.2392 75.4 12.5392C75.7 12.9392 75.9 13.4392 75.9 14.2392C75.9 14.4392 75.9 14.5392 75.8 14.7392C75.6 15.6392 74.6 16.4392 73.4 16.8392C72.2 17.2392 70.7 17.5392 69.2 17.4392C68.3 17.4392 67.4 17.3392 66.7 17.1392C62.7 16.0392 58.9 12.8392 55.6 10.0392C52.8 7.63918 50.4 5.53918 48.6 5.53918C48.3 5.53918 48.2 6.33919 48.2 7.33919C48.2 8.03919 48.3 8.93918 48.3 9.73918C48.3 10.4392 48.4 11.1392 48.4 11.7392C48.5 14.9392 45 13.9392 45 13.9392H44.9C44.7 13.8392 44.7 13.6392 44.8 13.4392C45.2 12.7392 45.4 12.0392 45.4 11.3392C45.4 10.8392 45.3 10.4392 45.1 10.0392C44.9 9.93918 44.6 9.63918 44.2 9.53918Z" fill="#6B5DFF"/>
<path fill-rule="evenodd" clip-rule="evenodd" d="M70.5 43.7392C78 43.7392 84.1 42.6392 84.1 41.1392C84.1 39.7392 78 38.5392 70.5 38.5392C63 38.5392 56.9 39.6392 56.9 41.1392C56.9 42.6392 63 43.7392 70.5 43.7392Z" fill="#F0F2FB"/>
<path fill-rule="evenodd" clip-rule="evenodd" d="M70.5 43.4392C74.2 43.4392 77.6 43.1392 80.1 42.7392C82.4 42.3392 83.8 41.7392 83.8 41.2392C83.8 40.7392 82.4 40.2392 80.1 39.7392C77.7 39.2392 74.3 39.0392 70.5 39.0392C66.8 39.0392 63.4 39.3392 60.9 39.7392C58.6 40.1392 57.2 40.7392 57.2 41.2392C57.2 41.7392 58.6 42.2392 60.9 42.7392C63.4 43.1392 66.8 43.4392 70.5 43.4392ZM80.2 43.3392C77.7 43.8392 74.3 44.1392 70.5 44.1392C66.7 44.1392 63.3 43.8392 60.8 43.3392C58.2 42.8392 56.5 42.0392 56.5 41.2392C56.5 40.3392 58.1 39.5392 60.8 39.1392C63.3 38.6392 66.7 38.3392 70.5 38.3392C74.3 38.3392 77.7 38.6392 80.2 39.1392C82.8 39.6392 84.5 40.3392 84.5 41.2392C84.5 42.1392 82.9 42.8392 80.2 43.3392Z" fill="#6B5DFF"/>
<path fill-rule="evenodd" clip-rule="evenodd" d="M70.5 42.6392C77.6 42.6392 83.3 41.7392 83.3 40.6392C83.3 39.5392 77.5 38.6392 70.5 38.6392C63.4 38.6392 57.7 39.5392 57.7 40.6392C57.7 41.7392 63.4 42.6392 70.5 42.6392Z" fill="#F0F2FB"/>
<path fill-rule="evenodd" clip-rule="evenodd" d="M70.5 42.3392C74 42.3392 77.2 42.1392 79.5 41.7392C81.6 41.4392 83 41.0392 83 40.6392C83 40.2392 81.7 39.9392 79.5 39.5392C77.2 39.1392 74 38.9392 70.5 38.9392C67 38.9392 63.8 39.1392 61.5 39.5392C59.4 39.8392 58 40.2392 58 40.6392C58 41.0392 59.3 41.3392 61.5 41.7392C63.8 42.1392 67 42.3392 70.5 42.3392ZM79.6 42.4392C77.3 42.8392 74 43.0392 70.5 43.0392C67 43.0392 63.7 42.8392 61.4 42.4392C58.9 42.0392 57.3 41.4392 57.3 40.6392C57.3 39.8392 58.9 39.2392 61.4 38.8392C63.7 38.4392 67 38.2392 70.5 38.2392C74 38.2392 77.3 38.4392 79.6 38.8392C82.1 39.2392 83.7 39.8392 83.7 40.6392C83.7 41.4392 82.1 42.0392 79.6 42.4392Z" fill="#6B5DFF"/>
<path fill-rule="evenodd" clip-rule="evenodd" d="M76.9 40.0392C77.6 40.1392 78.2 40.2392 78.9 40.3392C79.6 40.4392 80.2 40.9392 80.9 41.0392C81 41.0392 81 40.9392 81 40.8392C80.6 40.3392 79.9 40.3392 79.3 40.1392C78.5 40.0392 77.7 39.9392 76.9 40.0392Z" fill="#6B5DFF"/>
<path fill-rule="evenodd" clip-rule="evenodd" d="M77.3 41.0392C77.5 41.1392 77.8 41.2392 78.1 41.2392C78.4 41.3392 78.7 41.4392 79 41.4392C79.1 41.4392 79.2 41.3392 79.1 41.2392C78.9 41.0392 78.7 40.9392 78.4 40.9392C78.1 40.8392 77.7 40.8392 77.4 40.8392C77.3 40.8392 77.2 40.9392 77.3 41.0392Z" fill="#6B5DFF"/>
<path fill-rule="evenodd" clip-rule="evenodd" d="M76.7 41.3392C76.8 41.4392 76.9 41.4392 77 41.5392C77.1 41.6392 77.2 41.6392 77.3 41.6392C77.4 41.6392 77.4 41.5392 77.4 41.5392C77.4 41.4392 77.3 41.3392 77.2 41.3392C77.1 41.2392 77 41.2392 76.9 41.1392C76.7 40.9392 76.6 41.2392 76.7 41.3392Z" fill="#6B5DFF"/>
<path fill-rule="evenodd" clip-rule="evenodd" d="M66.4 40.2392C64.7 39.7392 62.4 40.0392 60.8 40.7392C60.7 40.8392 60.7 41.0392 60.8 41.0392C61.6 41.0392 62.4 40.7392 63.2 40.5392C64.2 40.3392 65.3 40.3392 66.4 40.2392C66.4 40.3392 66.4 40.3392 66.4 40.2392Z" fill="#6B5DFF"/>
<path fill-rule="evenodd" clip-rule="evenodd" d="M65 40.6392C64.5 40.6392 64 40.7392 63.6 40.7392C63.1 40.8392 62.6 40.8392 62.2 41.1392C62.1 41.2392 62.1 41.3392 62.3 41.3392C63.2 41.2392 64.1 41.0392 65 40.9392C65.2 40.9392 65.2 40.6392 65 40.6392Z" fill="#6B5DFF"/>
<path fill-rule="evenodd" clip-rule="evenodd" d="M65.6 41.1392C65.3 41.2392 64.9 41.2392 64.6 41.3392C64.3 41.4392 63.9 41.4392 63.6 41.6392C63.5 41.7392 63.5 41.8392 63.6 41.8392C63.9 42.0392 64.3 41.8392 64.6 41.7392C65 41.6392 65.3 41.5392 65.7 41.5392C66 41.5392 65.9 41.1392 65.6 41.1392Z" fill="#6B5DFF"/>
<path fill-rule="evenodd" clip-rule="evenodd" d="M81 43.5392C80.2 43.7392 79.4 44.0392 78.6 44.2392C77.7 44.3392 76.9 44.4392 76 44.5392C75.9 44.5392 75.9 44.7392 76 44.8392C77.6 45.0392 80.1 45.2392 81.2 43.7392C81.2 43.5392 81.1 43.4392 81 43.5392Z" fill="#6B5DFF"/>
<path fill-rule="evenodd" clip-rule="evenodd" d="M80 45.0392C79.5 45.2392 79 45.3392 78.5 45.4392C78 45.5392 77.4 45.6392 77 45.8392C76.9 45.9392 76.9 46.1392 77 46.2392C78.1 46.4392 79.3 45.9392 80.1 45.2392C80.2 45.1392 80.1 44.9392 80 45.0392Z" fill="#6B5DFF"/>
<path fill-rule="evenodd" clip-rule="evenodd" d="M78 47.3392C77.6 47.4392 77.3 47.5392 76.9 47.6392V47.7392C77.3 47.8392 77.7 47.7392 78 47.6392C78.3 47.6392 78.2 47.2392 78 47.3392Z" fill="#6B5DFF"/>
<path fill-rule="evenodd" clip-rule="evenodd" d="M76.3 48.5392C75.9 48.6392 75.6 48.7392 75.3 48.9392C75.2 48.9392 75.3 49.1392 75.3 49.1392C75.7 49.1392 76 49.0392 76.4 48.9392C76.7 48.8392 76.6 48.4392 76.3 48.5392Z" fill="#6B5DFF"/>
<path fill-rule="evenodd" clip-rule="evenodd" d="M48.1 68.3392C49.3 68.5392 50.4 68.6392 51.6 68.6392C52.2 68.6392 52.8 68.6392 53.3 68.6392C54 68.6392 54.7 68.8392 55.5 68.7392C55.7 68.7392 55.8 68.4392 55.6 68.3392C54.7 67.8392 53.5 68.0392 52.5 68.0392C51.1 68.1392 49.6 68.4392 48.1 68.3392Z" fill="#6B5DFF"/>
<path fill-rule="evenodd" clip-rule="evenodd" d="M46.3 68.2392C46 68.3392 45.3 68.4392 45.4 68.8392C45.5 69.0392 45.7 68.9392 45.8 68.9392C46 68.8392 46.2 68.6392 46.4 68.5392C46.6 68.4392 46.5 68.2392 46.3 68.2392Z" fill="#6B5DFF"/>
<path fill-rule="evenodd" clip-rule="evenodd" d="M44.9 68.2392C44.7 68.3392 44.5 68.4392 44.3 68.5392C44.2 68.6392 44.3 68.8392 44.4 68.8392C44.6 68.8392 44.8 68.6392 44.9 68.6392C45.3 68.5392 45.2 68.1392 44.9 68.2392Z" fill="#6B5DFF"/>
<path fill-rule="evenodd" clip-rule="evenodd" d="M43.8 68.2392C43.5 68.2392 43.2 68.2392 43 68.4392V68.5392C43.2 68.7392 43.5 68.6392 43.8 68.5392C44 68.5392 44 68.2392 43.8 68.2392Z" fill="#6B5DFF"/>
<path fill-rule="evenodd" clip-rule="evenodd" d="M44.6 64.7392C44.7 64.7392 44.7 64.7392 44.6 64.7392C44.6 64.6392 44.6 64.6392 44.6 64.7392C44.5 64.7392 44.5 64.6392 44.6 64.7392Z" fill="#6B5DFF"/>
<path fill-rule="evenodd" clip-rule="evenodd" d="M44.8 64.5392C44.8 64.9392 44.9 65.2392 45.1 65.5392C45.2 65.8392 45.5 66.2392 45.8 66.4392C45.9 66.4392 46 66.4392 46 66.3392C46 66.0392 45.8 65.8392 45.6 65.5392C45.4 65.2392 45.2 64.8392 45.1 64.4392C45 64.3392 44.8 64.3392 44.8 64.5392Z" fill="#6B5DFF"/>
<path fill-rule="evenodd" clip-rule="evenodd" d="M44.3 65.6392C44.3 65.7392 44.4 65.8392 44.4 65.9392H44.5C44.5 65.8392 44.5 65.7392 44.5 65.6392C44.4 65.5392 44.3 65.5392 44.3 65.6392Z" fill="#6B5DFF"/>
<path fill-rule="evenodd" clip-rule="evenodd" d="M43.5 65.6392C43.5 65.7392 43.5 65.8392 43.5 65.9392C43.5 66.0392 43.7 66.0392 43.8 65.9392C43.8 65.8392 43.8 65.7392 43.8 65.6392C43.9 65.4392 43.5 65.4392 43.5 65.6392Z" fill="#6B5DFF"/>
<path fill-rule="evenodd" clip-rule="evenodd" d="M57.4 70.7392C57.4 71.0392 57.4 71.3392 57.3 71.6392C57.2 71.9392 57 72.1392 57 72.4392C57 72.5392 57.1 72.6392 57.2 72.6392C57.6 72.5392 57.7 72.2392 57.8 71.8392C57.9 71.4392 57.8 71.1392 57.7 70.7392C57.6 70.6392 57.4 70.6392 57.4 70.7392Z" fill="#6B5DFF"/>
<path fill-rule="evenodd" clip-rule="evenodd" d="M56.1 71.4392C56 71.7392 55.8 72.0392 55.7 72.3392C55.6 72.5392 55.4 72.7392 55.3 73.0392C55.3 73.1392 55.4 73.1392 55.4 73.1392C56.1 73.1392 56.3 72.0392 56.4 71.5392C56.5 71.3392 56.2 71.2392 56.1 71.4392Z" fill="#6B5DFF"/>
<path fill-rule="evenodd" clip-rule="evenodd" d="M54.7 72.3392C54.6 72.4392 54.5 72.5392 54.5 72.6392C54.4 72.7392 54.3 72.8392 54.3 73.0392C54.3 73.1392 54.4 73.2392 54.5 73.2392C54.6 73.2392 54.7 73.1392 54.8 72.9392C54.9 72.8392 55 72.6392 55.1 72.5392C55.2 72.4392 55.1 72.3392 55 72.2392C54.8 72.1392 54.7 72.2392 54.7 72.3392Z" fill="#6B5DFF"/>
<path fill-rule="evenodd" clip-rule="evenodd" d="M53.2 72.5392C53 72.7392 52.8 72.8392 52.6 73.0392C52.5 73.1392 52.2 73.4392 52.4 73.5392C52.6 73.7392 52.8 73.5392 53 73.3392C53.2 73.1392 53.4 72.9392 53.6 72.8392C53.7 72.7392 53.7 72.5392 53.6 72.4392C53.5 72.4392 53.3 72.4392 53.2 72.5392Z" fill="#6B5DFF"/>
<path fill-rule="evenodd" clip-rule="evenodd" d="M51.5 72.9392C51.3 73.1392 51.2 73.2392 51 73.4392C50.9 73.5392 50.7 73.8392 50.8 74.0392C51 74.2392 51.2 74.0392 51.4 73.8392C51.6 73.6392 51.7 73.5392 51.9 73.3392C52.1 73.0392 51.7 72.6392 51.5 72.9392Z" fill="#6B5DFF"/>
<path fill-rule="evenodd" clip-rule="evenodd" d="M49.9 72.9392C49.6 73.1392 49.3 73.2392 49 73.3392C48.8 73.4392 48.9 73.7392 49.1 73.7392C49.6 73.8392 49.9 73.5392 50.2 73.1392C50.3 73.0392 50 72.7392 49.9 72.9392Z" fill="#6B5DFF"/>
<path fill-rule="evenodd" clip-rule="evenodd" d="M47.8 73.0392C47.6 73.1392 47 73.4392 47.1 73.7392C47.2 73.9392 47.5 73.8392 47.6 73.7392C47.7 73.6392 47.9 73.5392 48.1 73.4392C48.3 73.3392 48.1 72.8392 47.8 73.0392Z" fill="#6B5DFF"/>
<path fill-rule="evenodd" clip-rule="evenodd" d="M46 73.2392C45.7 73.3392 45.4 73.3392 45.2 73.5392C45.1 73.6392 45.2 73.7392 45.3 73.7392C45.6 73.8392 46 73.7392 46.3 73.5392C46.4 73.4392 46.2 73.1392 46 73.2392Z" fill="#6B5DFF"/>
<path fill-rule="evenodd" clip-rule="evenodd" d="M43.9 22.8392C43.7 22.2392 43.8 21.5392 43.9 20.9392C44 20.5392 44.3 20.0392 44.2 19.6392C44.2 19.5392 44.1 19.5392 44 19.5392C43.5 19.8392 43.5 20.7392 43.4 21.2392C43.3 21.8392 43.4 22.4392 43.8 22.9392C43.8 22.9392 43.9 22.9392 43.9 22.8392Z" fill="#6B5DFF"/>
<path fill-rule="evenodd" clip-rule="evenodd" d="M45.5 15.4392C46.4 15.3392 47.2 15.0392 47.8 14.2392C48.3 13.5392 48.7 12.1392 48.2 11.4392C48.1 11.3392 48 11.3392 47.9 11.4392C47.8 11.7392 47.9 12.0392 47.9 12.3392C47.9 12.8392 47.8 13.2392 47.6 13.7392C47.2 14.5392 46.5 15.1392 45.6 15.2392C45.3 15.1392 45.3 15.4392 45.5 15.4392Z" fill="#6B5DFF"/>
<path fill-rule="evenodd" clip-rule="evenodd" d="M46.8 15.5392C46.6 15.5392 46.4 15.6392 46.2 15.7392C45.9 15.8392 45.6 15.8392 45.4 15.9392C45.1 16.0392 45.1 16.4392 45.4 16.4392C46 16.5392 46.6 16.2392 47 15.7392C47 15.6392 46.9 15.5392 46.8 15.5392Z" fill="#6B5DFF"/>
<path fill-rule="evenodd" clip-rule="evenodd" d="M46.4 16.7392C46.2 16.9392 45.8 16.9392 45.5 16.9392C45.2 17.0392 45.3 17.4392 45.6 17.4392C45.8 17.4392 46 17.4392 46.1 17.3392C46.3 17.2392 46.4 17.1392 46.5 16.9392C46.6 16.8392 46.5 16.6392 46.4 16.7392Z" fill="#6B5DFF"/>
<path fill-rule="evenodd" clip-rule="evenodd" d="M45.9 17.4392C45.8 17.4392 45.7 17.4392 45.5 17.4392C45.5 17.4392 45.4 17.5392 45.5 17.5392C45.6 17.6392 45.8 17.6392 45.9 17.6392C46 17.5392 46 17.4392 45.9 17.4392Z" fill="#6B5DFF"/>
<path fill-rule="evenodd" clip-rule="evenodd" d="M50.7 7.73918C52.3 8.53918 53.5 9.93918 54.6 11.2392C55.7 12.4392 57 13.4392 58.4 14.3392C61.3 16.0392 64.9 17.7392 68.4 17.6392C68.7 17.6392 68.7 17.1392 68.4 17.1392C64.7 16.9392 61.1 15.4392 58 13.4392C55.4 11.7392 53.7 8.83918 50.7 7.73918Z" fill="#6B5DFF"/>
<path fill-rule="evenodd" clip-rule="evenodd" d="M52.4 17.3392C54.2 17.7392 56.1 18.5392 57.8 19.2392C59.4 19.8392 61.1 20.5392 62.8 20.3392C62.9 20.3392 62.9 20.1392 62.8 20.1392C61.1 19.8392 59.5 19.4392 57.8 18.8392C56.1 18.1392 54.3 17.6392 52.4 17.3392C52.3 17.3392 52.3 17.2392 52.4 17.3392Z" fill="#6B5DFF"/>
<path fill-rule="evenodd" clip-rule="evenodd" d="M49.8 8.63919C50 8.93919 50.3 9.13919 50.6 9.33919C50.9 9.53919 51.2 9.73919 51.5 9.63919C51.6 9.63919 51.6 9.5392 51.6 9.4392C51.5 9.2392 51.2 9.13919 50.9 9.03919C50.6 8.83919 50.3 8.7392 50 8.4392C50 8.2392 49.7 8.43919 49.8 8.63919Z" fill="#6B5DFF"/>
<path fill-rule="evenodd" clip-rule="evenodd" d="M49.7 9.73918C49.9 10.0392 50.1 10.2392 50.4 10.4392C50.7 10.6392 51.1 10.8392 51.4 10.8392C51.5 10.8392 51.6 10.7392 51.5 10.6392C51.3 10.3392 51 10.2392 50.8 10.1392C50.5 9.93919 50.2 9.73919 49.9 9.53919C49.9 9.33919 49.6 9.53918 49.7 9.73918Z" fill="#6B5DFF"/>
<path fill-rule="evenodd" clip-rule="evenodd" d="M50.4 11.4392C50.7 11.6392 51.1 12.0392 51.5 12.0392C51.6 12.0392 51.6 11.9392 51.6 11.8392C51.5 11.7392 51.3 11.6392 51.2 11.5392C51 11.4392 50.9 11.3392 50.7 11.2392C50.5 11.0392 50.3 11.2392 50.4 11.4392Z" fill="#6B5DFF"/>
<path fill-rule="evenodd" clip-rule="evenodd" d="M50.9 12.5392C51.1 12.7392 51.4 12.9392 51.7 12.9392C51.8 12.9392 51.8 12.8392 51.8 12.7392C51.6 12.5392 51.3 12.4392 51.1 12.2392C50.9 12.1392 50.8 12.4392 50.9 12.5392Z" fill="#6B5DFF"/>
<path fill-rule="evenodd" clip-rule="evenodd" d="M51.4 13.6392C51.6 13.7392 51.7 13.9392 51.9 13.9392C52 13.9392 52 13.9392 52 13.8392C51.9 13.6392 51.7 13.5392 51.6 13.4392C51.4 13.3392 51.3 13.5392 51.4 13.6392Z" fill="#6B5DFF"/>
<path fill-rule="evenodd" clip-rule="evenodd" d="M51.4 14.6392C51.4 14.8392 51.5 14.9392 51.7 15.0392C51.8 15.1392 52.1 15.2392 52.2 15.0392C52.3 14.9392 52.3 14.9392 52.2 14.8392C52.2 14.8392 52.2 14.8392 52.2 14.7392H52.1C52 14.6392 51.9 14.6392 51.8 14.4392C51.7 14.2392 51.3 14.3392 51.4 14.6392Z" fill="#6B5DFF"/>
<path fill-rule="evenodd" clip-rule="evenodd" d="M48.8 13.7392C48.8 14.0392 48.5 14.3392 48.3 14.5392C48.1 14.7392 47.8 14.9392 47.8 15.2392C47.8 15.3392 47.8 15.3392 47.9 15.3392C48.3 15.4392 48.5 15.0392 48.7 14.8392C48.9 14.5392 49 14.1392 48.9 13.7392C49 13.6392 48.9 13.6392 48.8 13.7392Z" fill="#6B5DFF"/>
<path fill-rule="evenodd" clip-rule="evenodd" d="M49.2 15.0392C49.2 15.2392 49.1 15.4392 49 15.5392C48.9 15.7392 48.7 15.8392 48.5 15.9392C48.4 16.1392 48.5 16.3392 48.7 16.3392C49 16.3392 49.3 16.0392 49.4 15.8392C49.6 15.5392 49.5 15.2392 49.5 14.9392C49.5 14.7392 49.2 14.8392 49.2 15.0392Z" fill="#6B5DFF"/>
<path fill-rule="evenodd" clip-rule="evenodd" d="M49.8 16.0392C49.7 16.2392 49.7 16.5392 49.7 16.8392C49.7 17.0392 50 17.0392 50.1 16.8392C50.1 16.6392 50.1 16.4392 50.2 16.1392C50.3 15.9392 49.9 15.8392 49.8 16.0392Z" fill="#6B5DFF"/>
<path fill-rule="evenodd" clip-rule="evenodd" d="M50.6 17.1392C50.5 17.2392 50.3 17.6392 50.5 17.7392C50.7 17.8392 50.9 17.5392 51 17.3392C51 17.1392 50.7 16.9392 50.6 17.1392Z" fill="#6B5DFF"/>
<path fill-rule="evenodd" clip-rule="evenodd" d="M52.7 10.7392C52.7 11.2392 52.6 11.7392 52.5 12.1392C52.5 12.4392 52.4 12.8392 52.7 13.0392C52.7 13.0392 52.8 13.0392 52.9 13.0392C53.1 12.7392 53 12.4392 53 12.1392C53 11.6392 53 11.1392 52.9 10.7392C52.9 10.5392 52.7 10.5392 52.7 10.7392Z" fill="#6B5DFF"/>
<path fill-rule="evenodd" clip-rule="evenodd" d="M53.7 12.1392C53.7 12.4392 53.6 12.8392 53.6 13.1392C53.6 13.4392 53.6 13.6392 53.8 13.8392C53.9 13.9392 54 13.9392 54.1 13.8392C54.2 13.6392 54.2 13.3392 54.2 13.1392C54.2 12.8392 54.1 12.4392 54.1 12.1392C54 11.9392 53.7 11.9392 53.7 12.1392Z" fill="#6B5DFF"/>
<path fill-rule="evenodd" clip-rule="evenodd" d="M54.5 12.8392C54.4 13.2392 54.3 14.1392 54.8 14.3392C54.9 14.3392 54.9 14.3392 55 14.2392C55.1 14.0392 55 13.8392 54.9 13.6392C54.8 13.3392 54.8 13.1392 54.8 12.8392C54.8 12.7392 54.5 12.6392 54.5 12.8392Z" fill="#6B5DFF"/>
<path fill-rule="evenodd" clip-rule="evenodd" d="M55.5 13.7392C55.5 14.1392 55.7 14.8392 56.1 15.0392C56.2 15.0392 56.2 15.0392 56.2 14.9392C56.2 14.7392 56.1 14.6392 56 14.4392C55.9 14.2392 55.8 13.9392 55.7 13.7392C55.8 13.5392 55.5 13.5392 55.5 13.7392Z" fill="#6B5DFF"/>
<path fill-rule="evenodd" clip-rule="evenodd" d="M56.6 14.4392C56.7 14.7392 56.8 15.1392 57.1 15.2392C57.1 15.2392 57.2 15.2392 57.2 15.1392C57.2 15.0392 57.2 14.8392 57.1 14.7392C57 14.6392 57 14.4392 56.9 14.3392C56.9 14.1392 56.5 14.2392 56.6 14.4392Z" fill="#6B5DFF"/>
<path fill-rule="evenodd" clip-rule="evenodd" d="M57.5 15.0392C57.5 15.2392 57.5 15.4392 57.7 15.4392C57.8 15.4392 57.8 15.4392 57.8 15.3392C57.8 15.2392 57.7 15.1392 57.7 15.0392C57.7 14.8392 57.5 14.8392 57.5 15.0392Z" fill="#6B5DFF"/>
<path fill-rule="evenodd" clip-rule="evenodd" d="M60.3 18.2392C62.2 18.5392 64.1 19.3392 66 19.6392C67.3 19.8392 68.6 19.9392 69.9 19.8392C71.2 19.8392 74.5 19.7392 74.5 17.9392H74.4C74.8 18.0392 73.7 18.6392 73.5 18.7392C73.1 18.9392 72.7 19.0392 72.2 19.1392C71.2 19.3392 70.1 19.4392 69 19.4392C67.8 19.4392 66.6 19.4392 65.5 19.3392C63.7 19.2392 62 18.3392 60.2 18.1392C60.3 18.1392 60.3 18.2392 60.3 18.2392Z" fill="#6B5DFF"/>
<path fill-rule="evenodd" clip-rule="evenodd" d="M73.3 17.9392C73.2 18.0392 73 18.1392 72.8 18.2392C72.7 18.3392 72.5 18.3392 72.4 18.5392C72.4 18.6392 72.4 18.7392 72.5 18.7392C72.7 18.8392 72.8 18.7392 73 18.6392C73.2 18.5392 73.3 18.4392 73.5 18.3392C73.6 18.1392 73.5 17.8392 73.3 17.9392Z" fill="#6B5DFF"/>
<path fill-rule="evenodd" clip-rule="evenodd" d="M71.8 18.1392C71.6 18.2392 71.2 18.4392 71.1 18.7392C71.1 18.7392 71.1 18.8392 71.2 18.8392C71.3 18.8392 71.5 18.8392 71.6 18.7392C71.7 18.6392 71.9 18.5392 72 18.5392C72.2 18.3392 72 18.0392 71.8 18.1392Z" fill="#6B5DFF"/>
<path fill-rule="evenodd" clip-rule="evenodd" d="M69.8 18.3392C69.7 18.4392 69.5 18.4392 69.5 18.6392V18.7392C69.7 18.7392 69.8 18.6392 69.9 18.6392C70.1 18.5392 69.9 18.2392 69.8 18.3392Z" fill="#6B5DFF"/>
<path fill-rule="evenodd" clip-rule="evenodd" d="M68.1 18.4392C67.9 18.5392 67.6 18.5392 67.5 18.7392C67.4 18.8392 67.5 18.9392 67.5 18.9392C67.7 18.9392 68 18.8392 68.2 18.8392C68.4 18.6392 68.3 18.3392 68.1 18.4392Z" fill="#6B5DFF"/>
<path fill-rule="evenodd" clip-rule="evenodd" d="M71.6 13.8392C71.6 13.5392 71.8 13.3392 72.1 13.2392C72.2 13.2392 72.4 13.2392 72.5 13.3392C72.7 13.4392 72.8 13.5392 72.9 13.5392C73 13.5392 73.1 13.4392 73.1 13.3392C73.1 12.8392 72.3 12.8392 71.9 12.9392C71.7 13.0392 71.6 13.1392 71.5 13.3392C71.4 13.4392 71.5 13.6392 71.6 13.8392Z" fill="#6B5DFF"/>
<path fill-rule="evenodd" clip-rule="evenodd" d="M71.8 12.4392C71.9 12.4392 71.9 12.2392 71.8 12.2392C71.7 12.2392 71.7 12.4392 71.8 12.4392Z" fill="#6B5DFF"/>
<path fill-rule="evenodd" clip-rule="evenodd" d="M71.8 12.4392C72 12.4392 72.3 12.4392 72.5 12.5392C72.7 12.6392 72.8 12.2392 72.6 12.1392C72.3 12.0392 72 12.0392 71.8 12.2392C71.7 12.3392 71.7 12.4392 71.8 12.4392Z" fill="#6B5DFF"/>
<path fill-rule="evenodd" clip-rule="evenodd" d="M72.8 12.0392C72.9 12.0392 72.9 12.1392 73 12.0392V11.9392C73 11.8392 72.9 11.8392 72.8 11.8392C72.7 11.7392 72.7 12.0392 72.8 12.0392Z" fill="#6B5DFF"/>
<path fill-rule="evenodd" clip-rule="evenodd" d="M73.6 11.8392C73.7 11.9392 73.7 12.0392 73.9 12.1392C73.9 12.1392 74 12.1392 74.1 12.1392V12.0392C74.1 11.9392 74 11.9392 74 11.9392C74 11.9392 73.9 11.8392 73.9 11.7392C73.8 11.4392 73.5 11.6392 73.6 11.8392Z" fill="#6B5DFF"/>
<path fill-rule="evenodd" clip-rule="evenodd" d="M74.9 11.9392C74.9 12.0392 74.9 12.1392 75 12.1392C75 12.2392 75.1 12.3392 75.2 12.3392C75.3 12.4392 75.4 12.3392 75.4 12.2392C75.4 12.1392 75.4 12.1392 75.4 12.0392C75.4 11.9392 75.4 11.9392 75.4 11.8392C75.3 11.7392 74.9 11.7392 74.9 11.9392Z" fill="#6B5DFF"/>
<path fill-rule="evenodd" clip-rule="evenodd" d="M74.7 16.9392C75.3 16.3392 75.8 15.7392 75.9 14.9392C76 14.2392 75.9 13.3392 75.1 13.0392C75 13.0392 74.9 13.1392 75 13.2392C75.1 13.4392 75.3 13.6392 75.4 13.8392C75.6 14.2392 75.6 14.6392 75.5 15.0392C75.5 15.6392 75.2 16.5392 74.7 16.9392Z" fill="#6B5DFF"/>
<path fill-rule="evenodd" clip-rule="evenodd" d="M59.1 15.8392C59 16.0392 59 16.1392 59.1 16.2392C59.2 16.4392 59.3 16.5392 59.5 16.5392C59.6 16.5392 59.6 16.4392 59.6 16.3392C59.6 16.2392 59.5 16.1392 59.5 16.0392C59.4 15.9392 59.4 15.8392 59.3 15.7392C59.3 15.6392 59.1 15.7392 59.1 15.8392Z" fill="#6B5DFF"/>
<path fill-rule="evenodd" clip-rule="evenodd" d="M59.7 16.0392C59.7 16.2392 59.8 16.4392 60 16.6392C60.1 16.7392 60.3 16.6392 60.2 16.4392C60.1 16.3392 60 16.2392 60 16.0392C60 15.8392 59.7 15.8392 59.7 16.0392Z" fill="#6B5DFF"/>
<path fill-rule="evenodd" clip-rule="evenodd" d="M60.4 16.5392C60.4 16.6392 60.5 16.7392 60.6 16.8392C60.7 16.9392 60.9 16.9392 61 16.9392C61 16.9392 61.1 16.8392 61 16.8392C61 16.6392 60.8 16.6392 60.7 16.4392C60.7 16.2392 60.3 16.3392 60.4 16.5392Z" fill="#6B5DFF"/>
<path fill-rule="evenodd" clip-rule="evenodd" d="M61.3 16.8392C61.4 16.9392 61.4 17.0392 61.5 17.0392C61.6 17.0392 61.6 17.0392 61.6 16.9392C61.6 16.8392 61.5 16.7392 61.4 16.6392C61.4 16.6392 61.2 16.7392 61.3 16.8392Z" fill="#6B5DFF"/>
<path fill-rule="evenodd" clip-rule="evenodd" d="M59.4 17.5392C59.3 17.6392 59.2 17.6392 59.1 17.7392C59 17.7392 59 17.8392 58.9 17.8392C58.8 17.8392 58.8 17.9392 58.8 18.0392C58.7 18.1392 58.8 18.2392 58.9 18.2392C59 18.2392 59 18.2392 59.1 18.2392C59.2 18.2392 59.2 18.1392 59.3 18.1392C59.4 18.0392 59.5 17.9392 59.6 17.8392C59.7 17.6392 59.5 17.4392 59.4 17.5392Z" fill="#6B5DFF"/>
<path fill-rule="evenodd" clip-rule="evenodd" d="M58.4 17.4392C58.2 17.5392 58.1 17.5392 58 17.7392C58 17.8392 58 17.9392 58.1 17.9392C58.3 17.9392 58.5 17.8392 58.6 17.8392C58.9 17.7392 58.7 17.3392 58.4 17.4392Z" fill="#6B5DFF"/>
<path fill-rule="evenodd" clip-rule="evenodd" d="M57.7 17.3392C57.5 17.4392 57.2 17.4392 57 17.6392V17.7392C57.1 17.8392 57.2 17.7392 57.3 17.7392C57.4 17.7392 57.6 17.6392 57.7 17.6392C58 17.5392 57.9 17.2392 57.7 17.3392Z" fill="#6B5DFF"/>
<path fill-rule="evenodd" clip-rule="evenodd" d="M56.7 17.0392C56.6 17.0392 56.5 17.1392 56.4 17.1392C56.3 17.1392 56.2 17.1392 56.1 17.2392C56 17.3392 56 17.4392 56.1 17.4392C56.3 17.5392 56.6 17.4392 56.8 17.4392C57.1 17.3392 57 16.9392 56.7 17.0392Z" fill="#6B5DFF"/>
<path fill-rule="evenodd" clip-rule="evenodd" d="M55.3 16.7392C55.1 16.7392 55 16.7392 54.8 16.8392C54.7 16.8392 54.7 16.9392 54.8 17.0392C54.9 17.1392 55.1 17.1392 55.3 17.1392C55.5 17.1392 55.5 16.7392 55.3 16.7392Z" fill="#6B5DFF"/>
<path fill-rule="evenodd" clip-rule="evenodd" d="M43.5 10.1392C43.6 10.1392 43.7 10.2392 43.8 10.2392C43.9 10.2392 44 10.2392 44.1 10.3392C44.3 10.4392 44.5 10.6392 44.7 10.6392C44.8 10.6392 44.8 10.6392 44.8 10.5392C44.8 10.2392 44.6 10.1392 44.3 10.0392C44.2 9.93919 44 9.93919 43.8 9.93919C43.7 9.83919 43.6 9.93919 43.5 10.1392C43.4 10.1392 43.4 10.0392 43.5 10.1392Z" fill="#6B5DFF"/>
<path fill-rule="evenodd" clip-rule="evenodd" d="M44 10.9392C44.1 10.9392 44.2 10.9392 44.3 11.0392C44.4 11.1392 44.4 11.2392 44.6 11.2392H44.7C44.8 11.1392 44.6 10.9392 44.5 10.8392C44.4 10.7392 44.2 10.7392 44.1 10.7392C43.9 10.8392 43.9 10.9392 44 10.9392Z" fill="#6B5DFF"/>
<path fill-rule="evenodd" clip-rule="evenodd" d="M44 11.9392C44.1 11.9392 44.1 12.0392 44.2 12.0392C44.2 12.0392 44.3 12.0392 44.3 12.1392H44.4C44.4 12.1392 44.5 12.1392 44.5 12.0392C44.5 11.9392 44.4 11.9392 44.4 11.8392C44.3 11.8392 44.2 11.7392 44.1 11.7392C44 11.7392 43.9 11.8392 44 11.9392Z" fill="#6B5DFF"/>
<path fill-rule="evenodd" clip-rule="evenodd" d="M43.9 12.4392C43.9 12.5392 44.1 12.6392 44.2 12.5392L44.3 12.4392C44.3 12.4392 44.3 12.4392 44.3 12.3392C44.2 12.3392 44.3 12.3392 44.3 12.4392C44.2 12.2392 43.8 12.2392 43.9 12.4392Z" fill="#6B5DFF"/>
<path fill-rule="evenodd" clip-rule="evenodd" d="M50.6 14.8392C50.3 13.7392 49.7 12.7392 49.2 11.7392C48.6 10.5392 48.2 9.33919 47.8 8.03919C47.8 7.93919 47.6 7.93919 47.6 8.03919C47.5 9.13919 48 10.2392 48.5 11.1392C49.2 12.3392 49.6 14.0392 50.6 14.8392C50.6 14.9392 50.6 14.9392 50.6 14.8392Z" fill="#6B5DFF"/>
<path fill-rule="evenodd" clip-rule="evenodd" d="M43.4 25.5392C43.5 24.8392 44.5 24.1392 44.9 23.5392C45.3 23.0392 45.9 22.5392 46 21.9392C46 21.8392 45.9 21.7392 45.8 21.8392C45.1 22.2392 44.6 23.2392 44 23.8392C43.6 24.4392 43.3 24.7392 43.4 25.5392Z" fill="#6B5DFF"/>
<path fill-rule="evenodd" clip-rule="evenodd" d="M43.3 27.1392C43.3 27.6392 43.3 28.1392 43.3 28.6392C43.3 29.0392 43.3 29.4392 43.5 29.8392C43.6 29.9392 43.7 29.9392 43.7 29.7392C43.8 29.3392 43.6 28.8392 43.5 28.4392C43.4 28.0392 43.4 27.5392 43.4 27.1392C43.6 27.0392 43.3 27.0392 43.3 27.1392Z" fill="#6B5DFF"/>
<path fill-rule="evenodd" clip-rule="evenodd" d="M43.6 18.9392C43.7 18.3392 44 18.0392 44.2 17.5392C44.2 17.4392 44.2 17.4392 44.1 17.4392C43.6 17.7392 43.4 18.3392 43.4 18.9392C43.5 19.0392 43.6 19.0392 43.6 18.9392Z" fill="#6B5DFF"/>
<path fill-rule="evenodd" clip-rule="evenodd" d="M43.3 17.8392C43.4 17.5392 43.6 17.3392 43.7 17.1392C43.8 16.9392 44.1 16.7392 44.1 16.4392C44.1 16.3392 44 16.3392 44 16.3392C43.8 16.4392 43.6 16.6392 43.5 16.8392C43.3 17.1392 43.2 17.4392 43.1 17.7392C43.1 17.8392 43.2 17.9392 43.3 17.8392Z" fill="#6B5DFF"/>
<path fill-rule="evenodd" clip-rule="evenodd" d="M43.2 16.3392C43.4 15.9392 43.7 15.4392 43.8 15.0392C43.8 14.9392 43.7 14.9392 43.7 15.0392C43.5 15.4392 43.3 15.9392 43.1 16.3392C43 16.3392 43.2 16.4392 43.2 16.3392Z" fill="#6B5DFF"/>
<path fill-rule="evenodd" clip-rule="evenodd" d="M43.3 15.1392C43.4 14.9392 43.4 14.7392 43.5 14.5392C43.6 14.3392 43.7 14.1392 43.7 13.9392C43.7 13.8392 43.6 13.7392 43.5 13.8392C43.1 14.0392 42.9 14.7392 43 15.1392C43 15.2392 43.3 15.2392 43.3 15.1392Z" fill="#6B5DFF"/>
<path fill-rule="evenodd" clip-rule="evenodd" d="M43.3 13.0392C43.3 12.9392 43.3 12.8392 43.3 12.6392C43.3 12.5392 43.4 12.3392 43.4 12.2392C43.4 12.1392 43.3 12.1392 43.3 12.1392C43 12.2392 42.9 12.7392 42.9 13.0392C42.9 13.2392 43.3 13.2392 43.3 13.0392Z" fill="#6B5DFF"/>
<path fill-rule="evenodd" clip-rule="evenodd" d="M44.7 16.7392C44.6 16.7392 44.6 16.7392 44.7 16.7392C44.6 16.8392 44.7 16.8392 44.7 16.7392Z" fill="#6B5DFF"/>
<path fill-rule="evenodd" clip-rule="evenodd" d="M44.8 16.5392C44.7 15.9392 44.8 15.4392 45 14.8392C45.1 14.3392 45.5 13.8392 45.5 13.3392C45.5 13.2392 45.4 13.1392 45.3 13.2392C44.6 14.0392 44.4 15.4392 44.5 16.5392C44.5 16.7392 44.8 16.7392 44.8 16.5392Z" fill="#6B5DFF"/>
<path fill-rule="evenodd" clip-rule="evenodd" d="M44.1 15.0392C44.3 14.7392 44.4 14.4392 44.6 14.1392C44.8 13.8392 45.2 13.6392 45.2 13.2392C45.2 13.1392 45.1 13.0392 45 13.1392C44.7 13.3392 44.5 13.7392 44.3 14.0392C44.3 14.3392 44.1 14.6392 44.1 15.0392Z" fill="#6B5DFF"/>
<path fill-rule="evenodd" clip-rule="evenodd" d="M71.3 44.9392C71.3 45.3392 71.3 45.6392 71.3 46.0392C71.3 46.3392 71.3 46.7392 71.5 46.9392C71.6 47.0392 71.7 47.0392 71.7 46.9392C71.8 46.6392 71.7 46.4392 71.7 46.1392C71.6 45.7392 71.6 45.3392 71.5 44.9392C71.6 44.7392 71.3 44.7392 71.3 44.9392Z" fill="#6B5DFF"/>
<path fill-rule="evenodd" clip-rule="evenodd" d="M72.1 45.3392C72.1 45.7392 72.1 46.4392 72.5 46.5392C72.6 46.5392 72.6 46.5392 72.7 46.4392C72.8 46.2392 72.7 46.1392 72.6 45.9392C72.5 45.7392 72.5 45.5392 72.5 45.3392C72.4 45.0392 72.1 45.0392 72.1 45.3392Z" fill="#6B5DFF"/>
<path fill-rule="evenodd" clip-rule="evenodd" d="M73.1 45.4392C73 45.6392 73.1 46.0392 73.3 46.0392C73.3 46.0392 73.4 46.0392 73.4 45.9392C73.4 45.7392 73.3 45.6392 73.3 45.4392C73.4 45.3392 73.1 45.2392 73.1 45.4392Z" fill="#6B5DFF"/>
<path fill-rule="evenodd" clip-rule="evenodd" d="M74.1 45.2392C74.1 45.4392 74.1 45.6392 74.2 45.7392H74.3C74.5 45.6392 74.4 45.4392 74.4 45.2392C74.5 44.9392 74 44.9392 74.1 45.2392Z" fill="#6B5DFF"/>
<path fill-rule="evenodd" clip-rule="evenodd" d="M55.1 70.1392C55.7 70.0392 56.4 70.0392 57 70.0392C57.5 70.0392 58.2 70.3392 58.7 70.2392C58.8 70.2392 58.8 70.1392 58.8 70.0392C58.4 69.6392 57.7 69.6392 57.2 69.6392C56.5 69.6392 55.7 69.7392 55.1 69.9392C55 70.0392 55 70.1392 55.1 70.1392Z" fill="#6B5DFF"/>
<path fill-rule="evenodd" clip-rule="evenodd" d="M43.3 71.8392C43.4 71.8392 43.6 71.8392 43.7 71.7392V71.6392C43.6 71.5392 43.4 71.5392 43.3 71.5392C43.1 71.5392 43.1 71.8392 43.3 71.8392Z" fill="#6B5DFF"/>
<path fill-rule="evenodd" clip-rule="evenodd" d="M43 72.7392C43.1 72.8392 43.2 72.8392 43.4 72.8392C43.5 72.8392 43.5 72.7392 43.5 72.7392C43.5 72.5392 43.3 72.5392 43.2 72.5392C43 72.3392 42.8 72.6392 43 72.7392Z" fill="#6B5DFF"/>
<path fill-rule="evenodd" clip-rule="evenodd" d="M42.1 9.23918C38.8 8.33918 38.2 11.5392 39.6 13.8392C39.6 13.8392 36.6 14.7392 36.6 12.0392C36.7 9.33918 37.2 5.43919 36.1 5.43919C32.1 5.43919 25.5 15.1392 18 17.0392C14.4 17.9392 9.19998 16.8392 9.09998 14.4392C8.99998 12.0392 11.3 12.1392 11.8 12.5392C12.3 12.9392 11.9 13.1392 11.4 14.2392C10.9 15.3392 13.8 15.9392 13.9 13.9392C14 11.9392 12.8 9.83919 10 10.6392C7.2 11.4392 5.49999 16.0392 10.8 18.8392C17.3 22.2392 26.6 18.8392 34.6 18.3392C39 18.0392 40.2 18.3392 40.4 19.3392C40.6 20.3392 41.1 21.2392 40.1 21.7392C39.1 22.2392 39 20.8392 38.5 21.1392C38 21.4392 39.9 23.3392 40.4 25.2392C40.9 27.0392 38.9 27.7392 39.8 28.0392C40.7 28.3392 41 28.5392 41 29.6392C41 32.6392 40.8 65.7392 37.1 66.2392C36.5 66.3392 32.8 66.4392 31.6 66.5392C30.4 66.6392 29.7 68.1392 29.7 68.1392C29.7 68.1392 26.8 68.9392 26.1 70.3392C25.4 71.7392 27.6 73.9392 32 74.3392C36.4 74.7392 42.3 74.8392 42.3 74.8392L42.1 9.23918Z" fill="#F0F2FB"/>
<path fill-rule="evenodd" clip-rule="evenodd" d="M41.8 9.53918C41.3 9.43918 40.8 9.43918 40.5 9.53918C40.1 9.63918 39.8 9.93918 39.6 10.2392C39.4 10.5392 39.3 11.0392 39.3 11.5392C39.3 12.2392 39.5 12.9392 39.9 13.6392C40 13.8392 39.9 14.0392 39.8 14.1392H39.7C39.7 14.1392 36.2 15.1392 36.3 11.9392C36.3 11.2392 36.4 10.6392 36.4 9.93919C36.5 9.13919 36.5 8.23918 36.5 7.53918C36.5 6.53918 36.4 5.73918 36.2 5.73918C34.4 5.73918 32 7.83918 29.2 10.2392C25.9 13.0392 22.2 16.3392 18.1 17.3392C17.3 17.5392 16.4 17.6392 15.6 17.6392C14.1 17.6392 12.6 17.4392 11.4 17.0392C10.1 16.5392 9.20001 15.8392 9.00001 14.9392C9.00001 14.8392 8.9 14.6392 8.9 14.4392C8.9 13.7392 9.1 13.1392 9.4 12.7392C9.6 12.4392 9.89999 12.2392 10.2 12.1392C10.5 12.0392 10.8 11.9392 11.1 11.9392C11.6 11.9392 12 12.0392 12.2 12.2392C12.8 12.6392 12.6 12.9392 12.3 13.6392C12.2 13.8392 12.1 14.0392 11.9 14.4392C11.9 14.5392 11.9 14.6392 12 14.7392C12.1 14.8392 12.3 14.9392 12.5 14.9392C12.7 14.9392 12.9 14.9392 13.1 14.9392C13.4 14.8392 13.7 14.5392 13.7 14.0392C13.7 13.6392 13.7 13.1392 13.6 12.7392C13.5 12.2392 13.2 11.8392 12.9 11.4392C12.6 11.1392 12.1 10.9392 11.5 10.8392C11.1 10.8392 10.7 10.8392 10.3 11.0392C9.69999 11.2392 9.09999 11.5392 8.69999 12.0392C8.29999 12.5392 8 13.2392 7.9 13.9392C7.8 14.6392 8 15.4392 8.4 16.1392C8.9 16.9392 9.79998 17.8392 11.1 18.5392C15.5 20.8392 21.4 19.9392 27.2 18.9392C29.7 18.5392 32.3 18.1392 34.7 18.0392C36.9 17.9392 38.3 17.9392 39.3 18.0392C40.4 18.2392 40.8 18.6392 40.9 19.3392C40.9 19.5392 41 19.7392 41 19.9392C41.2 20.8392 41.4 21.6392 40.4 22.1392C39.6 22.5392 39.2 22.1392 38.9 21.7392C39 21.9392 39.2 22.2392 39.5 22.6392C40 23.4392 40.6 24.3392 40.8 25.2392C41.1 26.4392 40.6 27.2392 40.2 27.7392C40.2 27.8392 40.1 27.8392 40.1 27.9392C40.6 28.1392 40.9 28.2392 41.1 28.5392C41.3 28.8392 41.5 29.2392 41.5 29.8392C41.5 31.7392 41.4 40.7392 40.4 47.1392C39.8 50.7392 38.8 66.6392 37.3 66.8392C36.9 66.9392 35.5 66.9392 34.2 67.0392C33.2 67.0392 32.3 67.1392 31.8 67.1392C30.8 67.2392 30.2 68.5392 30.2 68.5392C30.2 68.6392 30.1 68.7392 30 68.7392C30 68.7392 27.2 69.5392 26.6 70.8392C26.6 70.9392 26.5 71.0392 26.5 71.1392C26.5 71.4392 26.6 71.8392 26.9 72.2392C27.2 72.6392 27.8 73.0392 28.4 73.3392C29.4 73.8392 30.6 74.1392 32.2 74.3392C36 74.6392 40.8 74.8392 42.1 74.8392L41.8 9.53918ZM40.2 8.83919C40.7 8.73919 41.4 8.73919 42.1 8.83919C42.3 8.83919 42.4 9.03919 42.4 9.13919L42.6 74.9392C42.6 75.1392 42.4 75.2392 42.2 75.2392C42.2 75.2392 36.3 75.0392 31.9 74.7392C30.2 74.6392 28.9 74.2392 27.9 73.7392C27.1 73.3392 26.5 72.9392 26.1 72.4392C25.7 71.9392 25.5 71.4392 25.5 70.8392C25.5 70.6392 25.6 70.4392 25.7 70.2392C26.4 68.8392 28.8 68.0392 29.4 67.8392C29.6 67.4392 30.4 66.3392 31.5 66.2392C32 66.2392 32.9 66.1392 33.9 66.1392C35.2 66.0392 36.6 66.0392 36.9 65.9392C38 65.7392 40.5 31.5392 40.5 29.6392C40.5 29.2392 40.4 28.9392 40.3 28.8392C40.2 28.6392 39.9 28.5392 39.5 28.4392C39 28.2392 38.9 28.0392 39.1 27.6392C39.2 27.4392 39.3 27.3392 39.4 27.1392C39.7 26.7392 40.1 26.1392 39.9 25.2392C39.7 24.4392 39.1 23.5392 38.7 22.8392C38.1 21.8392 37.6 21.1392 38.2 20.8392C38.7 20.5392 38.9 20.8392 39.2 21.1392C39.4 21.3392 39.5 21.5392 39.9 21.3392C40.5 21.0392 40.3 20.5392 40.2 19.9392C40.1 19.7392 40.1 19.5392 40.1 19.3392C40 19.0392 39.7 18.7392 39 18.6392C38.1 18.4392 36.8 18.4392 34.6 18.6392C32.2 18.7392 29.7 19.1392 27.2 19.5392C21.3 20.4392 15.3 21.4392 10.7 19.0392C9.19999 18.2392 8.29999 17.3392 7.69999 16.4392C7.19999 15.5392 6.99998 14.6392 7.09998 13.7392C7.19998 12.8392 7.49998 12.1392 8.09998 11.4392C8.59998 10.8392 9.30001 10.3392 10 10.1392C10.5 10.0392 11 9.93919 11.4 9.93919C12.2 9.93919 12.8 10.2392 13.2 10.6392C13.7 11.0392 14 11.6392 14.1 12.2392C14.2 12.7392 14.3 13.2392 14.3 13.7392C14.3 14.6392 13.8 15.1392 13.2 15.2392C12.9 15.3392 12.6 15.3392 12.3 15.3392C12 15.2392 11.7 15.1392 11.5 14.9392C11.2 14.6392 11 14.2392 11.2 13.8392C11.4 13.4392 11.5 13.2392 11.6 13.0392C11.8 12.7392 11.8 12.6392 11.7 12.5392C11.6 12.4392 11.3 12.4392 11 12.4392C10.8 12.4392 10.6 12.4392 10.4 12.5392C10.2 12.6392 10 12.7392 9.9 12.9392C9.7 13.2392 9.59998 13.6392 9.59998 14.1392C9.59998 14.2392 9.59998 14.3392 9.59998 14.4392C9.79998 15.1392 10.6 15.7392 11.6 16.1392C12.7 16.5392 14.2 16.7392 15.6 16.7392C16.4 16.7392 17.2 16.6392 18 16.4392C21.9 15.4392 25.6 12.2392 28.8 9.43919C31.7 6.93919 34.2 4.73918 36.2 4.73918C37 4.73918 37.2 5.73918 37.2 7.23918C37.2 7.93918 37.2 8.83919 37.1 9.63919C37.1 10.3392 37 11.0392 37 11.6392C37 13.3392 38.4 13.3392 39.1 13.2392C38.8 12.5392 38.6 11.8392 38.6 11.1392C38.6 10.5392 38.7 9.93918 39 9.53918C39.2 9.43918 39.6 9.03919 40.2 8.83919Z" fill="#6B5DFF"/>
<path fill-rule="evenodd" clip-rule="evenodd" d="M14.1 43.7392C6.59998 43.7392 0.5 42.6392 0.5 41.1392C0.5 39.7392 6.59998 38.5392 14.1 38.5392C21.6 38.5392 27.7 39.6392 27.7 41.1392C27.8 42.6392 21.6 43.7392 14.1 43.7392Z" fill="#F0F2FB"/>
<path fill-rule="evenodd" clip-rule="evenodd" d="M14.1 44.1392C10.3 44.1392 6.89999 43.8392 4.39999 43.3392C1.79999 42.8392 0.0999756 42.0392 0.0999756 41.2392C0.0999756 40.3392 1.69999 39.5392 4.39999 39.1392C6.89999 38.6392 10.3 38.3392 14.1 38.3392C17.9 38.3392 21.3 38.6392 23.8 39.1392C26.4 39.6392 28.1 40.3392 28.1 41.2392C28.1 42.1392 26.5 42.9392 23.8 43.3392C21.3 43.8392 17.9 44.1392 14.1 44.1392ZM4.5 42.6392C6.9 43.1392 10.3 43.3392 14.1 43.3392C17.8 43.3392 21.2 43.0392 23.7 42.6392C26 42.2392 27.4 41.6392 27.4 41.1392C27.4 40.6392 26 40.1392 23.7 39.6392C21.3 39.1392 17.9 38.9392 14.1 38.9392C10.4 38.9392 7 39.2392 4.5 39.6392C2.2 40.0392 0.799988 40.6392 0.799988 41.1392C0.799988 41.7392 2.3 42.2392 4.5 42.6392Z" fill="#6B5DFF"/>
<path fill-rule="evenodd" clip-rule="evenodd" d="M14.1 42.6392C6.99998 42.6392 1.29999 41.7392 1.29999 40.6392C1.29999 39.5392 7.09998 38.6392 14.1 38.6392C21.2 38.6392 26.9 39.5392 26.9 40.6392C26.9 41.7392 21.2 42.6392 14.1 42.6392Z" fill="#F0F2FB"/>
<path fill-rule="evenodd" clip-rule="evenodd" d="M14.1 43.0392C10.6 43.0392 7.3 42.8392 5 42.4392C2.5 42.0392 0.899994 41.4392 0.899994 40.6392C0.899994 39.8392 2.5 39.2392 5 38.8392C7.3 38.4392 10.6 38.2392 14.1 38.2392C17.6 38.2392 20.9 38.4392 23.2 38.8392C25.7 39.2392 27.3 39.8392 27.3 40.6392C27.3 41.4392 25.7 42.0392 23.2 42.4392C20.9 42.7392 17.7 43.0392 14.1 43.0392ZM5.09998 41.7392C7.39998 42.1392 10.6 42.3392 14.1 42.3392C17.6 42.3392 20.8 42.1392 23.1 41.7392C25.2 41.4392 26.6 41.0392 26.6 40.6392C26.6 40.2392 25.3 39.9392 23.1 39.5392C20.8 39.1392 17.6 38.9392 14.1 38.9392C10.6 38.9392 7.39998 39.1392 5.09998 39.5392C2.99998 39.8392 1.59998 40.2392 1.59998 40.6392C1.69998 41.0392 2.99998 41.4392 5.09998 41.7392Z" fill="#6B5DFF"/>
<path fill-rule="evenodd" clip-rule="evenodd" d="M7.69998 40.0392C6.99998 40.1392 6.39998 40.2392 5.69998 40.3392C4.99998 40.4392 4.39998 40.9392 3.69998 41.0392C3.59998 41.0392 3.59998 40.9392 3.59998 40.8392C3.99998 40.3392 4.69999 40.3392 5.29999 40.1392C6.09999 40.0392 6.89998 39.9392 7.69998 40.0392Z" fill="#6B5DFF"/>
<path fill-rule="evenodd" clip-rule="evenodd" d="M7.3 41.0392C7.1 41.1392 6.80001 41.2392 6.50001 41.2392C6.20001 41.3392 5.89999 41.4392 5.59999 41.4392C5.49999 41.4392 5.40001 41.3392 5.50001 41.2392C5.70001 41.0392 5.9 40.9392 6.2 40.9392C6.5 40.8392 6.9 40.8392 7.2 40.8392C7.4 40.8392 7.4 40.9392 7.3 41.0392Z" fill="#6B5DFF"/>
<path fill-rule="evenodd" clip-rule="evenodd" d="M7.89999 41.3392C7.79999 41.4392 7.69998 41.4392 7.59998 41.5392C7.49998 41.6392 7.39999 41.6392 7.29999 41.6392C7.19999 41.6392 7.19998 41.5392 7.19998 41.5392C7.19998 41.4392 7.29999 41.3392 7.39999 41.3392C7.49999 41.2392 7.59998 41.2392 7.69998 41.1392C7.89998 40.9392 7.99999 41.2392 7.89999 41.3392Z" fill="#6B5DFF"/>
<path fill-rule="evenodd" clip-rule="evenodd" d="M18.3 40.2392C20 39.7392 22.3 40.0392 23.9 40.7392C24 40.8392 24 41.0392 23.9 41.0392C23.1 41.0392 22.3 40.7392 21.5 40.5392C20.4 40.3392 19.3 40.3392 18.3 40.2392C18.2 40.3392 18.2 40.3392 18.3 40.2392Z" fill="#6B5DFF"/>
<path fill-rule="evenodd" clip-rule="evenodd" d="M19.6 40.6392C20.1 40.6392 20.6 40.7392 21 40.7392C21.5 40.8392 22 40.8392 22.4 41.1392C22.5 41.2392 22.5 41.3392 22.3 41.3392C21.4 41.2392 20.5 41.0392 19.6 40.9392C19.4 40.9392 19.4 40.6392 19.6 40.6392Z" fill="#6B5DFF"/>
<path fill-rule="evenodd" clip-rule="evenodd" d="M19.1 41.1392C19.4 41.2392 19.8 41.2392 20.1 41.3392C20.4 41.4392 20.8 41.4392 21.1 41.6392C21.2 41.7392 21.2 41.8392 21.1 41.8392C20.8 42.0392 20.4 41.8392 20.1 41.7392C19.7 41.6392 19.4 41.5392 19 41.5392C18.6 41.5392 18.8 41.1392 19.1 41.1392Z" fill="#6B5DFF"/>
<path fill-rule="evenodd" clip-rule="evenodd" d="M3.59998 43.5392C4.39998 43.7392 5.2 44.0392 6 44.2392C6.9 44.3392 7.69998 44.4392 8.59998 44.5392C8.69998 44.5392 8.69998 44.7392 8.59998 44.8392C6.99998 45.0392 4.49999 45.2392 3.39999 43.7392C3.39999 43.5392 3.49998 43.4392 3.59998 43.5392Z" fill="#6B5DFF"/>
<path fill-rule="evenodd" clip-rule="evenodd" d="M4.59997 45.0392C5.09997 45.2392 5.59997 45.3392 6.09997 45.4392C6.59997 45.5392 7.19997 45.6392 7.69997 45.8392C7.79997 45.9392 7.79997 46.1392 7.69997 46.2392C6.59997 46.4392 5.39997 45.9392 4.59997 45.2392C4.39997 45.1392 4.49997 44.9392 4.59997 45.0392Z" fill="#6B5DFF"/>
<path fill-rule="evenodd" clip-rule="evenodd" d="M6.69999 47.3392C7.09999 47.4392 7.4 47.5392 7.8 47.6392V47.7392C7.4 47.8392 6.99999 47.7392 6.69999 47.6392C6.39999 47.6392 6.49999 47.2392 6.69999 47.3392Z" fill="#6B5DFF"/>
<path fill-rule="evenodd" clip-rule="evenodd" d="M8.3 48.5392C8.7 48.6392 9 48.7392 9.3 48.9392C9.4 48.9392 9.3 49.1392 9.3 49.1392C8.9 49.1392 8.6 49.0392 8.2 48.9392C7.9 48.8392 8 48.4392 8.3 48.5392Z" fill="#6B5DFF"/>
<path fill-rule="evenodd" clip-rule="evenodd" d="M36.5 68.3392C35.3 68.5392 34.2 68.6392 33 68.6392C32.4 68.6392 31.8 68.6392 31.3 68.6392C30.6 68.6392 29.9 68.8392 29.1 68.7392C28.9 68.7392 28.8 68.4392 29 68.3392C29.9 67.8392 31.1 68.0392 32.1 68.0392C33.6 68.1392 35 68.4392 36.5 68.3392Z" fill="#6B5DFF"/>
<path fill-rule="evenodd" clip-rule="evenodd" d="M38.3 68.2392C38.6 68.3392 39.3 68.4392 39.2 68.8392C39.1 69.0392 38.9 68.9392 38.8 68.9392C38.6 68.8392 38.4 68.6392 38.2 68.5392C38 68.4392 38.1 68.2392 38.3 68.2392Z" fill="#6B5DFF"/>
<path fill-rule="evenodd" clip-rule="evenodd" d="M39.7 68.2392C39.9 68.3392 40.1 68.4392 40.3 68.5392C40.4 68.6392 40.3 68.8392 40.2 68.8392C40 68.8392 39.8 68.6392 39.7 68.6392C39.3 68.5392 39.4 68.1392 39.7 68.2392Z" fill="#6B5DFF"/>
<path fill-rule="evenodd" clip-rule="evenodd" d="M40.8 68.2392C41.1 68.2392 41.4 68.2392 41.6 68.4392V68.5392C41.4 68.7392 41.1 68.6392 40.8 68.5392C40.6 68.5392 40.6 68.2392 40.8 68.2392Z" fill="#6B5DFF"/>
<path fill-rule="evenodd" clip-rule="evenodd" d="M40 64.7392C39.9 64.7392 39.9 64.7392 40 64.7392C40 64.6392 40 64.6392 40 64.7392C40.1 64.7392 40.1 64.6392 40 64.7392Z" fill="#6B5DFF"/>
<path fill-rule="evenodd" clip-rule="evenodd" d="M39.8 64.5392C39.8 64.9392 39.7 65.2392 39.5 65.5392C39.4 65.8392 39.1 66.2392 38.8 66.4392C38.7 66.4392 38.6 66.4392 38.6 66.3392C38.6 66.0392 38.8 65.8392 39 65.5392C39.2 65.2392 39.4 64.8392 39.5 64.4392C39.6 64.3392 39.8 64.3392 39.8 64.5392Z" fill="#6B5DFF"/>
<path fill-rule="evenodd" clip-rule="evenodd" d="M40.4 65.6392C40.4 65.7392 40.4 65.8392 40.3 65.9392H40.2C40.2 65.8392 40.2 65.7392 40.2 65.6392C40.2 65.5392 40.4 65.5392 40.4 65.6392Z" fill="#6B5DFF"/>
<path fill-rule="evenodd" clip-rule="evenodd" d="M41.1 65.6392C41.1 65.7392 41.1 65.8392 41.1 65.9392C41.1 66.0392 40.9 66.0392 40.8 65.9392C40.8 65.8392 40.8 65.7392 40.8 65.6392C40.8 65.4392 41.1 65.4392 41.1 65.6392Z" fill="#6B5DFF"/>
<path fill-rule="evenodd" clip-rule="evenodd" d="M27.3 70.7392C27.3 71.0392 27.3 71.3392 27.4 71.6392C27.5 71.9392 27.7 72.1392 27.7 72.4392C27.7 72.5392 27.6 72.6392 27.5 72.6392C27.1 72.5392 27 72.2392 26.9 71.8392C26.8 71.4392 26.9 71.1392 27 70.7392C27.1 70.6392 27.3 70.6392 27.3 70.7392Z" fill="#6B5DFF"/>
<path fill-rule="evenodd" clip-rule="evenodd" d="M28.5 71.4392C28.6 71.7392 28.8 72.0392 28.9 72.3392C29 72.5392 29.2 72.7392 29.3 73.0392C29.3 73.1392 29.2 73.1392 29.2 73.1392C28.5 73.1392 28.3 72.0392 28.2 71.5392C28.1 71.3392 28.4 71.2392 28.5 71.4392Z" fill="#6B5DFF"/>
<path fill-rule="evenodd" clip-rule="evenodd" d="M30 72.3392C30.1 72.4392 30.2 72.5392 30.2 72.6392C30.3 72.7392 30.4 72.8392 30.4 73.0392C30.4 73.1392 30.3 73.2392 30.2 73.2392C30.1 73.2392 30 73.1392 29.9 72.9392C29.8 72.8392 29.7 72.6392 29.6 72.5392C29.5 72.4392 29.6 72.3392 29.7 72.2392C29.8 72.1392 29.9 72.2392 30 72.3392Z" fill="#6B5DFF"/>
<path fill-rule="evenodd" clip-rule="evenodd" d="M31.4 72.5392C31.6 72.7392 31.8 72.8392 32 73.0392C32.1 73.1392 32.4 73.4392 32.2 73.5392C32 73.7392 31.8 73.5392 31.6 73.3392C31.4 73.1392 31.2 72.9392 31 72.8392C30.9 72.7392 30.9 72.5392 31 72.4392C31.2 72.4392 31.3 72.4392 31.4 72.5392Z" fill="#6B5DFF"/>
<path fill-rule="evenodd" clip-rule="evenodd" d="M33.2 72.9392C33.4 73.1392 33.5 73.2392 33.7 73.4392C33.8 73.5392 34 73.8392 33.9 74.0392C33.7 74.2392 33.5 74.0392 33.3 73.8392C33.1 73.6392 33 73.5392 32.8 73.3392C32.5 73.0392 32.9 72.6392 33.2 72.9392Z" fill="#6B5DFF"/>
<path fill-rule="evenodd" clip-rule="evenodd" d="M34.8 72.9392C35.1 73.1392 35.4 73.2392 35.7 73.3392C35.9 73.4392 35.8 73.7392 35.6 73.7392C35.1 73.8392 34.8 73.5392 34.5 73.1392C34.3 73.0392 34.6 72.7392 34.8 72.9392Z" fill="#6B5DFF"/>
<path fill-rule="evenodd" clip-rule="evenodd" d="M36.8 73.0392C37 73.1392 37.6 73.4392 37.5 73.7392C37.4 73.9392 37.1 73.8392 37 73.7392C36.9 73.6392 36.7 73.5392 36.5 73.4392C36.3 73.3392 36.6 72.8392 36.8 73.0392Z" fill="#6B5DFF"/>
<path fill-rule="evenodd" clip-rule="evenodd" d="M38.7 73.2392C39 73.3392 39.3 73.3392 39.5 73.5392C39.6 73.6392 39.5 73.7392 39.4 73.7392C39.1 73.8392 38.7 73.7392 38.4 73.5392C38.2 73.4392 38.4 73.1392 38.7 73.2392Z" fill="#6B5DFF"/>
<path fill-rule="evenodd" clip-rule="evenodd" d="M40.8 22.8392C41 22.2392 40.9 21.5392 40.8 20.9392C40.7 20.5392 40.4 20.0392 40.5 19.6392C40.5 19.5392 40.6 19.5392 40.7 19.5392C41.2 19.8392 41.2 20.7392 41.3 21.2392C41.4 21.8392 41.3 22.4392 40.9 22.9392C40.8 22.9392 40.7 22.9392 40.8 22.8392Z" fill="#6B5DFF"/>
<path fill-rule="evenodd" clip-rule="evenodd" d="M39.2 15.4392C38.3 15.3392 37.5 15.0392 36.9 14.2392C36.4 13.5392 36 12.1392 36.5 11.4392C36.6 11.3392 36.7 11.3392 36.8 11.4392C36.9 11.7392 36.8 12.0392 36.8 12.3392C36.8 12.8392 36.9 13.2392 37.1 13.7392C37.5 14.5392 38.2 15.1392 39.1 15.2392C39.3 15.1392 39.3 15.4392 39.2 15.4392Z" fill="#6B5DFF"/>
<path fill-rule="evenodd" clip-rule="evenodd" d="M37.8 15.5392C38 15.5392 38.2 15.6392 38.4 15.7392C38.7 15.8392 39 15.8392 39.2 15.9392C39.5 16.0392 39.5 16.4392 39.2 16.4392C38.6 16.5392 38 16.2392 37.6 15.7392C37.7 15.6392 37.7 15.5392 37.8 15.5392Z" fill="#6B5DFF"/>
<path fill-rule="evenodd" clip-rule="evenodd" d="M38.3 16.7392C38.5 16.9392 38.9 16.9392 39.2 16.9392C39.5 17.0392 39.4 17.4392 39.1 17.4392C38.9 17.4392 38.7 17.4392 38.6 17.3392C38.4 17.2392 38.3 17.1392 38.2 16.9392C38 16.8392 38.1 16.6392 38.3 16.7392Z" fill="#6B5DFF"/>
<path fill-rule="evenodd" clip-rule="evenodd" d="M38.7 17.4392C38.8 17.4392 38.9 17.4392 39.1 17.4392C39.2 17.4392 39.2 17.5392 39.1 17.5392C39 17.6392 38.8 17.6392 38.7 17.6392C38.6 17.5392 38.6 17.4392 38.7 17.4392Z" fill="#6B5DFF"/>
<path fill-rule="evenodd" clip-rule="evenodd" d="M33.9 7.73918C32.3 8.53918 31.1 9.93918 30 11.2392C28.9 12.4392 27.6 13.4392 26.2 14.3392C23.3 16.0392 19.7 17.7392 16.2 17.6392C15.9 17.6392 15.9 17.1392 16.2 17.1392C19.9 16.9392 23.5 15.4392 26.6 13.4392C29.3 11.7392 30.9 8.83918 33.9 7.73918C34 7.73918 33.9 7.63918 33.9 7.73918Z" fill="#6B5DFF"/>
<path fill-rule="evenodd" clip-rule="evenodd" d="M32.3 17.3392C30.5 17.7392 28.6 18.5392 26.9 19.2392C25.3 19.8392 23.6 20.5392 21.9 20.3392C21.8 20.3392 21.8 20.1392 21.9 20.1392C23.6 19.8392 25.2 19.4392 26.9 18.8392C28.6 18.1392 30.4 17.6392 32.3 17.3392Z" fill="#6B5DFF"/>
<path fill-rule="evenodd" clip-rule="evenodd" d="M34.8 8.63919C34.6 8.93919 34.3 9.13919 34 9.33919C33.7 9.53919 33.4 9.73919 33.1 9.63919C33 9.63919 33 9.5392 33 9.4392C33.1 9.2392 33.4 9.13919 33.6 9.03919C33.9 8.83919 34.2 8.7392 34.5 8.4392C34.6 8.2392 34.9 8.43919 34.8 8.63919Z" fill="#6B5DFF"/>
<path fill-rule="evenodd" clip-rule="evenodd" d="M34.9 9.73918C34.7 10.0392 34.5 10.2392 34.2 10.4392C33.9 10.6392 33.5 10.8392 33.2 10.8392C33.1 10.8392 33 10.7392 33.1 10.6392C33.3 10.3392 33.6 10.2392 33.8 10.1392C34.1 9.93919 34.4 9.73919 34.7 9.53919C34.8 9.33919 35.1 9.53918 34.9 9.73918Z" fill="#6B5DFF"/>
<path fill-rule="evenodd" clip-rule="evenodd" d="M34.2 11.4392C33.9 11.6392 33.5 12.0392 33.1 12.0392C33 12.0392 33 11.9392 33 11.8392C33.1 11.7392 33.3 11.6392 33.4 11.5392C33.6 11.4392 33.7 11.3392 33.9 11.2392C34.1 11.0392 34.4 11.2392 34.2 11.4392Z" fill="#6B5DFF"/>
<path fill-rule="evenodd" clip-rule="evenodd" d="M33.7 12.5392C33.5 12.7392 33.2 12.9392 32.9 12.9392C32.8 12.9392 32.8 12.8392 32.8 12.7392C33 12.5392 33.3 12.4392 33.5 12.2392C33.7 12.1392 33.9 12.4392 33.7 12.5392Z" fill="#6B5DFF"/>
<path fill-rule="evenodd" clip-rule="evenodd" d="M33.2 13.6392C33 13.7392 32.9 13.9392 32.7 13.9392C32.6 13.9392 32.6 13.9392 32.6 13.8392C32.7 13.6392 32.9 13.5392 33 13.4392C33.2 13.3392 33.4 13.5392 33.2 13.6392Z" fill="#6B5DFF"/>
<path fill-rule="evenodd" clip-rule="evenodd" d="M33.2 14.6392C33.2 14.8392 33.1 14.9392 32.9 15.0392C32.8 15.1392 32.5 15.2392 32.4 15.0392C32.3 14.9392 32.3 14.9392 32.4 14.8392C32.4 14.8392 32.4 14.8392 32.4 14.7392C32.4 14.7392 32.4 14.7392 32.5 14.7392C32.6 14.6392 32.7 14.6392 32.8 14.4392C32.9 14.2392 33.3 14.3392 33.2 14.6392Z" fill="#6B5DFF"/>
<path fill-rule="evenodd" clip-rule="evenodd" d="M35.8 13.7392C35.8 14.0392 36.1 14.3392 36.3 14.5392C36.5 14.7392 36.8 14.9392 36.8 15.2392C36.8 15.3392 36.8 15.3392 36.7 15.3392C36.3 15.4392 36.1 15.0392 35.9 14.8392C35.7 14.5392 35.6 14.1392 35.7 13.7392C35.6 13.6392 35.8 13.6392 35.8 13.7392Z" fill="#6B5DFF"/>
<path fill-rule="evenodd" clip-rule="evenodd" d="M35.4 15.0392C35.4 15.2392 35.5 15.4392 35.6 15.5392C35.7 15.7392 35.9 15.8392 36.1 15.9392C36.2 16.1392 36.1 16.3392 35.9 16.3392C35.6 16.3392 35.3 16.0392 35.2 15.8392C35 15.5392 35.1 15.2392 35.1 14.9392C35.2 14.7392 35.4 14.8392 35.4 15.0392Z" fill="#6B5DFF"/>
<path fill-rule="evenodd" clip-rule="evenodd" d="M34.8 16.0392C34.9 16.2392 34.9 16.5392 34.9 16.8392C34.9 17.0392 34.6 17.0392 34.5 16.8392C34.5 16.6392 34.5 16.4392 34.4 16.1392C34.3 15.9392 34.7 15.8392 34.8 16.0392Z" fill="#6B5DFF"/>
<path fill-rule="evenodd" clip-rule="evenodd" d="M34 17.1392C34.1 17.2392 34.3 17.6392 34.1 17.7392C33.9 17.8392 33.7 17.5392 33.6 17.3392C33.6 17.1392 33.9 16.9392 34 17.1392Z" fill="#6B5DFF"/>
<path fill-rule="evenodd" clip-rule="evenodd" d="M32 10.7392C32 11.2392 32.1 11.7392 32.2 12.1392C32.2 12.4392 32.3 12.8392 32 13.0392C32 13.0392 31.9 13.0392 31.8 13.0392C31.6 12.7392 31.7 12.4392 31.7 12.1392C31.7 11.6392 31.7 11.1392 31.8 10.7392C31.7 10.5392 32 10.5392 32 10.7392Z" fill="#6B5DFF"/>
<path fill-rule="evenodd" clip-rule="evenodd" d="M30.9 12.1392C30.9 12.4392 31 12.8392 31 13.1392C31 13.4392 31 13.6392 30.8 13.8392C30.7 13.9392 30.6 13.9392 30.5 13.8392C30.4 13.6392 30.4 13.3392 30.4 13.1392C30.4 12.8392 30.5 12.4392 30.5 12.1392C30.6 11.9392 30.9 11.9392 30.9 12.1392Z" fill="#6B5DFF"/>
<path fill-rule="evenodd" clip-rule="evenodd" d="M30.1 12.8392C30.2 13.2392 30.3 14.1392 29.8 14.3392C29.7 14.3392 29.7 14.3392 29.6 14.2392C29.5 14.0392 29.6 13.8392 29.7 13.6392C29.8 13.3392 29.8 13.1392 29.8 12.8392C29.9 12.7392 30.1 12.6392 30.1 12.8392Z" fill="#6B5DFF"/>
<path fill-rule="evenodd" clip-rule="evenodd" d="M29.1 13.7392C29.1 14.1392 28.9 14.8392 28.5 15.0392C28.4 15.0392 28.4 15.0392 28.4 14.9392C28.4 14.7392 28.5 14.6392 28.6 14.4392C28.7 14.2392 28.8 13.9392 28.9 13.7392C28.9 13.5392 29.2 13.5392 29.1 13.7392Z" fill="#6B5DFF"/>
<path fill-rule="evenodd" clip-rule="evenodd" d="M28 14.4392C27.9 14.7392 27.8 15.1392 27.5 15.2392C27.5 15.2392 27.4 15.2392 27.4 15.1392C27.4 15.0392 27.4 14.8392 27.5 14.7392C27.6 14.6392 27.6 14.4392 27.7 14.3392C27.7 14.1392 28.1 14.2392 28 14.4392Z" fill="#6B5DFF"/>
<path fill-rule="evenodd" clip-rule="evenodd" d="M27.2 15.0392C27.2 15.2392 27.2 15.4392 27 15.4392C26.9 15.4392 26.9 15.4392 26.9 15.3392C26.9 15.2392 27 15.1392 27 15.0392C26.9 14.8392 27.2 14.8392 27.2 15.0392Z" fill="#6B5DFF"/>
<path fill-rule="evenodd" clip-rule="evenodd" d="M24.3 18.2392C22.4 18.5392 20.5 19.3392 18.6 19.6392C17.3 19.8392 16 19.9392 14.7 19.8392C13.4 19.8392 10.1 19.7392 10 17.9392H10.1C9.69998 18.0392 10.8 18.6392 11 18.7392C11.4 18.9392 11.8 19.0392 12.3 19.1392C13.3 19.3392 14.4 19.4392 15.5 19.4392C16.7 19.4392 17.9 19.4392 19 19.3392C20.8 19.2392 22.5 18.3392 24.3 18.1392C24.4 18.1392 24.4 18.2392 24.3 18.2392Z" fill="#6B5DFF"/>
<path fill-rule="evenodd" clip-rule="evenodd" d="M11.4 17.9392C11.5 18.0392 11.7 18.1392 11.9 18.2392C12 18.3392 12.2 18.3392 12.3 18.5392C12.3 18.6392 12.3 18.7392 12.2 18.7392C12 18.8392 11.9 18.7392 11.7 18.6392C11.5 18.5392 11.4 18.4392 11.2 18.3392C11 18.1392 11.2 17.8392 11.4 17.9392Z" fill="#6B5DFF"/>
<path fill-rule="evenodd" clip-rule="evenodd" d="M12.8 18.1392C13 18.2392 13.4 18.4392 13.5 18.7392C13.5 18.7392 13.5 18.8392 13.4 18.8392C13.3 18.8392 13.1 18.8392 13 18.7392C12.9 18.6392 12.7 18.5392 12.6 18.5392C12.4 18.3392 12.6 18.0392 12.8 18.1392Z" fill="#6B5DFF"/>
<path fill-rule="evenodd" clip-rule="evenodd" d="M14.8 18.3392C14.9 18.4392 15.1 18.4392 15.1 18.6392V18.7392C14.9 18.7392 14.8 18.6392 14.7 18.6392C14.5 18.5392 14.7 18.2392 14.8 18.3392Z" fill="#6B5DFF"/>
<path fill-rule="evenodd" clip-rule="evenodd" d="M16.5 18.4392C16.7 18.5392 17 18.5392 17.1 18.7392C17.2 18.8392 17.1 18.9392 17.1 18.9392C16.9 18.9392 16.6 18.8392 16.4 18.8392C16.2 18.6392 16.3 18.3392 16.5 18.4392Z" fill="#6B5DFF"/>
<path fill-rule="evenodd" clip-rule="evenodd" d="M13 13.8392C13 13.5392 12.8 13.3392 12.5 13.2392C12.4 13.2392 12.2 13.2392 12.1 13.3392C12 13.4392 11.8 13.5392 11.7 13.5392C11.6 13.5392 11.5 13.4392 11.5 13.3392C11.5 12.8392 12.3 12.8392 12.7 12.9392C12.9 13.0392 13 13.1392 13.1 13.3392C13.3 13.4392 13.2 13.6392 13 13.8392Z" fill="#6B5DFF"/>
<path fill-rule="evenodd" clip-rule="evenodd" d="M12.8 12.4392C12.7 12.4392 12.7 12.2392 12.8 12.2392C12.9 12.2392 12.9 12.4392 12.8 12.4392Z" fill="#6B5DFF"/>
<path fill-rule="evenodd" clip-rule="evenodd" d="M12.8 12.4392C12.6 12.4392 12.3 12.4392 12.1 12.5392C11.9 12.6392 11.8 12.2392 12 12.1392C12.3 12.0392 12.6 12.0392 12.8 12.2392C13 12.3392 12.9 12.4392 12.8 12.4392Z" fill="#6B5DFF"/>
<path fill-rule="evenodd" clip-rule="evenodd" d="M11.8 12.0392C11.7 12.0392 11.7 12.1392 11.6 12.0392V11.9392C11.6 11.8392 11.7 11.8392 11.8 11.8392C11.9 11.7392 12 12.0392 11.8 12.0392Z" fill="#6B5DFF"/>
<path fill-rule="evenodd" clip-rule="evenodd" d="M11.1 11.8392C11 11.9392 10.9 12.0392 10.8 12.1392C10.8 12.1392 10.7 12.1392 10.6 12.1392V12.0392C10.6 11.9392 10.7 11.9392 10.7 11.9392C10.7 11.9392 10.8 11.8392 10.8 11.7392C10.9 11.4392 11.2 11.6392 11.1 11.8392Z" fill="#6B5DFF"/>
<path fill-rule="evenodd" clip-rule="evenodd" d="M9.69998 11.9392C9.69998 12.0392 9.69998 12.1392 9.59998 12.1392C9.59998 12.2392 9.49999 12.3392 9.39999 12.3392C9.29999 12.4392 9.19998 12.3392 9.19998 12.2392C9.19998 12.1392 9.19998 12.1392 9.19998 12.0392C9.19998 11.9392 9.19998 11.9392 9.19998 11.8392C9.39998 11.7392 9.69998 11.7392 9.69998 11.9392Z" fill="#6B5DFF"/>
<path fill-rule="evenodd" clip-rule="evenodd" d="M9.89998 16.9392C9.29998 16.3392 8.79997 15.7392 8.69997 14.9392C8.59997 14.2392 8.69999 13.3392 9.49999 13.0392C9.59999 13.0392 9.69996 13.1392 9.59996 13.2392C9.49996 13.4392 9.29997 13.6392 9.19997 13.8392C8.99997 14.2392 8.99996 14.6392 9.09996 15.0392C9.19996 15.6392 9.49998 16.5392 9.89998 16.9392Z" fill="#6B5DFF"/>
<path fill-rule="evenodd" clip-rule="evenodd" d="M25.5 15.8392C25.6 16.0392 25.6 16.1392 25.5 16.2392C25.4 16.4392 25.3 16.5392 25.1 16.5392C25 16.5392 25 16.4392 25 16.3392C25 16.2392 25.1 16.1392 25.1 16.0392C25.2 15.9392 25.2 15.8392 25.3 15.7392C25.4 15.6392 25.5 15.7392 25.5 15.8392Z" fill="#6B5DFF"/>
<path fill-rule="evenodd" clip-rule="evenodd" d="M24.9 16.0392C24.9 16.2392 24.8 16.4392 24.6 16.6392C24.5 16.7392 24.3 16.6392 24.4 16.4392C24.5 16.3392 24.6 16.2392 24.6 16.0392C24.6 15.8392 24.9 15.8392 24.9 16.0392Z" fill="#6B5DFF"/>
<path fill-rule="evenodd" clip-rule="evenodd" d="M24.2 16.5392C24.2 16.6392 24.1 16.7392 24 16.8392C23.9 16.9392 23.7 16.9392 23.6 16.9392C23.6 16.9392 23.5 16.8392 23.6 16.8392C23.6 16.6392 23.8 16.6392 23.9 16.4392C23.9 16.2392 24.3 16.3392 24.2 16.5392Z" fill="#6B5DFF"/>
<path fill-rule="evenodd" clip-rule="evenodd" d="M23.3 16.8392C23.2 16.9392 23.2 17.0392 23.1 17.0392C23 17.0392 23 17.0392 23 16.9392C23 16.8392 23.1 16.7392 23.2 16.6392C23.2 16.6392 23.4 16.7392 23.3 16.8392Z" fill="#6B5DFF"/>
<path fill-rule="evenodd" clip-rule="evenodd" d="M25.2 17.5392C25.3 17.6392 25.4 17.6392 25.5 17.7392C25.6 17.7392 25.6 17.8392 25.7 17.8392C25.8 17.8392 25.8 17.9392 25.8 18.0392C25.9 18.1392 25.8 18.2392 25.7 18.2392C25.6 18.2392 25.6 18.2392 25.5 18.2392C25.4 18.2392 25.4 18.1392 25.3 18.1392C25.2 18.0392 25.1 17.9392 25 17.8392C24.9 17.6392 25.1 17.4392 25.2 17.5392Z" fill="#6B5DFF"/>
<path fill-rule="evenodd" clip-rule="evenodd" d="M26.2 17.4392C26.4 17.5392 26.5 17.5392 26.6 17.7392C26.6 17.8392 26.6 17.9392 26.5 17.9392C26.3 17.9392 26.1 17.8392 26 17.8392C25.7 17.7392 25.9 17.3392 26.2 17.4392Z" fill="#6B5DFF"/>
<path fill-rule="evenodd" clip-rule="evenodd" d="M26.9 17.3392C27.1 17.4392 27.4 17.4392 27.6 17.6392V17.7392C27.5 17.8392 27.4 17.7392 27.3 17.7392C27.2 17.7392 27 17.6392 26.9 17.6392C26.6 17.5392 26.7 17.2392 26.9 17.3392Z" fill="#6B5DFF"/>
<path fill-rule="evenodd" clip-rule="evenodd" d="M27.9 17.0392C28 17.0392 28.1 17.1392 28.2 17.1392C28.3 17.1392 28.4 17.1392 28.5 17.2392C28.6 17.3392 28.6 17.4392 28.5 17.4392C28.3 17.5392 28 17.4392 27.8 17.4392C27.6 17.3392 27.7 16.9392 27.9 17.0392Z" fill="#6B5DFF"/>
<path fill-rule="evenodd" clip-rule="evenodd" d="M29.3 16.7392C29.5 16.7392 29.6 16.7392 29.8 16.8392C29.9 16.8392 29.9 16.9392 29.8 17.0392C29.7 17.1392 29.5 17.1392 29.3 17.1392C29.1 17.1392 29.1 16.7392 29.3 16.7392Z" fill="#6B5DFF"/>
<path fill-rule="evenodd" clip-rule="evenodd" d="M41.2 10.1392C41.1 10.1392 41 10.2392 40.9 10.2392C40.8 10.2392 40.7 10.2392 40.6 10.3392C40.4 10.4392 40.2 10.6392 40 10.6392C39.9 10.6392 39.9 10.6392 39.9 10.5392C39.9 10.2392 40.1 10.1392 40.4 10.0392C40.5 9.93919 40.7 9.93919 40.9 9.93919C41 9.83919 41 9.93919 41.2 10.1392Z" fill="#6B5DFF"/>
<path fill-rule="evenodd" clip-rule="evenodd" d="M40.6 10.9392C40.5 10.9392 40.4 10.9392 40.3 11.0392C40.2 11.1392 40.2 11.2392 40 11.2392H39.9C39.8 11.1392 40 10.9392 40.1 10.8392C40.2 10.7392 40.4 10.7392 40.5 10.7392C40.7 10.8392 40.7 10.9392 40.6 10.9392Z" fill="#6B5DFF"/>
<path fill-rule="evenodd" clip-rule="evenodd" d="M40.6 11.9392C40.5 11.9392 40.5 12.0392 40.4 12.0392C40.4 12.0392 40.3 12.0392 40.3 12.1392H40.2C40.2 12.1392 40.1 12.1392 40.1 12.0392C40.1 11.9392 40.2 11.9392 40.2 11.8392C40.3 11.8392 40.4 11.7392 40.5 11.7392C40.6 11.7392 40.7 11.8392 40.6 11.9392Z" fill="#6B5DFF"/>
<path fill-rule="evenodd" clip-rule="evenodd" d="M40.7 12.4392C40.7 12.5392 40.5 12.6392 40.4 12.5392L40.3 12.4392C40.3 12.4392 40.3 12.4392 40.3 12.3392C40.4 12.3392 40.3 12.3392 40.3 12.4392C40.4 12.2392 40.8 12.2392 40.7 12.4392Z" fill="#6B5DFF"/>
<path fill-rule="evenodd" clip-rule="evenodd" d="M34 14.8392C34.3 13.7392 34.9 12.7392 35.4 11.7392C36 10.5392 36.4 9.33919 36.8 8.03919C36.8 7.93919 37 7.93919 37 8.03919C37.1 9.13919 36.6 10.2392 36.1 11.1392C35.5 12.3392 35.1 14.0392 34 14.8392C34 14.9392 34 14.9392 34 14.8392Z" fill="#6B5DFF"/>
<path fill-rule="evenodd" clip-rule="evenodd" d="M41.3 25.5392C41.2 24.8392 40.2 24.1392 39.8 23.5392C39.4 23.0392 38.8 22.5392 38.7 21.9392C38.7 21.8392 38.8 21.7392 38.9 21.8392C39.6 22.2392 40.1 23.2392 40.7 23.8392C41 24.4392 41.3 24.7392 41.3 25.5392Z" fill="#6B5DFF"/>
<path fill-rule="evenodd" clip-rule="evenodd" d="M41.3 27.1392C41.3 27.6392 41.3 28.1392 41.3 28.6392C41.3 29.0392 41.3 29.4392 41.1 29.8392C41 29.9392 40.9 29.9392 40.9 29.7392C40.8 29.3392 41 28.8392 41.1 28.4392C41.2 28.0392 41.2 27.5392 41.2 27.1392C41.1 27.0392 41.3 27.0392 41.3 27.1392Z" fill="#6B5DFF"/>
<path fill-rule="evenodd" clip-rule="evenodd" d="M41.1 18.9392C41.1 18.3392 40.7 18.0392 40.5 17.5392C40.5 17.4392 40.5 17.4392 40.6 17.4392C41.1 17.7392 41.3 18.3392 41.3 18.9392C41.2 19.0392 41.1 19.0392 41.1 18.9392Z" fill="#6B5DFF"/>
<path fill-rule="evenodd" clip-rule="evenodd" d="M41.3 17.8392C41.2 17.5392 41 17.3392 40.9 17.1392C40.8 16.9392 40.5 16.7392 40.5 16.4392C40.5 16.3392 40.6 16.3392 40.6 16.3392C40.8 16.4392 41 16.6392 41.1 16.8392C41.3 17.1392 41.4 17.4392 41.5 17.7392C41.5 17.8392 41.4 17.9392 41.3 17.8392Z" fill="#6B5DFF"/>
<path fill-rule="evenodd" clip-rule="evenodd" d="M41.4 16.3392C41.2 15.9392 40.9 15.4392 40.8 15.0392C40.8 14.9392 40.9 14.9392 40.9 15.0392C41.1 15.4392 41.3 15.9392 41.5 16.3392C41.6 16.3392 41.4 16.4392 41.4 16.3392Z" fill="#6B5DFF"/>
<path fill-rule="evenodd" clip-rule="evenodd" d="M41.3 15.1392C41.2 14.9392 41.2 14.7392 41.1 14.5392C41 14.3392 40.9 14.1392 40.9 13.9392C40.9 13.8392 41 13.7392 41.1 13.8392C41.5 14.0392 41.7 14.7392 41.6 15.1392C41.6 15.2392 41.4 15.2392 41.3 15.1392Z" fill="#6B5DFF"/>
<path fill-rule="evenodd" clip-rule="evenodd" d="M41.3 13.0392C41.3 12.9392 41.3 12.8392 41.3 12.6392C41.3 12.5392 41.2 12.3392 41.2 12.2392C41.2 12.1392 41.3 12.1392 41.3 12.1392C41.6 12.2392 41.7 12.7392 41.7 13.0392C41.7 13.2392 41.4 13.2392 41.3 13.0392Z" fill="#6B5DFF"/>
<path fill-rule="evenodd" clip-rule="evenodd" d="M39.8 16.5392C39.9 15.9392 39.8 15.4392 39.6 14.8392C39.5 14.3392 39.1 13.8392 39.1 13.3392C39.1 13.2392 39.2 13.1392 39.3 13.2392C40 14.0392 40.2 15.4392 40.1 16.5392C40.1 16.7392 39.8 16.7392 39.8 16.5392Z" fill="#6B5DFF"/>
<path fill-rule="evenodd" clip-rule="evenodd" d="M40.5 15.0392C40.3 14.7392 40.2 14.4392 40 14.1392C39.8 13.8392 39.4 13.6392 39.4 13.2392C39.4 13.1392 39.5 13.0392 39.5 13.1392C39.8 13.3392 40 13.7392 40.2 14.0392C40.3 14.3392 40.5 14.6392 40.5 15.0392Z" fill="#6B5DFF"/>
<path fill-rule="evenodd" clip-rule="evenodd" d="M13.3 44.9392C13.3 45.3392 13.3 45.6392 13.3 46.0392C13.3 46.3392 13.3 46.7392 13.1 46.9392C13 47.0392 12.9 47.0392 12.9 46.9392C12.8 46.6392 12.9 46.4392 12.9 46.1392C13 45.7392 13 45.3392 13.1 44.9392C13.1 44.7392 13.3 44.7392 13.3 44.9392Z" fill="#6B5DFF"/>
<path fill-rule="evenodd" clip-rule="evenodd" d="M12.6 45.3392C12.6 45.7392 12.6 46.4392 12.2 46.5392C12.1 46.5392 12.1 46.5392 12 46.4392C11.9 46.2392 12 46.1392 12.1 45.9392C12.2 45.7392 12.2 45.5392 12.2 45.3392C12.2 45.0392 12.6 45.0392 12.6 45.3392Z" fill="#6B5DFF"/>
<path fill-rule="evenodd" clip-rule="evenodd" d="M11.6 45.4392C11.7 45.6392 11.6 46.0392 11.4 46.0392C11.4 46.0392 11.3 46.0392 11.3 45.9392C11.3 45.7392 11.4 45.6392 11.4 45.4392C11.3 45.3392 11.5 45.2392 11.6 45.4392Z" fill="#6B5DFF"/>
<path fill-rule="evenodd" clip-rule="evenodd" d="M10.6 45.2392C10.6 45.4392 10.6 45.6392 10.5 45.7392H10.4C10.2 45.6392 10.3 45.4392 10.3 45.2392C10.2 44.9392 10.6 44.9392 10.6 45.2392Z" fill="#6B5DFF"/>
<path fill-rule="evenodd" clip-rule="evenodd" d="M29.6 70.1392C29 70.0392 28.3 70.0392 27.7 70.0392C27.2 70.0392 26.5 70.3392 26 70.2392C25.9 70.2392 25.9 70.1392 25.9 70.0392C26.2 69.6392 27 69.6392 27.5 69.6392C28.2 69.6392 29 69.7392 29.6 69.9392C29.7 70.0392 29.6 70.1392 29.6 70.1392Z" fill="#6B5DFF"/>
<path fill-rule="evenodd" clip-rule="evenodd" d="M41.4 71.8392C41.3 71.8392 41.1 71.8392 41 71.7392V71.6392C41.1 71.5392 41.3 71.5392 41.4 71.5392C41.5 71.5392 41.5 71.8392 41.4 71.8392Z" fill="#6B5DFF"/>
<path fill-rule="evenodd" clip-rule="evenodd" d="M41.6 72.7392C41.5 72.8392 41.4 72.8392 41.2 72.8392C41.1 72.8392 41.1 72.7392 41.1 72.7392C41.1 72.5392 41.3 72.5392 41.4 72.5392C41.6 72.3392 41.8 72.6392 41.6 72.7392Z" fill="#6B5DFF"/>
<path fill-rule="evenodd" clip-rule="evenodd" d="M41.7 9.53918C41.5 11.7392 41.8 40.7392 41.7 42.9392C41.6 45.7392 41.7 61.9392 41.6 64.5392C41.5 67.1392 41.5 69.6392 41.8 71.9392C41.8 72.3392 41.5 74.2392 41.9 74.6392C42 74.7392 42.7 74.7392 42.7 74.6392C43.3 73.8392 43.1 71.6392 43.2 70.4392C43.4 67.3392 43.3 51.2392 43.3 48.1392C43.3 45.6392 43.2 42.7392 43.1 40.8392C43 38.9392 43.1 10.9392 42.9 9.63919C42.9 9.43919 42.3 9.83918 41.7 9.53918Z" fill="#F0F2FB"/>
<path fill-rule="evenodd" clip-rule="evenodd" d="M42.3 30.4392C42.4 30.8392 42.6 31.2392 42.8 31.6392C42.9 31.9392 43 32.4392 43.4 32.5392C43.5 32.5392 43.5 32.5392 43.5 32.4392C43.7 32.1392 43.5 31.8392 43.3 31.6392C43.1 31.2392 42.8 30.7392 42.7 30.3392C42.6 30.1392 42.3 30.2392 42.3 30.4392Z" fill="#6B5DFF"/>
<path fill-rule="evenodd" clip-rule="evenodd" d="M42.5 32.2392C42.6 32.5392 42.7 32.8392 42.8 33.0392C42.9 33.3392 43.1 33.6392 43.3 33.7392C43.4 33.7392 43.5 33.7392 43.5 33.6392C43.5 33.4392 43.3 33.2392 43.2 33.0392C43 32.7392 42.9 32.4392 42.7 32.1392C42.7 32.0392 42.4 32.0392 42.5 32.2392Z" fill="#6B5DFF"/>
<path fill-rule="evenodd" clip-rule="evenodd" d="M42.4 33.7392C42.7 34.3392 43 35.1392 43.5 35.6392C43.6 35.7392 43.7 35.6392 43.7 35.5392C43.5 34.8392 43.1 34.2392 42.7 33.6392C42.6 33.5392 42.4 33.6392 42.4 33.7392Z" fill="#6B5DFF"/>
<path fill-rule="evenodd" clip-rule="evenodd" d="M42.6 35.5392C42.8 36.0392 42.9 36.5392 43.3 36.8392C43.4 36.9392 43.5 36.8392 43.5 36.7392C43.4 36.2392 43.1 35.8392 43 35.4392C42.9 35.2392 42.6 35.3392 42.6 35.5392Z" fill="#6B5DFF"/>
<path fill-rule="evenodd" clip-rule="evenodd" d="M42.3 30.4392C42.2 30.8392 42 31.2392 41.8 31.6392C41.7 31.9392 41.6 32.4392 41.2 32.5392C41.1 32.5392 41.1 32.5392 41.1 32.4392C40.9 32.1392 41.1 31.8392 41.3 31.6392C41.5 31.2392 41.8 30.7392 41.9 30.3392C42 30.1392 42.4 30.2392 42.3 30.4392Z" fill="#6B5DFF"/>
<path fill-rule="evenodd" clip-rule="evenodd" d="M42.2 32.2392C42.1 32.5392 42 32.8392 41.9 33.0392C41.8 33.3392 41.6 33.6392 41.4 33.7392C41.3 33.7392 41.2 33.7392 41.2 33.6392C41.2 33.4392 41.4 33.2392 41.5 33.0392C41.7 32.7392 41.8 32.4392 42 32.1392C41.9 32.0392 42.2 32.0392 42.2 32.2392Z" fill="#6B5DFF"/>
<path fill-rule="evenodd" clip-rule="evenodd" d="M42.2 33.7392C41.9 34.3392 41.6 35.1392 41.1 35.6392C41 35.7392 40.9 35.6392 41 35.5392C41.2 34.8392 41.6 34.2392 42 33.6392C42 33.5392 42.3 33.6392 42.2 33.7392Z" fill="#6B5DFF"/>
<path fill-rule="evenodd" clip-rule="evenodd" d="M42 35.5392C41.8 36.0392 41.7 36.5392 41.3 36.8392C41.2 36.9392 41.1 36.8392 41.1 36.7392C41.2 36.2392 41.5 35.8392 41.6 35.4392C41.7 35.2392 42.1 35.3392 42 35.5392Z" fill="#6B5DFF"/>
<path fill-rule="evenodd" clip-rule="evenodd" d="M53.6 70.1392C51.8 69.9392 47.3 70.1392 42.7 70.1392C38 70.1392 33.3 69.9392 31.5 70.1392C35.3 70.5392 39 70.9392 42.7 70.9392C46.3 70.9392 49.9 70.5392 53.6 70.1392Z" fill="#6B5DFF"/>
<path fill-rule="evenodd" clip-rule="evenodd" d="M10.1 2.93919L10.6 5.73918L13.5 6.23918L10.6 6.73918L10.1 9.63919L9.69998 6.73918L6.79999 6.23918L9.69998 5.73918L10.1 2.93919Z" fill="#6B5DFF"/>
<path fill-rule="evenodd" clip-rule="evenodd" d="M11.9 4.53918L10.7 6.23918L11.9 8.03918L10.1 6.83919L8.39999 8.03918L9.59998 6.23918L8.39999 4.53918L10.1 5.73918L11.9 4.53918Z" fill="#6B5DFF"/>
<path fill-rule="evenodd" clip-rule="evenodd" d="M53.6 42.1392L54.1 44.9392L56.9 45.4392L54.1 45.9392L53.6 48.7392L53.1 45.9392L50.2 45.4392L53.1 44.9392L53.6 42.1392Z" fill="#6B5DFF"/>
<path fill-rule="evenodd" clip-rule="evenodd" d="M55.3 43.7392L54.1 45.4392L55.3 47.1392L53.6 45.9392L51.9 47.1392L53.1 45.4392L51.9 43.7392L53.6 44.9392L55.3 43.7392Z" fill="#6B5DFF"/>
<path fill-rule="evenodd" clip-rule="evenodd" d="M69.1 0.0391846L69.6 2.93919L72.4 3.43919L69.6 3.93919L69.1 6.73918L68.6 3.93919L65.8 3.43919L68.6 2.93919L69.1 0.0391846Z" fill="#6B5DFF"/>
<path fill-rule="evenodd" clip-rule="evenodd" d="M70.8 1.73918L69.6 3.43919L70.8 5.13919L69.1 3.93919L67.4 5.13919L68.6 3.43919L67.4 1.73918L69.1 2.93919L70.8 1.73918Z" fill="#6B5DFF"/>
</svg>
