<svg width="84" height="119" viewBox="0 0 84 119" fill="none" xmlns="http://www.w3.org/2000/svg">
<path d="M60.9598 16.8784L57.7749 20.0633" stroke="#F45279" stroke-miterlimit="10" stroke-linecap="round" stroke-linejoin="round"/>
<path d="M60.9598 20.0633L57.7749 16.8784" stroke="#F45279" stroke-miterlimit="10" stroke-linecap="round" stroke-linejoin="round"/>
<path d="M59.4824 15.6321V21.3096" stroke="#F45279" stroke-miterlimit="10" stroke-linecap="round" stroke-linejoin="round"/>
<path d="M62.3445 18.4939H56.667" stroke="#F45279" stroke-miterlimit="10" stroke-linecap="round" stroke-linejoin="round"/>
<path d="M54.8668 35.5264L51.728 38.6651" stroke="#F45279" stroke-miterlimit="10" stroke-linecap="round" stroke-linejoin="round"/>
<path d="M54.8668 38.6651L51.728 35.5264" stroke="#F45279" stroke-miterlimit="10" stroke-linecap="round" stroke-linejoin="round"/>
<path d="M53.436 34.2339V39.9575" stroke="#F45279" stroke-miterlimit="10" stroke-linecap="round" stroke-linejoin="round"/>
<path d="M56.2973 37.0957H50.5737" stroke="#F45279" stroke-miterlimit="10" stroke-linecap="round" stroke-linejoin="round"/>
<path d="M27.4488 19.0017L24.3101 22.1866" stroke="#F45279" stroke-miterlimit="10" stroke-linecap="round" stroke-linejoin="round"/>
<path d="M27.4488 22.1866L24.3101 19.0017" stroke="#F45279" stroke-miterlimit="10" stroke-linecap="round" stroke-linejoin="round"/>
<path d="M26.0181 17.7554V23.4328" stroke="#F45279" stroke-miterlimit="10" stroke-linecap="round" stroke-linejoin="round"/>
<path d="M28.8794 20.571H23.1558" stroke="#F45279" stroke-miterlimit="10" stroke-linecap="round" stroke-linejoin="round"/>
<path d="M44.0659 24.2638C44.0659 24.2638 44.9429 22.8329 44.9891 23.7561C45.0352 24.6331 43.0043 32.5262 41.0195 32.1107C39.8655 31.8338 44.0659 24.2638 44.0659 24.2638Z" stroke="#F45279" stroke-width="2" stroke-miterlimit="10" stroke-linecap="round" stroke-linejoin="round"/>
<path d="M44.8504 25.0021C44.8504 25.0021 50.7587 21.7249 51.9126 24.0789C53.0666 26.433 49.974 28.9255 48.22 28.0947C46.466 27.2177 51.5434 25.7868 51.2664 27.8177C50.9895 29.8487 46.0044 36.7263 42.4502 31.1873" stroke="#F45279" stroke-width="2" stroke-miterlimit="10" stroke-linecap="round" stroke-linejoin="round"/>
<path d="M43.2349 25.4639C43.2349 25.4639 40.6039 15.5399 37.6959 17.3862C34.7879 19.2326 35.988 24.1254 39.2653 24.0792C42.5425 24.033 40.927 20.5712 38.019 22.1405C35.1572 23.7099 33.8186 26.1102 34.0494 28.095C34.2802 30.0798 36.3111 32.6185 40.7885 30.9568" stroke="#F45279" stroke-width="2" stroke-miterlimit="10" stroke-linecap="round" stroke-linejoin="round"/>
<path d="M44.9888 23.5253C44.9888 23.5253 47.6198 20.7096 49.3277 20.2942" stroke="#F45279" stroke-width="2" stroke-miterlimit="10" stroke-linecap="round" stroke-linejoin="round"/>
<path d="M44.5732 23.525C44.5732 23.525 45.2656 18.3553 47.1119 17.386" stroke="#F45279" stroke-width="2" stroke-miterlimit="10" stroke-linecap="round" stroke-linejoin="round"/>
<path d="M37.788 44.7117C37.788 44.7117 37.6957 44.0655 38.4804 44.4348C39.2651 44.804 42.4038 50.5277 42.2192 50.9893C42.0346 51.4508 41.5268 50.5277 41.0652 50.0661C40.6498 49.5583 37.788 44.7117 37.788 44.7117Z" stroke="#F45279" stroke-width="2" stroke-miterlimit="10" stroke-linecap="round" stroke-linejoin="round"/>
<path d="M38.4346 44.4349C38.4807 44.1117 38.9885 37.1418 42.7273 37.8342C46.4661 38.5266 46.6969 45.5888 42.5888 45.358C42.5888 45.358 41.0194 45.1734 42.3119 44.1117C43.6043 43.0501 46.4199 42.8655 46.7892 45.3119C47.2046 47.8044 46.0507 52.1433 41.5733 49.2815" stroke="#F45279" stroke-width="2" stroke-miterlimit="10" stroke-linecap="round" stroke-linejoin="round"/>
<path d="M37.8803 44.2963C37.8803 44.2963 34.0491 39.7727 36.5878 38.4342C36.5878 38.4342 37.3264 38.0187 37.5572 39.4035C37.7879 40.7882 37.9264 41.8037 37.9264 41.8037C37.9264 41.8037 38.2957 39.3112 39.542 39.9112" stroke="#F45279" stroke-width="2" stroke-miterlimit="10" stroke-linecap="round" stroke-linejoin="round"/>
<path d="M37.7882 44.7118C37.7882 44.7118 35.388 42.4038 32.48 41.573" stroke="#F45279" stroke-width="2" stroke-miterlimit="10" stroke-linecap="round" stroke-linejoin="round"/>
<path d="M37.6033 44.5271C37.6033 44.5271 33.4952 42.2653 30.9565 44.9425" stroke="#F45279" stroke-width="2" stroke-miterlimit="10" stroke-linecap="round" stroke-linejoin="round"/>
<path d="M82.7002 117.273H1V41.8501C1 19.2787 19.2787 1 41.8501 1C64.4215 1 82.7002 19.2787 82.7002 41.8501V117.273Z" stroke="#F45279" stroke-width="2" stroke-miterlimit="10" stroke-linecap="round" stroke-linejoin="round"/>
<path d="M65.3444 53.9435C63.0365 53.4819 60.7747 52.2356 58.3745 52.1895" stroke="#F45279" stroke-width="2" stroke-miterlimit="10" stroke-linecap="round" stroke-linejoin="round"/>
<path d="M69.7296 60.8671C70.5143 57.359 70.2835 52.7894 69.7758 49.2352C69.5911 48.0351 69.2219 47.0657 68.2064 46.3272C67.5602 45.8195 66.6832 46.0503 66.2677 46.7888C65.6215 47.9427 65.76 49.466 65.7138 50.7584C65.6215 52.2355 65.483 53.851 64.883 55.1896C64.2368 56.5282 63.3136 57.7283 62.1135 58.6053C61.4673 59.1131 60.7287 59.4823 59.944 59.7593C56.3437 61.0979 53.7588 62.7596 52.1895 66.4522" stroke="#F45279" stroke-width="2" stroke-miterlimit="10" stroke-linecap="round" stroke-linejoin="round"/>
<path d="M69.3604 47.6198C69.4065 42.4963 69.1757 36.9111 68.9449 31.8337C68.8988 31.1413 68.668 29.5719 67.8371 29.2488C66.637 28.7873 66.4062 31.6952 66.1754 32.4338C65.8985 33.2184 65.7138 34.0493 65.5292 34.8801C65.2061 36.4957 64.9753 38.1574 64.883 39.7729C64.606 43.0963 64.4214 45.8658 64.0983 49.1892C64.006 50.297 63.9598 51.6356 62.9443 53.2973" stroke="#F45279" stroke-width="2" stroke-miterlimit="10" stroke-linecap="round" stroke-linejoin="round"/>
<path d="M64.329 46.1426C64.0521 43.1884 63.6367 39.6343 63.3136 36.6801C63.2212 35.7108 63.1751 34.0953 61.8365 34.6953C61.5134 34.8338 61.2826 35.1107 61.098 35.4338C60.4056 36.634 60.4979 38.2033 60.4517 39.5419C60.3133 44.0193 61.0518 47.8504 59.4824 52.1893" stroke="#F45279" stroke-width="2" stroke-miterlimit="10" stroke-linecap="round" stroke-linejoin="round"/>
<path d="M70.053 51.6817C71.5301 45.8196 70.6992 40.0959 72.1763 34.1415C72.4994 32.7568 73.1456 32.7106 73.6072 34.0954C75.4997 39.6805 74.8073 45.4041 74.8534 51.0816C74.8534 51.7278 74.8534 52.374 74.8534 53.0203C74.8534 53.7126 74.8073 54.4512 74.6226 55.0974C74.4842 55.5128 74.3919 55.9282 74.2072 56.3898C73.9303 57.1745 73.561 57.9592 73.1918 58.6977C70.653 63.5905 66.0372 67.0524 62.8061 71.4374C58.7904 76.9303 57.8672 82.0077 59.4366 88.3775C59.8059 89.8546 60.5444 91.6548 60.5444 93.178C60.4982 94.7474 60.0366 94.7012 58.4211 94.7012C54.8207 94.655 46.0507 92.5318 46.2353 90.1777C46.4661 86.9466 47.5739 79.2382 47.3431 76.0071C47.1585 73.4222 47.1123 72.8222 46.7431 70.2835C45.3583 60.3133 56.067 57.1745 56.9902 48.1275C57.2671 45.4965 57.4518 39.6805 57.4979 39.2189C57.5902 38.2035 59.0211 37.4188 59.4827 38.3419C59.7135 38.8035 60.4059 40.4652 60.4059 40.8806" stroke="#F45279" stroke-width="2" stroke-miterlimit="10" stroke-linecap="round" stroke-linejoin="round"/>
<path d="M20.1558 53.9435C22.4637 53.4819 24.7255 52.2356 27.1257 52.1895" stroke="#F45279" stroke-width="2" stroke-miterlimit="10" stroke-linecap="round" stroke-linejoin="round"/>
<path d="M15.7704 60.8671C14.9857 57.359 15.2165 52.7894 15.7243 49.2352C15.9089 48.0351 16.2782 47.0657 17.2936 46.3272C17.9399 45.8195 18.8169 46.0503 19.2323 46.7888C19.8785 47.9427 19.7401 49.466 19.7862 50.7584C19.8785 52.2355 20.017 53.851 20.6171 55.1896C21.2633 56.5282 22.1864 57.7283 23.3866 58.6053C24.0328 59.1131 24.7713 59.4823 25.556 59.7593C29.1563 61.0979 31.7412 62.7596 33.3106 66.4522" stroke="#F45279" stroke-width="2" stroke-miterlimit="10" stroke-linecap="round" stroke-linejoin="round"/>
<path d="M16.1397 47.6198C16.0936 42.4963 16.3244 36.9111 16.5552 31.8337C16.6013 31.1413 16.8321 29.5719 17.663 29.2488C18.8631 28.7873 19.0939 31.6952 19.3247 32.4338C19.6016 33.2184 19.7863 34.0493 19.9709 34.8801C20.294 36.4957 20.5248 38.1574 20.6171 39.7729C20.894 43.0963 21.0787 45.8658 21.4018 49.1892C21.4941 50.297 21.5403 51.6356 22.5557 53.2973" stroke="#F45279" stroke-width="2" stroke-miterlimit="10" stroke-linecap="round" stroke-linejoin="round"/>
<path d="M21.1714 46.1426C21.4483 43.1884 21.8638 39.6343 22.1869 36.6801C22.2792 35.7108 22.3254 34.0953 23.6639 34.6953C23.9871 34.8338 24.2178 35.1107 24.4025 35.4338C25.0948 36.634 25.0025 38.2033 25.0487 39.5419C25.1872 44.0193 24.4486 47.8504 26.018 52.1893" stroke="#F45279" stroke-width="2" stroke-miterlimit="10" stroke-linecap="round" stroke-linejoin="round"/>
<path d="M15.4476 51.6817C13.9705 45.8196 14.8014 40.0959 13.3243 34.1415C13.0012 32.7568 12.355 32.7106 11.8934 34.0954C10.001 39.6805 10.6933 45.4041 10.6472 51.0816C10.6472 51.7278 10.6472 52.374 10.6472 53.0203C10.6472 53.7126 10.6933 54.4512 10.878 55.0974C11.0164 55.5128 11.1087 55.9282 11.2934 56.3898C11.5703 57.1745 11.9396 57.9592 12.3088 58.6977C14.8476 63.5905 19.4634 67.0524 22.6945 71.4374C26.7102 76.9303 27.6334 82.0077 26.064 88.3775C25.6948 89.8546 24.9562 91.6548 24.9562 93.178C25.0024 94.7474 25.464 94.7012 27.0795 94.7012C30.6799 94.655 39.4499 92.5318 39.2653 90.1777C39.0345 86.9466 37.9267 79.2382 38.1575 76.0071C38.3421 73.4222 38.3883 72.8222 38.7576 70.2835C40.1423 60.3133 29.4336 57.1745 28.5104 48.1275C28.2335 45.4965 28.0488 39.6805 28.0027 39.2189C27.9104 38.2035 26.4795 37.4188 26.0179 38.3419C25.7871 38.8035 25.0947 40.4652 25.0947 40.8806" stroke="#F45279" stroke-width="2" stroke-miterlimit="10" stroke-linecap="round" stroke-linejoin="round"/>
</svg>
