<svg width="72" height="102" viewBox="0 0 72 102" fill="none" xmlns="http://www.w3.org/2000/svg">
<path d="M47.1074 64.4591C49.2942 63.964 50.8209 62.8087 52.7601 61.8184C54.7406 60.8282 56.3498 60.0855 57.8765 58.4763C60.806 55.3818 63.1578 51.7508 66.0461 48.6563L70.1722 42.9623C70.3372 42.756 70.5023 42.5084 70.6261 42.3021C71.5338 40.6517 69.4295 38.96 67.9854 40.1978L67.3252 40.7754" stroke="#F45279" stroke-width="2" stroke-miterlimit="10" stroke-linecap="round" stroke-linejoin="round"/>
<path d="M48.51 57.9811C49.129 57.5273 49.9542 57.0321 50.6144 56.6608C57.7112 52.4109 60.5995 47.9135 66.706 42.1783C68.1502 40.8167 66.6648 38.5061 64.8493 39.2075C58.6602 41.6006 55.8957 47.831 49.2115 49.5227C48.345 49.9766 42.3622 51.8746 40.2166 52.2872C39.3502 52.4522 37.9885 52.4109 37.5759 51.5445C37.1633 50.7193 37.6585 49.894 38.1536 49.2339C38.69 48.5324 41.537 46.1393 42.2797 45.6854C43.0636 45.1903 46.0757 43.6224 46.5295 43.0035C46.9834 42.4258 48.0149 41.6006 47.3547 40.8167C46.7771 40.1152 45.7868 40.5691 45.0854 40.7341C44.3427 40.8992 43.6 41.023 42.8986 41.2293C39.7628 42.1783 36.7507 43.87 33.8625 45.9743C32.9135 46.6757 31.9645 47.4184 31.0567 48.2023C27.3845 51.2144 24.6201 55.0516 22.1032 59.0952C21.4842 60.0854 20.8653 61.1169 20.2464 62.1485C16.698 69.4929 11.6229 75.9708 5.92894 81.6648C5.92894 81.6648 -1.62177 86.9462 1.96791 90.9485C6.75416 95.5697 11.3754 99.4894 17.8533 100.727C18.596 100.851 19.2974 100.356 19.38 99.6545C20.2052 93.2591 22.8459 86.3685 28.7874 82.7788C29.8189 82.3662 30.8917 81.9949 31.9645 81.5823C37.2459 79.643 42.486 77.7863 47.2722 74.733C50.1605 72.9175 61.5484 62.7261 60.1456 61.7359C60.1456 61.7359 59.4029 60.9932 58.0413 62.1072" stroke="#F45279" stroke-width="2" stroke-miterlimit="10"/>
<path d="M61.3421 54.3502C61.7547 54.2677 63.9415 52.3284 64.5604 52.741C65.2206 53.1536 64.7255 54.474 64.4779 54.8453C63.6939 56.2482 62.8275 57.3622 61.7547 58.5588C61.3008 59.0539 59.6917 60.6631 59.1965 61.0757C58.0412 61.9834 57.051 62.9737 55.7719 63.7576C55.2355 64.0877 51.6045 66.976 50.8619 67.5123C50.4492 67.8012 49.9954 68.2138 49.5415 68.4614" stroke="#F45279" stroke-width="2" stroke-miterlimit="10"/>
<path d="M50.6142 26.4578C54.283 26.4578 57.2572 23.4837 57.2572 19.8149C57.2572 16.146 54.283 13.1719 50.6142 13.1719C46.9454 13.1719 43.9712 16.146 43.9712 19.8149C43.9712 23.4837 46.9454 26.4578 50.6142 26.4578Z" stroke="#F45279" stroke-width="2" stroke-miterlimit="10"/>
<path d="M49.4178 19.8149C49.4178 17.0916 51.027 14.781 53.3789 13.7495C52.5537 13.3782 51.6047 13.1719 50.6557 13.1719C46.9835 13.1719 44.0127 16.1427 44.0127 19.8149C44.0127 23.4871 46.9835 26.4578 50.6557 26.4578C51.6047 26.4578 52.5124 26.2515 53.3376 25.8802C51.027 24.8074 49.4178 22.4968 49.4178 19.8149Z" fill="#F45279" stroke="#F45279" stroke-width="0.3634" stroke-miterlimit="10"/>
<path d="M54.5757 31.6567L57.3402 38.5473" stroke="#F45279" stroke-width="2" stroke-miterlimit="10"/>
<path d="M46.6531 31.2854L43.9712 38.5886" stroke="#F45279" stroke-width="2" stroke-miterlimit="10"/>
<path d="M50.2842 8.6745L50.0366 1" stroke="#F45279" stroke-width="2" stroke-miterlimit="10"/>
<path d="M57.8765 11.3152L62.704 5.20862" stroke="#F45279" stroke-width="2" stroke-miterlimit="10"/>
<path d="M62.3735 18.0819L69.6767 16.6791" stroke="#F45279" stroke-width="2" stroke-miterlimit="10"/>
<path d="M61.1772 26.2928L67.5314 29.8825" stroke="#F45279" stroke-width="2" stroke-miterlimit="10"/>
<path d="M41.0417 25.7977L33.7798 29.9238" stroke="#F45279" stroke-width="2" stroke-miterlimit="10"/>
<path d="M39.8454 18.3295L31.5933 16.7203" stroke="#F45279" stroke-width="2" stroke-miterlimit="10"/>
<path d="M43.7653 11.8516L38.4839 5.24988" stroke="#F45279" stroke-width="2" stroke-miterlimit="10"/>
<path d="M53.1313 11.2739L54.823 5.41492" stroke="#F45279" stroke-width="2" stroke-miterlimit="10"/>
<path d="M58.2476 15.1524L63.4052 11.7278" stroke="#F45279" stroke-width="2" stroke-miterlimit="10"/>
<path d="M59.9805 21.3828L65.8395 22.0843" stroke="#F45279" stroke-width="2" stroke-miterlimit="10"/>
<path d="M57.0513 27.3243L61.0123 31.5742" stroke="#F45279" stroke-width="2" stroke-miterlimit="10"/>
<path d="M50.7793 29.7588L51.1507 35.6591" stroke="#F45279" stroke-width="2" stroke-miterlimit="10"/>
<path d="M44.8378 27.5308L41.0005 32.3995" stroke="#F45279" stroke-width="2" stroke-miterlimit="10"/>
<path d="M41.9496 22.0017L35.3892 23.3633" stroke="#F45279" stroke-width="2" stroke-miterlimit="10"/>
<path d="M42.8575 16.0189L36.9985 12.8005" stroke="#F45279" stroke-width="2" stroke-miterlimit="10"/>
<path d="M47.396 12.0579L45.0029 5.78625" stroke="#F45279" stroke-width="2" stroke-miterlimit="10"/>
</svg>
