<svg width="95" height="111" viewBox="0 0 95 111" fill="none" xmlns="http://www.w3.org/2000/svg">
<path d="M16.8967 10.3516C16.7692 10.3091 8.31086 8.86398 4.698 8.22641C4.01793 8.0989 3.80541 7.2488 4.27295 6.78126C5.20805 5.88867 6.44068 5.3786 7.7158 5.3361C13.1564 5.20859 28.2029 4.86855 31.7307 4.27349C31.7307 4.27349 35.0036 3.84845 36.5337 4.06097" stroke="#F45279" stroke-width="2" stroke-miterlimit="10" stroke-linecap="round" stroke-linejoin="round"/>
<path d="M35.1316 9.50164C35.1316 9.50164 19.5325 9.45913 17.4923 10.0542C15.8346 10.5217 5.63358 17.79 1.68068 20.6377C1.04312 21.1053 1.17063 22.1254 1.9357 22.3804L2.10572 22.4229C2.78579 22.678 3.50837 22.6354 4.14593 22.3379C7.41876 20.8503 17.6623 16.1748 19.5325 15.9623C21.7427 15.7498 31.4762 16.2598 31.4762 16.2598" stroke="#F45279" stroke-width="2" stroke-miterlimit="10" stroke-linecap="round" stroke-linejoin="round"/>
<path d="M29.4783 16.2165C26.8005 19.3193 23.4427 22.7197 20.5949 25.6525C20.4249 25.8225 20.0848 26.1625 20.0848 26.5026C19.9148 32.0281 20.7649 37.7662 19.4048 43.2918C19.2348 44.1419 19.5748 44.6944 20.0848 44.5244C21.275 44.3544 22.2526 43.2918 22.5926 42.1016C22.7626 41.5916 24.1227 36.9161 24.7603 35.0034C24.9303 34.4934 25.9504 28.2453 27.7781 26.5026C29.6483 24.2499 32.1561 22.6772 34.6638 21.317C36.024 20.637 37.6816 20.807 39.0418 21.317C41.2095 22.3372 42.7396 24.4199 43.7597 26.6726C44.2698 28.0752 44.4398 29.4354 44.2698 30.838C43.9298 32.4107 42.5696 33.2608 41.252 33.7708C35.5139 35.5135 30.3284 38.1063 24.9303 40.529C23.4002 41.3791 22.2526 42.7817 22.2526 44.6944C22.4226 46.4371 24.4203 46.4371 25.7804 46.2671C28.3732 45.8845 29.9883 45.587 32.1561 45.0344C32.3261 45.0344 35.5139 44.1843 36.874 43.8018C37.8941 43.2918 67.4771 36.0235 79.2508 27.0126C80.2709 26.1625 86.9866 17.8317 89.1543 14.0063C89.4944 13.6663 92.6822 8.48074 93.9998 6.39803L78.7833 1C76.7431 5.54796 72.1951 7.97069 67.6897 8.82078C65.8195 9.33083 64.1618 9.50085 62.2916 9.33083C60.9315 9.16081 40.2319 2.31762 40.0619 2.31762C36.364 1.63755 28.2882 1.21252 27.7781 1.21252C23.0601 0.872487 18.5122 1.72257 13.8367 2.06261C13.4967 2.06261 13.1566 2.40264 12.9866 2.91269C12.8591 3.38024 12.9016 4.06029 13.1566 4.27281C13.3267 4.44283 13.7942 4.61287 14.0492 4.61287L20.4249 4.95289" stroke="#F45279" stroke-width="2" stroke-miterlimit="10" stroke-linecap="round" stroke-linejoin="round"/>
<path d="M55.1938 97.7395C55.1938 97.7395 46.0553 92.6815 40.5298 92.0439" stroke="#F45279" stroke-width="2" stroke-miterlimit="10" stroke-linecap="round" stroke-linejoin="round"/>
<path d="M21.7003 66.7112C21.7853 66.2862 11.4567 69.389 6.73877 78.5274" stroke="#F45279" stroke-width="2" stroke-miterlimit="10" stroke-linecap="round" stroke-linejoin="round"/>
<path d="M21.7847 109.768C21.7847 109.768 21.7847 88.6861 21.7847 64.0761C21.7847 49.1571 22.0397 45.5017 22.6348 42.2714C23.0173 40.1887 24.2499 38.276 26.0351 37.1284C27.6503 36.1083 29.733 35.6407 31.6882 37.6809C35.6411 41.7614 35.3435 54.3001 35.3435 54.3001" stroke="#F45279" stroke-width="2" stroke-miterlimit="10" stroke-linecap="round" stroke-linejoin="round"/>
<path d="M23.1027 92.8094C22.9326 92.5969 27.5656 84.0111 36.534 83.6285C40.1894 83.4585 43.7598 84.8186 46.5225 87.1988C49.7954 90.0041 55.1084 95.0196 55.1509 97.7399C55.1509 97.7399 48.6052 90.1317 42.1871 91.4918C35.8114 92.8519 32.0286 102.543 23.1027 92.8094Z" stroke="#F45279" stroke-width="2" stroke-miterlimit="10" stroke-linecap="round" stroke-linejoin="round"/>
<path d="M18.9797 67.2642C18.9797 67.2642 -1.03981 66.5841 1.17041 90.174C1.25542 91.1516 2.19052 91.8317 3.16811 91.6617C8.14112 90.6841 21.955 86.2636 18.9797 67.2642Z" stroke="#F45279" stroke-width="2" stroke-miterlimit="10" stroke-linecap="round" stroke-linejoin="round"/>
<path d="M23.2724 57.4033C23.2724 57.4033 26.6728 59.7836 32.7934 61.8238C41.1242 64.5866 44.5671 75.4251 41.4642 82.2683C41.4642 82.2683 40.5292 76.7428 34.8336 75.8502C29.0955 74.9576 23.0174 70.2821 23.2724 57.4033Z" stroke="#F45279" stroke-width="2" stroke-miterlimit="10" stroke-linecap="round" stroke-linejoin="round"/>
<path d="M20.4673 51.1119C20.4673 51.1119 10.0538 46.0539 5.59082 58.8902C5.59082 58.8902 14.2617 62.7156 20.4673 51.1119Z" stroke="#F45279" stroke-width="2" stroke-miterlimit="10" stroke-linecap="round" stroke-linejoin="round"/>
<path d="M21.7847 93.7868C21.7847 93.7868 30.2005 84.8609 41.4217 89.3238" stroke="#F45279" stroke-width="2" stroke-miterlimit="10" stroke-linecap="round" stroke-linejoin="round"/>
<path d="M22.0825 56.5103C22.0825 56.5103 33.4737 65.3087 35.8539 71.3443" stroke="#F45279" stroke-width="2" stroke-miterlimit="10" stroke-linecap="round" stroke-linejoin="round"/>
<path d="M21.8273 50.6025C21.8273 50.6025 13.454 52.3877 11.0737 56.2981" stroke="#F45279" stroke-width="2" stroke-miterlimit="10" stroke-linecap="round" stroke-linejoin="round"/>
</svg>
