<svg width="106" height="102" viewBox="0 0 106 102" fill="none" xmlns="http://www.w3.org/2000/svg">
<path d="M74.4771 86.5401C81.2568 83.5904 87.9926 79.276 91.2504 72.4522C91.3825 72.188 91.4265 71.8359 91.3825 71.5277C91.3825 71.5277 91.3825 71.5277 91.3825 71.4836C91.2064 70.6912 90.414 70.2069 89.6215 70.383C85.8794 71.2195 82.6656 73.3767 79.804 75.9301" stroke="#F45279" stroke-width="2" stroke-miterlimit="10" stroke-linecap="round" stroke-linejoin="round"/>
<path d="M80.2884 75.5339C81.301 73.0244 85.7034 69.0622 83.7223 65.6723C82.7538 63.9994 80.9928 65.4963 80.0683 66.3327C77.1626 69.3264 75.8419 73.3767 71.4395 74.9175" stroke="#F45279" stroke-width="2" stroke-miterlimit="10" stroke-linecap="round" stroke-linejoin="round"/>
<path d="M70.6028 74.7415C72.0996 72.7604 74.3008 70.5592 74.697 68.0498C75.3574 63.9115 69.0619 68.7982 68.0493 69.5906C65.9362 71.2636 63.867 73.5089 61.2695 74.4774" stroke="#F45279" stroke-width="2" stroke-miterlimit="10" stroke-linecap="round" stroke-linejoin="round"/>
<path d="M64.9678 84.5149C68.7979 86.0117 73.2884 86.2759 77.779 87.0243C80.5085 87.2004 87.0681 84.0306 87.5084 83.5904C92.7033 80.7728 96.9737 77.4269 102.477 76.4144C102.741 76.4144 103.005 76.4144 103.313 76.4144C104.502 76.3703 105.206 77.6911 104.546 78.6596C104.326 79.0118 104.018 79.32 103.621 79.6722C96.0492 86.3199 87.7285 90.7224 79.0117 94.5965C78.7035 94.7286 78.3953 94.7726 78.0871 94.8167C61.4458 94.9928 44.9806 92.6154 28.3393 92.8355C19.7105 92.7035 11.786 96.2695 4.03768 100.76L1 78.1754C6.10686 77.7791 11.2577 78.0433 16.2766 76.6345C16.4967 76.5905 16.7168 76.5024 16.9369 76.3704C27.3267 71.2195 36.3078 68.0057 45.2448 69.7667C49.6472 70.6471 53.4774 73.2006 57.8798 74.0371C62.2383 74.8295 66.7288 74.3892 71.1312 74.8295C73.7727 75.0936 76.4582 75.4458 79.0997 75.9301C80.0682 76.1062 85.7474 76.7226 86.0996 77.559C86.3638 78.1754 86.2317 78.9238 85.7474 79.364C84.1625 80.8609 81.8292 81.4772 79.4519 82.0936C70.735 83.3262 62.4584 85.0432 53.8736 84.9552C51.1441 85.2193 48.4145 85.4834 46.1253 86.496" stroke="#F45279" stroke-width="2" stroke-miterlimit="10" stroke-linecap="round" stroke-linejoin="round"/>
<path d="M58.8926 56.6472L62.9429 66.7729" stroke="#F45279" stroke-width="2" stroke-miterlimit="10" stroke-linecap="round"/>
<path d="M47.3142 56.0747L43.396 66.7727" stroke="#F45279" stroke-width="2" stroke-miterlimit="10" stroke-linecap="round"/>
<path d="M52.5968 23.0564L52.2446 11.8301" stroke="#F45279" stroke-width="2" stroke-miterlimit="10" stroke-linecap="round"/>
<path d="M63.6909 26.8864L70.8229 17.9934" stroke="#F45279" stroke-width="2" stroke-miterlimit="10" stroke-linecap="round"/>
<path d="M70.2949 36.8361L80.9489 34.7229" stroke="#F45279" stroke-width="2" stroke-miterlimit="10" stroke-linecap="round"/>
<path d="M68.5337 48.8547L77.8229 54.0496" stroke="#F45279" stroke-width="2" stroke-miterlimit="10" stroke-linecap="round"/>
<path d="M39.1252 48.1062L28.4712 54.1376" stroke="#F45279" stroke-width="2" stroke-miterlimit="10" stroke-linecap="round"/>
<path d="M37.3646 37.1442L25.2578 34.855" stroke="#F45279" stroke-width="2" stroke-miterlimit="10" stroke-linecap="round"/>
<path d="M43.0877 27.6789L35.3394 18.0815" stroke="#F45279" stroke-width="2" stroke-miterlimit="10" stroke-linecap="round"/>
<path d="M56.7793 26.8425L56.9114 26.3142" stroke="#F45279" stroke-width="2" stroke-miterlimit="10" stroke-linecap="round"/>
<path d="M57.2197 25.2134L58.9367 19.3582" stroke="#F45279" stroke-width="2" stroke-miterlimit="10" stroke-linecap="round" stroke-dasharray="2.53 2.53"/>
<path d="M59.0688 18.8299L59.245 18.2576" stroke="#F45279" stroke-width="2" stroke-miterlimit="10" stroke-linecap="round"/>
<path d="M64.2192 32.4776L64.7035 32.1694" stroke="#F45279" stroke-width="2" stroke-miterlimit="10" stroke-linecap="round"/>
<path d="M65.6724 31.5531L70.8673 28.1191" stroke="#F45279" stroke-width="2" stroke-miterlimit="10" stroke-linecap="round" stroke-dasharray="2.57 2.57"/>
<path d="M71.3076 27.8111L71.7919 27.5029" stroke="#F45279" stroke-width="2" stroke-miterlimit="10" stroke-linecap="round"/>
<path d="M66.8169 41.6348L67.3892 41.6788" stroke="#F45279" stroke-width="2" stroke-miterlimit="10" stroke-linecap="round"/>
<path d="M68.4458 41.8108L74.3011 42.5152" stroke="#F45279" stroke-width="2" stroke-miterlimit="10" stroke-linecap="round" stroke-dasharray="2.43 2.43"/>
<path d="M74.8296 42.6033L75.4019 42.6473" stroke="#F45279" stroke-width="2" stroke-miterlimit="10" stroke-linecap="round"/>
<path d="M62.5464 50.3076L62.9426 50.7479" stroke="#F45279" stroke-width="2" stroke-miterlimit="10" stroke-linecap="round"/>
<path d="M63.647 51.4961L67.5652 55.7224" stroke="#F45279" stroke-width="2" stroke-miterlimit="10" stroke-linecap="round" stroke-dasharray="2.38 2.38"/>
<path d="M67.9175 56.1187L68.3137 56.5589" stroke="#F45279" stroke-width="2" stroke-miterlimit="10" stroke-linecap="round"/>
<path d="M53.3013 53.8735L53.3453 54.4459" stroke="#F45279" stroke-width="2" stroke-miterlimit="10" stroke-linecap="round"/>
<path d="M53.4336 55.5024L53.8298 61.4018" stroke="#F45279" stroke-width="2" stroke-miterlimit="10" stroke-linecap="round" stroke-dasharray="2.44 2.44"/>
<path d="M53.8735 61.9302L53.9176 62.5025" stroke="#F45279" stroke-width="2" stroke-miterlimit="10" stroke-linecap="round"/>
<path d="M44.6726 50.6157L44.2764 51.056" stroke="#F45279" stroke-width="2" stroke-miterlimit="10" stroke-linecap="round"/>
<path d="M43.6158 51.9365L39.7856 56.8232" stroke="#F45279" stroke-width="2" stroke-miterlimit="10" stroke-linecap="round" stroke-dasharray="2.57 2.57"/>
<path d="M39.4337 57.3074L39.0815 57.7476" stroke="#F45279" stroke-width="2" stroke-miterlimit="10" stroke-linecap="round"/>
<path d="M40.4019 42.5151L39.8296 42.6472" stroke="#F45279" stroke-width="2" stroke-miterlimit="10" stroke-linecap="round"/>
<path d="M38.6413 42.9114L32.0376 44.2761" stroke="#F45279" stroke-width="2" stroke-miterlimit="10" stroke-linecap="round" stroke-dasharray="2.79 2.79"/>
<path d="M31.4209 44.3643L30.8486 44.4963" stroke="#F45279" stroke-width="2" stroke-miterlimit="10" stroke-linecap="round"/>
<path d="M41.767 33.7983L41.2827 33.5342" stroke="#F45279" stroke-width="2" stroke-miterlimit="10" stroke-linecap="round"/>
<path d="M40.1821 32.9177L34.2388 29.6599" stroke="#F45279" stroke-width="2" stroke-miterlimit="10" stroke-linecap="round" stroke-dasharray="2.81 2.81"/>
<path d="M33.6664 29.3518L33.1821 29.0876" stroke="#F45279" stroke-width="2" stroke-miterlimit="10" stroke-linecap="round"/>
<path d="M48.4145 28.0311L48.1943 27.4587" stroke="#F45279" stroke-width="2" stroke-miterlimit="10" stroke-linecap="round"/>
<path d="M47.7544 26.3142L45.333 19.9746" stroke="#F45279" stroke-width="2" stroke-miterlimit="10" stroke-linecap="round" stroke-dasharray="2.81 2.81"/>
<path d="M45.1126 19.4021L44.9365 18.8298" stroke="#F45279" stroke-width="2" stroke-miterlimit="10" stroke-linecap="round"/>
<path d="M64.1312 39.9619C53.081 30.2765 43.3956 38.6852 42.0309 39.8298C41.9428 39.9179 41.9428 40.0059 42.0309 40.094C42.1189 40.182 42.1629 40.226 42.1629 40.226C51.6723 49.6913 62.2382 41.987 64.1312 40.4902C64.2633 40.3581 64.3073 40.094 64.1312 39.9619Z" stroke="#F45279" stroke-width="2" stroke-miterlimit="10"/>
<path d="M56.7634 40.0938C56.7634 42.511 55.0716 44.3484 53.1251 44.3484C51.1787 44.3484 49.4868 42.511 49.4868 40.0938C49.4868 37.6765 51.1787 35.8391 53.1251 35.8391C55.0716 35.8391 56.7634 37.6765 56.7634 40.0938Z" fill="#F45279" stroke="#F45279"/>
<path d="M92.0429 49.0747C92.0429 49.0747 91.2945 54.7539 88.5649 54.7539C88.5649 54.7539 92.0429 56.9111 92.0429 60.6092C92.0429 56.9111 95.2567 54.7539 95.2567 54.7539C92.4832 54.7979 92.0429 49.0747 92.0429 49.0747Z" stroke="#F45279" stroke-width="2" stroke-miterlimit="10" stroke-linecap="round" stroke-linejoin="round"/>
<path d="M77.9989 1C77.9989 1 77.2505 6.67919 74.521 6.67919C74.521 6.67919 77.9989 8.83639 77.9989 12.5345C77.9989 8.83639 81.2127 6.67919 81.2127 6.67919C78.4392 6.72321 77.9989 1 77.9989 1Z" stroke="#F45279" stroke-width="2" stroke-miterlimit="10" stroke-linecap="round" stroke-linejoin="round"/>
<path d="M18.1254 54.2698C18.1254 54.2698 17.377 59.949 14.6475 59.949C14.6475 59.949 18.1254 62.1062 18.1254 65.8042C18.1254 62.1062 21.3392 59.949 21.3392 59.949C18.5657 59.993 18.1254 54.2698 18.1254 54.2698Z" stroke="#F45279" stroke-width="2" stroke-miterlimit="10" stroke-linecap="round" stroke-linejoin="round"/>
<path d="M8.35198 23.4524C8.35198 23.4524 7.60355 29.1316 4.87402 29.1316C4.87402 29.1316 8.35198 31.2888 8.35198 34.9869C8.35198 31.2888 11.5658 29.1316 11.5658 29.1316C8.79222 29.1316 8.35198 23.4524 8.35198 23.4524Z" stroke="#F45279" stroke-width="2" stroke-miterlimit="10" stroke-linecap="round" stroke-linejoin="round"/>
</svg>
