<svg width="79" height="77" viewBox="0 0 79 77" fill="none" xmlns="http://www.w3.org/2000/svg">
<path fill-rule="evenodd" clip-rule="evenodd" d="M42.9 12.7183C42.9 12.7183 54 9.11834 60.4 11.3183C63.8 8.71834 75.9 8.11834 67.6 15.7183C78.8 23.4183 80.5 33.5183 74.4 47.9183C74.4 47.9183 75.4 50.8183 73.3 56.2183C71.1 60.4183 66.4 65.1183 67.5 68.0183C68.7 71.0183 73 71.1184 74.6 67.9184C76.2 64.7183 75.3 77.4183 68.1 75.7183C60.9 74.0183 57.7 66.7183 63 58.0183C63 58.0183 59.8 58.7183 59.8 54.3183C59.8 49.9183 60 48.5183 58.5 47.6183C56.9 46.7183 55.9 44.6183 59 44.7183C62 44.8183 64.2 47.7183 65.8 47.7183C67.4 47.6183 69 47.7183 69 44.5183C68.8 37.0183 66.6 35.5183 63 32.6183C63 32.6183 62.8 37.0183 60.4 37.0183C58.1 36.9183 55.3 31.4183 55.3 31.4183C55.3 31.4183 42.7 26.1183 40.3 21.8183C38.6 17.4183 39.8 14.8183 42.9 12.7183Z" fill="#F0F2FB"/>
<path fill-rule="evenodd" clip-rule="evenodd" d="M42.8 12.1183C43.4 11.9183 53.9 8.61833 60.4 10.6183C62.2 9.41833 65.7 8.71834 68.1 9.01834C68.9 9.11834 69.7 9.31834 70.2 9.71834C70.8 10.1183 71.2 10.8183 71.2 11.6183C71.2 12.6183 70.4 13.9183 68.7 15.6183C74.1 19.5183 77.2 23.9183 78.2 29.2183C79.3 34.6183 78.2 40.7183 75.2 47.9183C75.4 48.7183 75.8 51.7183 74 56.3183V56.4184C73.3 57.7183 72.3 59.1183 71.4 60.5183C69.5 63.3183 67.6 66.0183 68.3 67.7183C68.6 68.4183 69.1 68.9183 69.7 69.2183C70.1 69.4183 70.5 69.5183 71 69.5183C71.5 69.5183 71.9 69.4183 72.4 69.3183C73.1 69.0183 73.8 68.4183 74.3 67.5183C74.5 67.1183 74.8 66.8183 75 66.7183C75.8 66.4183 76.3 67.3184 76.1 68.9184C76 69.9184 75.6 71.3183 74.9 72.6183C73.7 75.0183 71.5 77.0183 68.1 76.2183C66.9 75.9183 65.7 75.4183 64.7 74.8183C62.8 73.7183 61.4 72.0183 60.6 70.0183C59.8 68.0183 59.7 65.6183 60.3 63.0183C60.6 61.6183 61.2 60.0183 62.1 58.5183C61 58.3183 59.4 57.5183 59.4 54.2183C59.4 54.0183 59.4 53.3183 59.4 52.7183C59.4 49.7183 59.4 48.6183 58.4 48.0183C57.7 47.6183 57.1 47.0183 56.8 46.4183C56.6 46.1183 56.6 45.7183 56.6 45.4183C56.7 45.0183 56.8 44.7183 57.2 44.4183C57.6 44.1183 58.2 43.9183 59.2 44.0183C61.1 44.0183 62.6 45.1183 63.9 45.9183C64.7 46.5183 65.4 46.9183 65.9 46.9183H66.1C67.3 46.8183 68.5 46.8183 68.5 44.3183C68.3 37.7183 66.5 36.0183 63.6 33.6183C63.3 35.1183 62.6 37.5183 60.5 37.4183C58.1 37.3183 55.5 32.7183 55 31.7183C53.4 31.0183 42.2 26.0183 39.9 21.9183V21.8183C39 19.6183 38.8 17.7183 39.3 16.1183C39.8 14.5183 41 13.2183 42.7 12.1183C42.7 12.2183 42.7 12.1183 42.8 12.1183ZM60.3 11.9183C54.4 9.91834 44.3 13.0183 43.2 13.3183C41.8 14.3183 40.8 15.3183 40.4 16.6183C40 17.9183 40.1 19.4183 40.9 21.4183C43.2 25.5183 55.6 30.7183 55.6 30.7183C55.7 30.8183 55.8 30.9183 55.9 31.0183C55.9 31.0183 58.5 36.2183 60.4 36.3183C62.1 36.4183 62.3 32.5183 62.3 32.5183C62.3 32.4183 62.4 32.2183 62.4 32.1183C62.6 31.8183 63 31.8183 63.3 32.0183L63.8 32.4183C67.2 35.2183 69.3 36.9183 69.5 44.3183C69.5 44.3183 69.5 44.3183 69.5 44.4183C69.5 48.0183 67.7 48.1183 65.9 48.2183H65.7C64.8 48.2183 64 47.7183 62.9 47.0183C61.8 46.2183 60.4 45.3183 58.8 45.3183C58.2 45.3183 57.8 45.4183 57.6 45.5183C57.5 45.5183 57.5 45.6183 57.5 45.6183C57.5 45.7183 57.5 45.8183 57.6 45.9183C57.8 46.3183 58.2 46.7183 58.7 47.0183C60.4 47.9183 60.4 49.3183 60.4 52.7183C60.4 53.0183 60.4 53.3183 60.4 54.2183C60.4 57.8183 62.8 57.3183 62.8 57.3183C62.9 57.3183 63.1 57.3184 63.2 57.4184C63.5 57.6184 63.6 58.0183 63.4 58.2183C62.3 60.0183 61.6 61.7183 61.3 63.3183C60.7 65.7183 60.9 67.8183 61.6 69.6183C62.3 71.4183 63.5 72.8183 65.2 73.8183C66.1 74.3183 67.1 74.7183 68.2 75.0183C70.9 75.6183 72.6 74.0183 73.6 72.1183C74.1 71.0183 74.5 69.9183 74.6 69.0183C74.1 69.7183 73.4 70.2183 72.6 70.5183C72 70.7183 71.3 70.8183 70.7 70.8183C70.1 70.8183 69.4 70.6183 68.9 70.3183C68 69.9183 67.3 69.1183 66.9 68.1183C66 65.8183 68 62.8183 70.2 59.7183C71.1 58.4183 72 57.0183 72.7 55.8183C74.6 50.9183 73.8 48.2183 73.8 48.0183C73.8 47.9183 73.8 47.7183 73.8 47.6183C76.8 40.5183 77.9 34.5183 76.8 29.4183C75.8 24.3183 72.6 20.0183 67.2 16.2183L67.1 16.1183C66.9 15.8183 66.9 15.5183 67.1 15.2183C69 13.5183 69.7 12.3183 69.7 11.5183C69.7 11.2183 69.6 10.9183 69.3 10.7183C68.9 10.4183 68.4 10.3183 67.7 10.2183C65.4 9.91834 62.1 10.6183 60.6 11.8183C60.7 11.9183 60.5 11.9183 60.3 11.9183ZM75.4 68.0183C75.4 68.0183 75.4 68.0183 75.4 68.1183C75.5 68.0183 75.5 67.9183 75.4 68.0183Z" fill="#6B5DFF"/>
<path fill-rule="evenodd" clip-rule="evenodd" d="M61 20.9183C60.7 20.9183 60.4 20.7183 60.3 20.3183C60.3 20.0183 60.5 19.7183 60.9 19.6183C60.9 19.6183 64.8 19.1183 69 23.1183C71.1 25.1183 72.8 27.4183 74 29.6183C75.1 31.8183 75.7 34.0183 75.4 35.8183C75.3 36.5183 75.1 37.2183 75 37.9183C74.4 40.5183 73.8 43.3183 75.3 47.5183C75.4 47.8183 75.2 48.2183 74.9 48.3183C74.6 48.4183 74.2 48.2183 74.1 47.9183C72.5 43.3183 73.2 40.4183 73.8 37.6183C74 36.9183 74.1 36.2183 74.2 35.5183C74.4 34.0183 74 32.0183 72.9 30.1183C71.8 28.0183 70.2 25.8183 68.2 23.9183C64.4 20.5183 61 20.9183 61 20.9183Z" fill="#6B5DFF"/>
<path fill-rule="evenodd" clip-rule="evenodd" d="M69 1.11833C67.5 1.61833 66.5 1.91834 65 2.21834C62.8 2.61834 60.5 2.61833 58.2 2.61833C55.4 2.61833 52.9 2.71834 50.2 3.41834C46 4.51834 39.8 8.41834 41.9 13.7183C42.1 14.1183 42.6 14.0183 42.6 13.6183C42.7 11.0183 43 9.01834 45 7.21834C46.9 5.51834 49.5 4.61834 52 4.01834C54.9 3.41834 57.8 3.61834 60.7 3.41834C63.9 3.21834 67.2 3.01834 70.1 1.71834C71.5 1.11834 71.2 0.0183325 70.6 0.118332C70 0.118332 69.4 1.01833 69 1.11833Z" fill="#6B5DFF"/>
<path fill-rule="evenodd" clip-rule="evenodd" d="M46.2 45.2183C46.4 43.4183 45.8 41.8183 44.1 40.5183C42 38.8183 39.3 38.0183 37 36.5183C34 34.5183 32.6 31.1183 33.8 27.6183C34.3 26.0183 35.5 24.6183 36.8 23.6183C38.2 22.5183 39.9 22.4183 41.5 21.8183C41.7 21.7183 41.8 21.3183 41.5 21.2183C38.6 20.6183 35.5 23.0183 34 25.2183C32.3 27.6183 32.1 30.8183 33.3 33.4183C34.6 36.3183 37.7 37.8183 40.4 39.0183C43 40.1183 45.1 41.7183 45.4 44.3183C45.4 44.4183 44.6 45.3183 44.7 45.9183C44.7 46.7183 45.6 46.7183 46 45.9183C46.1 45.8183 46.1 45.4183 46.2 45.2183Z" fill="#6B5DFF"/>
<path fill-rule="evenodd" clip-rule="evenodd" d="M58.3 31.4183C60.3 32.1183 62.2 32.4183 64 33.5183C64.3 33.7183 64.5 33.3183 64.3 33.1183C62.8 31.4183 60.3 31.8183 58.3 31.4183C58.2 31.4183 58.2 31.3183 58.3 31.4183Z" fill="#6B5DFF"/>
<path fill-rule="evenodd" clip-rule="evenodd" d="M63.7 13.7183C64.7 14.1183 65.7 14.6183 66.6 15.1183C67.2 15.5183 68.1 16.1183 68.8 16.2183C68.9 16.2183 69 16.1183 68.9 15.9183C68.6 15.2183 67.4 14.8183 66.8 14.6183C65.8 14.2183 64.8 13.9183 63.7 13.7183C63.7 13.6183 63.6 13.7183 63.7 13.7183Z" fill="#6B5DFF"/>
<path fill-rule="evenodd" clip-rule="evenodd" d="M67.2 13.5183C67.4 13.5183 67.5 13.4183 67.7 13.3183C67.9 13.2183 68 13.2183 68.1 13.0183C68.2 12.9183 68.1 12.8183 68 12.8183C67.8 12.8183 67.7 12.9183 67.5 13.0183C67.3 13.1183 67.2 13.2183 67 13.3183C67 13.4183 67.1 13.5183 67.2 13.5183Z" fill="#6B5DFF"/>
<path fill-rule="evenodd" clip-rule="evenodd" d="M66.5 12.7183C66.9 12.4183 67.3 12.2183 67.7 11.8183C67.7 11.7183 67.7 11.6183 67.6 11.7183C67.1 11.8183 66.7 12.2183 66.4 12.6183C66.3 12.7183 66.4 12.8183 66.5 12.7183Z" fill="#6B5DFF"/>
<path fill-rule="evenodd" clip-rule="evenodd" d="M65.5 12.2183C65.5 11.8183 65.8 11.5183 66 11.2183C66.1 11.1183 66.1 11.0183 66 10.9183C66 10.8183 65.9 10.8183 65.9 10.8183C65.8 10.8183 65.7 10.8183 65.7 10.9183C65.4 11.2183 65.1 11.7183 65.1 12.2183C65.1 12.5183 65.5 12.5183 65.5 12.2183Z" fill="#6B5DFF"/>
<path fill-rule="evenodd" clip-rule="evenodd" d="M63.8 11.9183C63.8 11.7183 63.9 11.5183 64 11.3183C64.1 11.1183 64.3 10.9183 64.4 10.6183C64.5 10.5183 64.3 10.4183 64.2 10.4183C63.7 10.7183 63.5 11.3183 63.6 11.9183C63.6 12.0183 63.8 12.0183 63.8 11.9183Z" fill="#6B5DFF"/>
<path fill-rule="evenodd" clip-rule="evenodd" d="M58.5 33.4183C58.7 33.8183 58.9 34.1183 59.2 34.5183C59.4 34.8183 59.7 35.2183 60.1 35.4183C60.2 35.4183 60.3 35.4183 60.2 35.3183C60 34.9183 59.7 34.6183 59.4 34.3183C59.2 34.0183 58.9 33.7183 58.5 33.4183Z" fill="#6B5DFF"/>
<path fill-rule="evenodd" clip-rule="evenodd" d="M60.2 33.7183C60.4 33.9183 60.5 34.0183 60.7 34.1183C60.8 34.1183 60.8 34.0183 60.8 34.0183C60.7 33.8183 60.5 33.6183 60.4 33.5183C60.3 33.3183 60.1 33.5183 60.2 33.7183Z" fill="#6B5DFF"/>
<path fill-rule="evenodd" clip-rule="evenodd" d="M60.6 20.7183C62.7 22.4183 65 23.6183 66.8 25.5183C68.8 27.6183 70.2 30.8183 71.1 33.5183C72 36.1183 72.1 38.9183 72.5 41.6183C72.7 43.7183 72.9 45.7183 74.3 47.4183C74.4 47.5183 74.6 47.4183 74.6 47.2183C73.4 45.2183 73.5 42.9183 73.1 40.7183C72.6 37.9183 72.7 34.9183 71.4 32.3183C70.3 29.8183 69 27.3183 67.2 25.2183C65.4 23.2183 63 21.8183 60.8 20.4183C60.7 20.3183 60.5 20.5183 60.6 20.7183Z" fill="#6B5DFF"/>
<path fill-rule="evenodd" clip-rule="evenodd" d="M73.4 35.9183C73.2 35.5183 72.9 35.2183 72.6 34.9183C72.2 34.5183 71.9 34.1183 71.5 33.8183C71.4 33.7183 71.3 33.8183 71.4 33.9183C71.7 34.4183 72 34.8183 72.3 35.2183C72.6 35.5183 72.9 35.9183 73.4 35.9183Z" fill="#6B5DFF"/>
<path fill-rule="evenodd" clip-rule="evenodd" d="M73.2 33.4183C72.8 33.1183 72.5 32.8183 72.3 32.4183C72.1 32.1183 71.9 31.7183 71.6 31.4183C71.5 31.3183 71.4 31.4183 71.3 31.5183C71.2 32.5183 72.2 33.3183 73 33.7183C73.2 33.9183 73.4 33.6183 73.2 33.4183Z" fill="#6B5DFF"/>
<path fill-rule="evenodd" clip-rule="evenodd" d="M71.6 30.1183C71.4 29.8183 71.1 29.6183 70.9 29.3183C70.7 29.0183 70.4 28.7183 70.1 28.5183C70 28.4183 69.8 28.5183 69.8 28.7183C69.9 29.4183 70.7 30.1183 71.3 30.4183C71.6 30.5183 71.8 30.2183 71.6 30.1183Z" fill="#6B5DFF"/>
<path fill-rule="evenodd" clip-rule="evenodd" d="M68.7 26.8183C68.6 26.7183 68.5 26.6183 68.4 26.5183C68.3 26.5183 68.3 26.5183 68.3 26.6183C68.4 26.7183 68.5 26.8183 68.6 26.9183C68.7 27.0183 68.8 26.9183 68.7 26.8183Z" fill="#6B5DFF"/>
<path fill-rule="evenodd" clip-rule="evenodd" d="M44.6 22.8183C44.7 23.5183 45.9 23.8183 46.4 24.1183C46.9 24.3183 47.4 24.5183 47.8 24.7183C48.2 24.9183 48.6 25.1183 49.1 25.2183C49.2 25.2183 49.4 25.0183 49.3 24.9183C48.9 24.3183 47.8 24.1183 47.1 23.8183C46.6 23.6183 46.1 23.4183 45.6 23.1183C45.3 22.9183 45.1 22.7183 44.7 22.8183C44.6 22.7183 44.6 22.7183 44.6 22.8183Z" fill="#6B5DFF"/>
<path fill-rule="evenodd" clip-rule="evenodd" d="M44.6 23.0183C44.6 23.9183 45.4 24.6183 46.2 25.0183C46.9 25.4183 48.3 25.6183 48.9 25.1183C49 25.0183 48.9 24.8183 48.8 24.8183C48.4 24.8183 48.1 24.9183 47.8 24.9183C47.4 24.9183 47 24.8183 46.6 24.7183C45.7 24.4183 45.3 23.7183 44.8 23.0183C44.7 22.9183 44.6 23.0183 44.6 23.0183Z" fill="#6B5DFF"/>
<path fill-rule="evenodd" clip-rule="evenodd" d="M46.2 22.7183C46.4 22.8183 46.5 22.9183 46.7 22.9183C46.9 23.0183 47.1 23.1183 47.3 23.1183C47.4 23.1183 47.4 23.0183 47.4 23.0183C47.1 22.7183 46.7 22.7183 46.4 22.5183C46.2 22.5183 46.1 22.6183 46.2 22.7183Z" fill="#6B5DFF"/>
<path fill-rule="evenodd" clip-rule="evenodd" d="M45.4 13.7183C46 13.6183 46.6 13.4183 47.2 13.2183C47.6 13.1183 48 13.1183 48.4 13.1183C48.8 13.1183 49.2 13.3183 49.6 13.2183C49.8 13.2183 49.9 13.0184 49.8 12.8184C48.8 11.9184 46.2 12.8183 45.4 13.7183Z" fill="#6B5DFF"/>
<path fill-rule="evenodd" clip-rule="evenodd" d="M56.8 18.7183C56.5 19.1183 56.2 19.5183 56 20.0183C55.8 20.4183 55.5 21.0183 55.6 21.5183C55.6 21.6183 55.8 21.7183 55.9 21.6183C56.2 21.3183 56.3 20.8183 56.4 20.5183C56.6 20.0183 56.8 19.5183 57 19.0183C57.2 18.7183 56.9 18.5183 56.8 18.7183Z" fill="#6B5DFF"/>
<path fill-rule="evenodd" clip-rule="evenodd" d="M54.9 18.2183C54.6 18.5183 54.3 18.9184 54 19.3184C53.8 19.7184 53.2 20.2183 53.4 20.6183C53.4 20.7183 53.5 20.8184 53.6 20.8184C54.1 20.8184 54.3 20.2183 54.4 19.9183C54.6 19.4183 54.8 18.9183 55.2 18.5183C55.4 18.3183 55.1 18.0183 54.9 18.2183Z" fill="#6B5DFF"/>
<path fill-rule="evenodd" clip-rule="evenodd" d="M52.4 18.7183C52.2 18.9183 52 19.1183 51.8 19.3183C51.6 19.5183 51.4 19.6183 51.4 19.9183C51.4 20.0183 51.5 20.0183 51.5 20.0183C51.8 20.0183 51.9 19.8183 52.1 19.6183C52.3 19.4183 52.5 19.2183 52.7 19.0183C52.8 18.7183 52.6 18.5183 52.4 18.7183Z" fill="#6B5DFF"/>
<path fill-rule="evenodd" clip-rule="evenodd" d="M50.6 18.3183C50.5 18.4183 50.4 18.5183 50.3 18.6183C50.2 18.7183 50 18.7183 49.9 18.7183C49.7 18.8183 49.7 19.1183 49.9 19.1183C50.3 19.2183 50.7 18.9183 50.9 18.6183C51.2 18.4183 50.9 18.1183 50.6 18.3183Z" fill="#6B5DFF"/>
<path fill-rule="evenodd" clip-rule="evenodd" d="M49.2 18.1183C49.1 18.2183 49 18.3183 48.8 18.4183C48.7 18.5183 48.5 18.5183 48.4 18.5183C48.1 18.6183 48.2 18.9183 48.5 19.0183C48.9 19.0183 49.2 18.7183 49.5 18.5183C49.7 18.2183 49.4 17.9183 49.2 18.1183Z" fill="#6B5DFF"/>
<path fill-rule="evenodd" clip-rule="evenodd" d="M47.8 17.9183C47.6 18.0183 47.5 18.0183 47.3 18.1183C47.1 18.2183 46.9 18.2183 46.8 18.4183C46.7 18.5183 46.8 18.6183 46.9 18.6183C47.3 18.7183 47.7 18.4183 48 18.2183C48.2 18.1183 48 17.8183 47.8 17.9183Z" fill="#6B5DFF"/>
<path fill-rule="evenodd" clip-rule="evenodd" d="M59.5 13.1183C59.2 13.4183 58.9 13.5183 58.6 13.7183C58.3 13.8183 58 13.9183 57.9 14.2183C57.9 14.3183 57.9 14.3183 58 14.4183C58.3 14.5183 58.6 14.3183 58.9 14.1183C59.2 13.9183 59.6 13.6183 59.8 13.3183C59.9 13.2183 59.6 12.9183 59.5 13.1183Z" fill="#6B5DFF"/>
<path fill-rule="evenodd" clip-rule="evenodd" d="M58.1 12.4183C57.7 12.6183 57.2 12.7183 56.8 13.0183C56.7 13.1183 56.6 13.2183 56.6 13.3183V13.4183C56.6 13.5183 56.7 13.5183 56.7 13.6183C56.8 13.7183 56.9 13.7183 57 13.6183C57.4 13.4183 57.9 13.2183 58.3 12.9183C58.7 12.7183 58.4 12.3183 58.1 12.4183Z" fill="#6B5DFF"/>
<path fill-rule="evenodd" clip-rule="evenodd" d="M55.9 11.8183C55.5 11.8183 55.1 11.8183 54.8 11.9183C54.5 12.0183 54.1 12.2183 54.1 12.6183C54.1 12.7183 54.2 12.8183 54.3 12.8183C54.6 12.8183 54.8 12.6183 55 12.5183C55.3 12.3183 55.6 12.3183 55.9 12.3183C56.2 12.3183 56.2 11.8183 55.9 11.8183Z" fill="#6B5DFF"/>
<path fill-rule="evenodd" clip-rule="evenodd" d="M41.8 15.0183C40.9 16.0183 40.1 17.9183 40.6 19.2183C40.6 19.3183 40.8 19.3183 40.9 19.2183C41.2 17.8183 41.2 16.4183 42.1 15.1183C42.1 15.1183 41.9 14.9183 41.8 15.0183Z" fill="#6B5DFF"/>
<path fill-rule="evenodd" clip-rule="evenodd" d="M66.1 52.9183C65.7 54.8183 64.6 56.0183 63.2 57.2183C62.5 57.8183 61.6 58.7183 61.8 59.7183C61.8 59.9183 62.2 59.9183 62.3 59.8183C63 58.5183 63.9 57.7183 65 56.6183C65.9 55.6183 66.3 54.2183 66.1 52.9183C66.2 52.8183 66.1 52.8183 66.1 52.9183Z" fill="#6B5DFF"/>
<path fill-rule="evenodd" clip-rule="evenodd" d="M63.6 54.6183C62.9 54.8183 62.3 55.2183 61.9 55.8183C61.6 56.2183 62.3 56.6183 62.6 56.2183C62.9 55.7183 63.3 55.3184 63.8 54.9184C64 54.8184 63.8 54.6183 63.6 54.6183Z" fill="#6B5DFF"/>
<path fill-rule="evenodd" clip-rule="evenodd" d="M62.8 53.8183C62.4 54.1183 61.8 54.1183 61.4 54.5183C61.3 54.6183 61.3 54.7183 61.3 54.8183C61.3 54.9183 61.3 54.9184 61.4 54.9184C61.5 55.0184 61.6 55.0184 61.8 54.9184C62.3 54.7184 62.5 54.2183 62.9 53.9183C63 53.9183 62.9 53.8183 62.8 53.8183Z" fill="#6B5DFF"/>
<path fill-rule="evenodd" clip-rule="evenodd" d="M61.9 52.1183C61.7 52.2183 61.4 52.4183 61.2 52.6183C61.1 52.9183 61.3 53.2183 61.6 53.0183C61.7 52.9183 61.8 52.9183 61.9 52.8183C62 52.7183 62.1 52.7183 62.2 52.6183C62.3 52.5183 62.4 52.3183 62.3 52.2183C62.2 52.0183 62.1 52.0183 61.9 52.1183Z" fill="#6B5DFF"/>
<path fill-rule="evenodd" clip-rule="evenodd" d="M61.3 50.8183C61.2 50.8183 61.2 50.8183 61.1 50.8183C61 50.8183 60.9 50.7183 60.8 50.8183H60.9C60.8 50.8183 60.8 50.8183 60.8 50.8183L60.7 50.9183C60.7 50.9183 60.7 50.9183 60.7 51.0183C60.7 50.9183 60.7 51.1183 60.7 51.0183C60.7 51.3183 61.1 51.3183 61.3 51.3183C61.6 51.2183 61.6 50.8183 61.3 50.8183Z" fill="#6B5DFF"/>
<path fill-rule="evenodd" clip-rule="evenodd" d="M69 72.4184C67.1 71.4184 66.8 69.1183 67.2 67.1183C67.4 66.2183 67.7 65.4183 68 64.6183C68.3 63.9183 68.9 63.4184 69 62.7184C69 62.5184 68.9 62.4183 68.7 62.5183C67.2 63.2183 66.6 66.3184 66.4 67.7184C66.2 69.8184 66.9 71.7183 68.9 72.5183C69 72.6183 69.1 72.5184 69 72.4184Z" fill="#6B5DFF"/>
<path fill-rule="evenodd" clip-rule="evenodd" d="M67 61.7183C66.8 62.1183 66.5 62.4183 66.2 62.8183C65.9 63.1183 65.6 63.4183 65.5 63.8183C65.5 63.9183 65.6 64.0184 65.7 63.9184C66.1 63.7184 66.4 63.3184 66.7 62.9184C67 62.6184 67.2 62.2183 67.5 61.8183C67.5 61.7183 67.2 61.5183 67 61.7183Z" fill="#6B5DFF"/>
<path fill-rule="evenodd" clip-rule="evenodd" d="M66.3 60.6183C65.9 60.9183 65.5 61.3183 65.1 61.6183C64.8 61.9183 64.4 62.2183 64.4 62.6183C64.4 62.7183 64.5 62.8183 64.6 62.8183C65 62.8183 65.3 62.4183 65.6 62.0183C65.9 61.6183 66.3 61.2183 66.7 60.8183C66.9 60.8183 66.5 60.5183 66.3 60.6183Z" fill="#6B5DFF"/>
<path fill-rule="evenodd" clip-rule="evenodd" d="M64.9 60.4184C64.6 60.7184 64.2 60.9183 64 61.2183C64 61.3183 64.1 61.4184 64.2 61.4184C64.4 61.3184 64.5 61.2183 64.7 61.1183C64.9 61.0183 65 60.8183 65.2 60.7183C65.3 60.5183 65 60.2184 64.9 60.4184Z" fill="#6B5DFF"/>
<path fill-rule="evenodd" clip-rule="evenodd" d="M64.4 58.9184C64.1 59.2184 63.8 59.4183 63.6 59.7183C63.5 59.8183 63.6 59.9183 63.7 59.8183C64 59.6183 64.4 59.4183 64.7 59.1183C64.9 59.0183 64.6 58.8184 64.4 58.9184Z" fill="#6B5DFF"/>
<path fill-rule="evenodd" clip-rule="evenodd" d="M69 48.7183C68.6 49.1183 68 49.4183 67.5 49.5183C67 49.7183 66.4 49.6183 65.9 49.8183C65.8 49.8183 65.7 50.0183 65.8 50.1183C66.3 50.6183 67 50.4183 67.5 50.3183C68.2 50.1183 68.8 49.5183 69.2 48.9183C69.4 48.8183 69.1 48.5183 69 48.7183Z" fill="#6B5DFF"/>
<path fill-rule="evenodd" clip-rule="evenodd" d="M68.5 51.2183C68.2 51.3183 67.8 51.4183 67.5 51.4183C67.2 51.4183 66.8 51.3183 66.5 51.5183C66.4 51.6183 66.4 51.7183 66.5 51.8183C67 52.4183 68.3 51.9183 68.8 51.6183C69.1 51.5183 68.8 51.1183 68.5 51.2183Z" fill="#6B5DFF"/>
<path fill-rule="evenodd" clip-rule="evenodd" d="M69.4 52.4183C69.2 52.6183 69 52.8183 68.9 53.1183C68.7 53.4183 68.5 53.8183 68.8 54.0183C68.8 54.0183 68.9 54.1183 69 54.0183C69.3 53.9183 69.3 53.6183 69.4 53.4183C69.5 53.1183 69.7 52.9183 69.9 52.7183C70 52.5183 69.6 52.2183 69.4 52.4183Z" fill="#6B5DFF"/>
<path fill-rule="evenodd" clip-rule="evenodd" d="M69.7 54.4183C69.7 54.5183 69.7 54.6183 69.8 54.7183H69.9C70 54.6183 69.9 54.5183 69.9 54.4183C70 54.2183 69.7 54.2183 69.7 54.4183Z" fill="#6B5DFF"/>
<path fill-rule="evenodd" clip-rule="evenodd" d="M71.5 54.5183C71.5 54.9183 71.5 55.5183 71.8 55.8183C71.9 55.9183 72 55.8183 72 55.7183C72 55.5183 72 55.3183 72 55.1183C72 54.9183 72 54.7183 72 54.5183C72 54.2183 71.5 54.2183 71.5 54.5183Z" fill="#6B5DFF"/>
<path fill-rule="evenodd" clip-rule="evenodd" d="M61.2 24.2183C61.4 24.9183 61.3 25.4183 61 26.0183C60.8 26.4183 60.5 26.3183 60.2 26.6183V26.7183C60.4 27.3183 61.2 26.8183 61.4 26.5183C61.9 25.9183 61.7 24.8183 61.5 24.2183C61.4 24.0183 61.1 24.1183 61.2 24.2183Z" fill="#6B5DFF"/>
<path fill-rule="evenodd" clip-rule="evenodd" d="M60.5 27.5183C60.7 28.1183 60.6 28.6183 60.1 29.0183C59.7 29.3183 59.1 29.2183 58.7 29.6183C58.6 29.7183 58.6 29.8183 58.7 29.9183C59.2 30.4183 60.2 29.9183 60.6 29.5183C61 29.0183 60.9 28.2183 60.7 27.6183C60.7 27.2183 60.4 27.3183 60.5 27.5183Z" fill="#6B5DFF"/>
<path fill-rule="evenodd" clip-rule="evenodd" d="M62.3 26.8183C62.3 27.2183 62.3 27.6183 62.1 28.0183C61.9 28.3183 61.5 28.5183 61.5 28.8183C61.5 28.9183 61.5 29.0183 61.6 29.0183C62.1 29.1183 62.4 28.6183 62.6 28.2183C62.8 27.7183 62.8 27.2183 62.7 26.7183C62.7 26.6183 62.3 26.6183 62.3 26.8183Z" fill="#6B5DFF"/>
<path fill-rule="evenodd" clip-rule="evenodd" d="M64.2 29.3184C64.3 29.5184 64.6 29.8183 64.5 30.0183C64.5 30.2183 64.2 30.4183 64.2 30.6183C64.2 30.7183 64.2 30.7184 64.3 30.8184C64.7 30.9184 65 30.4183 65 30.1183C65 29.7183 64.7 29.3183 64.5 29.0183C64.4 28.8183 64.1 29.1184 64.2 29.3184Z" fill="#6B5DFF"/>
<path fill-rule="evenodd" clip-rule="evenodd" d="M65.5 26.1183C65.5 26.5183 65.5 26.8183 65.3 27.1183C65.2 27.4183 64.8 27.6183 64.8 27.9183C64.8 28.0183 64.9 28.1183 64.9 28.1183C65.3 28.2183 65.6 27.7183 65.7 27.4183C65.8 27.0183 65.8 26.5183 65.7 26.1183C65.7 25.9183 65.5 26.0183 65.5 26.1183Z" fill="#6B5DFF"/>
<path fill-rule="evenodd" clip-rule="evenodd" d="M60.3 46.4183C61.4 47.4183 63.5 48.0183 64.9 48.4183C66.2 48.7183 67.8 48.4183 68.6 47.2183C68.7 47.1183 68.5 46.9183 68.4 47.0183C66.9 47.9183 65.6 48.1183 63.9 47.6183C62.8 47.2183 61.6 46.3183 60.4 46.3183C60.3 46.2183 60.2 46.3183 60.3 46.4183Z" fill="#6B5DFF"/>
<path fill-rule="evenodd" clip-rule="evenodd" d="M61.9 49.0183C62.2 49.3183 62.6 49.5183 63.1 49.7183C63.5 49.8183 64.1 50.0183 64.5 49.7183C64.6 49.7183 64.6 49.5183 64.5 49.5183C64.2 49.3183 63.8 49.3183 63.4 49.3183C62.9 49.2183 62.5 49.1183 62.1 48.9183C62 48.8183 61.8 48.9183 61.9 49.0183Z" fill="#6B5DFF"/>
<path fill-rule="evenodd" clip-rule="evenodd" d="M62.9 50.9183C63.3 51.0183 63.8 51.4183 64.3 51.2183C64.4 51.2183 64.4 51.1183 64.3 51.0183C64.1 50.8183 63.9 50.8184 63.7 50.8184C63.5 50.7184 63.2 50.6183 63 50.6183C62.8 50.4183 62.7 50.8183 62.9 50.9183Z" fill="#6B5DFF"/>
<path fill-rule="evenodd" clip-rule="evenodd" d="M63.8 52.9183C63.9 53.0183 64 53.0183 64.2 53.0183C64.3 53.0183 64.4 53.0183 64.5 52.9183C64.5 52.9183 64.5 52.8183 64.5 52.7183C64.4 52.6183 64.3 52.5183 64.2 52.4183C63.7 52.1183 63.4 52.7183 63.8 52.9183Z" fill="#6B5DFF"/>
<path fill-rule="evenodd" clip-rule="evenodd" d="M65.4 66.5183C65.1 66.9183 64.9 67.3183 64.8 67.9183C64.7 68.3183 64.6 68.9183 64.9 69.3183C65 69.4183 65.1 69.4183 65.2 69.3183C65.5 69.0183 65.4 68.6183 65.4 68.2183C65.4 67.7183 65.5 67.1183 65.7 66.7183C65.8 66.4183 65.5 66.4183 65.4 66.5183Z" fill="#6B5DFF"/>
<path fill-rule="evenodd" clip-rule="evenodd" d="M64 66.6183C63.8 66.9183 63.6 67.2183 63.5 67.6183C63.4 67.9183 63.2 68.3183 63.5 68.5183C63.8 68.7183 64 68.2183 64 68.0183C64.1 67.6183 64.2 67.3183 64.4 66.9183C64.6 66.6183 64.2 66.3183 64 66.6183Z" fill="#6B5DFF"/>
<path fill-rule="evenodd" clip-rule="evenodd" d="M63 65.2184C62.7 65.6184 62.4 66.0183 62.3 66.5183C62.3 66.8183 62.7 67.1184 62.9 66.7184C63.1 66.3184 63.1 65.8184 63.4 65.4184C63.4 65.3184 63.1 65.0184 63 65.2184Z" fill="#6B5DFF"/>
<path fill-rule="evenodd" clip-rule="evenodd" d="M61.8 64.5183C61.3 64.9183 61.4 65.6183 61.8 66.0183C61.9 66.1183 62.1 66.0184 62.1 65.9184C62.1 65.6184 62 65.2183 62.2 65.0183C62.6 64.7183 62.1 64.2183 61.8 64.5183Z" fill="#6B5DFF"/>
<path fill-rule="evenodd" clip-rule="evenodd" d="M63.7 71.3183C64.1 73.3183 65.9 74.7183 67.7 75.4183C68.6 75.7183 71.8 76.7183 72.2 75.1183C72.2 75.0183 72.2 74.9183 72.1 74.9183C71.6 74.9183 71.2 75.1183 70.7 75.2183C69.9 75.3183 69 75.0183 68.3 74.8183C66.3 74.3183 64.9 72.9183 63.7 71.3183C63.8 71.2183 63.7 71.2183 63.7 71.3183Z" fill="#6B5DFF"/>
<path fill-rule="evenodd" clip-rule="evenodd" d="M68.6 73.7183C68.9 74.0183 69.2 74.2183 69.6 74.3183C69.9 74.4183 70.4 74.5183 70.7 74.3183C70.8 74.2183 70.8 74.1183 70.7 74.0183C70.5 73.8183 70.2 73.8183 69.9 73.8183C69.5 73.8183 69.1 73.7183 68.8 73.4183C68.7 73.3183 68.5 73.5183 68.6 73.7183Z" fill="#6B5DFF"/>
<path fill-rule="evenodd" clip-rule="evenodd" d="M70.4 73.1183C70.5 73.1183 70.7 73.2183 70.8 73.2183C70.9 73.2183 71.1 73.2183 71.2 73.2183C71.4 73.1183 71.4 72.9183 71.2 72.8183C71.1 72.8183 70.9 72.8183 70.8 72.8183C70.7 72.8183 70.6 72.8183 70.4 72.7183C70.2 72.7183 70.1 73.1183 70.4 73.1183Z" fill="#6B5DFF"/>
<path fill-rule="evenodd" clip-rule="evenodd" d="M71.2 72.5183C71.4 72.5183 71.5 72.5184 71.6 72.4184C71.8 72.3184 71.8 72.0184 71.6 71.9184C71.5 71.9184 71.3 71.9183 71.2 71.8183C70.8 71.9183 70.8 72.5183 71.2 72.5183Z" fill="#6B5DFF"/>
<path fill-rule="evenodd" clip-rule="evenodd" d="M71.9 71.7183C72 71.6183 72.2 71.5183 72.2 71.3183C72.2 71.2183 72.2 71.2183 72.1 71.2183C72 71.2183 71.8 71.2183 71.7 71.3183C71.4 71.4183 71.6 71.9183 71.9 71.7183Z" fill="#6B5DFF"/>
<path fill-rule="evenodd" clip-rule="evenodd" d="M69.9 26.9183C69.6 26.7183 69.2 26.5183 68.8 26.4183C68.8 26.4183 68.7 26.4183 68.6 26.4183C68.6 26.4183 68.3 26.3183 68.3 26.2183C68.1 26.1183 67.9 25.9183 67.7 25.9183C67.6 25.9183 67.6 26.0183 67.6 26.0183C67.7 26.2183 67.9 26.3183 68.1 26.4183L68.5 26.6183C68.5 26.7183 68.6 26.8183 68.6 26.8183C69.1 27.1183 69.6 27.2183 69.9 26.9183Z" fill="#6B5DFF"/>
<path fill-rule="evenodd" clip-rule="evenodd" d="M64.6 15.6183C64.8 15.9183 64.9 16.2183 64.8 16.5183C64.7 16.8183 64.4 16.7183 64.1 16.8183C63.8 16.9183 63.8 17.3183 64.1 17.4183C64.6 17.5183 65.1 17.1183 65.1 16.7183C65.2 16.3183 64.9 15.8183 64.6 15.6183C64.6 15.5183 64.6 15.5183 64.6 15.6183Z" fill="#6B5DFF"/>
<path fill-rule="evenodd" clip-rule="evenodd" d="M64.1 17.5183C64.3 17.7183 64.5 18.0183 64.4 18.3183C64.3 18.6183 64 18.5183 63.8 18.6183C63.6 18.6183 63.5 18.9183 63.7 19.0183C64.2 19.4183 64.8 19.1183 65 18.5183C65.1 18.0183 64.8 17.4183 64.4 17.2183C64.1 17.2183 63.9 17.4183 64.1 17.5183Z" fill="#6B5DFF"/>
<path fill-rule="evenodd" clip-rule="evenodd" d="M65.5 17.3183C65.7 17.5183 66 17.7183 65.8 17.9183C65.7 18.2183 65.4 18.2183 65.2 18.3183C64.9 18.4183 65 18.8183 65.3 18.9183C65.8 19.1183 66.4 18.6183 66.5 18.1183C66.6 17.6183 66.2 17.1183 65.7 17.0183C65.5 16.9183 65.4 17.2183 65.5 17.3183Z" fill="#6B5DFF"/>
<path fill-rule="evenodd" clip-rule="evenodd" d="M69.7 20.2183C69.7 20.4183 69.7 20.6183 69.5 20.7183C69.3 20.8183 69 20.7183 68.8 20.9183C68.9 20.9183 68.9 20.8183 69 20.8183C68.8 20.9183 68.7 21.1183 68.9 21.2183C68.9 21.2183 68.9 21.1183 68.8 21.1183C68.9 21.4183 69.1 21.4183 69.4 21.4183C69.6 21.4183 69.8 21.3183 70 21.1183C70.3 20.8183 70.3 20.4183 70.2 20.0183C70 19.9183 69.7 20.0183 69.7 20.2183Z" fill="#6B5DFF"/>
<path fill-rule="evenodd" clip-rule="evenodd" d="M69.7 21.8183C69.9 22.0183 70.1 22.2183 70 22.5183C70 22.6183 69.8 22.8183 69.7 22.8183C69.6 22.8183 69.5 22.8183 69.3 22.8183C69 22.8183 69.4 22.8183 69.2 22.8183C69.1 22.8183 69 22.7183 68.9 22.8183C68.5 22.9183 68.8 23.3183 69 23.5183C69.2 23.7183 69.6 23.7183 69.9 23.6183C70.2 23.5183 70.4 23.3183 70.5 23.0183C70.7 22.5183 70.4 21.9183 69.9 21.6183C69.8 21.4183 69.5 21.6183 69.7 21.8183Z" fill="#6B5DFF"/>
<path fill-rule="evenodd" clip-rule="evenodd" d="M72.2 23.1183V23.2183C72.2 23.2183 72.2 23.2183 72.2 23.3183C72.2 23.3183 72.1 23.3183 72.1 23.4183C72 23.4183 72.1 23.4183 72 23.4183C71.9 23.4183 71.7 23.5183 71.7 23.7183C71.6 23.8183 71.7 24.0183 71.9 24.0183C72.1 24.1183 72.5 23.9183 72.6 23.7183C72.7 23.5183 72.7 23.2183 72.6 23.0183C72.5 22.7183 72.1 22.8183 72.2 23.1183Z" fill="#6B5DFF"/>
<path fill-rule="evenodd" clip-rule="evenodd" d="M63.9 33.3183C64.8 33.7183 65.8 33.2183 65.6 32.1183C65.5 32.2183 65.4 32.2183 65.3 32.3183C66.4 32.8183 67.2 31.7183 67 30.7183C66.9 30.8183 66.8 30.9183 66.7 31.0183C68.1 31.3183 69.4 30.2183 69 28.7183C68.9 28.4183 68.5 28.5183 68.5 28.8183C68.5 29.2183 68.6 29.6183 68.4 30.1183C68.1 30.7183 67.3 30.8183 66.8 30.7183C66.6 30.7183 66.5 30.8183 66.5 31.0183C66.6 31.7183 66.2 32.5183 65.3 32.2183C65.2 32.2183 65 32.3183 65.1 32.4183C65.3 33.4183 64.3 33.4183 63.9 33.3183C63.9 33.0183 63.8 33.2183 63.9 33.3183Z" fill="#6B5DFF"/>
<path fill-rule="evenodd" clip-rule="evenodd" d="M65.1 33.5183C65.4 33.9183 65.9 33.9183 66.3 33.6183C66.8 33.3183 66.8 32.8183 66.8 32.3183C66.7 32.4183 66.6 32.4183 66.6 32.5183C67.2 32.7183 67.8 32.6183 68.1 32.1183C68.3 31.6183 68.9 30.8183 68.3 30.4183C68.2 30.3183 68 30.3183 68 30.5183C67.9 31.0183 68.4 31.4183 68 31.9183C67.9 32.0183 67.6 32.1183 67.5 32.2183C67.2 32.3183 67 32.3183 66.7 32.2183C66.6 32.2183 66.4 32.3183 66.5 32.4183C66.7 33.3183 65.9 33.5183 65.2 33.4183C65.1 33.3183 65.1 33.4183 65.1 33.5183Z" fill="#6B5DFF"/>
<path fill-rule="evenodd" clip-rule="evenodd" d="M66.8 33.9183C67.4 34.0183 67.8 33.7183 68.1 33.2183C68.4 32.8183 68.3 32.1183 67.8 31.9183C67.7 31.8183 67.5 32.0183 67.6 32.1183C67.7 32.3183 67.9 32.4183 67.9 32.6183C68 32.8183 67.9 33.0183 67.8 33.2183C67.6 33.6183 67.2 33.8183 66.8 33.8183C66.7 33.7183 66.7 33.9183 66.8 33.9183Z" fill="#6B5DFF"/>
<path fill-rule="evenodd" clip-rule="evenodd" d="M67.9 32.2183C68.7 33.0183 70.4 32.1183 70 31.0183C69.9 30.8183 69.5 30.4183 69.4 30.8183C69.3 31.1183 69.5 31.2183 69.5 31.5183C69.4 32.0183 68.6 32.2183 68.2 32.0183C67.9 31.8183 67.8 32.0183 67.9 32.2183Z" fill="#6B5DFF"/>
<path fill-rule="evenodd" clip-rule="evenodd" d="M67.8 34.2183C68.4 34.4183 68.9 34.2183 69.2 33.7183C69.5 33.3183 69.7 32.5183 69.3 32.0183C69.1 31.8183 68.8 32.0183 68.9 32.3183C69 32.7183 69.1 32.9183 68.9 33.3183C68.7 33.6183 68.4 34.0183 68 33.9183C67.8 33.8183 67.6 34.1183 67.8 34.2183Z" fill="#6B5DFF"/>
<path fill-rule="evenodd" clip-rule="evenodd" d="M67 35.4183C67.2 35.8183 67.7 36.1183 68.1 35.9183C68.6 35.7183 68.6 35.2183 68.5 34.7183C68.4 34.8183 68.3 34.9183 68.2 35.0183C68.8 35.2183 69.5 35.0183 69.8 34.5183C70.1 34.1183 70.1 33.2183 69.4 33.3183C69.3 33.3183 69.2 33.4183 69.2 33.5183C69.2 33.9183 69.6 34.0183 69.2 34.4183C68.9 34.7183 68.5 34.7183 68.2 34.6183C68 34.5183 67.9 34.7183 67.9 34.9183C68.1 35.6183 67.4 35.6183 67 35.3183C67.1 35.2183 66.9 35.3183 67 35.4183Z" fill="#6B5DFF"/>
<path fill-rule="evenodd" clip-rule="evenodd" d="M68.6 36.4183C69.5 36.7183 70.1 35.5183 69.9 34.7183C69.8 34.4183 69.4 34.5183 69.4 34.8183C69.4 35.4183 69.4 36.2183 68.6 36.2183C68.6 36.2183 68.5 36.4183 68.6 36.4183Z" fill="#6B5DFF"/>
<path fill-rule="evenodd" clip-rule="evenodd" d="M70 42.8184C69.8 43.5184 70.6 44.2183 71.2 43.6183C71.3 43.5183 71.4 43.3183 71.2 43.2183C71.1 43.1183 70.9 43.3184 70.8 43.3184C70.5 43.4184 70.2 43.1184 70.2 42.8184C70.2 42.6184 70 42.6184 70 42.8184Z" fill="#6B5DFF"/>
<path fill-rule="evenodd" clip-rule="evenodd" d="M71.2 42.9183C71.1 42.9183 71.1 43.0183 71 43.0183C70.9 43.4183 71.3 43.7183 71.6 43.9183C72.1 44.1183 72.6 43.8183 72.8 43.3183C72.9 43.1183 72.9 42.6183 72.6 42.7183C72.3 42.8183 72.3 43.2183 72.1 43.3183C71.9 43.4183 71.5 43.2183 71.4 43.0183C71.3 43.0183 71.3 42.9183 71.2 42.9183C71.3 43.0183 71.3 43.0183 71.3 43.0183C71.3 42.9183 71.2 42.9183 71.2 42.9183Z" fill="#6B5DFF"/>
<path fill-rule="evenodd" clip-rule="evenodd" d="M70.5 44.2183C70.6 44.6183 70.9 44.9183 71.3 44.9183C71.7 44.8183 72.1 44.5183 72.2 44.1183C72.2 43.9183 72 43.7183 71.8 43.8183C71.5 44.0183 71.1 44.7183 70.7 44.1183C70.7 44.0183 70.4 44.1183 70.5 44.2183Z" fill="#6B5DFF"/>
<path fill-rule="evenodd" clip-rule="evenodd" d="M69.6 38.4183C69.5 38.9183 69.7 39.4183 70.2 39.6183C70.8 39.8183 71.4 39.2183 71.3 38.6183C71.3 38.3183 70.9 38.3183 70.7 38.5183C70.6 38.6183 70.6 38.8183 70.5 38.9183C70.5 38.9183 70.4 38.9183 70.3 38.9183C70.1 38.8183 69.9 38.6183 69.9 38.4183C69.9 38.3183 69.6 38.3183 69.6 38.4183Z" fill="#6B5DFF"/>
<path fill-rule="evenodd" clip-rule="evenodd" d="M70.7 38.8183C70.8 39.1183 70.9 39.2183 71.2 39.3183C71.5 39.4183 71.9 39.2183 72 38.9183C72 38.7183 71.9 38.5183 71.7 38.5183C71.5 38.5183 71.4 38.6183 71.3 38.6183C71.2 38.6183 71.2 38.6183 71.1 38.5183C70.9 38.4183 70.6 38.5183 70.7 38.8183Z" fill="#6B5DFF"/>
<path fill-rule="evenodd" clip-rule="evenodd" d="M70.2 39.8184C70.4 40.0184 70.6 40.1183 70.8 40.1183C71.1 40.1183 71.3 40.0183 71.5 39.7183C71.5 39.6183 71.5 39.5183 71.5 39.5183C71.4 39.3183 71.1 39.5183 71 39.5183C70.8 39.6183 70.5 39.6183 70.3 39.6183C70.2 39.6183 70.1 39.8184 70.2 39.8184Z" fill="#6B5DFF"/>
<path fill-rule="evenodd" clip-rule="evenodd" d="M75.4 26.3183C75.5 26.5183 75.5 26.7183 75.5 27.0183C75.5 27.5183 74.9 27.3183 74.7 27.1183C74.5 26.9183 74.3 27.1183 74.4 27.3183C74.5 27.6183 74.6 28.1183 74.4 28.4183C74.2 28.7183 73.7 28.5183 73.5 28.6183C73.4 28.6183 73.4 28.7183 73.4 28.8183C73.6 29.3183 74.4 29.3183 74.7 28.8183C75 28.3183 74.9 27.6183 74.7 27.1183C74.6 27.2183 74.5 27.2183 74.4 27.3183C74.7 27.7183 75.3 28.0183 75.7 27.6183C76.2 27.1183 75.9 26.7183 75.7 26.1183C75.6 26.1183 75.3 26.1183 75.4 26.3183Z" fill="#6B5DFF"/>
<path fill-rule="evenodd" clip-rule="evenodd" d="M74.4 28.8183C74.8 29.1183 75.2 28.9183 75.5 28.6183C75.8 28.4183 76.1 27.9183 76 27.5183C75.9 27.3183 75.7 27.3183 75.6 27.4183C75.5 27.6183 75.4 27.9183 75.3 28.1183C75.1 28.3183 74.9 28.4183 74.7 28.3183C74.4 28.4183 74.3 28.7183 74.4 28.8183Z" fill="#6B5DFF"/>
<path fill-rule="evenodd" clip-rule="evenodd" d="M75.1 32.3183C75.1 32.5183 75.1 32.7183 75.2 32.9183C75.3 33.1183 75.5 33.2183 75.7 33.3183C75.9 33.4183 76.1 33.3183 76.3 33.2183C76.4 33.1183 76.5 33.0183 76.5 32.9183C76.6 32.7183 76.5 32.6183 76.5 32.4183C76.5 32.2183 76.1 32.1183 76 32.3183C76 32.4183 75.9 32.5183 75.8 32.5183C75.8 32.5183 75.8 32.5183 75.7 32.5183C75.5 32.5183 75.3 32.3183 75.2 32.2183C75.4 32.1183 75.2 32.1183 75.1 32.3183Z" fill="#6B5DFF"/>
<path fill-rule="evenodd" clip-rule="evenodd" d="M76.4 32.1183C76.3 32.5183 76.4 32.8183 76.8 32.9183C77.2 33.0183 77.8 32.8183 77.7 32.4183C77.7 32.3183 77.6 32.3183 77.6 32.3183C77.5 32.3183 77.4 32.3183 77.3 32.4183C77.2 32.4183 77.1 32.5183 77 32.5183C76.8 32.5183 76.6 32.4183 76.6 32.2183C76.6 32.1183 76.4 32.0183 76.4 32.1183Z" fill="#6B5DFF"/>
<path fill-rule="evenodd" clip-rule="evenodd" d="M75.9 33.9183C76.1 34.0183 76.3 34.0183 76.5 34.0183C76.7 34.0183 77 33.8183 76.9 33.5183C76.9 33.4183 76.8 33.4183 76.7 33.4183C76.6 33.4183 76.5 33.5183 76.4 33.5183C76.3 33.5183 76.2 33.5183 76.1 33.5183C75.9 33.4183 75.7 33.8183 75.9 33.9183Z" fill="#6B5DFF"/>
<path fill-rule="evenodd" clip-rule="evenodd" d="M74.8 38.3184C74.8 38.6184 74.9 38.8183 75.2 38.9183C75.5 38.9183 75.9 38.7183 75.8 38.4183C75.8 38.3183 75.7 38.3184 75.6 38.3184C75.4 38.3184 75.3 38.5183 75.2 38.5183C75.1 38.5183 75 38.4184 74.9 38.3184C75.1 38.1184 74.8 38.2184 74.8 38.3184Z" fill="#6B5DFF"/>
<path fill-rule="evenodd" clip-rule="evenodd" d="M75.6 38.4183C75.4 38.7183 75.4 39.0183 75.7 39.3183C75.8 39.4183 76 39.5183 76.2 39.6183C76.4 39.7183 76.6 39.6183 76.8 39.5183C77 39.4183 76.8 39.1183 76.7 39.1183C76.4 39.0183 75.8 39.1183 75.9 38.6183C75.8 38.4183 75.7 38.3183 75.6 38.4183Z" fill="#6B5DFF"/>
<path fill-rule="evenodd" clip-rule="evenodd" d="M74.8 39.4183C74.9 39.6183 75 39.8183 75.2 40.0183C75.4 40.1183 75.7 40.1183 75.9 40.0183C76 40.0183 76 39.9183 75.9 39.8183L75.8 39.7183C75.8 39.7183 75.7 39.6183 75.7 39.7183C75.6 39.6183 75.5 39.6183 75.4 39.6183C75.3 39.6183 75.2 39.5183 75.1 39.3183C75.1 39.0183 74.7 39.1183 74.8 39.4183Z" fill="#6B5DFF"/>
<path fill-rule="evenodd" clip-rule="evenodd" d="M70.7 47.3183C70.6 47.8183 70.7 48.3183 71 48.6183C71.4 49.0183 72.1 48.9183 72.4 48.5183C72.6 48.2183 72.2 47.9183 72 48.1183C71.7 48.2183 71.6 48.4183 71.3 48.1183C71.1 47.9183 70.9 47.6183 70.9 47.3183C71 47.2183 70.7 47.2183 70.7 47.3183Z" fill="#6B5DFF"/>
<path fill-rule="evenodd" clip-rule="evenodd" d="M71.8 48.6183C71.5 49.5183 73.2 49.7183 73.3 49.1183C73.3 49.0183 73.3 49.0183 73.2 48.9183C73 48.8183 72.8 48.9183 72.5 48.9183C72.3 48.9183 72.1 48.9183 72.1 48.6183C72.1 48.5183 71.8 48.5183 71.8 48.6183Z" fill="#6B5DFF"/>
<path fill-rule="evenodd" clip-rule="evenodd" d="M72.7 49.5183C72.7 49.8183 72.8 50.0183 73 50.2183C73.2 50.4183 73.6 50.4183 73.8 50.2183C73.9 50.1183 73.9 49.9184 73.7 49.8184C73.6 49.7184 73.4 49.8183 73.3 49.7183C73.2 49.7183 73.2 49.5183 73.1 49.4183C73.1 49.2183 72.7 49.3183 72.7 49.5183Z" fill="#6B5DFF"/>
<path fill-rule="evenodd" clip-rule="evenodd" d="M70.7 49.1183C70.7 49.4183 70.9 49.7183 71.2 49.9183C71.5 50.1183 72 50.1183 72.3 49.9183C72.6 49.6183 72.2 49.4183 71.9 49.5183C71.5 49.6183 71.2 49.5183 71.1 49.1183C71 48.9183 70.7 48.9183 70.7 49.1183Z" fill="#6B5DFF"/>
<path fill-rule="evenodd" clip-rule="evenodd" d="M72 49.7183C71.8 50.0183 71.7 50.4183 71.9 50.8183C72.1 51.2183 72.6 51.4183 73 51.3183C73.2 51.2183 73.3 50.9183 73.1 50.8183C72.9 50.7183 72.7 50.7183 72.5 50.5183C72.3 50.3183 72.3 50.1183 72.4 49.9183C72.3 49.6183 72 49.6183 72 49.7183Z" fill="#6B5DFF"/>
<path fill-rule="evenodd" clip-rule="evenodd" d="M59.9 25.1183C60.1 25.5183 60.2 26.1183 60.1 26.6183C60 27.2183 59.3 27.1183 59.1 27.5183C59 27.6183 59.1 27.7184 59.1 27.8184C59.7 28.3184 60.5 27.6183 60.7 27.0183C60.9 26.3183 60.6 25.6183 60.1 25.1183C60 24.9183 59.9 25.0183 59.9 25.1183Z" fill="#6B5DFF"/>
<path fill-rule="evenodd" clip-rule="evenodd" d="M45.3 13.9183C46.1 13.8183 46.9 13.8183 47.7 13.7183C48.6 13.7183 49.6 13.8183 50.5 13.7183C50.6 13.7183 50.7 13.5183 50.6 13.4183C49.1 12.6183 46.8 13.1183 45.3 13.7183C45.2 13.8183 45.2 13.9183 45.3 13.9183Z" fill="#6B5DFF"/>
<path fill-rule="evenodd" clip-rule="evenodd" d="M42.9 15.4183C42.9 15.2183 43 15.1183 43.1 15.0183C43.2 14.9183 43.2 14.7183 43 14.7183C42.8 14.6183 42.7 14.9183 42.6 15.0183C42.5 15.1183 42.5 15.3183 42.5 15.5183C42.5 15.6183 42.9 15.6183 42.9 15.4183Z" fill="#6B5DFF"/>
<path fill-rule="evenodd" clip-rule="evenodd" d="M41.8 19.2183C41.4 19.4183 41.1 20.0183 41.4 20.4183C41.5 20.5183 41.6 20.5183 41.6 20.4183C41.8 20.2183 41.8 19.8183 42 19.6183C42.3 19.4183 42 19.1183 41.8 19.2183Z" fill="#6B5DFF"/>
<path fill-rule="evenodd" clip-rule="evenodd" d="M55 29.5183C55.3 29.3183 55.8 29.3183 56.1 29.4183C56.4 29.4183 56.7 29.5183 57 29.4183C57.1 29.4183 57.1 29.2183 57 29.1183C56.4 28.6183 55.4 29.1183 54.9 29.5183C54.9 29.5183 55 29.6183 55 29.5183Z" fill="#6B5DFF"/>
<path fill-rule="evenodd" clip-rule="evenodd" d="M40 63.7183C40 63.7183 28.9 67.3183 22.5 65.1183C19.1 67.7183 6.99999 68.3183 15.3 60.7183C4.09999 53.0183 2.4 42.9183 8.5 28.5183C8.5 28.5183 7.50001 25.6183 9.60001 20.2183C11.8 16.0183 16.5 11.3183 15.4 8.41833C14.2 5.41833 9.89999 5.31833 8.29999 8.51833C6.69999 11.7183 7.59999 -0.981669 14.8 0.718331C22 2.41833 25.2 9.71833 19.9 18.4183C19.9 18.4183 23.1 17.7183 23.1 22.1183C23.1 26.5183 22.9 27.9183 24.4 28.8183C26 29.7183 27 31.8183 23.9 31.7183C20.9 31.6183 18.7 28.7183 17.1 28.7183C15.5 28.8183 13.9 28.7183 13.9 31.9183C14.1 39.4183 16.3 40.9183 19.9 43.8183C19.9 43.8183 20.1 39.4183 22.5 39.4183C24.8 39.5183 27.6 45.0183 27.6 45.0183C27.6 45.0183 40.2 50.3183 42.6 54.6183C44.4 59.0183 43.2 61.6183 40 63.7183Z" fill="#F0F2FB"/>
<path fill-rule="evenodd" clip-rule="evenodd" d="M40.2 64.3184C39.6 64.5183 29.1 67.8184 22.6 65.8184C20.8 67.0183 17.3 67.7184 14.9 67.4184C14.1 67.3184 13.3 67.1183 12.8 66.7183C12.2 66.3183 11.8 65.6184 11.8 64.8184C11.8 63.8184 12.6 62.5184 14.3 60.8184C8.9 56.9184 5.8 52.5183 4.8 47.2183C3.7 41.8183 4.8 35.7183 7.8 28.5183C7.6 27.7183 7.20001 24.7183 9.00001 20.1183V20.0183C9.70001 18.7183 10.7 17.3183 11.6 15.9183C13.5 13.1183 15.4 10.4183 14.7 8.71834C14.4 8.01834 13.9 7.51834 13.3 7.21834C12.9 7.01834 12.5 6.91834 12 6.91834C11.5 6.91834 11.1 7.01834 10.6 7.11834C9.90002 7.41834 9.20003 8.01834 8.70003 8.91834C8.50003 9.31834 8.20001 9.61834 8.00001 9.71834C7.20001 10.0183 6.70001 9.11835 6.90001 7.51835C7.00001 6.51835 7.40002 5.11835 8.10002 3.81835C9.30002 1.41835 11.5 -0.581656 14.9 0.218344C16.1 0.518345 17.3 1.01834 18.3 1.61834C20.2 2.71834 21.6 4.41834 22.4 6.41834C23.2 8.41834 23.3 10.8183 22.7 13.4183C22.4 14.8183 21.8 16.4183 20.9 17.9183C22 18.1183 23.6 18.9183 23.6 22.2183C23.6 22.4183 23.6 23.1183 23.6 23.7183C23.6 26.7183 23.6 27.8183 24.6 28.4183C25.3 28.8183 25.9 29.4183 26.2 30.0183C26.4 30.3183 26.4 30.7183 26.4 31.0183C26.3 31.4183 26.2 31.7183 25.8 32.0183C25.4 32.3183 24.8 32.5183 23.8 32.4183C21.9 32.4183 20.4 31.3183 19.1 30.5183C18.3 29.9183 17.6 29.5183 17.1 29.5183H16.9C15.7 29.6183 14.5 29.6183 14.5 32.1183C14.7 38.7183 16.5 40.4184 19.4 42.8184C19.7 41.3184 20.4 38.9184 22.5 39.0183C24.9 39.1183 27.5 43.7183 28 44.7183C29.7 45.4183 40.8 50.4184 43.1 54.5183V54.6183C44 56.8183 44.2 58.7184 43.7 60.3184C43.2 61.9184 42 63.2184 40.3 64.3184C40.3 64.3184 40.3 64.3184 40.2 64.3184ZM22.7 64.6183C28.6 66.6183 38.7 63.5183 39.8 63.2183C41.2 62.2183 42.2 61.2184 42.6 59.9184C43 58.6184 42.9 57.1183 42.1 55.1183C39.8 51.0183 27.4 45.8184 27.4 45.8184C27.3 45.7184 27.2 45.6183 27.1 45.5183C27.1 45.5183 24.5 40.3183 22.6 40.2183C20.9 40.1183 20.7 44.0183 20.7 44.0183C20.7 44.1183 20.6 44.3183 20.6 44.4183C20.4 44.7183 20 44.7183 19.7 44.5183L19.2 44.1183C15.8 41.3183 13.7 39.6183 13.5 32.2183C13.5 32.2183 13.5 32.2183 13.5 32.1183C13.5 28.5183 15.3 28.4184 17.1 28.3183H17.3C18.2 28.3183 19 28.8183 20.1 29.5183C21.2 30.3183 22.6 31.2183 24.2 31.2183C24.8 31.2183 25.2 31.1183 25.4 31.0183C25.5 31.0183 25.5 30.9183 25.5 30.9183C25.5 30.8183 25.5 30.7183 25.4 30.6183C25.2 30.2183 24.8 29.8183 24.3 29.5183C22.6 28.6183 22.6 27.2183 22.6 23.8183C22.6 23.5184 22.6 23.2183 22.6 22.3183C22.6 18.7183 20.2 19.2183 20.2 19.2183C20.1 19.2183 19.9 19.2183 19.8 19.1183C19.5 18.9183 19.4 18.5184 19.6 18.3183C20.7 16.5184 21.4 14.8183 21.7 13.2183C22.3 10.8183 22.1 8.71834 21.4 6.91834C20.7 5.11834 19.5 3.71834 17.8 2.71834C16.9 2.21834 15.9 1.81835 14.8 1.51835C12.1 0.918347 10.4 2.51834 9.40001 4.41834C8.90001 5.51834 8.50001 6.61835 8.40001 7.51835C8.90001 6.81835 9.60001 6.31835 10.4 6.01835C11 5.81835 11.7 5.71834 12.3 5.71834C12.9 5.71834 13.6 5.91834 14.1 6.21834C15 6.61834 15.7 7.41834 16.1 8.41834C17 10.7183 15 13.7183 12.8 16.8183C11.9 18.1183 11 19.5183 10.3 20.7183C8.4 25.6183 9.20003 28.3183 9.20003 28.5183C9.20003 28.6183 9.20003 28.8183 9.20003 28.9183C6.20003 36.0183 5.10003 42.0183 6.20003 47.1183C7.20003 52.2183 10.4 56.5184 15.8 60.3184L15.9 60.4184C16.1 60.7184 16.1 61.0184 15.9 61.3184C14 63.0184 13.3 64.2183 13.3 65.0183C13.3 65.3183 13.4 65.6184 13.7 65.8184C14.1 66.1184 14.6 66.2184 15.3 66.3184C17.6 66.6184 20.9 65.9183 22.4 64.7183C22.3 64.6183 22.5 64.5183 22.7 64.6183ZM7.60002 8.51835C7.60002 8.51835 7.60002 8.51834 7.60002 8.41834C7.50002 8.51834 7.50002 8.51835 7.60002 8.51835Z" fill="#6B5DFF"/>
<path fill-rule="evenodd" clip-rule="evenodd" d="M22 55.5183C22.3 55.5183 22.6 55.7183 22.7 56.1183C22.7 56.4183 22.5 56.7183 22.1 56.8183C22.1 56.8183 18.2 57.3183 14 53.3183C11.9 51.3183 10.2 49.0183 9 46.8183C7.9 44.6183 7.3 42.4183 7.6 40.6183C7.7 39.9183 7.9 39.2183 8 38.5183C8.6 35.9183 9.19999 33.1183 7.79999 28.9183C7.69999 28.6183 7.90001 28.2183 8.20001 28.1183C8.50001 28.0183 8.9 28.2183 9 28.5183C10.6 33.1183 9.89999 36.0183 9.29999 38.8183C9.09999 39.5183 8.99999 40.2183 8.89999 40.9183C8.69999 42.4183 9.10001 44.4183 10.2 46.3183C11.3 48.4183 12.9 50.6183 14.9 52.5183C18.6 56.0183 22 55.5183 22 55.5183Z" fill="#6B5DFF"/>
<path fill-rule="evenodd" clip-rule="evenodd" d="M14 75.4183C15.5 74.9183 16.5 74.6183 18 74.3183C20.2 73.9183 22.5 73.9183 24.8 73.9183C27.6 73.9183 30.1 73.8183 32.8 73.1183C37 72.0183 43.2 68.1183 41.1 62.8183C40.9 62.4183 40.4 62.5183 40.4 62.9183C40.3 65.5183 40 67.5183 38 69.3183C36.1 71.0183 33.5 71.9183 31 72.5183C28.1 73.1183 25.2 72.9183 22.3 73.1183C19.1 73.3183 15.8 73.5183 12.9 74.8183C11.5 75.4183 11.8 76.5183 12.4 76.4183C13 76.4183 13.6 75.5183 14 75.4183Z" fill="#6B5DFF"/>
<path fill-rule="evenodd" clip-rule="evenodd" d="M36.8 31.2183C36.6 33.0183 37.3 34.6183 38.9 35.9183C41 37.6183 43.7 38.4183 46 39.9183C49 41.9183 50.4 45.3183 49.2 48.8183C48.7 50.4183 47.5 51.8183 46.2 52.8183C44.8 53.9183 43.1 54.0183 41.5 54.6183C41.3 54.7183 41.2 55.1183 41.5 55.2183C44.4 55.8183 47.5 53.4183 49 51.2183C50.7 48.8183 50.9 45.6183 49.7 43.0183C48.4 40.1183 45.3 38.6183 42.6 37.4183C40 36.3183 37.9 34.7183 37.6 32.1183C37.6 32.0183 38.4 31.1183 38.3 30.5183C38.3 29.7183 37.4 29.7183 37 30.5183C36.9 30.7183 36.8 31.0183 36.8 31.2183Z" fill="#6B5DFF"/>
<path fill-rule="evenodd" clip-rule="evenodd" d="M24.7 45.0183C22.7 44.3183 20.8 44.0183 19 42.9183C18.7 42.7183 18.5 43.1183 18.7 43.3183C20.1 45.1183 22.7 44.7183 24.7 45.0183C24.8 45.1183 24.7 45.1183 24.7 45.0183Z" fill="#6B5DFF"/>
<path fill-rule="evenodd" clip-rule="evenodd" d="M19.3 62.8183C18.3 62.4183 17.3 61.9184 16.4 61.4184C15.8 61.0184 14.9 60.4183 14.2 60.3183C14.1 60.3183 14 60.4183 14.1 60.6183C14.4 61.3183 15.6 61.7184 16.2 61.9184C17.2 62.3184 18.2 62.6183 19.3 62.8183Z" fill="#6B5DFF"/>
<path fill-rule="evenodd" clip-rule="evenodd" d="M15.7 63.0183C15.5 63.0183 15.4 63.1183 15.2 63.2183C15 63.3183 14.9 63.3183 14.8 63.5183C14.7 63.6183 14.8 63.7183 14.9 63.7183C15.1 63.7183 15.2 63.6183 15.4 63.5183C15.6 63.4183 15.7 63.3183 15.9 63.2183C16 63.1183 15.9 62.9183 15.7 63.0183Z" fill="#6B5DFF"/>
<path fill-rule="evenodd" clip-rule="evenodd" d="M16.4 63.7183C16 64.0183 15.6 64.2183 15.3 64.6183C15.3 64.7183 15.3 64.8183 15.4 64.7183C15.9 64.6183 16.3 64.2183 16.6 63.8183C16.7 63.8183 16.5 63.7183 16.4 63.7183Z" fill="#6B5DFF"/>
<path fill-rule="evenodd" clip-rule="evenodd" d="M17.5 64.3183C17.5 64.7183 17.2 65.0183 17 65.3183C16.9 65.4183 16.9 65.5183 17 65.6183C17 65.7183 17.1 65.7183 17.1 65.7183C17.2 65.7183 17.3 65.7183 17.3 65.6183C17.6 65.3183 17.9 64.8183 17.9 64.3183C17.9 64.0183 17.5 64.0183 17.5 64.3183Z" fill="#6B5DFF"/>
<path fill-rule="evenodd" clip-rule="evenodd" d="M19.2 64.5183C19.2 64.7183 19.1 64.9183 19 65.1183C18.9 65.3183 18.7 65.5183 18.6 65.8183C18.5 65.9183 18.7 66.0183 18.8 66.0183C19.3 65.7183 19.5 65.1183 19.4 64.5183C19.4 64.4183 19.2 64.4183 19.2 64.5183Z" fill="#6B5DFF"/>
<path fill-rule="evenodd" clip-rule="evenodd" d="M24.4 43.0183C24.2 42.6183 24 42.3183 23.7 41.9183C23.5 41.6183 23.2 41.2183 22.8 41.0183C22.7 41.0183 22.6 41.0183 22.7 41.1183C22.9 41.5183 23.2 41.8183 23.5 42.1183C23.8 42.4183 24.1 42.7183 24.4 43.0183C24.5 43.0183 24.4 43.1183 24.4 43.0183Z" fill="#6B5DFF"/>
<path fill-rule="evenodd" clip-rule="evenodd" d="M22.8 42.8183C22.6 42.6183 22.5 42.5183 22.3 42.4183C22.2 42.4183 22.2 42.5183 22.2 42.5183C22.3 42.7183 22.5 42.9183 22.6 43.0183C22.7 43.1183 22.9 42.9183 22.8 42.8183Z" fill="#6B5DFF"/>
<path fill-rule="evenodd" clip-rule="evenodd" d="M22.4 55.8183C20.3 54.1183 18 52.9183 16.2 51.0183C14.2 48.9183 12.8 45.7183 11.9 43.0183C11 40.4183 10.9 37.6183 10.5 34.9183C10.3 32.8183 10.1 30.8183 8.70001 29.1183C8.60001 29.0183 8.39999 29.1183 8.39999 29.3183C9.59999 31.3183 9.49999 33.6183 9.89999 35.8183C10.4 38.6183 10.3 41.6183 11.6 44.2183C12.7 46.7183 14 49.2183 15.8 51.3183C17.6 53.2183 20 54.7183 22.2 56.1183C22.3 56.2183 22.5 55.9183 22.4 55.8183Z" fill="#6B5DFF"/>
<path fill-rule="evenodd" clip-rule="evenodd" d="M9.60001 40.6183C9.80001 41.0183 10.1 41.3183 10.4 41.6183C10.8 42.0183 11.1 42.4183 11.5 42.7183C11.6 42.8183 11.7 42.7183 11.6 42.6183C11.3 42.1183 11 41.7183 10.7 41.3183C10.4 41.0183 10.1 40.6183 9.60001 40.6183C9.60001 40.5183 9.60001 40.5183 9.60001 40.6183Z" fill="#6B5DFF"/>
<path fill-rule="evenodd" clip-rule="evenodd" d="M9.79997 43.0183C10.2 43.3183 10.5 43.6183 10.7 44.0183C10.9 44.3183 11.1 44.7183 11.4 45.0183C11.5 45.1183 11.6 45.0183 11.7 44.9183C11.8 43.9183 10.8 43.1183 9.99998 42.7183C9.79998 42.6183 9.59997 42.9183 9.79997 43.0183Z" fill="#6B5DFF"/>
<path fill-rule="evenodd" clip-rule="evenodd" d="M11.4 46.4183C11.6 46.7183 11.9 46.9183 12.1 47.2183C12.3 47.5183 12.6 47.8183 12.9 48.0183C13 48.1183 13.2 48.0183 13.2 47.8183C13.1 47.1183 12.3 46.4183 11.7 46.1183C11.4 46.0183 11.2 46.2183 11.4 46.4183Z" fill="#6B5DFF"/>
<path fill-rule="evenodd" clip-rule="evenodd" d="M14.3 49.7183C14.4 49.8183 14.5 49.9183 14.6 50.0183C14.7 50.0183 14.7 50.0183 14.7 49.9183C14.6 49.8183 14.5 49.7183 14.4 49.6183C14.3 49.5183 14.2 49.6183 14.3 49.7183Z" fill="#6B5DFF"/>
<path fill-rule="evenodd" clip-rule="evenodd" d="M38.4 53.7183C38.3 53.0183 37.1 52.7183 36.6 52.4183C36.1 52.2183 35.6 52.0183 35.2 51.8183C34.8 51.6183 34.4 51.4183 33.9 51.3183C33.8 51.3183 33.6 51.5183 33.7 51.6183C34.1 52.2183 35.2 52.4183 35.9 52.7183C36.4 52.9183 36.9 53.1183 37.4 53.4183C37.7 53.6183 37.9 53.8183 38.3 53.7183C38.4 53.8183 38.4 53.8183 38.4 53.7183Z" fill="#6B5DFF"/>
<path fill-rule="evenodd" clip-rule="evenodd" d="M38.4 53.4183C38.4 52.5183 37.6 51.8183 36.8 51.4183C36.1 51.0183 34.7 50.8184 34.1 51.3184C34 51.4184 34.1 51.6183 34.2 51.6183C34.6 51.6183 34.9 51.5183 35.2 51.5183C35.6 51.5183 36 51.6183 36.4 51.7183C37.3 52.0183 37.7 52.7183 38.2 53.4183C38.3 53.5183 38.4 53.5183 38.4 53.4183Z" fill="#6B5DFF"/>
<path fill-rule="evenodd" clip-rule="evenodd" d="M36.8 53.8183C36.6 53.7183 36.5 53.6183 36.3 53.6183C36.1 53.5183 35.9 53.4183 35.7 53.4183C35.6 53.4183 35.6 53.5183 35.6 53.5183C35.9 53.8183 36.3 53.8183 36.6 54.0183C36.8 54.0183 36.9 53.8183 36.8 53.8183Z" fill="#6B5DFF"/>
<path fill-rule="evenodd" clip-rule="evenodd" d="M37.6 62.7183C37 62.8183 36.4 63.0183 35.8 63.2183C35.4 63.3183 35 63.3183 34.6 63.3183C34.2 63.3183 33.8 63.1183 33.4 63.2183C33.2 63.2183 33.1 63.4183 33.2 63.6183C34.2 64.6183 36.7 63.7183 37.6 62.7183Z" fill="#6B5DFF"/>
<path fill-rule="evenodd" clip-rule="evenodd" d="M26.2 57.8184C26.5 57.4184 26.8 57.0183 27 56.5183C27.2 56.1183 27.5 55.5183 27.4 55.0183C27.4 54.9183 27.2 54.8184 27.1 54.9184C26.8 55.2184 26.7 55.7183 26.6 56.0183C26.4 56.5183 26.2 57.0183 26 57.5183C25.8 57.8183 26 57.9184 26.2 57.8184Z" fill="#6B5DFF"/>
<path fill-rule="evenodd" clip-rule="evenodd" d="M28.1 58.3183C28.4 58.0183 28.7 57.6183 29 57.2183C29.2 56.8183 29.8 56.3184 29.6 55.9184C29.6 55.8184 29.5 55.7183 29.4 55.7183C28.9 55.7183 28.7 56.3183 28.6 56.6183C28.4 57.1183 28.2 57.6183 27.8 58.0183C27.6 58.2183 27.9 58.5183 28.1 58.3183Z" fill="#6B5DFF"/>
<path fill-rule="evenodd" clip-rule="evenodd" d="M30.5 57.8183C30.7 57.6183 30.9 57.4183 31.1 57.2183C31.3 57.0183 31.5 56.9183 31.5 56.6183C31.5 56.5183 31.4 56.5183 31.4 56.5183C31.1 56.5183 31 56.7184 30.8 56.9184C30.6 57.1184 30.4 57.3183 30.2 57.5183C30.1 57.7183 30.4 58.0183 30.5 57.8183Z" fill="#6B5DFF"/>
<path fill-rule="evenodd" clip-rule="evenodd" d="M32.3 58.1183C32.4 58.0183 32.5 57.9183 32.6 57.8183C32.7 57.7183 32.9 57.7183 33 57.7183C33.2 57.6183 33.2 57.3183 33 57.3183C32.6 57.2183 32.2 57.5183 32 57.8183C31.8 58.0183 32.1 58.3183 32.3 58.1183Z" fill="#6B5DFF"/>
<path fill-rule="evenodd" clip-rule="evenodd" d="M33.8 58.4184C33.9 58.3184 34 58.2183 34.2 58.1183C34.3 58.0183 34.5 58.0183 34.6 58.0183C34.9 57.9183 34.8 57.6183 34.5 57.5183C34.1 57.5183 33.8 57.8183 33.5 58.0183C33.3 58.3183 33.6 58.6184 33.8 58.4184Z" fill="#6B5DFF"/>
<path fill-rule="evenodd" clip-rule="evenodd" d="M35.2 58.6183C35.4 58.5183 35.5 58.5183 35.7 58.4183C35.9 58.3183 36.1 58.3183 36.2 58.1183C36.3 58.0183 36.2 57.9183 36.1 57.9183C35.7 57.8183 35.3 58.1183 35 58.3183C34.8 58.4183 35 58.6183 35.2 58.6183Z" fill="#6B5DFF"/>
<path fill-rule="evenodd" clip-rule="evenodd" d="M23.5 63.4183C23.8 63.1183 24.1 63.0183 24.4 62.8183C24.6 62.7183 25 62.6183 25.1 62.3183C25.1 62.2183 25.1 62.2183 25 62.1183C24.7 62.0183 24.4 62.2183 24.1 62.4183C23.8 62.6183 23.4 62.9183 23.2 63.2183C23.1 63.3183 23.3 63.5183 23.5 63.4183Z" fill="#6B5DFF"/>
<path fill-rule="evenodd" clip-rule="evenodd" d="M24.8 64.0183C25.2 63.8183 25.7 63.7183 26.1 63.4183C26.2 63.3183 26.3 63.2183 26.3 63.1183V63.0183C26.3 62.9183 26.2 62.9183 26.2 62.8183C26.1 62.7183 26 62.7183 25.9 62.8183C25.5 63.0183 25 63.2183 24.6 63.5183C24.3 63.8183 24.5 64.2183 24.8 64.0183Z" fill="#6B5DFF"/>
<path fill-rule="evenodd" clip-rule="evenodd" d="M27 64.6183C27.4 64.6183 27.8 64.6183 28.1 64.5183C28.4 64.4183 28.8 64.2183 28.8 63.8183C28.8 63.7183 28.7 63.6183 28.6 63.6183C28.3 63.6183 28.1 63.8184 27.9 63.9184C27.6 64.1184 27.3 64.1183 27 64.1183C26.8 64.2183 26.8 64.6183 27 64.6183Z" fill="#6B5DFF"/>
<path fill-rule="evenodd" clip-rule="evenodd" d="M41.2 61.4183C42.1 60.4183 42.9 58.5183 42.4 57.2183C42.4 57.1183 42.2 57.1183 42.1 57.2183C41.8 58.6183 41.8 60.0183 40.9 61.3183C40.9 61.4183 41.1 61.5183 41.2 61.4183Z" fill="#6B5DFF"/>
<path fill-rule="evenodd" clip-rule="evenodd" d="M16.8 23.6183C17.2 21.7183 18.3 20.5183 19.7 19.3183C20.4 18.7183 21.3 17.8183 21.1 16.8183C21.1 16.6183 20.7 16.6183 20.6 16.7183C19.9 18.0183 19 18.8183 17.9 19.9183C17 20.8183 16.7 22.2183 16.8 23.6183Z" fill="#6B5DFF"/>
<path fill-rule="evenodd" clip-rule="evenodd" d="M19.3 21.8184C20 21.6184 20.6 21.2183 21 20.6183C21.3 20.2183 20.6 19.8183 20.3 20.2183C20 20.7183 19.5 21.1183 19.1 21.5183C19 21.6183 19.2 21.9184 19.3 21.8184Z" fill="#6B5DFF"/>
<path fill-rule="evenodd" clip-rule="evenodd" d="M20.2 22.6183C20.6 22.3183 21.2 22.3183 21.6 21.9183C21.7 21.8183 21.7 21.7183 21.7 21.6183C21.7 21.5183 21.7 21.5183 21.6 21.5183C21.5 21.4183 21.4 21.4183 21.2 21.5183C20.7 21.7183 20.5 22.2183 20.1 22.5183C20 22.5183 20.1 22.7183 20.2 22.6183Z" fill="#6B5DFF"/>
<path fill-rule="evenodd" clip-rule="evenodd" d="M21 24.4183C21.2 24.3183 21.5 24.1183 21.7 23.9183C21.8 23.6183 21.6 23.4183 21.3 23.5183C21.2 23.6183 21.1 23.6183 21 23.7183C20.9 23.8183 20.8 23.8183 20.7 23.9183C20.6 24.0183 20.5 24.2183 20.6 24.3183C20.7 24.4183 20.9 24.5183 21 24.4183Z" fill="#6B5DFF"/>
<path fill-rule="evenodd" clip-rule="evenodd" d="M21.6 25.7183C21.7 25.7183 21.7 25.7183 21.8 25.7183C21.9 25.7183 22 25.8183 22.1 25.7183H22C22.1 25.7183 22.1 25.7183 22.1 25.7183L22.2 25.6183C22.2 25.6183 22.2 25.6183 22.2 25.5183C22.2 25.4183 22.2 25.6183 22.2 25.5183C22.2 25.2183 21.8 25.2183 21.6 25.2183C21.4 25.3183 21.4 25.7183 21.6 25.7183Z" fill="#6B5DFF"/>
<path fill-rule="evenodd" clip-rule="evenodd" d="M14 4.01834C15.9 5.01834 16.2 7.31834 15.8 9.31834C15.6 10.2183 15.3 11.0183 15 11.8183C14.7 12.5183 14.1 13.0183 14 13.7183C14 13.9183 14.1 14.0183 14.3 13.9183C15.8 13.2183 16.4 10.1183 16.6 8.71834C16.8 6.61834 16.1 4.71833 14.1 3.91833C14 3.81833 13.9 4.01834 14 4.01834Z" fill="#6B5DFF"/>
<path fill-rule="evenodd" clip-rule="evenodd" d="M15.9 14.7183C16.1 14.3183 16.4 14.0183 16.7 13.6183C17 13.3183 17.3 13.0183 17.4 12.6183C17.4 12.5183 17.3 12.4183 17.2 12.5183C16.8 12.7183 16.5 13.1183 16.2 13.5183C15.9 13.8183 15.7 14.2183 15.4 14.6183C15.5 14.7183 15.8 14.9183 15.9 14.7183Z" fill="#6B5DFF"/>
<path fill-rule="evenodd" clip-rule="evenodd" d="M16.7 15.8183C17.1 15.5183 17.5 15.1183 17.9 14.8183C18.2 14.5183 18.6 14.2183 18.6 13.8183C18.6 13.7183 18.5 13.6183 18.4 13.6183C18 13.6183 17.7 14.0183 17.4 14.4183C17.1 14.8183 16.7 15.2183 16.3 15.6183C16.1 15.7183 16.4 16.0183 16.7 15.8183Z" fill="#6B5DFF"/>
<path fill-rule="evenodd" clip-rule="evenodd" d="M18.1 16.1183C18.4 15.8183 18.8 15.6183 19 15.3183C19 15.2183 18.9 15.1183 18.8 15.1183C18.6 15.2183 18.5 15.3183 18.3 15.4183C18.1 15.5183 18 15.7183 17.8 15.8183C17.7 16.0183 17.9 16.2183 18.1 16.1183Z" fill="#6B5DFF"/>
<path fill-rule="evenodd" clip-rule="evenodd" d="M18.5 17.5183C18.8 17.2183 19.1 17.0183 19.3 16.7183C19.4 16.6183 19.3 16.5183 19.2 16.6183C18.9 16.8183 18.5 17.0183 18.2 17.3183C18.1 17.4183 18.4 17.7183 18.5 17.5183Z" fill="#6B5DFF"/>
<path fill-rule="evenodd" clip-rule="evenodd" d="M14 27.8183C14.4 27.4183 15 27.1183 15.5 27.0183C16 26.8183 16.6 26.9183 17.1 26.7183C17.2 26.6183 17.3 26.5183 17.2 26.4183C16.7 25.9183 16 26.1183 15.5 26.2183C14.8 26.4183 14.2 27.0183 13.8 27.6183C13.6 27.7183 13.8 28.0183 14 27.8183Z" fill="#6B5DFF"/>
<path fill-rule="evenodd" clip-rule="evenodd" d="M14.4 25.2183C14.7 25.1183 15.1 25.0183 15.5 25.0183C15.8 25.0183 16.2 25.1183 16.5 24.9183C16.6 24.8183 16.6 24.7183 16.5 24.6183C16 24.0183 14.7 24.5183 14.2 24.8183C13.9 25.0183 14.1 25.4183 14.4 25.2183Z" fill="#6B5DFF"/>
<path fill-rule="evenodd" clip-rule="evenodd" d="M13.6 24.0183C13.8 23.8183 14 23.6183 14.1 23.3183C14.3 23.0183 14.5 22.6183 14.2 22.4183C14.2 22.4183 14.1 22.3183 14 22.4183C13.7 22.5183 13.7 22.8183 13.6 23.0183C13.5 23.3183 13.3 23.5183 13.1 23.7183C13 23.9183 13.4 24.3183 13.6 24.0183Z" fill="#6B5DFF"/>
<path fill-rule="evenodd" clip-rule="evenodd" d="M13.3 22.1183C13.3 22.0183 13.3 21.9183 13.2 21.8183H13.1C13 21.9183 13.1 22.0183 13 22.1183C13 22.2183 13.3 22.2183 13.3 22.1183Z" fill="#6B5DFF"/>
<path fill-rule="evenodd" clip-rule="evenodd" d="M11.5 21.9183C11.5 21.5183 11.5 20.9183 11.2 20.6183C11.1 20.5183 11 20.6183 11 20.7183C11 20.9183 11 21.1183 11 21.3183C11 21.5183 11 21.7183 11 21.9183C11 22.3183 11.5 22.3183 11.5 21.9183Z" fill="#6B5DFF"/>
<path fill-rule="evenodd" clip-rule="evenodd" d="M21.8 52.2183C21.6 51.5183 21.7 51.0183 22 50.4183C22.2 50.0183 22.5 50.1183 22.8 49.8183V49.7183C22.6 49.1183 21.8 49.6183 21.6 49.9183C21.1 50.5183 21.3 51.6183 21.5 52.2183C21.5 52.5183 21.8 52.4183 21.8 52.2183Z" fill="#6B5DFF"/>
<path fill-rule="evenodd" clip-rule="evenodd" d="M22.5 49.0183C22.3 48.4183 22.4 47.9183 22.9 47.5183C23.3 47.2183 23.9 47.3183 24.3 46.9183C24.4 46.8183 24.4 46.7183 24.3 46.6183C23.8 46.1183 22.8 46.6183 22.4 47.0183C22 47.5183 22.1 48.3183 22.3 48.9183C22.3 49.2183 22.5 49.2183 22.5 49.0183Z" fill="#6B5DFF"/>
<path fill-rule="evenodd" clip-rule="evenodd" d="M20.6 49.6183C20.6 49.2183 20.6 48.8183 20.8 48.4183C21 48.1183 21.4 47.9183 21.4 47.6183C21.4 47.5183 21.4 47.4183 21.3 47.4183C20.8 47.3183 20.5 47.8183 20.3 48.2183C20.1 48.7183 20.1 49.2183 20.2 49.7183C20.3 49.9183 20.7 49.8183 20.6 49.6183Z" fill="#6B5DFF"/>
<path fill-rule="evenodd" clip-rule="evenodd" d="M18.8 47.2183C18.7 47.0183 18.4 46.7183 18.5 46.5183C18.5 46.3183 18.8 46.1183 18.8 45.9183C18.8 45.8183 18.8 45.8183 18.7 45.7183C18.3 45.6183 18 46.1183 18 46.4183C18 46.8183 18.3 47.2183 18.5 47.5183C18.6 47.7183 18.9 47.4183 18.8 47.2183Z" fill="#6B5DFF"/>
<path fill-rule="evenodd" clip-rule="evenodd" d="M17.5 50.4183C17.5 50.0183 17.5 49.7183 17.7 49.4183C17.8 49.1183 18.2 48.9183 18.2 48.6183C18.2 48.5183 18.1 48.4183 18.1 48.4183C17.7 48.3183 17.4 48.8183 17.3 49.1183C17.2 49.5183 17.2 50.0183 17.3 50.4183C17.3 50.5183 17.5 50.5183 17.5 50.4183Z" fill="#6B5DFF"/>
<path fill-rule="evenodd" clip-rule="evenodd" d="M22.7 30.1183C21.6 29.1183 19.5 28.5183 18.1 28.1183C16.7 27.8183 15.2 28.1183 14.4 29.3183C14.3 29.4183 14.5 29.6183 14.6 29.5183C16.1 28.6183 17.4 28.4183 19.1 28.9183C20.2 29.3183 21.4 30.2183 22.6 30.2183C22.7 30.3183 22.7 30.1183 22.7 30.1183Z" fill="#6B5DFF"/>
<path fill-rule="evenodd" clip-rule="evenodd" d="M21.1 27.4183C20.8 27.1183 20.4 26.9183 19.9 26.7183C19.5 26.6183 18.9 26.4183 18.5 26.7183C18.4 26.7183 18.4 26.9183 18.5 26.9183C18.8 27.1183 19.2 27.1183 19.6 27.1183C20.1 27.2183 20.5 27.3183 20.9 27.5183C21 27.7183 21.1 27.5183 21.1 27.4183Z" fill="#6B5DFF"/>
<path fill-rule="evenodd" clip-rule="evenodd" d="M20.1 25.6183C19.7 25.5183 19.2 25.1183 18.7 25.3183C18.6 25.3183 18.6 25.4183 18.7 25.5183C18.9 25.7183 19.1 25.7183 19.3 25.7183C19.5 25.8183 19.8 25.9183 20 25.9183C20.2 26.0183 20.3 25.6183 20.1 25.6183Z" fill="#6B5DFF"/>
<path fill-rule="evenodd" clip-rule="evenodd" d="M19.2 23.6183C19.1 23.5183 19 23.5183 18.8 23.5183C18.7 23.5183 18.6 23.5183 18.5 23.6183C18.5 23.6183 18.5 23.7183 18.5 23.8183C18.6 23.9183 18.7 24.0183 18.8 24.1183C19.3 24.3183 19.6 23.7183 19.2 23.6183Z" fill="#6B5DFF"/>
<path fill-rule="evenodd" clip-rule="evenodd" d="M17.6 9.91834C17.9 9.51834 18.1 9.11834 18.2 8.51834C18.3 8.11834 18.4 7.51833 18.1 7.11833C18 7.01833 17.9 7.01833 17.8 7.11833C17.5 7.41833 17.6 7.81834 17.6 8.21834C17.6 8.71834 17.5 9.31834 17.3 9.71834C17.2 10.0183 17.5 10.1183 17.6 9.91834Z" fill="#6B5DFF"/>
<path fill-rule="evenodd" clip-rule="evenodd" d="M19 9.91833C19.2 9.61833 19.4 9.31833 19.5 8.91833C19.6 8.61833 19.8 8.21834 19.5 8.01834C19.2 7.81834 19 8.31834 19 8.51834C18.9 8.91834 18.8 9.21833 18.6 9.61833C18.4 9.91833 18.8 10.1183 19 9.91833Z" fill="#6B5DFF"/>
<path fill-rule="evenodd" clip-rule="evenodd" d="M20 11.3183C20.3 10.9183 20.6 10.5183 20.7 10.0183C20.8 9.71834 20.3 9.41834 20.1 9.81834C19.9 10.2183 19.9 10.7183 19.6 11.1183C19.6 11.2183 19.9 11.4183 20 11.3183Z" fill="#6B5DFF"/>
<path fill-rule="evenodd" clip-rule="evenodd" d="M21.2 11.9183C21.7 11.5183 21.6 10.8183 21.2 10.4183C21.1 10.3183 20.9 10.4183 20.9 10.5183C20.9 10.8183 21 11.2183 20.8 11.4183C20.4 11.7183 20.9 12.2183 21.2 11.9183Z" fill="#6B5DFF"/>
<path fill-rule="evenodd" clip-rule="evenodd" d="M19.2 5.21834C18.8 3.21834 17 1.81834 15.2 1.11834C14.3 0.818338 11.1 -0.181659 10.7 1.41834C10.7 1.51834 10.7 1.61834 10.8 1.61834C11.3 1.61834 11.7 1.41835 12.2 1.31835C13 1.21835 13.9 1.51834 14.6 1.71834C16.7 2.21834 18.1 3.51834 19.2 5.21834Z" fill="#6B5DFF"/>
<path fill-rule="evenodd" clip-rule="evenodd" d="M14.3 2.81835C14 2.51835 13.7 2.31834 13.3 2.21834C13 2.11834 12.5 2.01834 12.2 2.21834C12.1 2.31834 12.1 2.41835 12.2 2.51835C12.4 2.71835 12.7 2.71834 13 2.71834C13.4 2.71834 13.8 2.81834 14.1 3.11834C14.3 3.11834 14.5 2.91835 14.3 2.81835Z" fill="#6B5DFF"/>
<path fill-rule="evenodd" clip-rule="evenodd" d="M12.6 3.31834C12.5 3.31834 12.3 3.21834 12.2 3.21834C12.1 3.21834 11.9 3.21834 11.8 3.21834C11.6 3.31834 11.6 3.51833 11.8 3.61833C11.9 3.61833 12.1 3.61833 12.2 3.61833C12.3 3.61833 12.4 3.61834 12.6 3.71834C12.7 3.71834 12.8 3.41834 12.6 3.31834Z" fill="#6B5DFF"/>
<path fill-rule="evenodd" clip-rule="evenodd" d="M11.8 3.91833C11.6 3.91833 11.5 3.91834 11.4 4.01834C11.2 4.11834 11.2 4.41834 11.4 4.51834C11.5 4.51834 11.7 4.51833 11.8 4.61833C12.2 4.51833 12.2 3.91833 11.8 3.91833Z" fill="#6B5DFF"/>
<path fill-rule="evenodd" clip-rule="evenodd" d="M11 4.81835C10.9 4.91835 10.7 5.01834 10.7 5.21834C10.7 5.31834 10.7 5.31835 10.8 5.31835C10.9 5.31835 11.1 5.31834 11.2 5.21834C11.5 5.11834 11.3 4.61835 11 4.81835Z" fill="#6B5DFF"/>
<path fill-rule="evenodd" clip-rule="evenodd" d="M13.1 49.6183C13.4 49.8183 13.8 50.0183 14.2 50.1183C14.3 50.1183 14.3 50.1183 14.3 50.1183L14.6 50.3183C14.8 50.4183 15 50.6183 15.2 50.6183C15.3 50.6183 15.3 50.5183 15.3 50.5183C15.2 50.3183 15 50.2183 14.8 50.1183L14.4 49.9183C14.4 49.8183 14.3 49.7183 14.3 49.7183C13.9 49.3183 13.4 49.2183 13.1 49.6183C13.1 49.5183 13.1 49.5183 13.1 49.6183Z" fill="#6B5DFF"/>
<path fill-rule="evenodd" clip-rule="evenodd" d="M18.4 60.9184C18.2 60.6184 18.1 60.3183 18.2 60.0183C18.3 59.7183 18.6 59.8183 18.9 59.7183C19.2 59.6183 19.2 59.2183 18.9 59.1183C18.4 59.0183 17.9 59.4184 17.9 59.8184C17.8 60.2184 18 60.6184 18.4 60.9184Z" fill="#6B5DFF"/>
<path fill-rule="evenodd" clip-rule="evenodd" d="M18.9 59.0183C18.7 58.8183 18.5 58.5183 18.6 58.2183C18.7 57.9183 19 58.0184 19.2 57.9184C19.4 57.9184 19.5 57.6183 19.3 57.5183C18.8 57.1183 18.2 57.4183 18 58.0183C17.9 58.5183 18.2 59.1183 18.6 59.3183C18.8 59.3183 19 59.1183 18.9 59.0183Z" fill="#6B5DFF"/>
<path fill-rule="evenodd" clip-rule="evenodd" d="M17.4 59.1183C17.2 58.9183 16.9 58.7183 17.1 58.5183C17.2 58.2183 17.5 58.2183 17.7 58.1183C18 58.0183 17.9 57.6183 17.6 57.5183C17.1 57.3183 16.5 57.8183 16.4 58.3183C16.3 58.8183 16.7 59.3183 17.2 59.4183C17.4 59.5183 17.6 59.3183 17.4 59.1183Z" fill="#6B5DFF"/>
<path fill-rule="evenodd" clip-rule="evenodd" d="M13.3 56.2183C13.3 56.0183 13.3 55.8183 13.5 55.7183C13.7 55.6183 14 55.7183 14.2 55.5183C14.1 55.5183 14.1 55.6183 14 55.6183C14.2 55.5183 14.3 55.3183 14.1 55.2183C14.1 55.2183 14.1 55.3183 14.2 55.3183C14.1 55.0183 13.9 55.0183 13.6 55.0183C13.4 55.0183 13.2 55.1183 13 55.3183C12.7 55.6183 12.7 56.0184 12.8 56.4184C13 56.6184 13.3 56.5183 13.3 56.2183Z" fill="#6B5DFF"/>
<path fill-rule="evenodd" clip-rule="evenodd" d="M13.3 54.7183C13.1 54.5183 12.9 54.3183 13 54.0183C13 53.9183 13.2 53.7183 13.3 53.7183C13.4 53.7183 13.5 53.7183 13.7 53.7183C14 53.7183 13.6 53.7183 13.8 53.7183C13.9 53.7183 14 53.8183 14.1 53.7183C14.5 53.6183 14.2 53.2183 14 53.0183C13.8 52.8183 13.4 52.8183 13.1 52.9183C12.8 53.0183 12.6 53.2183 12.5 53.5183C12.3 54.0183 12.6 54.6183 13.1 54.9183C13.2 55.1183 13.4 54.8183 13.3 54.7183Z" fill="#6B5DFF"/>
<path fill-rule="evenodd" clip-rule="evenodd" d="M10.8 53.4183V53.3183C10.8 53.3183 10.8 53.3183 10.8 53.2183C10.8 53.2183 10.9 53.2183 10.9 53.1183C11 53.1183 10.9 53.1183 11 53.1183C11.1 53.1183 11.3 53.0183 11.3 52.8183C11.4 52.7183 11.3 52.5183 11.1 52.5183C10.9 52.4183 10.5 52.6183 10.4 52.8183C10.3 53.0183 10.3 53.3183 10.4 53.5183C10.5 53.7183 10.8 53.6183 10.8 53.4183Z" fill="#6B5DFF"/>
<path fill-rule="evenodd" clip-rule="evenodd" d="M19.1 43.2183C18.2 42.8183 17.2 43.3183 17.4 44.4183C17.5 44.3183 17.6 44.3183 17.7 44.2183C16.6 43.7183 15.8 44.8183 16 45.8183C16.1 45.7183 16.2 45.6183 16.3 45.5183C14.9 45.2183 13.6 46.3183 14 47.8183C14.1 48.1183 14.5 48.0183 14.5 47.7183C14.5 47.3183 14.4 46.9183 14.6 46.4183C14.9 45.8183 15.7 45.7183 16.2 45.8183C16.4 45.8183 16.5 45.7183 16.5 45.5183C16.4 44.8183 16.8 44.0183 17.7 44.3183C17.8 44.3183 18 44.2183 17.9 44.1183C17.7 43.1183 18.7 43.1183 19.1 43.2183C19.2 43.2183 19.1 43.4183 19.1 43.2183Z" fill="#6B5DFF"/>
<path fill-rule="evenodd" clip-rule="evenodd" d="M17.8 43.0183C17.5 42.6183 17 42.6183 16.6 42.9183C16.1 43.2183 16.1 43.7183 16.1 44.2183C16.2 44.1183 16.3 44.1183 16.3 44.0183C15.7 43.8183 15.1 43.9183 14.8 44.4183C14.6 44.9183 14 45.7183 14.6 46.1183C14.7 46.2183 14.9 46.2183 14.9 46.0183C15 45.5183 14.5 45.1183 14.9 44.6183C15 44.5183 15.3 44.4183 15.4 44.3183C15.7 44.2183 15.9 44.2183 16.2 44.3183C16.3 44.3183 16.5 44.2183 16.4 44.1183C16.2 43.2183 17 43.0183 17.7 43.1183C17.8 43.1183 17.9 43.0183 17.8 43.0183Z" fill="#6B5DFF"/>
<path fill-rule="evenodd" clip-rule="evenodd" d="M16.2 42.6183C15.6 42.5183 15.2 42.8183 14.9 43.3183C14.6 43.7183 14.7 44.4183 15.2 44.6183C15.3 44.7183 15.5 44.5183 15.4 44.4183C15.3 44.2183 15.1 44.1183 15.1 43.9183C15 43.7183 15.1 43.5183 15.2 43.3183C15.4 42.9183 15.8 42.7183 16.2 42.7183C16.3 42.7183 16.3 42.6183 16.2 42.6183Z" fill="#6B5DFF"/>
<path fill-rule="evenodd" clip-rule="evenodd" d="M15.1 44.3184C14.3 43.5184 12.6 44.4183 13 45.5183C13.1 45.7183 13.5 46.1183 13.6 45.7183C13.7 45.4183 13.5 45.3183 13.5 45.0183C13.6 44.5183 14.4 44.3183 14.8 44.5183C15 44.7183 15.2 44.4184 15.1 44.3184Z" fill="#6B5DFF"/>
<path fill-rule="evenodd" clip-rule="evenodd" d="M15.1 42.2183C14.5 42.0183 14 42.2183 13.7 42.7183C13.4 43.1183 13.2 43.9183 13.6 44.4183C13.8 44.6183 14.1 44.4183 14 44.1183C13.9 43.7183 13.8 43.5183 14 43.1183C14.2 42.8183 14.5 42.4183 14.9 42.5183C15.2 42.6183 15.3 42.3183 15.1 42.2183Z" fill="#6B5DFF"/>
<path fill-rule="evenodd" clip-rule="evenodd" d="M16 41.1183C15.8 40.7183 15.3 40.4183 14.9 40.6183C14.4 40.8183 14.4 41.3183 14.5 41.8183C14.6 41.7183 14.7 41.6183 14.8 41.5183C14.2 41.3183 13.5 41.5183 13.2 42.0183C12.9 42.4183 12.9 43.3183 13.6 43.2183C13.7 43.2183 13.8 43.1183 13.8 43.0183C13.8 42.6183 13.4 42.5183 13.8 42.1183C14.1 41.8183 14.5 41.8183 14.8 41.9183C15 42.0183 15.1 41.8183 15.1 41.6183C14.9 40.9183 15.6 40.9183 16 41.2183C15.9 41.3183 16 41.2183 16 41.1183Z" fill="#6B5DFF"/>
<path fill-rule="evenodd" clip-rule="evenodd" d="M14.3 40.1183C13.4 39.8183 12.8 41.0183 13 41.8183C13.1 42.1183 13.5 42.0183 13.5 41.7183C13.5 41.1183 13.5 40.3183 14.3 40.3183C14.4 40.2183 14.4 40.1183 14.3 40.1183Z" fill="#6B5DFF"/>
<path fill-rule="evenodd" clip-rule="evenodd" d="M13 33.7183C13.2 33.0183 12.4 32.3183 11.8 32.9183C11.7 33.0183 11.6 33.2183 11.8 33.3183C11.9 33.4183 12.1 33.2183 12.2 33.2183C12.5 33.1183 12.8 33.4183 12.8 33.7183C12.8 33.8183 13 33.8183 13 33.7183Z" fill="#6B5DFF"/>
<path fill-rule="evenodd" clip-rule="evenodd" d="M11.8 33.5183C11.9 33.5183 11.9 33.4183 12 33.4183C12.1 33.0183 11.7 32.7183 11.4 32.6183C10.9 32.4183 10.4 32.7183 10.2 33.2183C10.1 33.4183 10.1 33.9183 10.4 33.8183C10.7 33.7183 10.7 33.3183 10.9 33.2183C11.1 33.1183 11.5 33.3183 11.6 33.5183C11.6 33.5183 11.7 33.5183 11.8 33.5183C11.7 33.4183 11.7 33.4183 11.7 33.4183C11.7 33.6183 11.8 33.6183 11.8 33.5183Z" fill="#6B5DFF"/>
<path fill-rule="evenodd" clip-rule="evenodd" d="M12.5 32.3183C12.4 31.9183 12.1 31.6183 11.7 31.6183C11.3 31.7183 10.9 32.0183 10.8 32.4183C10.8 32.6183 11 32.8183 11.2 32.7183C11.5 32.5183 11.9 31.8183 12.3 32.4183C12.3 32.5183 12.5 32.4183 12.5 32.3183Z" fill="#6B5DFF"/>
<path fill-rule="evenodd" clip-rule="evenodd" d="M13.4 38.0183C13.5 37.5183 13.3 37.0183 12.8 36.8183C12.2 36.6183 11.6 37.2183 11.7 37.8183C11.7 38.1183 12.1 38.1183 12.3 37.9183C12.4 37.8183 12.4 37.6183 12.5 37.5183C12.5 37.5183 12.6 37.5183 12.7 37.5183C12.9 37.6183 13.1 37.8183 13.1 38.0183C13.1 38.2183 13.4 38.2183 13.4 38.0183Z" fill="#6B5DFF"/>
<path fill-rule="evenodd" clip-rule="evenodd" d="M12.3 37.7183C12.2 37.4183 12.1 37.3183 11.8 37.2183C11.5 37.1183 11.1 37.3183 11 37.6183C11 37.8183 11.1 38.0183 11.3 38.0183C11.5 38.0183 11.6 37.9183 11.7 37.9183C11.8 37.9183 11.8 37.9183 11.9 38.0183C12.1 38.0183 12.4 37.9183 12.3 37.7183Z" fill="#6B5DFF"/>
<path fill-rule="evenodd" clip-rule="evenodd" d="M12.8 36.6183C12.6 36.4183 12.4 36.3183 12.2 36.3183C11.9 36.3183 11.7 36.4183 11.5 36.7183C11.5 36.8183 11.5 36.9183 11.5 36.9183C11.6 37.1183 11.9 36.9183 12 36.9183C12.2 36.8183 12.5 36.8183 12.7 36.8183C12.8 36.8183 12.8 36.7183 12.8 36.6183Z" fill="#6B5DFF"/>
<path fill-rule="evenodd" clip-rule="evenodd" d="M7.60001 50.1183C7.50001 49.9183 7.50001 49.7183 7.50001 49.4183C7.50001 48.9183 8.09999 49.1183 8.29999 49.3183C8.49999 49.5183 8.70001 49.3183 8.60001 49.1183C8.50001 48.8183 8.40001 48.3183 8.60001 48.0183C8.80001 47.7183 9.30001 47.9183 9.50001 47.8183C9.60001 47.8183 9.60001 47.7183 9.60001 47.6183C9.40001 47.1183 8.59999 47.1183 8.29999 47.6183C7.99999 48.1183 8.09999 48.8183 8.29999 49.3183C8.39999 49.2183 8.50001 49.2183 8.60001 49.1183C8.30001 48.7183 7.69999 48.4183 7.29999 48.8183C6.79999 49.3183 7.09999 49.7183 7.29999 50.3183C7.29999 50.4183 7.60001 50.3183 7.60001 50.1183Z" fill="#6B5DFF"/>
<path fill-rule="evenodd" clip-rule="evenodd" d="M8.6 47.6183C8.2 47.3183 7.79999 47.5184 7.49999 47.8184C7.19999 48.0184 6.89999 48.5183 6.99999 48.9183C7.09999 49.1183 7.29999 49.1183 7.39999 49.0183C7.49999 48.8183 7.6 48.5184 7.7 48.3184C7.9 48.1184 8.09998 48.0183 8.29998 48.1183C8.59998 48.1183 8.7 47.8183 8.6 47.6183Z" fill="#6B5DFF"/>
<path fill-rule="evenodd" clip-rule="evenodd" d="M7.8 44.2183C7.8 44.0183 7.80002 43.8183 7.70002 43.6183C7.60002 43.4183 7.40002 43.3183 7.20002 43.2183C7.00002 43.1183 6.80002 43.2183 6.60002 43.3183C6.50002 43.4183 6.4 43.5183 6.4 43.6183C6.3 43.8183 6.4 43.9183 6.4 44.1183C6.4 44.3183 6.8 44.4183 6.9 44.2183C6.9 44.1183 7.00002 44.0183 7.10002 44.0183C7.10002 44.0183 7.10002 44.0183 7.20002 44.0183C7.40002 44.0183 7.60002 44.2183 7.70002 44.3183C7.60002 44.4183 7.8 44.3183 7.8 44.2183Z" fill="#6B5DFF"/>
<path fill-rule="evenodd" clip-rule="evenodd" d="M6.6 44.3183C6.7 43.9183 6.6 43.6183 6.2 43.5183C5.8 43.4183 5.19998 43.6183 5.29998 44.0183C5.29998 44.1183 5.39998 44.1183 5.39998 44.1183C5.49998 44.1183 5.6 44.1183 5.7 44.0183C5.8 44.0183 5.89999 43.9183 5.99999 43.9183C6.19999 43.9183 6.39998 44.0183 6.39998 44.2183C6.39998 44.4183 6.6 44.4183 6.6 44.3183Z" fill="#6B5DFF"/>
<path fill-rule="evenodd" clip-rule="evenodd" d="M7 42.6183C6.8 42.5183 6.59999 42.5183 6.39999 42.5183C6.19999 42.5183 5.9 42.7183 6 43.0183C6 43.1183 6.10001 43.1183 6.20001 43.1183C6.30001 43.1183 6.4 43.0183 6.5 42.9183C6.6 42.9183 6.69998 42.9183 6.79998 42.9183C7.09998 43.0183 7.3 42.7183 7 42.6183Z" fill="#6B5DFF"/>
<path fill-rule="evenodd" clip-rule="evenodd" d="M8.10001 38.1183C8.10001 37.8183 8.00001 37.6183 7.60001 37.5183C7.30001 37.5183 6.90001 37.7183 7.00001 38.0183C7.00001 38.1183 7.10002 38.1183 7.20002 38.1183C7.40002 38.1183 7.50001 37.9183 7.60001 37.9183C7.70001 37.9183 7.8 38.0183 7.9 38.1183C7.9 38.3183 8.10001 38.3183 8.10001 38.1183Z" fill="#6B5DFF"/>
<path fill-rule="evenodd" clip-rule="evenodd" d="M7.4 38.1183C7.6 37.8183 7.6 37.5183 7.3 37.2183C7.2 37.1183 7 37.0183 6.8 36.9183C6.6 36.8183 6.40002 36.9183 6.20002 37.0183C6.00002 37.1183 6.2 37.4183 6.3 37.5183C6.6 37.6183 7.20002 37.5183 7.10002 38.0183C7.20002 38.1183 7.3 38.2183 7.4 38.1183Z" fill="#6B5DFF"/>
<path fill-rule="evenodd" clip-rule="evenodd" d="M8.2 37.0183C8.1 36.8183 7.99998 36.6183 7.79998 36.4183C7.59998 36.3183 7.29999 36.3183 7.09999 36.4183C6.99999 36.5183 6.99999 36.5183 7.09999 36.6183L7.2 36.7183C7.2 36.7183 7.29998 36.8183 7.29998 36.7183C7.39998 36.8183 7.49999 36.8183 7.59999 36.8183C7.69999 36.8183 7.79998 36.9183 7.89998 37.1183C7.79998 37.4183 8.3 37.3183 8.2 37.0183Z" fill="#6B5DFF"/>
<path fill-rule="evenodd" clip-rule="evenodd" d="M12.3 29.1183C12.4 28.6183 12.3 28.1183 12 27.8183C11.6 27.4183 10.9 27.5183 10.6 27.9183C10.4 28.2183 10.8 28.5183 11 28.3183C11.3 28.2183 11.4 28.0183 11.7 28.3183C11.9 28.5183 12.1 28.8183 12.1 29.1183C12 29.2183 12.3 29.3183 12.3 29.1183Z" fill="#6B5DFF"/>
<path fill-rule="evenodd" clip-rule="evenodd" d="M11.2 27.8183C11.5 26.9183 9.80001 26.7183 9.70001 27.3183C9.70001 27.4183 9.69999 27.5183 9.79999 27.5183C9.99999 27.6183 10.2 27.5183 10.5 27.5183C10.7 27.5183 10.9 27.5183 10.9 27.8183C10.9 28.0183 11.1 28.0183 11.2 27.8183Z" fill="#6B5DFF"/>
<path fill-rule="evenodd" clip-rule="evenodd" d="M10.3 27.0183C10.3 26.7183 10.2 26.5184 9.99999 26.3184C9.79999 26.1184 9.4 26.1184 9.2 26.3184C9.1 26.4184 9.09998 26.6183 9.29998 26.7183C9.39998 26.8183 9.6 26.7184 9.7 26.8184C9.8 26.8184 9.79998 27.0183 9.89998 27.1183C9.89998 27.3183 10.2 27.2183 10.3 27.0183Z" fill="#6B5DFF"/>
<path fill-rule="evenodd" clip-rule="evenodd" d="M12.2 27.4183C12.2 27.1183 12 26.8183 11.7 26.6183C11.4 26.4183 10.9 26.4183 10.6 26.6183C10.3 26.9183 10.7 27.1183 11 27.0183C11.4 26.9183 11.7 27.0183 11.8 27.4183C11.9 27.6183 12.3 27.6183 12.2 27.4183Z" fill="#6B5DFF"/>
<path fill-rule="evenodd" clip-rule="evenodd" d="M11 26.8183C11.2 26.5183 11.3 26.1183 11.1 25.7183C10.9 25.3183 10.4 25.1183 10 25.2183C9.80001 25.3183 9.7 25.6183 9.9 25.7183C10.1 25.8183 10.3 25.8183 10.5 26.0183C10.7 26.2183 10.7 26.4183 10.6 26.6183C10.7 26.8183 10.9 26.9183 11 26.8183Z" fill="#6B5DFF"/>
<path fill-rule="evenodd" clip-rule="evenodd" d="M23.1 51.3183C22.9 50.9183 22.8 50.3183 22.9 49.8183C23 49.2183 23.7 49.3183 23.9 48.9183C24 48.8183 23.9 48.7183 23.9 48.6183C23.3 48.1183 22.5 48.8183 22.3 49.4183C22.1 50.1183 22.4 50.8183 22.9 51.3183C22.9 51.5183 23.1 51.4183 23.1 51.3183Z" fill="#6B5DFF"/>
<path fill-rule="evenodd" clip-rule="evenodd" d="M37.7 62.5183C36.9 62.6183 36.1 62.6183 35.3 62.7183C34.4 62.7183 33.4 62.6183 32.5 62.7183C32.4 62.7183 32.3 62.9183 32.4 63.0183C33.9 63.8183 36.2 63.3183 37.7 62.7183C37.8 62.6183 37.8 62.5183 37.7 62.5183Z" fill="#6B5DFF"/>
<path fill-rule="evenodd" clip-rule="evenodd" d="M40.1 61.0183C40.1 61.2183 40 61.3183 39.9 61.4183C39.8 61.5183 39.8 61.7183 40 61.7183C40.2 61.8183 40.3 61.5183 40.4 61.4183C40.5 61.3183 40.5 61.1183 40.5 60.9183C40.4 60.8183 40.1 60.8183 40.1 61.0183Z" fill="#6B5DFF"/>
<path fill-rule="evenodd" clip-rule="evenodd" d="M41.2 57.2183C41.6 57.0183 41.9 56.4183 41.5 56.0183C41.4 55.9183 41.3 55.9183 41.3 56.0183C41.1 56.2183 41.1 56.6183 40.9 56.8183C40.7 57.1183 40.9 57.4183 41.2 57.2183Z" fill="#6B5DFF"/>
<path fill-rule="evenodd" clip-rule="evenodd" d="M27.9 46.9183C27.6 47.1183 27.1 47.1183 26.8 47.0183C26.5 47.0183 26.2 46.9183 25.9 47.0183C25.8 47.0183 25.8 47.2183 25.9 47.3183C26.5 47.8183 27.5 47.3183 28 46.9183C28.1 47.0183 28 46.9183 27.9 46.9183Z" fill="#6B5DFF"/>
<path fill-rule="evenodd" clip-rule="evenodd" d="M31.3 0.118332L31.8 3.01834L34.6 3.51834L31.8 4.01834L31.3 6.81834L30.8 4.01834L27.9 3.51834L30.8 3.01834L31.3 0.118332Z" fill="#6B5DFF"/>
<path fill-rule="evenodd" clip-rule="evenodd" d="M33 1.71834L31.8 3.51834L33 5.21834L31.3 4.01834L29.6 5.21834L30.8 3.51834L29.6 1.71834L31.3 3.01834L33 1.71834Z" fill="#6B5DFF"/>
<path fill-rule="evenodd" clip-rule="evenodd" d="M63.3 37.9183L63.8 40.7183L66.7 41.2183L63.8 41.7183L63.3 44.5183L62.8 41.7183L60 41.2183L62.8 40.7183L63.3 37.9183Z" fill="#6B5DFF"/>
<path fill-rule="evenodd" clip-rule="evenodd" d="M65.1 39.5183L63.8 41.2183L65.1 42.9183L63.3 41.7183L61.6 42.9183L62.8 41.2183L61.6 39.5183L63.3 40.7183L65.1 39.5183Z" fill="#6B5DFF"/>
<path fill-rule="evenodd" clip-rule="evenodd" d="M3.29999 60.9184L3.79999 63.8183L6.60001 64.3183L3.79999 64.8183L3.29999 67.6183L2.79999 64.8183L0 64.3183L2.79999 63.8183L3.29999 60.9184Z" fill="#6B5DFF"/>
<path fill-rule="evenodd" clip-rule="evenodd" d="M5 62.6183L3.79999 64.3183L5 66.0183L3.29999 64.8183L1.60001 66.0183L2.79999 64.3183L1.60001 62.6183L3.29999 63.8183L5 62.6183Z" fill="#6B5DFF"/>
</svg>
