<svg width="84" height="83" viewBox="0 0 84 83" fill="none" xmlns="http://www.w3.org/2000/svg">
<path fill-rule="evenodd" clip-rule="evenodd" d="M38.9 39.0392C38.9 39.0392 34.5 37.2392 34.2 32.3392C33.9 27.4392 35 24.2392 32.8 23.6392C30.6 23.0392 18.6 22.2392 13 20.7392C8.49998 19.5392 -0.300014 16.1392 1.59999 6.93917C3.49999 -2.26083 11.9 1.63919 12.2 5.23919C12.5 8.83919 7.39998 10.2392 7.39998 10.2392C7.39998 10.2392 7.49999 14.8392 12.6 16.4392C17.7 17.9392 28.4 14.2392 34.5 15.3392C40.6 16.4392 42.2 18.9392 42.5 22.1392C42.8 25.2392 38.6 27.0392 38.6 27.0392C38.6 27.0392 40 34.7392 41.8 35.5392C43.6 36.3392 39.8 39.5392 38.9 39.0392Z" fill="#F0F2FB"/>
<path fill-rule="evenodd" clip-rule="evenodd" d="M38.6 39.5392C38.1 39.3392 33.9 37.3392 33.6 32.3392C33.5 30.7392 33.5 29.3392 33.6 28.0392C33.7 25.8392 33.7 24.4392 32.7 24.1392C31.9 23.9392 29.5 23.6392 26.6 23.3392C22.1 22.8392 16.3 22.2392 12.9 21.3392C10.6 20.7392 7.19999 19.5392 4.59999 17.3392C1.89999 15.0392 0.0999891 11.7392 1.09999 6.93917C1.69999 3.83917 3.09999 2.1392 4.59999 1.3392C5.49999 0.839199 6.49999 0.739199 7.39999 0.839199C8.29999 0.939199 9.19999 1.23919 9.99999 1.63919C11.5 2.53919 12.6 3.9392 12.8 5.3392C13.1 8.6392 9.29999 10.2392 7.99999 10.7392C8.19999 11.8392 8.89999 14.8392 12.7 15.9392C15.2 16.7392 19.3 16.1392 23.5 15.4392C27.5 14.8392 31.5 14.2392 34.6 14.8392C37.8 15.4392 39.8 16.3392 41.1 17.6392C42.4 18.9392 42.9 20.4392 43.1 22.1392C43.4 25.0392 40.4 26.8392 39.3 27.3392C39.6 28.9392 40.8 34.4392 42.1 35.0392C42.8 35.3392 43 35.8392 42.9 36.5392C42.8 36.8392 42.7 37.2392 42.4 37.5392C42.2 37.8392 41.9 38.1392 41.6 38.4392C40.6 39.2392 39.3 39.8392 38.6 39.5392ZM34.7 32.2392C35 36.6392 38.7 38.2392 39.1 38.4392C39.1 38.4392 39.2 38.4392 39.2 38.5392C39.4 38.6392 40.2 38.1392 40.8 37.5392C41 37.3392 41.3 37.0392 41.4 36.8392C41.5 36.6392 41.6 36.4392 41.7 36.2392C41.7 36.1392 41.7 36.0392 41.6 36.0392C39.6 35.0392 38.2 27.4392 38.1 27.1392C38 26.8392 38.2 26.6392 38.4 26.5392C38.4 26.5392 42.2 24.9392 41.9 22.2392C41.8 20.8392 41.3 19.5392 40.2 18.4392C39.1 17.3392 37.2 16.5392 34.3 15.9392C31.5 15.4392 27.5 16.0392 23.6 16.6392C19.3 17.2392 15.1 17.9392 12.3 17.0392C6.79999 15.3392 6.69999 10.3392 6.69999 10.3392C6.69999 10.0392 6.89999 9.83919 7.09999 9.73919C7.09999 9.73919 11.8 8.5392 11.5 5.3392C11.4 4.3392 10.5 3.23919 9.29999 2.63919C8.59999 2.23919 7.89999 2.03917 7.09999 1.93917C6.39999 1.83917 5.59999 2.0392 4.89999 2.3392C3.59999 3.0392 2.49999 4.43919 1.99999 7.13919C1.09999 11.4392 2.69999 14.4392 5.09999 16.4392C7.49999 18.5392 10.8 19.6392 13 20.2392C16.3 21.1392 22 21.7392 26.5 22.2392C29.5 22.5392 31.9 22.8392 32.8 23.1392C34.7 23.6392 34.7 25.4392 34.6 28.1392C34.7 29.3392 34.6 30.7392 34.7 32.2392Z" fill="#6B5DFF"/>
<path fill-rule="evenodd" clip-rule="evenodd" d="M36.5 21.1392C34.6 21.6392 34.7 24.6392 35.8 25.8392C37 27.2392 39.6 27.0392 40.9 25.8392C41.1 25.7392 40.9 25.4392 40.7 25.4392C39.5 25.4392 38.5 26.1392 37.3 25.9392C36.3 25.7392 35.8 24.5392 35.7 23.6392C35.6 22.7392 36.1 22.0392 36.6 21.3392C36.7 21.2392 36.6 21.1392 36.5 21.1392Z" fill="#6B5DFF"/>
<path fill-rule="evenodd" clip-rule="evenodd" d="M20.1 19.9392C22.9 20.2392 25.6 20.9392 28.4 21.4392C29.8 21.6392 31.2 22.0392 32.3 22.9392C33.5 23.9392 33.6 25.4392 33.9 26.8392C34 27.1392 34.3 27.0392 34.3 26.7392C34.6 24.0392 32.9 22.1392 30.5 21.2392C28.9 20.6392 27.1 20.6392 25.4 20.4392C23.6 20.1392 21.8 19.8392 19.9 19.7392C20 19.8392 20 19.9392 20.1 19.9392Z" fill="#6B5DFF"/>
<path fill-rule="evenodd" clip-rule="evenodd" d="M4.79999 4.2392C3.29999 5.2392 2.89999 7.03919 3.89999 8.63919C4.79999 10.1392 7.29999 11.2392 8.79999 10.2392C9.09999 10.0392 8.99999 9.73919 8.59999 9.63919C6.99999 9.53919 5.89999 9.73918 4.69999 8.53918C3.59999 7.33918 3.89999 5.5392 4.79999 4.2392Z" fill="#6B5DFF"/>
<path fill-rule="evenodd" clip-rule="evenodd" d="M5.79999 11.6392C6.29999 14.0392 8.89998 15.9392 11 16.7392C13.6 17.7392 17 18.0392 19.4 16.6392C19.5 16.5392 19.5 16.3392 19.3 16.3392C16.7 16.6392 14.5 17.1392 11.9 16.4392C10.5 16.0392 9.19999 15.2392 8.09999 14.3392C7.29999 13.6392 6.69999 12.5392 5.79999 11.6392Z" fill="#6B5DFF"/>
<path fill-rule="evenodd" clip-rule="evenodd" d="M6.19999 4.2392C7.29999 3.8392 8.2 4.3392 8.8 5.3392C9.1 5.8392 8.89999 6.4392 8.49999 6.8392C8.09999 7.2392 7.49999 7.4392 6.99999 7.3392C6.19999 7.2392 6.19999 6.53919 5.69999 6.13919C5.59999 6.03919 5.49999 6.1392 5.39999 6.2392C5.09999 7.0392 6.1 7.83919 6.8 8.03919C7.6 8.23919 8.49999 7.8392 8.99999 7.2392C9.59999 6.6392 9.59999 5.73919 9.19999 5.03919C8.59999 3.93919 7.19999 3.63919 6.09999 4.13919C6.09999 4.13919 6.09999 4.2392 6.19999 4.2392Z" fill="#6B5DFF"/>
<path fill-rule="evenodd" clip-rule="evenodd" d="M38 20.9392C38.2 20.9392 38.4 20.8392 38.7 20.9392C39 21.0392 39.3 21.1392 39.5 21.3392C39.9 21.6392 40.2 22.0392 40.4 22.5392C40.6 23.0392 40.4 23.5392 39.8 23.7392C39.3 23.8392 38.8 23.8392 38.3 23.6392C37.8 23.3392 38.1 23.0392 38.3 22.6392C38.4 22.5392 38.3 22.2392 38.1 22.3392C37.3 22.6392 37.3 23.6392 37.9 24.0392C38.5 24.4392 39.4 24.5392 40.1 24.2392C41 23.9392 41.2 23.0392 40.8 22.2392C40.5 21.5392 40 21.0392 39.4 20.7392C39.1 20.5392 38 20.2392 38 20.9392Z" fill="#6B5DFF"/>
<path fill-rule="evenodd" clip-rule="evenodd" d="M37.1 28.9392C37.5 31.1392 37.9 34.9392 40.5 35.7392C40.7 35.8392 40.8 35.5392 40.7 35.4392C39.7 34.3392 39 33.5392 38.4 32.1392C37.9 31.0392 37.6 29.9392 37.1 28.9392C37.1 28.8392 37 28.8392 37.1 28.9392Z" fill="#6B5DFF"/>
<path fill-rule="evenodd" clip-rule="evenodd" d="M39.5 37.1392C40.3 36.9392 41.6 36.1392 41.5 35.1392C41.5 34.9392 41.2 34.8392 41.1 34.9392C40.8 35.3392 40.7 35.7392 40.4 36.1392C40.1 36.4392 39.8 36.7392 39.5 37.1392Z" fill="#6B5DFF"/>
<path fill-rule="evenodd" clip-rule="evenodd" d="M38.8 18.4392C38.4 18.3392 37.9 18.3392 37.5 18.5392C37.1 18.6392 36.6 18.9392 36.5 19.3392C36.5 19.4392 36.6 19.5392 36.7 19.5392C37 19.4392 37.3 19.2392 37.5 19.0392C37.9 18.8392 38.3 18.6392 38.7 18.6392C38.9 18.7392 38.9 18.4392 38.8 18.4392Z" fill="#6B5DFF"/>
<path fill-rule="evenodd" clip-rule="evenodd" d="M36.9 17.2392C36.2 17.3392 34.9 17.4392 34.7 18.3392C34.7 18.4392 34.8 18.5392 34.9 18.5392C35.2 18.4392 35.5 18.1392 35.8 18.0392C36.1 17.8392 36.5 17.6392 36.9 17.6392C37.1 17.5392 37.1 17.2392 36.9 17.2392Z" fill="#6B5DFF"/>
<path fill-rule="evenodd" clip-rule="evenodd" d="M34.4 17.0392C34 17.0392 33.3 17.2392 33.2 17.7392C33.2 17.8392 33.3 17.9392 33.4 17.8392C33.6 17.7392 33.6 17.6392 33.8 17.5392C34 17.4392 34.2 17.3392 34.4 17.3392C34.6 17.4392 34.6 17.0392 34.4 17.0392Z" fill="#6B5DFF"/>
<path fill-rule="evenodd" clip-rule="evenodd" d="M32.6 16.6392C31.7 16.9392 30.2 17.3392 29.8 18.3392C29.8 18.4392 29.9 18.6392 30 18.5392C30.4 18.4392 30.7 18.0392 31.1 17.8392C31.6 17.5392 32.1 17.2392 32.7 16.9392C32.9 16.9392 32.8 16.5392 32.6 16.6392Z" fill="#6B5DFF"/>
<path fill-rule="evenodd" clip-rule="evenodd" d="M29.2 16.6392C28.6 16.9392 27.8 17.2392 27.6 17.9392C27.6 18.0392 27.6 18.1392 27.7 18.1392C28.3 17.9392 28.8 17.3392 29.3 17.0392C29.6 16.9392 29.5 16.5392 29.2 16.6392Z" fill="#6B5DFF"/>
<path fill-rule="evenodd" clip-rule="evenodd" d="M26.7 16.9392C26.4 17.0392 26.1 17.2392 25.8 17.4392C25.6 17.5392 25.3 17.7392 25.2 17.9392C25.1 18.0392 25.2 18.1392 25.3 18.1392C25.6 18.1392 25.8 17.9392 26 17.8392C26.3 17.6392 26.6 17.5392 26.9 17.3392C27.1 17.1392 27 16.8392 26.7 16.9392Z" fill="#6B5DFF"/>
<path fill-rule="evenodd" clip-rule="evenodd" d="M24.6 17.1392C24.4 17.2392 24.2 17.3392 24 17.4392C23.8 17.5392 23.6 17.6392 23.5 17.8392C23.4 17.9392 23.5 18.0392 23.6 18.0392C23.8 18.0392 24 17.9392 24.1 17.8392C24.3 17.7392 24.5 17.6392 24.7 17.5392C25 17.3392 24.8 17.0392 24.6 17.1392Z" fill="#6B5DFF"/>
<path fill-rule="evenodd" clip-rule="evenodd" d="M22 17.3392C21.8 17.4392 21.6 17.4392 21.4 17.5392C21.3 17.5392 21.4 17.7392 21.4 17.7392C21.6 17.7392 21.8 17.6392 22.1 17.6392C22.3 17.5392 22.2 17.2392 22 17.3392Z" fill="#6B5DFF"/>
<path fill-rule="evenodd" clip-rule="evenodd" d="M16.1 19.5392C13.5 19.4392 11.3 18.0392 8.89999 17.1392C8.79999 17.1392 8.79999 17.2392 8.89999 17.2392C11.2 18.6392 13.4 19.7392 16.2 19.6392C16.2 19.6392 16.2 19.5392 16.1 19.5392Z" fill="#6B5DFF"/>
<path fill-rule="evenodd" clip-rule="evenodd" d="M19.1 19.4392C18.9 19.5392 18.7 19.5392 18.5 19.6392C18.3 19.6392 18.1 19.7392 18 19.8392C18 19.9392 18 19.9392 18 20.0392C18.2 20.1392 18.4 20.0392 18.6 20.0392C18.8 19.9392 19 19.9392 19.2 19.7392C19.4 19.6392 19.3 19.3392 19.1 19.4392Z" fill="#6B5DFF"/>
<path fill-rule="evenodd" clip-rule="evenodd" d="M18.2 19.0392C18 19.1392 17.7 19.1392 17.5 19.1392C17.3 19.1392 17 19.1392 16.8 19.2392C16.7 19.2392 16.7 19.3392 16.8 19.4392C17 19.5392 17.3 19.4392 17.5 19.4392C17.8 19.4392 18 19.3392 18.3 19.2392C18.4 19.1392 18.3 18.9392 18.2 19.0392Z" fill="#6B5DFF"/>
<path fill-rule="evenodd" clip-rule="evenodd" d="M16.3 18.4392C16 18.5392 15.8 18.5392 15.5 18.6392C15.3 18.6392 15 18.7392 14.9 18.9392C14.9 19.0392 14.9 19.0392 14.9 19.1392C15.1 19.2392 15.4 19.1392 15.6 19.1392C15.9 19.0392 16.1 19.0392 16.4 18.9392C16.6 18.6392 16.6 18.3392 16.3 18.4392Z" fill="#6B5DFF"/>
<path fill-rule="evenodd" clip-rule="evenodd" d="M14.2 18.0392C13.8 18.0392 13.5 18.0392 13.1 18.2392C13 18.2392 13 18.4392 13.1 18.4392C13.4 18.5392 13.8 18.4392 14.2 18.4392C14.4 18.4392 14.4 18.0392 14.2 18.0392Z" fill="#6B5DFF"/>
<path fill-rule="evenodd" clip-rule="evenodd" d="M8.19999 16.1392C7.89999 16.1392 7.59999 16.1392 7.29999 16.1392C6.99999 16.1392 6.59999 15.9392 6.29999 16.1392C6.19999 16.1392 6.19999 16.2392 6.19999 16.3392C6.39999 16.6392 6.79999 16.6392 7.09999 16.6392C7.39999 16.6392 7.79999 16.6392 8.19999 16.5392C8.39999 16.4392 8.39999 16.2392 8.19999 16.1392Z" fill="#6B5DFF"/>
<path fill-rule="evenodd" clip-rule="evenodd" d="M7.09999 15.3392C6.79999 15.2392 6.39999 15.2392 6.09999 15.1392C5.79999 15.0392 5.49999 15.0392 5.29999 15.1392C5.19999 15.1392 5.19999 15.2392 5.29999 15.2392C5.49999 15.4392 5.79999 15.4392 5.99999 15.5392C6.29999 15.6392 6.69999 15.6392 6.99999 15.7392C7.29999 15.7392 7.39999 15.4392 7.09999 15.3392Z" fill="#6B5DFF"/>
<path fill-rule="evenodd" clip-rule="evenodd" d="M5.8 14.4392C5.5 14.4392 5.29999 14.4392 5.09999 14.3392C4.89999 14.2392 4.69999 14.1392 4.49999 14.1392C4.39999 14.1392 4.39999 14.2392 4.39999 14.3392C4.49999 14.5392 4.79999 14.6392 4.99999 14.7392C5.29999 14.8392 5.5 14.8392 5.8 14.8392C6.1 14.8392 6.1 14.4392 5.8 14.4392Z" fill="#6B5DFF"/>
<path fill-rule="evenodd" clip-rule="evenodd" d="M5.09999 13.3392C4.89999 13.3392 4.69999 13.2392 4.49999 13.1392C4.29999 13.0392 4.09999 12.9392 3.99999 13.0392C3.89999 13.0392 3.89999 13.1392 3.89999 13.1392C3.89999 13.3392 4.19999 13.4392 4.39999 13.5392C4.59999 13.6392 4.79999 13.7392 4.99999 13.7392C5.29999 13.7392 5.29999 13.4392 5.09999 13.3392Z" fill="#6B5DFF"/>
<path fill-rule="evenodd" clip-rule="evenodd" d="M4.99999 12.4392C4.79999 12.3392 4.49999 12.1392 4.29999 12.0392C4.19999 11.9392 3.89999 11.7392 3.69999 11.9392C3.59999 12.1392 3.89999 12.2392 3.99999 12.3392C4.29999 12.5392 4.49999 12.6392 4.79999 12.7392C4.99999 12.8392 5.19999 12.5392 4.99999 12.4392Z" fill="#6B5DFF"/>
<path fill-rule="evenodd" clip-rule="evenodd" d="M4.39999 11.4392C4.19999 11.2392 3.99999 11.1392 3.89999 10.9392C3.69999 10.8392 3.59999 10.6392 3.29999 10.5392C3.19999 10.5392 3.09999 10.6392 3.19999 10.6392C3.19999 10.8392 3.39999 10.9392 3.49999 11.0392C3.69999 11.2392 3.99999 11.3392 4.19999 11.5392C4.29999 11.7392 4.49999 11.5392 4.39999 11.4392Z" fill="#6B5DFF"/>
<path fill-rule="evenodd" clip-rule="evenodd" d="M3.79999 10.2392C3.59999 10.0392 3.39999 9.8392 3.19999 9.7392C3.09999 9.7392 3.09999 9.7392 3.09999 9.8392C3.19999 10.1392 3.39999 10.2392 3.59999 10.4392C3.69999 10.6392 3.99999 10.3392 3.79999 10.2392Z" fill="#6B5DFF"/>
<path fill-rule="evenodd" clip-rule="evenodd" d="M6.29999 5.83919C6.39999 5.93919 6.49999 6.13919 6.59999 6.33919C6.69999 6.43919 6.69999 6.63918 6.79999 6.73918H6.89999C6.89999 6.53918 6.79999 6.43919 6.79999 6.33919C6.59999 6.03919 6.49999 5.83919 6.29999 5.83919C6.29999 5.73919 6.19999 5.73919 6.29999 5.83919Z" fill="#6B5DFF"/>
<path fill-rule="evenodd" clip-rule="evenodd" d="M6.69999 5.93917C6.79999 6.03917 6.89999 6.23919 6.99999 6.33919C7.09999 6.43919 7.09999 6.63919 7.29999 6.73919H7.39999C7.49999 6.53919 7.39999 6.43919 7.29999 6.23919C7.19999 6.03919 7.09999 5.93919 6.89999 5.73919C6.69999 5.53919 6.59999 5.73917 6.69999 5.93917Z" fill="#6B5DFF"/>
<path fill-rule="evenodd" clip-rule="evenodd" d="M7.29999 5.8392C7.39999 6.0392 7.59999 6.2392 7.79999 6.2392C7.89999 6.2392 7.89999 6.23919 7.89999 6.13919C7.89999 5.93919 7.59999 5.73919 7.49999 5.63919C7.39999 5.63919 7.19999 5.7392 7.29999 5.8392Z" fill="#6B5DFF"/>
<path fill-rule="evenodd" clip-rule="evenodd" d="M7.59999 5.43917C7.69999 5.53917 7.89999 5.73919 8.09999 5.83919C8.19999 5.83919 8.29999 5.83919 8.19999 5.73919C8.09999 5.53919 7.99999 5.43919 7.79999 5.23919C7.69999 5.03919 7.49999 5.23917 7.59999 5.43917Z" fill="#6B5DFF"/>
<path fill-rule="evenodd" clip-rule="evenodd" d="M8.19999 8.23918C8.29999 8.33918 8.39999 8.53918 8.59999 8.63918C8.69999 8.73918 8.79999 8.93919 8.99999 8.83919L9.09999 8.73918C9.09999 8.53918 8.99999 8.43919 8.89999 8.33919C8.79999 8.23919 8.59999 8.03916 8.49999 7.93916C8.19999 7.83916 7.99999 8.03918 8.19999 8.23918Z" fill="#6B5DFF"/>
<path fill-rule="evenodd" clip-rule="evenodd" d="M8.89998 7.73919C9.09998 7.73919 9.19998 7.93918 9.39998 8.03918C9.49998 8.03918 9.49998 8.03917 9.49998 7.93917C9.49998 7.73917 9.09998 7.53918 8.89998 7.53918C8.69998 7.43918 8.69998 7.73919 8.89998 7.73919Z" fill="#6B5DFF"/>
<path fill-rule="evenodd" clip-rule="evenodd" d="M9.3 7.23921C9.5 7.33921 9.8 7.43919 10.1 7.43919C10.2 7.43919 10.2 7.33921 10.1 7.23921C10 7.13921 9.9 7.1392 9.8 7.0392C9.7 7.0392 9.49999 6.93919 9.39999 6.93919C9.19999 6.83919 9.1 7.13921 9.3 7.23921Z" fill="#6B5DFF"/>
<path fill-rule="evenodd" clip-rule="evenodd" d="M9.8 6.53918C10 6.63918 10.3 6.73919 10.6 6.73919C10.7 6.73919 10.7 6.63918 10.6 6.53918C10.4 6.33918 10.1 6.33919 9.89999 6.23919C9.69999 6.03919 9.6 6.43918 9.8 6.53918Z" fill="#6B5DFF"/>
<path fill-rule="evenodd" clip-rule="evenodd" d="M9.89999 5.53918C9.99999 5.53918 10.2 5.43918 10.3 5.43918C10.5 5.43918 10.6 5.3392 10.8 5.3392C10.9 5.3392 10.9 5.13919 10.8 5.13919C10.6 5.03919 10.5 5.03918 10.3 5.03918C10.1 5.03918 10 5.03919 9.8 5.13919C9.6 5.23919 9.69999 5.63918 9.89999 5.53918Z" fill="#6B5DFF"/>
<path fill-rule="evenodd" clip-rule="evenodd" d="M9.89998 4.03918C10.1 4.03918 10.3 4.0392 10.5 3.8392V3.7392C10.4 3.5392 10.1 3.53918 9.89998 3.53918C9.69998 3.63918 9.69998 4.03918 9.89998 4.03918Z" fill="#6B5DFF"/>
<path fill-rule="evenodd" clip-rule="evenodd" d="M9.1 3.2392C9.2 3.1392 9.19999 3.13918 9.19999 3.03918C9.19999 2.93918 9.2 2.93918 9.1 2.93918C9 2.93918 8.89999 3.03918 8.89999 3.03918C8.69999 3.13918 9 3.3392 9.1 3.2392Z" fill="#6B5DFF"/>
<path fill-rule="evenodd" clip-rule="evenodd" d="M7.59999 2.23921C7.69999 2.13921 7.79999 2.1392 7.89999 2.0392C7.99999 1.9392 7.89999 1.83922 7.89999 1.83922C7.69999 1.73922 7.49999 1.83919 7.39999 1.93919C7.09999 2.13919 7.39999 2.33921 7.59999 2.23921Z" fill="#6B5DFF"/>
<path fill-rule="evenodd" clip-rule="evenodd" d="M34.7 20.6392C34.5 20.8392 34.3 20.9392 34.1 21.1392C33.9 21.3392 33.8 21.4392 33.7 21.6392C33.7 21.7392 33.8 21.8392 33.9 21.8392C34.1 21.8392 34.3 21.6392 34.4 21.4392C34.6 21.2392 34.8 21.0392 34.9 20.8392C35.1 20.6392 34.9 20.4392 34.7 20.6392Z" fill="#6B5DFF"/>
<path fill-rule="evenodd" clip-rule="evenodd" d="M33.2 19.7392C32.8 19.9392 32.1 20.4392 32.2 20.9392C32.2 21.0392 32.3 21.0392 32.4 21.0392C32.6 21.0392 32.7 20.8392 32.9 20.6392C33.1 20.4392 33.3 20.2392 33.5 20.1392C33.6 20.0392 33.4 19.6392 33.2 19.7392Z" fill="#6B5DFF"/>
<path fill-rule="evenodd" clip-rule="evenodd" d="M32 19.5392C31.6 19.7392 31.3 20.0392 31.1 20.3392C31 20.4392 31 20.5392 31 20.5392C31 20.6392 31.1 20.6392 31.2 20.7392C31.3 20.7392 31.4 20.7392 31.4 20.6392C31.7 20.3392 31.9 20.1392 32.2 19.9392C32.5 19.8392 32.2 19.3392 32 19.5392Z" fill="#6B5DFF"/>
<path fill-rule="evenodd" clip-rule="evenodd" d="M30.4 19.3392C30.3 19.4392 30.1 19.6392 30 19.7392C29.9 19.8392 29.7 20.0392 29.7 20.2392C29.7 20.3392 29.8 20.3392 29.8 20.3392C30 20.3392 30.1 20.2392 30.2 20.1392C30.4 19.9392 30.5 19.8392 30.7 19.6392C30.9 19.4392 30.6 19.1392 30.4 19.3392Z" fill="#6B5DFF"/>
<path fill-rule="evenodd" clip-rule="evenodd" d="M29.2 19.3392C29 19.4392 28.9 19.5392 28.7 19.6392C28.6 19.7392 28.3 19.9392 28.4 20.1392C28.4 20.2392 28.5 20.2392 28.5 20.2392C28.8 20.3392 29 19.8392 29.3 19.7392C29.6 19.7392 29.5 19.2392 29.2 19.3392Z" fill="#6B5DFF"/>
<path fill-rule="evenodd" clip-rule="evenodd" d="M28.1 19.2392C27.8 19.3392 27.6 19.5392 27.4 19.7392C27.2 19.9392 27.5 20.2392 27.7 20.0392C27.9 19.9392 28 19.7392 28.2 19.6392C28.4 19.5392 28.3 19.1392 28.1 19.2392Z" fill="#6B5DFF"/>
<path fill-rule="evenodd" clip-rule="evenodd" d="M26.7 19.1392C26.4 19.1392 25.8 19.3392 25.9 19.7392C25.9 19.7392 25.9 19.8392 26 19.8392C26.2 19.8392 26.3 19.7392 26.4 19.6392C26.5 19.5392 26.6 19.5392 26.8 19.5392C26.9 19.5392 26.9 19.1392 26.7 19.1392Z" fill="#6B5DFF"/>
<path fill-rule="evenodd" clip-rule="evenodd" d="M25 18.9392C24.8 19.0392 24.4 19.0392 24.4 19.3392C24.4 19.4392 24.4 19.4392 24.5 19.4392C24.6 19.4392 24.7 19.4392 24.8 19.3392C24.9 19.3392 25 19.2392 25.1 19.2392C25.4 19.2392 25.3 18.8392 25 18.9392Z" fill="#6B5DFF"/>
<path fill-rule="evenodd" clip-rule="evenodd" d="M32.1 22.6392C31.8 22.5392 31.3 22.6392 31.1 23.0392C31 23.2392 31.2 23.4392 31.4 23.3392C31.5 23.3392 31.7 23.2392 31.8 23.1392C31.9 23.1392 32 23.0392 32.1 23.0392C32.3 22.9392 32.3 22.6392 32.1 22.6392Z" fill="#6B5DFF"/>
<path fill-rule="evenodd" clip-rule="evenodd" d="M31.2 22.3392C31 22.4392 30.9 22.4392 30.7 22.5392C30.5 22.6392 30.3 22.7392 30.2 22.8392C30.2 22.9392 30.2 22.9392 30.3 22.9392C30.5 22.9392 30.6 22.9392 30.7 22.8392C30.9 22.7392 31 22.6392 31.2 22.6392C31.5 22.6392 31.4 22.2392 31.2 22.3392Z" fill="#6B5DFF"/>
<path fill-rule="evenodd" clip-rule="evenodd" d="M30 22.1392C29.8 22.2392 29.6 22.3392 29.4 22.4392C29.2 22.5392 29.1 22.5392 29 22.7392C29 22.8392 29 22.8392 29.1 22.9392C29.3 22.9392 29.4 22.8392 29.5 22.8392C29.7 22.7392 29.9 22.6392 30.1 22.5392C30.2 22.3392 30.1 22.1392 30 22.1392Z" fill="#6B5DFF"/>
<path fill-rule="evenodd" clip-rule="evenodd" d="M29 21.6392C28.7 21.7392 28.3 21.8392 28 21.9392C27.6 22.0392 27.2 22.1392 26.9 22.3392C26.8 22.4392 26.8 22.5392 26.9 22.5392C27.6 22.6392 28.4 22.1392 29 21.9392C29.3 21.9392 29.2 21.6392 29 21.6392Z" fill="#6B5DFF"/>
<path fill-rule="evenodd" clip-rule="evenodd" d="M27.9 21.0392C27.5 21.2392 27 21.2392 26.5 21.3392C26.1 21.4392 25.7 21.4392 25.4 21.6392C25.3 21.7392 25.4 21.8392 25.5 21.9392C25.9 22.0392 26.3 21.8392 26.6 21.7392C27.1 21.6392 27.5 21.4392 27.9 21.2392C28.2 21.2392 28.1 21.0392 27.9 21.0392Z" fill="#6B5DFF"/>
<path fill-rule="evenodd" clip-rule="evenodd" d="M24.2 20.9392C23.9 20.9392 23.6 21.1392 23.2 21.1392C23.1 21.1392 23.1 21.2392 23.2 21.3392C23.4 21.3392 23.5 21.3392 23.7 21.3392C23.9 21.3392 24 21.2392 24.2 21.2392C24.4 21.3392 24.4 20.9392 24.2 20.9392Z" fill="#6B5DFF"/>
<path fill-rule="evenodd" clip-rule="evenodd" d="M36.8 27.1392C36.6 27.1392 36.4 27.0392 36.2 27.0392C36 27.0392 35.8 26.9392 35.6 27.0392C35.6 27.0392 35.6 27.1392 35.6 27.2392C35.7 27.4392 35.9 27.4392 36.1 27.4392C36.3 27.4392 36.5 27.5392 36.7 27.5392C36.9 27.5392 37 27.1392 36.8 27.1392Z" fill="#6B5DFF"/>
<path fill-rule="evenodd" clip-rule="evenodd" d="M37 27.4392C36.9 27.4392 36.7 27.5392 36.6 27.5392C36.4 27.5392 36.3 27.5392 36.1 27.6392C35.9 27.7392 35.9 27.9392 36.1 28.0392C36.4 28.1392 36.8 28.0392 37.1 27.9392C37.4 27.7392 37.3 27.3392 37 27.4392Z" fill="#6B5DFF"/>
<path fill-rule="evenodd" clip-rule="evenodd" d="M39.3 36.1392C38.8 36.4392 38.5 36.6392 37.9 36.7392C37.8 36.7392 37.7 36.8392 37.7 36.9392V37.0392C37.7 37.1392 37.8 37.2392 37.9 37.2392C38.5 37.2392 39.1 36.8392 39.5 36.3392C39.7 36.2392 39.5 36.0392 39.3 36.1392Z" fill="#6B5DFF"/>
<path fill-rule="evenodd" clip-rule="evenodd" d="M38.3 35.4392C38.1 35.5392 37.9 35.6392 37.7 35.7392C37.5 35.8392 37.3 35.8392 37.2 36.0392C37.2 36.1392 37.2 36.1392 37.2 36.2392C37.5 36.5392 38.2 36.0392 38.5 35.8392C38.7 35.5392 38.5 35.3392 38.3 35.4392Z" fill="#6B5DFF"/>
<path fill-rule="evenodd" clip-rule="evenodd" d="M37.6 34.9392C37.4 35.0392 37.2 35.0392 36.9 35.0392C36.7 35.0392 36.5 35.0392 36.3 35.0392C36.1 35.0392 36.1 35.4392 36.3 35.4392C36.7 35.5392 37.3 35.4392 37.7 35.3392C38 35.2392 37.9 34.9392 37.6 34.9392Z" fill="#6B5DFF"/>
<path fill-rule="evenodd" clip-rule="evenodd" d="M37.3 33.9392C37.1 33.9392 36.8 33.9392 36.6 33.9392C36.4 33.9392 36.1 33.8392 35.9 33.8392C35.7 33.8392 35.6 34.1392 35.8 34.2392C36 34.4392 36.3 34.4392 36.6 34.4392C36.9 34.4392 37.2 34.4392 37.4 34.3392C37.7 34.3392 37.6 33.9392 37.3 33.9392Z" fill="#6B5DFF"/>
<path fill-rule="evenodd" clip-rule="evenodd" d="M36.6 33.0392C36.2 33.1392 35.9 32.8392 35.5 32.7392C35.3 32.6392 35.1 32.9392 35.3 33.1392C35.7 33.4392 36.3 33.5392 36.7 33.4392C37.1 33.4392 36.9 33.0392 36.6 33.0392Z" fill="#6B5DFF"/>
<path fill-rule="evenodd" clip-rule="evenodd" d="M35.9 31.6392C35.7 31.6392 35.1 31.3392 35.1 31.7392C35.1 32.0392 35.6 32.1392 35.9 32.1392C36.2 32.1392 36.2 31.6392 35.9 31.6392Z" fill="#6B5DFF"/>
<path fill-rule="evenodd" clip-rule="evenodd" d="M35.5 30.4392C35.4 30.4392 35.2 30.3392 35.1 30.3392C35 30.2392 34.9 30.2392 34.8 30.3392C34.7 30.4392 34.7 30.5392 34.8 30.6392C35 30.8392 35.2 30.8392 35.5 30.8392C35.8 30.8392 35.8 30.4392 35.5 30.4392Z" fill="#6B5DFF"/>
<path fill-rule="evenodd" clip-rule="evenodd" d="M36.6 23.5392C36.4 23.6392 36.2 23.8392 36.1 24.0392C36 24.2392 35.9 24.4392 36.1 24.6392H36.2C36.3 24.5392 36.4 24.4392 36.4 24.2392C36.5 24.0392 36.6 23.8392 36.8 23.7392C36.9 23.6392 36.8 23.4392 36.6 23.5392Z" fill="#6B5DFF"/>
<path fill-rule="evenodd" clip-rule="evenodd" d="M36.9 23.9392C36.7 24.0392 36.6 24.2392 36.6 24.4392C36.6 24.6392 36.6 25.0392 36.8 25.1392C37.1 25.2392 37.1 24.9392 37.1 24.7392C37.1 24.5392 37.1 24.3392 37.2 24.1392C37.3 24.0392 37.1 23.8392 36.9 23.9392Z" fill="#6B5DFF"/>
<path fill-rule="evenodd" clip-rule="evenodd" d="M37.8 24.3392C37.6 24.7392 37.6 25.1392 37.8 25.5392C37.9 25.7392 38.3 25.6392 38.2 25.3392C38.1 25.0392 38 24.7392 38.1 24.4392C38.2 24.3392 37.9 24.1392 37.8 24.3392Z" fill="#6B5DFF"/>
<path fill-rule="evenodd" clip-rule="evenodd" d="M38.7 24.9392C38.6 25.1392 38.6 25.2392 38.8 25.4392C38.9 25.5392 39.1 25.5392 39.2 25.5392C39.3 25.5392 39.3 25.4392 39.2 25.4392C39.1 25.3392 39 25.3392 39 25.1392C39.1 24.8392 38.8 24.7392 38.7 24.9392Z" fill="#6B5DFF"/>
<path fill-rule="evenodd" clip-rule="evenodd" d="M39.4 25.2392C39.5 25.3392 39.5 25.4392 39.6 25.5392C39.6 25.6392 39.7 25.5392 39.7 25.5392C39.8 25.3392 39.7 25.2392 39.5 25.1392C39.5 24.9392 39.3 25.1392 39.4 25.2392Z" fill="#6B5DFF"/>
<path fill-rule="evenodd" clip-rule="evenodd" d="M38.3 22.8392C38.4 22.9392 38.5 23.0392 38.6 23.1392C38.8 23.3392 39 23.0392 38.9 22.8392C38.8 22.7392 38.7 22.6392 38.6 22.5392C38.4 22.4392 38.2 22.6392 38.3 22.8392Z" fill="#6B5DFF"/>
<path fill-rule="evenodd" clip-rule="evenodd" d="M38.8 22.8392C38.9 23.0392 39.2 23.3392 39.4 23.1392L39.5 23.0392C39.5 22.9392 39.4 22.9392 39.3 22.8392C39.2 22.7392 39.1 22.7392 39 22.6392C38.9 22.4392 38.7 22.6392 38.8 22.8392Z" fill="#6B5DFF"/>
<path fill-rule="evenodd" clip-rule="evenodd" d="M39.6 22.8392C39.7 22.9392 39.7 22.9392 39.8 22.9392C39.9 22.9392 39.9 22.9392 39.9 22.8392C39.9 22.7392 39.8 22.6392 39.8 22.6392C39.6 22.5392 39.4 22.7392 39.6 22.8392Z" fill="#6B5DFF"/>
<path fill-rule="evenodd" clip-rule="evenodd" d="M1.69999 13.0392C3.49999 16.3392 6.39999 19.3392 8.79999 22.2392C25.1 41.4392 42.3 58.4392 61.7 74.3392C64.5 76.6392 68.1 79.8392 71.4 81.4392L71.5 81.3392C68 78.9392 64.3 75.9392 61.1 73.1392C43 57.6392 25.8 40.6392 10.1 22.8392C7.29999 19.6392 4.49999 16.3392 1.99999 12.8392C1.89999 12.8392 1.69999 13.0392 1.69999 13.0392Z" fill="#6B5DFF"/>
<path fill-rule="evenodd" clip-rule="evenodd" d="M44.8 44.9392C44.8 44.9392 46.6 49.3392 51.6 49.5392C56.5 49.8392 59.6 48.5392 60.3 50.7392C60.9 52.9392 61.9 64.9392 63.4 70.4392C64.7 74.9392 68.2 83.6392 77.3 81.6392C86.4 79.6392 82.5 71.2392 78.9 71.0392C75.3 70.8392 74 75.9392 74 75.9392C74 75.9392 69.4 75.9392 67.8 70.8392C66.2 65.7392 69.8 55.0392 68.6 48.9392C67.4 42.8392 64.9 41.2392 61.7 41.0392C58.6 40.8392 56.9 44.9392 56.9 44.9392C56.9 44.9392 49.2 43.6392 48.3 41.9392C47.4 40.1392 44.2 44.0392 44.8 44.9392Z" fill="#F0F2FB"/>
<path fill-rule="evenodd" clip-rule="evenodd" d="M45.3 44.7392C45.3 44.7392 47 48.8392 51.6 49.0392C53.2 49.1392 54.6 49.0392 55.7 49.0392C58.5 48.9392 60.2 48.8392 60.8 50.7392C61.1 51.6392 61.4 54.0392 61.7 57.0392C62.3 61.5392 63 67.1392 63.9 70.5392C64.5 72.7392 65.7 75.9392 67.8 78.3392C69.9 80.7392 72.9 82.2392 77.2 81.3392C79.9 80.7392 81.3 79.6392 81.9 78.3392C82.3 77.6392 82.4 76.8392 82.3 76.1392C82.2 75.3392 82 74.6392 81.6 74.0392C80.9 72.8392 79.8 71.9392 78.8 71.9392C75.7 71.7392 74.5 76.4392 74.5 76.4392C74.4 76.7392 74.2 76.9392 73.9 76.8392C73.3 76.8392 68.8 76.4392 67.2 71.3392C66.3 68.6392 66.9 64.3392 67.5 60.0392C68 56.1392 68.6 52.1392 68 49.3392C67.4 46.4392 66.6 44.6392 65.5 43.4392C64.4 42.3392 63.1 41.9392 61.7 41.8392C59 41.6392 57.5 45.4392 57.5 45.4392C57.4 45.7392 57.1 45.8392 56.9 45.7392C56.9 45.7392 48.9 44.4392 47.9 42.4392C47.8 42.3392 47.8 42.2392 47.7 42.3392C47.5 42.3392 47.3 42.4392 47.1 42.6392C46.9 42.8392 46.6 43.0392 46.4 43.2392C45.6 43.6392 45.1 44.4392 45.3 44.7392C45.3 44.6392 45.3 44.6392 45.3 44.7392ZM51.5 50.1392C46.4 49.8392 44.4 45.5392 44.2 45.1392C43.9 44.4392 44.4 43.1392 45.3 42.1392C45.6 41.8392 45.9 41.5392 46.2 41.3392C46.5 41.1392 46.9 40.9392 47.2 40.8392C47.8 40.7392 48.3 40.9392 48.7 41.6392C49.3 42.9392 54.8 44.0392 56.4 44.3392C57 43.2392 58.7 40.2392 61.6 40.4392C63.3 40.5392 64.8 41.0392 66.1 42.3392C67.4 43.6392 68.3 45.6392 69 48.8392C69.6 51.8392 69 55.9392 68.5 59.9392C67.9 64.1392 67.4 68.2392 68.2 70.7392C69.4 74.5392 72.4 75.2392 73.5 75.4392C73.9 74.1392 75.5 70.3392 78.8 70.5392C80.2 70.6392 81.6 71.7392 82.5 73.2392C83 74.0392 83.3 74.9392 83.4 75.8392C83.5 76.7392 83.4 77.7392 82.9 78.6392C82.1 80.2392 80.4 81.5392 77.4 82.2392C72.6 83.3392 69.2 81.5392 66.9 78.9392C64.6 76.3392 63.4 72.9392 62.8 70.6392C61.9 67.2392 61.1 61.5392 60.6 57.0392C60.2 54.1392 59.9 51.7392 59.7 50.9392C59.4 49.9392 58 49.9392 55.8 50.0392C54.6 50.1392 53.1 50.2392 51.5 50.1392Z" fill="#6B5DFF"/>
<path fill-rule="evenodd" clip-rule="evenodd" d="M62.6 47.0392C62.1 48.9392 59.1 48.8392 57.9 47.8392C56.5 46.6392 56.6 44.1392 57.8 42.7392C57.9 42.5392 58.2 42.7392 58.2 42.9392C58.2 44.1392 57.5 45.1392 57.8 46.3392C58 47.3392 59.2 47.8392 60.1 47.9392C61 48.0392 61.7 47.5392 62.4 46.9392C62.5 46.8392 62.7 46.9392 62.6 47.0392Z" fill="#6B5DFF"/>
<path fill-rule="evenodd" clip-rule="evenodd" d="M64.1 63.4392C63.7 60.6392 63 57.9392 62.5 55.1392C62.2 53.7392 61.8 52.3392 60.9 51.2392C59.9 50.0392 58.3 49.9392 56.9 49.6392C56.6 49.5392 56.7 49.2392 57 49.2392C59.7 48.9392 61.6 50.5392 62.5 52.9392C63.1 54.5392 63.1 56.3392 63.4 57.9392C63.7 59.7392 64.1 61.5392 64.2 63.4392C64.2 63.5392 64.1 63.5392 64.1 63.4392Z" fill="#6B5DFF"/>
<path fill-rule="evenodd" clip-rule="evenodd" d="M80 78.5392C79 80.0392 77.3 80.4392 75.6 79.5392C74.1 78.7392 72.9 76.2392 73.9 74.6392C74.1 74.3392 74.4 74.4392 74.5 74.7392C74.6 76.3392 74.4 77.4392 75.7 78.6392C76.9 79.8392 78.7 79.4392 80 78.5392Z" fill="#6B5DFF"/>
<path fill-rule="evenodd" clip-rule="evenodd" d="M72.6 77.6392C70.2 77.2392 68.3 74.6392 67.4 72.4392C66.4 69.8392 66 66.5392 67.4 63.9392C67.5 63.8392 67.7 63.8392 67.7 64.0392C67.4 66.6392 67 68.8392 67.7 71.4392C68.1 72.8392 68.9 74.1392 69.8 75.2392C70.6 76.1392 71.7 76.7392 72.6 77.6392Z" fill="#6B5DFF"/>
<path fill-rule="evenodd" clip-rule="evenodd" d="M80 77.1392C80.4 76.0392 79.9 75.1392 78.8 74.6392C78.3 74.3392 77.7 74.5392 77.3 74.9392C76.9 75.3392 76.8 75.9392 76.8 76.4392C76.9 77.2392 77.6 77.2392 78 77.7392C78.1 77.8392 78 77.9392 77.9 78.0392C77.1 78.3392 76.2 77.3392 76.1 76.6392C75.9 75.8392 76.3 74.9392 76.9 74.4392C77.5 73.8392 78.4 73.8392 79.1 74.2392C80.2 74.8392 80.6 76.2392 80 77.3392C80.1 77.2392 80 77.2392 80 77.1392Z" fill="#6B5DFF"/>
<path fill-rule="evenodd" clip-rule="evenodd" d="M62.8 45.5392C62.8 45.3392 62.9 45.1392 62.8 44.8392C62.7 44.5392 62.6 44.2392 62.4 44.0392C62.1 43.6392 61.7 43.3392 61.2 43.1392C60.7 42.9392 60.2 43.1392 60 43.7392C59.9 44.2392 59.9 44.7392 60.1 45.2392C60.4 45.7392 60.7 45.4392 61.1 45.2392C61.2 45.1392 61.5 45.2392 61.4 45.4392C61.1 46.2392 60.2 46.3392 59.7 45.6392C59.3 45.0392 59.2 44.1392 59.5 43.4392C59.8 42.5392 60.7 42.3392 61.5 42.6392C62.2 42.9392 62.7 43.4392 63 44.0392C63.2 44.4392 63.5 45.5392 62.8 45.5392Z" fill="#6B5DFF"/>
<path fill-rule="evenodd" clip-rule="evenodd" d="M54.9 46.6392C52.7 46.2392 48.9 45.9392 48.1 43.3392C48 43.1392 48.3 43.0392 48.4 43.1392C49.5 44.1392 50.3 44.8392 51.8 45.3392C52.8 45.7392 53.9 46.1392 54.9 46.6392Z" fill="#6B5DFF"/>
<path fill-rule="evenodd" clip-rule="evenodd" d="M46.6 44.2392C46.8 43.4392 47.6 42.1392 48.6 42.1392C48.8 42.1392 48.9 42.4392 48.8 42.5392C48.4 42.8392 48 42.9392 47.6 43.2392C47.3 43.6392 47 44.0392 46.6 44.2392C46.6 44.3392 46.6 44.3392 46.6 44.2392Z" fill="#6B5DFF"/>
<path fill-rule="evenodd" clip-rule="evenodd" d="M65.3 44.7392C65.4 45.1392 65.4 45.6392 65.2 46.0392C65.1 46.4392 64.8 46.9392 64.4 47.0392C64.3 47.0392 64.2 46.9392 64.2 46.8392C64.3 46.5392 64.5 46.2392 64.7 46.0392C64.9 45.6392 65 45.2392 65 44.8392C65.1 44.6392 65.3 44.6392 65.3 44.7392Z" fill="#6B5DFF"/>
<path fill-rule="evenodd" clip-rule="evenodd" d="M66.6 46.6392C66.5 47.3392 66.4 48.6392 65.5 48.8392C65.4 48.8392 65.3 48.7392 65.3 48.6392C65.4 48.3392 65.6 48.0392 65.8 47.7392C66 47.4392 66.2 47.0392 66.2 46.6392C66.3 46.4392 66.6 46.4392 66.6 46.6392Z" fill="#6B5DFF"/>
<path fill-rule="evenodd" clip-rule="evenodd" d="M66.8 49.1392C66.8 49.5392 66.6 50.2392 66.1 50.3392C66 50.3392 65.9 50.2392 66 50.1392C66.1 49.9392 66.2 49.9392 66.3 49.7392C66.4 49.5392 66.5 49.3392 66.5 49.1392C66.4 48.9392 66.7 48.9392 66.8 49.1392Z" fill="#6B5DFF"/>
<path fill-rule="evenodd" clip-rule="evenodd" d="M67.2 50.9392C66.9 51.8392 66.5 53.3392 65.5 53.7392C65.4 53.7392 65.2 53.6392 65.3 53.5392C65.4 53.1392 65.8 52.8392 66 52.4392C66.3 51.9392 66.6 51.4392 66.8 50.8392C67 50.6392 67.3 50.7392 67.2 50.9392Z" fill="#6B5DFF"/>
<path fill-rule="evenodd" clip-rule="evenodd" d="M67.3 54.2392C67.1 54.8392 66.7 55.6392 66.1 55.9392C66 55.9392 65.9 55.9392 65.9 55.8392C66.1 55.2392 66.6 54.7392 66.9 54.1392C67 53.9392 67.4 54.0392 67.3 54.2392Z" fill="#6B5DFF"/>
<path fill-rule="evenodd" clip-rule="evenodd" d="M67 56.7392C66.9 57.0392 66.7 57.3392 66.5 57.6392C66.4 57.8392 66.2 58.1392 66 58.2392C65.9 58.3392 65.8 58.2392 65.8 58.1392C65.8 57.8392 66 57.6392 66.1 57.4392C66.3 57.1392 66.4 56.8392 66.6 56.5392C66.8 56.3392 67.1 56.5392 67 56.7392Z" fill="#6B5DFF"/>
<path fill-rule="evenodd" clip-rule="evenodd" d="M66.8 58.9392C66.7 59.1392 66.6 59.3392 66.5 59.5392C66.4 59.7392 66.3 59.9392 66.2 60.0392C66.1 60.1392 66 60.0392 66 59.9392C66 59.7392 66.1 59.5392 66.2 59.4392C66.3 59.2392 66.4 59.0392 66.5 58.8392C66.6 58.5392 66.9 58.7392 66.8 58.9392Z" fill="#6B5DFF"/>
<path fill-rule="evenodd" clip-rule="evenodd" d="M66.7 61.4392C66.6 61.6392 66.6 61.8392 66.5 62.0392C66.5 62.1392 66.3 62.1392 66.3 62.0392C66.3 61.8392 66.4 61.5392 66.4 61.3392C66.5 61.2392 66.8 61.3392 66.7 61.4392Z" fill="#6B5DFF"/>
<path fill-rule="evenodd" clip-rule="evenodd" d="M64.5 67.4392C64.7 70.0392 66 72.2392 67 74.6392C67 74.7392 66.9 74.7392 66.9 74.6392C65.5 72.3392 64.4 70.1392 64.4 67.4392C64.4 67.3392 64.5 67.3392 64.5 67.4392Z" fill="#6B5DFF"/>
<path fill-rule="evenodd" clip-rule="evenodd" d="M64.6 64.4392C64.5 64.6392 64.5 64.8392 64.4 65.0392C64.4 65.2392 64.3 65.4392 64.2 65.5392C64.1 65.5392 64.1 65.5392 64 65.5392C63.9 65.3392 64 65.1392 64 64.9392C64.1 64.7392 64.1 64.5392 64.2 64.3392C64.4 64.1392 64.7 64.3392 64.6 64.4392Z" fill="#6B5DFF"/>
<path fill-rule="evenodd" clip-rule="evenodd" d="M65.1 65.3392C65 65.5392 65 65.8392 65 66.0392C65 66.2392 65 66.5392 64.9 66.7392C64.9 66.8392 64.8 66.8392 64.7 66.7392C64.6 66.5392 64.6 66.2392 64.7 66.0392C64.7 65.7392 64.8 65.5392 64.9 65.2392C64.9 65.1392 65.1 65.2392 65.1 65.3392Z" fill="#6B5DFF"/>
<path fill-rule="evenodd" clip-rule="evenodd" d="M65.7 67.2392C65.6 67.5392 65.6 67.7392 65.6 68.0392C65.6 68.2392 65.5 68.5392 65.3 68.7392C65.2 68.7392 65.2 68.7392 65.1 68.7392C65 68.5392 65.1 68.2392 65.1 68.0392C65.1 67.7392 65.2 67.5392 65.3 67.2392C65.4 66.9392 65.8 66.9392 65.7 67.2392Z" fill="#6B5DFF"/>
<path fill-rule="evenodd" clip-rule="evenodd" d="M66 69.3392C66 69.7392 66 70.0392 65.9 70.4392C65.9 70.5392 65.7 70.5392 65.7 70.4392C65.6 70.1392 65.7 69.7392 65.7 69.3392C65.6 69.1392 66 69.1392 66 69.3392Z" fill="#6B5DFF"/>
<path fill-rule="evenodd" clip-rule="evenodd" d="M68 75.3392C68 75.6392 68 75.9392 68 76.2392C68 76.5392 68.2 76.9392 68 77.2392C68 77.3392 67.9 77.3392 67.8 77.3392C67.5 77.1392 67.5 76.7392 67.5 76.4392C67.5 76.1392 67.5 75.7392 67.6 75.3392C67.8 75.1392 68 75.1392 68 75.3392Z" fill="#6B5DFF"/>
<path fill-rule="evenodd" clip-rule="evenodd" d="M68.9 76.3392C69 76.6392 69 77.0392 69.1 77.3392C69.2 77.6392 69.2 77.9392 69.1 78.1392C69.1 78.2392 69 78.2392 69 78.1392C68.8 77.9392 68.8 77.6392 68.7 77.4392C68.6 77.1392 68.6 76.7392 68.5 76.4392C68.4 76.2392 68.8 76.1392 68.9 76.3392Z" fill="#6B5DFF"/>
<path fill-rule="evenodd" clip-rule="evenodd" d="M69.8 77.6392C69.8 77.9392 69.9 78.1392 69.9 78.3392C70 78.5392 70.1 78.7392 70.1 78.9392C70.1 79.0392 70 79.0392 69.9 79.0392C69.7 78.9392 69.6 78.6392 69.5 78.4392C69.4 78.1392 69.4 77.9392 69.4 77.6392C69.4 77.4392 69.8 77.4392 69.8 77.6392Z" fill="#6B5DFF"/>
<path fill-rule="evenodd" clip-rule="evenodd" d="M70.9 78.3392C70.9 78.5392 71 78.7392 71.1 78.9392C71.2 79.1392 71.3 79.3392 71.2 79.4392C71.2 79.5392 71.1 79.5392 71.1 79.5392C70.9 79.5392 70.8 79.2392 70.7 79.0392C70.6 78.8392 70.5 78.6392 70.5 78.4392C70.5 78.1392 70.9 78.1392 70.9 78.3392Z" fill="#6B5DFF"/>
<path fill-rule="evenodd" clip-rule="evenodd" d="M71.8 78.4392C71.9 78.6392 72.1 78.9392 72.2 79.1392C72.3 79.2392 72.5 79.5392 72.3 79.7392C72.1 79.8392 72 79.5392 71.9 79.4392C71.7 79.1392 71.6 78.9392 71.5 78.6392C71.4 78.4392 71.7 78.2392 71.8 78.4392Z" fill="#6B5DFF"/>
<path fill-rule="evenodd" clip-rule="evenodd" d="M72.8 79.0392C73 79.2392 73.1 79.3392 73.3 79.5392C73.5 79.7392 73.6 79.8392 73.7 80.1392C73.7 80.2392 73.6 80.3392 73.6 80.2392C73.4 80.2392 73.3 80.0392 73.2 79.9392C73 79.7392 72.9 79.4392 72.7 79.2392C72.5 79.1392 72.7 78.9392 72.8 79.0392Z" fill="#6B5DFF"/>
<path fill-rule="evenodd" clip-rule="evenodd" d="M74 79.5392C74.2 79.7392 74.4 79.9392 74.5 80.1392C74.5 80.2392 74.5 80.2392 74.4 80.2392C74.1 80.1392 74 79.9392 73.8 79.7392C73.6 79.6392 73.9 79.4392 74 79.5392Z" fill="#6B5DFF"/>
<path fill-rule="evenodd" clip-rule="evenodd" d="M78.4 77.1392C78.3 77.0392 78.1 76.9392 77.9 76.9392C77.8 76.8392 77.6 76.8392 77.5 76.7392V76.6392C77.7 76.6392 77.8 76.7392 77.9 76.7392C78.2 76.7392 78.3 76.8392 78.4 77.1392Z" fill="#6B5DFF"/>
<path fill-rule="evenodd" clip-rule="evenodd" d="M78.3 76.6392C78.2 76.5392 78 76.4392 77.9 76.3392C77.8 76.2392 77.6 76.2392 77.5 76.0392V75.9392C77.7 75.8392 77.8 75.9392 78 76.0392C78.2 76.1392 78.3 76.2392 78.5 76.3392C78.6 76.6392 78.5 76.8392 78.3 76.6392Z" fill="#6B5DFF"/>
<path fill-rule="evenodd" clip-rule="evenodd" d="M78.3 76.0392C78.1 75.9392 77.9 75.7392 77.9 75.5392C77.9 75.4392 77.9 75.4392 78 75.4392C78.2 75.4392 78.4 75.7392 78.5 75.8392C78.6 75.9392 78.5 76.1392 78.3 76.0392Z" fill="#6B5DFF"/>
<path fill-rule="evenodd" clip-rule="evenodd" d="M78.8 75.7392C78.7 75.6392 78.5 75.4392 78.4 75.2392C78.4 75.1392 78.4 75.0392 78.5 75.1392C78.7 75.2392 78.8 75.3392 79 75.5392C79.1 75.6392 78.9 75.8392 78.8 75.7392Z" fill="#6B5DFF"/>
<path fill-rule="evenodd" clip-rule="evenodd" d="M76 75.2392C75.9 75.1392 75.7 75.0392 75.6 74.8392C75.5 74.7392 75.3 74.6392 75.3 74.4392L75.4 74.3392C75.6 74.3392 75.7 74.4392 75.8 74.5392C75.9 74.6392 76.1 74.8392 76.2 74.9392C76.4 75.1392 76.2 75.3392 76 75.2392Z" fill="#6B5DFF"/>
<path fill-rule="evenodd" clip-rule="evenodd" d="M76.4 74.4392C76.4 74.2392 76.2 74.1392 76.1 73.9392C76.1 73.8392 76.1 73.8392 76.2 73.8392C76.4 73.8392 76.6 74.2392 76.6 74.4392C76.7 74.6392 76.5 74.6392 76.4 74.4392Z" fill="#6B5DFF"/>
<path fill-rule="evenodd" clip-rule="evenodd" d="M77 74.1392C76.9 73.9392 76.8 73.6392 76.8 73.3392C76.8 73.2392 76.9 73.2392 77 73.2392C77.1 73.3392 77.1 73.4392 77.2 73.5392C77.2 73.6392 77.3 73.8392 77.3 73.9392C77.4 74.2392 77 74.3392 77 74.1392Z" fill="#6B5DFF"/>
<path fill-rule="evenodd" clip-rule="evenodd" d="M77.7 73.5392C77.6 73.3392 77.5 73.0392 77.5 72.7392C77.5 72.6392 77.6 72.6392 77.7 72.6392C77.9 72.8392 78 73.1392 78 73.3392C78.1 73.6392 77.7 73.7392 77.7 73.5392Z" fill="#6B5DFF"/>
<path fill-rule="evenodd" clip-rule="evenodd" d="M78.6 73.4392C78.6 73.3392 78.7 73.1392 78.7 73.0392C78.7 72.8392 78.7 72.7392 78.8 72.5392C78.8 72.4392 79 72.4392 79 72.5392C79.1 72.7392 79.1 72.8392 79.1 73.0392C79.1 73.2392 79.1 73.3392 79 73.5392C78.9 73.8392 78.5 73.7392 78.6 73.4392Z" fill="#6B5DFF"/>
<path fill-rule="evenodd" clip-rule="evenodd" d="M80.1 73.4392C80.1 73.2392 80.1 73.0392 80.3 72.8392H80.4C80.6 72.9392 80.6 73.2392 80.6 73.4392C80.5 73.6392 80.1 73.6392 80.1 73.4392Z" fill="#6B5DFF"/>
<path fill-rule="evenodd" clip-rule="evenodd" d="M81 74.2392C81.1 74.1392 81.1 74.1392 81.2 74.0392C81.3 74.0392 81.3 74.0392 81.3 74.1392C81.3 74.2392 81.2 74.3392 81.2 74.3392C81.1 74.6392 80.9 74.3392 81 74.2392Z" fill="#6B5DFF"/>
<path fill-rule="evenodd" clip-rule="evenodd" d="M82 75.7392C82.1 75.6392 82.1 75.5392 82.2 75.4392C82.3 75.3392 82.4 75.4392 82.4 75.4392C82.5 75.6392 82.4 75.8392 82.3 75.9392C82.1 76.1392 81.8 75.8392 82 75.7392Z" fill="#6B5DFF"/>
<path fill-rule="evenodd" clip-rule="evenodd" d="M63.2 48.8392C63 49.0392 62.9 49.2392 62.7 49.4392C62.5 49.6392 62.4 49.7392 62.2 49.8392C62.1 49.8392 62 49.7392 62 49.6392C62 49.4392 62.2 49.2392 62.4 49.1392C62.6 48.9392 62.8 48.7392 63 48.6392C63.1 48.4392 63.3 48.6392 63.2 48.8392Z" fill="#6B5DFF"/>
<path fill-rule="evenodd" clip-rule="evenodd" d="M64.1 50.3392C63.9 50.7392 63.4 51.4392 62.9 51.3392C62.8 51.3392 62.8 51.2392 62.8 51.1392C62.8 50.9392 63 50.8392 63.2 50.6392C63.4 50.4392 63.6 50.2392 63.7 50.0392C63.9 49.9392 64.2 50.1392 64.1 50.3392Z" fill="#6B5DFF"/>
<path fill-rule="evenodd" clip-rule="evenodd" d="M64.3 51.5392C64.1 51.9392 63.8 52.2392 63.5 52.4392C63.4 52.5392 63.3 52.5392 63.3 52.5392C63.2 52.5392 63.2 52.4392 63.1 52.3392C63.1 52.2392 63.1 52.1392 63.2 52.1392C63.5 51.8392 63.7 51.6392 63.9 51.3392C64.1 51.0392 64.5 51.3392 64.3 51.5392Z" fill="#6B5DFF"/>
<path fill-rule="evenodd" clip-rule="evenodd" d="M64.5 53.1392C64.4 53.2392 64.2 53.4392 64.1 53.5392C64 53.6392 63.8 53.8392 63.6 53.8392L63.5 53.7392C63.5 53.5392 63.6 53.4392 63.7 53.3392C63.9 53.1392 64 53.0392 64.2 52.8392C64.4 52.6392 64.7 52.9392 64.5 53.1392Z" fill="#6B5DFF"/>
<path fill-rule="evenodd" clip-rule="evenodd" d="M64.5 54.3392C64.4 54.5392 64.3 54.6392 64.2 54.8392C64.1 54.9392 63.9 55.2392 63.7 55.1392C63.6 55.1392 63.6 55.0392 63.6 55.0392C63.5 54.7392 64 54.5392 64.1 54.2392C64.2 53.9392 64.6 54.1392 64.5 54.3392Z" fill="#6B5DFF"/>
<path fill-rule="evenodd" clip-rule="evenodd" d="M64.7 55.4392C64.6 55.7392 64.4 55.9392 64.2 56.1392C64 56.3392 63.7 56.0392 63.9 55.8392C64 55.6392 64.2 55.5392 64.3 55.3392C64.4 55.1392 64.8 55.2392 64.7 55.4392Z" fill="#6B5DFF"/>
<path fill-rule="evenodd" clip-rule="evenodd" d="M64.8 56.8392C64.8 57.1392 64.6 57.7392 64.2 57.6392C64.2 57.6392 64.1 57.6392 64.1 57.5392C64.1 57.3392 64.2 57.2392 64.3 57.1392C64.4 57.0392 64.4 56.9392 64.4 56.7392C64.4 56.6392 64.9 56.6392 64.8 56.8392Z" fill="#6B5DFF"/>
<path fill-rule="evenodd" clip-rule="evenodd" d="M65 58.5392C64.9 58.7392 64.9 59.2392 64.6 59.1392C64.5 59.1392 64.5 59.1392 64.5 59.0392C64.5 58.9392 64.5 58.8392 64.6 58.7392C64.6 58.6392 64.7 58.5392 64.7 58.4392C64.7 58.1392 65.1 58.2392 65 58.5392Z" fill="#6B5DFF"/>
<path fill-rule="evenodd" clip-rule="evenodd" d="M61.2 51.5392C61.3 51.8392 61.2 52.3392 60.8 52.5392C60.6 52.6392 60.4 52.4392 60.5 52.3392C60.5 52.1392 60.6 52.0392 60.7 51.9392C60.7 51.8392 60.8 51.7392 60.8 51.6392C60.9 51.3392 61.2 51.3392 61.2 51.5392Z" fill="#6B5DFF"/>
<path fill-rule="evenodd" clip-rule="evenodd" d="M61.5 52.4392C61.4 52.6392 61.4 52.7392 61.3 52.9392C61.2 53.1392 61.1 53.3392 61 53.4392C60.9 53.4392 60.9 53.4392 60.9 53.3392C60.8 53.1392 60.9 53.0392 61 52.9392C61.1 52.7392 61.2 52.6392 61.2 52.4392C61.3 52.1392 61.6 52.1392 61.5 52.4392Z" fill="#6B5DFF"/>
<path fill-rule="evenodd" clip-rule="evenodd" d="M61.7 53.6392C61.6 53.8392 61.5 54.0392 61.5 54.2392C61.4 54.4392 61.4 54.6392 61.2 54.6392C61.1 54.6392 61.1 54.6392 61 54.5392C61 54.3392 61.1 54.2392 61.1 54.1392C61.2 53.9392 61.3 53.7392 61.4 53.5392C61.6 53.3392 61.8 53.4392 61.7 53.6392Z" fill="#6B5DFF"/>
<path fill-rule="evenodd" clip-rule="evenodd" d="M62.2 54.5392C62.1 54.8392 62 55.2392 61.9 55.5392C61.8 55.9392 61.8 56.3392 61.5 56.6392C61.4 56.7392 61.3 56.7392 61.3 56.6392C61.1 55.9392 61.7 55.1392 61.9 54.5392C62 54.3392 62.3 54.3392 62.2 54.5392Z" fill="#6B5DFF"/>
<path fill-rule="evenodd" clip-rule="evenodd" d="M62.9 55.6392C62.8 56.0392 62.7 56.5392 62.6 57.0392C62.5 57.4392 62.5 57.8392 62.3 58.1392C62.2 58.2392 62.1 58.1392 62 58.0392C61.9 57.6392 62 57.2392 62.1 56.9392C62.2 56.4392 62.4 56.0392 62.6 55.6392C62.7 55.4392 62.9 55.5392 62.9 55.6392Z" fill="#6B5DFF"/>
<path fill-rule="evenodd" clip-rule="evenodd" d="M63 59.3392C63 59.6392 62.8 59.9392 62.8 60.3392C62.8 60.4392 62.7 60.4392 62.6 60.3392C62.6 60.1392 62.6 60.0392 62.6 59.8392C62.6 59.6392 62.7 59.5392 62.7 59.3392C62.7 59.1392 63 59.1392 63 59.3392Z" fill="#6B5DFF"/>
<path fill-rule="evenodd" clip-rule="evenodd" d="M56.7 46.8392C56.7 47.0392 56.8 47.2392 56.9 47.4392C56.9 47.6392 57 47.8392 56.9 48.0392C56.9 48.0392 56.8 48.0392 56.7 48.0392C56.5 47.9392 56.5 47.7392 56.5 47.5392C56.5 47.3392 56.4 47.1392 56.4 46.9392C56.3 46.7392 56.6 46.6392 56.7 46.8392Z" fill="#6B5DFF"/>
<path fill-rule="evenodd" clip-rule="evenodd" d="M56.4 46.6392C56.4 46.7392 56.3 46.9392 56.3 47.0392C56.3 47.2392 56.3 47.3392 56.2 47.5392C56.1 47.7392 55.9 47.7392 55.8 47.5392C55.7 47.2392 55.8 46.8392 55.9 46.5392C56 46.2392 56.5 46.4392 56.4 46.6392Z" fill="#6B5DFF"/>
<path fill-rule="evenodd" clip-rule="evenodd" d="M47.7 44.4392C47.4 44.9392 47.2 45.2392 47.1 45.8392C47.1 45.9392 47 46.0392 46.9 46.0392H46.8C46.7 46.0392 46.6 45.9392 46.6 45.8392C46.6 45.2392 47 44.6392 47.5 44.2392C47.6 44.1392 47.8 44.3392 47.7 44.4392Z" fill="#6B5DFF"/>
<path fill-rule="evenodd" clip-rule="evenodd" d="M48.4 45.4392C48.3 45.6392 48.2 45.8392 48.1 46.0392C48 46.2392 48 46.4392 47.8 46.5392C47.7 46.5392 47.7 46.5392 47.6 46.5392C47.3 46.2392 47.8 45.5392 48 45.2392C48.2 45.1392 48.5 45.2392 48.4 45.4392Z" fill="#6B5DFF"/>
<path fill-rule="evenodd" clip-rule="evenodd" d="M48.8 46.1392C48.7 46.3392 48.7 46.5392 48.7 46.8392C48.7 47.0392 48.7 47.2392 48.7 47.4392C48.7 47.6392 48.3 47.6392 48.3 47.4392C48.2 47.0392 48.2 46.4392 48.4 46.0392C48.5 45.8392 48.9 45.9392 48.8 46.1392Z" fill="#6B5DFF"/>
<path fill-rule="evenodd" clip-rule="evenodd" d="M49.8 46.4392C49.8 46.6392 49.8 46.9392 49.8 47.1392C49.8 47.3392 49.9 47.6392 49.9 47.8392C49.9 48.0392 49.6 48.1392 49.5 47.9392C49.3 47.7392 49.3 47.4392 49.3 47.1392C49.3 46.8392 49.3 46.5392 49.4 46.3392C49.4 46.1392 49.8 46.1392 49.8 46.4392Z" fill="#6B5DFF"/>
<path fill-rule="evenodd" clip-rule="evenodd" d="M50.8 47.1392C50.8 47.5392 51 47.8392 51.1 48.2392C51.2 48.4392 50.9 48.6392 50.7 48.4392C50.4 48.0392 50.2 47.5392 50.3 47.0392C50.4 46.6392 50.8 46.8392 50.8 47.1392Z" fill="#6B5DFF"/>
<path fill-rule="evenodd" clip-rule="evenodd" d="M52.2 47.8392C52.2 48.0392 52.5 48.6392 52.1 48.6392C51.8 48.6392 51.7 48.1392 51.7 47.8392C51.7 47.5392 52.2 47.5392 52.2 47.8392Z" fill="#6B5DFF"/>
<path fill-rule="evenodd" clip-rule="evenodd" d="M53.4 48.2392C53.4 48.3392 53.5 48.5392 53.5 48.6392C53.6 48.7392 53.6 48.8392 53.5 48.9392C53.4 49.0392 53.3 49.0392 53.2 48.9392C53 48.7392 52.9 48.5392 52.9 48.2392C53 47.9392 53.4 47.9392 53.4 48.2392Z" fill="#6B5DFF"/>
<path fill-rule="evenodd" clip-rule="evenodd" d="M60.3 46.9392C60.2 47.1392 60 47.3392 59.8 47.4392C59.6 47.5392 59.4 47.6392 59.2 47.4392V47.3392C59.3 47.2392 59.4 47.1392 59.5 47.1392C59.7 47.0392 59.9 46.9392 60 46.7392C60.1 46.6392 60.3 46.8392 60.3 46.9392Z" fill="#6B5DFF"/>
<path fill-rule="evenodd" clip-rule="evenodd" d="M59.8 46.6392C59.7 46.8392 59.5 46.9392 59.3 46.9392C59.1 46.9392 58.7 47.0392 58.6 46.7392C58.5 46.4392 58.8 46.4392 59 46.4392C59.2 46.4392 59.4 46.4392 59.6 46.3392C59.7 46.3392 60 46.5392 59.8 46.6392Z" fill="#6B5DFF"/>
<path fill-rule="evenodd" clip-rule="evenodd" d="M59.4 45.8392C59 46.0392 58.6 46.0392 58.2 45.8392C58 45.7392 58.1 45.3392 58.4 45.4392C58.7 45.5392 59 45.6392 59.3 45.5392C59.5 45.3392 59.6 45.7392 59.4 45.8392Z" fill="#6B5DFF"/>
<path fill-rule="evenodd" clip-rule="evenodd" d="M58.8 44.9392C58.6 45.0392 58.5 45.0392 58.3 44.9392C58.2 44.8392 58.2 44.6392 58.2 44.5392C58.2 44.4392 58.3 44.4392 58.3 44.5392C58.4 44.6392 58.4 44.7392 58.6 44.6392C59 44.5392 59 44.8392 58.8 44.9392Z" fill="#6B5DFF"/>
<path fill-rule="evenodd" clip-rule="evenodd" d="M58.5 44.2392C58.4 44.1392 58.3 44.1392 58.2 44.0392C58.1 44.0392 58.2 43.9392 58.2 43.9392C58.4 43.8392 58.5 43.9392 58.6 44.0392C58.8 44.1392 58.6 44.3392 58.5 44.2392Z" fill="#6B5DFF"/>
<path fill-rule="evenodd" clip-rule="evenodd" d="M61 45.2392C60.9 45.1392 60.8 45.0392 60.7 44.9392C60.5 44.7392 60.8 44.5392 61 44.6392C61.1 44.7392 61.2 44.8392 61.3 44.9392C61.3 45.1392 61.1 45.4392 61 45.2392Z" fill="#6B5DFF"/>
<path fill-rule="evenodd" clip-rule="evenodd" d="M61 44.7392C60.8 44.6392 60.5 44.3392 60.7 44.1392L60.8 44.0392C60.9 44.0392 60.9 44.1392 61 44.2392C61.1 44.3392 61.1 44.4392 61.2 44.5392C61.3 44.7392 61.1 44.9392 61 44.7392Z" fill="#6B5DFF"/>
<path fill-rule="evenodd" clip-rule="evenodd" d="M60.9 44.0392C60.8 43.9392 60.8 43.9392 60.8 43.8392C60.8 43.7392 60.8 43.7392 60.9 43.7392C61 43.7392 61.1 43.8392 61.1 43.8392C61.2 43.9392 61 44.1392 60.9 44.0392Z" fill="#6B5DFF"/>
<path fill-rule="evenodd" clip-rule="evenodd" d="M43.6 36.7392L47.1 40.1392C47.6 40.6392 47.6 41.4392 47.1 41.9392L44.9 44.1392C44.4 44.6392 43.6 44.6392 43.1 44.1392L39.6 40.7392C39.1 40.2392 39.1 39.4392 39.6 38.9392L41.8 36.7392C42.3 36.2392 43.1 36.2392 43.6 36.7392Z" fill="#F0F2FB"/>
<path fill-rule="evenodd" clip-rule="evenodd" d="M44 36.3392L47.5 39.7392C47.9 40.1392 48 40.5392 48 41.0392C48 41.5392 47.8 41.9392 47.5 42.3392L45.3 44.5392C44.9 44.9392 44.5 45.0392 44 45.0392C43.5 45.0392 43.1 44.8392 42.7 44.5392L39.2 41.1392C38.8 40.8392 38.7 40.3392 38.7 39.8392C38.7 39.3392 38.9 38.9392 39.2 38.5392L41.4 36.3392C41.8 35.9392 42.2 35.8392 42.7 35.8392C43.1 35.7392 43.6 35.9392 44 36.3392ZM46.6 40.5392L43.1 37.1392C43 37.0392 42.8 36.9392 42.6 36.9392C42.4 36.9392 42.3 37.0392 42.1 37.1392L39.9 39.3392C39.8 39.4392 39.7 39.6392 39.7 39.8392C39.7 40.0392 39.8 40.1392 39.9 40.3392L43.4 43.7392C43.5 43.8392 43.7 43.9392 43.9 43.9392C44.1 43.9392 44.2 43.8392 44.4 43.7392L46.6 41.5392C46.7 41.4392 46.8 41.2392 46.8 41.0392C46.8 40.8392 46.7 40.6392 46.6 40.5392Z" fill="#6B5DFF"/>
<path fill-rule="evenodd" clip-rule="evenodd" d="M44.5 43.0392C45.2 42.6392 46.1 41.8392 46.5 41.0392C46.5 40.8392 46.3 40.6392 46.1 40.8392C45.6 41.5392 45.2 42.1392 44.5 43.0392Z" fill="#6B5DFF"/>
<path fill-rule="evenodd" clip-rule="evenodd" d="M43.9 41.4392C44.4 41.1392 45.1 40.5392 45.4 39.9392C45.4 39.8392 45.2 39.6392 45.1 39.7392C44.7 40.2392 44.5 40.7392 43.9 41.4392Z" fill="#6B5DFF"/>
<path fill-rule="evenodd" clip-rule="evenodd" d="M44.3 42.0392C44.9 41.7392 45.6 41.0392 46 40.4392C46 40.2392 45.8 40.1392 45.7 40.2392C45.2 40.7392 44.9 41.3392 44.3 42.0392Z" fill="#6B5DFF"/>
<path fill-rule="evenodd" clip-rule="evenodd" d="M43.6 40.5392C44 40.3392 44.6 39.8392 44.8 39.3392C44.8 39.2392 44.7 39.1392 44.6 39.2392C44.3 39.5392 44.1 39.9392 43.6 40.5392Z" fill="#6B5DFF"/>
<path fill-rule="evenodd" clip-rule="evenodd" d="M39.9 39.6392C40.2 40.3392 40.9 41.1392 41.6 41.6392C41.8 41.6392 42 41.4392 41.8 41.3392C41.3 40.7392 40.7 40.4392 39.9 39.6392Z" fill="#6B5DFF"/>
<path fill-rule="evenodd" clip-rule="evenodd" d="M40.4 39.1392C40.6 39.5392 41 40.0392 41.4 40.3392C41.5 40.3392 41.6 40.2392 41.5 40.1392C41.2 39.7392 40.9 39.5392 40.4 39.1392C40.5 39.0392 40.4 39.0392 40.4 39.1392Z" fill="#6B5DFF"/>
<path fill-rule="evenodd" clip-rule="evenodd" d="M40.9 38.6392C41 38.8392 41.2 39.0392 41.4 39.2392C41.5 39.2392 41.5 39.1392 41.5 39.1392C41.3 38.9392 41.1 38.8392 40.9 38.6392Z" fill="#6B5DFF"/>
<path fill-rule="evenodd" clip-rule="evenodd" d="M25.1 56.4392L57 24.9392C57 24.9392 60.9 23.3392 55 29.2392C49.1 35.1392 26.3 57.4392 26.3 57.4392C26.3 57.4392 24.4 58.3392 25.1 56.4392Z" fill="#F0F2FB"/>
<path fill-rule="evenodd" clip-rule="evenodd" d="M24.7 56.0392L56.6 24.5392C56.7 24.4392 56.7 24.4392 56.8 24.4392C56.8 24.4392 63.3 21.7392 55.4 29.6392C49.5 35.5392 26.8 57.8392 26.7 57.8392C26.6 57.9392 26.6 57.9392 26.5 57.9392C26.2 58.1392 23.5 59.3392 24.6 56.2392C24.6 56.1392 24.6 56.1392 24.7 56.0392ZM57.3 25.4392L25.6 56.7392C25.5 57.0392 25.8 56.9392 25.9 56.9392C27.3 55.5392 48.8 34.5392 54.5 28.8392C57.7 25.6392 57.5 25.4392 57.3 25.4392Z" fill="#6B5DFF"/>
<path fill-rule="evenodd" clip-rule="evenodd" d="M51.7 24.1392C51.5 22.0392 63.5 15.9392 65.4 17.4392C67.3 18.9392 62.5 31.5392 59.2 31.4392C55.8 31.3392 58 26.1392 57.7 25.7392C56.9 24.8392 52 27.0392 51.7 24.1392Z" fill="#F0F2FB"/>
<path fill-rule="evenodd" clip-rule="evenodd" d="M51.2 24.1392C51.2 23.7392 51.3 23.3392 51.7 22.9392C52.6 21.7392 54.9 20.2392 57.4 19.0392C59.9 17.8392 62.6 16.8392 64.2 16.6392C64.9 16.5392 65.4 16.6392 65.8 16.9392C66.3 17.3392 66.5 18.0392 66.4 19.0392C66.3 20.4392 65.8 22.5392 65 24.5392C64.2 26.5392 63.2 28.6392 62.1 29.9392C61.2 31.1392 60.1 31.8392 59.2 31.8392C57.1 31.7392 56.7 30.2392 56.8 28.6392C56.8 27.8392 57 27.1392 57.1 26.5392C57.2 26.1392 57.4 26.0392 57.3 25.9392C57.2 25.8392 56.5 25.9392 55.7 26.0392C55.4 26.0392 55.1 26.1392 54.8 26.1392C53 26.3392 51.3 26.2392 51.2 24.1392ZM52.6 23.6392C52.4 23.8392 52.3 24.0392 52.4 24.1392C52.5 25.1392 53.6 25.2392 54.8 25.1392C55.1 25.1392 55.4 25.0392 55.7 25.0392C56.8 24.9392 57.8 24.8392 58.3 25.3392C58.6 25.6392 58.5 26.1392 58.3 26.8392C58.2 27.4392 58 28.1392 58 28.8392C58 29.8392 58.2 30.7392 59.3 30.8392C59.9 30.8392 60.6 30.2392 61.3 29.3392C62.3 28.0392 63.3 26.1392 64.1 24.2392C64.8 22.3392 65.3 20.4392 65.4 19.0392C65.4 18.4392 65.4 18.0392 65.2 17.8392C65.1 17.7392 64.8 17.7392 64.4 17.7392C62.9 17.8392 60.4 18.8392 58 19.9392C55.5 21.2392 53.4 22.6392 52.6 23.6392Z" fill="#6B5DFF"/>
<path fill-rule="evenodd" clip-rule="evenodd" d="M12.7 62.8392C12.5 60.7392 24.5 54.6392 26.4 56.1392C28.3 57.6392 23.5 70.2392 20.2 70.1392C16.8 70.0392 18.9 64.5392 18.6 64.2392C18.1 63.7392 12.9 65.8392 12.7 62.8392Z" fill="#F0F2FB"/>
<path fill-rule="evenodd" clip-rule="evenodd" d="M12.1 62.9392C12.1 62.5392 12.2 62.1392 12.6 61.7392C13.5 60.5392 15.8 59.0392 18.3 57.8392C20.8 56.6392 23.5 55.6392 25.1 55.4392C25.8 55.3392 26.3 55.4392 26.7 55.7392C27.2 56.1392 27.4 56.8392 27.3 57.8392C27.2 59.2392 26.7 61.3392 25.9 63.3392C25.1 65.3392 24.1 67.4392 23 68.7392C22.1 69.9392 21 70.6392 20.1 70.6392C18 70.5392 17.5 68.9392 17.6 67.2392C17.6 66.5392 17.8 65.7392 17.9 65.2392C18 64.8392 18.2 64.7392 18.1 64.6392C18 64.5392 17.7 64.7392 17.2 64.8392C16.7 64.9392 16.2 65.0392 15.7 65.0392C14 65.1392 12.3 64.8392 12.1 62.9392ZM13.5 62.3392C13.3 62.5392 13.2 62.7392 13.3 62.8392C13.4 63.8392 14.5 63.9392 15.6 63.9392C16.1 63.9392 16.6 63.8392 17.1 63.7392C18 63.6392 18.7 63.5392 19 63.8392C19.3 64.1392 19.2 64.6392 19.1 65.4392C19 65.9392 18.9 66.6392 18.9 67.3392C18.9 68.4392 19.1 69.5392 20.3 69.6392C20.9 69.6392 21.6 69.0392 22.3 68.1392C23.3 66.8392 24.3 64.9392 25.1 63.0392C25.8 61.1392 26.3 59.2392 26.4 57.8392C26.4 57.2392 26.4 56.8392 26.2 56.6392C26.1 56.5392 25.8 56.5392 25.4 56.5392C23.9 56.6392 21.4 57.6392 19 58.7392C16.5 59.9392 14.3 61.3392 13.5 62.3392Z" fill="#6B5DFF"/>
<path fill-rule="evenodd" clip-rule="evenodd" d="M57 25.7392C56.9 25.9392 56.7 26.0392 56.5 26.1392C56.3 26.2392 56 26.2392 55.9 26.4392V26.5392C56.1 26.7392 56.5 26.4392 56.7 26.3392C56.9 26.2392 57.1 26.0392 57.2 25.7392C57.1 25.7392 57 25.6392 57 25.7392Z" fill="#6B5DFF"/>
<path fill-rule="evenodd" clip-rule="evenodd" d="M57.4 26.2392C57.1 26.2392 56.8 26.2392 56.5 26.3392C56.3 26.4392 55.9 26.5392 55.8 26.7392C55.8 26.8392 55.8 26.8392 55.9 26.8392C56.1 26.8392 56.4 26.6392 56.6 26.5392C56.9 26.4392 57.2 26.3392 57.5 26.3392C57.5 26.4392 57.5 26.2392 57.4 26.2392Z" fill="#6B5DFF"/>
<path fill-rule="evenodd" clip-rule="evenodd" d="M56.2 26.9392C56 27.0392 55.8 27.0392 55.6 27.1392C55.4 27.1392 55.2 27.2392 55.1 27.3392C55.1 27.3392 55.1 27.4392 55.2 27.4392C55.4 27.4392 55.6 27.3392 55.8 27.3392C56 27.2392 56.2 27.2392 56.4 27.1392C56.5 27.1392 56.4 26.9392 56.2 26.9392Z" fill="#6B5DFF"/>
<path fill-rule="evenodd" clip-rule="evenodd" d="M56 27.9392C55.3 27.9392 54.4 28.0392 53.9 28.5392C53.8 28.5392 53.9 28.7392 54 28.7392C54.3 28.7392 54.6 28.5392 54.9 28.4392C55.3 28.3392 55.6 28.2392 56 28.2392C56.1 28.2392 56.1 28.0392 56 27.9392Z" fill="#6B5DFF"/>
<path fill-rule="evenodd" clip-rule="evenodd" d="M54.6 28.8392C54 28.9392 53.3 28.9392 52.9 29.4392C52.9 29.5392 52.9 29.5392 53 29.5392C53.3 29.4392 53.5 29.3392 53.8 29.2392C54.1 29.1392 54.4 29.1392 54.7 29.0392C54.9 29.1392 54.8 28.8392 54.6 28.8392Z" fill="#6B5DFF"/>
<path fill-rule="evenodd" clip-rule="evenodd" d="M53.4 30.0392C53.1 29.9392 52.8 30.0392 52.5 30.0392C52.2 30.1392 51.9 30.2392 51.7 30.4392C51.7 30.5392 51.7 30.5392 51.8 30.5392C52 30.5392 52.2 30.3392 52.5 30.3392C52.8 30.2392 53 30.2392 53.3 30.2392C53.5 30.3392 53.6 30.1392 53.4 30.0392Z" fill="#6B5DFF"/>
<path fill-rule="evenodd" clip-rule="evenodd" d="M53 30.6392C52.3 30.8392 51.4 31.0392 50.8 31.5392C50.7 31.6392 50.8 31.7392 50.9 31.6392C51.2 31.5392 51.6 31.4392 51.9 31.2392C52.3 31.0392 52.7 30.9392 53.1 30.8392C53.2 30.8392 53.2 30.5392 53 30.6392Z" fill="#6B5DFF"/>
<path fill-rule="evenodd" clip-rule="evenodd" d="M51.7 31.7392C51 31.8392 50.1 31.9392 49.7 32.6392C49.7 32.7392 49.7 32.7392 49.8 32.7392C50.1 32.5392 50.4 32.3392 50.8 32.2392C51.1 32.1392 51.4 32.0392 51.8 32.0392C51.9 31.9392 51.8 31.6392 51.7 31.7392Z" fill="#6B5DFF"/>
<path fill-rule="evenodd" clip-rule="evenodd" d="M49.4 33.3392C49.2 33.4392 49 33.5392 48.8 33.7392C48.8 33.8392 48.8 33.8392 48.9 33.8392C49.1 33.7392 49.2 33.6392 49.5 33.5392C49.6 33.5392 49.5 33.3392 49.4 33.3392Z" fill="#6B5DFF"/>
<path fill-rule="evenodd" clip-rule="evenodd" d="M26.1 55.7392C26.3 55.8392 26.5 55.8392 26.7 55.9392C26.9 55.9392 27.1 56.0392 27.3 55.9392C27.4 55.9392 27.4 55.8392 27.3 55.7392C27.2 55.6392 26.9 55.6392 26.7 55.6392C26.5 55.6392 26.3 55.5392 26.1 55.5392C26 55.4392 25.9 55.6392 26.1 55.7392Z" fill="#6B5DFF"/>
<path fill-rule="evenodd" clip-rule="evenodd" d="M26.8 54.8392C27.3 54.6392 27.7 54.7392 28.2 54.6392C28.3 54.6392 28.3 54.5392 28.2 54.4392C27.7 54.2392 27 54.3392 26.6 54.5392C26.5 54.6392 26.6 54.8392 26.8 54.8392Z" fill="#6B5DFF"/>
<path fill-rule="evenodd" clip-rule="evenodd" d="M28.1 53.7392C28.4 53.7392 28.6 53.6392 28.9 53.6392C29.1 53.6392 29.4 53.6392 29.7 53.6392C29.8 53.6392 29.8 53.4392 29.7 53.4392C29.4 53.3392 29.1 53.3392 28.9 53.3392C28.6 53.3392 28.4 53.3392 28.1 53.4392C27.8 53.4392 27.9 53.7392 28.1 53.7392Z" fill="#6B5DFF"/>
<path fill-rule="evenodd" clip-rule="evenodd" d="M29.5 52.5392C30 52.4392 30.5 52.4392 31 52.3392C31.1 52.3392 31.1 52.1392 31 52.1392C30.5 52.0392 29.9 52.1392 29.4 52.2392C29.2 52.3392 29.3 52.6392 29.5 52.5392Z" fill="#6B5DFF"/>
<path fill-rule="evenodd" clip-rule="evenodd" d="M30.9 51.4392C31.3 51.1392 31.7 51.0392 32.2 50.9392C32.3 50.9392 32.3 50.8392 32.2 50.8392C31.6 50.7392 31.1 50.8392 30.7 51.2392C30.5 51.3392 30.7 51.5392 30.9 51.4392Z" fill="#6B5DFF"/>
<path fill-rule="evenodd" clip-rule="evenodd" d="M24.3 58.1392C23.2 58.9392 22.2 60.0392 21.2 60.9392C20.1 61.9392 18.8 63.0392 17.9 64.2392C17.8 64.3392 18 64.5392 18.1 64.4392C19.3 63.6392 20.2 62.5392 21.3 61.5392C22.4 60.5392 23.6 59.4392 24.5 58.2392C24.4 58.2392 24.3 58.1392 24.3 58.1392Z" fill="#6B5DFF"/>
<path fill-rule="evenodd" clip-rule="evenodd" d="M20.2 63.7392C19.7 64.8392 19.2 66.7392 19.9 67.8392C19.9 67.9392 20.1 67.9392 20 67.8392C19.9 67.2392 19.8 66.6392 19.8 65.9392C19.8 65.2392 20 64.4392 20.3 63.8392C20.4 63.6392 20.2 63.6392 20.2 63.7392Z" fill="#6B5DFF"/>
<path fill-rule="evenodd" clip-rule="evenodd" d="M21 62.6392C20.9 63.4392 20.8 64.2392 20.8 65.0392C20.8 65.8392 20.7 66.7392 20.9 67.5392C20.9 67.6392 21.1 67.6392 21.1 67.5392C21.2 66.8392 21.1 66.0392 21.1 65.3392C21.1 64.4392 21.1 63.5392 21.2 62.7392C21.3 62.6392 21.1 62.5392 21 62.6392Z" fill="#6B5DFF"/>
<path fill-rule="evenodd" clip-rule="evenodd" d="M22.3 61.2392C22 61.9392 22 62.6392 22 63.3392C22 64.0392 22.1 65.0392 22.5 65.6392C22.5 65.7392 22.7 65.7392 22.7 65.6392C22.7 65.0392 22.5 64.3392 22.4 63.7392C22.3 62.9392 22.3 62.0392 22.6 61.2392C22.7 61.1392 22.4 61.0392 22.3 61.2392Z" fill="#6B5DFF"/>
<path fill-rule="evenodd" clip-rule="evenodd" d="M23.4 60.0392C23.3 60.5392 23.3 61.1392 23.4 61.6392C23.5 62.3392 23.6 63.0392 23.9 63.6392C23.9 63.7392 24.1 63.6392 24.1 63.6392C24.1 63.1392 23.9 62.6392 23.8 62.1392C23.6 61.4392 23.5 60.8392 23.6 60.1392C23.7 59.9392 23.4 59.9392 23.4 60.0392Z" fill="#6B5DFF"/>
<path fill-rule="evenodd" clip-rule="evenodd" d="M24.4 59.1392C24.5 59.3392 24.6 59.6392 24.7 59.8392C24.8 60.0392 24.8 60.3392 24.9 60.5392C24.9 60.6392 25.1 60.5392 25.1 60.5392C25.1 60.0392 24.9 59.5392 24.7 59.0392C24.6 58.8392 24.4 59.0392 24.4 59.1392Z" fill="#6B5DFF"/>
<path fill-rule="evenodd" clip-rule="evenodd" d="M17.5 63.4392C16.9 63.4392 16.3 63.4392 15.8 63.2392C15.2 63.0392 14.8 62.7392 14.3 62.4392C14.2 62.4392 14.1 62.4392 14.2 62.5392C14.8 63.6392 16.5 63.6392 17.6 63.5392C17.6 63.5392 17.6 63.4392 17.5 63.4392Z" fill="#6B5DFF"/>
<path fill-rule="evenodd" clip-rule="evenodd" d="M17.6 62.3392C17.1 62.2392 16.5 62.1392 16 62.0392C15.5 61.9392 15 61.7392 14.5 61.7392C14.4 61.7392 14.4 61.8392 14.4 61.9392C14.8 62.2392 15.4 62.2392 15.9 62.3392C16.5 62.4392 17 62.5392 17.6 62.6392C17.8 62.6392 17.8 62.3392 17.6 62.3392Z" fill="#6B5DFF"/>
<path fill-rule="evenodd" clip-rule="evenodd" d="M18.9 61.5392C18.4 61.4392 18 61.3392 17.5 61.1392C17 61.0392 16.6 60.7392 16.1 60.7392C16 60.7392 15.9 60.8392 16 60.9392C16.3 61.2392 16.8 61.3392 17.2 61.4392C17.7 61.5392 18.2 61.6392 18.8 61.7392C19 61.8392 19 61.5392 18.9 61.5392Z" fill="#6B5DFF"/>
<path fill-rule="evenodd" clip-rule="evenodd" d="M19.7 60.7392C19.2 60.5392 18.8 60.4392 18.3 60.3392C17.8 60.2392 17.4 60.0392 16.9 59.9392C16.7 59.9392 16.7 60.1392 16.8 60.2392C17.2 60.5392 17.7 60.5392 18.2 60.7392C18.7 60.8392 19.2 60.9392 19.6 61.1392C19.8 61.0392 19.9 60.7392 19.7 60.7392Z" fill="#6B5DFF"/>
<path fill-rule="evenodd" clip-rule="evenodd" d="M20.9 59.2392C20.5 59.1392 20.1 59.0392 19.7 59.0392C19.4 59.0392 19 58.8392 18.7 58.9392C18.6 58.9392 18.6 59.0392 18.7 59.0392C18.9 59.2392 19.4 59.2392 19.7 59.2392C20.1 59.3392 20.5 59.3392 20.9 59.4392C21 59.5392 21 59.2392 20.9 59.2392Z" fill="#6B5DFF"/>
<path fill-rule="evenodd" clip-rule="evenodd" d="M23 58.3392C22.6 58.2392 22.2 58.1392 21.7 57.9392C21.3 57.8392 20.9 57.6392 20.5 57.6392C20.4 57.6392 20.4 57.7392 20.4 57.8392C20.7 58.0392 21.1 58.0392 21.4 58.1392C21.9 58.2392 22.4 58.3392 22.8 58.4392C23.1 58.5392 23.2 58.3392 23 58.3392Z" fill="#6B5DFF"/>
<path fill-rule="evenodd" clip-rule="evenodd" d="M24.8 56.9392C24.6 56.9392 24.3 56.8392 24.1 56.8392C23.9 56.8392 23.5 56.7392 23.3 56.8392C23.2 56.8392 23.2 56.9392 23.3 57.0392C23.5 57.1392 23.7 57.1392 23.9 57.1392C24.2 57.1392 24.4 57.1392 24.7 57.2392C24.9 57.2392 25 56.9392 24.8 56.9392Z" fill="#6B5DFF"/>
<path fill-rule="evenodd" clip-rule="evenodd" d="M63.6 18.9392C61.2 21.7392 58 23.7392 55.8 26.6392C55.7 26.8392 55.9 27.0392 56.1 26.9392C59.1 24.8392 61.3 21.7392 64.1 19.5392C64.5 19.2392 63.9 18.6392 63.6 18.9392Z" fill="#6B5DFF"/>
<path fill-rule="evenodd" clip-rule="evenodd" d="M57.7 24.2392C57 24.1392 56.3 23.9392 55.6 23.8392C55 23.7392 54.3 23.4392 53.8 23.6392C53.7 23.7392 53.5 23.9392 53.7 24.0392C54.2 24.4392 54.9 24.4392 55.5 24.5392C56.2 24.6392 56.9 24.6392 57.6 24.5392C57.7 24.4392 57.7 24.2392 57.7 24.2392Z" fill="#6B5DFF"/>
<path fill-rule="evenodd" clip-rule="evenodd" d="M58.7 22.7392C58.2 22.7392 57.6 22.7392 57.1 22.6392C56.6 22.5392 56 22.4392 55.6 22.6392C55.5 22.7392 55.5 22.8392 55.6 22.9392C56 23.2392 56.5 23.2392 57 23.2392C57.6 23.2392 58.2 23.2392 58.8 23.1392C59 23.1392 58.9 22.7392 58.7 22.7392Z" fill="#6B5DFF"/>
<path fill-rule="evenodd" clip-rule="evenodd" d="M60.1 21.6392C59.6 21.6392 59.1 21.5392 58.6 21.3392C58.2 21.2392 57.6 20.9392 57.2 21.0392C57.1 21.0392 57.1 21.2392 57.1 21.2392C57.4 21.6392 58 21.6392 58.4 21.7392C58.9 21.8392 59.5 21.8392 60 21.8392C60.3 21.9392 60.3 21.6392 60.1 21.6392Z" fill="#6B5DFF"/>
<path fill-rule="evenodd" clip-rule="evenodd" d="M61 20.7392C60.6 20.6392 60.2 20.5392 59.8 20.4392C59.5 20.3392 59.1 20.2392 58.9 20.4392C58.8 20.5392 58.8 20.5392 58.9 20.6392C59.1 20.9392 59.5 20.9392 59.8 20.9392C60.2 21.0392 60.6 21.0392 61 21.0392C61.2 21.2392 61.2 20.8392 61 20.7392Z" fill="#6B5DFF"/>
<path fill-rule="evenodd" clip-rule="evenodd" d="M62.7 19.4392C62.3 19.4392 61.9 19.3392 61.5 19.3392C61.1 19.3392 60.7 19.1392 60.4 19.2392C60.3 19.2392 60.3 19.4392 60.3 19.4392C60.5 19.7392 60.9 19.7392 61.3 19.8392C61.8 19.8392 62.2 19.8392 62.7 19.8392C63 19.8392 63 19.4392 62.7 19.4392Z" fill="#6B5DFF"/>
<path fill-rule="evenodd" clip-rule="evenodd" d="M63.4 18.1392C63 18.1392 62.5 18.0392 62.2 18.3392C62.1 18.3392 62.1 18.4392 62.1 18.5392C62.2 18.7392 62.4 18.6392 62.6 18.6392C62.9 18.6392 63.1 18.5392 63.4 18.5392C63.7 18.6392 63.7 18.2392 63.4 18.1392Z" fill="#6B5DFF"/>
<path fill-rule="evenodd" clip-rule="evenodd" d="M58.6 24.5392C58.6 25.3392 58.6 26.1392 58.7 27.0392C58.7 27.7392 58.7 28.5392 58.9 29.2392C58.9 29.3392 59.1 29.3392 59.2 29.2392C59.4 28.5392 59.2 27.7392 59.2 27.0392C59.1 26.2392 59.1 25.3392 59 24.5392C58.9 24.3392 58.6 24.3392 58.6 24.5392Z" fill="#6B5DFF"/>
<path fill-rule="evenodd" clip-rule="evenodd" d="M59.7 23.5392C59.8 24.2392 59.9 24.9392 59.9 25.6392C59.9 26.2392 59.9 27.0392 60.2 27.5392C60.3 27.6392 60.5 27.6392 60.6 27.5392C60.8 26.9392 60.5 26.2392 60.5 25.6392C60.4 24.9392 60.2 24.1392 60 23.4392C60 23.2392 59.7 23.3392 59.7 23.5392Z" fill="#6B5DFF"/>
<path fill-rule="evenodd" clip-rule="evenodd" d="M61.2 21.7392C61.3 22.5392 61.3 23.3392 61.4 24.1392C61.5 24.7392 61.4 25.4392 61.7 25.9392C61.8 26.0392 62 26.0392 62 25.9392C62.1 25.3392 61.9 24.7392 61.8 24.1392C61.7 23.3392 61.5 22.5392 61.4 21.7392C61.4 21.5392 61.2 21.6392 61.2 21.7392Z" fill="#6B5DFF"/>
<path fill-rule="evenodd" clip-rule="evenodd" d="M62.7 20.5392C62.7 21.0392 62.8 21.5392 62.9 22.1392C63 22.7392 63 23.4392 63.4 23.9392C63.5 24.0392 63.7 24.0392 63.7 23.9392C63.9 23.4392 63.7 22.9392 63.6 22.4392C63.5 21.8392 63.3 21.2392 63.2 20.5392C63.1 20.2392 62.7 20.3392 62.7 20.5392Z" fill="#6B5DFF"/>
<path fill-rule="evenodd" clip-rule="evenodd" d="M63.7 20.1392C64.1 20.6392 64.1 21.2392 64.3 21.8392C64.3 21.9392 64.5 21.9392 64.5 21.8392C64.6 21.1392 64.4 20.4392 63.9 19.9392C63.8 19.7392 63.6 19.9392 63.7 20.1392Z" fill="#6B5DFF"/>
<path fill-rule="evenodd" clip-rule="evenodd" d="M25.7 2.43918L26.2 5.2392L29 5.7392L26.2 6.2392L25.7 9.13919L25.2 6.2392L22.4 5.7392L25.2 5.2392L25.7 2.43918Z" fill="#6B5DFF"/>
<path fill-rule="evenodd" clip-rule="evenodd" d="M27.4 4.03918L26.2 5.7392L27.4 7.43918L25.7 6.2392L24 7.43918L25.2 5.7392L24 4.03918L25.7 5.2392L27.4 4.03918Z" fill="#6B5DFF"/>
<path fill-rule="evenodd" clip-rule="evenodd" d="M33.8 68.8392L34.3 71.6392L37.2 72.1392L34.3 72.6392L33.8 75.4392L33.3 72.6392L30.5 72.1392L33.3 71.6392L33.8 68.8392Z" fill="#6B5DFF"/>
<path fill-rule="evenodd" clip-rule="evenodd" d="M35.5 70.4392L34.3 72.1392L35.5 73.8392L33.8 72.6392L32.1 73.8392L33.3 72.1392L32.1 70.4392L33.8 71.6392L35.5 70.4392Z" fill="#6B5DFF"/>
<path fill-rule="evenodd" clip-rule="evenodd" d="M80.4 10.4392L80.9 13.2392L83.7 13.7392L80.9 14.2392L80.4 17.0392L79.9 14.2392L77 13.7392L79.9 13.2392L80.4 10.4392Z" fill="#6B5DFF"/>
<path fill-rule="evenodd" clip-rule="evenodd" d="M82.1 12.0392L80.9 13.7392L82.1 15.4392L80.4 14.2392L78.6 15.4392L79.9 13.7392L78.6 12.0392L80.4 13.2392L82.1 12.0392Z" fill="#6B5DFF"/>
</svg>
