<svg width="79" height="80" viewBox="0 0 79 80" fill="none" xmlns="http://www.w3.org/2000/svg">
<path fill-rule="evenodd" clip-rule="evenodd" d="M17.3 74.0392C17.6 73.6392 17.8 73.2392 18 72.8392C18 72.7392 18.1 72.7392 18.1 72.6392C18.1 72.4392 18.1 72.3392 18 72.1392C17.6 71.2392 16.2 70.5392 15.4 70.1392C12.8 69.0392 9.1 67.0392 9 63.7392C8.9 62.6392 9.29998 61.6392 9.69998 60.6392C10.1 59.7392 10.6 58.8392 11.1 57.9392C12.3 55.8392 13.7 53.4392 13.4 50.9392V50.8392C13.2 48.4392 12.6 45.9392 12.1 43.6392C11.1 39.2392 9.89999 34.4392 11.3 30.0392C10.9 27.1392 11.2 23.5392 11.9 20.7392C12.1 19.7392 12.4 18.8392 12.8 17.9392C13.8 15.2392 15.6 12.4392 18.4 11.3392C19.3 7.8392 22.3 5.23919 25.4 3.63919C29.5 1.43919 34.5 0.239197 39.1 0.239197C43.9 0.239197 49 1.33918 53.2 3.53918C56.3 5.23918 59.5 7.83918 60.4 11.4392C63.2 12.5392 65 15.3392 66 18.0392C66.4 18.9392 66.6 19.9392 66.9 20.8392C67.6 23.6392 68 27.2392 67.5 30.1392C68.9 34.5392 67.7 39.3392 66.7 43.7392C66.1 46.1392 65.6 48.5392 65.4 50.9392C65.3 51.4392 65.4 51.9392 65.4 52.4392C65.5 53.0392 65.6 53.6392 65.8 54.2392V54.3392V54.4392C66.2 55.7392 66.9 56.9392 67.5 58.1392C67.9 58.9392 68.4 59.7392 68.7 60.5392C69.2 61.6392 69.6 62.8392 69.5 64.0392C69.3 67.4392 65.6 69.4392 62.9 70.6392C62 71.0392 60.7 71.7392 60.3 72.6392C60.1 72.9392 60.1 73.3392 60.3 73.6392C60.5 74.1392 61 74.5392 61.4 74.8392C63.3 76.2392 66.4 76.6392 68.7 76.6392C69.1 76.6392 69.5 76.8392 69.6 77.3392C69.7 77.8392 69.5 78.3392 69 78.4392C66.1 79.2392 63.1 79.4392 60.1 79.1392C57.6 78.8392 54.9 78.0392 52.8 76.6392C50.8 75.3392 49.2 73.5392 48.5 71.2392C48.2 70.1392 48.1 68.9392 48.3 67.7392C48.6 66.0392 48.8 64.2392 49 62.5392C49.1 61.0392 49.2 59.5392 49.3 58.0392C46.6 60.4392 43.3 62.6392 39.5 62.5392C35.8 62.4392 32.3 60.1392 29.5 57.9392C29.6 59.5392 29.7 61.1392 29.8 62.6392C29.9 64.3392 30.1 66.1392 30.4 67.7392V67.8392C30.6 69.3392 30.4 70.8392 29.8 72.2392C28.9 74.3392 27.3 75.8392 25.4 76.9392C23.3 78.1392 20.9 78.8392 18.5 79.1392C14.8 79.6392 10.9 79.1392 7.39999 77.6392C7.09999 77.5392 6.79999 77.1392 6.79999 76.7392C6.79999 76.2392 7.19998 75.8392 7.69998 75.8392C7.79998 75.8392 7.9 75.8392 8 75.8392C8.1 75.8392 8.19999 75.8392 8.29999 75.8392C10.9 76.0392 14.4 75.7392 16.7 74.2392C17 74.3392 17.1 74.2392 17.3 74.0392Z" fill="#6B5DFF"/>
<path fill-rule="evenodd" clip-rule="evenodd" d="M19.1 12.0392C13.1 13.9392 11.3 25.0392 12.1 30.1392C10 36.5392 13.7 43.9392 14.2 50.8392C15.2 58.5392 2.89998 63.6392 15.7 69.2392C23.1 72.5392 16.8 77.5392 8.29999 76.8392C8.09999 76.8392 7.89998 76.8392 7.69998 76.8392C17.2 80.8392 30.5 76.8392 29.4 67.9392C28.8 64.9392 28.4 58.9392 28.4 55.9392C37.1 63.1392 41.8 63.8392 50.1 55.9392C50.1 58.9392 49.7 64.9392 49.1 67.9392C48.1 76.2392 59.5 80.2392 68.7 77.5392C60.8 77.6392 55.4 72.9392 62.5 69.8392C73.2 65.1392 66.8 60.6392 64.9 54.8392C64.8 54.7392 64.8 54.7392 64.7 54.6392L64.8 54.5392C64.3 53.1392 64.2 51.7392 64.3 50.7392C64.9 43.8392 68.5 36.4392 66.4 30.0392C67.2 24.9392 65.5 13.7392 59.4 11.9392C58.3 5.63919 48.6 0.839187 38.9 0.939187C29.6 1.13919 20.2 5.93919 19.1 12.0392Z" fill="#F0F2FB"/>
<path fill-rule="evenodd" clip-rule="evenodd" d="M19.2 12.4392C16.8 13.2392 15.1 15.6392 13.9 18.4392C12.4 22.3392 12 27.2392 12.5 30.0392C12.5 30.1392 12.5 30.1392 12.5 30.2392C11.2 34.3392 12.2 38.8392 13.3 43.3392C13.9 45.8392 14.5 48.3392 14.7 50.7392C15.1 53.7392 13.6 56.2392 12.2 58.5392C11.7 59.4392 11.2 60.2392 10.8 61.0392C9.59999 63.6392 9.89999 66.1392 15.9 68.7392C17.7 69.5392 18.8 70.4392 19.2 71.4392C19.5 72.1392 19.5 72.8392 19.2 73.5392C18.9 74.1392 18.3 74.7392 17.5 75.2392C15.9 76.3392 13.4 77.0392 10.5 77.1392C13.1 77.8392 15.8 77.9392 18.3 77.6392C20.7 77.3392 22.9 76.6392 24.7 75.6392C26.5 74.6392 27.8 73.2392 28.6 71.5392C29.1 70.4392 29.2 69.2392 29.1 67.8392C28.8 66.4392 28.6 64.5392 28.4 62.5392C28.2 60.0392 28.1 57.4392 28.1 55.7392C28.1 55.5392 28.3 55.3392 28.5 55.3392C28.6 55.3392 28.7 55.3392 28.8 55.4392C33.1 58.9392 36.4 60.9392 39.6 61.0392C42.8 61.1392 45.9 59.3392 50 55.4392C50.2 55.2392 50.4 55.2392 50.6 55.4392C50.7 55.5392 50.7 55.6392 50.7 55.7392C50.7 57.4392 50.6 60.0392 50.4 62.4392C50.2 64.4392 50 66.3392 49.7 67.7392C49.6 68.8392 49.7 69.7392 49.9 70.6392C50.4 72.5392 51.8 74.1392 53.6 75.2392C55.5 76.4392 57.8 77.2392 60.4 77.5392C62.2 77.7392 64 77.7392 65.8 77.5392C63.7 77.2392 61.9 76.5392 60.7 75.7392C60 75.2392 59.4 74.6392 59.2 73.9392C58.9 73.2392 58.9 72.5392 59.3 71.8392C59.7 70.9392 60.8 70.0392 62.6 69.2392C68.9 66.4392 69 63.8392 67.7 60.9392C67.4 60.2392 67 59.4392 66.5 58.6392C65.8 57.4392 65.2 56.1392 64.7 54.8392L64.6 54.7392C64.5 54.6392 64.5 54.4392 64.5 54.3392C64.3 53.6392 64.2 53.0392 64.1 52.4392C64 51.7392 64 51.1392 64.1 50.5392C64.3 48.1392 64.9 45.6392 65.5 43.1392C66.6 38.6392 67.6 34.0392 66.3 30.0392C66.3 29.9392 66.3 29.9392 66.3 29.8392C66.8 26.9392 66.4 22.1392 64.9 18.2392C63.8 15.3392 62.1 12.9392 59.6 12.2392C59.4 12.2392 59.3 12.0392 59.3 11.9392C58.8 8.93918 56.3 6.33918 52.7 4.43918C48.9 2.43918 44.1 1.2392 39.2 1.2392C34.5 1.2392 29.7 2.53918 26.1 4.53918C22.7 6.43918 20.2 9.0392 19.7 11.8392C19.5 12.2392 19.4 12.4392 19.2 12.4392ZM13.2 18.2392C14.4 15.2392 16.2 12.7392 18.8 11.7392C19.4 8.7392 22 6.03918 25.6 4.03918C29.4 1.93918 34.2 0.739191 39.1 0.639191C44.1 0.639191 49.1 1.8392 53 3.8392C56.7 5.8392 59.3 8.53919 60 11.6392C62.6 12.5392 64.4 15.0392 65.6 18.1392C67.2 22.1392 67.5 27.1392 67.1 30.0392C68.4 34.2392 67.4 38.9392 66.3 43.5392C65.7 46.0392 65.2 48.4392 65 50.8392C64.9 51.3392 64.9 51.8392 65 52.5392C65.1 53.1392 65.2 53.8392 65.4 54.4392V54.5392C65.4 54.5392 65.4 54.6392 65.5 54.6392C65.9 55.9392 66.6 57.2392 67.3 58.4392C67.7 59.2392 68.2 60.0392 68.5 60.8392C70 64.1392 69.9 67.2392 62.9 70.2392C61.3 70.9392 60.4 71.7392 60.1 72.4392C59.9 72.9392 59.9 73.4392 60.1 73.8392C60.3 74.3392 60.7 74.8392 61.3 75.2392C62.9 76.3392 65.7 77.1392 68.9 77.1392C69.1 77.1392 69.3 77.2392 69.3 77.4392C69.4 77.6392 69.2 77.8392 69 77.9392C66.2 78.7392 63.1 78.9392 60.3 78.6392C57.6 78.3392 55.1 77.5392 53.2 76.2392C51.2 74.9392 49.7 73.2392 49.1 71.1392C48.8 70.1392 48.7 69.0392 48.9 67.8392C49.2 66.5392 49.4 64.6392 49.6 62.6392C49.8 60.6392 49.9 58.5392 49.9 56.9392C46 60.5392 42.9 62.1392 39.6 62.0392C36.4 61.9392 33.1 60.1392 29 56.8392C29 58.4392 29.2 60.5392 29.3 62.6392C29.5 64.6392 29.7 66.5392 30 67.8392C30 67.8392 30 67.8392 30 67.9392C30.2 69.4392 30 70.8392 29.5 72.0392C28.7 73.9392 27.2 75.4392 25.3 76.5392C23.4 77.6392 21.1 78.3392 18.6 78.6392C15 79.0392 11.2 78.6392 7.79999 77.2392C7.59999 77.1392 7.5 77.0392 7.5 76.8392C7.5 76.6392 7.69999 76.4392 7.89999 76.4392C7.99999 76.4392 8.09998 76.4392 8.19998 76.4392C8.29998 76.4392 8.4 76.4392 8.5 76.4392C12.1 76.7392 15.4 75.9392 17.2 74.7392C17.9 74.3392 18.3 73.8392 18.6 73.3392C18.8 72.8392 18.8 72.4392 18.6 71.9392C18.3 71.1392 17.3 70.3392 15.7 69.6392C9.09998 66.7392 8.89998 63.9392 10.2 60.8392C10.6 60.0392 11.1 59.1392 11.6 58.2392C12.9 56.0392 14.3 53.6392 14 50.9392C13.8 48.5392 13.2 46.0392 12.7 43.6392C11.6 39.0392 10.6 34.4392 11.9 30.1392C11.3 27.1392 11.6 22.2392 13.2 18.2392Z" fill="#6B5DFF"/>
<path fill-rule="evenodd" clip-rule="evenodd" d="M35.7 36.7392C31.6 39.7392 27.4 35.4392 27.3 35.3392C27.3 35.3392 27.3 35.2392 27.3 35.1392C27.4 34.9392 27.6 34.8392 27.8 34.8392C27.8 34.8392 32.7 33.9392 33.6 34.2392C34.5 34.5392 35.9 36.2392 36 36.3392C36 36.4392 35.9 36.6392 35.7 36.7392ZM35.2 36.7392C34.8 36.2392 33.7 35.0392 33 34.8392C32.4 34.6392 29.8 35.0392 28.3 35.2392C29.4 36.1392 32.4 38.3392 35.2 36.7392Z" fill="#6B5DFF"/>
<path fill-rule="evenodd" clip-rule="evenodd" d="M22.8 40.6392C22.9 41.8392 23.1 43.0392 23.3 44.2392C23.5 45.0392 23.8 46.0392 23.8 46.8392C23.8 47.0392 23.6 47.0392 23.5 46.9392C22.8 46.3392 22.8 45.1392 22.8 44.2392C22.7 43.0392 22.4 41.8392 22.6 40.5392C22.7 40.5392 22.8 40.5392 22.8 40.6392Z" fill="#6B5DFF"/>
<path fill-rule="evenodd" clip-rule="evenodd" d="M22.1 43.0392C20.8 42.6392 20.9 39.2392 22.5 39.7392C22.9 39.8392 22.7 40.6392 22.3 40.5392C22.1 40.4392 21.9 40.3392 21.8 40.5392C21.7 40.7392 21.7 41.0392 21.7 41.2392C21.7 41.8392 22 42.3392 22.2 42.7392C22.3 42.8392 22.2 43.0392 22.1 43.0392Z" fill="#6B5DFF"/>
<path fill-rule="evenodd" clip-rule="evenodd" d="M22.5 40.2392C22.5 38.9392 22.5 36.0392 21.3 35.5392C19.6 34.7392 20.3 38.3392 19.7 39.1392C19.6 39.2392 19.5 39.1392 19.5 39.1392C19.2 38.5392 19.6 37.0392 19.8 36.4392C20 35.7392 20.6 34.6392 21.3 34.8392C22.9 35.4392 23 38.6392 22.6 40.3392C22.7 40.3392 22.5 40.3392 22.5 40.2392Z" fill="#6B5DFF"/>
<path fill-rule="evenodd" clip-rule="evenodd" d="M20.7 38.0392C20.8 37.7392 20.9 37.4392 21.2 37.3392C21.5 37.3392 21.6 37.5392 21.8 37.7392C22 38.0392 22.1 38.4392 22.2 38.8392C22.3 39.1392 22.5 39.4392 22.5 39.7392C22.5 39.9392 22.3 39.9392 22.3 39.8392C22.3 39.6392 22.2 39.4392 22.2 39.2392C22.2 39.1392 22.1 38.9392 22.1 38.8392C22 38.6392 21.9 38.6392 21.8 38.4392C21.7 38.2392 21.6 38.0392 21.4 37.9392C21.2 37.8392 21.1 38.0392 21 38.2392C20.8 38.3392 20.6 38.1392 20.7 38.0392Z" fill="#6B5DFF"/>
<path fill-rule="evenodd" clip-rule="evenodd" d="M36 35.2392C35.5 34.8392 34.8 34.6392 34.2 34.4392C33.7 34.3392 33.1 34.5392 32.6 34.4392C32.5 34.4392 32.5 34.2392 32.6 34.1392C33.1 33.8392 33.8 33.9392 34.3 34.0392C35 34.3392 35.5 34.7392 36 35.2392C36.1 35.2392 36 35.3392 36 35.2392Z" fill="#6B5DFF"/>
<path fill-rule="evenodd" clip-rule="evenodd" d="M26.1 33.8392C26.3 34.1392 26.6 34.3392 26.9 34.6392C27.2 34.8392 27.5 34.8392 27.9 34.8392C28.2 34.8392 28.2 35.1392 28 35.3392C27.6 35.6392 27.1 35.4392 26.7 35.1392C26.3 34.8392 26.1 34.3392 26 33.9392C26 33.7392 26.1 33.7392 26.1 33.8392Z" fill="#6B5DFF"/>
<path fill-rule="evenodd" clip-rule="evenodd" d="M27.1 33.6392C27.6 34.2392 28.3 34.3392 29 34.5392C29.1 34.5392 29 34.6392 28.9 34.7392C28.5 34.9392 28.1 34.8392 27.7 34.7392C27.2 34.4392 27.2 34.1392 27.1 33.6392C27 33.6392 27 33.6392 27.1 33.6392Z" fill="#6B5DFF"/>
<path fill-rule="evenodd" clip-rule="evenodd" d="M25.8 32.4392C26.8 31.2392 28.8 30.5392 30.4 30.4392C31.9 30.2392 34.5 30.6392 35.5 31.8392C35.7 32.0392 35.6 32.4392 35.3 32.4392C34 32.5392 32.5 31.6392 31.2 31.3392C30.2 31.1392 29.4 31.1392 28.4 31.3392C27.4 31.5392 26.8 32.1392 26 32.6392C25.8 32.7392 25.7 32.5392 25.8 32.4392Z" fill="#6B5DFF"/>
<path fill-rule="evenodd" clip-rule="evenodd" d="M20.8 11.0392C22 12.6392 23.2 13.8392 24.8 15.0392C26 15.9392 27.6 16.9392 28.2 18.2392C28.3 18.4392 28.1 18.7392 27.9 18.5392C27.2 18.0392 26.6 17.3392 26 16.8392C25.3 16.2392 24.5 15.6392 23.8 15.0392C22.5 14.0392 21.3 12.6392 20.7 11.1392C20.5 11.0392 20.7 10.9392 20.8 11.0392Z" fill="#6B5DFF"/>
<path fill-rule="evenodd" clip-rule="evenodd" d="M21.6 9.7392C21.7 9.6392 21.8 9.5392 21.8 9.3392C21.9 9.6392 21.8 9.7392 21.6 9.7392C21.6 9.9392 21.6 9.8392 21.6 9.7392Z" fill="#6B5DFF"/>
<path fill-rule="evenodd" clip-rule="evenodd" d="M23.5 8.03917C27.2 5.63917 32 2.93918 36.6 3.73918C36.7 3.73918 36.7 3.83919 36.6 3.83919C31.7 3.73919 27.9 6.83917 23.5 8.03917C23.4 8.13917 23.4 8.03917 23.5 8.03917Z" fill="#6B5DFF"/>
<path fill-rule="evenodd" clip-rule="evenodd" d="M24.8 9.63919C25.5 9.23919 26.2 8.83919 27 8.63919C27.1 8.63919 27.1 8.7392 27 8.7392C26.3 9.1392 25.6 9.4392 24.9 9.8392C24.8 9.9392 24.6 9.73919 24.8 9.63919Z" fill="#6B5DFF"/>
<path fill-rule="evenodd" clip-rule="evenodd" d="M27.7 8.2392C30.6 7.2392 34.2 4.9392 37.4 5.7392C37.5 5.7392 37.5 5.93918 37.4 5.93918C35.8 6.33918 34.2 6.3392 32.7 6.8392C31 7.3392 29.4 7.8392 27.7 8.3392C27.7 8.4392 27.6 8.3392 27.7 8.2392Z" fill="#6B5DFF"/>
<path fill-rule="evenodd" clip-rule="evenodd" d="M24.9 11.8392C27.2 11.8392 29.5 10.9392 31.7 10.0392C33.6 9.33919 36 8.23918 38 8.93918C38.2 9.03918 38.2 9.23921 38 9.33921C36.7 9.43921 35.5 9.43919 34.2 9.63919C33.1 9.83919 32 10.2392 31 10.7392C29 11.5392 27.1 12.2392 24.9 12.0392C24.8 12.0392 24.8 11.8392 24.9 11.8392Z" fill="#6B5DFF"/>
<path fill-rule="evenodd" clip-rule="evenodd" d="M27.1 15.5392C29.2 15.8392 31.4 15.6392 33.5 15.5392C35.1 15.5392 37.1 15.5392 38.4 16.4392C38.5 16.5392 38.5 16.7392 38.3 16.7392C36.3 16.5392 34.5 16.1392 32.5 16.1392C30.6 16.1392 28.9 16.1392 27.1 15.5392C27 15.5392 27 15.4392 27.1 15.5392Z" fill="#6B5DFF"/>
<path fill-rule="evenodd" clip-rule="evenodd" d="M29.7 17.1392C32.3 17.5392 35 17.4392 37.6 17.9392C37.8 17.9392 37.7 18.2392 37.6 18.3392C35 18.6392 32.3 17.9392 29.7 17.4392C29.5 17.3392 29.5 17.1392 29.7 17.1392Z" fill="#6B5DFF"/>
<path fill-rule="evenodd" clip-rule="evenodd" d="M21.3 30.4392C21.2 27.9392 22.5 26.1392 23.8 24.1392C24.5 23.0392 25.3 21.8392 25.8 20.5392C26.4 19.0392 25.9 17.9392 25.8 16.4392C25.8 16.2392 26 16.2392 26.1 16.3392C27.5 18.1392 26.3 21.0392 25.2 22.7392C23.7 25.2392 21.5 27.3392 21.3 30.4392C21.4 30.5392 21.3 30.5392 21.3 30.4392Z" fill="#6B5DFF"/>
<path fill-rule="evenodd" clip-rule="evenodd" d="M20.5 43.9392C22.1 44.8392 22.1 47.8392 22.2 49.4392C22.5 52.6392 22.8 56.0392 22.2 59.2392C22.2 59.3392 22.1 59.2392 22.1 59.2392C22.1 54.0392 22.3 49.0392 20.3 44.0392C20.3 43.9392 20.5 43.9392 20.5 43.9392Z" fill="#6B5DFF"/>
<path fill-rule="evenodd" clip-rule="evenodd" d="M22.3 61.3392C22.2 61.7392 22.1 62.1392 22.1 62.5392H22C22 62.1392 22.1 61.7392 22.3 61.3392Z" fill="#6B5DFF"/>
<path fill-rule="evenodd" clip-rule="evenodd" d="M21.9 63.8392C21.9 66.9392 21.6 70.0392 20.7 73.0392C20.1 75.0392 18.5 78.7392 15.9 78.5392C15.7 78.5392 15.6 78.2392 15.8 78.1392C17.1 77.7392 18 77.3392 18.8 76.1392C19.7 74.9392 20.1 73.4392 20.5 71.9392C21.3 69.4392 21.8 66.6392 21.9 63.8392Z" fill="#6B5DFF"/>
<path fill-rule="evenodd" clip-rule="evenodd" d="M23.7 47.6392C25 52.9392 25.6 58.7392 25.4 64.2392C25.3 67.0392 24.8 69.7392 24 72.3392C23.6 73.6392 23 74.8392 22.3 75.9392C21.8 76.8392 21.4 77.6392 20.6 78.2392C20.4 78.3392 20.2 78.0392 20.4 77.9392C21.5 77.1392 21.8 76.0392 22.3 74.8392C22.9 73.5392 23.4 72.2392 23.8 70.8392C24.5 68.2392 24.8 65.5392 24.8 62.8392C24.9 57.7392 23.8 52.8392 23.6 47.7392C23.6 47.6392 23.7 47.6392 23.7 47.6392Z" fill="#6B5DFF"/>
<path fill-rule="evenodd" clip-rule="evenodd" d="M26.3 54.3392C27.3 56.8392 27.6 59.2392 27.6 61.9392C27.6 64.4392 27.4 67.2392 26.6 69.6392C26.6 69.7392 26.5 69.6392 26.5 69.6392C27 64.6392 27.6 59.4392 26.2 54.4392C26.1 54.3392 26.2 54.2392 26.3 54.3392Z" fill="#6B5DFF"/>
<path fill-rule="evenodd" clip-rule="evenodd" d="M26.4 70.5392C26.4 72.2392 26.2 75.0392 24.8 76.3392C24.8 76.3392 24.7 76.3392 24.7 76.2392C25 75.4392 25.4 74.6392 25.7 73.8392C26 72.7392 26.1 71.6392 26.3 70.5392C26.2 70.4392 26.4 70.4392 26.4 70.5392Z" fill="#6B5DFF"/>
<path fill-rule="evenodd" clip-rule="evenodd" d="M13.8 54.4392C14 51.0392 15 47.7392 15.3 44.3392C15.6 41.1392 15.7 37.9392 16.1 34.7392C16.5 31.4392 17.4 28.3392 18.5 25.2392C19.4 22.6392 20.1 19.3392 22 17.2392C22.2 17.0392 22.5 17.3392 22.4 17.5392C20.9 20.1392 20 23.0392 18.9 25.8392C17.8 28.9392 17.1 32.1392 16.6 35.3392C16.1 38.6392 16.1 42.0392 15.7 45.3392C15.4 48.3392 15.1 51.6392 13.8 54.3392C13.9 54.6392 13.8 54.5392 13.8 54.4392Z" fill="#6B5DFF"/>
<path fill-rule="evenodd" clip-rule="evenodd" d="M13.2 44.4392C13.2 41.8392 12.9 39.3392 13.2 36.7392C13.5 34.2392 13.8 31.6392 14.3 29.2392C14.7 27.1392 15.3 25.1392 16.1 23.1392C16.5 22.2392 17 21.2392 17.4 20.3392C17.9 19.3392 18.4 18.2392 19.2 17.5392C19.3 17.4392 19.5 17.5392 19.5 17.7392C19.2 18.6392 18.6 19.4392 18.1 20.3392C17.5 21.3392 17.1 22.4392 16.6 23.4392C15.8 25.3392 15.3 27.3392 14.8 29.4392C14.3 32.0392 13.9 34.7392 13.6 37.3392C13.3 39.6392 13.9 42.2392 13.2 44.4392C13.4 44.5392 13.2 44.5392 13.2 44.4392Z" fill="#6B5DFF"/>
<path fill-rule="evenodd" clip-rule="evenodd" d="M20.2 13.8392C17.9 16.1392 16.2 18.6392 14.6 21.4392C13.6 23.2392 13 25.0392 12.8 27.1392C12.7 28.6392 12.8 29.9392 12 31.3392C11.8 31.7392 11.3 31.3392 11.5 31.0392C12.3 29.3392 12.1 27.5392 12.4 25.7392C12.7 24.0392 13.5 22.4392 14.3 20.9392C15.8 18.4392 17.5 14.9392 20.2 13.8392C20.2 13.7392 20.2 13.7392 20.2 13.8392Z" fill="#6B5DFF"/>
<path fill-rule="evenodd" clip-rule="evenodd" d="M24.1 17.3392C24.5 20.0392 23 22.4392 21.9 24.8392C20.4 27.9392 20.4 31.5392 19 34.7392C18.9 35.0392 18.3 34.9392 18.5 34.6392C19.7 31.8392 19.7 28.7392 20.9 25.9392C22.1 22.9392 23.5 20.4392 24.1 17.3392Z" fill="#6B5DFF"/>
<path fill-rule="evenodd" clip-rule="evenodd" d="M16.7 26.3392C17 22.5392 19.1 18.4392 21.7 15.6392C20.7 17.1392 19.8 18.7392 19 20.3392C18.1 22.2392 17.6 24.2392 17 26.3392C17 26.5392 16.7 26.5392 16.7 26.3392Z" fill="#6B5DFF"/>
<path fill-rule="evenodd" clip-rule="evenodd" d="M22.1 15.3392C22.3 15.1392 22.5 14.9392 22.7 14.6392C22.9 14.4392 23 14.2392 23.2 14.1392C23.4 13.9392 23.7 14.3392 23.5 14.5392C23.3 14.6392 23.1 14.8392 22.9 14.8392C22.6 14.9392 22.4 15.2392 22.2 15.4392C22.1 15.4392 22 15.3392 22.1 15.3392Z" fill="#6B5DFF"/>
<path fill-rule="evenodd" clip-rule="evenodd" d="M14.1 23.7392C14.4 23.2392 14.7 22.6392 15.3 22.4392C15.4 22.4392 15.4 22.4392 15.4 22.5392C15.3 23.1392 14.8 23.7392 14.1 23.7392Z" fill="#6B5DFF"/>
<path fill-rule="evenodd" clip-rule="evenodd" d="M15.9 21.1392C16.3 19.6392 17.1 18.4392 18.2 17.3392C18.8 16.7392 19.5 16.1392 20.1 15.5392C20.8 14.8392 21.3 13.9392 22.1 13.3392C22.2 13.2392 22.4 13.3392 22.3 13.5392C21.7 14.7392 20.3 15.7392 19.3 16.7392C18.1 18.0392 16.9 19.5392 15.9 21.1392Z" fill="#6B5DFF"/>
<path fill-rule="evenodd" clip-rule="evenodd" d="M22.7 18.8392C22.9 18.0392 23.1 17.3392 23.4 16.6392C23.7 16.0392 24 15.2392 24.7 14.9392C24.8 14.8392 24.9 14.9392 24.9 15.1392C24.8 15.7392 24.2 16.4392 23.9 17.0392C23.6 17.7392 23.2 18.3392 22.9 19.0392C22.8 19.0392 22.7 18.9392 22.7 18.8392Z" fill="#6B5DFF"/>
<path fill-rule="evenodd" clip-rule="evenodd" d="M28.7 9.53918C27.2 9.93918 25.9 10.9392 24.6 11.7392C23.7 12.2392 22.4 13.2392 21.3 12.7392C21.1 12.6392 21.1 12.4392 21.3 12.4392C21.9 12.2392 22.5 12.2392 23 12.0392C23.8 11.8392 24.7 11.2392 25.4 10.7392C26.5 10.1392 27.5 9.63918 28.7 9.53918Z" fill="#6B5DFF"/>
<path fill-rule="evenodd" clip-rule="evenodd" d="M28.3 12.6392C27.2 12.8392 26.2 13.2392 25.2 13.7392C24.6 14.0392 23.8 14.1392 23.2 13.7392C23.1 13.6392 23.1 13.5392 23.2 13.4392C24 13.2392 24.8 13.4392 25.6 13.3392C26.6 13.1392 27.4 12.7392 28.3 12.6392Z" fill="#6B5DFF"/>
<path fill-rule="evenodd" clip-rule="evenodd" d="M15.9 32.1392C14.4 34.2392 15.1 37.5392 15.2 39.8392C15.2 41.3392 15.1 42.9392 14.9 44.4392C14.7 45.7392 14.7 47.4392 14 48.6392C13.9 48.7392 13.7 48.7392 13.7 48.5392C13.6 47.8392 13.8 47.1392 13.9 46.4392C14.1 45.4392 14.2 44.4392 14.3 43.3392C14.5 41.8392 14.6 40.2392 14.6 38.7392C14.6 36.5392 14.2 33.9392 15.9 32.1392C15.9 32.0392 15.8 32.0392 15.9 32.1392Z" fill="#6B5DFF"/>
<path fill-rule="evenodd" clip-rule="evenodd" d="M18.8 73.1392C18.4 74.2392 17.7 75.6392 16.6 76.2392C16.5 76.3392 16.4 76.1392 16.4 76.0392C16.7 75.5392 17 75.1392 17.4 74.7392C17.8 74.2392 18.2 73.6392 18.5 73.0392C18.6 72.8392 18.9 72.9392 18.8 73.1392Z" fill="#6B5DFF"/>
<path fill-rule="evenodd" clip-rule="evenodd" d="M22.9 68.0392C23.7 64.4392 23.6 60.6392 23.5 57.0392C23.5 55.3392 23.4 53.5392 23.2 51.8392C23 49.9392 22.2 48.2392 22 46.4392C21.9 45.9392 22.8 45.9392 22.8 46.4392C23 48.2392 23.6 50.0392 23.8 51.8392C24 53.7392 24 55.6392 24 57.5392C24.1 61.1392 24 64.6392 23 68.1392C23.1 68.1392 22.9 68.1392 22.9 68.0392Z" fill="#6B5DFF"/>
<path fill-rule="evenodd" clip-rule="evenodd" d="M13.1 32.9392C13.1 34.1392 12.8 35.4392 12.6 36.6392C12.3 38.2392 12.5 39.6392 12.6 41.1392C12.6 41.2392 12.4 41.3392 12.4 41.2392C11.3 38.8392 12.3 35.2392 13 32.9392H13.1Z" fill="#6B5DFF"/>
<path fill-rule="evenodd" clip-rule="evenodd" d="M22 30.8392C22 31.3392 22 31.8392 21.9 32.3392C21.8 32.7392 21.7 33.3392 21.3 33.6392C21.2 33.7392 21.1 33.6392 21.1 33.5392C21.2 33.1392 21.4 32.7392 21.6 32.3392C21.7 31.8392 21.8 31.3392 21.9 30.9392C21.9 30.7392 22 30.7392 22 30.8392Z" fill="#6B5DFF"/>
<path fill-rule="evenodd" clip-rule="evenodd" d="M20.9 31.4392C21 31.9392 21 32.3392 20.9 32.8392C20.8 33.2392 20.7 33.9392 20.3 34.2392C20.2 34.3392 20.1 34.2392 20.1 34.1392C20 33.7392 20.2 33.4392 20.3 33.1392C20.5 32.6392 20.7 32.1392 20.7 31.5392C20.6 31.2392 20.9 31.2392 20.9 31.4392Z" fill="#6B5DFF"/>
<path fill-rule="evenodd" clip-rule="evenodd" d="M34.1 14.4392C30.8 14.4392 26.3 16.6392 23.3 14.6392C23.1 14.5392 23.2 14.3392 23.4 14.3392C25.5 14.7392 27.2 14.9392 29.4 14.6392C31 14.4392 32.6 14.1392 34.2 14.1392C34.3 14.1392 34.3 14.4392 34.1 14.4392Z" fill="#6B5DFF"/>
<path fill-rule="evenodd" clip-rule="evenodd" d="M24.1 9.2392C23.2 9.6392 22.7 10.7392 21.9 11.3392C21.3 11.8392 20.3 12.2392 19.6 12.2392C19.3 12.2392 19.2 11.8392 19.5 11.7392C20.2 11.2392 21.1 11.2392 21.9 10.7392C22.7 10.1392 23.1 9.43918 24.1 9.03918C24.1 9.03918 24.2 9.1392 24.1 9.2392Z" fill="#6B5DFF"/>
<path fill-rule="evenodd" clip-rule="evenodd" d="M28.3 33.2392C28.6 33.9392 29.3 34.2392 30 34.4392C30.1 34.5392 30 34.5392 29.9 34.6392C29.5 34.8392 29.1 34.6392 28.8 34.3392C28.3 34.0392 28.4 33.7392 28.3 33.2392Z" fill="#6B5DFF"/>
<path fill-rule="evenodd" clip-rule="evenodd" d="M29.4 32.8392C29.6 33.6392 30.2 34.0392 30.8 34.4392C30.8 34.5392 30.8 34.5392 30.7 34.6392C30.3 34.6392 29.9 34.4392 29.7 34.1392C29.3 33.5392 29.4 33.3392 29.4 32.8392C29.4 32.7392 29.3 32.7392 29.4 32.8392Z" fill="#6B5DFF"/>
<path fill-rule="evenodd" clip-rule="evenodd" d="M54.4 20.5392C54.6 20.5392 54.8 20.6392 54.9 20.9392C54.9 21.1392 54.8 21.3392 54.5 21.4392C50.4 22.0392 43.2 21.9392 36.7 20.8392C32.4 20.1392 28.4 19.0392 25.9 17.3392C26.7 20.3392 26.8 23.2392 26.5 25.9392C26 31.5392 24 35.9392 23.7 36.5392C23.6 36.7392 23.3 36.8392 23.1 36.7392C23 36.6392 22.9 36.5392 22.9 36.3392C22.9 36.3392 22.9 33.3392 21.3 33.7392C20.4 33.9392 19.3 34.5392 18.8 35.6392C18.2 36.8392 18.1 38.6392 19.1 41.4392C20.9 44.9392 23.5 46.1392 23.5 46.1392C23.6 46.2392 23.7 46.3392 23.7 46.4392C23.8 46.7392 25.3 53.0392 28.6 55.8392C28.8 55.9392 28.8 56.2392 28.6 56.4392C28.5 56.6392 28.2 56.6392 28 56.4392C24.8 53.6392 23.1 47.8392 22.8 46.7392C22.2 46.3392 19.9 44.9392 18.2 41.7392V41.6392C17.2 38.5392 17.3 36.5392 18 35.2392C18.7 33.8392 19.9 33.2392 21.1 32.9392C22.6 32.5392 23.2 33.7392 23.5 34.8392C24.2 33.1392 25.3 29.8392 25.6 25.9392C25.9 23.0392 25.7 19.7392 24.7 16.4392C24.7 16.3392 24.7 16.1392 24.8 16.0392C25 15.8392 25.2 15.8392 25.4 16.0392C27.6 18.0392 31.9 19.3392 36.8 20.0392C43.2 20.9392 50.4 21.0392 54.4 20.5392Z" fill="#6B5DFF"/>
<path fill-rule="evenodd" clip-rule="evenodd" d="M27 13.7392C28.9 13.4392 30.8 13.2392 32.7 13.0392C34.6 12.8392 37 12.6392 38.8 13.2392C39 13.3392 39 13.6392 38.8 13.6392C37 13.7392 35.1 13.5392 33.2 13.5392C31.1 13.6392 29.1 13.8392 27 13.8392V13.7392Z" fill="#6B5DFF"/>
<path fill-rule="evenodd" clip-rule="evenodd" d="M42.6 36.4392C42.7 36.3392 44.1 34.6392 45 34.3392C45.9 34.0392 50.8 34.9392 50.9 34.9392C51.1 34.9392 51.3 35.1392 51.4 35.2392C51.4 35.3392 51.4 35.3392 51.4 35.3392C51.4 35.3392 47.1 39.8392 42.7 36.7392C42.6 36.5392 42.6 36.4392 42.6 36.4392ZM45.7 34.6392C45 34.9392 43.7 36.3392 43.4 36.6392C46.3 38.5392 49.5 35.9392 50.4 35.0392C49 34.9392 46.3 34.4392 45.7 34.6392Z" fill="#6B5DFF"/>
<path fill-rule="evenodd" clip-rule="evenodd" d="M55.8 40.6392C55.7 41.8392 55.5 43.0392 55.3 44.2392C55.1 45.0392 54.8 46.0392 54.8 46.8392C54.8 47.0392 55 47.0392 55.1 46.9392C55.8 46.3392 55.8 45.1392 55.8 44.2392C55.9 43.0392 56.2 41.8392 56 40.5392C56 40.5392 55.8 40.5392 55.8 40.6392Z" fill="#6B5DFF"/>
<path fill-rule="evenodd" clip-rule="evenodd" d="M56.6 41.2392C57.9 40.9392 57.8 38.2392 56.2 38.6392C55.8 38.7392 56 39.3392 56.4 39.2392C56.6 39.2392 56.8 39.1392 56.9 39.2392C57 39.3392 57 39.6392 57 39.8392C57 40.2392 56.7 40.6392 56.5 41.0392C56.4 41.1392 56.4 41.2392 56.6 41.2392Z" fill="#6B5DFF"/>
<path fill-rule="evenodd" clip-rule="evenodd" d="M56.1 39.0392C56.1 38.0392 56.1 35.7392 57.3 35.3392C59 34.7392 58.3 37.5392 58.9 38.2392C59 38.3392 59.1 38.2392 59.1 38.2392C59.4 37.7392 59 36.5392 58.9 36.1392C58.7 35.6392 58.1 34.7392 57.4 34.9392C55.8 35.3392 55.7 37.9392 56.1 39.2392C56 39.1392 56.1 39.1392 56.1 39.0392Z" fill="#6B5DFF"/>
<path fill-rule="evenodd" clip-rule="evenodd" d="M58 37.3392C57.9 37.0392 57.8 36.8392 57.5 36.8392C57.2 36.8392 57.1 37.0392 56.9 37.1392C56.7 37.4392 56.6 37.7392 56.5 37.9392C56.4 38.1392 56.2 38.4392 56.2 38.6392C56.2 38.7392 56.4 38.8392 56.4 38.7392C56.4 38.5392 56.5 38.4392 56.5 38.2392C56.5 38.1392 56.6 38.0392 56.6 37.9392C56.7 37.8392 56.8 37.7392 56.9 37.6392C57 37.4392 57.1 37.3392 57.3 37.2392C57.5 37.1392 57.6 37.3392 57.7 37.4392C57.8 37.5392 58 37.4392 58 37.3392Z" fill="#6B5DFF"/>
<path fill-rule="evenodd" clip-rule="evenodd" d="M42.7 35.2392C43.2 34.8392 43.9 34.6392 44.5 34.4392C45 34.3392 45.6 34.5392 46.1 34.4392C46.2 34.4392 46.2 34.2392 46.1 34.1392C45.6 33.8392 44.9 33.9392 44.4 34.0392C43.6 34.3392 43.2 34.7392 42.7 35.2392C42.7 35.3392 42.6 35.2392 42.7 35.2392Z" fill="#6B5DFF"/>
<path fill-rule="evenodd" clip-rule="evenodd" d="M52.5 33.8392C52.3 34.1392 52 34.3392 51.7 34.6392C51.4 34.8392 51.1 34.8392 50.7 34.8392C50.4 34.8392 50.4 35.1392 50.6 35.3392C51 35.6392 51.5 35.4392 51.9 35.1392C52.3 34.8392 52.5 34.3392 52.6 33.9392C52.7 33.7392 52.6 33.7392 52.5 33.8392Z" fill="#6B5DFF"/>
<path fill-rule="evenodd" clip-rule="evenodd" d="M52.8 32.4392C51.8 31.2392 49.8 30.5392 48.2 30.4392C46.7 30.2392 44.1 30.6392 43.1 31.8392C42.9 32.0392 43 32.4392 43.3 32.4392C44.6 32.5392 46.1 31.6392 47.4 31.3392C48.4 31.1392 49.2 31.1392 50.2 31.3392C51.2 31.5392 51.8 32.1392 52.6 32.6392C52.8 32.7392 53 32.5392 52.8 32.4392Z" fill="#6B5DFF"/>
<path fill-rule="evenodd" clip-rule="evenodd" d="M57.1 9.7392C57 9.6392 56.9 9.5392 56.9 9.3392C56.8 9.6392 56.9 9.7392 57.1 9.7392C57.1 9.8392 57 9.9392 57.1 9.7392Z" fill="#6B5DFF"/>
<path fill-rule="evenodd" clip-rule="evenodd" d="M55.2 8.03917C51.5 5.63917 46.7 2.93918 42.1 3.73918C42 3.73918 42 3.83919 42.1 3.83919C46.9 3.73919 50.8 6.83917 55.2 8.03917C55.3 8.03917 55.2 8.13917 55.2 8.03917Z" fill="#6B5DFF"/>
<path fill-rule="evenodd" clip-rule="evenodd" d="M41.2 3.7392C40.9 3.7392 40.4 3.7392 40.1 3.8392C40.5 3.8392 40.9 3.8392 41.2 3.7392C41.3 3.8392 41.3 3.7392 41.2 3.7392Z" fill="#6B5DFF"/>
<path fill-rule="evenodd" clip-rule="evenodd" d="M53.9 9.63919C53.2 9.23919 52.5 8.83919 51.7 8.63919C51.6 8.63919 51.6 8.7392 51.6 8.7392C52.3 9.1392 53 9.4392 53.7 9.8392C53.9 9.9392 54 9.73919 53.9 9.63919Z" fill="#6B5DFF"/>
<path fill-rule="evenodd" clip-rule="evenodd" d="M50.9 8.2392C48 7.2392 44.4 4.9392 41.2 5.7392C41.1 5.7392 41.1 5.93918 41.2 5.93918C42.8 6.33918 44.4 6.3392 45.9 6.8392C47.6 7.3392 49.2 7.8392 50.9 8.3392C51 8.4392 51.1 8.3392 50.9 8.2392Z" fill="#6B5DFF"/>
<path fill-rule="evenodd" clip-rule="evenodd" d="M53.7 11.8392C51.4 11.8392 49.1 10.9392 46.9 10.0392C45 9.33919 42.6 8.23918 40.6 8.93918C40.4 9.03918 40.4 9.23921 40.6 9.33921C41.9 9.43921 43.1 9.43919 44.4 9.63919C45.5 9.83919 46.6 10.2392 47.6 10.7392C49.6 11.5392 51.5 12.2392 53.7 12.0392C53.9 12.0392 53.9 11.8392 53.7 11.8392Z" fill="#6B5DFF"/>
<path fill-rule="evenodd" clip-rule="evenodd" d="M51.6 15.5392C49.5 15.8392 47.3 15.6392 45.2 15.5392C43.6 15.5392 41.6 15.5392 40.3 16.4392C40.2 16.5392 40.2 16.7392 40.4 16.7392C42.4 16.5392 44.2 16.1392 46.2 16.1392C48.1 16.1392 49.8 16.1392 51.6 15.5392C51.7 15.5392 51.6 15.4392 51.6 15.5392Z" fill="#6B5DFF"/>
<path fill-rule="evenodd" clip-rule="evenodd" d="M48.9 17.1392C46.3 17.5392 43.6 17.4392 41 17.9392C40.8 17.9392 40.9 18.2392 41 18.3392C43.6 18.6392 46.3 17.9392 48.9 17.4392C49.2 17.3392 49.1 17.1392 48.9 17.1392Z" fill="#6B5DFF"/>
<path fill-rule="evenodd" clip-rule="evenodd" d="M57.4 30.4392C57.5 27.9392 56.2 26.1392 54.9 24.1392C54.2 23.0392 53.4 21.8392 52.9 20.5392C52.3 19.0392 52.8 17.9392 52.9 16.4392C52.9 16.2392 52.7 16.2392 52.6 16.3392C51.2 18.1392 52.4 21.0392 53.5 22.7392C55 25.2392 57.2 27.3392 57.4 30.4392C57.4 30.5392 57.3 30.5392 57.4 30.4392Z" fill="#6B5DFF"/>
<path fill-rule="evenodd" clip-rule="evenodd" d="M58.1 43.9392C56.5 44.8392 56.5 47.8392 56.4 49.4392C56.1 52.6392 55.8 56.0392 56.4 59.2392C56.4 59.3392 56.5 59.2392 56.5 59.2392C56.5 54.0392 56.3 49.0392 58.3 44.0392C58.3 43.9392 58.2 43.9392 58.1 43.9392Z" fill="#6B5DFF"/>
<path fill-rule="evenodd" clip-rule="evenodd" d="M56.4 61.3392C56.5 61.7392 56.6 62.1392 56.6 62.5392H56.7C56.7 62.1392 56.6 61.7392 56.4 61.3392Z" fill="#6B5DFF"/>
<path fill-rule="evenodd" clip-rule="evenodd" d="M56.8 63.8392C56.8 66.9392 57.1 70.0392 58 73.0392C58.6 75.0392 60.2 78.7392 62.8 78.5392C63 78.5392 63.1 78.2392 62.9 78.1392C61.6 77.7392 60.7 77.3392 59.9 76.1392C59 74.9392 58.6 73.4392 58.2 71.9392C57.4 69.4392 56.9 66.6392 56.8 63.8392Z" fill="#6B5DFF"/>
<path fill-rule="evenodd" clip-rule="evenodd" d="M54.9 47.6392C53.6 52.9392 53 58.7392 53.2 64.2392C53.3 67.0392 53.8 69.7392 54.6 72.3392C55 73.6392 55.6 74.8392 56.3 75.9392C56.8 76.8392 57.2 77.6392 58 78.2392C58.2 78.3392 58.4 78.0392 58.2 77.9392C57.1 77.1392 56.8 76.0392 56.3 74.8392C55.7 73.5392 55.2 72.2392 54.8 70.8392C54.1 68.2392 53.8 65.5392 53.8 62.8392C53.7 57.7392 54.8 52.8392 55 47.7392C55.1 47.6392 54.9 47.6392 54.9 47.6392Z" fill="#6B5DFF"/>
<path fill-rule="evenodd" clip-rule="evenodd" d="M52.4 54.3392C51.4 56.8392 51.1 59.2392 51.1 61.9392C51.1 64.4392 51.3 67.2392 52.1 69.6392C52.1 69.7392 52.2 69.6392 52.2 69.6392C51.7 64.6392 51.1 59.4392 52.5 54.4392C52.6 54.3392 52.4 54.2392 52.4 54.3392Z" fill="#6B5DFF"/>
<path fill-rule="evenodd" clip-rule="evenodd" d="M52.3 70.5392C52.3 72.2392 52.5 75.0392 53.9 76.3392C53.9 76.3392 54 76.3392 54 76.2392C53.7 75.4392 53.3 74.6392 53 73.8392C52.7 72.7392 52.6 71.6392 52.4 70.5392C52.5 70.4392 52.3 70.4392 52.3 70.5392Z" fill="#6B5DFF"/>
<path fill-rule="evenodd" clip-rule="evenodd" d="M64.9 54.4392C64.7 51.0392 63.7 47.7392 63.4 44.3392C63.1 41.1392 63 37.9392 62.6 34.7392C62.2 31.4392 61.3 28.3392 60.2 25.2392C59.3 22.6392 58.6 19.3392 56.7 17.2392C56.5 17.0392 56.2 17.3392 56.3 17.5392C57.8 20.1392 58.7 23.0392 59.8 25.8392C60.9 28.9392 61.6 32.1392 62.1 35.3392C62.6 38.6392 62.6 42.0392 63 45.3392C63.3 48.3392 63.6 51.6392 64.9 54.3392C64.7 54.6392 64.9 54.5392 64.9 54.4392Z" fill="#6B5DFF"/>
<path fill-rule="evenodd" clip-rule="evenodd" d="M65.4 44.4392C65.4 41.8392 65.7 39.3392 65.4 36.7392C65.1 34.2392 64.8 31.6392 64.3 29.2392C63.9 27.1392 63.3 25.1392 62.5 23.1392C62.1 22.2392 61.6 21.2392 61.2 20.3392C60.7 19.3392 60.2 18.2392 59.4 17.5392C59.3 17.4392 59.1 17.5392 59.1 17.7392C59.4 18.6392 60 19.4392 60.5 20.3392C61.1 21.3392 61.5 22.4392 62 23.4392C62.8 25.3392 63.3 27.3392 63.8 29.4392C64.3 32.0392 64.7 34.7392 65 37.3392C65.3 39.6392 64.7 42.2392 65.4 44.4392C65.4 44.5392 65.3 44.5392 65.4 44.4392Z" fill="#6B5DFF"/>
<path fill-rule="evenodd" clip-rule="evenodd" d="M58.5 13.8392C60.8 16.1392 62.5 18.6392 64.1 21.4392C65.1 23.2392 65.7 25.0392 65.9 27.1392C66 28.6392 65.9 29.9392 66.7 31.3392C66.9 31.7392 67.4 31.3392 67.2 31.0392C66.4 29.3392 66.6 27.5392 66.3 25.7392C66 24.0392 65.2 22.4392 64.4 20.9392C62.9 18.4392 61.2 14.9392 58.5 13.8392C58.5 13.7392 58.4 13.7392 58.5 13.8392Z" fill="#6B5DFF"/>
<path fill-rule="evenodd" clip-rule="evenodd" d="M54.6 17.3392C54.2 20.0392 55.7 22.4392 56.8 24.8392C58.3 27.9392 58.3 31.5392 59.7 34.7392C59.8 35.0392 60.4 34.9392 60.2 34.6392C59 31.8392 59 28.7392 57.8 25.9392C56.6 22.9392 55.1 20.4392 54.6 17.3392Z" fill="#6B5DFF"/>
<path fill-rule="evenodd" clip-rule="evenodd" d="M61.9 26.3392C61.6 22.5392 59.5 18.4392 56.9 15.6392C57.9 17.1392 58.8 18.7392 59.6 20.3392C60.5 22.2392 61 24.2392 61.6 26.3392C61.7 26.5392 61.9 26.5392 61.9 26.3392Z" fill="#6B5DFF"/>
<path fill-rule="evenodd" clip-rule="evenodd" d="M56.6 15.3392C56.4 15.1392 56.2 14.9392 56 14.6392C55.9 14.4392 55.7 14.2392 55.5 14.1392C55.3 13.9392 55 14.3392 55.2 14.5392C55.4 14.6392 55.6 14.8392 55.8 14.8392C56.1 14.9392 56.3 15.2392 56.5 15.4392L56.6 15.3392Z" fill="#6B5DFF"/>
<path fill-rule="evenodd" clip-rule="evenodd" d="M64.5 23.7392C64.2 23.2392 63.9 22.6392 63.3 22.4392C63.2 22.4392 63.2 22.4392 63.2 22.5392C63.4 23.1392 63.8 23.7392 64.5 23.7392Z" fill="#6B5DFF"/>
<path fill-rule="evenodd" clip-rule="evenodd" d="M62.8 21.1392C62.4 19.6392 61.6 18.4392 60.5 17.3392C59.9 16.7392 59.2 16.1392 58.6 15.5392C57.9 14.8392 57.4 13.9392 56.6 13.3392C56.5 13.2392 56.3 13.3392 56.4 13.5392C57 14.7392 58.4 15.7392 59.4 16.7392C60.6 18.0392 61.8 19.5392 62.8 21.1392Z" fill="#6B5DFF"/>
<path fill-rule="evenodd" clip-rule="evenodd" d="M56 18.8392C55.8 18.0392 55.6 17.3392 55.3 16.6392C55 16.0392 54.7 15.2392 54 14.9392C53.9 14.8392 53.8 14.9392 53.8 15.1392C53.9 15.7392 54.5 16.4392 54.8 17.0392C55.1 17.7392 55.5 18.3392 55.8 19.0392C55.8 19.0392 56 18.9392 56 18.8392Z" fill="#6B5DFF"/>
<path fill-rule="evenodd" clip-rule="evenodd" d="M49.6 9.33921C51.1 9.73921 52.4 10.7392 53.7 11.5392C54.6 12.0392 55.9 13.0392 57 12.5392C57.2 12.4392 57.2 12.2392 57 12.2392C56.4 12.0392 55.8 12.0392 55.3 11.8392C54.5 11.6392 53.7 11.0392 52.9 10.5392C51.9 9.9392 50.9 9.43921 49.6 9.33921Z" fill="#6B5DFF"/>
<path fill-rule="evenodd" clip-rule="evenodd" d="M50.7 12.8392C51.8 13.0392 52.8 13.4392 53.8 13.9392C54.4 14.2392 55.3 14.3392 55.8 13.9392C55.9 13.8392 55.9 13.7392 55.8 13.6392C55 13.4392 54.2 13.6392 53.4 13.5392C52.5 13.3392 51.7 12.9392 50.7 12.8392Z" fill="#6B5DFF"/>
<path fill-rule="evenodd" clip-rule="evenodd" d="M62.8 32.1392C64.3 34.2392 63.6 37.5392 63.5 39.8392C63.5 41.3392 63.6 42.9392 63.8 44.4392C64 45.7392 64 47.4392 64.7 48.6392C64.8 48.7392 65 48.7392 65 48.5392C65.1 47.8392 64.9 47.1392 64.8 46.4392C64.6 45.4392 64.5 44.4392 64.4 43.3392C64.2 41.8392 64.1 40.2392 64.1 38.7392C64.1 36.5392 64.4 33.9392 62.8 32.1392C62.8 32.0392 62.7 32.0392 62.8 32.1392Z" fill="#6B5DFF"/>
<path fill-rule="evenodd" clip-rule="evenodd" d="M19.1 41.4392C19.4 43.7392 19.6 46.0392 20 48.2392C20.4 50.3392 20.4 52.5392 20.3 54.6392C20.2 59.1392 19.6 63.7392 18.5 68.1392C18.3 68.7392 18.1 69.5392 17.8 70.4392C17.7 70.3392 17.5 70.2392 17.4 70.1392C17.9 68.7392 18.2 67.3392 18.4 66.2392C19.2 62.0392 19.7 57.8392 19.8 53.5392C19.9 51.6392 19.9 49.6392 19.7 47.7392C19.5 45.6392 18.8 43.5392 18.9 41.4392C18.9 41.4392 19.1 41.3392 19.1 41.4392ZM14.3 76.4392C13 77.6392 11.5 78.3392 9.7 77.5392C9.4 77.4392 9.5 77.0392 9.8 77.0392C10.9 77.2392 11.9 77.1392 12.7 76.7392C13.3 76.7392 13.9 76.6392 14.3 76.4392Z" fill="#6B5DFF"/>
<path fill-rule="evenodd" clip-rule="evenodd" d="M18.1 37.8392C19.1 42.0392 17.8 46.3392 17.2 50.4392C16.7 54.4392 16.8 58.5392 16 62.5392C15.6 64.6392 14.9 66.5392 13.9 68.4392C13.7 68.3392 13.5 68.2392 13.3 68.0392C14.5 65.6392 15.3 63.0392 15.7 60.4392C16.3 56.9392 16.2 53.3392 16.6 49.8392C17.2 45.8392 18 41.9392 17.7 37.8392C17.8 37.7392 18.1 37.7392 18.1 37.8392Z" fill="#6B5DFF"/>
<path fill-rule="evenodd" clip-rule="evenodd" d="M15.2 55.6392C14.2 59.2392 13.2 62.7392 10.3 65.3392C10.2 65.1392 10.1 64.9392 10 64.7392C12.7 62.5392 13.9 58.8392 15 55.6392C15.1 55.5392 15.3 55.5392 15.2 55.6392Z" fill="#6B5DFF"/>
<path fill-rule="evenodd" clip-rule="evenodd" d="M14.3 62.9392C13.6 64.4392 12.9 65.8392 12 67.1392C11.9 67.0392 11.8 66.9392 11.6 66.8392C12.5 65.5392 13.3 64.1392 14.1 62.8392C14.2 62.7392 14.3 62.8392 14.3 62.9392Z" fill="#6B5DFF"/>
<path fill-rule="evenodd" clip-rule="evenodd" d="M15.3 69.1392C17.4 65.6392 18.1 61.2392 18.2 57.4392C18.2 55.0392 18.2 52.5392 18.2 50.0392C18.2 48.7392 18.2 47.4392 18.2 46.2392C18.2 44.6392 18.1 42.8392 18.5 41.3392C18.6 41.1392 18.9 41.0392 19 41.3392C19.4 42.8392 19 44.6392 19 46.2392C19 47.5392 19 48.8392 19 50.0392C19 52.7392 18.9 55.4392 18.6 58.2392C18.1 62.1392 17.7 66.1392 15.7 69.3392C15.5 69.2392 15.4 69.1392 15.3 69.1392Z" fill="#6B5DFF"/>
<path fill-rule="evenodd" clip-rule="evenodd" d="M59.6 41.4392C59.3 43.7392 59.1 46.0392 58.7 48.2392C58.3 50.3392 58.3 52.5392 58.4 54.6392C58.5 59.1392 59.1 63.7392 60.2 68.1392C60.4 68.8392 60.7 69.7392 61 70.7392C61.1 70.6392 61.3 70.5392 61.4 70.4392C60.9 68.9392 60.5 67.3392 60.2 66.2392C59.4 62.0392 58.9 57.8392 58.8 53.5392C58.7 51.6392 58.7 49.6392 58.9 47.7392C59.1 45.6392 59.8 43.5392 59.7 41.4392C59.7 41.4392 59.6 41.3392 59.6 41.4392ZM65.7 77.4392C66.6 77.9392 67.6 78.0392 68.7 77.6392C67.6 77.7392 66.6 77.6392 65.7 77.4392Z" fill="#6B5DFF"/>
<path fill-rule="evenodd" clip-rule="evenodd" d="M60.6 37.8392C59.6 42.0392 60.9 46.3392 61.5 50.4392C62 54.4392 61.9 58.5392 62.7 62.5392C63.2 64.7392 63.9 66.8392 65 68.7392C65.2 68.6392 65.4 68.5392 65.6 68.3392C64.2 65.8392 63.5 63.1392 63 60.3392C62.4 56.8392 62.5 53.2392 62.1 49.7392C61.5 45.7392 60.7 41.8392 61 37.7392C60.9 37.7392 60.6 37.7392 60.6 37.8392Z" fill="#6B5DFF"/>
<path fill-rule="evenodd" clip-rule="evenodd" d="M63.4 55.6392C64.4 59.2392 65.4 62.8392 68.3 65.3392C68.4 65.1392 68.4 64.9392 68.5 64.7392C65.8 62.5392 64.6 58.8392 63.5 55.6392C63.6 55.5392 63.4 55.5392 63.4 55.6392Z" fill="#6B5DFF"/>
<path fill-rule="evenodd" clip-rule="evenodd" d="M64.4 62.9392C65.1 64.5392 65.9 66.0392 66.9 67.4392C67 67.3392 67.1 67.2392 67.2 67.1392C66.2 65.8392 65.3 64.3392 64.6 62.9392C64.5 62.7392 64.3 62.8392 64.4 62.9392Z" fill="#6B5DFF"/>
<path fill-rule="evenodd" clip-rule="evenodd" d="M63.6 69.5392C61.4 66.0392 60.5 61.4392 60.5 57.4392C60.5 55.0392 60.5 52.5392 60.5 50.0392C60.5 48.7392 60.5 47.4392 60.5 46.2392C60.5 44.6392 60.6 42.8392 60.2 41.3392C60.1 41.1392 59.8 41.0392 59.7 41.3392C59.3 42.8392 59.7 44.6392 59.7 46.2392C59.7 47.5392 59.7 48.8392 59.7 50.0392C59.7 52.7392 59.8 55.4392 60.1 58.2392C60.6 62.2392 61 66.4392 63.3 69.7392C63.4 69.6392 63.5 69.5392 63.6 69.5392Z" fill="#6B5DFF"/>
<path fill-rule="evenodd" clip-rule="evenodd" d="M55.8 68.0392C55 64.4392 55.1 60.6392 55.2 57.0392C55.2 55.3392 55.3 53.5392 55.5 51.8392C55.7 49.9392 56.5 48.2392 56.7 46.4392C56.8 45.9392 55.9 45.9392 55.9 46.4392C55.7 48.2392 55.1 50.0392 54.9 51.8392C54.7 53.7392 54.7 55.6392 54.7 57.5392C54.6 61.1392 54.7 64.6392 55.7 68.1392C55.6 68.1392 55.8 68.1392 55.8 68.0392Z" fill="#6B5DFF"/>
<path fill-rule="evenodd" clip-rule="evenodd" d="M65.6 32.9392C65.6 34.1392 65.9 35.4392 66.1 36.6392C66.4 38.2392 66.2 39.6392 66.1 41.1392C66.1 41.2392 66.3 41.3392 66.3 41.2392C67.4 38.8392 66.4 35.2392 65.7 32.9392H65.6Z" fill="#6B5DFF"/>
<path fill-rule="evenodd" clip-rule="evenodd" d="M56.7 30.8392C56.7 31.3392 56.7 31.8392 56.8 32.3392C56.9 32.7392 57 33.3392 57.4 33.6392C57.5 33.7392 57.6 33.6392 57.6 33.5392C57.5 33.1392 57.3 32.7392 57.1 32.3392C57 31.8392 56.9 31.3392 56.8 30.9392C56.8 30.7392 56.7 30.7392 56.7 30.8392Z" fill="#6B5DFF"/>
<path fill-rule="evenodd" clip-rule="evenodd" d="M57.8 31.4392C57.7 31.9392 57.8 32.3392 57.8 32.8392C57.9 33.2392 58 33.9392 58.4 34.2392C58.5 34.3392 58.6 34.2392 58.6 34.1392C58.7 33.7392 58.5 33.4392 58.4 33.1392C58.2 32.6392 58 32.1392 58 31.5392C58 31.2392 57.8 31.2392 57.8 31.4392Z" fill="#6B5DFF"/>
<path fill-rule="evenodd" clip-rule="evenodd" d="M44.5 14.4392C47.8 14.4392 52.3 16.6392 55.3 14.6392C55.5 14.5392 55.4 14.3392 55.2 14.3392C53.1 14.7392 51.4 14.9392 49.2 14.6392C47.6 14.4392 46 14.1392 44.4 14.1392C44.3 14.1392 44.3 14.4392 44.5 14.4392Z" fill="#6B5DFF"/>
<path fill-rule="evenodd" clip-rule="evenodd" d="M54.6 8.93917C55.5 9.33917 56 10.4392 56.8 11.0392C57.4 11.5392 58.7 12.3392 59.5 12.4392C59.8 12.4392 59.5 11.5392 59.3 11.4392C58.6 10.9392 57.7 10.9392 56.9 10.4392C56.1 9.83917 55.7 9.13919 54.7 8.83919C54.6 8.73919 54.5 8.93917 54.6 8.93917Z" fill="#6B5DFF"/>
<path fill-rule="evenodd" clip-rule="evenodd" d="M37.4 3.7392C37.7 3.7392 38.2 3.7392 38.5 3.8392C38.1 3.8392 37.8 3.8392 37.4 3.7392Z" fill="#6B5DFF"/>
<path fill-rule="evenodd" clip-rule="evenodd" d="M41.8 43.5392C42.2 44.8392 43.3 46.3392 41.1 46.8392C40.6 46.9392 39.7 47.1392 39.3 47.5392C38.9 47.1392 38 46.9392 37.5 46.8392C36.7 46.6392 36.3 46.0392 36.2 45.5392C36.2 45.2392 36.4 44.7392 36.6 44.2392C36.8 43.8392 37.2 43.4392 37 43.4392C35.7 43.8392 34.9 45.5392 35.8 46.5392C36.2 46.9392 36.9 47.2392 37.4 47.5392C38 47.7392 38.6 48.2392 39.2 48.3392C39.2 48.3392 39.2 48.3392 39.3 48.3392C39.3 48.3392 39.3 48.3392 39.4 48.3392C40.1 48.3392 40.7 47.8392 41.2 47.5392C41.7 47.3392 42.5 46.9392 42.8 46.5392C43.7 45.6392 42.8 43.7392 41.9 43.4392C41.8 43.4392 41.8 43.4392 41.8 43.5392Z" fill="#6B5DFF"/>
<path fill-rule="evenodd" clip-rule="evenodd" d="M39.2 51.0392C39.4 50.9392 39.6 50.8392 39.8 50.6392C40.2 50.2392 40.8 50.5392 41.3 50.6392C42.1 50.9392 43 51.5392 43.9 51.2392C44 51.2392 44.1 51.0392 43.9 50.9392C43.4 50.7392 42.8 50.6392 42.3 50.5392C41.7 50.4392 41.1 50.1392 40.5 50.0392C39.9 49.9392 39.5 50.3392 39.2 51.0392Z" fill="#6B5DFF"/>
<path fill-rule="evenodd" clip-rule="evenodd" d="M43.5 51.1392C42.9 50.8392 42.2 51.1392 41.6 51.2392C40.8 51.4392 39.7 51.4392 39.2 52.0392C39.1 52.1392 39.2 52.2392 39.3 52.2392C40 52.3392 40.7 51.8392 41.4 51.6392C42.1 51.4392 42.9 51.6392 43.6 51.3392C43.6 51.2392 43.6 51.1392 43.5 51.1392Z" fill="#6B5DFF"/>
<path fill-rule="evenodd" clip-rule="evenodd" d="M42.3 52.6392C42.2 52.6392 42.2 52.7392 42.3 52.6392C42.3 52.7392 42.3 52.7392 42.3 52.6392Z" fill="#6B5DFF"/>
<path fill-rule="evenodd" clip-rule="evenodd" d="M39.2 51.0392C39 50.9392 38.8 50.8392 38.6 50.6392C38.2 50.2392 37.6 50.5392 37.1 50.6392C36.3 50.9392 35.4 51.5392 34.5 51.2392C34.4 51.2392 34.3 51.0392 34.5 50.9392C35 50.7392 35.6 50.6392 36.1 50.5392C36.7 50.4392 37.3 50.1392 37.9 50.0392C38.5 49.9392 39 50.3392 39.2 51.0392Z" fill="#6B5DFF"/>
<path fill-rule="evenodd" clip-rule="evenodd" d="M34.9 51.1392C35.5 50.8392 36.2 51.1392 36.8 51.2392C37.6 51.4392 38.7 51.4392 39.2 52.0392C39.3 52.1392 39.2 52.2392 39.1 52.2392C38.4 52.3392 37.7 51.8392 37 51.6392C36.3 51.4392 35.5 51.6392 34.8 51.3392C34.9 51.2392 34.9 51.1392 34.9 51.1392Z" fill="#6B5DFF"/>
<path fill-rule="evenodd" clip-rule="evenodd" d="M36.1 52.6392C36.2 52.6392 36.2 52.6392 36.1 52.6392C36.2 52.6392 36.2 52.7392 36.1 52.6392C36.2 52.7392 36.2 52.7392 36.1 52.6392Z" fill="#6B5DFF"/>
<path fill-rule="evenodd" clip-rule="evenodd" d="M36.3 52.7392C36.9 53.1392 37.5 53.5392 38.2 53.8392C38.9 54.1392 39.6 54.1392 40.2 53.8392C40.9 53.5392 41.5 53.1392 42.1 52.7392C42.1 52.7392 42.2 52.7392 42.2 52.8392C41.7 53.7392 40.6 54.7392 39.5 54.7392C39.2 54.7392 39.1 54.7392 38.8 54.7392C37.8 54.7392 36.7 53.7392 36.3 52.7392C36.2 52.7392 36.2 52.7392 36.3 52.7392Z" fill="#6B5DFF"/>
<path fill-rule="evenodd" clip-rule="evenodd" d="M51.6 33.1392C51.4 33.9392 50.8 34.3392 50.2 34.7392C50.2 34.8392 50.2 34.8392 50.3 34.9392C50.7 34.9392 51.1 34.7392 51.3 34.4392C51.7 33.9392 51.6 33.6392 51.6 33.1392Z" fill="#6B5DFF"/>
<path fill-rule="evenodd" clip-rule="evenodd" d="M50.8 33.0392C50.6 33.8392 50 34.2392 49.4 34.6392C49.4 34.7392 49.4 34.7392 49.5 34.8392C49.9 34.8392 50.3 34.6392 50.5 34.3392C50.9 33.7392 50.8 33.5392 50.8 33.0392C50.9 33.0392 50.8 32.9392 50.8 33.0392Z" fill="#6B5DFF"/>
<path fill-rule="evenodd" clip-rule="evenodd" d="M49.6 32.8392C49.4 33.5392 48.8 34.0392 48.2 34.4392C48.2 34.5392 48.2 34.5392 48.3 34.6392C48.7 34.6392 49.1 34.4392 49.3 34.1392C49.8 33.5392 49.7 33.3392 49.6 32.8392C49.7 32.8392 49.6 32.7392 49.6 32.8392Z" fill="#6B5DFF"/>
<path fill-rule="evenodd" clip-rule="evenodd" d="M53.9 20.2392C54.1 20.0392 54.3 20.0392 54.5 20.2392C54.7 20.4392 54.7 20.6392 54.5 20.8392C54 21.3392 53.9 23.2392 54 25.5392C54.2 28.5392 54.7 31.9392 55.1 34.1392C55.4 33.2392 56.1 32.5392 57.3 32.8392C58.4 33.1392 59.7 33.7392 60.4 35.1392C61.1 36.4392 61.2 38.5392 60.2 41.5392V41.6392C58.6 44.8392 56.3 46.3392 55.6 46.6392C55.3 47.7392 53.7 53.5392 50.4 56.3392C50.2 56.4392 50 56.4392 49.8 56.3392C49.7 56.1392 49.7 55.9392 49.8 55.7392C53.1 52.9392 54.6 46.6392 54.7 46.3392C54.7 46.2392 54.8 46.1392 54.9 46.0392C54.9 46.0392 57.5 44.8392 59.3 41.3392C60.3 38.5392 60.2 36.7392 59.6 35.5392C59 34.4392 58 33.9392 57.1 33.6392C55.5 33.2392 55.5 36.2392 55.5 36.2392C55.5 36.3392 55.4 36.5392 55.3 36.6392C55.1 36.7392 54.9 36.6392 54.7 36.4392C54.6 36.3392 53.4 30.2392 53.1 25.6392C53.1 23.1392 53.2 21.0392 53.9 20.2392Z" fill="#6B5DFF"/>
<path fill-rule="evenodd" clip-rule="evenodd" d="M51.6 13.7392C49.7 13.4392 47.8 13.2392 45.9 13.0392C44 12.8392 41.6 12.6392 39.8 13.2392C39.6 13.3392 39.6 13.6392 39.8 13.6392C41.6 13.7392 43.5 13.5392 45.4 13.5392C47.5 13.6392 49.5 13.8392 51.6 13.8392C51.7 13.8392 51.7 13.7392 51.6 13.7392Z" fill="#6B5DFF"/>
<path fill-rule="evenodd" clip-rule="evenodd" d="M40.4 42.4392C40.3 41.7392 40.2 41.0392 40.2 40.2392C40.2 39.8392 40.3 36.9392 40.5 36.6392C40.7 36.7392 40.7 39.7392 40.7 40.1392C40.8 40.8392 40.9 41.5392 41 42.3392C41 42.5392 41.3 44.1392 40.8 44.0392C40.3 44.2392 40.4 42.7392 40.4 42.4392Z" fill="#6B5DFF"/>
<path fill-rule="evenodd" clip-rule="evenodd" d="M41.2 44.1392C41.2 44.3392 41 44.5392 40.8 44.5392C40.6 44.5392 40.4 44.3392 40.4 44.1392C40.4 43.1392 40.3 42.4392 40.2 41.6392C40.2 41.2392 40.1 40.8392 40.1 40.3392C40 39.6392 40.1 38.7392 40.1 37.9392C40.1 37.5392 40.1 37.1392 40.1 36.7392C40.1 36.5392 40.3 36.3392 40.5 36.3392C40.7 36.3392 40.9 36.5392 40.9 36.7392C40.9 37.0392 40.9 37.5392 40.9 37.9392C40.9 38.7392 40.9 39.6392 40.9 40.2392C40.9 40.6392 41 41.1392 41 41.5392C41.1 42.3392 41.2 43.1392 41.2 44.1392Z" fill="#6B5DFF"/>
<path fill-rule="evenodd" clip-rule="evenodd" d="M10.4 2.93918L10.9 5.7392L13.7 6.2392L10.9 6.7392L10.4 9.53918L9.89999 6.7392L7 6.2392L9.89999 5.7392L10.4 2.93918Z" fill="#6B5DFF"/>
<path fill-rule="evenodd" clip-rule="evenodd" d="M12.1 4.53918L10.9 6.2392L12.1 7.93918L10.4 6.7392L8.60001 7.93918L9.79999 6.2392L8.60001 4.53918L10.4 5.7392L12.1 4.53918Z" fill="#6B5DFF"/>
<path fill-rule="evenodd" clip-rule="evenodd" d="M3.39999 55.2392L3.89999 58.0392L6.69998 58.5392L3.89999 59.0392L3.39999 61.9392L2.89999 59.0392L0 58.5392L2.89999 58.0392L3.39999 55.2392Z" fill="#6B5DFF"/>
<path fill-rule="evenodd" clip-rule="evenodd" d="M5.10001 56.8392L3.89999 58.5392L5.10001 60.3392L3.39999 59.0392L1.60001 60.3392L2.79999 58.5392L1.60001 56.8392L3.39999 58.0392L5.10001 56.8392Z" fill="#6B5DFF"/>
<path fill-rule="evenodd" clip-rule="evenodd" d="M75 11.5392L75.5 14.4392L78.4 14.9392L75.5 15.4392L75 18.2392L74.5 15.4392L71.7 14.9392L74.5 14.4392L75 11.5392Z" fill="#6B5DFF"/>
<path fill-rule="evenodd" clip-rule="evenodd" d="M76.8 13.1392L75.5 14.9392L76.8 16.6392L75 15.4392L73.3 16.6392L74.5 14.9392L73.3 13.1392L75 14.3392L76.8 13.1392Z" fill="#6B5DFF"/>
</svg>
