<svg width="20" height="15" viewBox="0 0 20 15" fill="none" xmlns="http://www.w3.org/2000/svg">
<path fill-rule="evenodd" clip-rule="evenodd" d="M1.29802 0.058766C1.20635 0.0893124 1.10269 0.126068 1.06765 0.140404C1.02016 0.159865 2.09059 1.32938 5.27656 4.73903C7.62653 7.25396 9.59956 9.34758 9.66107 9.39151C9.73919 9.44722 9.84121 9.47135 9.99889 9.47135C10.1564 9.47135 10.2589 9.44718 10.3373 9.39151C10.5095 9.26915 18.9918 0.175492 18.9555 0.15203C18.938 0.140737 18.8282 0.101356 18.7115 0.0645585C18.5195 0.00400747 17.692 -0.00207689 9.98201 0.000465166C3.0017 0.00275719 1.43461 0.0132589 1.29802 0.058766ZM0.0846781 1.30783L0 1.583V7.49884V13.4147L0.0846781 13.6898L0.169317 13.965L3.19953 10.7319L6.2297 7.49884L3.19953 4.26575L0.169317 1.03271L0.0846781 1.30783ZM16.7941 4.27017L13.7681 7.49892L16.7988 10.7324L19.8294 13.966L19.9147 13.6808L20 13.3956L19.9891 7.41549C19.9784 1.51633 19.9772 1.43273 19.8992 1.23841L19.82 1.04142L16.7941 4.27017ZM4.02764 11.5987C2.36595 13.3717 1.02164 14.8323 1.04024 14.8443C1.05887 14.8564 1.16956 14.8963 1.28626 14.9331C1.47816 14.9936 2.30927 15 9.99889 15C17.6885 15 18.5196 14.9936 18.7115 14.9331C18.8282 14.8963 18.9389 14.8564 18.9575 14.8443C18.9761 14.8323 17.6318 13.3717 15.9701 11.5987L12.9489 8.37497L12.0109 9.36913C11.495 9.91596 10.9939 10.4117 10.8972 10.4708C10.3885 10.7819 9.60924 10.7819 9.10055 10.4708C9.00388 10.4117 8.50273 9.91596 7.98685 9.36913L7.04886 8.37497L4.02764 11.5987Z" fill="#495AB4"/>
</svg>
