<svg width="148" height="36" viewBox="0 0 148 36" fill="none" xmlns="http://www.w3.org/2000/svg">
<path d="M27.7283 17.3419C27.8249 16.9772 28.3499 16.9772 28.4466 17.3419L28.8784 18.9718C28.9124 19.0999 29.0138 19.1999 29.1437 19.2334L30.7963 19.6594C31.1661 19.7547 31.1661 20.2725 30.7963 20.3678L29.1437 20.7937C29.0138 20.8272 28.9124 20.9272 28.8784 21.0553L28.4466 22.6852C28.3499 23.05 27.8249 23.05 27.7283 22.6852L27.2964 21.0553C27.2625 20.9272 27.161 20.8272 27.0312 20.7937L25.3785 20.3678C25.0088 20.2725 25.0088 19.7547 25.3785 19.6594L27.0312 19.2334C27.161 19.1999 27.2625 19.0999 27.2964 18.9718L27.7283 17.3419Z" fill="#958BFF"/>
<path d="M32.913 15.4983C32.913 15.8353 32.636 16.1085 32.2944 16.1085C31.9527 16.1085 31.6757 15.8353 31.6757 15.4983C31.6757 15.1613 31.9527 14.8881 32.2944 14.8881C32.636 14.8881 32.913 15.1613 32.913 15.4983Z" fill="#5249B4"/>
<path d="M21.6533 6.34576C21.6533 6.68275 21.3763 6.95593 21.0346 6.95593C20.693 6.95593 20.416 6.68275 20.416 6.34576C20.416 6.00878 20.693 5.73559 21.0346 5.73559C21.3763 5.73559 21.6533 6.00878 21.6533 6.34576Z" fill="#958BFF"/>
<path d="M31.057 11.9593C31.057 12.4311 30.6693 12.8136 30.1909 12.8136C29.7126 12.8136 29.3248 12.4311 29.3248 11.9593C29.3248 11.4875 29.7126 11.1051 30.1909 11.1051C30.6693 11.1051 31.057 11.4875 31.057 11.9593Z" fill="#958BFF"/>
<path d="M22.3957 24.0407C22.3957 24.5125 22.0079 24.8949 21.5296 24.8949C21.0512 24.8949 20.6634 24.5125 20.6634 24.0407C20.6634 23.5689 21.0512 23.1864 21.5296 23.1864C22.0079 23.1864 22.3957 23.5689 22.3957 24.0407Z" fill="#5249B4"/>
<path d="M13.4869 15.9864C13.4869 16.4582 13.0991 16.8407 12.6208 16.8407C12.1424 16.8407 11.7547 16.4582 11.7547 15.9864C11.7547 15.5147 12.1424 15.1322 12.6208 15.1322C13.0991 15.1322 13.4869 15.5147 13.4869 15.9864Z" fill="#958BFF"/>
<path d="M16.0853 9.27458C16.0853 9.74636 15.6975 10.1288 15.2192 10.1288C14.7408 10.1288 14.3531 9.74636 14.3531 9.27458C14.3531 8.80279 14.7408 8.42034 15.2192 8.42034C15.6975 8.42034 16.0853 8.80279 16.0853 9.27458Z" fill="#958BFF"/>
<path d="M27.9637 8.66441C27.9637 9.27098 27.4651 9.76271 26.8501 9.76271C26.2351 9.76271 25.7365 9.27098 25.7365 8.66441C25.7365 8.05783 26.2351 7.5661 26.8501 7.5661C27.4651 7.5661 27.9637 8.05783 27.9637 8.66441Z" fill="#958BFF"/>
<path d="M16.5802 21.478C16.5802 22.0845 16.0817 22.5763 15.4667 22.5763C14.8516 22.5763 14.3531 22.0845 14.3531 21.478C14.3531 20.8714 14.8516 20.3797 15.4667 20.3797C16.0817 20.3797 16.5802 20.8714 16.5802 21.478Z" fill="#958BFF"/>
<path d="M18.2506 36C28.3302 36 36.5013 27.9411 36.5013 18C36.5013 17.8691 36.4999 17.7385 36.4971 17.6082C35.2346 24.1891 29.3735 29.1661 22.3338 29.1661C14.3727 29.1661 7.91893 22.801 7.91893 14.9492C7.91893 7.09735 14.3727 0.732203 22.3338 0.732203C22.7616 0.732203 23.1851 0.750583 23.6034 0.786584C21.9107 0.275186 20.1132 0 18.2506 0C8.17109 0 0 8.05887 0 18C0 27.9411 8.17109 36 18.2506 36Z" fill="#5249B4"/>
<path d="M20.5547 10.861C20.7101 10.2744 21.5545 10.2744 21.7099 10.861L22.4045 13.4824C22.4591 13.6884 22.6223 13.8493 22.8312 13.9032L25.4891 14.5882C26.0838 14.7415 26.0838 15.5743 25.4891 15.7276L22.8312 16.4126C22.6223 16.4664 22.4591 16.6274 22.4045 16.8334L21.7099 19.4548C21.5545 20.0414 20.7101 20.0414 20.5547 19.4548L19.8601 16.8334C19.8056 16.6274 19.6424 16.4664 19.4335 16.4126L16.7756 15.7276C16.1808 15.5743 16.1808 14.7415 16.7756 14.5882L19.4335 13.9032C19.6424 13.8493 19.8056 13.6884 19.8601 13.4824L20.5547 10.861Z" fill="#495AB4"/>
<path d="M42.841 23.6842V23.3811L44.0513 22.7558L48.9886 11.0842H50.0452L54.9248 22.6989L56.212 23.3811V23.6842H51.1402V23.3811L52.8308 22.7179L51.4092 19.3074H46.7793L45.3769 22.7368L46.9906 23.3811V23.6842H42.841ZM47.2211 18.2653H50.9865L49.1038 13.6989L47.2211 18.2653Z" fill="black"/>
<path d="M61.8958 23.8737C61.0889 23.8737 60.3973 23.7979 59.821 23.6463C59.2575 23.4947 58.6747 23.2737 58.0728 22.9832L57.8807 19.8568H58.188L59.2062 21.9221C59.6545 22.2884 60.0964 22.5537 60.5318 22.7179C60.9673 22.8821 61.4027 22.9642 61.8382 22.9642C62.581 22.9642 63.1638 22.7747 63.5864 22.3958C64.0219 22.0168 64.2396 21.4989 64.2396 20.8421C64.2396 20.3242 64.1179 19.9137 63.8746 19.6105C63.644 19.2947 63.2918 19.0168 62.8179 18.7768C62.3569 18.5242 61.7869 18.2337 61.1082 17.9053C60.1988 17.4758 59.5008 17.0274 59.0141 16.56C58.5274 16.08 58.2841 15.4105 58.2841 14.5516C58.2841 14.0968 58.393 13.6611 58.6107 13.2442C58.8412 12.8147 59.1486 12.4358 59.5328 12.1074C59.9171 11.7663 60.3461 11.4947 60.82 11.2926C61.2939 11.0905 61.7869 10.9895 62.2992 10.9895C62.9012 10.9895 63.4647 11.0589 63.9898 11.1979C64.5149 11.3368 65.0336 11.5389 65.5459 11.8042L65.7381 14.8358H65.4307L64.4317 12.8084C64.0219 12.4926 63.6504 12.2653 63.3174 12.1263C62.9844 11.9874 62.6066 11.9179 62.184 11.9179C61.6333 11.9179 61.1722 12.1011 60.8008 12.4674C60.4422 12.8337 60.2629 13.2947 60.2629 13.8505C60.2629 14.4695 60.455 14.9558 60.8392 15.3095C61.2362 15.6632 61.8702 16.0421 62.7411 16.4463C63.5096 16.8126 64.1435 17.1663 64.643 17.5074C65.1553 17.8358 65.5331 18.2084 65.7765 18.6253C66.0198 19.0421 66.1415 19.5726 66.1415 20.2168C66.1415 20.8105 66.0134 21.3347 65.7573 21.7895C65.5011 22.2442 65.1617 22.6295 64.7391 22.9453C64.3164 23.2484 63.8554 23.4821 63.3559 23.6463C62.8692 23.7979 62.3825 23.8737 61.8958 23.8737Z" fill="black"/>
<path d="M70.7717 23.6842V23.3811L72.712 22.6232V12.2211H69.6767L68.3127 15.0821H68.0053V11.1789H79.4167V15.0821H79.1094L77.7646 12.2211H74.71V22.6232L76.6695 23.3811V23.6842H70.7717Z" fill="black"/>
<path d="M81.3895 23.6842V23.3811L82.9456 22.6232V12.24L81.3895 11.4821V11.1789H86.7302C88.075 11.1789 89.1316 11.4568 89.9 12.0126C90.6813 12.5558 91.0719 13.3074 91.0719 14.2674C91.0719 14.9747 90.8286 15.6 90.3419 16.1432C89.8552 16.6863 89.2149 17.1032 88.4208 17.3937L92.0517 22.68L93.3389 23.3811V23.6842H90.2458L86.5573 17.9242H84.9628V22.6042L86.4036 23.3811V23.6842H81.3895ZM86.0962 12.2211H84.9628V16.92H86.2115C87.0056 16.92 87.6587 16.6989 88.171 16.2568C88.6961 15.8021 88.9587 15.2274 88.9587 14.5326C88.9587 13.8126 88.7026 13.2505 88.1903 12.8463C87.6908 12.4295 86.9928 12.2211 86.0962 12.2211Z" fill="black"/>
<path d="M100.923 23.8737C100.001 23.8737 99.1428 23.7158 98.3488 23.4C97.5675 23.0716 96.8823 22.6232 96.2932 22.0547C95.7168 21.4737 95.2686 20.7916 94.9484 20.0084C94.6282 19.2253 94.4681 18.3663 94.4681 17.4316C94.4681 16.4968 94.6282 15.6379 94.9484 14.8547C95.2686 14.0716 95.7168 13.3958 96.2932 12.8274C96.8823 12.2463 97.5675 11.7979 98.3488 11.4821C99.1428 11.1537 100.001 10.9895 100.923 10.9895C101.845 10.9895 102.697 11.1537 103.478 11.4821C104.272 11.7979 104.957 12.2463 105.534 12.8274C106.123 13.3958 106.578 14.0716 106.898 14.8547C107.231 15.6379 107.397 16.4968 107.397 17.4316C107.397 18.3663 107.231 19.2253 106.898 20.0084C106.578 20.7916 106.123 21.4737 105.534 22.0547C104.957 22.6232 104.272 23.0716 103.478 23.4C102.697 23.7158 101.845 23.8737 100.923 23.8737ZM101.307 22.9263C102.089 22.9263 102.774 22.7242 103.363 22.32C103.952 21.9158 104.413 21.3474 104.746 20.6147C105.079 19.8821 105.246 19.0168 105.246 18.0189C105.246 16.7937 105.041 15.7263 104.631 14.8168C104.221 13.8947 103.664 13.1811 102.959 12.6758C102.255 12.1705 101.474 11.9179 100.616 11.9179C99.8344 11.9179 99.1428 12.12 98.5409 12.5242C97.9389 12.9158 97.4651 13.4779 97.1193 14.2105C96.7863 14.9432 96.6198 15.8084 96.6198 16.8063C96.6198 18.0316 96.8247 19.1053 97.2345 20.0274C97.6572 20.9495 98.2207 21.6632 98.9251 22.1684C99.6423 22.6737 100.436 22.9263 101.307 22.9263Z" fill="black"/>
<path d="M110.032 23.6842V23.1726L116.583 12.2211H111.799L110.57 14.7221H110.262V11.1789H119.061V11.6905L112.491 22.6421H117.697L118.965 19.9516H119.272V23.6842H110.032Z" fill="black"/>
<path d="M122.138 23.6842V23.3811L123.694 22.6232V12.24L122.138 11.4821V11.1789H131.782V14.4379H131.475L130.226 12.2211H125.712V16.7116H128.901L129.88 15.12H130.188V19.3074H129.88L128.901 17.7537H125.712V22.6421H130.745L132.013 20.1411H132.32V23.6842H122.138Z" fill="black"/>
<path d="M134.725 23.6842V23.3811L136.281 22.6232V12.2779L134.744 11.4821V11.1789H137.76L145.118 20.1032V12.2211L143.14 11.4821V11.1789H148V11.4821L146.463 12.2211V23.7789H145.637L137.626 14.0779V22.6421L139.605 23.3811V23.6842H134.725Z" fill="black"/>
</svg>
