<svg width="20" height="18" viewBox="0 0 20 18" fill="none" xmlns="http://www.w3.org/2000/svg">
<path d="M14.7571 18C14.5301 18 14.3041 17.9314 14.1101 17.7947L9.54316 14.5662L4.97712 17.7947C4.78712 17.9289 4.56015 18.0007 4.32715 17.9999C4.09415 17.9991 3.86714 17.9257 3.67914 17.7903C3.49014 17.6556 3.35011 17.4657 3.27711 17.2478C3.20411 17.0298 3.20312 16.7948 3.27412 16.5761L4.97712 11.1573L0.451117 8.0135C0.264117 7.8771 0.125107 7.6859 0.053107 7.4672C-0.017893 7.2484 -0.0178554 7.013 0.0541446 6.7944C0.126145 6.5763 0.266108 6.3862 0.454108 6.2508C0.642108 6.1155 0.869118 6.0418 1.10212 6.0402L6.7071 6.0319L8.49116 0.747498C8.56516 0.529898 8.70615 0.340498 8.89515 0.206398C9.08415 0.072198 9.31114 0 9.54414 0C9.77614 0 10.0031 0.072198 10.1921 0.206398C10.3811 0.340498 10.5221 0.529898 10.5961 0.747498L12.3501 6.0319L17.9841 6.0402C18.2171 6.0415 18.4441 6.1151 18.6321 6.2507C18.8201 6.3862 18.9601 6.5768 19.0321 6.7953C19.1041 7.0137 19.1051 7.249 19.0331 7.4677C18.9621 7.6865 18.8221 7.8774 18.6351 8.0135L14.1091 11.1573L15.8121 16.5761C15.8831 16.7947 15.8821 17.0297 15.8091 17.2477C15.7372 17.4657 15.5961 17.6556 15.4081 17.7903C15.2191 17.9268 14.9911 18.0003 14.7571 18Z" fill="#D5D5D5"/>
</svg>
