<svg width="23" height="20" viewBox="0 0 23 20" fill="none" xmlns="http://www.w3.org/2000/svg">
<path d="M0.34738 9.30307C2.70035 7.94229 5.32689 6.80651 7.78101 5.66495C12.003 3.79517 16.2418 1.95779 20.5234 0.247217C21.3564 -0.0442307 22.8532 -0.329215 23 0.966916C22.9196 2.80165 22.589 4.62564 22.3623 6.44963C21.7867 10.4608 21.1214 14.4581 20.4727 18.4561C20.2492 19.7878 18.6604 20.4771 17.6437 19.6249C15.2005 17.8922 12.7385 16.1763 10.3265 14.4034C9.53641 13.5604 10.2691 12.3499 10.9747 11.7479C12.987 9.66577 15.1211 7.89673 17.0282 5.70695C17.5427 4.40265 16.0227 5.50187 15.5213 5.83871C12.7664 7.83194 10.079 9.94687 7.17452 11.6987C5.69091 12.5561 3.96174 11.8234 2.47881 11.3449C1.1492 10.7669 -0.799215 10.1845 0.347246 9.30324L0.34738 9.30307Z" fill="#495AB4"/>
</svg>
