<svg width="38" height="46" viewBox="0 0 38 46" fill="none" xmlns="http://www.w3.org/2000/svg">
<path fill-rule="evenodd" clip-rule="evenodd" d="M18.5194 0.218867C18.3069 0.439083 18.3066 0.442048 18.3066 2.33611C18.3066 3.37933 18.3441 4.30556 18.39 4.39442C18.5312 4.66801 18.9551 4.80125 19.2633 4.6689C19.4082 4.60673 19.5642 4.48319 19.61 4.39442C19.6559 4.30556 19.6934 3.37933 19.6934 2.33611C19.6934 0.442048 19.6931 0.439083 19.4806 0.218867C19.1992 -0.0729558 18.8008 -0.0729558 18.5194 0.218867ZM9.85148 2.64474C9.7323 2.76828 9.63868 2.97025 9.63868 3.10404C9.63868 3.31104 10.8088 5.55803 11.3114 6.31625C11.5368 6.65632 11.8538 6.77519 12.1716 6.63871C12.457 6.51625 12.5858 6.30906 12.5858 5.97286C12.5858 5.70691 11.0275 2.82902 10.7496 2.5814C10.4955 2.35525 10.1041 2.38283 9.85148 2.64474ZM27.2485 2.5814C26.9673 2.82911 25.4142 5.69729 25.4142 5.96908C25.4142 6.30906 25.5421 6.5158 25.8284 6.63871C26.1727 6.78651 26.4863 6.64392 26.741 6.22371C27.4455 5.06154 28.3613 3.2946 28.3613 3.09757C28.3613 2.56433 27.6452 2.23207 27.2485 2.5814ZM3.52393 9.20358C3.28287 9.45335 3.24612 9.83511 3.43595 10.116C3.6406 10.4189 6.44301 12.0378 6.76259 12.0378C7.33311 12.0378 7.63467 11.2709 7.2265 10.8581C6.95719 10.5857 4.15044 8.983 3.94276 8.983C3.82938 8.983 3.64094 9.08228 3.52393 9.20358ZM32.298 9.90699C30.5935 10.9211 30.4186 11.0973 30.619 11.5987C30.7423 11.9073 30.9384 12.0378 31.2785 12.0378C31.5657 12.0378 34.3759 10.3946 34.5635 10.1169C34.8532 9.68821 34.5383 8.983 34.0571 8.983C33.9438 8.983 33.1521 9.39881 32.298 9.90699ZM12.4124 10.0237C9.64137 10.7815 7.97627 13.702 8.68279 16.5653C9.03185 17.9799 9.23589 18.259 12.0994 21.2388C13.5286 22.7258 14.6735 23.8749 14.6439 23.7922C14.6142 23.7096 13.9104 22.436 13.0798 20.962C12.2493 19.4881 11.491 18.1205 11.3947 17.9228C10.9418 16.9929 11.1008 16.0556 11.8375 15.3119C12.3518 14.7929 12.8604 14.5959 13.517 14.6617C14.3459 14.7446 14.8815 15.1685 15.4641 16.2026L15.8186 16.8318L15.9574 16.4637C16.5543 14.8815 18.2067 13.9939 19.7785 14.4113C20.784 14.6783 21.4999 15.2953 21.9507 16.2833L22.1922 16.8126L22.5462 16.1843C23.1288 15.1503 23.6435 14.7457 24.483 14.6617C25.0918 14.6007 25.6198 14.7898 26.106 15.2429C26.6104 15.7129 26.8447 16.2711 26.8349 16.9794C26.8266 17.5856 26.8509 17.5352 24.835 21.1124L23.24 23.9425L25.9242 21.1573C28.4106 18.5773 28.6311 18.3231 28.9153 17.7073C30.0772 15.1894 29.3782 12.3361 27.2282 10.8202C26.327 10.1849 25.6742 9.96269 24.5474 9.90789C22.7175 9.81885 21.7699 10.2518 20.1052 11.9376L19 13.0568L17.8945 11.9316C16.9308 10.9507 16.6946 10.7597 16.0526 10.4419C15.6475 10.2414 15.1094 10.0333 14.8568 9.97941C14.2236 9.84437 12.986 9.86683 12.4124 10.0237ZM1.1693 14.2019C0.968549 14.3048 0.668467 14.545 0.50239 14.7355C-0.0807848 15.4046 -0.0705566 15.2029 0.106355 22.5589C0.331893 31.9386 0.313171 31.5428 0.572774 32.3882C0.919836 33.5179 1.32159 34.0567 2.99224 35.6326C4.89822 37.4305 5.36447 38.067 5.66463 39.2811L5.7709 39.7107H10.3187H14.8665L14.806 37.0378C14.7728 35.5676 14.7046 34.0881 14.6545 33.7499C14.4619 32.4487 13.9204 31.2221 13.0904 30.2065C12.4544 29.4283 6.55717 23.935 6.12247 23.7159C5.40616 23.3548 4.21389 23.5807 3.68489 24.1778C3.14037 24.7923 2.97499 25.9183 3.32067 26.6583C3.45666 26.9496 4.06636 27.5787 5.70355 29.1169C6.91359 30.2538 7.9429 31.2603 7.99101 31.3535C8.20805 31.7738 7.9481 32.4083 7.47579 32.6111C7.23872 32.7128 7.15993 32.7092 6.92373 32.5858C6.77222 32.5067 5.65371 31.4994 4.43813 30.3474C1.61881 27.6754 1.44381 27.4003 1.45144 25.6496C1.45447 24.9407 1.49547 24.6469 1.64586 24.257C2.03609 23.2448 2.89871 22.3616 3.85287 21.9974L4.35128 21.8071L4.34694 21.3474C4.3446 21.0946 4.31062 19.7328 4.27145 18.3213C4.20626 15.9727 4.18416 15.7172 4.0115 15.3125C3.77218 14.7518 3.54499 14.5007 3.03228 14.2302C2.49271 13.9454 1.69266 13.9333 1.1693 14.2019ZM34.9382 14.2391C34.7179 14.3582 34.4336 14.5835 34.3066 14.74C33.8399 15.315 33.811 15.4906 33.7315 18.2373C33.6908 19.6456 33.6554 21.0249 33.653 21.3025L33.6487 21.8071L34.1471 21.9974C35.1005 22.3613 35.9619 23.2428 36.3553 24.257C36.5106 24.6575 36.547 24.93 36.547 25.6946C36.547 26.7616 36.3715 27.3729 35.8692 28.0559C35.5054 28.5506 31.4339 32.3984 31.0763 32.5856C30.84 32.7092 30.7614 32.7129 30.5242 32.6111C30.1941 32.4693 29.9223 32.0432 29.9219 31.6666C29.9214 31.3462 30.058 31.2019 32.7045 28.726C34.6987 26.8603 34.8637 26.63 34.8603 25.718C34.8582 25.1598 34.6408 24.5453 34.3151 24.1778C33.7688 23.5611 32.5488 23.3457 31.839 23.7404C31.2987 24.0408 25.2291 29.7548 24.7101 30.4516C24.1924 31.1466 23.6687 32.2456 23.4662 33.062C23.3099 33.6919 23.1722 36.1256 23.1649 38.3855L23.1606 39.7107L27.6895 39.7099L32.2185 39.709L32.4097 39.0561C32.6087 38.3764 33.0694 37.5628 33.5721 37.0033C33.7334 36.8238 34.4269 36.1567 35.1132 35.5209C36.5848 34.1573 37.1008 33.46 37.4262 32.3952C37.687 31.5416 37.668 31.9409 37.8936 22.5589C38.0706 15.2 38.081 15.4049 37.4955 14.7331C36.8524 13.9952 35.7754 13.7872 34.9382 14.2391ZM18.645 15.8101C18.1852 15.8962 17.7787 16.1754 17.4869 16.6057C17.2753 16.9178 17.2227 17.0967 17.1973 17.5897C17.159 18.3355 17.3831 18.8337 17.9469 19.2572C18.292 19.5163 18.3798 19.54 18.9932 19.54C19.5643 19.54 19.7099 19.507 19.9828 19.3154C20.159 19.1919 20.4097 18.9325 20.5399 18.739C20.748 18.4303 20.7769 18.3033 20.7769 17.6992C20.7769 17.1004 20.7462 16.9631 20.5405 16.6408C20.1378 16.0102 19.3712 15.6742 18.645 15.8101ZM13.1058 16.1425C13.0343 16.1706 12.8881 16.2764 12.7808 16.3776C12.3792 16.7563 12.4527 16.9371 14.425 20.4226L16.2642 23.673L16.2961 24.6343L16.328 25.5955L17.0948 26.3957C17.9755 27.3146 18.3254 27.5213 19 27.5213C19.6718 27.5213 20.0532 27.3021 20.9069 26.4253L21.6437 25.6685L21.6896 24.6708L21.7357 23.673L23.5749 20.425C25.554 16.9303 25.6215 16.7633 25.215 16.3675C24.9 16.0607 24.5325 16.0252 24.2549 16.2748C24.1261 16.3905 23.4816 17.4354 22.8224 18.5966C21.8815 20.2546 21.5611 20.7467 21.3305 20.8877C21.0594 21.0537 20.8813 21.0674 19 21.0674C17.101 21.0674 16.9425 21.0549 16.6597 20.8828C16.4156 20.7342 16.1262 20.29 15.1784 18.6086C14.5305 17.4594 13.9259 16.4433 13.8349 16.3506C13.6505 16.163 13.3046 16.0643 13.1058 16.1425ZM5.99852 18.7988C5.99869 19.2064 6.02426 20.0563 6.05529 20.6874C6.11146 21.8283 6.11302 21.835 6.33665 21.8907C6.71223 21.9841 7.3306 22.3372 7.73704 22.6902C8.11799 23.021 8.12206 23.0221 8.1472 22.8085C8.16124 22.6898 8.13958 22.0474 8.0991 21.3808C8.01285 19.962 7.81826 19.3969 7.20206 18.7771C6.84841 18.4213 6.28534 18.0576 6.08832 18.0576C6.03319 18.0576 5.99835 18.3453 5.99852 18.7988ZM31.2568 18.4035C30.7172 18.7681 30.5033 19.0213 30.1801 19.6776C30.0189 20.0049 29.9679 20.3106 29.9044 21.3308C29.8615 22.0192 29.8381 22.6818 29.8523 22.8033C29.8782 23.0239 29.8788 23.0238 30.2682 22.684C30.6365 22.3627 31.5867 21.8314 31.7934 21.8312C31.8547 21.8311 31.9084 21.3973 31.945 20.604C32.0348 18.6637 32.0205 18.0576 31.8852 18.0576C31.8211 18.0576 31.5383 18.2132 31.2568 18.4035ZM3.93825 41.5999C3.60636 41.7396 3.55687 42.0663 3.5866 43.9191C3.6139 45.6205 3.61875 45.6604 3.81916 45.8284C4.01644 45.9938 4.25359 46 10.4284 46C16.7175 46 16.8361 45.9968 17.0064 45.8203C17.1686 45.6521 17.1797 45.5208 17.1797 43.771C17.1797 42.2983 17.1537 41.8643 17.0567 41.727C16.9371 41.5573 16.7587 41.5521 10.5342 41.5349C6.79657 41.5246 4.05293 41.5516 3.93825 41.5999ZM20.9953 41.6856C20.8308 41.8561 20.8203 41.981 20.8203 43.7538C20.8203 45.5208 20.8313 45.652 20.9936 45.8203C21.1638 45.9968 21.2825 46 27.5716 46C33.5447 46 33.9884 45.9894 34.1568 45.8428C34.3278 45.6939 34.3387 45.5846 34.3614 43.7803C34.3832 42.0515 34.3712 41.8601 34.2308 41.7138C34.0851 41.562 33.697 41.5511 27.6231 41.5284C21.2501 41.5046 21.168 41.5066 20.9953 41.6856Z" fill="#495AB4"/>
</svg>
