<svg width="38" height="38" viewBox="0 0 38 38" fill="none" xmlns="http://www.w3.org/2000/svg">
<path fill-rule="evenodd" clip-rule="evenodd" d="M1.89766 0.103553C1.50346 0.278715 1.19254 0.731613 1.19254 1.13055C1.19254 1.21709 1.26223 1.43174 1.34737 1.60765C1.49604 1.91477 1.56113 1.95715 2.99281 2.67843C4.34857 3.36142 4.51253 3.42614 4.80445 3.39326C5.43757 3.32186 5.85841 2.78012 5.77335 2.14597C5.70106 1.6069 5.51609 1.45653 3.99586 0.701033C2.53686 -0.0239591 2.32206 -0.0851173 1.89766 0.103553ZM12.7342 0.1086C9.54654 0.810287 7.95669 4.22877 9.45421 7.1611C9.64556 7.53591 10.3758 8.30307 14.0655 12.0061C18.8021 16.7598 18.6698 16.6464 19.2844 16.4808C19.515 16.4187 20.3145 15.6516 23.9478 12.0061C28.1458 7.7942 28.3444 7.58267 28.6004 7.04977C29.0217 6.17262 29.1211 5.67467 29.0818 4.63758C29.0548 3.92446 29.0107 3.64717 28.861 3.24652C28.5921 2.52732 28.2369 1.96435 27.7259 1.44725C27.1787 0.893563 26.5776 0.520231 25.7967 0.249026C25.2774 0.0685948 25.0928 0.04284 24.313 0.0418751C22.6316 0.0396485 21.9899 0.359764 20.2484 2.0693L19.0044 3.29061L17.762 2.06418C16.6439 0.960436 16.4565 0.806724 15.8887 0.528247C14.8871 0.0369023 13.7482 -0.114657 12.7342 0.1086ZM34.0177 0.712167C32.4863 1.47397 32.3097 1.61633 32.2387 2.14597C32.1536 2.78012 32.5745 3.32186 33.2076 3.39326C33.4995 3.42614 33.6635 3.36142 35.0192 2.67843C36.4509 1.95715 36.516 1.91477 36.6647 1.60765C36.8588 1.20678 36.8591 1.01811 36.6666 0.620429C36.4978 0.271738 36.055 -0.00228647 35.6642 1.43834e-05C35.54 0.000756595 34.8325 0.306771 34.0177 0.712167ZM2.93982 9.10859C2.05649 9.56334 1.48008 9.90587 1.39153 10.0287C1.05293 10.4982 1.20093 11.2208 1.70453 11.5572C2.17332 11.8704 2.50057 11.8053 3.87532 11.1253C4.54296 10.7951 5.19783 10.4427 5.33054 10.3421C5.92766 9.88984 5.95445 9.13835 5.39214 8.61309C5.2431 8.47385 5.10052 8.42664 4.77275 8.40816C4.36104 8.385 4.30062 8.40809 2.93982 9.10859ZM32.8857 8.43815C32.8245 8.46056 32.6961 8.54978 32.6003 8.63639C32.0577 9.12751 32.0944 9.89748 32.6815 10.3421C32.8142 10.4427 33.4691 10.7951 34.1367 11.1253C35.1401 11.6216 35.4117 11.7257 35.703 11.7257C36.5989 11.7257 37.1145 10.7456 36.5993 10.022C36.3498 9.6717 33.7534 8.38345 33.3132 8.39161C33.1393 8.3948 32.9469 8.41581 32.8857 8.43815ZM6.38814 15.5622C5.53814 15.7043 4.63084 16.2124 4.03691 16.8787C2.55282 18.5438 2.67358 21.0722 4.30938 22.5867C6.12324 24.266 9.03953 23.9447 10.4247 21.9131C10.9145 21.1948 11.0826 20.6756 11.1223 19.7592C11.1512 19.0914 11.1316 18.9216 10.9635 18.3824C10.5321 16.9989 9.41257 15.955 8.0039 15.6229C7.56799 15.5201 6.81017 15.4917 6.38814 15.5622ZM29.9647 15.6285C28.8519 15.8979 27.766 16.7624 27.2868 17.7603C26.9603 18.4403 26.8777 18.8089 26.8754 19.5961C26.8715 20.9837 27.4432 22.1136 28.5485 22.9022C29.2232 23.3836 29.8657 23.6091 30.6961 23.6559C31.8997 23.7236 32.9506 23.3275 33.7791 22.4936C34.5994 21.6681 34.9978 20.7033 34.9921 19.556C34.979 16.9547 32.4969 15.0156 29.9647 15.6285ZM18.1371 19.1855C16.5776 19.5244 15.2955 20.8347 14.9935 22.3981C14.6442 24.2056 15.5914 26.069 17.2618 26.861C17.9237 27.1748 18.4011 27.2623 19.2189 27.2197C20.7013 27.1427 21.9245 26.3724 22.5973 25.092C23.0927 24.1492 23.205 23.1905 22.9409 22.158C22.7463 21.3969 22.4256 20.8486 21.8318 20.2611C20.8473 19.2874 19.4887 18.8918 18.1371 19.1855ZM2.2779 24.4924C1.59126 24.7787 0.998446 25.2515 0.61887 25.8154C0.0204855 26.7046 0.0471315 26.4243 0.0221926 32.0849L0 37.1174L0.164626 37.4102C0.270394 37.5985 0.438806 37.7562 0.635867 37.8516C0.932091 37.995 1.09412 38 5.41099 38H9.87943L9.82236 37.7959C9.79096 37.6837 9.76528 35.9385 9.76528 33.9178V30.2439L9.97889 29.5922C10.4454 28.169 11.4788 26.95 12.7963 26.2687C13.068 26.1282 13.2904 25.9758 13.2906 25.9299C13.2913 25.7159 12.9638 25.1443 12.7447 24.9771C12.6106 24.8749 12.2446 24.6728 11.9314 24.5281L11.3619 24.265L10.9912 24.558C9.23607 25.9454 6.75012 26.2945 4.6966 25.4422C4.14037 25.2113 3.16427 24.6137 2.98339 24.3932C2.85803 24.2404 2.89432 24.2354 2.2779 24.4924ZM26.0618 24.5334C25.7582 24.6758 25.4003 24.8758 25.2666 24.9777C25.0481 25.1444 24.7207 25.7162 24.7215 25.9299C24.7216 25.9758 24.9453 26.1289 25.2185 26.2702C26.53 26.9484 27.4994 28.0754 28.0154 29.5217L28.2465 30.1697L28.2467 33.8807C28.2467 35.9218 28.2211 37.6837 28.1897 37.7959L28.1326 38H32.6011C36.9613 38 37.0772 37.9963 37.3854 37.8471C37.6163 37.7353 37.7431 37.6078 37.8567 37.3732C38.0104 37.0556 38.0118 36.9979 37.9899 32.0523C37.9649 26.4369 37.9907 26.7101 37.4013 25.8274C37.0175 25.2527 36.4258 24.7815 35.7162 24.4857L35.1695 24.2577L34.974 24.4413C34.6538 24.7419 33.8829 25.2067 33.3103 25.4444C31.2636 26.2938 28.7739 25.9437 27.0234 24.56C26.821 24.4 26.646 24.2703 26.6346 24.2718C26.6232 24.2732 26.3654 24.391 26.0618 24.5334ZM14.241 28.0607C13.261 28.4628 12.7139 28.9738 12.2612 29.9099L11.992 30.4665L11.97 33.8461L11.9479 37.2256L12.1184 37.4754C12.2122 37.6128 12.4052 37.787 12.5474 37.8625C12.7933 37.9932 13.1143 38 19.006 38C24.8978 38 25.2188 37.9932 25.4646 37.8625C25.6068 37.787 25.7983 37.615 25.8902 37.4805C26.057 37.236 26.0572 37.2331 26.0563 34.0367C26.0553 30.6075 26.0417 30.4562 25.6667 29.7243C25.2732 28.9561 24.6787 28.4347 23.7689 28.0596L23.2666 27.8524L22.862 28.177C21.0991 29.591 18.3713 29.8775 16.2829 28.8679C15.9486 28.7062 15.4643 28.4126 15.2066 28.2153L14.7382 27.8566L14.241 28.0607Z" fill="#495AB4"/>
</svg>
