<svg width="77" height="67" viewBox="0 0 77 67" fill="none" xmlns="http://www.w3.org/2000/svg">
<path opacity="0.15" d="M21.7146 17.937C21.3563 16.1153 23.4577 14.831 24.9155 15.9807L34.7542 23.7404C35.2126 24.1018 35.8059 24.245 36.3787 24.1324L48.6737 21.7146C50.4954 21.3563 51.7797 23.4577 50.6299 24.9155L42.8703 34.7542C42.5088 35.2126 42.3656 35.8059 42.4782 36.3787L44.8961 48.6736C45.2543 50.4954 43.1529 51.7797 41.6951 50.6299L31.8564 42.8703C31.3981 42.5088 30.8047 42.3656 30.232 42.4782L17.937 44.8961C16.1153 45.2543 14.831 43.1529 15.9807 41.6951L23.7404 31.8564C24.1018 31.3981 24.245 30.8047 24.1324 30.232L21.7146 17.937Z" fill="#958BFF"/>
<path opacity="0.15" d="M57.0296 34.5497C56.7545 33.6631 57.7308 32.9128 58.5168 33.4067L62.5873 35.9651C62.8344 36.1204 63.137 36.16 63.4157 36.0735L68.0075 34.6488C68.8941 34.3737 69.6445 35.35 69.1505 36.136L66.5922 40.2065C66.4368 40.4536 66.3972 40.7562 66.4837 41.0349L67.9085 45.6267C68.1836 46.5133 67.2072 47.2637 66.4212 46.7697L62.3508 44.2114C62.1036 44.0561 61.801 44.0165 61.5223 44.1029L56.9305 45.5277C56.0439 45.8028 55.2935 44.8264 55.7875 44.0405L58.3459 39.97C58.5012 39.7229 58.5408 39.4202 58.4543 39.1415L57.0296 34.5497Z" fill="#958BFF"/>
</svg>
