<svg width="55" height="48" viewBox="0 0 55 48" fill="none" xmlns="http://www.w3.org/2000/svg">
<path opacity="0.15" d="M15.5007 15.0235C15.0525 13.2218 17.0876 11.8349 18.6006 12.9109L24.3423 16.9942C24.818 17.3325 25.4178 17.4461 25.9842 17.3052L32.8215 15.6045C34.6232 15.1564 36.0102 17.1915 34.9341 18.7045L30.8508 24.4462C30.5125 24.9219 30.3989 25.5216 30.5398 26.0881L32.2405 32.9254C32.6887 34.7271 30.6536 36.114 29.1405 35.038L23.3988 30.9546C22.9231 30.6163 22.3234 30.5027 21.757 30.6436L14.9197 32.3444C13.118 32.7925 11.731 30.7574 12.807 29.2444L16.8904 23.5027C17.2287 23.027 17.3423 22.4273 17.2014 21.8608L15.5007 15.0235Z" fill="#958BFF"/>
<path opacity="0.15" d="M40.9865 24.7598C40.6678 23.888 41.6057 23.0901 42.4152 23.5445L44.5859 24.7629C44.8404 24.9058 45.1446 24.9304 45.4187 24.8301L47.7567 23.9755C48.6285 23.6567 49.4264 24.5947 48.972 25.4042L47.7536 27.5748C47.6107 27.8293 47.5862 28.1335 47.6864 28.4077L48.541 30.7456C48.8598 31.6175 47.9218 32.4154 47.1123 31.961L44.9417 30.7425C44.6872 30.5996 44.383 30.5751 44.1088 30.6753L41.7709 31.53C40.899 31.8487 40.1012 30.9108 40.5555 30.1013L41.774 27.9306C41.9169 27.6761 41.9414 27.3719 41.8412 27.0978L40.9865 24.7598Z" fill="#958BFF"/>
</svg>
