<svg width="219" height="207" viewBox="0 0 219 207" fill="none" xmlns="http://www.w3.org/2000/svg">
<g opacity="0.1">
<g clip-path="url(#clip0_6022_595)">
<path d="M190.116 338.381C278.907 338.381 350.886 266.523 350.886 177.881C350.886 89.24 278.907 17.382 190.116 17.382C101.326 17.382 29.3468 89.24 29.3468 177.881C29.3468 266.523 101.326 338.381 190.116 338.381Z" stroke="#495AB4" stroke-width="2.09333"/>
<path d="M190.116 335.23C277.164 335.23 347.729 264.782 347.729 177.881C347.729 90.9801 277.164 20.5328 190.116 20.5328C103.069 20.5328 32.5031 90.9801 32.5031 177.881C32.5031 264.782 103.069 335.23 190.116 335.23Z" stroke="#495AB4" stroke-width="5" stroke-dasharray="2.91 5"/>
<path fill-rule="evenodd" clip-rule="evenodd" d="M107.086 212.083V207.111C107.086 206.914 107.243 206.755 107.441 206.755C107.638 206.755 107.797 206.911 107.797 207.111V214.213C107.797 214.409 107.639 214.568 107.441 214.568C107.245 214.568 107.086 214.413 107.086 214.213V212.793H101.749C101.553 212.793 101.393 212.635 101.393 212.437C101.393 212.242 101.555 212.083 101.749 212.083H103.528C104.314 212.083 104.951 211.446 104.951 210.662C104.951 209.877 104.314 209.241 103.528 209.241C102.742 209.241 102.105 209.877 102.105 210.662C102.105 210.858 101.946 211.017 101.749 211.017C101.553 211.017 101.393 210.858 101.393 210.662C101.393 209.485 102.349 208.531 103.528 208.531C104.707 208.531 105.662 209.485 105.662 210.662C105.662 211.208 105.457 211.705 105.119 212.083H107.086Z" fill="#495AB4"/>
<path d="M106.833 171.689C106.716 171.689 106.604 171.735 106.521 171.818C106.438 171.901 106.391 172.013 106.391 172.13C106.391 172.659 106.303 173.894 105.507 173.894C104.871 173.894 104.624 173.647 104.624 173.012C104.718 172.493 104.894 171.993 105.145 171.53C105.587 170.515 106.073 169.465 105.613 168.751C105.445 168.538 105.226 168.372 104.975 168.269C104.725 168.165 104.451 168.128 104.182 168.16C103.924 168.158 103.669 168.218 103.438 168.335C103.207 168.451 103.008 168.621 102.856 168.83V168.16H103.298C103.416 168.16 103.528 168.113 103.611 168.03C103.694 167.948 103.74 167.836 103.74 167.719C103.74 167.602 103.694 167.489 103.611 167.407C103.528 167.324 103.416 167.278 103.298 167.278H102.856V166.395C102.856 166.278 102.81 166.166 102.727 166.084C102.644 166.001 102.532 165.954 102.415 165.954C102.298 165.954 102.185 166.001 102.102 166.084C102.019 166.166 101.973 166.278 101.973 166.395V167.278H101.531C101.414 167.278 101.302 167.324 101.219 167.407C101.136 167.489 101.089 167.602 101.089 167.719C101.089 167.836 101.136 167.948 101.219 168.03C101.302 168.113 101.414 168.16 101.531 168.16H101.973V172.13C101.973 172.247 102.019 172.359 102.102 172.442C102.185 172.524 102.298 172.571 102.415 172.571C102.532 172.571 102.644 172.524 102.727 172.442C102.81 172.359 102.856 172.247 102.856 172.13C102.856 171.327 103.104 169.042 104.182 169.042C104.544 169.042 104.792 169.108 104.871 169.227C105.07 169.54 104.628 170.52 104.337 171.168C104.024 171.74 103.821 172.365 103.74 173.012C103.715 173.25 103.744 173.49 103.824 173.715C103.904 173.941 104.033 174.146 104.203 174.315C104.372 174.484 104.577 174.613 104.803 174.693C105.029 174.773 105.27 174.801 105.507 174.776C106.612 174.776 107.275 173.788 107.275 172.13C107.275 172.013 107.229 171.901 107.146 171.818C107.063 171.735 106.95 171.689 106.833 171.689Z" fill="#495AB4"/>
<path d="M112.478 151.599L118.159 216.39M108.518 171.707L167.048 256.605" stroke="#495AB4" stroke-width="2" stroke-linecap="round" stroke-linejoin="round"/>
<path d="M108.346 182.878L167.22 256.777" stroke="#495AB4" stroke-width="2" stroke-linecap="round" stroke-linejoin="round"/>
<path d="M98.3322 170.646H97.256L98.0513 169.921C98.085 169.894 98.1126 169.861 98.1329 169.823C98.1529 169.785 98.1649 169.743 98.1683 169.7C98.1718 169.658 98.1663 169.615 98.1525 169.574C98.1387 169.533 98.1167 169.496 98.0878 169.464C98.0589 169.432 98.0237 169.407 97.9845 169.389C97.9456 169.371 97.9032 169.361 97.8602 169.36C97.8172 169.36 97.7745 169.368 97.7345 169.384C97.6946 169.4 97.6588 169.424 97.6285 169.455L96.7543 170.249V169.385C96.7543 169.302 96.7209 169.222 96.6617 169.163C96.6025 169.104 96.5223 169.071 96.4386 169.071C96.3549 169.071 96.2747 169.104 96.2155 169.163C96.1563 169.222 96.1232 169.302 96.1232 169.385V170.249L95.2487 169.455C95.1861 169.405 95.1065 169.38 95.0263 169.386C94.9461 169.393 94.8714 169.429 94.8173 169.489C94.7633 169.549 94.734 169.626 94.7357 169.707C94.7374 169.787 94.7695 169.864 94.8259 169.921L95.6213 170.646H94.545C94.4613 170.646 94.3811 170.679 94.3219 170.738C94.2627 170.797 94.2296 170.877 94.2296 170.961C94.2296 171.045 94.2627 171.125 94.3219 171.184C94.3811 171.243 94.4613 171.276 94.545 171.276H95.6213L94.8259 172.001C94.7832 172.044 94.754 172.099 94.7419 172.159C94.7295 172.218 94.735 172.28 94.7574 172.337C94.7798 172.394 94.818 172.443 94.8679 172.478C94.9175 172.513 94.9764 172.533 95.0373 172.536C95.1155 172.536 95.1909 172.507 95.2487 172.454L96.1232 171.673V173.797H95.8075C95.7239 173.797 95.6436 173.83 95.5844 173.889C95.5252 173.948 95.4918 174.028 95.4918 174.112C95.4918 174.195 95.5252 174.275 95.5844 174.335C95.6436 174.393 95.7239 174.427 95.8075 174.427H96.1232V175.057C96.1232 175.14 96.1563 175.221 96.2155 175.28C96.2747 175.339 96.3549 175.372 96.4386 175.372C96.5223 175.372 96.6025 175.339 96.6617 175.28C96.7209 175.221 96.7543 175.14 96.7543 175.057V174.427H97.07C97.1537 174.427 97.2339 174.393 97.2932 174.335C97.3524 174.275 97.3854 174.195 97.3854 174.112C97.3854 174.028 97.3524 173.948 97.2932 173.889C97.2339 173.83 97.1537 173.797 97.07 173.797H96.7543V171.673L97.6285 172.467C97.6863 172.519 97.7617 172.549 97.8399 172.549C97.9036 172.549 97.9656 172.529 98.0182 172.493C98.0706 172.457 98.1108 172.406 98.1336 172.347C98.1566 172.288 98.1608 172.223 98.1463 172.161C98.1315 172.099 98.0985 172.043 98.0513 172.001L97.256 171.276H98.3322C98.4159 171.276 98.4961 171.243 98.5553 171.184C98.6146 171.125 98.6479 171.045 98.6479 170.961C98.6479 170.877 98.6146 170.797 98.5553 170.738C98.4961 170.679 98.4159 170.646 98.3322 170.646Z" fill="#495AB4"/>
<path d="M102.165 182.47C102.166 181.955 102.018 181.45 101.74 181.017C101.461 180.583 101.064 180.238 100.595 180.024C100.125 179.809 99.6046 179.734 99.0937 179.807C98.5827 179.88 98.1038 180.097 97.7134 180.435C97.3233 180.772 97.0382 181.214 96.8926 181.708C96.7469 182.202 96.7462 182.727 96.8915 183.222C97.0365 183.716 97.3209 184.158 97.7106 184.496C98.1004 184.834 98.5789 185.052 99.0899 185.126V185.54H98.7053C98.6034 185.54 98.5056 185.581 98.4333 185.653C98.3613 185.725 98.3207 185.822 98.3207 185.924C98.3207 186.026 98.3613 186.124 98.4333 186.196C98.5056 186.268 98.6034 186.308 98.7053 186.308H99.0899V187.076C99.0899 187.177 99.1301 187.275 99.2024 187.347C99.2744 187.419 99.3722 187.46 99.4741 187.46C99.576 187.46 99.6738 187.419 99.7461 187.347C99.818 187.275 99.8587 187.177 99.8587 187.076V186.308H100.243C100.345 186.308 100.443 186.268 100.515 186.196C100.587 186.124 100.627 186.026 100.627 185.924C100.627 185.822 100.587 185.725 100.515 185.653C100.443 185.581 100.345 185.54 100.243 185.54H99.8587V185.126C100.499 185.034 101.084 184.714 101.507 184.227C101.931 183.739 102.165 183.115 102.165 182.47ZM97.5519 182.47C97.5519 182.09 97.6645 181.719 97.8759 181.404C98.0869 181.088 98.3872 180.842 98.7387 180.697C99.0899 180.552 99.4762 180.513 99.849 180.588C100.222 180.662 100.564 180.844 100.833 181.113C101.102 181.381 101.285 181.723 101.359 182.096C101.434 182.468 101.396 182.853 101.25 183.204C101.105 183.555 100.858 183.855 100.542 184.065C100.226 184.276 99.8542 184.389 99.4741 184.389C98.9642 184.389 98.4753 184.187 98.1148 183.827C97.7543 183.467 97.5519 182.979 97.5519 182.47Z" fill="#495AB4"/>
<path d="M108.715 156.346C108.677 156.255 108.605 156.183 108.515 156.146C108.47 156.127 108.423 156.117 108.374 156.116H106.523C106.425 156.116 106.331 156.156 106.262 156.225C106.193 156.294 106.153 156.388 106.153 156.486C106.153 156.584 106.193 156.678 106.262 156.747C106.331 156.817 106.425 156.855 106.523 156.855H107.482L106.117 158.219C105.599 157.814 104.96 157.594 104.303 157.594C103.717 157.594 103.145 157.768 102.658 158.093C102.171 158.418 101.791 158.879 101.567 159.419C101.343 159.96 101.285 160.554 101.399 161.127C101.513 161.7 101.795 162.227 102.209 162.641C102.623 163.054 103.151 163.336 103.725 163.45C104.3 163.564 104.895 163.505 105.436 163.282C105.977 163.058 106.439 162.679 106.765 162.193C107.09 161.707 107.264 161.135 107.264 160.55C107.265 159.894 107.044 159.256 106.638 158.74L108.004 157.377V158.333C108.004 158.431 108.043 158.526 108.112 158.595C108.182 158.664 108.276 158.703 108.374 158.703C108.472 158.703 108.567 158.664 108.636 158.595C108.705 158.526 108.744 158.431 108.744 158.333V156.486C108.744 156.438 108.734 156.39 108.715 156.346ZM104.303 162.767C103.864 162.767 103.434 162.637 103.069 162.394C102.704 162.15 102.419 161.804 102.251 161.399C102.083 160.994 102.039 160.548 102.125 160.118C102.211 159.688 102.422 159.293 102.732 158.983C103.043 158.673 103.439 158.462 103.87 158.376C104.3 158.29 104.747 158.334 105.153 158.502C105.558 158.67 105.905 158.954 106.149 159.319C106.393 159.684 106.523 160.112 106.523 160.55C106.523 161.138 106.29 161.703 105.873 162.118C105.457 162.534 104.892 162.767 104.303 162.767Z" fill="#495AB4"/>
<path d="M144.497 68.1623L190.39 177.061M190.39 177.061H71.9126M190.39 177.061H308.664M190.39 177.061L235.219 287.711" stroke="#495AB4" stroke-width="2" stroke-linecap="round" stroke-linejoin="round"/>
<path d="M190.116 277.206C245.064 277.206 289.608 232.737 289.608 177.881C289.608 123.026 245.064 78.5566 190.116 78.5566C135.168 78.5566 90.6243 123.026 90.6243 177.881C90.6243 232.737 135.168 277.206 190.116 277.206Z" stroke="#495AB4" stroke-width="2"/>
<path d="M190.116 296.579C255.781 296.579 309.013 243.436 309.013 177.881C309.013 112.327 255.781 59.1841 190.116 59.1841C124.451 59.1841 71.2192 112.327 71.2192 177.881C71.2192 243.436 124.451 296.579 190.116 296.579Z" stroke="#495AB4" stroke-width="2"/>
<path d="M44.9539 161.225C44.8529 161.124 44.7962 160.987 44.7962 160.844C44.7962 160.702 44.8529 160.565 44.9539 160.464L47.496 157.926C47.5035 157.915 47.5136 157.907 47.5252 157.9C47.5369 157.895 47.5498 157.891 47.5629 157.891C47.576 157.891 47.589 157.895 47.6006 157.9C47.6123 157.907 47.6223 157.915 47.6298 157.926L50.4243 160.716C50.4861 160.774 50.5679 160.807 50.653 160.807C50.738 160.807 50.8198 160.774 50.8816 160.716L53.6725 157.926C53.6801 157.915 53.6901 157.906 53.7017 157.9C53.7133 157.894 53.7262 157.891 53.7392 157.891C53.7523 157.891 53.7652 157.894 53.7768 157.9C53.7884 157.906 53.7984 157.915 53.8059 157.926L56.6008 160.716C56.6627 160.774 56.7445 160.807 56.8295 160.807C56.9145 160.807 56.9964 160.774 57.0582 160.716L59.8488 157.926C59.8561 157.915 59.866 157.906 59.8777 157.899C59.8893 157.893 59.9023 157.89 59.9156 157.89C59.9288 157.89 59.9418 157.893 59.9535 157.899C59.9652 157.906 59.9752 157.915 59.9825 157.926L62.5275 160.467C62.5776 160.516 62.6172 160.576 62.6443 160.641C62.6714 160.706 62.6853 160.776 62.6853 160.847C62.6853 160.918 62.6714 160.987 62.6443 161.053C62.6172 161.118 62.5776 161.177 62.5275 161.227C62.4775 161.277 62.4181 161.317 62.3527 161.344C62.2874 161.371 62.2173 161.385 62.1466 161.385C62.0759 161.385 62.0058 161.371 61.9405 161.344C61.8751 161.317 61.8157 161.277 61.7657 161.227L60.145 159.609C60.0843 159.549 60.0021 159.515 59.9164 159.515C59.8307 159.515 59.7482 159.549 59.6876 159.609L56.8942 162.402C56.8772 162.419 56.8541 162.428 56.8301 162.428C56.8061 162.428 56.7831 162.419 56.7661 162.402L53.9684 159.609C53.9078 159.549 53.8256 159.515 53.7398 159.515C53.6541 159.515 53.5717 159.549 53.5111 159.609L50.7177 162.402C50.7006 162.419 50.6776 162.428 50.6536 162.428C50.6296 162.428 50.6066 162.419 50.5895 162.402L47.7915 159.609C47.7614 159.579 47.7258 159.555 47.6866 159.539C47.6474 159.523 47.6053 159.515 47.5629 159.515C47.5204 159.515 47.4784 159.523 47.4392 159.539C47.4 159.555 47.3644 159.579 47.3343 159.609L45.7157 161.225C45.6145 161.325 45.4775 161.381 45.3348 161.381C45.192 161.381 45.0551 161.325 44.9539 161.225ZM59.9745 162.796C59.9669 162.788 59.9578 162.782 59.9477 162.778C59.9377 162.774 59.9269 162.772 59.916 162.772C59.905 162.772 59.8941 162.774 59.8839 162.778C59.8738 162.782 59.8646 162.788 59.8569 162.796L57.0582 165.595C56.9976 165.655 56.9153 165.689 56.8296 165.689C56.7439 165.689 56.6615 165.655 56.6008 165.595L53.798 162.796C53.7904 162.788 53.7812 162.782 53.7712 162.778C53.7612 162.774 53.7503 162.772 53.7395 162.772C53.7284 162.772 53.7176 162.774 53.7074 162.778C53.6972 162.782 53.688 162.788 53.6803 162.796L50.8816 165.595C50.821 165.655 50.7388 165.689 50.6531 165.689C50.5673 165.689 50.4849 165.655 50.4243 165.595L47.6216 162.796C47.605 162.783 47.5843 162.775 47.5629 162.775C47.5415 162.775 47.5208 162.783 47.5042 162.796L44.9539 165.342C44.8528 165.443 44.796 165.58 44.7959 165.723C44.7959 165.865 44.8526 166.002 44.9537 166.103C45.0547 166.204 45.1917 166.261 45.3346 166.261C45.4775 166.261 45.6146 166.204 45.7157 166.103L47.3343 164.487C47.3644 164.457 47.4 164.434 47.4392 164.418C47.4784 164.401 47.5204 164.393 47.5629 164.393C47.6053 164.393 47.6474 164.401 47.6866 164.418C47.7258 164.434 47.7614 164.457 47.7915 164.487L50.5853 167.276C50.6035 167.295 50.628 167.304 50.6536 167.304C50.6791 167.304 50.7036 167.294 50.7217 167.276L53.5111 164.488C53.5411 164.458 53.5768 164.434 53.616 164.418C53.6552 164.402 53.6973 164.394 53.7397 164.394C53.7822 164.394 53.8243 164.402 53.8635 164.418C53.9027 164.434 53.9384 164.458 53.9684 164.488L56.7616 167.276C56.7799 167.295 56.8044 167.304 56.83 167.304C56.8556 167.304 56.8801 167.294 56.8982 167.276L59.6876 164.488C59.7483 164.428 59.8305 164.394 59.9162 164.394C60.002 164.394 60.0843 164.428 60.145 164.488L61.7657 166.106C61.8668 166.207 62.0039 166.263 62.1468 166.263C62.2897 166.263 62.4267 166.206 62.5278 166.106C62.6288 166.005 62.6855 165.868 62.6855 165.725C62.6855 165.582 62.6286 165.446 62.5275 165.345L59.9745 162.796Z" fill="#495AB4"/>
<path d="M101.97 152.187H101.024C100.982 152.186 100.941 152.194 100.902 152.21C100.864 152.226 100.829 152.249 100.8 152.278L99.13 153.948L97.4602 152.278C97.4309 152.249 97.3958 152.226 97.3576 152.21C97.319 152.194 97.2777 152.186 97.2364 152.187H96.2896C96.2056 152.187 96.1254 152.22 96.0661 152.279C96.0073 152.338 95.9739 152.418 95.9739 152.502C95.9739 152.585 96.0073 152.666 96.0661 152.724C96.1254 152.783 96.2056 152.817 96.2896 152.817H97.107L98.9059 154.616C98.9352 154.645 98.9699 154.669 99.0085 154.685C99.047 154.701 99.0884 154.709 99.13 154.709C99.1717 154.709 99.2127 154.701 99.2512 154.685C99.2898 154.669 99.3246 154.645 99.3538 154.616L101.153 152.817H101.97C102.054 152.817 102.134 152.783 102.194 152.724C102.253 152.666 102.286 152.585 102.286 152.502C102.286 152.418 102.253 152.338 102.194 152.279C102.134 152.22 102.054 152.187 101.97 152.187Z" fill="#495AB4"/>
<path d="M98.9059 153.355C98.9352 153.385 98.9703 153.409 99.0085 153.425C99.0471 153.441 99.0884 153.449 99.13 153.449C99.1717 153.449 99.213 153.441 99.2512 153.425C99.2898 153.409 99.3249 153.385 99.3542 153.355L101.248 151.465C101.277 151.436 101.3 151.401 101.316 151.363C101.333 151.324 101.34 151.283 101.34 151.242C101.34 151.2 101.333 151.159 101.316 151.12C101.3 151.082 101.277 151.047 101.248 151.018C101.218 150.988 101.183 150.965 101.145 150.949C101.106 150.933 101.065 150.925 101.024 150.925C100.982 150.925 100.941 150.933 100.902 150.949C100.864 150.965 100.829 150.988 100.8 151.018L99.13 152.688L97.4606 151.018C97.401 150.958 97.3204 150.925 97.2364 150.925C97.1524 150.925 97.0719 150.958 97.0123 151.018C96.9527 151.077 96.9197 151.157 96.9197 151.242C96.9197 151.325 96.9527 151.406 97.0123 151.465L98.9059 153.355Z" fill="#495AB4"/>
<path d="M99.1297 150.296C99.2137 150.296 99.2939 150.329 99.3531 150.388C99.4123 150.448 99.4454 150.528 99.4454 150.611C99.4454 150.695 99.4123 150.775 99.3531 150.834C99.2939 150.893 99.2137 150.926 99.1297 150.926C99.046 150.926 98.9658 150.959 98.9066 151.018C98.8473 151.078 98.8143 151.158 98.8143 151.242C98.8143 151.325 98.8473 151.405 98.9066 151.464C98.9658 151.523 99.046 151.556 99.1297 151.556C99.381 151.556 99.6217 151.457 99.7993 151.28C99.977 151.102 100.076 150.862 100.076 150.611C100.076 150.361 99.977 150.12 99.7993 149.943C99.6217 149.766 99.381 149.666 99.1297 149.666C99.046 149.666 98.9658 149.633 98.9066 149.574C98.8473 149.515 98.8143 149.435 98.8143 149.351C98.8143 149.267 98.8473 149.187 98.9066 149.128C98.9658 149.069 99.046 149.036 99.1297 149.036C99.2137 149.036 99.2939 149.003 99.3531 148.943C99.4123 148.885 99.4454 148.804 99.4454 148.721C99.4454 148.637 99.4123 148.557 99.3531 148.498C99.2939 148.439 99.2137 148.406 99.1297 148.406C98.8787 148.406 98.638 148.505 98.4604 148.683C98.2827 148.86 98.1829 149.1 98.1829 149.351C98.1829 149.602 98.2827 149.842 98.4604 150.019C98.638 150.197 98.8787 150.296 99.1297 150.296Z" fill="#495AB4"/>
<path d="M75.453 95.2189C75.5419 95.2189 75.6307 95.2234 75.7192 95.2323C76.3874 95.3196 77.0006 95.6486 77.4424 96.1569C77.8841 96.6653 78.1234 97.318 78.1155 97.9906L78.1192 107.403C78.1261 107.94 78.0411 108.473 77.8679 108.981C77.661 109.433 77.3652 109.839 76.9979 110.174C76.6309 110.509 76.1998 110.767 75.7305 110.932C75.6148 110.964 75.5122 111.032 75.4379 111.126C75.3639 111.221 75.3222 111.336 75.3188 111.456C75.3188 111.541 75.3384 111.624 75.3762 111.7C75.4138 111.775 75.4689 111.841 75.5367 111.892C75.6021 111.942 75.6785 111.976 75.7594 111.992C75.8407 112.008 75.9244 112.004 76.0039 111.982C77.0777 111.663 77.9974 110.962 78.5871 110.011C78.6095 109.968 78.6408 109.931 78.6791 109.902C78.7173 109.874 78.7614 109.854 78.8082 109.844C78.8553 109.834 78.9039 109.835 78.9504 109.846C78.9968 109.858 79.0402 109.879 79.0778 109.909C79.6617 110.373 80.3868 110.622 81.1329 110.616C82.7965 110.616 84.1503 109.443 84.1503 108C84.1503 106.559 82.791 105.387 81.1198 105.387C80.6143 105.384 80.1148 105.498 79.6606 105.719C79.6114 105.744 79.5567 105.756 79.5016 105.753C79.4465 105.751 79.3931 105.734 79.346 105.705C79.2991 105.676 79.2606 105.636 79.2337 105.588C79.2069 105.54 79.1928 105.486 79.1931 105.431V98.0281C79.2069 97.0702 78.8615 96.1414 78.2246 95.4248C77.5873 94.7082 76.7049 94.2551 75.7505 94.1551C75.1273 94.1053 74.5017 94.2122 73.9306 94.4662C73.3597 94.7205 72.8619 95.1137 72.4828 95.6097C72.4515 95.6468 72.4122 95.6767 72.3681 95.6974C72.3237 95.718 72.2755 95.7286 72.227 95.7286C72.1781 95.7286 72.1299 95.718 72.0858 95.6974C72.0418 95.6767 72.0025 95.6468 71.9708 95.6097C71.4719 94.9635 70.7772 94.4957 69.9901 94.2754C69.9116 94.2534 69.8293 94.25 69.7498 94.2654C69.6699 94.2806 69.5949 94.3146 69.5301 94.3641C69.4664 94.4122 69.4148 94.4744 69.3793 94.5459C69.3439 94.6174 69.3253 94.6961 69.3256 94.7759C69.3239 94.8999 69.3635 95.0209 69.4385 95.1196C69.5133 95.2186 69.6193 95.2897 69.7391 95.322C70.2948 95.4836 70.783 95.8201 71.1314 96.2817C71.4795 96.7433 71.6689 97.3046 71.6709 97.8824V105.715C71.6713 105.862 71.7302 106.003 71.8341 106.106C71.9385 106.21 72.0796 106.268 72.227 106.268C72.374 106.268 72.5155 106.21 72.6195 106.106C72.7238 106.003 72.7827 105.862 72.783 105.715V97.8824C72.7834 97.1757 73.0647 96.4982 73.5656 95.9988C74.0662 95.4994 74.7452 95.2186 75.453 95.2189ZM81.1329 109.54C80.0631 109.54 79.1931 108.849 79.1931 108C79.2058 107.762 79.2764 107.53 79.3986 107.326C79.5212 107.121 79.6916 106.949 79.8955 106.825C80.258 106.585 80.6846 106.459 81.1198 106.464C82.1843 106.464 83.0726 107.167 83.0726 108C83.0726 108.849 82.2022 109.54 81.1329 109.54Z" fill="#495AB4"/>
<path d="M96.4387 160.043C95.61 160.043 94.815 160.372 94.2293 160.957C93.6434 161.542 93.3142 162.335 93.3142 163.163C93.3142 163.99 93.6434 164.784 94.2293 165.368C94.815 165.953 95.61 166.282 96.4387 166.282C97.2674 166.282 98.062 165.953 98.648 165.368C99.2337 164.784 99.5632 163.99 99.5632 163.163C99.5621 162.336 99.2326 161.543 98.6466 160.958C98.0613 160.373 97.2671 160.044 96.4387 160.043ZM98.9785 162.879H96.7227V160.627C97.2984 160.692 97.8351 160.951 98.2449 161.36C98.6546 161.769 98.9131 162.304 98.9785 162.879ZM96.1546 160.627V162.879H93.8988C93.9642 162.304 94.2228 161.769 94.6325 161.36C95.0422 160.951 95.579 160.692 96.1546 160.627ZM93.8988 163.446H96.1546V165.698C95.5786 165.633 95.0419 165.375 94.6325 164.966C94.2228 164.557 93.9642 164.021 93.8988 163.446ZM96.7227 165.698V163.446H98.9785C98.9131 164.021 98.6546 164.557 98.2445 164.966C97.8351 165.375 97.2984 165.633 96.7227 165.698Z" fill="#495AB4"/>
<path d="M171.472 294.926L191.356 177.061M191.356 177.061L210.068 60.7803M191.356 177.061L281.39 101.653M191.356 177.061L300.807 221.03M191.356 177.061L277.936 258.946M191.356 177.061L100.634 254.397M191.356 177.061L104.362 96.8299M191.356 177.061L80.7493 133.637" stroke="#495AB4" stroke-width="2" stroke-linecap="round" stroke-linejoin="round"/>
<path d="M111.241 148.504C111.241 148.413 111.204 148.326 111.14 148.261C111.075 148.197 110.987 148.161 110.896 148.161C110.805 148.161 110.717 148.197 110.653 148.261C110.588 148.326 110.552 148.413 110.552 148.504C110.552 149.143 110.298 149.755 109.846 150.206C109.394 150.657 108.781 150.91 108.142 150.91C107.503 150.91 106.89 150.657 106.438 150.206C105.986 149.755 105.732 149.143 105.732 148.504C105.732 148.413 105.695 148.326 105.631 148.261C105.566 148.197 105.479 148.161 105.388 148.161C105.296 148.161 105.208 148.197 105.144 148.261C105.079 148.326 105.043 148.413 105.043 148.504C105.044 149.265 105.325 149.999 105.833 150.566C106.341 151.133 107.04 151.493 107.798 151.577V151.942H107.453C107.362 151.942 107.274 151.978 107.21 152.042C107.145 152.107 107.109 152.194 107.109 152.285C107.109 152.377 107.145 152.464 107.21 152.528C107.274 152.593 107.362 152.629 107.453 152.629H107.798V153.317C107.798 153.408 107.834 153.495 107.898 153.56C107.963 153.624 108.051 153.66 108.142 153.66C108.233 153.66 108.321 153.624 108.385 153.56C108.45 153.495 108.486 153.408 108.486 153.317V152.629H108.83C108.922 152.629 109.009 152.593 109.074 152.528C109.138 152.464 109.175 152.377 109.175 152.285C109.175 152.194 109.138 152.107 109.074 152.042C109.009 151.978 108.922 151.942 108.83 151.942H108.486V151.577C109.243 151.493 109.943 151.133 110.451 150.566C110.959 149.999 111.24 149.265 111.241 148.504Z" fill="#495AB4"/>
<path d="M108.142 150.223C108.482 150.223 108.815 150.122 109.098 149.934C109.381 149.745 109.602 149.476 109.732 149.162C109.862 148.848 109.897 148.503 109.83 148.169C109.764 147.836 109.6 147.53 109.359 147.29C109.118 147.049 108.811 146.885 108.477 146.819C108.143 146.753 107.797 146.787 107.483 146.917C107.168 147.047 106.899 147.267 106.71 147.55C106.521 147.833 106.42 148.165 106.42 148.505C106.42 148.96 106.602 149.398 106.924 149.72C107.247 150.042 107.685 150.223 108.142 150.223ZM108.142 147.473C108.346 147.473 108.545 147.534 108.715 147.647C108.885 147.761 109.018 147.922 109.096 148.11C109.174 148.298 109.194 148.506 109.155 148.706C109.115 148.906 109.016 149.09 108.872 149.234C108.728 149.378 108.543 149.476 108.343 149.516C108.143 149.556 107.935 149.535 107.746 149.457C107.558 149.379 107.396 149.247 107.283 149.078C107.169 148.908 107.109 148.709 107.109 148.505C107.109 148.231 107.218 147.969 107.411 147.776C107.605 147.582 107.868 147.473 108.142 147.473Z" fill="#495AB4"/>
<path d="M191.149 260.265C236.915 260.265 274.016 223.227 274.016 177.538C274.016 131.848 236.915 94.8099 191.149 94.8099C145.383 94.8099 108.282 131.848 108.282 177.538C108.282 223.227 145.383 260.265 191.149 260.265Z" stroke="#495AB4" stroke-width="2"/>
<path d="M126.27 52.9003C126.164 52.9003 126.06 52.9319 125.971 52.9911C125.882 53.0502 125.813 53.134 125.772 53.2323C125.731 53.331 125.721 53.4389 125.742 53.5434C125.762 53.6479 125.814 53.7438 125.889 53.8191L128.004 55.9302C128.034 55.9601 128.058 55.9958 128.074 56.035C128.091 56.0738 128.099 56.1161 128.099 56.1584C128.099 56.2007 128.091 56.2426 128.074 56.2818C128.058 56.321 128.034 56.3567 128.004 56.3866L122.047 62.3346C121.949 62.4254 121.887 62.5471 121.87 62.6794C121.853 62.8114 121.883 62.9451 121.955 63.0571C122 63.1211 122.059 63.1747 122.127 63.2135C122.196 63.2527 122.272 63.2764 122.35 63.283C122.428 63.2898 122.507 63.2795 122.581 63.2524C122.654 63.2256 122.722 63.1829 122.777 63.1276L128.767 57.1476C128.828 57.0895 128.91 57.0569 128.995 57.0569C129.08 57.0569 129.162 57.0895 129.224 57.1476L131.34 59.2601C131.441 59.3608 131.578 59.4175 131.721 59.4175C131.864 59.4175 132.001 59.3608 132.102 59.2598C132.203 59.159 132.26 59.0222 132.26 58.8793C132.26 58.7366 132.203 58.5998 132.102 58.4988L129.986 56.3866C129.956 56.3567 129.932 56.321 129.916 56.2818C129.9 56.2426 129.891 56.2007 129.891 56.1584C129.891 56.1161 129.9 56.0738 129.916 56.035C129.932 55.9958 129.956 55.9601 129.986 55.9302L138.119 47.8097C138.164 47.7645 138.221 47.7338 138.284 47.7213C138.347 47.7089 138.412 47.7152 138.471 47.7396C138.53 47.7641 138.581 47.8054 138.616 47.8585C138.652 47.9115 138.671 47.9739 138.671 48.0378L138.672 50.864C138.667 50.9973 138.709 51.1281 138.791 51.2336C138.872 51.3391 138.989 51.4127 139.119 51.4416C139.197 51.455 139.277 51.4512 139.353 51.4306C139.429 51.4103 139.499 51.3733 139.56 51.3226C139.62 51.2719 139.668 51.2087 139.702 51.1374C139.735 51.066 139.752 50.9883 139.752 50.9097L139.75 45.4995C139.75 45.4786 139.742 45.4585 139.727 45.4437C139.712 45.4289 139.692 45.4205 139.671 45.4204H134.31C134.176 45.4155 134.045 45.4574 133.94 45.5388C133.834 45.6203 133.76 45.7362 133.732 45.8663C133.718 45.9437 133.722 46.0231 133.742 46.099C133.763 46.1749 133.8 46.2454 133.85 46.3056C133.901 46.3658 133.964 46.4141 134.036 46.4473C134.107 46.4805 134.185 46.4977 134.263 46.4977H137.128C137.191 46.4976 137.254 46.5165 137.307 46.552C137.36 46.5875 137.402 46.6379 137.426 46.6969C137.451 46.7559 137.457 46.8209 137.445 46.8835C137.432 46.9462 137.401 47.0037 137.356 47.0488L129.224 55.1688C129.162 55.2273 129.08 55.2599 128.995 55.2599C128.91 55.2599 128.828 55.2273 128.766 55.1688L126.651 53.0577C126.601 53.0079 126.542 52.968 126.477 52.9409C126.411 52.9141 126.341 52.9003 126.27 52.9003Z" fill="#495AB4"/>
<path d="M214.412 39.6413C214.767 39.6404 215.106 39.78 215.357 40.0293C215.609 40.2786 215.75 40.6173 215.751 40.9709V47.4468C215.752 48.2787 216.084 49.0764 216.673 49.6646C217.262 50.2529 218.061 50.5838 218.895 50.5848H221.795C221.858 50.5848 221.921 50.6037 221.974 50.6392C222.027 50.6746 222.068 50.725 222.093 50.7839C222.117 50.8428 222.124 50.9076 222.111 50.9701C222.099 51.0327 222.068 51.0902 222.023 51.1353L220.296 52.8618C220.195 52.9629 220.138 53.1 220.138 53.2427C220.138 53.3853 220.195 53.5224 220.296 53.6235C220.399 53.7215 220.536 53.7758 220.678 53.7758C220.82 53.7758 220.957 53.7215 221.06 53.6235L224.583 50.1027C224.598 50.088 224.606 50.068 224.606 50.0472C224.606 50.0263 224.598 50.0064 224.583 49.9916L221.067 46.4812C220.966 46.3803 220.829 46.3236 220.685 46.3236C220.543 46.3236 220.405 46.3803 220.304 46.4812C220.203 46.5822 220.146 46.7191 220.146 46.8618C220.146 47.0046 220.203 47.1415 220.304 47.2424L222.023 48.9586C222.068 49.0037 222.099 49.0612 222.112 49.1238C222.124 49.1864 222.118 49.2513 222.094 49.3103C222.069 49.3692 222.027 49.4197 221.974 49.4551C221.921 49.4905 221.859 49.5094 221.795 49.5093H218.88C218.336 49.5088 217.814 49.2928 217.43 48.9089C217.045 48.525 216.829 48.0046 216.829 47.4617V41.0828C216.826 40.7434 216.757 40.4078 216.624 40.0952C216.492 39.7826 216.299 39.4991 216.057 39.2609C215.624 38.8214 215.034 38.5716 214.416 38.5663C214.408 38.5663 214.4 38.5663 214.392 38.5665C213.785 38.5711 213.202 38.8082 212.766 39.2288C212.705 39.2868 212.625 39.3192 212.541 39.3192C212.457 39.3192 212.377 39.2868 212.317 39.2288C211.982 38.9136 211.563 38.7003 211.111 38.6139C210.658 38.5274 210.191 38.5714 209.762 38.7406C209.715 38.7596 209.665 38.7673 209.614 38.7631C209.564 38.7589 209.515 38.7429 209.472 38.7164C209.429 38.6899 209.393 38.6537 209.366 38.6106C209.339 38.5675 209.323 38.5188 209.319 38.4684C209.272 37.9138 209.068 37.384 208.731 36.9402C208.395 36.4965 207.939 36.1569 207.417 35.961C207.336 35.9329 207.25 35.925 207.165 35.9381C207.081 35.9513 207.001 35.9849 206.932 36.0362C206.864 36.0875 206.809 36.1548 206.773 36.2321C206.736 36.3095 206.72 36.3946 206.724 36.48C206.728 36.5934 206.766 36.7032 206.832 36.7951C206.899 36.887 206.992 36.9567 207.099 36.9954C207.44 37.1334 207.732 37.3703 207.937 37.6756C208.142 37.981 208.251 38.3407 208.249 38.7083V48.5684C208.246 48.7085 208.295 48.8448 208.387 48.9509C208.479 49.057 208.607 49.1253 208.746 49.1426C208.82 49.1485 208.895 49.1389 208.965 49.1146C209.035 49.0903 209.1 49.0517 209.154 49.0013C209.209 48.9509 209.252 48.8898 209.282 48.8218C209.312 48.7538 209.327 48.6804 209.327 48.6062V41.0297C209.322 40.6917 209.442 40.3637 209.665 40.1087C209.887 39.8537 210.195 39.6896 210.531 39.6478C210.716 39.6293 210.903 39.6498 211.079 39.7082C211.255 39.7665 211.417 39.8613 211.554 39.9864C211.691 40.1113 211.801 40.2633 211.876 40.4328C211.951 40.6023 211.99 40.7856 211.99 40.9709V48.6062C211.992 48.7496 212.05 48.8864 212.153 48.987C212.255 49.0877 212.393 49.144 212.537 49.144C212.681 49.144 212.818 49.0877 212.921 48.987C213.023 48.8864 213.082 48.7496 213.084 48.6062V41.0311C213.08 40.6949 213.199 40.3689 213.419 40.1142C213.639 39.8596 213.944 39.6938 214.278 39.648C214.323 39.6435 214.368 39.6412 214.412 39.6413Z" fill="#495AB4"/>
<path d="M144.993 54.0108C144.132 54.0108 143.35 54.5518 142.814 55.3994C142.481 55.9263 142.246 56.5519 142.116 57.2249L141.404 54.5862C141.354 54.3999 141.185 54.2696 140.992 54.2679C140.796 54.2662 140.623 54.3971 140.572 54.5862L139.816 57.3885L139.061 54.5862C139.01 54.3999 138.842 54.2696 138.648 54.2679C138.452 54.2662 138.28 54.3971 138.228 54.5862L136.112 62.4346C136.081 62.5456 136.095 62.6642 136.152 62.7642C136.209 62.8649 136.303 62.9378 136.414 62.9674C136.526 62.9976 136.645 62.9818 136.744 62.9237C136.843 62.8656 136.916 62.7701 136.944 62.6584L138.645 56.3519L139.37 59.0428L138.456 62.4346C138.424 62.5456 138.438 62.6642 138.495 62.7642C138.552 62.8639 138.646 62.9378 138.758 62.9674C138.87 62.9976 138.988 62.9818 139.087 62.9237C139.187 62.8656 139.259 62.7701 139.288 62.6584L139.817 60.6968L140.346 62.6584H140.346C140.374 62.7701 140.446 62.8656 140.545 62.9237C140.645 62.9818 140.764 62.9976 140.875 62.9674C140.987 62.9378 141.081 62.8649 141.138 62.7642C141.195 62.6642 141.209 62.5456 141.178 62.4346L140.263 59.0428L140.988 56.3519L142.689 62.6584C142.717 62.7701 142.789 62.8656 142.888 62.9237C142.989 62.9818 143.107 62.9976 143.218 62.9674C143.329 62.9378 143.424 62.8649 143.482 62.7642C143.538 62.6642 143.552 62.5456 143.521 62.4346L143.514 62.4071C143.949 62.7718 144.455 62.9825 144.993 62.9825C145.854 62.9825 146.635 62.4415 147.171 61.5939C147.235 61.498 147.256 61.3804 147.231 61.268C147.207 61.1553 147.138 61.057 147.04 60.9958C146.943 60.9346 146.825 60.9143 146.712 60.9405C146.6 60.9662 146.503 61.037 146.443 61.1353C146.017 61.809 145.493 62.1222 144.993 62.1222C144.493 62.1222 143.969 61.808 143.543 61.1353C143.117 60.4617 142.858 59.5006 142.858 58.4973C142.858 57.4937 143.117 56.5333 143.543 55.8597C143.969 55.186 144.493 54.8725 144.993 54.8725C145.493 54.8725 146.017 55.1867 146.443 55.8597V55.8586C146.503 55.9569 146.6 56.0267 146.712 56.0528C146.825 56.0789 146.943 56.0594 147.04 55.9982C147.138 55.936 147.207 55.8387 147.231 55.7259C147.256 55.6136 147.235 55.496 147.171 55.3991C146.635 54.5515 145.854 54.0108 144.993 54.0108Z" fill="#495AB4"/>
<path fill-rule="evenodd" clip-rule="evenodd" d="M62.8489 172.045C63.0057 172.042 63.1444 172.146 63.1861 172.297L64.9932 178.837C65.0438 179.02 64.9361 179.21 64.7529 179.26C64.5697 179.31 64.38 179.203 64.3294 179.02L63.7341 176.865H62.1209L61.5998 179.01C61.555 179.194 61.3689 179.307 61.1841 179.263C60.9993 179.218 60.8858 179.032 60.9306 178.848L61.4124 176.865H60.8637C60.6735 176.865 60.5194 176.711 60.5194 176.521C60.5194 176.331 60.6735 176.177 60.8637 176.177H61.5794L62.5197 172.307C62.5566 172.155 62.692 172.047 62.8489 172.045ZM62.2879 176.177H63.5441L62.8757 173.758L62.2879 176.177Z" fill="#495AB4"/>
<path fill-rule="evenodd" clip-rule="evenodd" d="M64.9661 173.53C64.6317 174.058 64.4138 174.81 64.4138 175.658C64.4138 176.507 64.6317 177.258 64.9661 177.787C65.3035 178.321 65.7259 178.585 66.137 178.585C66.4909 178.585 66.8507 178.391 67.1613 177.995C67.2787 177.846 67.4952 177.82 67.6447 177.937C67.7944 178.054 67.8206 178.27 67.7032 178.419C67.3052 178.926 66.7636 179.272 66.137 179.272C65.4061 179.272 64.7949 178.805 64.3839 178.154C63.97 177.5 63.7252 176.616 63.7252 175.658C63.7252 174.701 63.97 173.817 64.3839 173.162C64.7949 172.512 65.4061 172.044 66.137 172.044C66.6948 172.044 67.1871 172.32 67.5682 172.738C67.6963 172.878 67.686 173.096 67.5452 173.223C67.4047 173.351 67.1871 173.341 67.059 173.201C66.7722 172.886 66.4534 172.732 66.137 172.732C65.7259 172.732 65.3035 172.996 64.9661 173.53Z" fill="#495AB4"/>
<path d="M190.938 185.617C195.516 185.617 199.227 181.912 199.227 177.341C199.227 172.771 195.516 169.066 190.938 169.066C186.36 169.066 182.649 172.771 182.649 177.341C182.649 181.912 186.36 185.617 190.938 185.617Z" fill="#495AB4"/>
<path d="M191.014 181.362C190.507 181.362 190.035 181.239 189.6 180.995C189.174 180.742 188.83 180.402 188.567 179.977C188.313 179.552 188.187 179.086 188.187 178.579C188.187 178.1 188.295 177.661 188.513 177.263C188.73 176.856 189.025 176.521 189.396 176.259C189.768 175.987 190.185 175.824 190.647 175.77V174.576H189.043V173.938H190.647V172.472H191.381V173.938H192.89V174.576H191.381V175.77C191.852 175.824 192.269 175.987 192.632 176.259C193.003 176.521 193.298 176.856 193.515 177.263C193.733 177.661 193.842 178.1 193.842 178.579C193.842 179.086 193.71 179.552 193.447 179.977C193.194 180.402 192.854 180.742 192.428 180.995C192.002 181.239 191.531 181.362 191.014 181.362ZM191.014 180.683C191.404 180.683 191.762 180.588 192.088 180.398C192.414 180.199 192.672 179.941 192.863 179.625C193.062 179.308 193.162 178.959 193.162 178.579C193.162 178.191 193.062 177.833 192.863 177.507C192.672 177.182 192.414 176.924 192.088 176.734C191.762 176.535 191.404 176.435 191.014 176.435C190.634 176.435 190.28 176.535 189.954 176.734C189.628 176.924 189.364 177.182 189.165 177.507C188.966 177.833 188.866 178.191 188.866 178.579C188.866 178.951 188.961 179.299 189.152 179.625C189.351 179.941 189.614 180.199 189.94 180.398C190.267 180.588 190.624 180.683 191.014 180.683Z" fill="#495AB4" fill-opacity="0.8"/>
</g>
</g>
<defs>
<clipPath id="clip0_6022_595">
<rect width="219" height="207" rx="17" fill="white"/>
</clipPath>
</defs>
</svg>
