<svg width="69" height="79" viewBox="0 0 69 79" fill="none" xmlns="http://www.w3.org/2000/svg">
<path opacity="0.15" d="M42.7981 16.0341C44.2267 14.8483 46.3595 16.0797 46.0469 17.9098L43.8141 30.9807C43.7158 31.5561 43.8738 32.1457 44.2466 32.5948L52.7157 42.7981C53.9015 44.2267 52.6701 46.3595 50.84 46.0469L37.7692 43.8141C37.1938 43.7158 36.6042 43.8738 36.155 44.2466L25.9517 52.7157C24.5231 53.9015 22.3903 52.6701 22.7029 50.84L24.9357 37.7692C25.034 37.1938 24.876 36.6042 24.5032 36.155L16.0341 25.9517C14.8483 24.5231 16.0797 22.3903 17.9098 22.7029L30.9807 24.9357C31.5561 25.034 32.1457 24.876 32.5948 24.5032L42.7981 16.0341Z" fill="#958BFF"/>
<path opacity="0.15" d="M45.0968 56.5602C45.7439 55.8946 46.8698 56.3933 46.8118 57.3198L46.4922 62.4259C46.474 62.7172 46.5839 63.0019 46.7932 63.2054L50.4614 66.7718C51.127 67.4189 50.6284 68.5448 49.7019 68.4868L44.5957 68.1672C44.3044 68.149 44.0197 68.2589 43.8163 68.4682L40.2499 72.1364C39.6028 72.802 38.4769 72.3034 38.5349 71.3769L38.8544 66.2707C38.8727 65.9794 38.7627 65.6947 38.5535 65.4913L34.8852 61.9249C34.2197 61.2778 34.7183 60.1519 35.6448 60.2098L40.7509 60.5294C41.0422 60.5476 41.3269 60.4377 41.5304 60.2284L45.0968 56.5602Z" fill="#958BFF"/>
</svg>
