<svg width="66" height="75" viewBox="0 0 66 75" fill="none" xmlns="http://www.w3.org/2000/svg">
<path opacity="0.15" d="M39.7328 14.4681C41.0704 13.1806 43.2879 14.252 43.1106 16.1001L41.8827 28.8944C41.827 29.4754 42.0278 30.0519 42.4326 30.4724L51.3459 39.7328C52.6334 41.0705 51.562 43.288 49.7139 43.1106L36.9196 41.8827C36.3386 41.827 35.7621 42.0278 35.3416 42.4326L26.0812 51.3459C24.7436 52.6334 22.526 51.562 22.7034 49.7139L23.9313 36.9196C23.987 36.3386 23.7862 35.7622 23.3814 35.3416L14.4681 26.0812C13.1806 24.7436 14.252 22.5261 16.1001 22.7034L28.8944 23.9313C29.4754 23.987 30.0518 23.7862 30.4724 23.3814L39.7328 14.4681Z" fill="#958BFF"/>
<path opacity="0.15" d="M44.937 53.8443C45.5335 53.133 46.693 53.5476 46.7032 54.4758L46.7577 59.4196C46.7609 59.7114 46.8914 59.9873 47.1151 60.1748L50.9035 63.3516C51.6148 63.9481 51.2002 65.1076 50.2719 65.1178L45.3282 65.1722C45.0363 65.1754 44.7605 65.306 44.5729 65.5296L41.3962 69.318C40.7997 70.0293 39.6402 69.6147 39.63 68.6865L39.5755 63.7427C39.5723 63.4509 39.4418 63.175 39.2181 62.9875L35.4297 59.8107C34.7184 59.2142 35.133 58.0548 36.0613 58.0445L41.005 57.9901C41.2969 57.9869 41.5727 57.8563 41.7603 57.6327L44.937 53.8443Z" fill="#958BFF"/>
</svg>
