<svg width="30" height="43" viewBox="0 0 30 43" fill="none" xmlns="http://www.w3.org/2000/svg">
<path fill-rule="evenodd" clip-rule="evenodd" d="M13.1873 0.135856C9.22734 0.631732 5.49788 2.6932 3.13283 5.69348C0.962323 8.44705 -0.0042635 11.1875 1.4133e-05 14.5761C0.00476706 18.2639 1.28679 21.5231 3.82517 24.3003C5.63619 26.2818 8.75886 28.0555 11.5238 28.6731L12.9893 29.0006V31.1177V33.2351H9.89988H6.81048V35.1423V37.0495H9.89988H12.9893V40.0247V43H14.9697H16.9501V40.0247V37.0495H20.0395H23.1289V35.1423V33.2351H20.0395H16.9501V31.1351V29.0351L18.3363 28.7153C22.203 27.823 25.3247 25.7299 27.5584 22.5321C29.2582 20.0983 30 17.6716 30 14.5443C30 12.2583 29.7532 10.9868 28.933 9.04942C26.8651 4.16466 22.2147 0.791938 16.6373 0.132042C15.1412 -0.0449481 14.6271 -0.0443375 13.1873 0.135856ZM16.554 3.94266C20.7229 4.50277 24.2509 7.3819 25.6183 11.3402C25.9881 12.4109 26.0399 12.8045 26.0402 14.5443C26.0405 16.2656 25.9869 16.6826 25.6355 17.6977C24.9972 19.5412 24.1762 20.8145 22.7483 22.1755C21.3269 23.5302 20.0155 24.282 18.0591 24.8631C16.5242 25.319 13.768 25.3561 12.1971 24.9419C9.05972 24.1146 6.47999 22.065 4.99708 19.2214C3.5308 16.4097 3.60812 12.4105 5.18435 9.53324C6.01611 8.01495 8.23699 5.87001 9.74145 5.13215C12.1384 3.95639 14.1029 3.6134 16.554 3.94266Z" fill="white"/>
</svg>
