<svg width="224" height="242" viewBox="0 0 224 242" fill="none" xmlns="http://www.w3.org/2000/svg">
<path fill-rule="evenodd" clip-rule="evenodd" d="M173.48 0.51381C173.3 0.805477 172.843 4.76443 172.464 9.31202C172.042 14.3841 171.522 17.968 171.12 18.5837C170.601 19.3757 169.414 19.7696 165.485 20.4513C160.219 21.3649 159.302 21.7616 159.302 23.124C159.302 24.5115 160.32 24.9762 165.596 25.9983C170.756 26.9981 171.805 27.6036 171.842 29.6038C171.853 30.1501 172.16 33.949 172.526 38.0468C173.228 45.9063 173.622 46.9423 175.705 46.3971C176.887 46.0876 176.986 45.619 177.608 37.3458C178.208 29.3748 178.41 28.1932 179.298 27.4556C179.666 27.15 182.307 26.4297 185.167 25.8556L190.367 24.8113L190.514 23.2855C190.685 21.5196 190.751 21.5524 184.828 20.4576C179.262 19.4288 179.22 19.4119 178.648 17.9256C178.371 17.2053 177.885 13.1447 177.569 8.90224C177.253 4.65982 176.78 0.917805 176.518 0.586124C175.929 -0.158229 173.924 -0.205956 173.48 0.51381ZM66.4693 25.8536C65.5932 26.2075 65.7184 28.7486 66.6292 29.0986C67.9618 29.6106 68.7088 29.4182 69.2386 28.427C70.2284 26.5758 68.5475 25.0143 66.4693 25.8536ZM127.417 33.1222C126.327 33.3719 125.839 35.0404 126.591 35.9472C126.922 36.3454 127.752 36.6063 128.437 36.5267C129.384 36.4163 129.718 36.0721 129.831 35.0881C129.993 33.6886 128.885 32.7861 127.417 33.1222ZM17.5899 36.2611C16.9913 36.7229 16.6874 38.3823 16.2876 43.372C15.5869 52.1176 15.3586 53.7105 14.6752 54.6385C14.3009 55.1461 12.2863 55.7714 9.03586 56.3885C3.83145 57.3763 2.66688 58.0416 3.11865 59.7694C3.40136 60.8517 3.56463 60.9086 9.36191 61.9495C12.2656 62.4706 14.0563 63.0467 14.5822 63.6281C15.1939 64.305 15.5464 66.4725 16.0791 72.8361C16.462 77.4131 17.0115 81.4424 17.2995 81.79C17.9675 82.5961 19.3638 82.6024 20.0274 81.8021C20.3097 81.4612 20.8698 77.4198 21.2724 72.8207C21.8012 66.7747 22.2092 64.2312 22.7462 63.6377C23.2119 63.1224 25.3041 62.4831 28.3595 61.922C33.0832 61.0542 34.5618 60.373 34.5618 59.0646C34.5618 57.8907 33.2316 57.3223 28.2319 56.3596C25.1177 55.7603 23.0251 55.1081 22.6614 54.6236C21.9708 53.7032 21.7314 52.0174 21.0634 43.372C20.6709 38.2917 20.3858 36.7316 19.763 36.2611C19.3247 35.9299 18.832 35.6585 18.6683 35.6585C18.5045 35.6585 18.0196 35.9299 17.5899 36.2611ZM212.28 43.6704C202.793 45.4252 194.543 48.3578 179.974 55.1519C175.317 57.3238 168.534 60.6946 164.898 62.6422C158.442 66.1022 158.292 66.2189 158.435 67.6743C158.563 68.9909 158.748 69.1577 160.024 69.1085C160.819 69.0777 164.417 67.9472 168.021 66.5959C177.632 62.9913 182.606 61.6366 187.309 61.342C192.765 61.0002 193.979 61.3088 193.979 63.0375C193.979 67.2694 181.547 81.7317 167.427 93.9267L165.679 95.4367L163.404 91.3794C153.224 73.2247 133.913 61.4645 112.542 60.4068C91.8782 59.3838 73.1085 68.0614 60.9167 84.2743C52.8047 95.0616 48.3926 107.193 47.7376 120.507C47.2261 130.91 49.2995 140.895 53.859 149.985C56.2714 154.794 57.8459 157.195 61.6271 161.832L64.4653 165.313L58.603 168.255C46.6106 174.272 36.0226 178.036 30.9497 178.084C27.8875 178.114 27.5653 178.025 27.4348 177.112C26.893 173.317 34.6895 161.486 45.2712 150.047C46.7979 148.397 48.0472 146.728 48.0472 146.339C48.0472 145.276 46.1227 144.094 45.2033 144.592C43.5465 145.491 29.5949 158.222 22.4856 165.322C10.0993 177.694 2.76658 187.355 0.769775 193.935C-0.168425 197.026 -0.201175 197.518 0.412893 199.256C0.784706 200.309 1.63092 201.568 2.29315 202.053C9.93215 207.654 37.9871 198.337 69.8739 179.612L77.0115 175.42L80.052 177.122C94.5392 185.232 112.208 186.829 128.314 181.484C150.881 173.996 167.367 154.991 171.129 132.128C171.922 127.311 171.895 118.494 171.069 112.07L170.821 110.142L175.771 106.044C185.249 98.1976 193.794 90.4041 202.416 81.7404C217.544 66.5404 223.856 57.3498 223.997 50.316C224.057 47.3758 223.145 45.767 220.786 44.6461C219.042 43.8179 214.377 43.2828 212.28 43.6704ZM45.4788 57.6742C44.8132 58.34 45.1932 60.2303 46.089 60.7105C47.568 61.5025 52.1911 61.3314 53.0701 60.4521C53.9751 59.5462 54.0338 58.717 53.2488 57.9312C52.639 57.3209 46.049 57.103 45.4788 57.6742ZM119.087 65.3381C124.42 66.2618 132.041 68.761 136.727 71.1232C147.709 76.6591 156.892 85.7186 161.49 95.5524L162.676 98.0896L161.535 99.0538C139.507 117.671 110.832 138.062 83.3424 154.658C80.6362 156.291 78.2083 157.628 77.9468 157.628C77.6858 157.628 75.832 155.73 73.8275 153.41C68.4979 147.242 64.3111 138.687 61.9719 129.185C60.9889 125.191 60.8454 123.432 60.8488 115.445C60.857 97.11 64.7513 86.2287 74.6858 76.7854C80.7253 71.0442 89.0501 66.8846 97.6033 65.3342C102.693 64.412 113.752 64.4139 119.087 65.3381ZM167.696 121.601C167.691 129.59 166.949 134.542 164.775 141.097C162.704 147.341 160.595 150.833 156.136 155.398C138.67 173.279 115.204 178.496 94.3085 169.144C92.4403 168.307 90.9121 167.489 90.9131 167.326C90.9135 167.163 93.6723 165.294 97.0436 163.172C104.577 158.432 121.105 147.377 130.164 141.021C137.733 135.708 159.449 119.445 163.877 115.772C165.669 114.286 166.944 113.543 167.234 113.817C167.495 114.064 167.699 117.482 167.696 121.601ZM21.4376 123.92C19.6455 124.965 20.9286 127.48 23.0968 127.173C24.3726 126.992 24.8644 125.206 23.944 124.096C23.2707 123.284 22.6084 123.238 21.4376 123.92ZM205.655 133.117C204.064 134.709 206.466 137.363 208.197 135.926C209.394 134.931 208.921 132.83 207.461 132.659C206.797 132.582 205.984 132.787 205.655 133.117ZM194.48 193.039C193.2 194.582 195.079 196.953 196.748 195.901C198.415 194.849 197.822 192.339 195.905 192.339C195.44 192.339 194.799 192.654 194.48 193.039ZM109.007 195.989C108.591 196.406 108.25 197.425 108.25 198.254C108.25 203.254 107.062 213.24 106.365 214.1C105.82 214.771 104.081 215.346 100.303 216.104C95.4615 217.075 94.9914 217.265 94.8441 218.307C94.7554 218.934 94.9269 219.693 95.2245 219.994C95.5222 220.295 98.0844 220.975 100.918 221.506C105.479 222.359 106.135 222.608 106.64 223.675C106.953 224.338 107.472 228.351 107.793 232.594C108.113 236.836 108.572 240.687 108.812 241.151C109.454 242.394 111.557 242.237 112.04 240.91C112.257 240.313 112.701 236.354 113.027 232.112C113.38 227.512 113.876 223.998 114.256 223.406C114.757 222.626 115.96 222.228 119.88 221.547C122.622 221.07 125.137 220.46 125.468 220.19C126.174 219.615 126.273 217.59 125.614 217.183C125.364 217.028 122.837 216.474 119.999 215.952C117.16 215.43 114.794 214.948 114.74 214.88C113.942 213.877 113.538 211.547 113.047 205.107C112.462 197.429 111.882 195.232 110.44 195.232C110.068 195.232 109.423 195.572 109.007 195.989ZM150.672 199.497C149.928 200.888 151.632 202.94 152.89 202.169C153.409 201.852 153.763 201.069 153.763 200.241C153.763 199.087 153.54 198.822 152.471 198.698C151.577 198.595 151.023 198.84 150.672 199.497ZM45.6228 222.628C43.7353 224.157 45.4576 226.733 47.6003 225.585C48.8024 224.941 48.8087 222.895 47.6104 222.253C46.913 221.879 46.4343 221.969 45.6228 222.628Z" fill="#495AB4"/>
<path fill-rule="evenodd" clip-rule="evenodd" d="M173.48 0.51381C173.3 0.805477 172.843 4.76443 172.464 9.31202C172.042 14.3841 171.522 17.968 171.12 18.5837C170.601 19.3757 169.414 19.7696 165.485 20.4513C160.219 21.3649 159.302 21.7616 159.302 23.124C159.302 24.5115 160.32 24.9762 165.596 25.9983C170.756 26.9981 171.805 27.6036 171.842 29.6038C171.853 30.1501 172.16 33.949 172.526 38.0468C173.228 45.9063 173.622 46.9423 175.705 46.3971C176.887 46.0876 176.986 45.619 177.608 37.3458C178.208 29.3748 178.41 28.1932 179.298 27.4556C179.666 27.15 182.307 26.4297 185.167 25.8556L190.367 24.8113L190.514 23.2855C190.685 21.5196 190.751 21.5524 184.828 20.4576C179.262 19.4288 179.22 19.4119 178.648 17.9256C178.371 17.2053 177.885 13.1447 177.569 8.90224C177.253 4.65982 176.78 0.917805 176.518 0.586124C175.929 -0.158229 173.924 -0.205956 173.48 0.51381ZM66.4693 25.8536C65.5932 26.2075 65.7184 28.7486 66.6292 29.0986C67.9618 29.6106 68.7088 29.4182 69.2386 28.427C70.2284 26.5758 68.5475 25.0143 66.4693 25.8536ZM127.417 33.1222C126.327 33.3719 125.839 35.0404 126.591 35.9472C126.922 36.3454 127.752 36.6063 128.437 36.5267C129.384 36.4163 129.718 36.0721 129.831 35.0881C129.993 33.6886 128.885 32.7861 127.417 33.1222ZM17.5899 36.2611C16.9913 36.7229 16.6874 38.3823 16.2876 43.372C15.5869 52.1176 15.3586 53.7105 14.6752 54.6385C14.3009 55.1461 12.2863 55.7714 9.03586 56.3885C3.83145 57.3763 2.66688 58.0416 3.11865 59.7694C3.40136 60.8517 3.56463 60.9086 9.36191 61.9495C12.2656 62.4706 14.0563 63.0467 14.5822 63.6281C15.1939 64.305 15.5464 66.4725 16.0791 72.8361C16.462 77.4131 17.0115 81.4424 17.2995 81.79C17.9675 82.5961 19.3638 82.6024 20.0274 81.8021C20.3097 81.4612 20.8698 77.4198 21.2724 72.8207C21.8012 66.7747 22.2092 64.2312 22.7462 63.6377C23.2119 63.1224 25.3041 62.4831 28.3595 61.922C33.0832 61.0542 34.5618 60.373 34.5618 59.0646C34.5618 57.8907 33.2316 57.3223 28.2319 56.3596C25.1177 55.7603 23.0251 55.1081 22.6614 54.6236C21.9708 53.7032 21.7314 52.0174 21.0634 43.372C20.6709 38.2917 20.3858 36.7316 19.763 36.2611C19.3247 35.9299 18.832 35.6585 18.6683 35.6585C18.5045 35.6585 18.0196 35.9299 17.5899 36.2611ZM45.4788 57.6742C44.8132 58.34 45.1932 60.2303 46.089 60.7105C47.568 61.5025 52.1911 61.3314 53.0701 60.4521C53.9751 59.5462 54.0338 58.717 53.2488 57.9312C52.639 57.3209 46.049 57.103 45.4788 57.6742ZM21.4376 123.92C19.6455 124.965 20.9286 127.48 23.0968 127.173C24.3726 126.992 24.8644 125.206 23.944 124.096C23.2707 123.284 22.6084 123.238 21.4376 123.92ZM205.655 133.117C204.064 134.709 206.466 137.363 208.197 135.926C209.394 134.931 208.921 132.83 207.461 132.659C206.797 132.582 205.984 132.787 205.655 133.117ZM194.48 193.039C193.2 194.582 195.079 196.953 196.748 195.901C198.415 194.849 197.822 192.339 195.905 192.339C195.44 192.339 194.799 192.654 194.48 193.039ZM109.007 195.989C108.591 196.406 108.25 197.425 108.25 198.254C108.25 203.254 107.062 213.24 106.365 214.1C105.82 214.771 104.081 215.346 100.303 216.104C95.4615 217.075 94.9914 217.265 94.8441 218.307C94.7554 218.934 94.9269 219.693 95.2245 219.994C95.5222 220.295 98.0844 220.975 100.918 221.506C105.479 222.359 106.135 222.608 106.64 223.675C106.953 224.338 107.472 228.351 107.793 232.594C108.113 236.836 108.572 240.687 108.812 241.151C109.454 242.394 111.557 242.237 112.04 240.91C112.257 240.313 112.701 236.354 113.027 232.112C113.38 227.512 113.876 223.998 114.256 223.406C114.757 222.626 115.96 222.228 119.88 221.547C122.622 221.07 125.137 220.46 125.468 220.19C126.174 219.615 126.273 217.59 125.614 217.183C125.364 217.028 122.837 216.474 119.999 215.952C117.16 215.43 114.794 214.948 114.74 214.88C113.942 213.877 113.538 211.547 113.047 205.107C112.462 197.429 111.882 195.232 110.44 195.232C110.068 195.232 109.423 195.572 109.007 195.989ZM150.672 199.497C149.928 200.888 151.632 202.94 152.89 202.169C153.409 201.852 153.763 201.069 153.763 200.241C153.763 199.087 153.54 198.822 152.471 198.698C151.577 198.595 151.023 198.84 150.672 199.497ZM45.6228 222.628C43.7353 224.157 45.4576 226.733 47.6003 225.585C48.8024 224.941 48.8087 222.895 47.6104 222.253C46.913 221.879 46.4343 221.969 45.6228 222.628Z" fill="#F45279"/>
</svg>
