<svg width="225" height="227" viewBox="0 0 225 227" fill="none" xmlns="http://www.w3.org/2000/svg">
<path fill-rule="evenodd" clip-rule="evenodd" d="M117.398 1.00601C115.388 1.60927 113.311 2.53449 112.782 3.062C111.874 3.96781 111.865 4.06574 112.613 4.81219C113.295 5.4926 113.68 5.53001 115.372 5.07964C116.454 4.79141 117.41 4.62604 117.496 4.71196C117.582 4.79787 116.567 6.31619 115.239 8.08533L112.826 11.3026L111.507 10.5506C110.519 9.98796 109.989 9.92329 109.397 10.2937C108.175 11.0578 108.182 11.6453 109.431 13.1262L110.582 14.4916L107.598 18.8078C105.689 21.5691 104.614 23.5845 104.614 24.4025C104.614 27.4872 106.453 26.2465 110.511 20.4231C111.927 18.3907 113.126 16.6747 113.174 16.61C113.223 16.5449 114.124 16.9606 115.177 17.5338C116.698 18.3602 117.263 18.4673 117.915 18.0521C119.037 17.3375 118.73 16.0543 117.068 14.5175L115.676 13.2315L120.125 7.17212L120.357 9.6406C120.55 11.7007 120.748 12.1312 121.555 12.2463C123.283 12.4929 123.663 11.334 123.749 5.55264L123.83 0.0988052L122.441 0.00411246C121.677 -0.048084 119.407 0.402746 117.398 1.00601ZM158.116 10.1455C158.017 10.4633 157.841 11.7035 157.726 12.9017C157.523 15.0164 155.567 19.5214 152.91 23.9965C151.875 25.7402 151.716 26.3495 152.124 26.9989C152.959 28.3269 154.018 28.1967 155.403 26.5966C159.183 22.2283 160.461 21.0578 162.622 19.9834C166.462 18.0743 169.93 18.6868 169.284 21.1594C168.93 22.5193 161.733 31.8056 159.951 33.2043C158.15 34.6173 154.43 34.8681 151.399 33.7803C149.198 32.9909 149.005 32.9872 148.272 33.7189C147.538 34.4506 147.569 34.5804 148.763 35.8248C150.206 37.3264 152.682 38.2069 155.461 38.2069H157.351L156.862 39.6074C156.12 41.7322 156.785 44.9513 158.32 46.6659C159.503 47.987 159.903 48.138 162.215 48.138C164.564 48.138 164.943 47.9884 166.485 46.4502C167.875 45.0626 168.217 44.3439 168.403 42.4135C168.804 38.242 166.756 35.5961 164.707 37.6401C163.964 38.3815 163.886 38.7376 164.299 39.5058C165.161 41.1146 164.895 42.6902 163.588 43.7161C162.028 44.9402 161.75 44.9203 160.831 43.5207C159.269 41.1433 159.892 40.061 171.422 25.1222C172.792 23.3466 173.142 22.4897 173.142 20.9118C173.142 18.654 171.884 16.7005 169.956 15.9656C168.124 15.2672 163.653 15.4284 162.06 16.2502L160.653 16.9763L160.936 14.2732C161.114 12.5724 161.02 11.1996 160.682 10.5695C160.101 9.48632 158.409 9.20686 158.116 10.1455ZM62.492 14.3161C61.8632 14.6339 60.9255 15.5143 60.4083 16.2728C59.7356 17.2599 59.1646 17.6086 58.3997 17.5006C56.3341 17.2086 53.2235 20.4152 53.2193 22.8408C53.2175 23.8574 53.1939 23.8611 51.6089 23.1073C50.2967 22.4832 49.779 22.4431 48.7946 22.8907C47.418 23.5161 47.4949 24.3443 49.0007 25.0995C51.0477 26.1268 52.7299 28.2304 54.6339 32.1451C57.2264 37.4752 58.1738 38.7538 59.3975 38.5787C60.9154 38.3621 60.8353 37.1685 59.035 33.1914C56.6064 27.8248 56.0359 23.5452 57.5038 21.6934C58.3238 20.6582 58.6831 21.0698 59.7207 24.2339C61.2418 28.8715 63.6352 33.8621 64.4974 34.1919C66.3495 34.9009 67.4612 33.2995 66.4592 31.3645C65.0808 28.7025 62.4781 21.8065 62.4781 20.8171C62.4781 19.2217 63.4616 17.4206 64.333 17.4206C65.7221 17.4206 66.5361 18.9228 68.691 25.4594C71.266 33.2717 72.5421 35.5471 75.3425 37.3191C78.4712 39.2979 82.2342 39.0018 84.2151 36.6206C84.9763 35.7056 85.6296 35.6917 85.6296 36.5902C85.6296 36.9712 86.051 37.7034 86.5663 38.2175C87.3104 38.9598 87.6915 39.0512 88.4185 38.6632C89.62 38.0216 89.5737 37.1107 88.1462 33.2962C86.6335 29.2535 85.7449 28.3066 83.8534 28.721C80.7423 29.4027 78.573 32.6639 81.2308 32.6639C81.8675 32.6639 82.3884 32.8394 82.3884 33.0542C82.3884 33.8745 80.6372 34.9734 79.3296 34.9734C76.3028 34.9734 74.3585 32.1447 72.1879 24.5803C70.4432 18.5011 69.2587 16.1956 67.1556 14.7826C65.3864 13.5937 64.1654 13.4717 62.492 14.3161ZM198.667 50.3899C194.789 54.2931 194.904 54.8991 199.646 55.5536C201.611 55.8248 203.323 56.1514 203.452 56.2798C203.58 56.4077 202.856 57.3209 201.842 58.3085C198.875 61.1987 199.445 62.2159 204.439 62.9388C205.689 63.1198 206.888 63.3697 207.103 63.494C207.317 63.6182 206.621 64.6072 205.554 65.6918C202.755 68.5367 203.032 69.0194 208.798 71.3502C214.402 73.615 215.51 73.6848 215.51 71.7733C215.51 70.5682 215.226 70.3562 211.898 69.0744L208.286 67.6835L210.393 65.4368C213.492 62.1318 213.164 61.2708 208.564 60.6426C204.394 60.0726 204.408 60.0897 206.26 57.9311C208.787 54.9869 208.412 54.276 203.934 53.5074C201.897 53.1581 200.139 52.7905 200.028 52.6907C199.918 52.5909 200.623 51.6962 201.595 50.7026C202.726 49.5478 203.263 48.6346 203.084 48.1708C202.597 46.9024 201.667 47.3694 198.667 50.3899ZM20.5409 50.1672C16.676 51.9184 13.8853 57.2438 14.5424 61.6144C14.9623 64.4076 17.3891 67.0877 20.2826 67.9533C21.4614 68.3062 22.3708 68.8337 22.3037 69.1261C22.2361 69.418 21.6235 70.4975 20.9419 71.5248C19.6024 73.5443 19.8181 74.8058 21.5471 75.0566C22.7172 75.2266 27.9823 67.8337 27.9823 66.0202C27.9823 64.773 27.9679 64.7675 24.9726 64.8917C21.1433 65.0506 19.256 64.0339 18.4601 61.3839C17.7553 59.0383 18.4527 56.817 20.609 54.536C21.9981 53.0667 22.3833 52.8976 23.8159 53.13C26.0376 53.4893 28.0518 55.0174 29.1598 57.1842C30.6091 60.0185 31.7088 59.6855 34.6013 55.5347C37.1647 51.8569 37.4064 51.1188 36.3391 50.2351C35.3436 49.4106 33.9443 50.0573 32.8293 51.8574C32.2866 52.7332 31.7305 53.4501 31.5939 53.4501C31.4573 53.4501 30.604 52.8006 29.6978 52.0066C26.5316 49.2332 23.809 48.6863 20.5409 50.1672ZM110.193 54.4894C109.962 55.0612 109.328 61.5664 108.784 68.9464C107.319 88.8199 106.216 99.5229 105.547 100.326C104.293 101.834 102.832 101.087 95.4676 95.1648C91.4573 91.9406 86.7312 88.0951 84.9647 86.6193C83.1987 85.144 81.4948 83.9365 81.1781 83.9365C80.4803 83.9365 79.1472 85.2035 79.1472 85.8664C79.1472 86.1292 80.5534 88.1289 82.2727 90.3096C93.2192 104.198 96.2617 108.298 96.2701 109.17C96.2895 111.245 95.9626 111.315 75.0341 113.695C69.3342 114.343 64.3858 115.109 64.0371 115.398C63.2463 116.053 63.218 117.394 63.9829 118.009C64.3015 118.265 71.0868 119.206 79.0615 120.1C90.641 121.398 93.7419 121.888 94.4573 122.534C94.95 122.979 95.3533 123.599 95.3533 123.912C95.3533 124.225 92.8529 127.967 89.7969 132.226C86.7409 136.485 84.2405 140.312 84.2405 140.73C84.2405 141.65 85.1208 142.6 85.9727 142.6C86.314 142.6 90.2516 140.002 94.7226 136.826C102.985 130.958 104.602 130.227 105.523 131.945C106.175 133.159 107.622 145.076 108.781 158.767C109.91 172.104 109.894 172.013 111.149 172.41C113.088 173.024 113.382 171.972 114.583 160.122C116.116 144.991 117.552 133.812 118.094 132.803C119.093 130.941 120.819 131.811 127.534 137.565C135.801 144.649 135.793 144.644 136.995 144.002C137.521 143.721 137.952 143.073 137.952 142.561C137.952 142.05 135.348 138.201 132.164 134.009C128.981 129.817 126.376 126.021 126.376 125.574C126.376 124.188 127.48 123.165 129.455 122.723C130.497 122.489 137.576 121.451 145.185 120.416C159.158 118.516 160.178 118.247 160.178 116.47C160.178 115.28 158.625 114.883 149.506 113.743C134.231 111.833 126.648 110.679 126.029 110.168C124.554 108.952 125.437 107.265 131.784 99.1719C140.173 88.4767 140.357 88.1995 139.778 87.1205C139.52 86.6396 138.847 86.2498 138.283 86.2544C137.672 86.259 133.82 88.9635 128.744 92.9522C124.061 96.6313 119.881 99.6416 119.456 99.6416C117.048 99.6416 117.08 99.874 113.964 60.0527C113.733 57.1048 113.304 54.5698 112.966 54.1633C112.101 53.124 110.678 53.2912 110.193 54.4894ZM34.0531 65.1231C30.3609 71.0352 27.21 76.2105 27.0511 76.623C26.7002 77.5353 28.5435 78.976 29.4288 78.4818C30.1201 78.0956 43.0489 57.7888 43.3822 56.5657C43.5036 56.1195 43.3447 55.4442 43.0289 55.0645C41.6209 53.372 40.8573 54.2279 34.0531 65.1231ZM186.611 57.6041C185.06 59.127 183.792 60.6911 183.792 61.08C183.792 61.9507 185.6 62.6778 187.874 62.7207C188.812 62.7387 189.952 62.8999 190.407 63.0792C191.155 63.3739 191.103 63.5766 189.841 65.2405C188.334 67.2272 188.062 68.4563 189.044 68.8323C189.387 68.9635 190.848 69.218 192.292 69.3977C193.736 69.5779 195.015 69.8832 195.135 70.0767C195.255 70.2698 194.602 71.4089 193.685 72.6071C192.286 74.4349 192.119 74.8825 192.65 75.3832C193.387 76.0756 203.688 78.7834 204.527 78.5044C205.373 78.2231 205.207 76.6392 204.281 76.1528C203.836 75.919 201.908 75.3592 199.998 74.9093C198.088 74.4594 196.449 74.0298 196.355 73.955C196.261 73.8797 196.946 72.93 197.878 71.844C200.288 69.0356 200.013 68.1427 196.526 67.4443C194.998 67.138 193.467 66.8262 193.125 66.7514C192.697 66.6572 192.956 66.0456 193.956 64.7933C194.768 63.7748 195.349 62.5531 195.273 62.0218C195.156 61.2112 194.661 61.0149 191.895 60.6841C190.113 60.4707 188.579 60.2222 188.486 60.1321C188.394 60.0416 189.043 59.0725 189.929 57.9792C190.815 56.8853 191.446 55.731 191.332 55.4132C190.896 54.2058 189.332 54.9319 186.611 57.6041ZM11.9952 96.2715C10.2269 97.4873 9.72314 98.3437 9.70739 100.163C9.68007 103.237 12.5073 103.99 12.9338 101.022C13.1403 99.5853 13.3343 99.3945 14.7253 99.262C16.5417 99.0887 18.5717 99.801 20.69 101.356C22.1166 102.403 23.5835 104.567 23.5835 105.623C23.5835 106.294 19.6857 106.211 13.8599 105.416C4.97522 104.203 2.13962 104.647 0.671346 107.479C-0.365843 109.48 -0.196837 111.655 1.1478 113.63C2.24102 115.235 2.27482 115.435 1.61084 116.38C0.0397719 118.619 1.34135 122.451 4.16862 123.909L5.63087 124.663L4.30568 125.349C2.38873 126.341 1.35802 127.382 1.35802 128.325C1.35802 129.754 2.26695 129.8 5.13774 128.515C7.51448 127.451 8.92209 127.202 14.7118 126.822C23.4858 126.246 23.5835 126.223 23.5835 124.793C23.5835 124.155 23.3233 123.542 23.0047 123.432C22.6866 123.322 19.2268 123.017 15.3175 122.753C7.77053 122.245 5.34194 121.572 4.79093 119.841C4.1839 117.933 5.57531 117.594 13.5246 117.71C21.2503 117.823 21.9263 117.66 21.655 115.746C21.5226 114.815 21.1595 114.609 19.1847 114.348C17.9114 114.18 14.6604 114.024 11.9605 114.002C7.65709 113.966 6.85744 113.831 5.47807 112.907C4.33207 112.139 3.8658 111.453 3.76069 110.382C3.63706 109.119 3.79217 108.868 4.86039 108.601C6.16058 108.275 11.0437 108.567 17.3326 109.346C19.3699 109.599 21.9129 109.679 22.9834 109.524C25.1407 109.213 24.9629 108.96 25.7801 113.499C26.0987 115.266 26.3321 115.599 27.3396 115.717C29.2964 115.946 29.6802 114.99 29.1445 111.221L28.6722 107.9L30.1266 106.679C32.5052 104.683 33.672 100.853 32.0866 100.247C31.5578 100.044 30.7457 100.628 29.395 102.181L27.4609 104.405L26.22 102.294C23.0807 96.9491 15.6092 93.7864 11.9952 96.2715ZM211.21 107.145C210.942 107.467 210.575 108.315 210.396 109.029L210.069 110.327L207.02 110.001C205.343 109.822 202.89 109.425 201.568 109.118C198.791 108.474 197.683 108.867 197.683 110.498C197.683 111.862 199.154 112.35 205.67 113.149L210.185 113.702V118.856C210.185 122.995 210.329 124.13 210.918 124.617C212.027 125.535 213.168 124.573 213.338 122.575C213.417 121.648 213.73 120.893 214.033 120.898C214.336 120.903 216.769 121.414 219.44 122.035C222.64 122.778 224.454 123.007 224.755 122.706C226.109 121.356 221.637 118.741 216.628 117.955L213.384 117.445L213.658 113.276L216.204 112.918C219.049 112.517 223.02 110.761 224.318 109.329C225.057 108.516 225.082 108.304 224.508 107.756C223.944 107.218 223.254 107.322 219.909 108.447C214.886 110.136 213.539 110.181 213.158 108.668C212.767 107.112 211.84 106.387 211.21 107.145ZM200.852 119.02C197.789 119.968 195.582 122.016 196.119 123.412C196.489 124.374 197.823 124.307 199.96 123.219C200.938 122.721 203.128 121.966 204.828 121.54C207.516 120.866 207.9 120.638 207.778 119.788C207.655 118.929 207.303 118.801 204.86 118.726C203.332 118.679 201.528 118.811 200.852 119.02ZM27.0942 146.441C25.9311 147.29 26.3279 148.805 27.7554 148.965C30.9938 149.328 31.906 150.135 30.9962 151.83C30.2766 153.172 27.9087 154.409 22.2629 156.393C14.3122 159.187 11.6299 161.553 11.1859 166.164C10.9057 169.071 11.8054 170.535 14.641 171.786C18.0989 173.312 21.7328 172.057 27.2572 167.429L30.2359 164.933L31.5379 166.412C33.9591 169.163 37.2989 169.597 39.9628 167.506C42.7192 165.344 42.533 160.501 39.6261 158.733C36.2405 156.673 32.5774 158.062 26.2316 163.812C24.2503 165.608 21.8101 167.494 20.8095 168.003C18.4082 169.225 15.449 169.241 14.8021 168.036C13.0421 164.754 15.6226 162.542 25.3402 159.001C31.7421 156.667 34.2452 154.511 34.5796 151.039C34.7912 148.844 34.6944 148.532 33.3998 147.24C32.2565 146.1 31.6046 145.833 29.9585 145.833C28.8417 145.833 27.5526 146.107 27.0942 146.441ZM78.0933 146.357C76.9691 146.985 77.0802 148.92 78.2776 149.559C79.087 149.991 79.4246 149.919 80.1941 149.152C80.709 148.638 81.0072 147.905 80.8581 147.519C80.4428 146.438 79.0194 145.84 78.0933 146.357ZM207.075 154.01C204.792 154.451 202.942 158.241 204.112 160.082C204.74 161.07 206.23 160.513 206.409 159.224C206.724 156.964 208.456 156.185 209.921 157.645C210.986 158.708 210.809 160.496 209.511 161.79C206.94 164.355 200.913 162.584 188.74 155.685C187.021 154.711 186.331 154.533 185.73 154.909C184.077 155.942 184.557 157.144 187.359 158.993C193.869 163.288 199.07 167.748 201.087 170.764C202.8 173.326 201.178 176.957 198.44 176.691C197.223 176.573 196.964 176.334 196.835 175.212C196.719 174.192 196.995 173.622 197.993 172.818C199.209 171.84 199.249 171.708 198.546 170.992C197.841 170.275 197.677 170.275 196.179 170.983C193.196 172.396 192.576 175.997 194.938 178.198C196.855 179.984 199.013 180.346 201.245 179.254C205.855 177 206.325 172.073 202.446 166.673C201.667 165.588 201.672 165.577 202.769 165.924C204.8 166.567 208.736 166.278 210.292 165.371C214.634 162.841 214.661 156.118 210.337 154.316C209.506 153.969 208.662 153.714 208.463 153.749C208.264 153.783 207.64 153.901 207.075 154.01ZM37.8449 161.631C38.1505 161.936 38.4005 162.622 38.4005 163.155C38.4005 164.538 37.5212 165.234 35.7732 165.234C34.561 165.234 34.1147 164.959 33.547 163.865C32.858 162.535 32.8742 162.475 34.1142 161.804C35.676 160.959 37.1049 160.893 37.8449 161.631ZM55.7007 186.231C51.545 188.336 49.935 191.943 51.5992 195.419C53.3277 199.031 58.5169 200.205 61.1483 197.58C62.3989 196.332 62.5124 195.966 62.3859 193.586C62.2179 190.423 61.2673 189.455 59.7096 190.861C58.9989 191.503 58.8118 192.071 59.0118 192.979C59.5795 195.557 56.8342 196.412 54.9538 194.243C53.2096 192.23 54.7084 189.686 58.1483 188.822C61.9808 187.86 66.18 189.167 68.7948 192.138C70.0931 193.613 70.6228 194.688 71.5604 197.751C72.0966 199.502 73.3107 200.284 74.4011 199.581C76.213 198.413 74.2391 192.241 71.0303 189.039C68.5804 186.595 65.7138 185.438 61.552 185.214C58.509 185.05 57.7848 185.176 55.7007 186.231ZM155.519 186.171C150.331 187.61 147.363 192.054 148.58 196.563C149.461 199.827 153.674 202.51 155.983 201.277C157.847 200.283 156.856 198.03 154.555 198.03C151.692 198.03 150.912 194.038 153.255 191.376C156.578 187.601 162.878 188.129 164.637 192.329C165.236 193.759 165.232 194.225 164.6 196.335C163.794 199.025 163.041 200.047 160.486 201.918C158.271 203.539 157.107 205.416 156.422 208.471C155.801 211.241 156.53 215.328 157.727 215.787C159.103 216.313 159.714 215.138 159.725 211.946C159.739 207.658 160.913 205.209 163.519 204.029C166.03 202.892 168.966 202.894 172.216 204.035C175.459 205.172 176.384 205.188 176.384 204.106C176.384 202.382 172.892 200.39 169.203 200.01L166.757 199.758L167.403 198.216C170.371 191.131 163.338 184.003 155.519 186.171ZM48.433 198.8C48.263 198.969 48.1241 199.906 48.1241 200.883C48.1241 204.584 51.7316 209.676 55.7641 211.666C57.2199 212.385 58.5646 212.58 62.0489 212.58C66.1249 212.58 66.6384 212.476 68.4336 211.291C72.9241 208.327 73.4589 203.406 69.6176 200.392C67.0792 198.401 62.8536 198.763 61.3159 201.104C60.3097 202.635 60.2778 205.783 61.2483 207.724C61.6701 208.568 62.0151 209.33 62.0151 209.418C62.0151 209.971 59.5101 209.393 57.4334 208.36C54.5667 206.935 52.6447 204.537 51.8515 201.394C51.5464 200.186 51.0519 199.041 50.7523 198.851C50.0716 198.42 48.8414 198.392 48.433 198.8ZM101.951 199.022C100.631 200.341 101.274 201.596 103.804 202.641L106.235 203.646L106.089 211.149C105.963 217.611 106.047 218.739 106.691 219.272C107.322 219.795 107.556 219.773 108.197 219.134C108.8 218.534 109.027 216.921 109.297 211.321C109.485 207.441 109.654 204.213 109.673 204.15C109.692 204.087 110.437 204.035 111.328 204.035H112.948V221.463L109.823 221.69C106.719 221.915 102.342 223.425 101.355 224.611C100.983 225.058 100.99 225.494 101.381 226.223C101.979 227.337 102.35 227.305 106.466 225.789C109.615 224.629 111.76 224.586 116.08 225.594C118.499 226.158 119.585 226.238 119.946 225.877C120.811 225.014 119.949 223.6 118.032 222.738L116.19 221.909V212.51C116.19 205.211 116.321 203.111 116.779 203.111C117.666 203.111 120.82 200.369 120.82 199.598C120.82 198.414 119.664 198.42 116.066 199.625C111.862 201.033 109.853 201.078 106.466 199.84C105.065 199.329 103.607 198.805 103.225 198.677C102.843 198.549 102.27 198.705 101.951 199.022ZM67.9752 203.833C68.9809 205.109 68.854 206.122 67.6034 206.789C65.717 207.796 63.443 204.965 64.8145 203.316C65.6559 202.305 66.9348 202.514 67.9752 203.833Z" fill="#495AB4"/>
<path fill-rule="evenodd" clip-rule="evenodd" d="M117.398 1.00601C115.388 1.60927 113.311 2.53449 112.782 3.062C111.874 3.96781 111.865 4.06574 112.613 4.81219C113.295 5.4926 113.68 5.53001 115.372 5.07964C116.454 4.79141 117.41 4.62604 117.496 4.71196C117.582 4.79787 116.567 6.31619 115.239 8.08533L112.826 11.3026L111.507 10.5506C110.519 9.98796 109.989 9.92329 109.397 10.2937C108.175 11.0578 108.182 11.6453 109.431 13.1262L110.582 14.4916L107.598 18.8078C105.689 21.5691 104.614 23.5845 104.614 24.4025C104.614 27.4872 106.453 26.2465 110.511 20.4231C111.927 18.3907 113.126 16.6747 113.174 16.61C113.223 16.5449 114.124 16.9606 115.177 17.5338C116.698 18.3602 117.263 18.4673 117.915 18.0521C119.037 17.3375 118.73 16.0543 117.068 14.5175L115.676 13.2315L120.125 7.17212L120.357 9.6406C120.55 11.7007 120.748 12.1312 121.555 12.2463C123.283 12.4929 123.663 11.334 123.749 5.55264L123.83 0.0988052L122.441 0.00411246C121.677 -0.048084 119.407 0.402746 117.398 1.00601ZM158.116 10.1455C158.017 10.4633 157.841 11.7035 157.726 12.9017C157.523 15.0164 155.567 19.5214 152.91 23.9965C151.875 25.7402 151.716 26.3495 152.124 26.9989C152.959 28.3269 154.018 28.1967 155.403 26.5966C159.183 22.2283 160.461 21.0578 162.622 19.9834C166.462 18.0743 169.93 18.6868 169.284 21.1594C168.93 22.5193 161.733 31.8056 159.951 33.2043C158.15 34.6173 154.43 34.8681 151.399 33.7803C149.198 32.9909 149.005 32.9872 148.272 33.7189C147.538 34.4506 147.569 34.5804 148.763 35.8248C150.206 37.3264 152.682 38.2069 155.461 38.2069H157.351L156.862 39.6074C156.12 41.7322 156.785 44.9513 158.32 46.6659C159.503 47.987 159.903 48.138 162.215 48.138C164.564 48.138 164.943 47.9884 166.485 46.4502C167.875 45.0626 168.217 44.3439 168.403 42.4135C168.804 38.242 166.756 35.5961 164.707 37.6401C163.964 38.3815 163.886 38.7376 164.299 39.5058C165.161 41.1146 164.895 42.6902 163.588 43.7161C162.028 44.9402 161.75 44.9203 160.831 43.5207C159.269 41.1433 159.892 40.061 171.422 25.1222C172.792 23.3466 173.142 22.4897 173.142 20.9118C173.142 18.654 171.884 16.7005 169.956 15.9656C168.124 15.2672 163.653 15.4284 162.06 16.2502L160.653 16.9763L160.936 14.2732C161.114 12.5724 161.02 11.1996 160.682 10.5695C160.101 9.48632 158.409 9.20686 158.116 10.1455ZM62.492 14.3161C61.8632 14.6339 60.9255 15.5143 60.4083 16.2728C59.7356 17.2599 59.1646 17.6086 58.3997 17.5006C56.3341 17.2086 53.2235 20.4152 53.2193 22.8408C53.2175 23.8574 53.1939 23.8611 51.6089 23.1073C50.2967 22.4832 49.779 22.4431 48.7946 22.8907C47.418 23.5161 47.4949 24.3443 49.0007 25.0995C51.0477 26.1268 52.7299 28.2304 54.6339 32.1451C57.2264 37.4752 58.1738 38.7538 59.3975 38.5787C60.9154 38.3621 60.8353 37.1685 59.035 33.1914C56.6064 27.8248 56.0359 23.5452 57.5038 21.6934C58.3238 20.6582 58.6831 21.0698 59.7207 24.2339C61.2418 28.8715 63.6352 33.8621 64.4974 34.1919C66.3495 34.9009 67.4612 33.2995 66.4592 31.3645C65.0808 28.7025 62.4781 21.8065 62.4781 20.8171C62.4781 19.2217 63.4616 17.4206 64.333 17.4206C65.7221 17.4206 66.5361 18.9228 68.691 25.4594C71.266 33.2717 72.5421 35.5471 75.3425 37.3191C78.4712 39.2979 82.2342 39.0018 84.2151 36.6206C84.9763 35.7056 85.6296 35.6917 85.6296 36.5902C85.6296 36.9712 86.051 37.7034 86.5663 38.2175C87.3104 38.9598 87.6915 39.0512 88.4185 38.6632C89.62 38.0216 89.5737 37.1107 88.1462 33.2962C86.6335 29.2535 85.7449 28.3066 83.8534 28.721C80.7423 29.4027 78.573 32.6639 81.2308 32.6639C81.8675 32.6639 82.3884 32.8394 82.3884 33.0542C82.3884 33.8745 80.6372 34.9734 79.3296 34.9734C76.3028 34.9734 74.3585 32.1447 72.1879 24.5803C70.4432 18.5011 69.2587 16.1956 67.1556 14.7826C65.3864 13.5937 64.1654 13.4717 62.492 14.3161ZM198.667 50.3899C194.789 54.2931 194.904 54.8991 199.646 55.5536C201.611 55.8248 203.323 56.1514 203.452 56.2798C203.58 56.4077 202.856 57.3209 201.842 58.3085C198.875 61.1987 199.445 62.2159 204.439 62.9388C205.689 63.1198 206.888 63.3697 207.103 63.494C207.317 63.6182 206.621 64.6072 205.554 65.6918C202.755 68.5367 203.032 69.0194 208.798 71.3502C214.402 73.615 215.51 73.6848 215.51 71.7733C215.51 70.5682 215.226 70.3562 211.898 69.0744L208.286 67.6835L210.393 65.4368C213.492 62.1318 213.164 61.2708 208.564 60.6426C204.394 60.0726 204.408 60.0897 206.26 57.9311C208.787 54.9869 208.412 54.276 203.934 53.5074C201.897 53.1581 200.139 52.7905 200.028 52.6907C199.918 52.5909 200.623 51.6962 201.595 50.7026C202.726 49.5478 203.263 48.6346 203.084 48.1708C202.597 46.9024 201.667 47.3694 198.667 50.3899ZM20.5409 50.1672C16.676 51.9184 13.8853 57.2438 14.5424 61.6144C14.9623 64.4076 17.3891 67.0877 20.2826 67.9533C21.4614 68.3062 22.3708 68.8337 22.3037 69.1261C22.2361 69.418 21.6235 70.4975 20.9419 71.5248C19.6024 73.5443 19.8181 74.8058 21.5471 75.0566C22.7172 75.2266 27.9823 67.8337 27.9823 66.0202C27.9823 64.773 27.9679 64.7675 24.9726 64.8917C21.1433 65.0506 19.256 64.0339 18.4601 61.3839C17.7553 59.0383 18.4527 56.817 20.609 54.536C21.9981 53.0667 22.3833 52.8976 23.8159 53.13C26.0376 53.4893 28.0518 55.0174 29.1598 57.1842C30.6091 60.0185 31.7088 59.6855 34.6013 55.5347C37.1647 51.8569 37.4064 51.1188 36.3391 50.2351C35.3436 49.4106 33.9443 50.0573 32.8293 51.8574C32.2866 52.7332 31.7305 53.4501 31.5939 53.4501C31.4573 53.4501 30.604 52.8006 29.6978 52.0066C26.5316 49.2332 23.809 48.6863 20.5409 50.1672ZM34.0531 65.1231C30.3609 71.0352 27.21 76.2105 27.0511 76.623C26.7002 77.5353 28.5435 78.976 29.4288 78.4818C30.1201 78.0956 43.0489 57.7888 43.3822 56.5657C43.5036 56.1195 43.3447 55.4442 43.0289 55.0645C41.6209 53.372 40.8573 54.2279 34.0531 65.1231ZM186.611 57.6041C185.06 59.127 183.792 60.6911 183.792 61.08C183.792 61.9507 185.6 62.6778 187.874 62.7207C188.812 62.7387 189.952 62.8999 190.407 63.0792C191.155 63.3739 191.103 63.5766 189.841 65.2405C188.334 67.2272 188.062 68.4563 189.044 68.8323C189.387 68.9635 190.848 69.218 192.292 69.3977C193.736 69.5779 195.015 69.8832 195.135 70.0767C195.255 70.2698 194.602 71.4089 193.685 72.6071C192.286 74.4349 192.119 74.8825 192.65 75.3832C193.387 76.0756 203.688 78.7834 204.527 78.5044C205.373 78.2231 205.207 76.6392 204.281 76.1528C203.836 75.919 201.908 75.3592 199.998 74.9093C198.088 74.4594 196.449 74.0298 196.355 73.955C196.261 73.8797 196.946 72.93 197.878 71.844C200.288 69.0356 200.013 68.1427 196.526 67.4443C194.998 67.138 193.467 66.8262 193.125 66.7514C192.697 66.6572 192.956 66.0456 193.956 64.7933C194.768 63.7748 195.349 62.5531 195.273 62.0218C195.156 61.2112 194.661 61.0149 191.895 60.6841C190.113 60.4707 188.579 60.2222 188.486 60.1321C188.394 60.0416 189.043 59.0725 189.929 57.9792C190.815 56.8853 191.446 55.731 191.332 55.4132C190.896 54.2058 189.332 54.9319 186.611 57.6041ZM11.9952 96.2715C10.2269 97.4873 9.72314 98.3437 9.70739 100.163C9.68007 103.237 12.5073 103.99 12.9338 101.022C13.1403 99.5853 13.3343 99.3945 14.7253 99.262C16.5417 99.0887 18.5717 99.801 20.69 101.356C22.1166 102.403 23.5835 104.567 23.5835 105.623C23.5835 106.294 19.6857 106.211 13.8599 105.416C4.97522 104.203 2.13962 104.647 0.671346 107.479C-0.365843 109.48 -0.196837 111.655 1.1478 113.63C2.24102 115.235 2.27482 115.435 1.61084 116.38C0.0397719 118.619 1.34135 122.451 4.16862 123.909L5.63087 124.663L4.30568 125.349C2.38873 126.341 1.35802 127.382 1.35802 128.325C1.35802 129.754 2.26695 129.8 5.13774 128.515C7.51448 127.451 8.92209 127.202 14.7118 126.822C23.4858 126.246 23.5835 126.223 23.5835 124.793C23.5835 124.155 23.3233 123.542 23.0047 123.432C22.6866 123.322 19.2268 123.017 15.3175 122.753C7.77053 122.245 5.34194 121.572 4.79093 119.841C4.1839 117.933 5.57531 117.594 13.5246 117.71C21.2503 117.823 21.9263 117.66 21.655 115.746C21.5226 114.815 21.1595 114.609 19.1847 114.348C17.9114 114.18 14.6604 114.024 11.9605 114.002C7.65709 113.966 6.85744 113.831 5.47807 112.907C4.33207 112.139 3.8658 111.453 3.76069 110.382C3.63706 109.119 3.79217 108.868 4.86039 108.601C6.16058 108.275 11.0437 108.567 17.3326 109.346C19.3699 109.599 21.9129 109.679 22.9834 109.524C25.1407 109.213 24.9629 108.96 25.7801 113.499C26.0987 115.266 26.3321 115.599 27.3396 115.717C29.2964 115.946 29.6802 114.99 29.1445 111.221L28.6722 107.9L30.1266 106.679C32.5052 104.683 33.672 100.853 32.0866 100.247C31.5578 100.044 30.7457 100.628 29.395 102.181L27.4609 104.405L26.22 102.294C23.0807 96.9491 15.6092 93.7864 11.9952 96.2715ZM211.21 107.145C210.942 107.467 210.575 108.315 210.396 109.029L210.069 110.327L207.02 110.001C205.343 109.822 202.89 109.425 201.568 109.118C198.791 108.474 197.683 108.867 197.683 110.498C197.683 111.862 199.154 112.35 205.67 113.149L210.185 113.702V118.856C210.185 122.995 210.329 124.13 210.918 124.617C212.027 125.535 213.168 124.573 213.338 122.575C213.417 121.648 213.73 120.893 214.033 120.898C214.336 120.903 216.769 121.414 219.44 122.035C222.64 122.778 224.454 123.007 224.755 122.706C226.109 121.356 221.637 118.741 216.628 117.955L213.384 117.445L213.658 113.276L216.204 112.918C219.049 112.517 223.02 110.761 224.318 109.329C225.057 108.516 225.082 108.304 224.508 107.756C223.944 107.218 223.254 107.322 219.909 108.447C214.886 110.136 213.539 110.181 213.158 108.668C212.767 107.112 211.84 106.387 211.21 107.145ZM200.852 119.02C197.789 119.968 195.582 122.016 196.119 123.412C196.489 124.374 197.823 124.307 199.96 123.219C200.938 122.721 203.128 121.966 204.828 121.54C207.516 120.866 207.9 120.638 207.778 119.788C207.655 118.929 207.303 118.801 204.86 118.726C203.332 118.679 201.528 118.811 200.852 119.02ZM27.0942 146.441C25.9311 147.29 26.3279 148.805 27.7554 148.965C30.9938 149.328 31.906 150.135 30.9962 151.83C30.2766 153.172 27.9087 154.409 22.2629 156.393C14.3122 159.187 11.6299 161.553 11.1859 166.164C10.9057 169.071 11.8054 170.535 14.641 171.786C18.0989 173.312 21.7328 172.057 27.2572 167.429L30.2359 164.933L31.5379 166.412C33.9591 169.163 37.2989 169.597 39.9628 167.506C42.7192 165.344 42.533 160.501 39.6261 158.733C36.2405 156.673 32.5774 158.062 26.2316 163.812C24.2503 165.608 21.8101 167.494 20.8095 168.003C18.4082 169.225 15.449 169.241 14.8021 168.036C13.0421 164.754 15.6226 162.542 25.3402 159.001C31.7421 156.667 34.2452 154.511 34.5796 151.039C34.7912 148.844 34.6944 148.532 33.3998 147.24C32.2565 146.1 31.6046 145.833 29.9585 145.833C28.8417 145.833 27.5526 146.107 27.0942 146.441ZM207.075 154.01C204.792 154.451 202.942 158.241 204.112 160.082C204.74 161.07 206.23 160.513 206.409 159.224C206.724 156.964 208.456 156.185 209.921 157.645C210.986 158.708 210.809 160.496 209.511 161.79C206.94 164.355 200.913 162.584 188.74 155.685C187.021 154.711 186.331 154.533 185.73 154.909C184.077 155.942 184.557 157.144 187.359 158.993C193.869 163.288 199.07 167.748 201.087 170.764C202.8 173.326 201.178 176.957 198.44 176.691C197.223 176.573 196.964 176.334 196.835 175.212C196.719 174.192 196.995 173.622 197.993 172.818C199.209 171.84 199.249 171.708 198.546 170.992C197.841 170.275 197.677 170.275 196.179 170.983C193.196 172.396 192.576 175.997 194.938 178.198C196.855 179.984 199.013 180.346 201.245 179.254C205.855 177 206.325 172.073 202.446 166.673C201.667 165.588 201.672 165.577 202.769 165.924C204.8 166.567 208.736 166.278 210.292 165.371C214.634 162.841 214.661 156.118 210.337 154.316C209.506 153.969 208.662 153.714 208.463 153.749C208.264 153.783 207.64 153.901 207.075 154.01ZM37.8449 161.631C38.1505 161.936 38.4005 162.622 38.4005 163.155C38.4005 164.538 37.5212 165.234 35.7732 165.234C34.561 165.234 34.1147 164.959 33.547 163.865C32.858 162.535 32.8742 162.475 34.1142 161.804C35.676 160.959 37.1049 160.893 37.8449 161.631ZM55.7007 186.231C51.545 188.336 49.935 191.943 51.5992 195.419C53.3277 199.031 58.5169 200.205 61.1483 197.58C62.3989 196.332 62.5124 195.966 62.3859 193.586C62.2179 190.423 61.2673 189.455 59.7096 190.861C58.9989 191.503 58.8118 192.071 59.0118 192.979C59.5795 195.557 56.8342 196.412 54.9538 194.243C53.2096 192.23 54.7084 189.686 58.1483 188.822C61.9808 187.86 66.18 189.167 68.7948 192.138C70.0931 193.613 70.6228 194.688 71.5604 197.751C72.0966 199.502 73.3107 200.284 74.4011 199.581C76.213 198.413 74.2391 192.241 71.0303 189.039C68.5804 186.595 65.7138 185.438 61.552 185.214C58.509 185.05 57.7848 185.176 55.7007 186.231ZM155.519 186.171C150.331 187.61 147.363 192.054 148.58 196.563C149.461 199.827 153.674 202.51 155.983 201.277C157.847 200.283 156.856 198.03 154.555 198.03C151.692 198.03 150.912 194.038 153.255 191.376C156.578 187.601 162.878 188.129 164.637 192.329C165.236 193.759 165.232 194.225 164.6 196.335C163.794 199.025 163.041 200.047 160.486 201.918C158.271 203.539 157.107 205.416 156.422 208.471C155.801 211.241 156.53 215.328 157.727 215.787C159.103 216.313 159.714 215.138 159.725 211.946C159.739 207.658 160.913 205.209 163.519 204.029C166.03 202.892 168.966 202.894 172.216 204.035C175.459 205.172 176.384 205.188 176.384 204.106C176.384 202.382 172.892 200.39 169.203 200.01L166.757 199.758L167.403 198.216C170.371 191.131 163.338 184.003 155.519 186.171ZM48.433 198.8C48.263 198.969 48.1241 199.906 48.1241 200.883C48.1241 204.584 51.7316 209.676 55.7641 211.666C57.2199 212.385 58.5646 212.58 62.0489 212.58C66.1249 212.58 66.6384 212.476 68.4336 211.291C72.9241 208.327 73.4589 203.406 69.6176 200.392C67.0792 198.401 62.8536 198.763 61.3159 201.104C60.3097 202.635 60.2778 205.783 61.2483 207.724C61.6701 208.568 62.0151 209.33 62.0151 209.418C62.0151 209.971 59.5101 209.393 57.4334 208.36C54.5667 206.935 52.6447 204.537 51.8515 201.394C51.5464 200.186 51.0519 199.041 50.7523 198.851C50.0716 198.42 48.8414 198.392 48.433 198.8ZM101.951 199.022C100.631 200.341 101.274 201.596 103.804 202.641L106.235 203.646L106.089 211.149C105.963 217.611 106.047 218.739 106.691 219.272C107.322 219.795 107.556 219.773 108.197 219.134C108.8 218.534 109.027 216.921 109.297 211.321C109.485 207.441 109.654 204.213 109.673 204.15C109.692 204.087 110.437 204.035 111.328 204.035H112.948V221.463L109.823 221.69C106.719 221.915 102.342 223.425 101.355 224.611C100.983 225.058 100.99 225.494 101.381 226.223C101.979 227.337 102.35 227.305 106.466 225.789C109.615 224.629 111.76 224.586 116.08 225.594C118.499 226.158 119.585 226.238 119.946 225.877C120.811 225.014 119.949 223.6 118.032 222.738L116.19 221.909V212.51C116.19 205.211 116.321 203.111 116.779 203.111C117.666 203.111 120.82 200.369 120.82 199.598C120.82 198.414 119.664 198.42 116.066 199.625C111.862 201.033 109.853 201.078 106.466 199.84C105.065 199.329 103.607 198.805 103.225 198.677C102.843 198.549 102.27 198.705 101.951 199.022ZM67.9752 203.833C68.9809 205.109 68.854 206.122 67.6034 206.789C65.717 207.796 63.443 204.965 64.8145 203.316C65.6559 202.305 66.9348 202.514 67.9752 203.833Z" fill="#F45279"/>
</svg>
