<svg width="129" height="185" viewBox="0 0 129 185" fill="none" xmlns="http://www.w3.org/2000/svg">
<path fill-rule="evenodd" clip-rule="evenodd" d="M0.773624 1.582C-0.204376 4.13 0.076625 12.963 1.20162 15.066C2.01163 16.579 3.31662 17 7.20162 17H12.1666L12.1836 27.25C12.2226 49.973 15.3506 56.665 34.7446 75.522C47.0206 87.457 49.1666 89.992 49.1666 92.559C49.1666 96.191 47.1496 98.553 33.4546 110.957C16.9726 125.886 13.2856 133.476 12.4276 154.25L11.9016 167H7.06863C1.28863 167 0.166625 168.44 0.166625 175.852C0.166625 184.843 -6.51937 184 64.8136 184H128.248L127.957 175.75L127.667 167.5L122.417 167.198L117.167 166.895L117.15 157.698C117.117 140.428 112.796 127.876 103.673 118.547C100.92 115.731 94.5046 109.591 89.4166 104.903C76.2796 92.795 76.1576 93.479 94.6436 75.545C106.255 64.281 109.628 60.378 111.679 55.835C115.288 47.838 117.129 38.068 117.15 26.802L117.167 17.105L122.417 16.802L127.667 16.5L127.957 8.25L128.248 0H64.8136C7.89363 0 1.31862 0.162 0.773624 1.582ZM111.837 28.86C110.693 50.123 106.99 57.471 89.5956 72.992C77.5996 83.696 75.6096 86.106 74.6946 91.034C73.6966 96.414 77.1816 101.339 90.9066 113.941C101.612 123.77 103.615 126.127 106.882 132.739C110.535 140.129 110.627 140.596 111.009 153.649L111.399 167H64.1296H16.8606L17.4636 155.75C18.1536 142.878 20.4246 134.392 24.9356 127.836C26.6256 125.38 33.1056 118.675 39.3376 112.935C52.8906 100.452 52.8546 100.493 54.1916 95.738C55.5406 90.944 53.0366 84.747 48.0686 80.581C46.1976 79.013 40.4956 73.898 35.3976 69.216C21.3386 56.303 17.2416 46.299 17.1866 24.75L17.1666 17H64.8206H112.474L111.837 28.86ZM43.3626 49.987C36.9506 51.505 31.1666 54.18 31.1666 55.627C31.1666 56.432 37.4376 63.175 45.1026 70.613C55.4016 80.609 59.2156 84.968 59.7176 87.319C60.6116 91.5 61.9176 93 64.6666 93C67.4196 93 68.7216 91.5 69.6216 87.292C70.1296 84.914 73.7336 80.77 83.5356 71.292C98.2446 57.067 101.726 52.898 100.833 50.572C100.003 48.409 98.2416 48.592 92.0156 51.49C85.0386 54.738 78.0426 54.741 65.5696 51.5C55.8796 48.982 49.4546 48.545 43.3626 49.987ZM62.3366 102.17C62.5566 103.723 63.3336 104.5 64.6666 104.5C67.6446 104.5 67.3476 100.596 64.3366 100.17C62.3976 99.895 62.0616 100.231 62.3366 102.17ZM63.2276 110.962C61.3176 112.143 62.3926 115.5 64.6806 115.5C65.9426 115.5 66.7766 114.727 66.9696 113.377C67.2996 111.062 65.2286 109.726 63.2276 110.962ZM55.9126 122.022C40.3436 125.955 27.6806 140.517 27.6706 154.5L27.6666 160.5H64.6666H101.667L101.578 154.5C101.408 142.959 92.5466 130.489 80.4606 124.783C73.5826 121.536 62.6886 120.31 55.9126 122.022Z" fill="#495AB4"/>
<path fill-rule="evenodd" clip-rule="evenodd" d="M43.3629 49.987C36.9509 51.505 31.1669 54.18 31.1669 55.627C31.1669 56.432 37.4379 63.175 45.1029 70.613C55.4019 80.609 59.2159 84.968 59.7179 87.319C60.6119 91.5 61.9179 93 64.6669 93C67.4199 93 68.7219 91.5 69.6219 87.292C70.1299 84.914 73.7339 80.77 83.5359 71.292C98.2449 57.067 101.726 52.898 100.833 50.572C100.003 48.409 98.2419 48.592 92.0159 51.49C85.0389 54.738 78.0429 54.741 65.5699 51.5C55.8799 48.982 49.4549 48.545 43.3629 49.987ZM62.3369 102.17C62.5569 103.723 63.3339 104.5 64.6669 104.5C67.6449 104.5 67.3479 100.596 64.3369 100.17C62.3979 99.895 62.0619 100.231 62.3369 102.17ZM63.2279 110.962C61.3179 112.143 62.3929 115.5 64.6809 115.5C65.9429 115.5 66.7769 114.727 66.9699 113.377C67.2999 111.062 65.2289 109.726 63.2279 110.962ZM55.9129 122.022C40.3439 125.955 27.6809 140.517 27.6709 154.5L27.6669 160.5H64.6669H101.667L101.578 154.5C101.408 142.959 92.5469 130.489 80.4609 124.783C73.5829 121.536 62.6889 120.31 55.9129 122.022Z" fill="#F45279"/>
</svg>
