<svg width="144" height="138" viewBox="0 0 144 138" fill="none" xmlns="http://www.w3.org/2000/svg">
<path d="M63.8529 131.57C76.8444 131.543 89.5094 127.497 100.112 119.989C110.714 112.481 118.734 101.878 123.074 89.6322C127.413 77.3868 127.858 64.0989 124.349 51.5903C120.84 39.0818 113.548 27.9648 103.472 19.7634C93.3964 11.562 81.0308 6.67774 68.0703 5.78016C55.1098 4.88258 42.189 8.01564 31.079 14.7498C19.9691 21.484 11.214 31.4896 6.01389 43.395C0.813824 55.3005 -0.57664 68.5229 2.03313 81.2495L2.85966 81.0801C0.284853 68.5239 1.65668 55.4787 6.78708 43.7328C11.9175 31.9869 20.5553 22.1153 31.5164 15.4713C42.4774 8.82739 55.2252 5.73631 68.012 6.62187C80.7988 7.50742 92.9988 12.3262 102.939 20.4177C112.88 28.5092 120.075 39.4773 123.537 51.8183C126.999 64.1592 126.56 77.269 122.278 89.3504C117.997 101.432 110.084 111.893 99.6241 119.301C89.1639 126.708 76.6686 130.699 63.8511 130.726L63.8529 131.57Z" fill="#495AB4"/>
<g clip-path="url(#clip0_105_14968)">
<path d="M124.18 44.313C110.621 45.5995 103.324 61.7513 112.304 72.7812C112.304 72.7812 112.304 72.7812 112.302 72.7812C116.452 77.8991 123.382 80.4299 130.214 78.669C133.873 77.7242 137.037 75.6296 139.293 72.9058C149.137 61.0638 139.865 42.8174 124.18 44.313Z" fill="url(#paint0_radial_105_14968)"/>
<path d="M138.247 62.8971C137.674 69.1086 132.496 74.4215 125.628 74.4215C117.053 74.4215 110.987 66.0611 113.548 57.9521C114.43 55.1418 116.296 52.6774 118.837 51.0572C119.363 50.7235 119.919 50.4239 120.5 50.1646C127.086 47.2398 134.836 50.426 137.443 57.1942C138.174 59.0979 138.417 61.0377 138.247 62.8971Z" fill="url(#paint1_radial_105_14968)"/>
<path d="M131.596 72.9259C129.818 73.8787 127.785 74.4195 125.626 74.4195C120.707 74.4195 116.442 71.6112 114.347 67.5085C115.235 67.9628 116.872 68.6844 118.774 68.9799C121.534 69.4081 124.875 68.8472 126.445 69.6513C129.065 70.9921 129.49 72.5319 131.596 72.9259Z" fill="url(#paint2_linear_105_14968)"/>
<path d="M120.936 67.1165C118.499 67.2833 115.115 66.1295 113.54 65.5284C113.168 64.3344 112.967 63.066 112.967 61.7513C112.967 61.2789 112.993 60.8126 113.044 60.3542C113.731 61.1684 115.305 62.867 117.286 63.9123C119.967 65.3294 124.212 66.8934 120.936 67.1165Z" fill="url(#paint3_linear_105_14968)"/>
<path d="M136.486 68.2663C136.01 69.0603 135.448 69.7981 134.815 70.4675C133.19 70.0232 131.378 69.2191 129.91 67.9748C127.297 65.7616 126.931 64.7706 120.899 62.8328C116.691 61.4799 114.476 59.2587 113.521 58.0385C113.819 57.0656 114.231 56.1409 114.743 55.2826C115.938 56.5751 118.587 59.1079 121.944 60.298C126.562 61.9383 127.305 61.7875 131.475 65.5887C133.251 67.211 135.03 67.9507 136.486 68.2663Z" fill="url(#paint4_linear_105_14968)"/>
<path d="M138.287 61.7513C138.287 63.1725 138.054 64.5374 137.622 65.8119C136.398 65.7858 134.504 65.2812 132.365 63.0559C128.641 59.1803 123.131 58.4345 123.057 57.1681C122.983 55.9017 128.717 56.945 132.216 58.8828C134.733 60.2779 136.597 61.285 138.276 61.2407C138.283 61.4096 138.287 61.5805 138.287 61.7513Z" fill="url(#paint5_linear_105_14968)"/>
<path d="M120.452 54.7097C118.935 54.0021 117.175 53.8895 117.101 54.4865C117.027 55.0836 118.144 57.0194 120.154 56.6475C122.163 56.2736 121.568 55.2303 120.452 54.7097Z" fill="url(#paint6_linear_105_14968)"/>
<path d="M137.443 57.1942C135.563 56.0505 132.355 55.2665 127.378 54.1126C123.19 53.1417 121.324 51.413 120.5 50.1646C121.567 49.6923 122.71 49.3606 123.907 49.1978C124.823 50.0682 126.713 51.2602 130.579 52.2492C132.775 52.81 134.48 53.5036 135.786 54.191C136.467 55.1057 137.025 56.1148 137.443 57.1942Z" fill="url(#paint7_linear_105_14968)"/>
<path d="M131.397 69.9126C130.744 69.5528 128.492 68.2723 129.908 70.8816C130.465 71.9067 132.887 70.7328 131.397 69.9126Z" fill="url(#paint8_linear_105_14968)"/>
<path d="M128.344 68.5699C128.038 68.592 128.195 69.2413 128.492 69.3156C128.792 69.39 129.388 68.4955 128.344 68.5699Z" fill="url(#paint9_linear_105_14968)"/>
<path opacity="0.45" d="M137.62 65.8179C137.329 66.6803 136.947 67.4984 136.487 68.2663C136.011 69.0603 135.449 69.7981 134.816 70.4674C133.886 71.4504 132.799 72.2826 131.598 72.9259C129.82 73.8787 127.788 74.4195 125.628 74.4195C120.709 74.4195 116.445 71.6112 114.35 67.5085C114.026 66.8773 113.755 66.2159 113.542 65.5284C113.171 64.3344 112.97 63.066 112.97 61.7513C112.97 61.2789 112.996 60.8126 113.046 60.3542C113.132 59.5582 113.293 58.7823 113.522 58.0365C113.53 58.0084 113.54 57.9782 113.548 57.9501C115.388 55.9741 118.861 57.1078 120.603 59.7009C123.216 63.5967 129.463 75.2034 137.62 65.8179Z" fill="url(#paint10_linear_105_14968)"/>
<path opacity="0.55" d="M137.676 65.647C137.447 66.3928 137.023 67.3738 136.487 68.2663C130.78 77.7785 116.557 75.8185 113.479 65.3234C115.06 67.4823 117.183 69.1166 120.006 69.9126C130.065 72.743 135.219 68.9276 137.676 65.647Z" fill="url(#paint11_linear_105_14968)"/>
<path d="M137.443 57.1942C138.176 59.0959 138.417 61.0377 138.247 62.8971C137.861 59.6185 136.238 54.2875 129.983 51.8029C125.399 49.9817 121.561 50.2792 118.835 51.0572C119.361 50.7235 119.918 50.424 120.498 50.1646C127.087 47.2398 134.836 50.428 137.443 57.1942Z" fill="url(#paint12_linear_105_14968)"/>
</g>
<path d="M38.9862 4.23886C39.4405 3.40044 40.699 3.6133 40.8523 4.5545L41.4427 8.1777C41.4925 8.48328 41.681 8.74856 41.9532 8.89608L45.1807 10.6451C46.0192 11.0995 45.8063 12.358 44.8651 12.5113L41.2419 13.1017C40.9363 13.1515 40.671 13.34 40.5235 13.6122L38.7744 16.8397C38.3201 17.6781 37.0616 17.4653 36.9083 16.5241L36.3179 12.9009C36.2681 12.5953 36.0796 12.33 35.8074 12.1825L32.5799 10.4334C31.7414 9.97908 31.9543 8.72062 32.8955 8.56726L36.5187 7.9769C36.8243 7.92711 37.0896 7.73858 37.2371 7.46638L38.9862 4.23886Z" fill="#F45279"/>
<path d="M68.0909 124.537C68.5453 123.698 69.8037 123.911 69.9571 124.852L70.3566 127.304C70.4064 127.61 70.5949 127.875 70.8671 128.022L73.0512 129.206C73.8896 129.66 73.6768 130.919 72.7356 131.072L70.2837 131.472C69.9781 131.521 69.7129 131.71 69.5653 131.982L68.3817 134.166C67.9274 135.005 66.6689 134.792 66.5156 133.851L66.1161 131.399C66.0663 131.093 65.8777 130.828 65.6055 130.68L63.4215 129.497C62.583 129.042 62.7959 127.784 63.7371 127.631L66.1889 127.231C66.4945 127.181 66.7598 126.993 66.9073 126.721L68.0909 124.537Z" fill="#F45279"/>
<defs>
<radialGradient id="paint0_radial_105_14968" cx="0" cy="0" r="1" gradientUnits="userSpaceOnUse" gradientTransform="translate(125.846 61.7261) scale(14.9846 14.9959)">
<stop stop-color="#90DDEF"/>
<stop offset="1" stop-color="#A6D6F9" stop-opacity="0"/>
</radialGradient>
<radialGradient id="paint1_radial_105_14968" cx="0" cy="0" r="1" gradientUnits="userSpaceOnUse" gradientTransform="translate(125.291 56.8302) scale(12.6653 12.6749)">
<stop stop-color="#A0E2EA"/>
<stop offset="1" stop-color="#018ED9"/>
</radialGradient>
<linearGradient id="paint2_linear_105_14968" x1="126.195" y1="78.4193" x2="115.682" y2="51.7095" gradientUnits="userSpaceOnUse">
<stop stop-color="#7E31A6"/>
<stop offset="1" stop-color="#7731B1" stop-opacity="0.2"/>
</linearGradient>
<linearGradient id="paint3_linear_105_14968" x1="123.148" y1="79.6188" x2="112.635" y2="52.909" gradientUnits="userSpaceOnUse">
<stop stop-color="#7E31A6"/>
<stop offset="1" stop-color="#7731B1" stop-opacity="0.2"/>
</linearGradient>
<linearGradient id="paint4_linear_105_14968" x1="130.359" y1="76.7804" x2="119.846" y2="50.0705" gradientUnits="userSpaceOnUse">
<stop stop-color="#7E31A6"/>
<stop offset="1" stop-color="#7731B1" stop-opacity="0.2"/>
</linearGradient>
<linearGradient id="paint5_linear_105_14968" x1="136.597" y1="74.3251" x2="126.084" y2="47.6152" gradientUnits="userSpaceOnUse">
<stop stop-color="#7E31A6"/>
<stop offset="1" stop-color="#7731B1" stop-opacity="0.2"/>
</linearGradient>
<linearGradient id="paint6_linear_105_14968" x1="128.115" y1="77.6635" x2="117.602" y2="50.9537" gradientUnits="userSpaceOnUse">
<stop stop-color="#7E31A6"/>
<stop offset="1" stop-color="#7731B1" stop-opacity="0.2"/>
</linearGradient>
<linearGradient id="paint7_linear_105_14968" x1="137.019" y1="74.1589" x2="126.506" y2="47.449" gradientUnits="userSpaceOnUse">
<stop stop-color="#7E31A6"/>
<stop offset="1" stop-color="#7731B1" stop-opacity="0.2"/>
</linearGradient>
<linearGradient id="paint8_linear_105_14968" x1="132.882" y1="75.7872" x2="122.369" y2="49.0774" gradientUnits="userSpaceOnUse">
<stop stop-color="#7E31A6"/>
<stop offset="1" stop-color="#7731B1" stop-opacity="0.2"/>
</linearGradient>
<linearGradient id="paint9_linear_105_14968" x1="131.495" y1="76.3332" x2="120.982" y2="49.6234" gradientUnits="userSpaceOnUse">
<stop stop-color="#7E31A6"/>
<stop offset="1" stop-color="#7731B1" stop-opacity="0.2"/>
</linearGradient>
<linearGradient id="paint10_linear_105_14968" x1="122.928" y1="74.8103" x2="126.673" y2="56.3701" gradientUnits="userSpaceOnUse">
<stop stop-color="#6D31A3"/>
<stop offset="1" stop-color="#B842B5" stop-opacity="0.3"/>
</linearGradient>
<linearGradient id="paint11_linear_105_14968" x1="126.904" y1="77.5071" x2="125.487" y2="64.6894" gradientUnits="userSpaceOnUse">
<stop stop-color="#471AA3"/>
<stop offset="1" stop-color="#4C2EA3" stop-opacity="0.1"/>
</linearGradient>
<linearGradient id="paint12_linear_105_14968" x1="141.489" y1="41.0557" x2="127.476" y2="58.2602" gradientUnits="userSpaceOnUse">
<stop stop-color="#A4F6F6"/>
<stop offset="1" stop-color="#B5F4F9" stop-opacity="0"/>
</linearGradient>
<clipPath id="clip0_105_14968">
<rect width="35" height="35" fill="white" transform="translate(108.346 44.2266)"/>
</clipPath>
</defs>
</svg>
