<svg width="360" height="361" viewBox="0 0 360 361" fill="none" xmlns="http://www.w3.org/2000/svg">
<path d="M221.252 42.2858C192.69 33.7434 162.185 34.2442 133.918 43.7197C105.652 53.1951 81.0086 71.1814 63.366 95.2127C45.7235 119.244 35.9456 148.144 35.3729 177.95C34.8001 207.757 43.4605 237.011 60.1669 261.703C76.8732 286.394 100.808 305.314 128.689 315.868C156.57 326.422 187.034 328.095 215.903 320.656C244.772 313.217 270.633 297.031 289.942 274.317C309.251 251.603 321.062 223.472 323.755 193.782L321.827 193.607C319.17 222.899 307.517 250.653 288.467 273.063C269.417 295.473 243.902 311.442 215.42 318.781C186.937 326.12 156.882 324.47 129.374 314.057C101.867 303.644 78.2529 284.978 61.7704 260.618C45.2879 236.257 36.7436 207.395 37.3086 177.988C37.8737 148.58 47.5206 120.068 64.9267 96.3585C82.3329 72.6492 106.646 54.9039 134.534 45.5554C162.421 36.2069 192.518 35.7128 220.697 44.1407L221.252 42.2858Z" fill="#495AB4"/>
<path d="M120.302 39.5276C121.228 37.9182 123.656 38.3289 124.001 40.1532L124.962 45.2394C125.071 45.813 125.424 46.3105 125.93 46.6015L130.417 49.1823C132.027 50.108 131.616 52.5363 129.792 52.8812L124.706 53.8428C124.132 53.9513 123.634 54.3049 123.343 54.8108L120.763 59.2979C119.837 60.9073 117.409 60.4966 117.064 58.6723L116.102 53.5861C115.994 53.0125 115.64 52.515 115.134 52.2239L110.647 49.6431C109.038 48.7175 109.448 46.2892 111.273 45.9443L116.359 44.9827C116.932 44.8742 117.43 44.5206 117.721 44.0146L120.302 39.5276Z" fill="#F45279"/>
<path d="M29.6843 191.964C28.764 191.842 28.4921 190.641 29.2701 190.134L33.5576 187.343C33.8022 187.184 33.965 186.926 34.0034 186.636L34.6753 181.564C34.7972 180.644 35.9982 180.372 36.5047 181.15L39.296 185.438C39.4553 185.682 39.7134 185.845 40.0027 185.883L45.0746 186.555C45.9948 186.677 46.2668 187.878 45.4888 188.385L41.2013 191.176C40.9567 191.335 40.7939 191.594 40.7555 191.883L40.0836 196.955C39.9617 197.875 38.7607 198.147 38.2542 197.369L35.4629 193.081C35.3036 192.837 35.0455 192.674 34.7561 192.636L29.6843 191.964Z" fill="#F45279"/>
<path d="M277.151 275.04C276.643 274.263 277.375 273.273 278.267 273.532L283.18 274.957C283.46 275.039 283.762 274.993 284.007 274.834L288.287 272.032C289.064 271.523 290.054 272.256 289.795 273.147L288.37 278.061C288.288 278.341 288.333 278.643 288.493 278.887L291.295 283.168C291.804 283.944 291.071 284.934 290.18 284.676L285.266 283.25C284.986 283.169 284.684 283.214 284.44 283.374L280.159 286.175C279.383 286.684 278.393 285.952 278.651 285.06L280.077 280.147C280.158 279.866 280.113 279.565 279.953 279.32L277.151 275.04Z" fill="#F45279"/>
<g clip-path="url(#clip0_105_14994)">
<path d="M56.9682 119.02C58.2452 115.375 58.4273 112.729 57.2182 111.865C55.9259 110.938 53.2853 112.221 50.0567 115.049C50.0806 115.06 50.1029 115.071 50.1251 115.083C44.4534 112.381 37.7344 112.967 32.7615 116.924C27.0964 121.432 25.2413 129.072 27.7633 135.768C27.7481 135.729 27.7316 135.689 27.7179 135.649C21.2997 141.834 22.5109 145.197 30.9706 142.999C29.6935 146.644 29.5115 149.289 30.7206 150.154C32.1222 151.159 35.1082 149.564 38.7123 146.22C41.6853 147.173 44.8062 147.276 47.7211 146.569C49.9297 146.034 52.0485 145.027 53.9316 143.529C58.9045 139.572 61.0079 133.13 59.6081 126.945C59.8042 126.722 65.481 121.737 64.0879 119.377C63.3297 118.095 60.6918 118.052 56.9682 119.02ZM50.4242 115.228C53.0421 112.909 55.1063 111.847 56.0786 112.544C57.6637 113.679 55.5125 118.774 55.4411 119.023C53.9487 117.392 52.2085 116.108 50.3306 115.182C50.3613 115.197 50.3935 115.212 50.4242 115.228ZM27.8634 136.03C27.8069 135.891 28.5979 138.166 30.4469 140.489C30.7362 140.853 30.9954 141.149 31.2493 141.426C31.2493 141.426 31.2493 141.426 31.2477 141.427C23.8213 143.673 22.1956 141.431 27.8634 136.03ZM30.9656 148.835C30.0302 148.165 30.2596 145.977 31.4021 142.883C31.9393 142.733 32.2984 142.624 32.4175 142.588C33.8559 143.89 35.4697 144.912 37.1804 145.647C37.0253 145.765 32.6409 150.035 30.9656 148.835ZM62.7588 119.512C63.7929 121.265 59.3184 125.199 59.1704 125.365C58.55 123.484 57.6364 121.785 56.4971 120.285C56.5875 120.05 56.6805 119.818 56.8169 119.442C59.9815 118.564 62.1728 118.518 62.7588 119.512Z" fill="url(#paint0_radial_105_14994)"/>
<path d="M54.0793 121.685C54.3868 122.071 54.6713 122.468 54.9329 122.875C55.1922 123.276 55.4285 123.687 55.645 124.106C56.1599 125.108 56.548 126.15 56.81 127.209C57.082 128.3 57.2202 129.412 57.2304 130.517C57.2411 131.645 57.1149 132.767 56.8555 133.859C56.5048 135.344 55.9081 136.771 55.0721 138.07C54.3029 139.27 53.3262 140.363 52.1528 141.297C50.5857 142.543 48.8217 143.38 46.9849 143.825C45.1091 144.28 43.1593 144.326 41.2626 143.979C38.2256 143.425 35.3285 141.863 33.116 139.366C32.9433 139.172 32.7756 138.971 32.6114 138.765C31.8348 137.789 31.204 136.745 30.7162 135.659C30.3509 134.848 30.0683 134.014 29.8612 133.171C28.6202 128.069 30.2592 122.555 34.535 119.153C38.0805 116.331 42.637 115.602 46.7647 116.781C47.4296 116.971 48.0852 117.212 48.723 117.499C50.4848 118.295 52.1177 119.464 53.4915 120.992C53.6948 121.218 53.8903 121.447 54.0793 121.685Z" fill="url(#paint1_radial_105_14994)"/>
<path d="M43.332 139.581C43.3203 139.595 43.3086 139.61 43.2969 139.625C42.9696 139.992 42.4933 139.521 42.2552 138.964C42.0732 138.536 42.0285 138.037 42.2292 137.872C42.2898 137.821 42.3736 137.803 42.4826 137.826C43.8015 138.108 43.6381 139.177 43.332 139.581Z" fill="#3D3789"/>
<path d="M46.9878 143.826C45.112 144.281 43.1622 144.327 41.2655 143.98C41.3876 143.765 41.5617 143.557 41.7992 143.36C41.8661 143.304 41.9389 143.249 42.0158 143.196C44.0143 141.819 45.0616 143.005 46.0851 143.255C46.3167 143.312 46.491 143.384 46.6251 143.465C46.8244 143.581 46.93 143.714 46.9878 143.826Z" fill="#4A3E9E"/>
<g opacity="0.75">
<path d="M48.5167 140.999C46.946 140.85 45.72 141.366 45.219 140.655C45.187 140.608 45.1581 140.559 45.1315 140.502C44.6989 139.571 47.1376 138.735 48.0355 138.192C49.1495 137.519 50.0339 136.815 51.3109 138.032C52.5878 139.249 50.1887 141.158 48.5167 140.999Z" fill="#4A3E9E"/>
<path d="M52.5867 133.933C52.0417 134.744 51.0232 135.263 50.4733 134.96C50.4039 134.921 50.3417 134.869 50.2896 134.804C49.8231 134.218 51.1178 133.091 51.2915 132.306C51.4603 131.54 51.6641 130.926 51.9693 130.635C52.2308 130.387 52.5667 130.379 53.018 130.718C54.0483 131.495 53.2004 133.02 52.5867 133.933Z" fill="#4A3E9E"/>
<path d="M50.806 123.014C50.5883 123.561 50.2525 124.149 49.8665 123.876C49.7022 123.761 49.5295 123.492 49.3538 123C48.8985 121.734 49.4551 120.537 50.1667 120.281C50.3838 120.202 50.6158 120.21 50.8366 120.331C52.1067 121.021 51.1151 122.235 50.806 123.014Z" fill="#4A3E9E"/>
<path d="M39.5266 138.354C39.5245 138.361 39.5223 138.368 39.5202 138.375C38.8698 139.976 36.0679 139.739 35.7285 139.052C35.6725 138.936 35.6409 138.841 35.6347 138.755C35.6044 138.332 36.1828 138.196 37.2152 137.551C38.4454 136.783 39.8829 137.423 39.5266 138.354Z" fill="#4A3E9E"/>
<path d="M34.0696 136.97C34.0489 137.032 34.0232 137.085 33.9939 137.129C33.6949 137.581 33.0191 136.98 32.42 136.582C31.8661 136.215 31.8862 135.921 32.1194 135.797C32.1627 135.773 32.2141 135.756 32.2695 135.744C33.1594 135.566 34.3152 136.243 34.0696 136.97Z" fill="#4A3E9E"/>
<path d="M56.8551 133.859C56.5044 135.344 55.9077 136.771 55.0717 138.07C54.9866 138.057 54.9007 138.037 54.8189 138.006C54.4936 137.891 54.2128 137.619 54.141 137.053C53.9767 135.775 54.8072 135.56 55.5407 134.664C55.8136 134.329 56.0721 134.126 56.3077 134.008C56.5126 133.904 56.6994 133.865 56.8551 133.859Z" fill="#4A3E9E"/>
<path d="M55.6448 124.106C56.6894 126.139 57.2112 128.339 57.2302 130.517C57.0497 130.551 56.8611 130.548 56.6661 130.492C56.6603 130.492 56.6532 130.489 56.649 130.487C55.2913 130.078 55.5656 128.477 54.6483 126.549C54.0925 125.381 54.6188 124.716 55.1206 124.376C55.3232 124.236 55.5232 124.151 55.6448 124.106Z" fill="#4A3E9E"/>
<path d="M54.0788 121.685C54.3863 122.071 54.6709 122.468 54.9325 122.875C54.8014 122.958 54.6481 123.013 54.4827 122.968C54.4258 122.952 54.3684 122.925 54.3082 122.882C53.8189 122.528 53.5138 123.057 53.2974 122.518C53.0856 121.991 53.1573 121.589 53.2787 121.321C53.3477 121.17 53.4332 121.059 53.4937 120.995C53.6943 121.218 53.8899 121.447 54.0788 121.685Z" fill="#4A3E9E"/>
<path d="M48.3523 134.963C48.3536 134.965 48.3549 134.966 48.3546 134.969C48.6841 135.654 47.2335 136.474 46.7907 136.631C46.307 136.802 44.9345 136.885 44.6928 136.067C44.6072 135.777 44.6793 135.594 44.8459 135.477C45.2632 135.177 46.2716 135.297 46.7095 135.101C47.5348 134.731 48.0921 134.437 48.3523 134.963Z" fill="#4A3E9E"/>
<path d="M39.6217 141.485C39.6401 141.596 39.6378 141.694 39.6145 141.782C39.5056 142.205 38.9432 142.343 38.3185 142.31C37.7986 142.283 37.3096 141.926 37.349 141.688C37.3653 141.582 37.4891 141.499 37.7604 141.479C38.639 141.416 39.5107 140.827 39.6217 141.485Z" fill="#4A3E9E"/>
<path d="M53.4211 129.833C53.3575 130.183 52.9793 130.203 52.6809 130.082C52.5781 130.041 52.4869 129.985 52.4188 129.919C52.1513 129.661 52.1514 129.482 52.7333 129.369C52.9825 129.321 53.1617 129.315 53.2771 129.362C53.4247 129.424 53.4689 129.57 53.4211 129.833Z" fill="#4A3E9E"/>
<path d="M51.6629 127.33C51.6545 127.326 51.6432 127.322 51.6348 127.318C51.0691 127.056 51.6908 126.449 51.6847 125.93C51.6794 125.477 51.819 124.711 52.2539 124.768C52.3233 124.777 52.4022 124.808 52.4873 124.866C53.5783 125.592 52.2776 127.584 51.6629 127.33Z" fill="#4A3E9E"/>
<path d="M52.626 138.261C52.4951 138.328 52.2564 138.374 51.8919 138.075C51.8582 138.046 51.819 138.013 51.7817 137.976C51.3559 137.571 50.9416 137.05 51.194 136.849C51.321 136.748 51.6833 137.204 52.4882 137.309C52.5749 137.321 52.6462 137.355 52.7029 137.403C52.9499 137.616 52.9249 138.109 52.626 138.261Z" fill="#4A3E9E"/>
<path d="M49.485 130.954C49.3611 131.023 49.2235 131.068 49.0826 131.087C48.1687 131.196 47.79 129.283 48.8097 129.304C48.8418 129.305 48.8723 129.307 48.907 129.312C50.4696 129.513 50.1829 130.57 49.485 130.954Z" fill="#4A3E9E"/>
<path d="M43.3321 139.581C43.1971 139.554 43.0531 139.5 42.9124 139.399C42.5215 139.116 42.3035 138.22 42.2309 137.871C42.2915 137.82 42.3753 137.801 42.4843 137.824C43.8017 138.108 43.6382 139.177 43.3321 139.581Z" fill="#4A3E9E"/>
</g>
<g opacity="0.7">
<path d="M43.7883 138.169C43.6613 138.27 44.0137 138.84 44.1913 138.806C44.3704 138.771 44.2932 137.768 43.7883 138.169Z" fill="#3D3789"/>
<path d="M48.8115 119.011C48.2194 119.392 48.8304 120.026 49.4525 119.758C50.0745 119.491 49.8614 118.336 48.8115 119.011Z" fill="#3D3789"/>
<path d="M54.9926 132.551C54.6528 132.821 54.8838 133.063 55.4069 133.072C55.9285 133.082 56.1913 131.597 54.9926 132.551Z" fill="#3D3789"/>
<path d="M34.8778 136.431C34.5949 136.943 35.1651 137.053 35.5854 136.933C36.0058 136.81 35.3026 135.668 34.8778 136.431Z" fill="#3D3789"/>
<path d="M31.1518 134.079C30.9378 134.335 31.387 134.636 31.8186 134.399C32.2486 134.164 31.6792 133.448 31.1518 134.079Z" fill="#3D3789"/>
<path d="M47.9241 117.968C47.6602 118.285 48.557 118.633 48.6023 118.172C48.6475 117.711 48.1879 117.651 47.9241 117.968Z" fill="#3D3789"/>
<path d="M43.3114 134.719C43.158 135.103 43.9443 135.384 44.2827 134.903C44.6228 134.422 43.6205 133.941 43.3114 134.719Z" fill="#3D3789"/>
</g>
<path d="M52.703 137.403C52.9499 137.616 52.925 138.109 52.626 138.261C52.4951 138.328 52.2564 138.374 51.8919 138.075C52.3511 137.991 52.5827 137.689 52.703 137.403Z" fill="#3D3789"/>
<path d="M32.4185 136.58C31.8646 136.213 31.8847 135.919 32.1179 135.795C32.2749 136.403 33.4437 136.917 33.9941 137.127C33.6934 137.58 33.0177 136.978 32.4185 136.58Z" fill="#3D3789"/>
<path d="M39.6134 141.78C39.5045 142.204 38.9421 142.341 38.3173 142.309C37.7975 142.281 37.3085 141.924 37.3479 141.687C38.0551 142.266 39.0604 142.001 39.6134 141.78Z" fill="#3D3789"/>
<path d="M39.5269 138.354C39.5248 138.361 39.5226 138.368 39.5205 138.375C38.8701 139.976 36.0682 139.739 35.7288 139.052C35.6728 138.936 35.6412 138.841 35.635 138.755C36.0067 138.86 36.5426 138.947 37.3093 138.966C38.4994 138.995 39.1671 138.664 39.5269 138.354Z" fill="#3D3789"/>
<path d="M44.6928 136.067C44.6071 135.777 44.6793 135.594 44.8459 135.477C44.869 135.972 45.1149 136.434 45.9349 136.461C47.2162 136.501 48.0052 135.531 48.3546 134.969C48.684 135.654 47.2335 136.474 46.7907 136.631C46.3085 136.8 44.9361 136.884 44.6928 136.067Z" fill="#3D3789"/>
<path d="M51.3108 138.032C52.5878 139.249 50.1887 141.158 48.5166 140.999C46.946 140.85 45.72 141.366 45.2189 140.655C46.1139 140.544 47.7327 140.545 49.4531 140.361C51.922 140.097 51.3108 138.032 51.3108 138.032Z" fill="#3D3789"/>
<path d="M49.4848 130.954C49.9374 130.369 49.2346 129.655 48.8095 129.304C48.8416 129.305 48.8721 129.307 48.9068 129.312C50.4694 129.513 50.1827 130.57 49.4848 130.954Z" fill="#3D3789"/>
<path d="M53.0181 130.718C54.0471 131.493 53.2005 133.02 52.5868 133.933C52.0418 134.744 51.0233 135.263 50.4734 134.96C50.7621 134.912 51.1437 134.811 51.4728 134.606C52.0933 134.219 53.2119 132.904 52.9275 131.64C52.7649 130.911 52.3167 130.69 51.9694 130.635C52.2309 130.387 52.5656 130.377 53.0181 130.718Z" fill="#3D3789"/>
<path d="M53.277 129.365C53.4249 129.424 53.4704 129.572 53.4226 129.835C53.359 130.185 52.9808 130.205 52.6824 130.084C53.1074 129.989 53.2391 129.617 53.277 129.365Z" fill="#3D3789"/>
<path d="M52.4858 124.867C53.5784 125.592 52.2761 127.586 51.6614 127.331C51.653 127.327 51.6418 127.323 51.6334 127.319C52.922 126.09 52.6343 125.233 52.2509 124.771C52.3218 124.779 52.4008 124.809 52.4858 124.867Z" fill="#3D3789"/>
<path d="M50.8059 123.014C50.5882 123.561 50.2524 124.149 49.8664 123.876C49.9908 123.071 50.9754 122.093 51.1563 121.248C51.3003 120.572 50.6353 120.352 50.1695 120.281C50.3866 120.202 50.6185 120.21 50.8394 120.331C52.1066 121.021 51.115 122.235 50.8059 123.014Z" fill="#3D3789"/>
<path d="M46.6237 143.463C46.8243 143.581 46.9314 143.713 46.9863 143.824C45.1105 144.279 43.1607 144.325 41.2641 143.978C41.3862 143.763 41.5603 143.555 41.7977 143.358C42.2985 143.505 42.9561 143.651 43.8203 143.779C44.6399 143.9 45.6073 143.766 46.6237 143.463Z" fill="#3D3789"/>
<path d="M56.3077 134.011C56.5145 133.903 56.6997 133.865 56.8567 133.86C56.506 135.345 55.9093 136.772 55.0733 138.071C54.9882 138.059 54.9023 138.039 54.8205 138.008C55.6684 136.616 56.1188 134.891 56.3077 134.011Z" fill="#3D3789"/>
<path d="M55.645 124.106C56.6896 126.139 57.2114 128.339 57.2304 130.517C57.0499 130.551 56.8613 130.548 56.6663 130.492C56.9888 128.31 55.5545 125.237 55.1224 124.374C55.3234 124.236 55.5234 124.152 55.645 124.106Z" fill="#3D3789"/>
<path d="M54.079 121.685C54.3865 122.071 54.671 122.468 54.9326 122.875C54.8015 122.958 54.6483 123.013 54.4829 122.968C54.478 122.317 53.6958 121.637 53.2789 121.321C53.3479 121.17 53.4334 121.059 53.4938 120.995C53.6945 121.218 53.89 121.447 54.079 121.685Z" fill="#3D3789"/>
<path opacity="0.35" d="M54.0792 121.685C54.3868 122.071 54.6713 122.468 54.9329 122.875C55.1922 123.276 55.4285 123.687 55.645 124.106C56.6896 126.139 57.2114 128.339 57.2303 130.517C57.2411 131.645 57.1149 132.767 56.8555 133.859C56.5048 135.344 55.908 136.771 55.0721 138.07C54.3029 139.27 53.3261 140.363 52.1528 141.297C50.5857 142.543 48.8217 143.38 46.9849 143.825C45.1091 144.28 43.1593 144.326 41.2626 143.979C38.2256 143.425 35.3285 141.863 33.1159 139.366C43.5643 146.373 60.5678 130.292 48.7243 117.5C50.486 118.297 52.119 119.466 53.4928 120.993C53.6947 121.218 53.8903 121.447 54.0792 121.685Z" fill="url(#paint2_linear_105_14994)"/>
<path opacity="0.55" d="M56.81 127.209C57.082 128.3 57.2202 129.412 57.2304 130.517C57.2412 131.645 57.1149 132.767 56.8555 133.859C56.5048 135.344 55.9081 136.771 55.0721 138.07C54.3029 139.27 53.3262 140.363 52.1528 141.297C50.5857 142.543 48.8217 143.38 46.9849 143.825C45.1091 144.28 43.1593 144.326 41.2627 143.979C38.2257 143.425 35.3285 141.863 33.116 139.366C32.9433 139.172 32.7757 138.971 32.6115 138.765C31.8349 137.789 31.204 136.745 30.7163 135.659C36.5885 138.555 49.5384 142.625 56.81 127.209Z" fill="url(#paint3_linear_105_14994)"/>
<path d="M54.6817 120.901C54.3527 120.986 54.014 121.082 53.6642 121.186C53.5284 121.227 53.3897 121.268 53.2508 121.312C53.1985 121.442 53.1446 121.573 53.0863 121.705C53.3603 121.612 53.6277 121.528 53.8874 121.447C54.1152 121.378 54.3382 121.313 54.5549 121.253C57.1898 120.52 59.0115 120.483 59.4996 121.311C60.0355 122.219 58.8618 124.006 56.5141 126.182C54.6622 127.899 52.0768 129.857 49.0267 131.821C48.1457 132.386 47.2263 132.955 46.2754 133.516C46.0656 133.64 45.8529 133.764 45.6374 133.887C41.3233 136.381 37.1943 138.274 33.9803 139.328C33.8442 139.372 33.7098 139.415 33.5769 139.456C33.4756 139.489 33.3775 139.519 33.2779 139.55C30.3377 140.44 28.2856 140.543 27.7635 139.659C27.2489 138.787 28.3063 137.112 30.4618 135.059C30.4194 134.954 30.3787 134.847 30.3408 134.741C27.7219 137.264 26.4417 139.406 27.1233 140.559C27.7532 141.627 29.9484 141.662 33.0484 140.858C33.167 140.828 33.2859 140.795 33.4077 140.762C33.6816 140.686 33.9647 140.605 34.25 140.517C37.1412 139.634 40.6584 138.13 44.359 136.129C45.005 135.781 45.6586 135.416 46.3135 135.037C46.6099 134.865 46.9019 134.694 47.1912 134.52C51.1182 132.182 54.4798 129.713 56.878 127.5C59.8362 124.771 61.3278 122.429 60.6036 121.203C59.9769 120.132 57.7804 120.096 54.6817 120.901Z" fill="url(#paint4_linear_105_14994)"/>
<path d="M46.7674 116.784C44.7939 116.579 39.8309 116.022 34.6428 121.038C29.9428 125.585 29.6988 130.815 29.8626 133.172C28.6216 128.07 30.2606 122.557 34.5364 119.154C38.0832 116.335 42.6397 115.605 46.7674 116.784Z" fill="url(#paint5_linear_105_14994)"/>
</g>
<g clip-path="url(#clip1_105_14994)">
<path d="M199.068 305.2C188.92 312.415 190.524 328.539 202.676 333.17C208.3 335.326 214.945 334.163 219.55 329.645C222.017 327.223 223.565 324.121 224.104 320.933C226.487 307.057 210.805 296.844 199.068 305.2Z" fill="url(#paint6_radial_105_14994)"/>
<path d="M219.037 312.022C219.398 312.648 219.698 313.294 219.938 313.949C220.067 314.301 220.18 314.656 220.277 315.014C220.805 316.981 220.825 319.015 220.389 320.942C220.231 321.641 220.012 322.326 219.733 322.989C219.478 323.6 219.172 324.194 218.819 324.762C218.341 325.53 217.775 326.249 217.126 326.906C216.368 327.673 215.495 328.349 214.517 328.914C214.068 329.173 213.61 329.4 213.146 329.596C209.262 331.241 204.889 330.747 201.51 328.51C200.192 327.639 199.027 326.505 198.099 325.13C197.933 324.887 197.776 324.636 197.628 324.379C196.695 322.763 196.168 321.025 196.014 319.281C195.877 317.723 196.04 316.161 196.478 314.681C196.882 313.312 197.523 312.011 198.383 310.846C199.363 309.518 200.628 308.365 202.147 307.488C206.763 304.824 212.383 305.476 216.252 308.708C217.215 309.513 218.069 310.476 218.775 311.59C218.864 311.73 218.951 311.874 219.037 312.022Z" fill="url(#paint7_radial_105_14994)"/>
<path d="M201.508 328.511C201.351 328.407 201.193 328.297 201.04 328.185C199.919 327.367 198.925 326.35 198.109 325.149C198.105 325.142 198.103 325.137 198.096 325.132C198.296 324.978 198.65 324.906 199.218 325.391C199.955 326.022 202.373 327.202 201.508 328.511Z" fill="#BCBCBC"/>
<path d="M208.865 321.837C208.901 321.932 208.918 322.032 208.917 322.133C208.929 322.942 207.915 323.928 206.46 324.464C205.192 324.929 203.958 324.914 203.319 324.492C203.132 324.368 202.997 324.21 202.926 324.016C202.614 323.167 203.802 322.233 205.444 321.634C207.083 321.03 208.553 320.987 208.865 321.837Z" fill="#BCBCBC"/>
<path d="M202.748 318.566L202.747 318.57C202.709 319.188 201.549 319.312 200.068 319.228C198.86 319.16 197.904 318.95 197.611 318.539C197.544 318.445 197.511 318.339 197.516 318.223C197.552 317.6 198.71 316.891 200.194 316.975C201.678 317.06 202.784 317.943 202.748 318.566Z" fill="#BCBCBC"/>
<path d="M218.417 318.319C217.968 319.544 217.036 320.33 216.338 320.071C216.302 320.057 216.268 320.042 216.235 320.023C215.623 319.69 215.465 318.548 215.893 317.388C216.326 316.206 217.207 315.435 217.895 315.611C217.921 315.618 217.947 315.625 217.971 315.634C218.669 315.893 218.87 317.094 218.417 318.319Z" fill="#BCBCBC"/>
<path d="M208.729 315.99C208.252 317.19 207.582 318.088 206.7 317.738C206.615 317.705 206.537 317.662 206.461 317.612C205.759 317.145 205.532 316.012 205.964 314.925C206.44 313.725 207.448 312.707 208.86 313.269C208.869 313.273 208.88 313.276 208.887 313.282C209.734 313.643 209.202 314.8 208.729 315.99Z" fill="#BCBCBC"/>
<path d="M210.821 327.707C210.764 327.902 210.552 328.116 210.146 328.325C208.661 329.097 206.069 328.241 206.182 327.42C206.183 327.406 206.186 327.395 206.189 327.384C206.348 326.605 208.026 326.873 208.786 326.842C210.038 326.791 210.971 327.19 210.821 327.707Z" fill="#BCBCBC"/>
<path d="M215.75 323.127C215.946 323.459 215.696 324.074 214.998 324.517C213.724 325.328 212.833 325.507 212.388 325.143C212.34 325.104 212.299 325.059 212.259 325.007C211.868 324.476 213.121 323.882 213.732 323.485C214.878 322.739 215.55 322.784 215.75 323.127Z" fill="#BCBCBC"/>
<path d="M215.373 313.322C215.353 313.618 215.16 313.925 214.8 314.132C213.667 314.786 211.682 314.84 211.435 313.972C211.406 313.873 211.396 313.779 211.398 313.696C211.418 313.057 212.286 312.861 213.08 312.603C214.67 312.087 215.418 312.684 215.373 313.322Z" fill="#BCBCBC"/>
<path d="M208.481 309.88C208.448 309.856 208.419 309.822 208.391 309.785C208.177 309.479 208.223 308.825 208.743 308.298C209.082 307.956 209.633 307.656 210.089 307.669C210.29 307.676 210.469 307.742 210.609 307.893C210.953 308.271 208.97 310.266 208.481 309.88Z" fill="#BCBCBC"/>
<path d="M201.441 312.607C201.388 312.701 201.286 312.741 201.126 312.698C200.032 312.404 199.316 311.305 199.584 310.9C199.688 310.739 199.804 310.641 199.921 310.589C200.723 310.239 201.704 312.129 201.441 312.607Z" fill="#BCBCBC"/>
<path d="M215.606 309.717C215.57 309.769 215.514 309.808 215.441 309.828C215.138 309.912 214.561 309.705 214.106 309.156C213.841 308.832 213.821 308.385 213.992 308.143C214.18 307.871 214.604 307.852 215.176 308.538C215.504 308.926 215.787 309.444 215.606 309.717Z" fill="#BCBCBC"/>
<path d="M220.389 320.942C220.084 322.288 219.555 323.581 218.818 324.759C218.664 324.77 218.506 324.745 218.392 324.645C218.29 324.556 218.225 324.405 218.237 324.16C218.276 323.212 218.1 321.886 219.07 321.242C219.353 321.053 219.606 320.954 219.83 320.913C220.047 320.876 220.233 320.894 220.389 320.942Z" fill="#BCBCBC"/>
<path d="M217.122 326.905C216.365 327.672 215.492 328.348 214.513 328.913C214.064 329.172 213.606 329.399 213.142 329.595C213.069 329.468 213.014 329.318 213.025 329.157C213.036 329.003 213.109 328.842 213.295 328.691C213.976 328.128 214.064 327.406 215.17 326.852C215.744 326.565 216.289 326.612 216.676 326.724C216.869 326.781 217.019 326.852 217.122 326.905Z" fill="#BCBCBC"/>
<path d="M204.487 308.174C204.587 308.473 204.189 308.832 203.912 308.857C203.853 308.863 203.8 308.852 203.759 308.826C203.487 308.647 204.046 307.697 204.396 308.038C204.44 308.082 204.469 308.127 204.487 308.174Z" fill="#BCBCBC"/>
<path d="M209.379 324.232C209.015 324.253 208.731 324.27 209.121 324.801C209.512 325.331 210.025 325.204 210.404 324.986C210.78 324.769 209.704 324.213 209.379 324.232Z" fill="#9B9B9B"/>
<path d="M203.935 326.872C203.647 326.954 203.902 327.396 203.968 327.945C204.034 328.493 204.467 328.663 204.843 328.446C205.222 328.228 204.51 326.706 203.935 326.872Z" fill="#9B9B9B"/>
<path d="M199.527 321.853C199.221 321.882 198.878 321.892 198.96 322.18C199.042 322.468 200.009 322.835 200.324 322.654C200.639 322.472 200.4 321.769 199.527 321.853Z" fill="#9B9B9B"/>
<path d="M219.037 312.022C219.398 312.648 219.699 313.294 219.939 313.949C219.827 313.966 219.696 313.957 219.54 313.915C218.546 313.648 218.507 312.479 218.485 312.087C218.459 311.65 218.646 311.583 218.774 311.588C218.865 311.73 218.951 311.874 219.037 312.022Z" fill="#9B9B9B"/>
<path d="M212.951 316.457C212.561 316.623 212.53 317.036 213.242 316.961C213.955 316.888 213.491 316.23 212.951 316.457Z" fill="#9B9B9B"/>
<path d="M197.776 321.436C197.655 321.619 197.841 321.985 198.246 321.67C198.649 321.353 198.043 321.031 197.776 321.436Z" fill="#9B9B9B"/>
<path d="M204.172 311.865C204.021 312.037 203.878 312.371 204.354 312.181C204.829 311.988 204.324 311.693 204.172 311.865Z" fill="#9B9B9B"/>
<path d="M205.242 311.248C204.935 311.247 205.281 311.897 205.615 312.04C205.948 312.183 206.251 311.252 205.242 311.248Z" fill="#9B9B9B"/>
<path d="M215.878 325.02C215.759 325.129 215.835 325.38 216.284 325.29C216.735 325.196 216.371 324.566 215.878 325.02Z" fill="#9B9B9B"/>
<path d="M211.017 329.253C210.865 329.425 210.747 329.659 211.199 329.568C211.649 329.474 211.168 329.081 211.017 329.253Z" fill="#9B9B9B"/>
<path d="M205.985 319.807C205.675 320.008 206.618 320.028 206.842 319.983C207.067 319.938 207.27 318.98 205.985 319.807Z" fill="#9B9B9B"/>
<path d="M215.367 312.208C215.28 312.422 215.967 312.954 216.181 312.745C216.396 312.536 215.678 311.439 215.367 312.208Z" fill="#9B9B9B"/>
<path d="M212.851 319.548C212.885 319.673 212.911 319.799 212.93 319.914C213.031 320.511 212.058 321.33 211.641 321.27C211.631 321.269 211.62 321.266 211.609 321.263C211.212 321.156 211.091 320.382 211.045 319.992C210.979 319.443 211.742 318.582 212.129 318.525C212.444 318.485 212.709 319.019 212.851 319.548Z" fill="#BCBCBC"/>
<path d="M197.612 318.541C197.546 318.448 197.512 318.341 197.518 318.225C197.553 317.603 198.711 316.893 200.195 316.978C201.68 317.062 202.785 317.946 202.75 318.568L202.749 318.572C202.606 318.287 202.268 317.968 201.555 317.661C199.698 316.866 197.508 317.487 197.612 318.541Z" fill="#9B9B9B"/>
<path d="M208.865 321.837C208.901 321.932 208.918 322.032 208.917 322.133C208.829 322.04 208.106 321.325 206.84 321.581C205.528 321.849 203.858 322.377 203.377 323.58C203.222 323.964 203.234 324.262 203.318 324.489C203.131 324.365 202.996 324.208 202.925 324.014C202.613 323.165 203.801 322.231 205.443 321.632C207.083 321.03 208.554 320.987 208.865 321.837Z" fill="#9B9B9B"/>
<path d="M206.787 314.218C205.85 315.298 206.019 316.732 206.461 317.612C205.759 317.145 205.532 316.012 205.964 314.925C206.44 313.725 207.448 312.707 208.86 313.269C208.869 313.273 208.88 313.276 208.887 313.282C208.376 313.213 207.577 313.31 206.787 314.218Z" fill="#9B9B9B"/>
<path d="M212.851 319.548C212.576 319.099 212.166 318.649 211.773 319.07C211.37 319.503 211.328 320.71 211.643 321.268C211.634 321.268 211.622 321.265 211.611 321.262C211.214 321.155 211.094 320.381 211.047 319.991C210.981 319.442 211.744 318.581 212.131 318.524C212.444 318.485 212.709 319.019 212.851 319.548Z" fill="#9B9B9B"/>
<path d="M215.373 313.322C215.037 312.408 213.551 312.908 212.746 313.05C211.949 313.19 211.546 313.535 211.395 313.697C211.415 313.058 212.283 312.862 213.078 312.604C214.669 312.087 215.418 312.684 215.373 313.322Z" fill="#9B9B9B"/>
<path d="M208.481 309.88C208.448 309.856 208.419 309.822 208.391 309.785C208.941 309.819 209.835 309.017 210.25 308.439C210.547 308.023 210.326 307.793 210.09 307.672C210.291 307.678 210.47 307.744 210.611 307.895C210.953 308.271 208.97 310.266 208.481 309.88Z" fill="#9B9B9B"/>
<path d="M201.441 312.607C201.388 312.701 201.286 312.741 201.126 312.698C200.032 312.404 199.316 311.305 199.584 310.9C199.688 310.739 199.804 310.641 199.921 310.589C199.785 310.705 199.627 310.975 199.948 311.531C200.317 312.171 200.928 312.518 201.441 312.607Z" fill="#9B9B9B"/>
<path d="M204.487 308.174C204.403 308.078 204.259 308.023 204.02 308.255C203.824 308.443 203.838 308.668 203.912 308.857C203.853 308.863 203.8 308.852 203.759 308.826C203.487 308.647 204.046 307.697 204.396 308.038C204.44 308.082 204.469 308.127 204.487 308.174Z" fill="#9B9B9B"/>
<path d="M210.821 327.707C210.571 327.399 210.07 327.249 209.365 327.264C208.452 327.286 207.732 327.2 207.11 327.138C206.785 327.106 206.441 327.245 206.189 327.384C206.348 326.605 208.026 326.873 208.786 326.842C210.038 326.791 210.971 327.19 210.821 327.707Z" fill="#9B9B9B"/>
<path d="M215.75 323.126C215.504 322.933 215.138 323.006 214.63 323.299L212.867 324.317C212.192 324.706 212.375 325.122 212.386 325.14C212.339 325.102 212.297 325.057 212.257 325.004C211.867 324.474 213.119 323.88 213.73 323.483C214.878 322.739 215.549 322.784 215.75 323.126Z" fill="#9B9B9B"/>
<path d="M216.678 326.726C216.868 326.779 217.02 326.852 217.123 326.905C216.365 327.672 215.492 328.348 214.514 328.913C214.064 329.172 213.606 329.399 213.142 329.595C213.069 329.468 213.014 329.318 213.025 329.157C215.403 328.444 216.344 327.289 216.678 326.726Z" fill="#9B9B9B"/>
<path d="M220.389 320.942C220.084 322.288 219.555 323.581 218.818 324.76C218.664 324.77 218.506 324.745 218.392 324.645C219.768 322.972 219.839 321.341 219.831 320.915C220.047 320.876 220.233 320.894 220.389 320.942Z" fill="#9B9B9B"/>
<path d="M217.895 315.611C217.726 315.643 216.56 315.943 216.167 317.961C215.969 318.982 216.069 319.627 216.235 320.023C215.623 319.69 215.465 318.548 215.893 317.388C216.328 316.209 217.207 315.435 217.895 315.611Z" fill="#9B9B9B"/>
<path d="M215.44 309.826C215.137 309.91 214.56 309.703 214.105 309.153C213.84 308.83 213.82 308.383 213.99 308.14C213.967 308.333 213.991 308.592 214.184 308.857C214.502 309.282 214.937 309.639 215.44 309.826Z" fill="#9B9B9B"/>
<path d="M201.508 328.511C201.351 328.407 201.193 328.297 201.04 328.185C201.184 327.738 201.192 327.068 200.361 326.497C199.332 325.789 198.621 325.08 198.109 325.149C198.105 325.142 198.103 325.137 198.096 325.132C198.296 324.978 198.65 324.906 199.218 325.391C199.955 326.022 202.373 327.202 201.508 328.511Z" fill="#9B9B9B"/>
<path opacity="0.45" d="M219.733 322.989C219.478 323.6 219.172 324.194 218.819 324.762C218.341 325.53 217.775 326.249 217.126 326.906C216.368 327.673 215.495 328.349 214.517 328.914C214.068 329.173 213.61 329.4 213.146 329.596C209.262 331.241 204.889 330.747 201.51 328.51C200.192 327.639 199.027 326.505 198.099 325.13C197.933 324.887 197.776 324.636 197.628 324.379C196.695 322.763 196.168 321.025 196.014 319.281C195.877 317.723 196.04 316.161 196.478 314.681C201.718 330.658 213.841 326.293 219.733 322.989Z" fill="url(#paint8_linear_105_14994)"/>
<path d="M219.037 312.022C219.398 312.648 219.698 313.294 219.938 313.949C220.067 314.301 220.181 314.656 220.278 315.014C214.932 306.612 206.273 305.078 198.384 310.846C199.363 309.518 200.628 308.365 202.147 307.488C206.763 304.824 212.384 305.476 216.252 308.708C217.215 309.513 218.069 310.476 218.775 311.59C218.865 311.73 218.951 311.874 219.037 312.022Z" fill="url(#paint9_linear_105_14994)"/>
</g>
<defs>
<radialGradient id="paint0_radial_105_14994" cx="0" cy="0" r="1" gradientUnits="userSpaceOnUse" gradientTransform="translate(43.3456 130.226) rotate(-38.5099) scale(15.5588 16.0465)">
<stop stop-color="#C7F1F6"/>
<stop offset="1" stop-color="#D3F4F9" stop-opacity="0"/>
</radialGradient>
<radialGradient id="paint1_radial_105_14994" cx="0" cy="0" r="1" gradientUnits="userSpaceOnUse" gradientTransform="translate(37.1674 125.571) rotate(-38.5099) scale(24.1808 24.9389)">
<stop stop-color="#31E7C2"/>
<stop offset="1" stop-color="#652FB0"/>
</radialGradient>
<linearGradient id="paint2_linear_105_14994" x1="61.2808" y1="141.484" x2="34.5912" y2="125.457" gradientUnits="userSpaceOnUse">
<stop stop-color="#4A3E9E"/>
<stop offset="1" stop-color="#4AE09E" stop-opacity="0.5"/>
</linearGradient>
<linearGradient id="paint3_linear_105_14994" x1="54.4369" y1="143.325" x2="39.0599" y2="127.215" gradientUnits="userSpaceOnUse">
<stop stop-color="#3D3789"/>
<stop offset="1" stop-color="#3DCC5E" stop-opacity="0.2"/>
</linearGradient>
<linearGradient id="paint4_linear_105_14994" x1="48.4056" y1="137.266" x2="40.6693" y2="126.303" gradientUnits="userSpaceOnUse">
<stop stop-color="#83ECEC"/>
<stop offset="1" stop-color="#8EE2D3" stop-opacity="0.3"/>
</linearGradient>
<linearGradient id="paint5_linear_105_14994" x1="32.6262" y1="117.902" x2="37.5626" y2="124.037" gradientUnits="userSpaceOnUse">
<stop stop-color="#C7F1F6"/>
<stop offset="1" stop-color="#D3F4F9" stop-opacity="0"/>
</linearGradient>
<radialGradient id="paint6_radial_105_14994" cx="0" cy="0" r="1" gradientUnits="userSpaceOnUse" gradientTransform="translate(208.346 318.226) rotate(-29.9929) scale(14.805 14.8161)">
<stop stop-color="#F8F8F8"/>
<stop offset="1" stop-color="white" stop-opacity="0"/>
</radialGradient>
<radialGradient id="paint7_radial_105_14994" cx="0" cy="0" r="1" gradientUnits="userSpaceOnUse" gradientTransform="translate(204.586 312.802) rotate(-29.9929) scale(18.8742 18.8883)">
<stop stop-color="#E8E8E8"/>
<stop offset="1" stop-color="#DFDFDF"/>
</radialGradient>
<linearGradient id="paint8_linear_105_14994" x1="215.207" y1="334.89" x2="199.778" y2="308.4" gradientUnits="userSpaceOnUse">
<stop/>
<stop offset="1" stop-opacity="0.2"/>
</linearGradient>
<linearGradient id="paint9_linear_105_14994" x1="211.667" y1="301.987" x2="209.314" y2="312.966" gradientUnits="userSpaceOnUse">
<stop stop-color="#B7B7B7"/>
<stop offset="0.557292" stop-color="#AEAEAE" stop-opacity="0.2"/>
</linearGradient>
<clipPath id="clip0_105_14994">
<rect width="46" height="34" fill="white" transform="translate(14.7637 131.245) rotate(-38.5099)"/>
</clipPath>
<clipPath id="clip1_105_14994">
<rect width="32" height="32" fill="white" transform="translate(186.491 312.367) rotate(-29.9929)"/>
</clipPath>
</defs>
</svg>
