<svg width="308" height="307" viewBox="0 0 308 307" fill="none" xmlns="http://www.w3.org/2000/svg">
<path d="M52.8706 113.204C58.6719 98.7192 67.5257 85.654 78.8294 74.8978C90.1331 64.1416 103.621 55.9469 118.376 50.8713C133.131 45.7958 148.807 43.9585 164.335 45.4847C179.864 47.0108 194.882 51.8644 208.366 59.7152C221.851 67.566 233.486 78.2298 242.479 90.9807C251.473 103.732 257.614 118.27 260.484 133.608C263.355 148.945 262.887 164.72 259.114 179.861C255.341 195.001 248.35 209.151 238.617 221.347" stroke="#F45279" stroke-dasharray="20 20"/>
<path d="M52.6796 105.195C51.7594 105.073 51.4874 103.872 52.2654 103.366L54.5004 101.91C54.745 101.751 54.9078 101.493 54.9462 101.204L55.2964 98.5598C55.4183 97.6395 56.6193 97.3676 57.1258 98.1456L58.5809 100.381C58.7401 100.625 58.9983 100.788 59.2876 100.826L61.9315 101.177C62.8518 101.299 63.1237 102.5 62.3458 103.006L60.1107 104.461C59.8661 104.62 59.7033 104.878 59.665 105.168L59.3147 107.812C59.1928 108.732 57.9918 109.004 57.4853 108.226L56.0302 105.991C55.871 105.746 55.6128 105.583 55.3235 105.545L52.6796 105.195Z" fill="#958BFF"/>
<path d="M191.625 48.2712C191.337 47.3887 192.303 46.6243 193.096 47.1068L198.401 50.335C198.65 50.4867 198.953 50.5219 199.231 50.4314L205.134 48.5056C206.017 48.2177 206.781 49.1831 206.299 49.9762L203.071 55.281C202.919 55.5304 202.884 55.8335 202.974 56.111L204.9 62.0147C205.188 62.8973 204.222 63.6617 203.429 63.1791L198.125 59.951C197.875 59.7993 197.572 59.764 197.295 59.8545L191.391 61.7803C190.508 62.0682 189.744 61.1028 190.226 60.3098L193.455 55.0049C193.606 54.7556 193.642 54.4524 193.551 54.175L191.625 48.2712Z" fill="#958BFF"/>
<path d="M253.753 146.23C252.96 145.746 253.198 144.538 254.114 144.39L260.244 143.398C260.532 143.351 260.786 143.181 260.938 142.932L264.175 137.633C264.659 136.841 265.868 137.078 266.016 137.994L267.008 144.125C267.054 144.413 267.225 144.666 267.474 144.818L272.773 148.056C273.565 148.539 273.328 149.748 272.411 149.896L266.281 150.888C265.993 150.935 265.74 151.105 265.587 151.354L262.35 156.653C261.866 157.445 260.658 157.208 260.51 156.292L259.518 150.161C259.471 149.873 259.301 149.62 259.052 149.468L253.753 146.23Z" fill="#958BFF"/>
</svg>
