<svg width="72" height="71" viewBox="0 0 72 71" fill="none" xmlns="http://www.w3.org/2000/svg">
<path d="M11.1997 38.3399C10.4695 31.8403 12.3512 25.3169 16.4308 20.2048C20.5103 15.0926 26.4536 11.8104 32.9532 11.0802C39.4527 10.3501 45.9762 12.2317 51.0883 16.3113C56.2005 20.3909 59.4827 26.3342 60.2129 32.8337C60.943 39.3333 59.0614 45.8567 54.9818 50.9689C50.9022 56.0811 44.9589 59.3633 38.4594 60.0934C31.9598 60.8236 25.4364 58.9419 20.3242 54.8623C15.212 50.7828 11.9298 44.8395 11.1997 38.3399L11.1997 38.3399Z" stroke="#F45279"/>
<g clip-path="url(#clip0_105_15100)">
<circle cx="153.346" cy="153.227" r="143" fill="url(#paint0_radial_105_15100)"/>
<path d="M52.7556 35.3166C52.7123 50.7599 33.909 58.3266 23.1656 47.5832C12.189 36.7132 19.9123 17.8932 35.3756 17.8932C45.4556 17.8932 52.779 26.2032 52.7556 35.3166Z" fill="url(#paint1_radial_105_15100)"/>
<g opacity="0.5">
<path d="M52.6488 33.5332C52.3254 33.5066 51.9454 33.5066 51.5221 33.5632C50.2254 33.7332 48.2388 34.4699 46.1388 37.0199C45.8054 37.4266 45.4955 37.8099 45.1921 38.1832C41.8288 42.3465 40.2921 44.2499 30.2588 45.1599C27.0888 45.4466 24.8954 46.5066 23.3754 47.7932C23.3021 47.7232 23.2321 47.6566 23.1621 47.5832C24.7188 46.2566 26.9754 45.1599 30.2321 44.8666C40.1388 43.9666 41.5521 42.2199 44.9621 37.9966C45.2621 37.6232 45.5721 37.2399 45.9088 36.8332C48.0788 34.1966 50.1488 33.4399 51.5021 33.2665C51.9154 33.2132 52.2888 33.2099 52.6121 33.2332C52.6288 33.3332 52.6421 33.4332 52.6488 33.5332Z" fill="#FFED9F"/>
<path d="M52.5591 37.7166C52.5457 37.8132 52.5324 37.9099 52.5157 38.0032C50.9724 37.9799 49.5957 38.6099 48.4057 39.8866C47.7124 40.6299 47.1191 41.3266 46.5957 41.9399C44.0191 44.9599 42.4624 46.7832 34.8124 48.0166C31.8491 48.4932 29.6691 49.5332 28.3191 51.1066C28.2257 51.0666 28.1324 51.0232 28.0391 50.9799C29.4324 49.3166 31.6924 48.2199 34.7657 47.7266C42.3091 46.5099 43.7524 44.8199 46.3724 41.7499C46.8991 41.1332 47.4957 40.4332 48.1924 39.6866C49.6257 38.1432 51.1891 37.6899 52.5591 37.7166Z" fill="#FFED9F"/>
<path d="M51.4355 41.8466C51.3922 41.9499 51.3489 42.0566 51.3022 42.1599C50.0589 42.3699 48.9922 43.0232 48.1155 44.1199C45.7289 47.1032 44.1455 48.6432 39.9555 49.8899C37.1222 50.7299 35.9255 51.7832 35.4289 52.6066H35.3755C35.2789 52.6066 35.1855 52.6066 35.0889 52.6032C35.7389 51.3632 37.3455 50.3532 39.8689 49.6032C43.9789 48.3832 45.5355 46.8666 47.8822 43.9332C48.9822 42.5632 50.2655 42.0099 51.4355 41.8466Z" fill="#FFED9F"/>
<path d="M34.5919 37.3199C33.5019 39.2165 30.7719 39.9365 26.7319 40.8199C23.2353 41.5832 21.4586 43.1265 20.5753 44.3165C20.5186 44.2232 20.4619 44.1299 20.4053 44.0366C20.4853 43.9299 20.5753 43.8232 20.6719 43.7099C21.5853 42.6565 23.3686 41.2532 26.6686 40.5299C30.6319 39.6632 33.3053 38.9599 34.3353 37.1732C34.9919 36.0265 34.9653 34.4599 34.2519 32.2399C33.6486 30.3665 32.7419 28.4865 31.8686 26.6699C30.5586 23.9465 29.2919 21.3199 29.2119 19.0232C29.3119 18.9865 29.4086 18.9499 29.5086 18.9132C29.5519 21.1732 30.8186 23.8065 32.1353 26.5399C33.0153 28.3665 33.9253 30.2532 34.5353 32.1499C35.2753 34.4532 35.2953 36.0965 34.5919 37.3199Z" fill="#FFED9F"/>
<path d="M30.7024 34.4132C30.0124 35.7132 27.869 36.2465 24.1557 36.7765C21.4557 37.1632 19.619 38.0632 18.4157 38.9432C18.3924 38.8332 18.369 38.7199 18.3457 38.6099C19.5824 37.7365 21.4257 36.8665 24.1124 36.4832C27.6457 35.9799 29.8124 35.4565 30.439 34.2732C30.8457 33.5032 30.6557 32.3932 29.819 30.6799C29.6357 30.3065 29.4557 29.9432 29.2824 29.5899C27.7057 26.4165 26.419 23.8265 26.849 20.1299C26.9557 20.0699 27.059 20.0099 27.169 19.9532C26.669 23.6565 27.9057 26.1499 29.549 29.4565C29.7257 29.8099 29.9057 30.1732 30.089 30.5465C30.969 32.3599 31.159 33.5499 30.7024 34.4132Z" fill="#FFED9F"/>
<path d="M22.8289 31.9099C22.4389 32.0599 21.9989 32.2299 21.5289 32.4265C19.7456 33.1832 18.6489 33.9999 18.0322 34.5765C18.0356 34.4365 18.0456 34.2965 18.0556 34.1565C18.7189 33.5832 19.7856 32.8465 21.4156 32.1565C21.8889 31.9565 22.3322 31.7865 22.7256 31.6365C25.0589 30.7432 26.0256 30.3732 25.3722 26.6965C24.9389 24.2565 25.0322 22.3865 25.2122 21.1832C25.3256 21.0999 25.4389 21.0199 25.5556 20.9399C25.3556 22.0999 25.2022 24.0565 25.6622 26.6465C26.3589 30.5599 25.1789 31.0132 22.8289 31.9099Z" fill="#FFED9F"/>
<path d="M22.669 27.3866C21.9257 28.5332 20.4023 28.9366 19.1523 29.0666C19.1923 28.9599 19.2357 28.8532 19.279 28.7466C20.4357 28.6066 21.7757 28.2199 22.4223 27.2232C22.9657 26.3866 22.9457 25.2266 22.359 23.7666C22.4324 23.6832 22.5023 23.6032 22.579 23.5232C23.2557 25.1432 23.2857 26.4399 22.669 27.3866Z" fill="#FFED9F"/>
<path d="M52.3454 31.5865C49.7054 31.0599 48.5954 29.3632 47.5154 27.7165C47.2854 27.3632 47.0454 26.9999 46.7987 26.6599C46.612 26.4032 46.4354 26.1432 46.2687 25.8932C45.032 24.0665 43.862 22.3399 37.922 21.3932C35.062 20.9365 33.0754 20.0199 32.022 18.6632C31.9187 18.5299 31.832 18.3999 31.7554 18.2732C31.8587 18.2499 31.962 18.2299 32.0654 18.2099C32.1254 18.3065 32.1954 18.4032 32.272 18.5032C32.9687 19.3865 34.522 20.5532 37.9687 21.1032C44.0354 22.0699 45.2387 23.8465 46.512 25.7299C46.6787 25.9765 46.852 26.2332 47.0387 26.4865C47.292 26.8332 47.532 27.1999 47.7654 27.5565C48.7887 29.1199 49.842 30.7265 52.2787 31.2665C52.2987 31.3699 52.3254 31.4765 52.3454 31.5865Z" fill="#FFED9F"/>
<path d="M51.1121 27.9132C49.2821 27.4132 48.2854 26.1432 47.2387 24.8099C46.0587 23.3099 44.7254 21.6099 41.9387 20.6965C38.9721 19.7232 37.5421 18.7165 36.8521 17.9565C37.0054 17.9699 37.1621 17.9832 37.3154 18.0032C38.0387 18.6865 39.4154 19.5599 42.0287 20.4165C44.8987 21.3565 46.2654 23.0965 47.4687 24.6299C48.4721 25.9065 49.3654 27.0432 50.9387 27.5565C50.9987 27.6732 51.0554 27.7932 51.1121 27.9132Z" fill="#FFED9F"/>
<path d="M46.5686 30.8832C46.0053 28.0599 42.0953 23.9965 38.5286 22.5165C36.6986 21.7599 35.1386 21.7565 34.0153 22.5032C33.3253 22.9632 33.822 24.3832 34.5786 26.5299C34.922 27.5032 35.3086 28.6032 35.632 29.7665C35.8886 30.6899 36.052 31.7165 36.212 32.7065C36.6786 35.6065 37.1186 38.3465 39.702 38.6499C39.8586 38.6699 40.0186 38.6765 40.1786 38.6765C41.7253 38.6765 43.442 37.8365 44.762 36.4032C46.2586 34.7799 46.9353 32.7165 46.5686 30.8832ZM44.542 36.2032C43.1453 37.7165 41.3053 38.5399 39.7353 38.3565C37.372 38.0799 36.9486 35.4465 36.502 32.6599C36.342 31.6599 36.1753 30.6265 35.9153 29.6865C35.5886 28.5132 35.1986 27.4065 34.8553 26.4299C34.222 24.6332 33.6753 23.0832 34.1753 22.7499C35.4853 21.8765 37.202 22.2899 38.412 22.7899C41.842 24.2099 45.7386 28.2499 46.2753 30.9399C46.6253 32.6799 45.9753 34.6499 44.542 36.2032Z" fill="#FFED9F"/>
<path d="M43.542 28.0232C41.7853 25.9599 39.052 23.9599 36.7587 23.9599C36.6487 23.9599 36.5453 23.9632 36.4387 23.9732C36.2253 23.9899 36.0653 24.0965 35.9753 24.2732C35.4353 25.3332 37.5387 28.8499 37.5587 28.8832C38.0887 29.7665 38.1887 31.0199 38.282 32.2332C38.422 34.0332 38.5553 35.7332 40.1353 35.8765C40.2953 35.8899 40.4553 35.8999 40.612 35.8999C42.8987 35.8999 44.8887 34.4032 45.442 32.1932C45.672 31.2699 44.9453 29.6699 43.542 28.0232ZM45.1553 32.1199C44.5987 34.3365 42.4987 35.7932 40.1587 35.5799C38.8253 35.4599 38.7087 33.9532 38.572 32.2099C38.4753 30.9632 38.3754 29.6732 37.8054 28.7299C36.9554 27.3199 35.9054 25.0465 36.232 24.4065C36.2787 24.3199 36.3487 24.2732 36.4587 24.2665C38.712 24.0765 41.5254 26.1099 43.3154 28.2132C44.6387 29.7665 45.362 31.2999 45.1553 32.1199Z" fill="#FFED9F"/>
<path d="M42.8957 31.3866C42.7523 29.8599 41.0523 27.6099 39.719 27.6099C39.5923 27.6099 39.519 27.6732 39.479 27.7266C39.319 27.9399 39.439 28.3632 39.6823 29.1532C39.8423 29.6699 40.0223 30.2566 40.0623 30.7299C40.079 30.9199 40.079 31.1099 40.0823 31.2932C40.089 31.8199 40.099 32.3166 40.4457 32.5999C40.629 32.7499 40.889 32.8232 41.239 32.8232C41.459 32.8232 41.7157 32.7932 42.009 32.7399C42.6523 32.6099 42.9657 32.1332 42.8957 31.3866ZM41.959 32.4432C41.289 32.5699 40.8557 32.5466 40.6357 32.3666C40.3957 32.1699 40.389 31.7599 40.3823 31.2832C40.379 31.0966 40.3757 30.9032 40.359 30.7032C40.319 30.1966 40.1323 29.5932 39.9657 29.0599C39.839 28.6466 39.6457 28.0266 39.7123 27.9032H39.7157C40.8757 27.9032 42.4723 30.0599 42.599 31.4132C42.6557 32.0032 42.439 32.3499 41.959 32.4432Z" fill="#FFED9F"/>
</g>
<path opacity="0.65" d="M52.459 38.4432C52.2224 39.6899 51.839 40.9366 51.3057 42.1632C46.4557 53.3266 31.7724 56.1899 23.169 47.5866C17.9124 42.3799 16.9457 35.3466 19.0657 29.4299C20.8257 33.5199 23.6624 39.6532 33.7024 42.7466C40.839 44.9432 48.9857 43.0399 52.459 38.4432Z" fill="url(#paint2_linear_105_15100)"/>
<path opacity="0.65" d="M52.7557 35.3166C52.7523 36.3499 52.6557 37.3966 52.4557 38.4432C52.219 39.6899 51.8357 40.9366 51.3023 42.1632C46.4523 53.3266 31.769 56.1899 23.1657 47.5866C22.1423 46.5732 21.2824 45.4899 20.5757 44.3599C44.8624 55.4066 52.539 34.5632 52.539 34.5632L52.7557 35.3166Z" fill="url(#paint3_linear_105_15100)"/>
</g>
<defs>
<radialGradient id="paint0_radial_105_15100" cx="0" cy="0" r="1" gradientUnits="userSpaceOnUse" gradientTransform="translate(154.325 152.198) rotate(0.490606) scale(120.099 114.361)">
<stop stop-color="#FFD83D"/>
<stop offset="1" stop-color="#FCC724" stop-opacity="0"/>
</radialGradient>
<radialGradient id="paint1_radial_105_15100" cx="0" cy="0" r="1" gradientUnits="userSpaceOnUse" gradientTransform="translate(35.6817 28.5964) scale(17.3669 17.3669)">
<stop stop-color="#FFD83D"/>
<stop offset="1" stop-color="#FC7B24"/>
</radialGradient>
<linearGradient id="paint2_linear_105_15100" x1="32.6405" y1="52.8856" x2="35.3032" y2="35.8246" gradientUnits="userSpaceOnUse">
<stop stop-color="#E04127"/>
<stop offset="1" stop-color="#E04127" stop-opacity="0.1"/>
</linearGradient>
<linearGradient id="paint3_linear_105_15100" x1="40.1032" y1="53.8228" x2="35.8136" y2="36.3682" gradientUnits="userSpaceOnUse">
<stop stop-color="#C22C27"/>
<stop offset="1" stop-color="#D33127" stop-opacity="0.2"/>
</linearGradient>
<clipPath id="clip0_105_15100">
<rect width="50" height="50" fill="white" transform="translate(10.3462 10.2266)"/>
</clipPath>
</defs>
</svg>
